<?xml version="1.0" encoding="utf-8" standalone="no"?>
<!DOCTYPE svg PUBLIC "-//W3C//DTD SVG 1.1//EN"
  "http://www.w3.org/Graphics/SVG/1.1/DTD/svg11.dtd">
<svg xmlns:xlink="http://www.w3.org/1999/xlink" width="455.76625pt" height="335.865313pt" viewBox="0 0 455.76625 335.865313" xmlns="http://www.w3.org/2000/svg" version="1.1">
 <metadata>
  <rdf:RDF xmlns:dc="http://purl.org/dc/elements/1.1/" xmlns:cc="http://creativecommons.org/ns#" xmlns:rdf="http://www.w3.org/1999/02/22-rdf-syntax-ns#">
   <cc:Work>
    <dc:type rdf:resource="http://purl.org/dc/dcmitype/StillImage"/>
    <dc:date>2026-07-23T17:04:53.178999</dc:date>
    <dc:format>image/svg+xml</dc:format>
    <dc:creator>
     <cc:Agent>
      <dc:title>Matplotlib v3.9.2, https://matplotlib.org/</dc:title>
     </cc:Agent>
    </dc:creator>
   </cc:Work>
  </rdf:RDF>
 </metadata>
 <defs>
  <style type="text/css">*{stroke-linejoin: round; stroke-linecap: butt}</style>
 </defs>
 <g id="figure_1">
  <g id="patch_1">
   <path d="M 0 335.865313 
L 455.76625 335.865313 
L 455.76625 0 
L 0 0 
z
" style="fill: #ffffff"/>
  </g>
  <g id="axes_1">
   <g id="patch_2">
    <path d="M 46.80625 299.135625 
L 448.56625 299.135625 
L 448.56625 21.935625 
L 46.80625 21.935625 
z
" style="fill: #ffffff"/>
   </g>
   <g id="matplotlib.axis_1">
    <g id="xtick_1">
     <g id="line2d_1">
      <path d="M 107.210726 299.135625 
L 107.210726 21.935625 
" clip-path="url(#p24e87e3973)" style="fill: none; stroke: #b0b0b0; stroke-opacity: 0.2; stroke-width: 0.8; stroke-linecap: square"/>
     </g>
     <g id="line2d_2">
      <defs>
       <path id="me2c846acc0" d="M 0 0 
L 0 3.5 
" style="stroke: #000000; stroke-width: 0.8"/>
      </defs>
      <g>
       <use xlink:href="#me2c846acc0" x="107.210726" y="299.135625" style="stroke: #000000; stroke-width: 0.8"/>
      </g>
     </g>
     <g id="text_1">
      <!-- −15 -->
      <g transform="translate(98.729476 313.293438) scale(0.1 -0.1)">
       <defs>
        <path id="ArialMT-2212" d="M 3381 1997 
L 356 1997 
L 356 2522 
L 3381 2522 
L 3381 1997 
z
" transform="scale(0.015625)"/>
        <path id="ArialMT-31" d="M 2384 0 
L 1822 0 
L 1822 3584 
Q 1619 3391 1289 3197 
Q 959 3003 697 2906 
L 697 3450 
Q 1169 3672 1522 3987 
Q 1875 4303 2022 4600 
L 2384 4600 
L 2384 0 
z
" transform="scale(0.015625)"/>
        <path id="ArialMT-35" d="M 266 1200 
L 856 1250 
Q 922 819 1161 601 
Q 1400 384 1738 384 
Q 2144 384 2425 690 
Q 2706 997 2706 1503 
Q 2706 1984 2436 2262 
Q 2166 2541 1728 2541 
Q 1456 2541 1237 2417 
Q 1019 2294 894 2097 
L 366 2166 
L 809 4519 
L 3088 4519 
L 3088 3981 
L 1259 3981 
L 1013 2750 
Q 1425 3038 1878 3038 
Q 2478 3038 2890 2622 
Q 3303 2206 3303 1553 
Q 3303 931 2941 478 
Q 2500 -78 1738 -78 
Q 1113 -78 717 272 
Q 322 622 266 1200 
z
" transform="scale(0.015625)"/>
       </defs>
       <use xlink:href="#ArialMT-2212"/>
       <use xlink:href="#ArialMT-31" x="58.398438"/>
       <use xlink:href="#ArialMT-35" x="114.013672"/>
      </g>
     </g>
    </g>
    <g id="xtick_2">
     <g id="line2d_3">
      <path d="M 177.448488 299.135625 
L 177.448488 21.935625 
" clip-path="url(#p24e87e3973)" style="fill: none; stroke: #b0b0b0; stroke-opacity: 0.2; stroke-width: 0.8; stroke-linecap: square"/>
     </g>
     <g id="line2d_4">
      <g>
       <use xlink:href="#me2c846acc0" x="177.448488" y="299.135625" style="stroke: #000000; stroke-width: 0.8"/>
      </g>
     </g>
     <g id="text_2">
      <!-- −10 -->
      <g transform="translate(168.967238 313.293438) scale(0.1 -0.1)">
       <defs>
        <path id="ArialMT-30" d="M 266 2259 
Q 266 3072 433 3567 
Q 600 4063 929 4331 
Q 1259 4600 1759 4600 
Q 2128 4600 2406 4451 
Q 2684 4303 2865 4023 
Q 3047 3744 3150 3342 
Q 3253 2941 3253 2259 
Q 3253 1453 3087 958 
Q 2922 463 2592 192 
Q 2263 -78 1759 -78 
Q 1097 -78 719 397 
Q 266 969 266 2259 
z
M 844 2259 
Q 844 1131 1108 757 
Q 1372 384 1759 384 
Q 2147 384 2411 759 
Q 2675 1134 2675 2259 
Q 2675 3391 2411 3762 
Q 2147 4134 1753 4134 
Q 1366 4134 1134 3806 
Q 844 3388 844 2259 
z
" transform="scale(0.015625)"/>
       </defs>
       <use xlink:href="#ArialMT-2212"/>
       <use xlink:href="#ArialMT-31" x="58.398438"/>
       <use xlink:href="#ArialMT-30" x="114.013672"/>
      </g>
     </g>
    </g>
    <g id="xtick_3">
     <g id="line2d_5">
      <path d="M 247.68625 299.135625 
L 247.68625 21.935625 
" clip-path="url(#p24e87e3973)" style="fill: none; stroke: #b0b0b0; stroke-opacity: 0.2; stroke-width: 0.8; stroke-linecap: square"/>
     </g>
     <g id="line2d_6">
      <g>
       <use xlink:href="#me2c846acc0" x="247.68625" y="299.135625" style="stroke: #000000; stroke-width: 0.8"/>
      </g>
     </g>
     <g id="text_3">
      <!-- −5 -->
      <g transform="translate(241.985469 313.293438) scale(0.1 -0.1)">
       <use xlink:href="#ArialMT-2212"/>
       <use xlink:href="#ArialMT-35" x="58.398438"/>
      </g>
     </g>
    </g>
    <g id="xtick_4">
     <g id="line2d_7">
      <path d="M 317.924012 299.135625 
L 317.924012 21.935625 
" clip-path="url(#p24e87e3973)" style="fill: none; stroke: #b0b0b0; stroke-opacity: 0.2; stroke-width: 0.8; stroke-linecap: square"/>
     </g>
     <g id="line2d_8">
      <g>
       <use xlink:href="#me2c846acc0" x="317.924012" y="299.135625" style="stroke: #000000; stroke-width: 0.8"/>
      </g>
     </g>
     <g id="text_4">
      <!-- 0 -->
      <g transform="translate(315.143543 313.293438) scale(0.1 -0.1)">
       <use xlink:href="#ArialMT-30"/>
      </g>
     </g>
    </g>
    <g id="xtick_5">
     <g id="line2d_9">
      <path d="M 388.161774 299.135625 
L 388.161774 21.935625 
" clip-path="url(#p24e87e3973)" style="fill: none; stroke: #b0b0b0; stroke-opacity: 0.2; stroke-width: 0.8; stroke-linecap: square"/>
     </g>
     <g id="line2d_10">
      <g>
       <use xlink:href="#me2c846acc0" x="388.161774" y="299.135625" style="stroke: #000000; stroke-width: 0.8"/>
      </g>
     </g>
     <g id="text_5">
      <!-- 5 -->
      <g transform="translate(385.381306 313.293438) scale(0.1 -0.1)">
       <use xlink:href="#ArialMT-35"/>
      </g>
     </g>
    </g>
    <g id="text_6">
     <!-- Gate voltage [V] -->
     <g transform="translate(211.833906 326.560625) scale(0.1 -0.1)">
      <defs>
       <path id="ArialMT-47" d="M 2638 1797 
L 2638 2334 
L 4578 2338 
L 4578 638 
Q 4131 281 3656 101 
Q 3181 -78 2681 -78 
Q 2006 -78 1454 211 
Q 903 500 622 1047 
Q 341 1594 341 2269 
Q 341 2938 620 3517 
Q 900 4097 1425 4378 
Q 1950 4659 2634 4659 
Q 3131 4659 3532 4498 
Q 3934 4338 4162 4050 
Q 4391 3763 4509 3300 
L 3963 3150 
Q 3859 3500 3706 3700 
Q 3553 3900 3268 4020 
Q 2984 4141 2638 4141 
Q 2222 4141 1919 4014 
Q 1616 3888 1430 3681 
Q 1244 3475 1141 3228 
Q 966 2803 966 2306 
Q 966 1694 1177 1281 
Q 1388 869 1791 669 
Q 2194 469 2647 469 
Q 3041 469 3416 620 
Q 3791 772 3984 944 
L 3984 1797 
L 2638 1797 
z
" transform="scale(0.015625)"/>
       <path id="ArialMT-61" d="M 2588 409 
Q 2275 144 1986 34 
Q 1697 -75 1366 -75 
Q 819 -75 525 192 
Q 231 459 231 875 
Q 231 1119 342 1320 
Q 453 1522 633 1644 
Q 813 1766 1038 1828 
Q 1203 1872 1538 1913 
Q 2219 1994 2541 2106 
Q 2544 2222 2544 2253 
Q 2544 2597 2384 2738 
Q 2169 2928 1744 2928 
Q 1347 2928 1158 2789 
Q 969 2650 878 2297 
L 328 2372 
Q 403 2725 575 2942 
Q 747 3159 1072 3276 
Q 1397 3394 1825 3394 
Q 2250 3394 2515 3294 
Q 2781 3194 2906 3042 
Q 3031 2891 3081 2659 
Q 3109 2516 3109 2141 
L 3109 1391 
Q 3109 606 3145 398 
Q 3181 191 3288 0 
L 2700 0 
Q 2613 175 2588 409 
z
M 2541 1666 
Q 2234 1541 1622 1453 
Q 1275 1403 1131 1340 
Q 988 1278 909 1158 
Q 831 1038 831 891 
Q 831 666 1001 516 
Q 1172 366 1500 366 
Q 1825 366 2078 508 
Q 2331 650 2450 897 
Q 2541 1088 2541 1459 
L 2541 1666 
z
" transform="scale(0.015625)"/>
       <path id="ArialMT-74" d="M 1650 503 
L 1731 6 
Q 1494 -44 1306 -44 
Q 1000 -44 831 53 
Q 663 150 594 308 
Q 525 466 525 972 
L 525 2881 
L 113 2881 
L 113 3319 
L 525 3319 
L 525 4141 
L 1084 4478 
L 1084 3319 
L 1650 3319 
L 1650 2881 
L 1084 2881 
L 1084 941 
Q 1084 700 1114 631 
Q 1144 563 1211 522 
Q 1278 481 1403 481 
Q 1497 481 1650 503 
z
" transform="scale(0.015625)"/>
       <path id="ArialMT-65" d="M 2694 1069 
L 3275 997 
Q 3138 488 2766 206 
Q 2394 -75 1816 -75 
Q 1088 -75 661 373 
Q 234 822 234 1631 
Q 234 2469 665 2931 
Q 1097 3394 1784 3394 
Q 2450 3394 2872 2941 
Q 3294 2488 3294 1666 
Q 3294 1616 3291 1516 
L 816 1516 
Q 847 969 1125 678 
Q 1403 388 1819 388 
Q 2128 388 2347 550 
Q 2566 713 2694 1069 
z
M 847 1978 
L 2700 1978 
Q 2663 2397 2488 2606 
Q 2219 2931 1791 2931 
Q 1403 2931 1139 2672 
Q 875 2413 847 1978 
z
" transform="scale(0.015625)"/>
       <path id="ArialMT-20" transform="scale(0.015625)"/>
       <path id="ArialMT-76" d="M 1344 0 
L 81 3319 
L 675 3319 
L 1388 1331 
Q 1503 1009 1600 663 
Q 1675 925 1809 1294 
L 2547 3319 
L 3125 3319 
L 1869 0 
L 1344 0 
z
" transform="scale(0.015625)"/>
       <path id="ArialMT-6f" d="M 213 1659 
Q 213 2581 725 3025 
Q 1153 3394 1769 3394 
Q 2453 3394 2887 2945 
Q 3322 2497 3322 1706 
Q 3322 1066 3130 698 
Q 2938 331 2570 128 
Q 2203 -75 1769 -75 
Q 1072 -75 642 372 
Q 213 819 213 1659 
z
M 791 1659 
Q 791 1022 1069 705 
Q 1347 388 1769 388 
Q 2188 388 2466 706 
Q 2744 1025 2744 1678 
Q 2744 2294 2464 2611 
Q 2184 2928 1769 2928 
Q 1347 2928 1069 2612 
Q 791 2297 791 1659 
z
" transform="scale(0.015625)"/>
       <path id="ArialMT-6c" d="M 409 0 
L 409 4581 
L 972 4581 
L 972 0 
L 409 0 
z
" transform="scale(0.015625)"/>
       <path id="ArialMT-67" d="M 319 -275 
L 866 -356 
Q 900 -609 1056 -725 
Q 1266 -881 1628 -881 
Q 2019 -881 2231 -725 
Q 2444 -569 2519 -288 
Q 2563 -116 2559 434 
Q 2191 0 1641 0 
Q 956 0 581 494 
Q 206 988 206 1678 
Q 206 2153 378 2554 
Q 550 2956 876 3175 
Q 1203 3394 1644 3394 
Q 2231 3394 2613 2919 
L 2613 3319 
L 3131 3319 
L 3131 450 
Q 3131 -325 2973 -648 
Q 2816 -972 2473 -1159 
Q 2131 -1347 1631 -1347 
Q 1038 -1347 672 -1080 
Q 306 -813 319 -275 
z
M 784 1719 
Q 784 1066 1043 766 
Q 1303 466 1694 466 
Q 2081 466 2343 764 
Q 2606 1063 2606 1700 
Q 2606 2309 2336 2618 
Q 2066 2928 1684 2928 
Q 1309 2928 1046 2623 
Q 784 2319 784 1719 
z
" transform="scale(0.015625)"/>
       <path id="ArialMT-5b" d="M 434 -1272 
L 434 4581 
L 1675 4581 
L 1675 4116 
L 997 4116 
L 997 -806 
L 1675 -806 
L 1675 -1272 
L 434 -1272 
z
" transform="scale(0.015625)"/>
       <path id="ArialMT-56" d="M 1803 0 
L 28 4581 
L 684 4581 
L 1875 1253 
Q 2019 853 2116 503 
Q 2222 878 2363 1253 
L 3600 4581 
L 4219 4581 
L 2425 0 
L 1803 0 
z
" transform="scale(0.015625)"/>
       <path id="ArialMT-5d" d="M 1363 -1272 
L 122 -1272 
L 122 -806 
L 800 -806 
L 800 4116 
L 122 4116 
L 122 4581 
L 1363 4581 
L 1363 -1272 
z
" transform="scale(0.015625)"/>
      </defs>
      <use xlink:href="#ArialMT-47"/>
      <use xlink:href="#ArialMT-61" x="77.783203"/>
      <use xlink:href="#ArialMT-74" x="133.398438"/>
      <use xlink:href="#ArialMT-65" x="161.181641"/>
      <use xlink:href="#ArialMT-20" x="216.796875"/>
      <use xlink:href="#ArialMT-76" x="244.580078"/>
      <use xlink:href="#ArialMT-6f" x="294.580078"/>
      <use xlink:href="#ArialMT-6c" x="350.195312"/>
      <use xlink:href="#ArialMT-74" x="372.412109"/>
      <use xlink:href="#ArialMT-61" x="400.195312"/>
      <use xlink:href="#ArialMT-67" x="455.810547"/>
      <use xlink:href="#ArialMT-65" x="511.425781"/>
      <use xlink:href="#ArialMT-20" x="567.041016"/>
      <use xlink:href="#ArialMT-5b" x="594.824219"/>
      <use xlink:href="#ArialMT-56" x="622.607422"/>
      <use xlink:href="#ArialMT-5d" x="689.306641"/>
     </g>
    </g>
   </g>
   <g id="matplotlib.axis_2">
    <g id="ytick_1">
     <g id="line2d_11">
      <path d="M 46.80625 286.535625 
L 448.56625 286.535625 
" clip-path="url(#p24e87e3973)" style="fill: none; stroke: #b0b0b0; stroke-opacity: 0.2; stroke-width: 0.8; stroke-linecap: square"/>
     </g>
     <g id="line2d_12">
      <defs>
       <path id="m8fe09a6179" d="M 0 0 
L -3.5 0 
" style="stroke: #000000; stroke-width: 0.8"/>
      </defs>
      <g>
       <use xlink:href="#m8fe09a6179" x="46.80625" y="286.535625" style="stroke: #000000; stroke-width: 0.8"/>
      </g>
     </g>
     <g id="text_7">
      <!-- 0.00 -->
      <g transform="translate(20.345313 290.114531) scale(0.1 -0.1)">
       <defs>
        <path id="ArialMT-2e" d="M 581 0 
L 581 641 
L 1222 641 
L 1222 0 
L 581 0 
z
" transform="scale(0.015625)"/>
       </defs>
       <use xlink:href="#ArialMT-30"/>
       <use xlink:href="#ArialMT-2e" x="55.615234"/>
       <use xlink:href="#ArialMT-30" x="83.398438"/>
       <use xlink:href="#ArialMT-30" x="139.013672"/>
      </g>
     </g>
    </g>
    <g id="ytick_2">
     <g id="line2d_13">
      <path d="M 46.80625 252.802801 
L 448.56625 252.802801 
" clip-path="url(#p24e87e3973)" style="fill: none; stroke: #b0b0b0; stroke-opacity: 0.2; stroke-width: 0.8; stroke-linecap: square"/>
     </g>
     <g id="line2d_14">
      <g>
       <use xlink:href="#m8fe09a6179" x="46.80625" y="252.802801" style="stroke: #000000; stroke-width: 0.8"/>
      </g>
     </g>
     <g id="text_8">
      <!-- 0.02 -->
      <g transform="translate(20.345313 256.381708) scale(0.1 -0.1)">
       <defs>
        <path id="ArialMT-32" d="M 3222 541 
L 3222 0 
L 194 0 
Q 188 203 259 391 
Q 375 700 629 1000 
Q 884 1300 1366 1694 
Q 2113 2306 2375 2664 
Q 2638 3022 2638 3341 
Q 2638 3675 2398 3904 
Q 2159 4134 1775 4134 
Q 1369 4134 1125 3890 
Q 881 3647 878 3216 
L 300 3275 
Q 359 3922 746 4261 
Q 1134 4600 1788 4600 
Q 2447 4600 2831 4234 
Q 3216 3869 3216 3328 
Q 3216 3053 3103 2787 
Q 2991 2522 2730 2228 
Q 2469 1934 1863 1422 
Q 1356 997 1212 845 
Q 1069 694 975 541 
L 3222 541 
z
" transform="scale(0.015625)"/>
       </defs>
       <use xlink:href="#ArialMT-30"/>
       <use xlink:href="#ArialMT-2e" x="55.615234"/>
       <use xlink:href="#ArialMT-30" x="83.398438"/>
       <use xlink:href="#ArialMT-32" x="139.013672"/>
      </g>
     </g>
    </g>
    <g id="ytick_3">
     <g id="line2d_15">
      <path d="M 46.80625 219.069978 
L 448.56625 219.069978 
" clip-path="url(#p24e87e3973)" style="fill: none; stroke: #b0b0b0; stroke-opacity: 0.2; stroke-width: 0.8; stroke-linecap: square"/>
     </g>
     <g id="line2d_16">
      <g>
       <use xlink:href="#m8fe09a6179" x="46.80625" y="219.069978" style="stroke: #000000; stroke-width: 0.8"/>
      </g>
     </g>
     <g id="text_9">
      <!-- 0.04 -->
      <g transform="translate(20.345313 222.648884) scale(0.1 -0.1)">
       <defs>
        <path id="ArialMT-34" d="M 2069 0 
L 2069 1097 
L 81 1097 
L 81 1613 
L 2172 4581 
L 2631 4581 
L 2631 1613 
L 3250 1613 
L 3250 1097 
L 2631 1097 
L 2631 0 
L 2069 0 
z
M 2069 1613 
L 2069 3678 
L 634 1613 
L 2069 1613 
z
" transform="scale(0.015625)"/>
       </defs>
       <use xlink:href="#ArialMT-30"/>
       <use xlink:href="#ArialMT-2e" x="55.615234"/>
       <use xlink:href="#ArialMT-30" x="83.398438"/>
       <use xlink:href="#ArialMT-34" x="139.013672"/>
      </g>
     </g>
    </g>
    <g id="ytick_4">
     <g id="line2d_17">
      <path d="M 46.80625 185.337154 
L 448.56625 185.337154 
" clip-path="url(#p24e87e3973)" style="fill: none; stroke: #b0b0b0; stroke-opacity: 0.2; stroke-width: 0.8; stroke-linecap: square"/>
     </g>
     <g id="line2d_18">
      <g>
       <use xlink:href="#m8fe09a6179" x="46.80625" y="185.337154" style="stroke: #000000; stroke-width: 0.8"/>
      </g>
     </g>
     <g id="text_10">
      <!-- 0.06 -->
      <g transform="translate(20.345313 188.91606) scale(0.1 -0.1)">
       <defs>
        <path id="ArialMT-36" d="M 3184 3459 
L 2625 3416 
Q 2550 3747 2413 3897 
Q 2184 4138 1850 4138 
Q 1581 4138 1378 3988 
Q 1113 3794 959 3422 
Q 806 3050 800 2363 
Q 1003 2672 1297 2822 
Q 1591 2972 1913 2972 
Q 2475 2972 2870 2558 
Q 3266 2144 3266 1488 
Q 3266 1056 3080 686 
Q 2894 316 2569 119 
Q 2244 -78 1831 -78 
Q 1128 -78 684 439 
Q 241 956 241 2144 
Q 241 3472 731 4075 
Q 1159 4600 1884 4600 
Q 2425 4600 2770 4297 
Q 3116 3994 3184 3459 
z
M 888 1484 
Q 888 1194 1011 928 
Q 1134 663 1356 523 
Q 1578 384 1822 384 
Q 2178 384 2434 671 
Q 2691 959 2691 1453 
Q 2691 1928 2437 2201 
Q 2184 2475 1800 2475 
Q 1419 2475 1153 2201 
Q 888 1928 888 1484 
z
" transform="scale(0.015625)"/>
       </defs>
       <use xlink:href="#ArialMT-30"/>
       <use xlink:href="#ArialMT-2e" x="55.615234"/>
       <use xlink:href="#ArialMT-30" x="83.398438"/>
       <use xlink:href="#ArialMT-36" x="139.013672"/>
      </g>
     </g>
    </g>
    <g id="ytick_5">
     <g id="line2d_19">
      <path d="M 46.80625 151.60433 
L 448.56625 151.60433 
" clip-path="url(#p24e87e3973)" style="fill: none; stroke: #b0b0b0; stroke-opacity: 0.2; stroke-width: 0.8; stroke-linecap: square"/>
     </g>
     <g id="line2d_20">
      <g>
       <use xlink:href="#m8fe09a6179" x="46.80625" y="151.60433" style="stroke: #000000; stroke-width: 0.8"/>
      </g>
     </g>
     <g id="text_11">
      <!-- 0.08 -->
      <g transform="translate(20.345313 155.183237) scale(0.1 -0.1)">
       <defs>
        <path id="ArialMT-38" d="M 1131 2484 
Q 781 2613 612 2850 
Q 444 3088 444 3419 
Q 444 3919 803 4259 
Q 1163 4600 1759 4600 
Q 2359 4600 2725 4251 
Q 3091 3903 3091 3403 
Q 3091 3084 2923 2848 
Q 2756 2613 2416 2484 
Q 2838 2347 3058 2040 
Q 3278 1734 3278 1309 
Q 3278 722 2862 322 
Q 2447 -78 1769 -78 
Q 1091 -78 675 323 
Q 259 725 259 1325 
Q 259 1772 486 2073 
Q 713 2375 1131 2484 
z
M 1019 3438 
Q 1019 3113 1228 2906 
Q 1438 2700 1772 2700 
Q 2097 2700 2305 2904 
Q 2513 3109 2513 3406 
Q 2513 3716 2298 3927 
Q 2084 4138 1766 4138 
Q 1444 4138 1231 3931 
Q 1019 3725 1019 3438 
z
M 838 1322 
Q 838 1081 952 856 
Q 1066 631 1291 507 
Q 1516 384 1775 384 
Q 2178 384 2440 643 
Q 2703 903 2703 1303 
Q 2703 1709 2433 1975 
Q 2163 2241 1756 2241 
Q 1359 2241 1098 1978 
Q 838 1716 838 1322 
z
" transform="scale(0.015625)"/>
       </defs>
       <use xlink:href="#ArialMT-30"/>
       <use xlink:href="#ArialMT-2e" x="55.615234"/>
       <use xlink:href="#ArialMT-30" x="83.398438"/>
       <use xlink:href="#ArialMT-38" x="139.013672"/>
      </g>
     </g>
    </g>
    <g id="ytick_6">
     <g id="line2d_21">
      <path d="M 46.80625 117.871507 
L 448.56625 117.871507 
" clip-path="url(#p24e87e3973)" style="fill: none; stroke: #b0b0b0; stroke-opacity: 0.2; stroke-width: 0.8; stroke-linecap: square"/>
     </g>
     <g id="line2d_22">
      <g>
       <use xlink:href="#m8fe09a6179" x="46.80625" y="117.871507" style="stroke: #000000; stroke-width: 0.8"/>
      </g>
     </g>
     <g id="text_12">
      <!-- 0.10 -->
      <g transform="translate(20.345313 121.450413) scale(0.1 -0.1)">
       <use xlink:href="#ArialMT-30"/>
       <use xlink:href="#ArialMT-2e" x="55.615234"/>
       <use xlink:href="#ArialMT-31" x="83.398438"/>
       <use xlink:href="#ArialMT-30" x="139.013672"/>
      </g>
     </g>
    </g>
    <g id="ytick_7">
     <g id="line2d_23">
      <path d="M 46.80625 84.138683 
L 448.56625 84.138683 
" clip-path="url(#p24e87e3973)" style="fill: none; stroke: #b0b0b0; stroke-opacity: 0.2; stroke-width: 0.8; stroke-linecap: square"/>
     </g>
     <g id="line2d_24">
      <g>
       <use xlink:href="#m8fe09a6179" x="46.80625" y="84.138683" style="stroke: #000000; stroke-width: 0.8"/>
      </g>
     </g>
     <g id="text_13">
      <!-- 0.12 -->
      <g transform="translate(20.345313 87.717589) scale(0.1 -0.1)">
       <use xlink:href="#ArialMT-30"/>
       <use xlink:href="#ArialMT-2e" x="55.615234"/>
       <use xlink:href="#ArialMT-31" x="83.398438"/>
       <use xlink:href="#ArialMT-32" x="139.013672"/>
      </g>
     </g>
    </g>
    <g id="ytick_8">
     <g id="line2d_25">
      <path d="M 46.80625 50.405859 
L 448.56625 50.405859 
" clip-path="url(#p24e87e3973)" style="fill: none; stroke: #b0b0b0; stroke-opacity: 0.2; stroke-width: 0.8; stroke-linecap: square"/>
     </g>
     <g id="line2d_26">
      <g>
       <use xlink:href="#m8fe09a6179" x="46.80625" y="50.405859" style="stroke: #000000; stroke-width: 0.8"/>
      </g>
     </g>
     <g id="text_14">
      <!-- 0.14 -->
      <g transform="translate(20.345313 53.984766) scale(0.1 -0.1)">
       <use xlink:href="#ArialMT-30"/>
       <use xlink:href="#ArialMT-2e" x="55.615234"/>
       <use xlink:href="#ArialMT-31" x="83.398438"/>
       <use xlink:href="#ArialMT-34" x="139.013672"/>
      </g>
     </g>
    </g>
    <g id="text_15">
     <!-- Drain current [A] -->
     <g transform="translate(14.357813 196.934844) rotate(-90) scale(0.1 -0.1)">
      <defs>
       <path id="ArialMT-44" d="M 494 0 
L 494 4581 
L 2072 4581 
Q 2606 4581 2888 4516 
Q 3281 4425 3559 4188 
Q 3922 3881 4101 3404 
Q 4281 2928 4281 2316 
Q 4281 1794 4159 1391 
Q 4038 988 3847 723 
Q 3656 459 3429 307 
Q 3203 156 2883 78 
Q 2563 0 2147 0 
L 494 0 
z
M 1100 541 
L 2078 541 
Q 2531 541 2789 625 
Q 3047 709 3200 863 
Q 3416 1078 3536 1442 
Q 3656 1806 3656 2325 
Q 3656 3044 3420 3430 
Q 3184 3816 2847 3947 
Q 2603 4041 2063 4041 
L 1100 4041 
L 1100 541 
z
" transform="scale(0.015625)"/>
       <path id="ArialMT-72" d="M 416 0 
L 416 3319 
L 922 3319 
L 922 2816 
Q 1116 3169 1280 3281 
Q 1444 3394 1641 3394 
Q 1925 3394 2219 3213 
L 2025 2691 
Q 1819 2813 1613 2813 
Q 1428 2813 1281 2702 
Q 1134 2591 1072 2394 
Q 978 2094 978 1738 
L 978 0 
L 416 0 
z
" transform="scale(0.015625)"/>
       <path id="ArialMT-69" d="M 425 3934 
L 425 4581 
L 988 4581 
L 988 3934 
L 425 3934 
z
M 425 0 
L 425 3319 
L 988 3319 
L 988 0 
L 425 0 
z
" transform="scale(0.015625)"/>
       <path id="ArialMT-6e" d="M 422 0 
L 422 3319 
L 928 3319 
L 928 2847 
Q 1294 3394 1984 3394 
Q 2284 3394 2536 3286 
Q 2788 3178 2913 3003 
Q 3038 2828 3088 2588 
Q 3119 2431 3119 2041 
L 3119 0 
L 2556 0 
L 2556 2019 
Q 2556 2363 2490 2533 
Q 2425 2703 2258 2804 
Q 2091 2906 1866 2906 
Q 1506 2906 1245 2678 
Q 984 2450 984 1813 
L 984 0 
L 422 0 
z
" transform="scale(0.015625)"/>
       <path id="ArialMT-63" d="M 2588 1216 
L 3141 1144 
Q 3050 572 2676 248 
Q 2303 -75 1759 -75 
Q 1078 -75 664 370 
Q 250 816 250 1647 
Q 250 2184 428 2587 
Q 606 2991 970 3192 
Q 1334 3394 1763 3394 
Q 2303 3394 2647 3120 
Q 2991 2847 3088 2344 
L 2541 2259 
Q 2463 2594 2264 2762 
Q 2066 2931 1784 2931 
Q 1359 2931 1093 2626 
Q 828 2322 828 1663 
Q 828 994 1084 691 
Q 1341 388 1753 388 
Q 2084 388 2306 591 
Q 2528 794 2588 1216 
z
" transform="scale(0.015625)"/>
       <path id="ArialMT-75" d="M 2597 0 
L 2597 488 
Q 2209 -75 1544 -75 
Q 1250 -75 995 37 
Q 741 150 617 320 
Q 494 491 444 738 
Q 409 903 409 1263 
L 409 3319 
L 972 3319 
L 972 1478 
Q 972 1038 1006 884 
Q 1059 663 1231 536 
Q 1403 409 1656 409 
Q 1909 409 2131 539 
Q 2353 669 2445 892 
Q 2538 1116 2538 1541 
L 2538 3319 
L 3100 3319 
L 3100 0 
L 2597 0 
z
" transform="scale(0.015625)"/>
       <path id="ArialMT-41" d="M -9 0 
L 1750 4581 
L 2403 4581 
L 4278 0 
L 3588 0 
L 3053 1388 
L 1138 1388 
L 634 0 
L -9 0 
z
M 1313 1881 
L 2866 1881 
L 2388 3150 
Q 2169 3728 2063 4100 
Q 1975 3659 1816 3225 
L 1313 1881 
z
" transform="scale(0.015625)"/>
      </defs>
      <use xlink:href="#ArialMT-44"/>
      <use xlink:href="#ArialMT-72" x="72.216797"/>
      <use xlink:href="#ArialMT-61" x="105.517578"/>
      <use xlink:href="#ArialMT-69" x="161.132812"/>
      <use xlink:href="#ArialMT-6e" x="183.349609"/>
      <use xlink:href="#ArialMT-20" x="238.964844"/>
      <use xlink:href="#ArialMT-63" x="266.748047"/>
      <use xlink:href="#ArialMT-75" x="316.748047"/>
      <use xlink:href="#ArialMT-72" x="372.363281"/>
      <use xlink:href="#ArialMT-72" x="405.664062"/>
      <use xlink:href="#ArialMT-65" x="438.964844"/>
      <use xlink:href="#ArialMT-6e" x="494.580078"/>
      <use xlink:href="#ArialMT-74" x="550.195312"/>
      <use xlink:href="#ArialMT-20" x="577.978516"/>
      <use xlink:href="#ArialMT-5b" x="605.761719"/>
      <use xlink:href="#ArialMT-41" x="633.544922"/>
      <use xlink:href="#ArialMT-5d" x="700.244141"/>
     </g>
    </g>
   </g>
   <g id="line2d_27">
    <path d="M 290.812236 286.535625 
L 292.019545 286.535625 
L 293.633852 286.535625 
L 295.600509 286.535625 
L 297.567166 286.535625 
L 299.533824 286.535625 
L 301.500481 286.535625 
L 303.467138 286.535625 
L 305.433796 286.535625 
L 307.400453 286.535625 
L 309.36711 286.535625 
L 311.333768 286.535625 
L 313.300425 286.535625 
L 315.267082 286.535624 
L 317.23374 286.535622 
L 319.200397 286.53561 
L 321.167054 286.535538 
L 323.133712 286.535118 
L 325.100369 286.532777 
L 327.067026 286.520209 
L 329.033684 286.454808 
L 331.000341 286.132728 
L 332.966998 284.717466 
L 334.933656 279.791643 
L 336.900313 267.984666 
L 338.86697 249.078172 
L 340.833628 226.842354 
L 342.800285 205.158064 
L 344.766942 185.893854 
L 346.7336 169.38849 
L 348.700257 155.360035 
L 350.666914 143.389944 
L 352.633572 133.091269 
L 354.600229 124.14696 
L 356.566886 116.307077 
L 358.533544 109.376369 
L 360.500201 103.20188 
L 362.466858 97.662833 
L 364.433516 92.662911 
L 366.400173 88.124498 
L 368.366831 83.984399 
L 370.333488 80.190648 
L 372.300145 76.70012 
L 374.266803 73.476711 
L 376.23346 70.489955 
L 378.200117 67.713949 
L 380.166775 65.126521 
L 382.133432 62.708573 
L 384.100089 60.443552 
L 386.066747 58.317038 
L 388.033404 56.316405 
L 388.161774 56.190011 
" clip-path="url(#p24e87e3973)" style="fill: none; stroke: #471365; stroke-width: 1.7; stroke-linecap: square"/>
   </g>
   <g id="line2d_28">
    <path d="M 177.448488 286.535625 
L 340.961998 286.466688 
L 342.647705 286.23045 
L 343.490558 285.896185 
L 344.333411 285.235402 
L 345.176264 283.969798 
L 346.019117 281.646577 
L 346.86197 277.230434 
L 347.704823 270.050257 
L 348.547677 259.389555 
L 349.39053 245.386459 
L 351.076236 213.914129 
L 351.919089 200.901184 
L 352.761942 190.788396 
L 353.604795 183.235117 
L 354.447649 177.673122 
L 355.290502 173.732171 
L 356.133355 170.730496 
L 356.976208 168.428022 
L 357.819061 166.633955 
L 358.661914 165.211793 
L 359.504767 164.096038 
L 361.190474 162.414174 
L 362.87618 161.225133 
L 364.561886 160.356431 
L 367.090446 159.403411 
L 369.619005 158.729492 
L 372.990418 158.072454 
L 377.204684 157.494623 
L 383.104656 156.936292 
L 390.690334 156.453102 
L 401.647425 155.99809 
L 416.818781 155.596098 
L 430.304432 155.355638 
L 430.304432 155.355638 
" clip-path="url(#p24e87e3973)" style="fill: none; stroke-dasharray: 4.07,1.76; stroke-dashoffset: 0; stroke: #471365; stroke-width: 1.1"/>
   </g>
   <g id="line2d_29">
    <path d="M 290.812236 286.535624 
L 292.091219 286.535624 
L 293.801361 286.535624 
L 295.768018 286.535624 
L 297.734676 286.535625 
L 299.701333 286.535625 
L 301.66799 286.535625 
L 303.634648 286.535624 
L 305.601305 286.535623 
L 307.567962 286.535617 
L 309.53462 286.535584 
L 311.501277 286.535425 
L 313.467934 286.534671 
L 315.434592 286.53133 
L 317.401249 286.517005 
L 319.367906 286.456824 
L 321.334564 286.21304 
L 323.301221 285.291723 
L 325.267878 282.258642 
L 327.234536 274.426941 
L 329.201193 259.808036 
L 331.16785 239.954515 
L 333.134508 218.716803 
L 335.101165 198.923897 
L 337.067823 181.550679 
L 339.03448 166.578322 
L 341.001137 153.682189 
L 342.967795 142.506219 
L 344.934452 132.741246 
L 346.901109 124.136735 
L 348.867767 116.493825 
L 350.834424 109.655072 
L 352.801081 103.495193 
L 354.767739 97.913679 
L 356.734396 92.829136 
L 358.701053 88.175021 
L 360.667711 83.896423 
L 362.634368 79.947623 
L 364.601025 76.290243 
L 366.567683 72.891809 
L 368.53434 69.724651 
L 370.500997 66.765026 
L 372.467655 63.992437 
L 374.434312 61.389085 
L 376.400969 58.939433 
L 378.367627 56.629844 
L 380.334284 54.4483 
L 382.300941 52.384158 
L 384.267599 50.427957 
L 386.234256 48.571251 
L 388.161774 46.840749 
" clip-path="url(#p24e87e3973)" style="fill: none; stroke: #424186; stroke-width: 1.7; stroke-linecap: square"/>
   </g>
   <g id="line2d_30">
    <path d="M 177.448488 286.535625 
L 322.419229 286.445001 
L 324.104935 286.282371 
L 325.790642 285.856096 
L 326.633495 285.442967 
L 327.476348 284.810052 
L 328.319201 283.86422 
L 329.162054 282.480581 
L 330.004907 280.388964 
L 330.84776 277.462695 
L 331.690614 273.490225 
L 332.533467 268.270028 
L 333.37632 261.720574 
L 334.219173 253.586721 
L 335.904879 234.344978 
L 337.590586 214.395145 
L 339.276292 197.876743 
L 340.119145 191.348615 
L 340.961998 185.905676 
L 341.804851 181.412159 
L 342.647705 177.841338 
L 343.490558 174.919806 
L 344.333411 172.528807 
L 345.176264 170.56563 
L 346.019117 168.947174 
L 346.86197 167.640142 
L 348.547677 165.62124 
L 350.233383 164.163496 
L 351.919089 163.106901 
L 353.604795 162.298277 
L 356.133355 161.409543 
L 358.661914 160.762771 
L 362.033327 160.141012 
L 367.090446 159.500529 
L 372.990418 158.99915 
L 381.418949 158.52395 
L 393.218893 158.097538 
L 409.233103 157.736106 
L 430.304432 157.441239 
L 430.304432 157.441239 
" clip-path="url(#p24e87e3973)" style="fill: none; stroke-dasharray: 4.07,1.76; stroke-dashoffset: 0; stroke: #424186; stroke-width: 1.1"/>
   </g>
   <g id="line2d_31">
    <path d="M 290.812236 286.535624 
L 292.055382 286.535624 
L 293.717606 286.535624 
L 295.684264 286.535624 
L 297.650921 286.53562 
L 299.617578 286.535604 
L 301.584236 286.535533 
L 303.550893 286.535225 
L 305.51755 286.533966 
L 307.484208 286.529156 
L 309.450865 286.511121 
L 311.417522 286.444613 
L 313.38418 286.206588 
L 315.350837 285.399817 
L 317.317494 282.935182 
L 319.284152 276.669801 
L 321.250809 264.424076 
L 323.217466 246.484484 
L 325.184124 225.936806 
L 327.150781 205.948843 
L 329.117438 188.024429 
L 331.084096 172.418591 
L 333.050753 158.904675 
L 335.01741 147.154044 
L 336.984068 136.861231 
L 338.950725 127.772309 
L 340.917382 119.683443 
L 342.88404 112.432352 
L 344.850697 105.889513 
L 346.817354 99.950821 
L 348.784012 94.531869 
L 350.750669 89.56358 
L 352.717327 84.988904 
L 354.683984 80.760309 
L 356.650641 76.837866 
L 358.617299 73.187768 
L 360.583956 69.781186 
L 362.550613 66.593371 
L 364.517271 63.602944 
L 366.483928 60.791327 
L 368.450585 58.142291 
L 370.417243 55.641587 
L 372.3839 53.276646 
L 374.350557 51.03633 
L 376.317215 48.910732 
L 378.283872 46.891005 
L 380.250529 44.969217 
L 382.217187 43.138238 
L 384.183844 41.391632 
L 386.150501 39.723577 
L 388.117159 38.128792 
L 388.161774 38.093429 
" clip-path="url(#p24e87e3973)" style="fill: none; stroke: #306a8e; stroke-width: 1.7; stroke-linecap: square"/>
   </g>
   <g id="line2d_32">
    <path d="M 177.448488 286.535625 
L 306.405019 286.439136 
L 308.933579 286.162047 
L 310.619285 285.662533 
L 311.462138 285.23338 
L 312.304991 284.623195 
L 313.147844 283.725293 
L 313.990698 282.487509 
L 314.833551 280.802807 
L 315.676404 278.565396 
L 316.519257 275.650882 
L 317.36211 271.815265 
L 318.204963 267.067801 
L 319.047816 261.394922 
L 320.733523 247.346303 
L 324.947788 206.720594 
L 326.633495 193.944471 
L 327.476348 188.676919 
L 328.319201 184.125687 
L 329.162054 180.226543 
L 330.004907 176.975361 
L 330.84776 174.208536 
L 331.690614 171.854792 
L 332.533467 169.852803 
L 333.37632 168.15429 
L 335.062026 165.500741 
L 336.747733 163.532367 
L 338.433439 162.061918 
L 340.119145 160.948659 
L 341.804851 160.077857 
L 344.333411 159.108057 
L 346.86197 158.397351 
L 350.233383 157.711803 
L 354.447649 157.111792 
L 360.347621 156.544759 
L 367.933299 156.063048 
L 378.89039 155.61787 
L 394.9046 155.217721 
L 419.347341 154.864129 
L 430.304432 154.75675 
L 430.304432 154.75675 
" clip-path="url(#p24e87e3973)" style="fill: none; stroke-dasharray: 4.07,1.76; stroke-dashoffset: 0; stroke: #306a8e; stroke-width: 1.1"/>
   </g>
   <g id="line2d_33">
    <path d="M 290.812236 286.535607 
L 292.055382 286.535583 
L 293.717606 286.535497 
L 295.684264 286.535153 
L 297.650921 286.533978 
L 299.617578 286.530227 
L 301.584236 286.518419 
L 303.550893 286.481546 
L 305.51755 286.368245 
L 307.484208 286.029629 
L 309.450865 285.064876 
L 311.417522 282.540231 
L 313.38418 276.806551 
L 315.350837 266.159841 
L 317.317494 250.485852 
L 319.284152 231.873654 
L 321.250809 213.013236 
L 323.217466 195.559403 
L 325.184124 180.03812 
L 327.150781 166.404628 
L 329.117438 154.429844 
L 331.084096 143.860897 
L 333.050753 134.472063 
L 335.01741 126.074985 
L 336.984068 118.516032 
L 338.950725 111.670527 
L 340.917382 105.437039 
L 342.88404 99.732549 
L 344.850697 94.488607 
L 346.817354 89.648334 
L 348.784012 85.164092 
L 350.750669 80.995683 
L 352.717327 77.108944 
L 354.683984 73.474644 
L 356.650641 70.067612 
L 358.617299 66.866048 
L 360.583956 63.850963 
L 362.550613 61.005731 
L 364.517271 58.31573 
L 366.483928 55.768034 
L 368.450585 53.351174 
L 370.417243 51.054932 
L 372.3839 48.870167 
L 374.350557 46.788677 
L 376.317215 44.803078 
L 378.283872 42.906696 
L 380.250529 41.09349 
L 382.217187 39.357969 
L 384.183844 37.695132 
L 386.150501 36.100415 
L 388.117159 34.569637 
L 388.161774 34.535625 
" clip-path="url(#p24e87e3973)" style="fill: none; stroke: #228d8d; stroke-width: 1.7; stroke-linecap: square"/>
   </g>
   <g id="line2d_34">
    <path d="M 121.258278 286.535625 
L 290.57811 286.453438 
L 292.825719 286.284349 
L 294.324124 286.027585 
L 295.82253 285.543969 
L 296.571733 285.167855 
L 297.320935 284.665495 
L 298.070138 284.002159 
L 298.819341 283.135863 
L 299.568544 282.024046 
L 300.317747 280.601468 
L 301.066949 278.81142 
L 301.816152 276.566234 
L 302.565355 273.816737 
L 303.314558 270.514802 
L 304.06376 266.624561 
L 305.562166 257.047537 
L 307.060572 245.392935 
L 311.555788 207.089339 
L 313.054194 196.609396 
L 314.5526 188.06456 
L 316.051005 181.254922 
L 317.549411 175.931894 
L 319.047816 171.823316 
L 320.546222 168.635057 
L 322.044628 166.151939 
L 323.543033 164.208782 
L 325.041439 162.683829 
L 326.539844 161.472125 
L 328.03825 160.491809 
L 330.285858 159.349877 
L 332.533467 158.492381 
L 335.530278 157.649757 
L 339.276292 156.90602 
L 343.771509 156.290439 
L 346.019117 156.054706 
L 346.019117 156.054706 
" clip-path="url(#p24e87e3973)" style="fill: none; stroke-dasharray: 4.07,1.76; stroke-dashoffset: 0; stroke: #228d8d; stroke-width: 1.1"/>
   </g>
   <g id="line2d_35">
    <path d="M 290.812236 286.535625 
L 292.019545 286.535625 
L 293.633852 286.535625 
L 295.600509 286.535625 
L 297.567166 286.535625 
L 299.533824 286.535625 
L 301.500481 286.535625 
L 303.467138 286.535625 
L 305.433796 286.535625 
L 307.400453 286.535625 
L 309.36711 286.535625 
L 311.333768 286.535625 
L 313.300425 286.535625 
L 315.267082 286.535625 
L 317.23374 286.535624 
L 319.200397 286.535618 
L 321.167054 286.535584 
L 323.133712 286.535405 
L 325.100369 286.534385 
L 327.067026 286.528887 
L 329.033684 286.500276 
L 331.000341 286.357863 
L 332.966998 285.70664 
L 334.933656 283.205127 
L 336.900313 276.203912 
L 338.86697 263.139877 
L 340.833628 246.015915 
L 342.800285 228.470436 
L 344.766942 213.038654 
L 346.7336 200.42603 
L 348.700257 190.318423 
L 350.666914 182.169856 
L 352.633572 175.502428 
L 354.600229 169.956216 
L 356.566886 165.270357 
L 358.533544 161.256083 
L 360.500201 157.775153 
L 362.466858 154.72467 
L 364.433516 152.026712 
L 366.400173 149.62128 
L 368.366831 147.461448 
L 370.333488 145.50999 
L 372.300145 143.736982 
L 374.266803 142.118088 
L 376.23346 140.633299 
L 378.200117 139.266003 
L 380.166775 138.002283 
L 382.133432 136.830387 
L 384.100089 135.740314 
L 386.066747 134.723497 
L 388.033404 133.772549 
L 388.161774 133.712705 
" clip-path="url(#p24e87e3973)" style="fill: none; stroke: #29af7f; stroke-width: 1.7; stroke-linecap: square"/>
   </g>
   <g id="line2d_36">
    <path d="M 121.258278 286.535625 
L 276.343257 286.426414 
L 278.590865 286.228063 
L 280.089271 285.939099 
L 281.587677 285.418925 
L 283.086082 284.514858 
L 283.835285 283.853558 
L 284.584488 283.007432 
L 285.333691 281.941645 
L 286.082893 280.606645 
L 286.832096 278.953377 
L 287.581299 276.93527 
L 288.330502 274.502298 
L 289.079705 271.611895 
L 289.828907 268.231281 
L 291.327313 259.891684 
L 292.825719 249.701115 
L 295.073327 232.059014 
L 297.320935 214.226408 
L 298.819341 203.548246 
L 300.317747 194.373977 
L 301.816152 186.757812 
L 303.314558 180.60903 
L 304.812963 175.691873 
L 306.311369 171.789278 
L 307.809774 168.691304 
L 309.30818 166.220947 
L 310.806586 164.244919 
L 312.304991 162.653658 
L 313.803397 161.376692 
L 315.301802 160.329939 
L 317.549411 159.087756 
L 319.797019 158.14653 
L 322.79383 157.207748 
L 325.790642 156.522957 
L 329.536656 155.894403 
L 334.781075 155.283633 
L 341.5239 154.763627 
L 346.019117 154.513778 
L 346.019117 154.513778 
" clip-path="url(#p24e87e3973)" style="fill: none; stroke-dasharray: 4.07,1.76; stroke-dashoffset: 0; stroke: #29af7f; stroke-width: 1.1"/>
   </g>
   <g id="line2d_37">
    <path d="M 290.812236 286.535625 
L 292.019545 286.535625 
L 293.633852 286.535624 
L 295.600509 286.535624 
L 297.567166 286.535624 
L 299.533824 286.535624 
L 301.500481 286.535625 
L 303.467138 286.535625 
L 305.433796 286.535624 
L 307.400453 286.535621 
L 309.36711 286.535608 
L 311.333768 286.53554 
L 313.300425 286.535214 
L 315.267082 286.53372 
L 317.23374 286.527261 
L 319.200397 286.499955 
L 321.167054 286.387739 
L 323.133712 285.949576 
L 325.100369 284.401466 
L 327.067026 279.881686 
L 329.033684 270.080206 
L 331.000341 254.953418 
L 332.966998 237.558603 
L 334.933656 221.19068 
L 336.900313 207.281324 
L 338.86697 195.858922 
L 340.833628 186.49501 
L 342.800285 178.738551 
L 344.766942 172.22506 
L 346.7336 166.679966 
L 348.700257 161.899562 
L 350.666914 157.731993 
L 352.633572 154.062697 
L 354.600229 150.804005 
L 356.566886 147.887836 
L 358.533544 145.260568 
L 360.500201 142.879413 
L 362.466858 140.709806 
L 364.433516 138.723512 
L 366.400173 136.89723 
L 368.366831 135.211548 
L 370.333488 133.650158 
L 372.300145 132.199246 
L 374.266803 130.847031 
L 376.23346 129.583395 
L 378.200117 128.399596 
L 380.166775 127.288035 
L 382.133432 126.242077 
L 384.100089 125.255893 
L 386.066747 124.324346 
L 388.033404 123.442882 
L 388.161774 123.387055 
" clip-path="url(#p24e87e3973)" style="fill: none; stroke: #6ccd5a; stroke-width: 1.7; stroke-linecap: square"/>
   </g>
   <g id="line2d_38">
    <path d="M 93.163173 286.535625 
L 261.733802 286.438306 
L 264.730614 286.169504 
L 266.229019 285.857179 
L 267.727425 285.317129 
L 269.22583 284.412403 
L 269.975033 283.766006 
L 270.724236 282.951562 
L 271.473439 281.943105 
L 272.222642 280.692319 
L 272.971844 279.16459 
L 273.721047 277.298213 
L 274.47025 275.070171 
L 275.219453 272.443662 
L 276.717858 265.904999 
L 278.216264 257.628094 
L 279.71467 247.803924 
L 282.711481 225.63604 
L 284.959089 209.637591 
L 286.457495 200.359897 
L 287.9559 192.386505 
L 289.454306 185.742819 
L 290.952712 180.300672 
L 292.451117 175.897022 
L 293.949523 172.336282 
L 295.447928 169.461372 
L 296.946334 167.149719 
L 298.44474 165.268575 
L 299.943145 163.736672 
L 301.441551 162.474937 
L 302.939956 161.4275 
L 305.187565 160.177403 
L 307.435173 159.215133 
L 309.682781 158.46451 
L 312.679593 157.692011 
L 316.425607 156.987606 
L 317.924012 156.763019 
L 317.924012 156.763019 
" clip-path="url(#p24e87e3973)" style="fill: none; stroke-dasharray: 4.07,1.76; stroke-dashoffset: 0; stroke: #6ccd5a; stroke-width: 1.1"/>
   </g>
   <g id="line2d_39">
    <path d="M 290.812236 286.535624 
L 292.055382 286.535624 
L 293.717606 286.535624 
L 295.684264 286.535624 
L 297.650921 286.535622 
L 299.617578 286.535614 
L 301.584236 286.535577 
L 303.550893 286.535416 
L 305.51755 286.534734 
L 307.484208 286.53207 
L 309.450865 286.52202 
L 311.417522 286.48467 
L 313.38418 286.349306 
L 315.350837 285.879719 
L 317.317494 284.378958 
L 319.284152 280.259781 
L 321.250809 271.38308 
L 323.217466 257.186426 
L 325.184124 240.126455 
L 327.150781 223.545241 
L 329.117438 209.169216 
L 331.084096 197.205805 
L 333.050753 187.300365 
L 335.01741 179.029125 
L 336.984068 172.03634 
L 338.950725 166.048706 
L 340.917382 160.8608 
L 342.88404 156.317953 
L 344.850697 152.30253 
L 346.817354 148.723885 
L 348.784012 145.511197 
L 350.750669 142.608396 
L 352.717327 139.970524 
L 354.683984 137.561111 
L 356.650641 135.350249 
L 358.617299 133.313175 
L 360.583956 131.429193 
L 362.550613 129.680864 
L 364.517271 128.053382 
L 366.483928 126.534083 
L 368.450585 125.112071 
L 370.417243 123.77791 
L 372.3839 122.523383 
L 374.350557 121.3413 
L 376.317215 120.225336 
L 378.283872 119.169906 
L 380.250529 118.170052 
L 382.217187 117.221362 
L 384.183844 116.319889 
L 386.150501 115.462095 
L 388.117159 114.644795 
L 388.161774 114.626706 
" clip-path="url(#p24e87e3973)" style="fill: none; stroke: #cae11f; stroke-width: 1.7; stroke-linecap: square"/>
   </g>
   <g id="line2d_40">
    <path d="M 65.068068 286.535624 
L 247.124348 286.456928 
L 250.49576 286.210217 
L 252.181467 285.896954 
L 253.867173 285.338156 
L 254.710026 284.920983 
L 255.552879 284.358629 
L 256.395733 283.634974 
L 257.238586 282.71889 
L 258.081439 281.566387 
L 258.924292 280.132948 
L 259.767145 278.325654 
L 260.609998 276.136086 
L 261.452851 273.521137 
L 262.295705 270.449888 
L 263.138558 266.898264 
L 264.824264 258.233267 
L 266.50997 247.830202 
L 269.881383 224.370954 
L 271.567089 213.050984 
L 273.252795 202.927427 
L 274.938502 194.242338 
L 276.624208 187.076434 
L 278.309914 181.297761 
L 279.995621 176.640821 
L 281.681327 172.962953 
L 283.367033 170.014935 
L 285.05274 167.666109 
L 286.738446 165.788446 
L 288.424152 164.256004 
L 290.109858 163.021986 
L 291.795565 162.00567 
L 294.324124 160.802628 
L 296.852684 159.880874 
L 299.381243 159.169485 
L 302.752656 158.446143 
L 306.966921 157.792016 
L 312.02404 157.238722 
L 317.924012 156.791649 
L 317.924012 156.791649 
" clip-path="url(#p24e87e3973)" style="fill: none; stroke-dasharray: 4.07,1.76; stroke-dashoffset: 0; stroke: #cae11f; stroke-width: 1.1"/>
   </g>
   <g id="patch_3">
    <path d="M 46.80625 299.135625 
L 46.80625 21.935625 
" style="fill: none; stroke: #000000; stroke-width: 0.8; stroke-linejoin: miter; stroke-linecap: square"/>
   </g>
   <g id="patch_4">
    <path d="M 448.56625 299.135625 
L 448.56625 21.935625 
" style="fill: none; stroke: #000000; stroke-width: 0.8; stroke-linejoin: miter; stroke-linecap: square"/>
   </g>
   <g id="patch_5">
    <path d="M 46.80625 299.135625 
L 448.56625 299.135625 
" style="fill: none; stroke: #000000; stroke-width: 0.8; stroke-linejoin: miter; stroke-linecap: square"/>
   </g>
   <g id="patch_6">
    <path d="M 46.80625 21.935625 
L 448.56625 21.935625 
" style="fill: none; stroke: #000000; stroke-width: 0.8; stroke-linejoin: miter; stroke-linecap: square"/>
   </g>
   <g id="text_16">
    <!-- S device transfer: simulation solid / experiment dashed -->
    <g transform="translate(102.289375 15.935625) scale(0.12 -0.12)">
     <defs>
      <path id="ArialMT-53" d="M 288 1472 
L 859 1522 
Q 900 1178 1048 958 
Q 1197 738 1509 602 
Q 1822 466 2213 466 
Q 2559 466 2825 569 
Q 3091 672 3220 851 
Q 3350 1031 3350 1244 
Q 3350 1459 3225 1620 
Q 3100 1781 2813 1891 
Q 2628 1963 1997 2114 
Q 1366 2266 1113 2400 
Q 784 2572 623 2826 
Q 463 3081 463 3397 
Q 463 3744 659 4045 
Q 856 4347 1234 4503 
Q 1613 4659 2075 4659 
Q 2584 4659 2973 4495 
Q 3363 4331 3572 4012 
Q 3781 3694 3797 3291 
L 3216 3247 
Q 3169 3681 2898 3903 
Q 2628 4125 2100 4125 
Q 1550 4125 1298 3923 
Q 1047 3722 1047 3438 
Q 1047 3191 1225 3031 
Q 1400 2872 2139 2705 
Q 2878 2538 3153 2413 
Q 3553 2228 3743 1945 
Q 3934 1663 3934 1294 
Q 3934 928 3725 604 
Q 3516 281 3123 101 
Q 2731 -78 2241 -78 
Q 1619 -78 1198 103 
Q 778 284 539 648 
Q 300 1013 288 1472 
z
" transform="scale(0.015625)"/>
      <path id="ArialMT-64" d="M 2575 0 
L 2575 419 
Q 2259 -75 1647 -75 
Q 1250 -75 917 144 
Q 584 363 401 755 
Q 219 1147 219 1656 
Q 219 2153 384 2558 
Q 550 2963 881 3178 
Q 1213 3394 1622 3394 
Q 1922 3394 2156 3267 
Q 2391 3141 2538 2938 
L 2538 4581 
L 3097 4581 
L 3097 0 
L 2575 0 
z
M 797 1656 
Q 797 1019 1065 703 
Q 1334 388 1700 388 
Q 2069 388 2326 689 
Q 2584 991 2584 1609 
Q 2584 2291 2321 2609 
Q 2059 2928 1675 2928 
Q 1300 2928 1048 2622 
Q 797 2316 797 1656 
z
" transform="scale(0.015625)"/>
      <path id="ArialMT-73" d="M 197 991 
L 753 1078 
Q 800 744 1014 566 
Q 1228 388 1613 388 
Q 2000 388 2187 545 
Q 2375 703 2375 916 
Q 2375 1106 2209 1216 
Q 2094 1291 1634 1406 
Q 1016 1563 777 1677 
Q 538 1791 414 1992 
Q 291 2194 291 2438 
Q 291 2659 392 2848 
Q 494 3038 669 3163 
Q 800 3259 1026 3326 
Q 1253 3394 1513 3394 
Q 1903 3394 2198 3281 
Q 2494 3169 2634 2976 
Q 2775 2784 2828 2463 
L 2278 2388 
Q 2241 2644 2061 2787 
Q 1881 2931 1553 2931 
Q 1166 2931 1000 2803 
Q 834 2675 834 2503 
Q 834 2394 903 2306 
Q 972 2216 1119 2156 
Q 1203 2125 1616 2013 
Q 2213 1853 2448 1751 
Q 2684 1650 2818 1456 
Q 2953 1263 2953 975 
Q 2953 694 2789 445 
Q 2625 197 2315 61 
Q 2006 -75 1616 -75 
Q 969 -75 630 194 
Q 291 463 197 991 
z
" transform="scale(0.015625)"/>
      <path id="ArialMT-66" d="M 556 0 
L 556 2881 
L 59 2881 
L 59 3319 
L 556 3319 
L 556 3672 
Q 556 4006 616 4169 
Q 697 4388 901 4523 
Q 1106 4659 1475 4659 
Q 1713 4659 2000 4603 
L 1916 4113 
Q 1741 4144 1584 4144 
Q 1328 4144 1222 4034 
Q 1116 3925 1116 3625 
L 1116 3319 
L 1763 3319 
L 1763 2881 
L 1116 2881 
L 1116 0 
L 556 0 
z
" transform="scale(0.015625)"/>
      <path id="ArialMT-3a" d="M 578 2678 
L 578 3319 
L 1219 3319 
L 1219 2678 
L 578 2678 
z
M 578 0 
L 578 641 
L 1219 641 
L 1219 0 
L 578 0 
z
" transform="scale(0.015625)"/>
      <path id="ArialMT-6d" d="M 422 0 
L 422 3319 
L 925 3319 
L 925 2853 
Q 1081 3097 1340 3245 
Q 1600 3394 1931 3394 
Q 2300 3394 2536 3241 
Q 2772 3088 2869 2813 
Q 3263 3394 3894 3394 
Q 4388 3394 4653 3120 
Q 4919 2847 4919 2278 
L 4919 0 
L 4359 0 
L 4359 2091 
Q 4359 2428 4304 2576 
Q 4250 2725 4106 2815 
Q 3963 2906 3769 2906 
Q 3419 2906 3187 2673 
Q 2956 2441 2956 1928 
L 2956 0 
L 2394 0 
L 2394 2156 
Q 2394 2531 2256 2718 
Q 2119 2906 1806 2906 
Q 1569 2906 1367 2781 
Q 1166 2656 1075 2415 
Q 984 2175 984 1722 
L 984 0 
L 422 0 
z
" transform="scale(0.015625)"/>
      <path id="ArialMT-2f" d="M 0 -78 
L 1328 4659 
L 1778 4659 
L 453 -78 
L 0 -78 
z
" transform="scale(0.015625)"/>
      <path id="ArialMT-78" d="M 47 0 
L 1259 1725 
L 138 3319 
L 841 3319 
L 1350 2541 
Q 1494 2319 1581 2169 
Q 1719 2375 1834 2534 
L 2394 3319 
L 3066 3319 
L 1919 1756 
L 3153 0 
L 2463 0 
L 1781 1031 
L 1600 1309 
L 728 0 
L 47 0 
z
" transform="scale(0.015625)"/>
      <path id="ArialMT-70" d="M 422 -1272 
L 422 3319 
L 934 3319 
L 934 2888 
Q 1116 3141 1344 3267 
Q 1572 3394 1897 3394 
Q 2322 3394 2647 3175 
Q 2972 2956 3137 2557 
Q 3303 2159 3303 1684 
Q 3303 1175 3120 767 
Q 2938 359 2589 142 
Q 2241 -75 1856 -75 
Q 1575 -75 1351 44 
Q 1128 163 984 344 
L 984 -1272 
L 422 -1272 
z
M 931 1641 
Q 931 1000 1190 694 
Q 1450 388 1819 388 
Q 2194 388 2461 705 
Q 2728 1022 2728 1688 
Q 2728 2322 2467 2637 
Q 2206 2953 1844 2953 
Q 1484 2953 1207 2617 
Q 931 2281 931 1641 
z
" transform="scale(0.015625)"/>
      <path id="ArialMT-68" d="M 422 0 
L 422 4581 
L 984 4581 
L 984 2938 
Q 1378 3394 1978 3394 
Q 2347 3394 2619 3248 
Q 2891 3103 3008 2847 
Q 3125 2591 3125 2103 
L 3125 0 
L 2563 0 
L 2563 2103 
Q 2563 2525 2380 2717 
Q 2197 2909 1863 2909 
Q 1613 2909 1392 2779 
Q 1172 2650 1078 2428 
Q 984 2206 984 1816 
L 984 0 
L 422 0 
z
" transform="scale(0.015625)"/>
     </defs>
     <use xlink:href="#ArialMT-53"/>
     <use xlink:href="#ArialMT-20" x="66.699219"/>
     <use xlink:href="#ArialMT-64" x="94.482422"/>
     <use xlink:href="#ArialMT-65" x="150.097656"/>
     <use xlink:href="#ArialMT-76" x="205.712891"/>
     <use xlink:href="#ArialMT-69" x="255.712891"/>
     <use xlink:href="#ArialMT-63" x="277.929688"/>
     <use xlink:href="#ArialMT-65" x="327.929688"/>
     <use xlink:href="#ArialMT-20" x="383.544922"/>
     <use xlink:href="#ArialMT-74" x="411.328125"/>
     <use xlink:href="#ArialMT-72" x="439.111328"/>
     <use xlink:href="#ArialMT-61" x="472.412109"/>
     <use xlink:href="#ArialMT-6e" x="528.027344"/>
     <use xlink:href="#ArialMT-73" x="583.642578"/>
     <use xlink:href="#ArialMT-66" x="633.642578"/>
     <use xlink:href="#ArialMT-65" x="661.425781"/>
     <use xlink:href="#ArialMT-72" x="717.041016"/>
     <use xlink:href="#ArialMT-3a" x="750.341797"/>
     <use xlink:href="#ArialMT-20" x="778.125"/>
     <use xlink:href="#ArialMT-73" x="805.908203"/>
     <use xlink:href="#ArialMT-69" x="855.908203"/>
     <use xlink:href="#ArialMT-6d" x="878.125"/>
     <use xlink:href="#ArialMT-75" x="961.425781"/>
     <use xlink:href="#ArialMT-6c" x="1017.041016"/>
     <use xlink:href="#ArialMT-61" x="1039.257812"/>
     <use xlink:href="#ArialMT-74" x="1094.873047"/>
     <use xlink:href="#ArialMT-69" x="1122.65625"/>
     <use xlink:href="#ArialMT-6f" x="1144.873047"/>
     <use xlink:href="#ArialMT-6e" x="1200.488281"/>
     <use xlink:href="#ArialMT-20" x="1256.103516"/>
     <use xlink:href="#ArialMT-73" x="1283.886719"/>
     <use xlink:href="#ArialMT-6f" x="1333.886719"/>
     <use xlink:href="#ArialMT-6c" x="1389.501953"/>
     <use xlink:href="#ArialMT-69" x="1411.71875"/>
     <use xlink:href="#ArialMT-64" x="1433.935547"/>
     <use xlink:href="#ArialMT-20" x="1489.550781"/>
     <use xlink:href="#ArialMT-2f" x="1517.333984"/>
     <use xlink:href="#ArialMT-20" x="1545.117188"/>
     <use xlink:href="#ArialMT-65" x="1572.900391"/>
     <use xlink:href="#ArialMT-78" x="1628.515625"/>
     <use xlink:href="#ArialMT-70" x="1678.515625"/>
     <use xlink:href="#ArialMT-65" x="1734.130859"/>
     <use xlink:href="#ArialMT-72" x="1789.746094"/>
     <use xlink:href="#ArialMT-69" x="1823.046875"/>
     <use xlink:href="#ArialMT-6d" x="1845.263672"/>
     <use xlink:href="#ArialMT-65" x="1928.564453"/>
     <use xlink:href="#ArialMT-6e" x="1984.179688"/>
     <use xlink:href="#ArialMT-74" x="2039.794922"/>
     <use xlink:href="#ArialMT-20" x="2067.578125"/>
     <use xlink:href="#ArialMT-64" x="2095.361328"/>
     <use xlink:href="#ArialMT-61" x="2150.976562"/>
     <use xlink:href="#ArialMT-73" x="2206.591797"/>
     <use xlink:href="#ArialMT-68" x="2256.591797"/>
     <use xlink:href="#ArialMT-65" x="2312.207031"/>
     <use xlink:href="#ArialMT-64" x="2367.822266"/>
    </g>
   </g>
   <g id="legend_1">
    <g id="patch_7">
     <path d="M 51.70625 96.930781 
L 180.858438 96.930781 
Q 182.258438 96.930781 182.258438 95.530781 
L 182.258438 26.835625 
Q 182.258438 25.435625 180.858438 25.435625 
L 51.70625 25.435625 
Q 50.30625 25.435625 50.30625 26.835625 
L 50.30625 95.530781 
Q 50.30625 96.930781 51.70625 96.930781 
z
" style="fill: #ffffff; opacity: 0.8; stroke: #cccccc; stroke-linejoin: miter"/>
    </g>
    <g id="line2d_41">
     <path d="M 53.10625 30.816875 
L 60.10625 30.816875 
L 67.10625 30.816875 
" style="fill: none; stroke: #471365; stroke-width: 1.7; stroke-linecap: square"/>
    </g>
    <g id="text_17">
     <!-- 0 krad sim -->
     <g transform="translate(72.70625 33.266875) scale(0.07 -0.07)">
      <defs>
       <path id="ArialMT-6b" d="M 425 0 
L 425 4581 
L 988 4581 
L 988 1969 
L 2319 3319 
L 3047 3319 
L 1778 2088 
L 3175 0 
L 2481 0 
L 1384 1697 
L 988 1316 
L 988 0 
L 425 0 
z
" transform="scale(0.015625)"/>
      </defs>
      <use xlink:href="#ArialMT-30"/>
      <use xlink:href="#ArialMT-20" x="55.615234"/>
      <use xlink:href="#ArialMT-6b" x="83.398438"/>
      <use xlink:href="#ArialMT-72" x="133.398438"/>
      <use xlink:href="#ArialMT-61" x="166.699219"/>
      <use xlink:href="#ArialMT-64" x="222.314453"/>
      <use xlink:href="#ArialMT-20" x="277.929688"/>
      <use xlink:href="#ArialMT-73" x="305.712891"/>
      <use xlink:href="#ArialMT-69" x="355.712891"/>
      <use xlink:href="#ArialMT-6d" x="377.929688"/>
     </g>
    </g>
    <g id="line2d_42">
     <path d="M 53.10625 40.739375 
L 60.10625 40.739375 
L 67.10625 40.739375 
" style="fill: none; stroke-dasharray: 4.07,1.76; stroke-dashoffset: 0; stroke: #471365; stroke-width: 1.1"/>
    </g>
    <g id="text_18">
     <!-- 0 krad exp -->
     <g transform="translate(72.70625 43.189375) scale(0.07 -0.07)">
      <use xlink:href="#ArialMT-30"/>
      <use xlink:href="#ArialMT-20" x="55.615234"/>
      <use xlink:href="#ArialMT-6b" x="83.398438"/>
      <use xlink:href="#ArialMT-72" x="133.398438"/>
      <use xlink:href="#ArialMT-61" x="166.699219"/>
      <use xlink:href="#ArialMT-64" x="222.314453"/>
      <use xlink:href="#ArialMT-20" x="277.929688"/>
      <use xlink:href="#ArialMT-65" x="305.712891"/>
      <use xlink:href="#ArialMT-78" x="361.328125"/>
      <use xlink:href="#ArialMT-70" x="411.328125"/>
     </g>
    </g>
    <g id="line2d_43">
     <path d="M 53.10625 50.641094 
L 60.10625 50.641094 
L 67.10625 50.641094 
" style="fill: none; stroke: #424186; stroke-width: 1.7; stroke-linecap: square"/>
    </g>
    <g id="text_19">
     <!-- 10 krad sim -->
     <g transform="translate(72.70625 53.091094) scale(0.07 -0.07)">
      <use xlink:href="#ArialMT-31"/>
      <use xlink:href="#ArialMT-30" x="55.615234"/>
      <use xlink:href="#ArialMT-20" x="111.230469"/>
      <use xlink:href="#ArialMT-6b" x="139.013672"/>
      <use xlink:href="#ArialMT-72" x="189.013672"/>
      <use xlink:href="#ArialMT-61" x="222.314453"/>
      <use xlink:href="#ArialMT-64" x="277.929688"/>
      <use xlink:href="#ArialMT-20" x="333.544922"/>
      <use xlink:href="#ArialMT-73" x="361.328125"/>
      <use xlink:href="#ArialMT-69" x="411.328125"/>
      <use xlink:href="#ArialMT-6d" x="433.544922"/>
     </g>
    </g>
    <g id="line2d_44">
     <path d="M 53.10625 60.563594 
L 60.10625 60.563594 
L 67.10625 60.563594 
" style="fill: none; stroke-dasharray: 4.07,1.76; stroke-dashoffset: 0; stroke: #424186; stroke-width: 1.1"/>
    </g>
    <g id="text_20">
     <!-- 10 krad exp -->
     <g transform="translate(72.70625 63.013594) scale(0.07 -0.07)">
      <use xlink:href="#ArialMT-31"/>
      <use xlink:href="#ArialMT-30" x="55.615234"/>
      <use xlink:href="#ArialMT-20" x="111.230469"/>
      <use xlink:href="#ArialMT-6b" x="139.013672"/>
      <use xlink:href="#ArialMT-72" x="189.013672"/>
      <use xlink:href="#ArialMT-61" x="222.314453"/>
      <use xlink:href="#ArialMT-64" x="277.929688"/>
      <use xlink:href="#ArialMT-20" x="333.544922"/>
      <use xlink:href="#ArialMT-65" x="361.328125"/>
      <use xlink:href="#ArialMT-78" x="416.943359"/>
      <use xlink:href="#ArialMT-70" x="466.943359"/>
     </g>
    </g>
    <g id="line2d_45">
     <path d="M 53.10625 70.465312 
L 60.10625 70.465312 
L 67.10625 70.465312 
" style="fill: none; stroke: #306a8e; stroke-width: 1.7; stroke-linecap: square"/>
    </g>
    <g id="text_21">
     <!-- 20 krad sim -->
     <g transform="translate(72.70625 72.915312) scale(0.07 -0.07)">
      <use xlink:href="#ArialMT-32"/>
      <use xlink:href="#ArialMT-30" x="55.615234"/>
      <use xlink:href="#ArialMT-20" x="111.230469"/>
      <use xlink:href="#ArialMT-6b" x="139.013672"/>
      <use xlink:href="#ArialMT-72" x="189.013672"/>
      <use xlink:href="#ArialMT-61" x="222.314453"/>
      <use xlink:href="#ArialMT-64" x="277.929688"/>
      <use xlink:href="#ArialMT-20" x="333.544922"/>
      <use xlink:href="#ArialMT-73" x="361.328125"/>
      <use xlink:href="#ArialMT-69" x="411.328125"/>
      <use xlink:href="#ArialMT-6d" x="433.544922"/>
     </g>
    </g>
    <g id="line2d_46">
     <path d="M 53.10625 80.387812 
L 60.10625 80.387812 
L 67.10625 80.387812 
" style="fill: none; stroke-dasharray: 4.07,1.76; stroke-dashoffset: 0; stroke: #306a8e; stroke-width: 1.1"/>
    </g>
    <g id="text_22">
     <!-- 20 krad exp -->
     <g transform="translate(72.70625 82.837812) scale(0.07 -0.07)">
      <use xlink:href="#ArialMT-32"/>
      <use xlink:href="#ArialMT-30" x="55.615234"/>
      <use xlink:href="#ArialMT-20" x="111.230469"/>
      <use xlink:href="#ArialMT-6b" x="139.013672"/>
      <use xlink:href="#ArialMT-72" x="189.013672"/>
      <use xlink:href="#ArialMT-61" x="222.314453"/>
      <use xlink:href="#ArialMT-64" x="277.929688"/>
      <use xlink:href="#ArialMT-20" x="333.544922"/>
      <use xlink:href="#ArialMT-65" x="361.328125"/>
      <use xlink:href="#ArialMT-78" x="416.943359"/>
      <use xlink:href="#ArialMT-70" x="466.943359"/>
     </g>
    </g>
    <g id="line2d_47">
     <path d="M 53.10625 90.289531 
L 60.10625 90.289531 
L 67.10625 90.289531 
" style="fill: none; stroke: #228d8d; stroke-width: 1.7; stroke-linecap: square"/>
    </g>
    <g id="text_23">
     <!-- 30 krad sim -->
     <g transform="translate(72.70625 92.739531) scale(0.07 -0.07)">
      <defs>
       <path id="ArialMT-33" d="M 269 1209 
L 831 1284 
Q 928 806 1161 595 
Q 1394 384 1728 384 
Q 2125 384 2398 659 
Q 2672 934 2672 1341 
Q 2672 1728 2419 1979 
Q 2166 2231 1775 2231 
Q 1616 2231 1378 2169 
L 1441 2663 
Q 1497 2656 1531 2656 
Q 1891 2656 2178 2843 
Q 2466 3031 2466 3422 
Q 2466 3731 2256 3934 
Q 2047 4138 1716 4138 
Q 1388 4138 1169 3931 
Q 950 3725 888 3313 
L 325 3413 
Q 428 3978 793 4289 
Q 1159 4600 1703 4600 
Q 2078 4600 2393 4439 
Q 2709 4278 2876 4000 
Q 3044 3722 3044 3409 
Q 3044 3113 2884 2869 
Q 2725 2625 2413 2481 
Q 2819 2388 3044 2092 
Q 3269 1797 3269 1353 
Q 3269 753 2831 336 
Q 2394 -81 1725 -81 
Q 1122 -81 723 278 
Q 325 638 269 1209 
z
" transform="scale(0.015625)"/>
      </defs>
      <use xlink:href="#ArialMT-33"/>
      <use xlink:href="#ArialMT-30" x="55.615234"/>
      <use xlink:href="#ArialMT-20" x="111.230469"/>
      <use xlink:href="#ArialMT-6b" x="139.013672"/>
      <use xlink:href="#ArialMT-72" x="189.013672"/>
      <use xlink:href="#ArialMT-61" x="222.314453"/>
      <use xlink:href="#ArialMT-64" x="277.929688"/>
      <use xlink:href="#ArialMT-20" x="333.544922"/>
      <use xlink:href="#ArialMT-73" x="361.328125"/>
      <use xlink:href="#ArialMT-69" x="411.328125"/>
      <use xlink:href="#ArialMT-6d" x="433.544922"/>
     </g>
    </g>
    <g id="line2d_48">
     <path d="M 123.282344 30.816875 
L 130.282344 30.816875 
L 137.282344 30.816875 
" style="fill: none; stroke-dasharray: 4.07,1.76; stroke-dashoffset: 0; stroke: #228d8d; stroke-width: 1.1"/>
    </g>
    <g id="text_24">
     <!-- 30 krad exp -->
     <g transform="translate(142.882344 33.266875) scale(0.07 -0.07)">
      <use xlink:href="#ArialMT-33"/>
      <use xlink:href="#ArialMT-30" x="55.615234"/>
      <use xlink:href="#ArialMT-20" x="111.230469"/>
      <use xlink:href="#ArialMT-6b" x="139.013672"/>
      <use xlink:href="#ArialMT-72" x="189.013672"/>
      <use xlink:href="#ArialMT-61" x="222.314453"/>
      <use xlink:href="#ArialMT-64" x="277.929688"/>
      <use xlink:href="#ArialMT-20" x="333.544922"/>
      <use xlink:href="#ArialMT-65" x="361.328125"/>
      <use xlink:href="#ArialMT-78" x="416.943359"/>
      <use xlink:href="#ArialMT-70" x="466.943359"/>
     </g>
    </g>
    <g id="line2d_49">
     <path d="M 123.282344 40.718594 
L 130.282344 40.718594 
L 137.282344 40.718594 
" style="fill: none; stroke: #29af7f; stroke-width: 1.7; stroke-linecap: square"/>
    </g>
    <g id="text_25">
     <!-- 40 krad sim -->
     <g transform="translate(142.882344 43.168594) scale(0.07 -0.07)">
      <use xlink:href="#ArialMT-34"/>
      <use xlink:href="#ArialMT-30" x="55.615234"/>
      <use xlink:href="#ArialMT-20" x="111.230469"/>
      <use xlink:href="#ArialMT-6b" x="139.013672"/>
      <use xlink:href="#ArialMT-72" x="189.013672"/>
      <use xlink:href="#ArialMT-61" x="222.314453"/>
      <use xlink:href="#ArialMT-64" x="277.929688"/>
      <use xlink:href="#ArialMT-20" x="333.544922"/>
      <use xlink:href="#ArialMT-73" x="361.328125"/>
      <use xlink:href="#ArialMT-69" x="411.328125"/>
      <use xlink:href="#ArialMT-6d" x="433.544922"/>
     </g>
    </g>
    <g id="line2d_50">
     <path d="M 123.282344 50.641094 
L 130.282344 50.641094 
L 137.282344 50.641094 
" style="fill: none; stroke-dasharray: 4.07,1.76; stroke-dashoffset: 0; stroke: #29af7f; stroke-width: 1.1"/>
    </g>
    <g id="text_26">
     <!-- 40 krad exp -->
     <g transform="translate(142.882344 53.091094) scale(0.07 -0.07)">
      <use xlink:href="#ArialMT-34"/>
      <use xlink:href="#ArialMT-30" x="55.615234"/>
      <use xlink:href="#ArialMT-20" x="111.230469"/>
      <use xlink:href="#ArialMT-6b" x="139.013672"/>
      <use xlink:href="#ArialMT-72" x="189.013672"/>
      <use xlink:href="#ArialMT-61" x="222.314453"/>
      <use xlink:href="#ArialMT-64" x="277.929688"/>
      <use xlink:href="#ArialMT-20" x="333.544922"/>
      <use xlink:href="#ArialMT-65" x="361.328125"/>
      <use xlink:href="#ArialMT-78" x="416.943359"/>
      <use xlink:href="#ArialMT-70" x="466.943359"/>
     </g>
    </g>
    <g id="line2d_51">
     <path d="M 123.282344 60.542812 
L 130.282344 60.542812 
L 137.282344 60.542812 
" style="fill: none; stroke: #6ccd5a; stroke-width: 1.7; stroke-linecap: square"/>
    </g>
    <g id="text_27">
     <!-- 50 krad sim -->
     <g transform="translate(142.882344 62.992812) scale(0.07 -0.07)">
      <use xlink:href="#ArialMT-35"/>
      <use xlink:href="#ArialMT-30" x="55.615234"/>
      <use xlink:href="#ArialMT-20" x="111.230469"/>
      <use xlink:href="#ArialMT-6b" x="139.013672"/>
      <use xlink:href="#ArialMT-72" x="189.013672"/>
      <use xlink:href="#ArialMT-61" x="222.314453"/>
      <use xlink:href="#ArialMT-64" x="277.929688"/>
      <use xlink:href="#ArialMT-20" x="333.544922"/>
      <use xlink:href="#ArialMT-73" x="361.328125"/>
      <use xlink:href="#ArialMT-69" x="411.328125"/>
      <use xlink:href="#ArialMT-6d" x="433.544922"/>
     </g>
    </g>
    <g id="line2d_52">
     <path d="M 123.282344 70.465312 
L 130.282344 70.465312 
L 137.282344 70.465312 
" style="fill: none; stroke-dasharray: 4.07,1.76; stroke-dashoffset: 0; stroke: #6ccd5a; stroke-width: 1.1"/>
    </g>
    <g id="text_28">
     <!-- 50 krad exp -->
     <g transform="translate(142.882344 72.915312) scale(0.07 -0.07)">
      <use xlink:href="#ArialMT-35"/>
      <use xlink:href="#ArialMT-30" x="55.615234"/>
      <use xlink:href="#ArialMT-20" x="111.230469"/>
      <use xlink:href="#ArialMT-6b" x="139.013672"/>
      <use xlink:href="#ArialMT-72" x="189.013672"/>
      <use xlink:href="#ArialMT-61" x="222.314453"/>
      <use xlink:href="#ArialMT-64" x="277.929688"/>
      <use xlink:href="#ArialMT-20" x="333.544922"/>
      <use xlink:href="#ArialMT-65" x="361.328125"/>
      <use xlink:href="#ArialMT-78" x="416.943359"/>
      <use xlink:href="#ArialMT-70" x="466.943359"/>
     </g>
    </g>
    <g id="line2d_53">
     <path d="M 123.282344 80.367031 
L 130.282344 80.367031 
L 137.282344 80.367031 
" style="fill: none; stroke: #cae11f; stroke-width: 1.7; stroke-linecap: square"/>
    </g>
    <g id="text_29">
     <!-- 60 krad sim -->
     <g transform="translate(142.882344 82.817031) scale(0.07 -0.07)">
      <use xlink:href="#ArialMT-36"/>
      <use xlink:href="#ArialMT-30" x="55.615234"/>
      <use xlink:href="#ArialMT-20" x="111.230469"/>
      <use xlink:href="#ArialMT-6b" x="139.013672"/>
      <use xlink:href="#ArialMT-72" x="189.013672"/>
      <use xlink:href="#ArialMT-61" x="222.314453"/>
      <use xlink:href="#ArialMT-64" x="277.929688"/>
      <use xlink:href="#ArialMT-20" x="333.544922"/>
      <use xlink:href="#ArialMT-73" x="361.328125"/>
      <use xlink:href="#ArialMT-69" x="411.328125"/>
      <use xlink:href="#ArialMT-6d" x="433.544922"/>
     </g>
    </g>
    <g id="line2d_54">
     <path d="M 123.282344 90.289531 
L 130.282344 90.289531 
L 137.282344 90.289531 
" style="fill: none; stroke-dasharray: 4.07,1.76; stroke-dashoffset: 0; stroke: #cae11f; stroke-width: 1.1"/>
    </g>
    <g id="text_30">
     <!-- 60 krad exp -->
     <g transform="translate(142.882344 92.739531) scale(0.07 -0.07)">
      <use xlink:href="#ArialMT-36"/>
      <use xlink:href="#ArialMT-30" x="55.615234"/>
      <use xlink:href="#ArialMT-20" x="111.230469"/>
      <use xlink:href="#ArialMT-6b" x="139.013672"/>
      <use xlink:href="#ArialMT-72" x="189.013672"/>
      <use xlink:href="#ArialMT-61" x="222.314453"/>
      <use xlink:href="#ArialMT-64" x="277.929688"/>
      <use xlink:href="#ArialMT-20" x="333.544922"/>
      <use xlink:href="#ArialMT-65" x="361.328125"/>
      <use xlink:href="#ArialMT-78" x="416.943359"/>
      <use xlink:href="#ArialMT-70" x="466.943359"/>
     </g>
    </g>
   </g>
  </g>
 </g>
 <defs>
  <clipPath id="p24e87e3973">
   <rect x="46.80625" y="21.935625" width="401.76" height="277.2"/>
  </clipPath>
 </defs>
</svg>
