<?xml version="1.0" encoding="utf-8" standalone="no"?>
<!DOCTYPE svg PUBLIC "-//W3C//DTD SVG 1.1//EN"
  "http://www.w3.org/Graphics/SVG/1.1/DTD/svg11.dtd">
<svg xmlns:xlink="http://www.w3.org/1999/xlink" width="460.244375pt" height="335.865313pt" viewBox="0 0 460.244375 335.865313" xmlns="http://www.w3.org/2000/svg" version="1.1">
 <metadata>
  <rdf:RDF xmlns:dc="http://purl.org/dc/elements/1.1/" xmlns:cc="http://creativecommons.org/ns#" xmlns:rdf="http://www.w3.org/1999/02/22-rdf-syntax-ns#">
   <cc:Work>
    <dc:type rdf:resource="http://purl.org/dc/dcmitype/StillImage"/>
    <dc:date>2026-07-23T17:04:54.008109</dc:date>
    <dc:format>image/svg+xml</dc:format>
    <dc:creator>
     <cc:Agent>
      <dc:title>Matplotlib v3.9.2, https://matplotlib.org/</dc:title>
     </cc:Agent>
    </dc:creator>
   </cc:Work>
  </rdf:RDF>
 </metadata>
 <defs>
  <style type="text/css">*{stroke-linejoin: round; stroke-linecap: butt}</style>
 </defs>
 <g id="figure_1">
  <g id="patch_1">
   <path d="M 0 335.865313 
L 460.244375 335.865313 
L 460.244375 0 
L 0 0 
z
" style="fill: #ffffff"/>
  </g>
  <g id="axes_1">
   <g id="patch_2">
    <path d="M 51.284375 299.135625 
L 453.044375 299.135625 
L 453.044375 21.935625 
L 51.284375 21.935625 
z
" style="fill: #ffffff"/>
   </g>
   <g id="matplotlib.axis_1">
    <g id="xtick_1">
     <g id="line2d_1">
      <path d="M 111.688851 299.135625 
L 111.688851 21.935625 
" clip-path="url(#p00d3610ef1)" style="fill: none; stroke: #b0b0b0; stroke-opacity: 0.2; stroke-width: 0.8; stroke-linecap: square"/>
     </g>
     <g id="line2d_2">
      <defs>
       <path id="mfa8e6aa529" d="M 0 0 
L 0 3.5 
" style="stroke: #000000; stroke-width: 0.8"/>
      </defs>
      <g>
       <use xlink:href="#mfa8e6aa529" x="111.688851" y="299.135625" style="stroke: #000000; stroke-width: 0.8"/>
      </g>
     </g>
     <g id="text_1">
      <!-- −15 -->
      <g transform="translate(103.207601 313.293438) scale(0.1 -0.1)">
       <defs>
        <path id="ArialMT-2212" d="M 3381 1997 
L 356 1997 
L 356 2522 
L 3381 2522 
L 3381 1997 
z
" transform="scale(0.015625)"/>
        <path id="ArialMT-31" d="M 2384 0 
L 1822 0 
L 1822 3584 
Q 1619 3391 1289 3197 
Q 959 3003 697 2906 
L 697 3450 
Q 1169 3672 1522 3987 
Q 1875 4303 2022 4600 
L 2384 4600 
L 2384 0 
z
" transform="scale(0.015625)"/>
        <path id="ArialMT-35" d="M 266 1200 
L 856 1250 
Q 922 819 1161 601 
Q 1400 384 1738 384 
Q 2144 384 2425 690 
Q 2706 997 2706 1503 
Q 2706 1984 2436 2262 
Q 2166 2541 1728 2541 
Q 1456 2541 1237 2417 
Q 1019 2294 894 2097 
L 366 2166 
L 809 4519 
L 3088 4519 
L 3088 3981 
L 1259 3981 
L 1013 2750 
Q 1425 3038 1878 3038 
Q 2478 3038 2890 2622 
Q 3303 2206 3303 1553 
Q 3303 931 2941 478 
Q 2500 -78 1738 -78 
Q 1113 -78 717 272 
Q 322 622 266 1200 
z
" transform="scale(0.015625)"/>
       </defs>
       <use xlink:href="#ArialMT-2212"/>
       <use xlink:href="#ArialMT-31" x="58.398438"/>
       <use xlink:href="#ArialMT-35" x="114.013672"/>
      </g>
     </g>
    </g>
    <g id="xtick_2">
     <g id="line2d_3">
      <path d="M 181.926613 299.135625 
L 181.926613 21.935625 
" clip-path="url(#p00d3610ef1)" style="fill: none; stroke: #b0b0b0; stroke-opacity: 0.2; stroke-width: 0.8; stroke-linecap: square"/>
     </g>
     <g id="line2d_4">
      <g>
       <use xlink:href="#mfa8e6aa529" x="181.926613" y="299.135625" style="stroke: #000000; stroke-width: 0.8"/>
      </g>
     </g>
     <g id="text_2">
      <!-- −10 -->
      <g transform="translate(173.445363 313.293438) scale(0.1 -0.1)">
       <defs>
        <path id="ArialMT-30" d="M 266 2259 
Q 266 3072 433 3567 
Q 600 4063 929 4331 
Q 1259 4600 1759 4600 
Q 2128 4600 2406 4451 
Q 2684 4303 2865 4023 
Q 3047 3744 3150 3342 
Q 3253 2941 3253 2259 
Q 3253 1453 3087 958 
Q 2922 463 2592 192 
Q 2263 -78 1759 -78 
Q 1097 -78 719 397 
Q 266 969 266 2259 
z
M 844 2259 
Q 844 1131 1108 757 
Q 1372 384 1759 384 
Q 2147 384 2411 759 
Q 2675 1134 2675 2259 
Q 2675 3391 2411 3762 
Q 2147 4134 1753 4134 
Q 1366 4134 1134 3806 
Q 844 3388 844 2259 
z
" transform="scale(0.015625)"/>
       </defs>
       <use xlink:href="#ArialMT-2212"/>
       <use xlink:href="#ArialMT-31" x="58.398438"/>
       <use xlink:href="#ArialMT-30" x="114.013672"/>
      </g>
     </g>
    </g>
    <g id="xtick_3">
     <g id="line2d_5">
      <path d="M 252.164375 299.135625 
L 252.164375 21.935625 
" clip-path="url(#p00d3610ef1)" style="fill: none; stroke: #b0b0b0; stroke-opacity: 0.2; stroke-width: 0.8; stroke-linecap: square"/>
     </g>
     <g id="line2d_6">
      <g>
       <use xlink:href="#mfa8e6aa529" x="252.164375" y="299.135625" style="stroke: #000000; stroke-width: 0.8"/>
      </g>
     </g>
     <g id="text_3">
      <!-- −5 -->
      <g transform="translate(246.463594 313.293438) scale(0.1 -0.1)">
       <use xlink:href="#ArialMT-2212"/>
       <use xlink:href="#ArialMT-35" x="58.398438"/>
      </g>
     </g>
    </g>
    <g id="xtick_4">
     <g id="line2d_7">
      <path d="M 322.402137 299.135625 
L 322.402137 21.935625 
" clip-path="url(#p00d3610ef1)" style="fill: none; stroke: #b0b0b0; stroke-opacity: 0.2; stroke-width: 0.8; stroke-linecap: square"/>
     </g>
     <g id="line2d_8">
      <g>
       <use xlink:href="#mfa8e6aa529" x="322.402137" y="299.135625" style="stroke: #000000; stroke-width: 0.8"/>
      </g>
     </g>
     <g id="text_4">
      <!-- 0 -->
      <g transform="translate(319.621668 313.293438) scale(0.1 -0.1)">
       <use xlink:href="#ArialMT-30"/>
      </g>
     </g>
    </g>
    <g id="xtick_5">
     <g id="line2d_9">
      <path d="M 392.639899 299.135625 
L 392.639899 21.935625 
" clip-path="url(#p00d3610ef1)" style="fill: none; stroke: #b0b0b0; stroke-opacity: 0.2; stroke-width: 0.8; stroke-linecap: square"/>
     </g>
     <g id="line2d_10">
      <g>
       <use xlink:href="#mfa8e6aa529" x="392.639899" y="299.135625" style="stroke: #000000; stroke-width: 0.8"/>
      </g>
     </g>
     <g id="text_5">
      <!-- 5 -->
      <g transform="translate(389.859431 313.293438) scale(0.1 -0.1)">
       <use xlink:href="#ArialMT-35"/>
      </g>
     </g>
    </g>
    <g id="text_6">
     <!-- Gate voltage [V] -->
     <g transform="translate(216.312031 326.560625) scale(0.1 -0.1)">
      <defs>
       <path id="ArialMT-47" d="M 2638 1797 
L 2638 2334 
L 4578 2338 
L 4578 638 
Q 4131 281 3656 101 
Q 3181 -78 2681 -78 
Q 2006 -78 1454 211 
Q 903 500 622 1047 
Q 341 1594 341 2269 
Q 341 2938 620 3517 
Q 900 4097 1425 4378 
Q 1950 4659 2634 4659 
Q 3131 4659 3532 4498 
Q 3934 4338 4162 4050 
Q 4391 3763 4509 3300 
L 3963 3150 
Q 3859 3500 3706 3700 
Q 3553 3900 3268 4020 
Q 2984 4141 2638 4141 
Q 2222 4141 1919 4014 
Q 1616 3888 1430 3681 
Q 1244 3475 1141 3228 
Q 966 2803 966 2306 
Q 966 1694 1177 1281 
Q 1388 869 1791 669 
Q 2194 469 2647 469 
Q 3041 469 3416 620 
Q 3791 772 3984 944 
L 3984 1797 
L 2638 1797 
z
" transform="scale(0.015625)"/>
       <path id="ArialMT-61" d="M 2588 409 
Q 2275 144 1986 34 
Q 1697 -75 1366 -75 
Q 819 -75 525 192 
Q 231 459 231 875 
Q 231 1119 342 1320 
Q 453 1522 633 1644 
Q 813 1766 1038 1828 
Q 1203 1872 1538 1913 
Q 2219 1994 2541 2106 
Q 2544 2222 2544 2253 
Q 2544 2597 2384 2738 
Q 2169 2928 1744 2928 
Q 1347 2928 1158 2789 
Q 969 2650 878 2297 
L 328 2372 
Q 403 2725 575 2942 
Q 747 3159 1072 3276 
Q 1397 3394 1825 3394 
Q 2250 3394 2515 3294 
Q 2781 3194 2906 3042 
Q 3031 2891 3081 2659 
Q 3109 2516 3109 2141 
L 3109 1391 
Q 3109 606 3145 398 
Q 3181 191 3288 0 
L 2700 0 
Q 2613 175 2588 409 
z
M 2541 1666 
Q 2234 1541 1622 1453 
Q 1275 1403 1131 1340 
Q 988 1278 909 1158 
Q 831 1038 831 891 
Q 831 666 1001 516 
Q 1172 366 1500 366 
Q 1825 366 2078 508 
Q 2331 650 2450 897 
Q 2541 1088 2541 1459 
L 2541 1666 
z
" transform="scale(0.015625)"/>
       <path id="ArialMT-74" d="M 1650 503 
L 1731 6 
Q 1494 -44 1306 -44 
Q 1000 -44 831 53 
Q 663 150 594 308 
Q 525 466 525 972 
L 525 2881 
L 113 2881 
L 113 3319 
L 525 3319 
L 525 4141 
L 1084 4478 
L 1084 3319 
L 1650 3319 
L 1650 2881 
L 1084 2881 
L 1084 941 
Q 1084 700 1114 631 
Q 1144 563 1211 522 
Q 1278 481 1403 481 
Q 1497 481 1650 503 
z
" transform="scale(0.015625)"/>
       <path id="ArialMT-65" d="M 2694 1069 
L 3275 997 
Q 3138 488 2766 206 
Q 2394 -75 1816 -75 
Q 1088 -75 661 373 
Q 234 822 234 1631 
Q 234 2469 665 2931 
Q 1097 3394 1784 3394 
Q 2450 3394 2872 2941 
Q 3294 2488 3294 1666 
Q 3294 1616 3291 1516 
L 816 1516 
Q 847 969 1125 678 
Q 1403 388 1819 388 
Q 2128 388 2347 550 
Q 2566 713 2694 1069 
z
M 847 1978 
L 2700 1978 
Q 2663 2397 2488 2606 
Q 2219 2931 1791 2931 
Q 1403 2931 1139 2672 
Q 875 2413 847 1978 
z
" transform="scale(0.015625)"/>
       <path id="ArialMT-20" transform="scale(0.015625)"/>
       <path id="ArialMT-76" d="M 1344 0 
L 81 3319 
L 675 3319 
L 1388 1331 
Q 1503 1009 1600 663 
Q 1675 925 1809 1294 
L 2547 3319 
L 3125 3319 
L 1869 0 
L 1344 0 
z
" transform="scale(0.015625)"/>
       <path id="ArialMT-6f" d="M 213 1659 
Q 213 2581 725 3025 
Q 1153 3394 1769 3394 
Q 2453 3394 2887 2945 
Q 3322 2497 3322 1706 
Q 3322 1066 3130 698 
Q 2938 331 2570 128 
Q 2203 -75 1769 -75 
Q 1072 -75 642 372 
Q 213 819 213 1659 
z
M 791 1659 
Q 791 1022 1069 705 
Q 1347 388 1769 388 
Q 2188 388 2466 706 
Q 2744 1025 2744 1678 
Q 2744 2294 2464 2611 
Q 2184 2928 1769 2928 
Q 1347 2928 1069 2612 
Q 791 2297 791 1659 
z
" transform="scale(0.015625)"/>
       <path id="ArialMT-6c" d="M 409 0 
L 409 4581 
L 972 4581 
L 972 0 
L 409 0 
z
" transform="scale(0.015625)"/>
       <path id="ArialMT-67" d="M 319 -275 
L 866 -356 
Q 900 -609 1056 -725 
Q 1266 -881 1628 -881 
Q 2019 -881 2231 -725 
Q 2444 -569 2519 -288 
Q 2563 -116 2559 434 
Q 2191 0 1641 0 
Q 956 0 581 494 
Q 206 988 206 1678 
Q 206 2153 378 2554 
Q 550 2956 876 3175 
Q 1203 3394 1644 3394 
Q 2231 3394 2613 2919 
L 2613 3319 
L 3131 3319 
L 3131 450 
Q 3131 -325 2973 -648 
Q 2816 -972 2473 -1159 
Q 2131 -1347 1631 -1347 
Q 1038 -1347 672 -1080 
Q 306 -813 319 -275 
z
M 784 1719 
Q 784 1066 1043 766 
Q 1303 466 1694 466 
Q 2081 466 2343 764 
Q 2606 1063 2606 1700 
Q 2606 2309 2336 2618 
Q 2066 2928 1684 2928 
Q 1309 2928 1046 2623 
Q 784 2319 784 1719 
z
" transform="scale(0.015625)"/>
       <path id="ArialMT-5b" d="M 434 -1272 
L 434 4581 
L 1675 4581 
L 1675 4116 
L 997 4116 
L 997 -806 
L 1675 -806 
L 1675 -1272 
L 434 -1272 
z
" transform="scale(0.015625)"/>
       <path id="ArialMT-56" d="M 1803 0 
L 28 4581 
L 684 4581 
L 1875 1253 
Q 2019 853 2116 503 
Q 2222 878 2363 1253 
L 3600 4581 
L 4219 4581 
L 2425 0 
L 1803 0 
z
" transform="scale(0.015625)"/>
       <path id="ArialMT-5d" d="M 1363 -1272 
L 122 -1272 
L 122 -806 
L 800 -806 
L 800 4116 
L 122 4116 
L 122 4581 
L 1363 4581 
L 1363 -1272 
z
" transform="scale(0.015625)"/>
      </defs>
      <use xlink:href="#ArialMT-47"/>
      <use xlink:href="#ArialMT-61" x="77.783203"/>
      <use xlink:href="#ArialMT-74" x="133.398438"/>
      <use xlink:href="#ArialMT-65" x="161.181641"/>
      <use xlink:href="#ArialMT-20" x="216.796875"/>
      <use xlink:href="#ArialMT-76" x="244.580078"/>
      <use xlink:href="#ArialMT-6f" x="294.580078"/>
      <use xlink:href="#ArialMT-6c" x="350.195312"/>
      <use xlink:href="#ArialMT-74" x="372.412109"/>
      <use xlink:href="#ArialMT-61" x="400.195312"/>
      <use xlink:href="#ArialMT-67" x="455.810547"/>
      <use xlink:href="#ArialMT-65" x="511.425781"/>
      <use xlink:href="#ArialMT-20" x="567.041016"/>
      <use xlink:href="#ArialMT-5b" x="594.824219"/>
      <use xlink:href="#ArialMT-56" x="622.607422"/>
      <use xlink:href="#ArialMT-5d" x="689.306641"/>
     </g>
    </g>
   </g>
   <g id="matplotlib.axis_2">
    <g id="ytick_1">
     <g id="line2d_11">
      <path d="M 51.284375 273.622105 
L 453.044375 273.622105 
" clip-path="url(#p00d3610ef1)" style="fill: none; stroke: #b0b0b0; stroke-opacity: 0.2; stroke-width: 0.8; stroke-linecap: square"/>
     </g>
     <g id="line2d_12">
      <defs>
       <path id="m3c14c6c0c2" d="M 0 0 
L -3.5 0 
" style="stroke: #000000; stroke-width: 0.8"/>
      </defs>
      <g>
       <use xlink:href="#m3c14c6c0c2" x="51.284375" y="273.622105" style="stroke: #000000; stroke-width: 0.8"/>
      </g>
     </g>
     <g id="text_7">
      <!-- $\mathdefault{10^{-14}}$ -->
      <g transform="translate(20.584375 278.778355) scale(0.1 -0.1)">
       <defs>
        <path id="ArialMT-34" d="M 2069 0 
L 2069 1097 
L 81 1097 
L 81 1613 
L 2172 4581 
L 2631 4581 
L 2631 1613 
L 3250 1613 
L 3250 1097 
L 2631 1097 
L 2631 0 
L 2069 0 
z
M 2069 1613 
L 2069 3678 
L 634 1613 
L 2069 1613 
z
" transform="scale(0.015625)"/>
       </defs>
       <use xlink:href="#ArialMT-31" transform="translate(0 0.99375)"/>
       <use xlink:href="#ArialMT-30" transform="translate(55.615234 0.99375)"/>
       <use xlink:href="#ArialMT-2212" transform="translate(112.972813 70.6875) scale(0.7)"/>
       <use xlink:href="#ArialMT-31" transform="translate(153.851719 70.6875) scale(0.7)"/>
       <use xlink:href="#ArialMT-34" transform="translate(192.782383 70.6875) scale(0.7)"/>
      </g>
     </g>
    </g>
    <g id="ytick_2">
     <g id="line2d_13">
      <path d="M 51.284375 237.326429 
L 453.044375 237.326429 
" clip-path="url(#p00d3610ef1)" style="fill: none; stroke: #b0b0b0; stroke-opacity: 0.2; stroke-width: 0.8; stroke-linecap: square"/>
     </g>
     <g id="line2d_14">
      <g>
       <use xlink:href="#m3c14c6c0c2" x="51.284375" y="237.326429" style="stroke: #000000; stroke-width: 0.8"/>
      </g>
     </g>
     <g id="text_8">
      <!-- $\mathdefault{10^{-12}}$ -->
      <g transform="translate(20.584375 242.482679) scale(0.1 -0.1)">
       <defs>
        <path id="ArialMT-32" d="M 3222 541 
L 3222 0 
L 194 0 
Q 188 203 259 391 
Q 375 700 629 1000 
Q 884 1300 1366 1694 
Q 2113 2306 2375 2664 
Q 2638 3022 2638 3341 
Q 2638 3675 2398 3904 
Q 2159 4134 1775 4134 
Q 1369 4134 1125 3890 
Q 881 3647 878 3216 
L 300 3275 
Q 359 3922 746 4261 
Q 1134 4600 1788 4600 
Q 2447 4600 2831 4234 
Q 3216 3869 3216 3328 
Q 3216 3053 3103 2787 
Q 2991 2522 2730 2228 
Q 2469 1934 1863 1422 
Q 1356 997 1212 845 
Q 1069 694 975 541 
L 3222 541 
z
" transform="scale(0.015625)"/>
       </defs>
       <use xlink:href="#ArialMT-31" transform="translate(0 0.99375)"/>
       <use xlink:href="#ArialMT-30" transform="translate(55.615234 0.99375)"/>
       <use xlink:href="#ArialMT-2212" transform="translate(112.972813 70.6875) scale(0.7)"/>
       <use xlink:href="#ArialMT-31" transform="translate(153.851719 70.6875) scale(0.7)"/>
       <use xlink:href="#ArialMT-32" transform="translate(192.782383 70.6875) scale(0.7)"/>
      </g>
     </g>
    </g>
    <g id="ytick_3">
     <g id="line2d_15">
      <path d="M 51.284375 201.030752 
L 453.044375 201.030752 
" clip-path="url(#p00d3610ef1)" style="fill: none; stroke: #b0b0b0; stroke-opacity: 0.2; stroke-width: 0.8; stroke-linecap: square"/>
     </g>
     <g id="line2d_16">
      <g>
       <use xlink:href="#m3c14c6c0c2" x="51.284375" y="201.030752" style="stroke: #000000; stroke-width: 0.8"/>
      </g>
     </g>
     <g id="text_9">
      <!-- $\mathdefault{10^{-10}}$ -->
      <g transform="translate(20.584375 206.187002) scale(0.1 -0.1)">
       <use xlink:href="#ArialMT-31" transform="translate(0 0.99375)"/>
       <use xlink:href="#ArialMT-30" transform="translate(55.615234 0.99375)"/>
       <use xlink:href="#ArialMT-2212" transform="translate(112.972813 70.6875) scale(0.7)"/>
       <use xlink:href="#ArialMT-31" transform="translate(153.851719 70.6875) scale(0.7)"/>
       <use xlink:href="#ArialMT-30" transform="translate(192.782383 70.6875) scale(0.7)"/>
      </g>
     </g>
    </g>
    <g id="ytick_4">
     <g id="line2d_17">
      <path d="M 51.284375 164.735075 
L 453.044375 164.735075 
" clip-path="url(#p00d3610ef1)" style="fill: none; stroke: #b0b0b0; stroke-opacity: 0.2; stroke-width: 0.8; stroke-linecap: square"/>
     </g>
     <g id="line2d_18">
      <g>
       <use xlink:href="#m3c14c6c0c2" x="51.284375" y="164.735075" style="stroke: #000000; stroke-width: 0.8"/>
      </g>
     </g>
     <g id="text_10">
      <!-- $\mathdefault{10^{-8}}$ -->
      <g transform="translate(24.484375 169.891325) scale(0.1 -0.1)">
       <defs>
        <path id="ArialMT-38" d="M 1131 2484 
Q 781 2613 612 2850 
Q 444 3088 444 3419 
Q 444 3919 803 4259 
Q 1163 4600 1759 4600 
Q 2359 4600 2725 4251 
Q 3091 3903 3091 3403 
Q 3091 3084 2923 2848 
Q 2756 2613 2416 2484 
Q 2838 2347 3058 2040 
Q 3278 1734 3278 1309 
Q 3278 722 2862 322 
Q 2447 -78 1769 -78 
Q 1091 -78 675 323 
Q 259 725 259 1325 
Q 259 1772 486 2073 
Q 713 2375 1131 2484 
z
M 1019 3438 
Q 1019 3113 1228 2906 
Q 1438 2700 1772 2700 
Q 2097 2700 2305 2904 
Q 2513 3109 2513 3406 
Q 2513 3716 2298 3927 
Q 2084 4138 1766 4138 
Q 1444 4138 1231 3931 
Q 1019 3725 1019 3438 
z
M 838 1322 
Q 838 1081 952 856 
Q 1066 631 1291 507 
Q 1516 384 1775 384 
Q 2178 384 2440 643 
Q 2703 903 2703 1303 
Q 2703 1709 2433 1975 
Q 2163 2241 1756 2241 
Q 1359 2241 1098 1978 
Q 838 1716 838 1322 
z
" transform="scale(0.015625)"/>
       </defs>
       <use xlink:href="#ArialMT-31" transform="translate(0 0.99375)"/>
       <use xlink:href="#ArialMT-30" transform="translate(55.615234 0.99375)"/>
       <use xlink:href="#ArialMT-2212" transform="translate(112.972813 70.6875) scale(0.7)"/>
       <use xlink:href="#ArialMT-38" transform="translate(153.851719 70.6875) scale(0.7)"/>
      </g>
     </g>
    </g>
    <g id="ytick_5">
     <g id="line2d_19">
      <path d="M 51.284375 128.439398 
L 453.044375 128.439398 
" clip-path="url(#p00d3610ef1)" style="fill: none; stroke: #b0b0b0; stroke-opacity: 0.2; stroke-width: 0.8; stroke-linecap: square"/>
     </g>
     <g id="line2d_20">
      <g>
       <use xlink:href="#m3c14c6c0c2" x="51.284375" y="128.439398" style="stroke: #000000; stroke-width: 0.8"/>
      </g>
     </g>
     <g id="text_11">
      <!-- $\mathdefault{10^{-6}}$ -->
      <g transform="translate(24.484375 133.595648) scale(0.1 -0.1)">
       <defs>
        <path id="ArialMT-36" d="M 3184 3459 
L 2625 3416 
Q 2550 3747 2413 3897 
Q 2184 4138 1850 4138 
Q 1581 4138 1378 3988 
Q 1113 3794 959 3422 
Q 806 3050 800 2363 
Q 1003 2672 1297 2822 
Q 1591 2972 1913 2972 
Q 2475 2972 2870 2558 
Q 3266 2144 3266 1488 
Q 3266 1056 3080 686 
Q 2894 316 2569 119 
Q 2244 -78 1831 -78 
Q 1128 -78 684 439 
Q 241 956 241 2144 
Q 241 3472 731 4075 
Q 1159 4600 1884 4600 
Q 2425 4600 2770 4297 
Q 3116 3994 3184 3459 
z
M 888 1484 
Q 888 1194 1011 928 
Q 1134 663 1356 523 
Q 1578 384 1822 384 
Q 2178 384 2434 671 
Q 2691 959 2691 1453 
Q 2691 1928 2437 2201 
Q 2184 2475 1800 2475 
Q 1419 2475 1153 2201 
Q 888 1928 888 1484 
z
" transform="scale(0.015625)"/>
       </defs>
       <use xlink:href="#ArialMT-31" transform="translate(0 0.99375)"/>
       <use xlink:href="#ArialMT-30" transform="translate(55.615234 0.99375)"/>
       <use xlink:href="#ArialMT-2212" transform="translate(112.972813 70.6875) scale(0.7)"/>
       <use xlink:href="#ArialMT-36" transform="translate(153.851719 70.6875) scale(0.7)"/>
      </g>
     </g>
    </g>
    <g id="ytick_6">
     <g id="line2d_21">
      <path d="M 51.284375 92.143721 
L 453.044375 92.143721 
" clip-path="url(#p00d3610ef1)" style="fill: none; stroke: #b0b0b0; stroke-opacity: 0.2; stroke-width: 0.8; stroke-linecap: square"/>
     </g>
     <g id="line2d_22">
      <g>
       <use xlink:href="#m3c14c6c0c2" x="51.284375" y="92.143721" style="stroke: #000000; stroke-width: 0.8"/>
      </g>
     </g>
     <g id="text_12">
      <!-- $\mathdefault{10^{-4}}$ -->
      <g transform="translate(24.484375 97.249971) scale(0.1 -0.1)">
       <use xlink:href="#ArialMT-31" transform="translate(0 0.201563)"/>
       <use xlink:href="#ArialMT-30" transform="translate(55.615234 0.201563)"/>
       <use xlink:href="#ArialMT-2212" transform="translate(112.972813 69.895313) scale(0.7)"/>
       <use xlink:href="#ArialMT-34" transform="translate(153.851719 69.895313) scale(0.7)"/>
      </g>
     </g>
    </g>
    <g id="ytick_7">
     <g id="line2d_23">
      <path d="M 51.284375 55.848044 
L 453.044375 55.848044 
" clip-path="url(#p00d3610ef1)" style="fill: none; stroke: #b0b0b0; stroke-opacity: 0.2; stroke-width: 0.8; stroke-linecap: square"/>
     </g>
     <g id="line2d_24">
      <g>
       <use xlink:href="#m3c14c6c0c2" x="51.284375" y="55.848044" style="stroke: #000000; stroke-width: 0.8"/>
      </g>
     </g>
     <g id="text_13">
      <!-- $\mathdefault{10^{-2}}$ -->
      <g transform="translate(24.484375 61.004294) scale(0.1 -0.1)">
       <use xlink:href="#ArialMT-31" transform="translate(0 0.99375)"/>
       <use xlink:href="#ArialMT-30" transform="translate(55.615234 0.99375)"/>
       <use xlink:href="#ArialMT-2212" transform="translate(112.972813 70.6875) scale(0.7)"/>
       <use xlink:href="#ArialMT-32" transform="translate(153.851719 70.6875) scale(0.7)"/>
      </g>
     </g>
    </g>
    <g id="text_14">
     <!-- |Drain current| [A] -->
     <g transform="translate(14.479687 199.533281) rotate(-90) scale(0.1 -0.1)">
      <defs>
       <path id="ArialMT-7c" d="M 588 -1347 
L 588 4659 
L 1078 4659 
L 1078 -1347 
L 588 -1347 
z
" transform="scale(0.015625)"/>
       <path id="ArialMT-44" d="M 494 0 
L 494 4581 
L 2072 4581 
Q 2606 4581 2888 4516 
Q 3281 4425 3559 4188 
Q 3922 3881 4101 3404 
Q 4281 2928 4281 2316 
Q 4281 1794 4159 1391 
Q 4038 988 3847 723 
Q 3656 459 3429 307 
Q 3203 156 2883 78 
Q 2563 0 2147 0 
L 494 0 
z
M 1100 541 
L 2078 541 
Q 2531 541 2789 625 
Q 3047 709 3200 863 
Q 3416 1078 3536 1442 
Q 3656 1806 3656 2325 
Q 3656 3044 3420 3430 
Q 3184 3816 2847 3947 
Q 2603 4041 2063 4041 
L 1100 4041 
L 1100 541 
z
" transform="scale(0.015625)"/>
       <path id="ArialMT-72" d="M 416 0 
L 416 3319 
L 922 3319 
L 922 2816 
Q 1116 3169 1280 3281 
Q 1444 3394 1641 3394 
Q 1925 3394 2219 3213 
L 2025 2691 
Q 1819 2813 1613 2813 
Q 1428 2813 1281 2702 
Q 1134 2591 1072 2394 
Q 978 2094 978 1738 
L 978 0 
L 416 0 
z
" transform="scale(0.015625)"/>
       <path id="ArialMT-69" d="M 425 3934 
L 425 4581 
L 988 4581 
L 988 3934 
L 425 3934 
z
M 425 0 
L 425 3319 
L 988 3319 
L 988 0 
L 425 0 
z
" transform="scale(0.015625)"/>
       <path id="ArialMT-6e" d="M 422 0 
L 422 3319 
L 928 3319 
L 928 2847 
Q 1294 3394 1984 3394 
Q 2284 3394 2536 3286 
Q 2788 3178 2913 3003 
Q 3038 2828 3088 2588 
Q 3119 2431 3119 2041 
L 3119 0 
L 2556 0 
L 2556 2019 
Q 2556 2363 2490 2533 
Q 2425 2703 2258 2804 
Q 2091 2906 1866 2906 
Q 1506 2906 1245 2678 
Q 984 2450 984 1813 
L 984 0 
L 422 0 
z
" transform="scale(0.015625)"/>
       <path id="ArialMT-63" d="M 2588 1216 
L 3141 1144 
Q 3050 572 2676 248 
Q 2303 -75 1759 -75 
Q 1078 -75 664 370 
Q 250 816 250 1647 
Q 250 2184 428 2587 
Q 606 2991 970 3192 
Q 1334 3394 1763 3394 
Q 2303 3394 2647 3120 
Q 2991 2847 3088 2344 
L 2541 2259 
Q 2463 2594 2264 2762 
Q 2066 2931 1784 2931 
Q 1359 2931 1093 2626 
Q 828 2322 828 1663 
Q 828 994 1084 691 
Q 1341 388 1753 388 
Q 2084 388 2306 591 
Q 2528 794 2588 1216 
z
" transform="scale(0.015625)"/>
       <path id="ArialMT-75" d="M 2597 0 
L 2597 488 
Q 2209 -75 1544 -75 
Q 1250 -75 995 37 
Q 741 150 617 320 
Q 494 491 444 738 
Q 409 903 409 1263 
L 409 3319 
L 972 3319 
L 972 1478 
Q 972 1038 1006 884 
Q 1059 663 1231 536 
Q 1403 409 1656 409 
Q 1909 409 2131 539 
Q 2353 669 2445 892 
Q 2538 1116 2538 1541 
L 2538 3319 
L 3100 3319 
L 3100 0 
L 2597 0 
z
" transform="scale(0.015625)"/>
       <path id="ArialMT-41" d="M -9 0 
L 1750 4581 
L 2403 4581 
L 4278 0 
L 3588 0 
L 3053 1388 
L 1138 1388 
L 634 0 
L -9 0 
z
M 1313 1881 
L 2866 1881 
L 2388 3150 
Q 2169 3728 2063 4100 
Q 1975 3659 1816 3225 
L 1313 1881 
z
" transform="scale(0.015625)"/>
      </defs>
      <use xlink:href="#ArialMT-7c"/>
      <use xlink:href="#ArialMT-44" x="25.976562"/>
      <use xlink:href="#ArialMT-72" x="98.193359"/>
      <use xlink:href="#ArialMT-61" x="131.494141"/>
      <use xlink:href="#ArialMT-69" x="187.109375"/>
      <use xlink:href="#ArialMT-6e" x="209.326172"/>
      <use xlink:href="#ArialMT-20" x="264.941406"/>
      <use xlink:href="#ArialMT-63" x="292.724609"/>
      <use xlink:href="#ArialMT-75" x="342.724609"/>
      <use xlink:href="#ArialMT-72" x="398.339844"/>
      <use xlink:href="#ArialMT-72" x="431.640625"/>
      <use xlink:href="#ArialMT-65" x="464.941406"/>
      <use xlink:href="#ArialMT-6e" x="520.556641"/>
      <use xlink:href="#ArialMT-74" x="576.171875"/>
      <use xlink:href="#ArialMT-7c" x="603.955078"/>
      <use xlink:href="#ArialMT-20" x="629.931641"/>
      <use xlink:href="#ArialMT-5b" x="657.714844"/>
      <use xlink:href="#ArialMT-41" x="685.498047"/>
      <use xlink:href="#ArialMT-5d" x="752.197266"/>
     </g>
    </g>
   </g>
   <g id="line2d_25">
    <path d="M 295.290361 204.622017 
L 296.49767 203.657256 
L 298.111977 202.672554 
L 300.078634 201.297593 
L 302.045291 199.946145 
L 304.011949 199.092401 
L 305.978606 199.138076 
L 307.945263 200.124891 
L 309.911921 201.673746 
L 311.878578 203.294676 
L 313.845235 204.438795 
L 315.811893 204.302641 
L 317.77855 201.071356 
L 319.745207 192.346389 
L 321.711865 179.56596 
L 323.678522 165.691727 
L 325.645179 151.786123 
L 327.611837 137.917803 
L 329.578494 124.310789 
L 331.545151 111.000454 
L 333.511809 97.942291 
L 335.478466 85.280725 
L 337.445123 73.404098 
L 339.411781 63.072813 
L 341.378438 55.097746 
L 343.345095 49.559536 
L 345.311753 45.886647 
L 347.27841 43.444324 
L 349.245067 41.769758 
L 351.211725 40.572846 
L 353.178382 39.681399 
L 355.145039 38.993139 
L 357.111697 38.44557 
L 359.078354 37.999046 
L 361.045011 37.627439 
L 363.011669 37.31291 
L 364.978326 37.042896 
L 366.944983 36.8083 
L 368.911641 36.602371 
L 370.878298 36.419997 
L 372.844956 36.257232 
L 374.811613 36.110978 
L 376.77827 35.97877 
L 378.744928 35.858618 
L 380.711585 35.748898 
L 382.678242 35.648273 
L 384.6449 35.555625 
L 386.611557 35.47002 
L 388.578214 35.390664 
L 390.544872 35.316881 
L 392.511529 35.24809 
L 392.639899 35.243764 
" clip-path="url(#p00d3610ef1)" style="fill: none; stroke: #471365; stroke-width: 1.7; stroke-linecap: square"/>
   </g>
   <g id="line2d_26">
    <path d="M 181.926613 214.643214 
L 183.612319 215.782276 
L 186.140878 216.548411 
L 186.983732 217.427404 
L 187.826585 217.807658 
L 188.669438 217.482921 
L 189.512291 217.573307 
L 190.355144 217.266634 
L 191.197997 217.644541 
L 192.040851 218.219034 
L 192.883704 218.189491 
L 193.726557 218.300364 
L 194.56941 218.292389 
L 197.097969 218.77072 
L 197.940823 218.516645 
L 198.783676 219.635539 
L 199.626529 219.167857 
L 200.469382 219.678162 
L 201.312235 220.3858 
L 202.155088 220.282572 
L 202.997941 219.973345 
L 203.840795 219.894863 
L 204.683648 220.561824 
L 205.526501 220.722842 
L 206.369354 221.163312 
L 207.212207 220.417046 
L 208.05506 219.402825 
L 208.897913 220.213652 
L 209.740767 220.741847 
L 210.58362 220.617795 
L 211.426473 220.832028 
L 212.269326 221.246888 
L 213.112179 221.235306 
L 213.955032 222.029161 
L 215.640739 221.968615 
L 216.483592 223.259636 
L 217.326445 222.627322 
L 218.169298 223.979869 
L 219.012151 223.274603 
L 219.855004 223.702002 
L 220.697858 223.148186 
L 221.540711 223.801545 
L 222.383564 224.691407 
L 223.226417 224.628849 
L 224.06927 223.584199 
L 224.912123 221.715476 
L 225.754976 222.745573 
L 227.440683 224.306223 
L 228.283536 223.185156 
L 229.126389 224.145531 
L 229.969242 224.426764 
L 230.812095 224.478996 
L 231.654948 225.493508 
L 232.497802 224.759011 
L 233.340655 224.379184 
L 234.183508 224.979241 
L 235.026361 225.880317 
L 235.869214 225.613604 
L 236.712067 227.553499 
L 237.55492 228.469013 
L 238.397774 227.212682 
L 239.240627 228.519882 
L 240.08348 228.923803 
L 240.926333 232.626927 
L 241.769186 232.889111 
L 242.612039 230.746185 
L 243.454892 233.173399 
L 244.297746 234.902833 
L 245.140599 234.034823 
L 245.983452 236.085307 
L 246.826305 235.018388 
L 247.669158 233.564597 
L 248.512011 242.061391 
L 249.354865 249.349362 
L 250.197718 237.660846 
L 251.040571 236.698867 
L 251.883424 234.935696 
L 252.726277 242.020816 
L 253.56913 236.028415 
L 254.411983 237.754485 
L 255.254837 243.149196 
L 256.09769 242.873892 
L 256.940543 243.729935 
L 257.783396 241.55025 
L 258.626249 250.686142 
L 259.469102 243.056473 
L 260.311955 238.946209 
L 261.154809 236.515825 
L 261.997662 246.39343 
L 262.840515 248.950025 
L 263.683368 248.949844 
L 264.526221 242.777262 
L 265.369074 255.572711 
L 266.211927 242.732828 
L 267.054781 244.738036 
L 267.897634 235.931346 
L 268.740487 236.452363 
L 269.58334 245.773456 
L 270.426193 243.188057 
L 271.269046 235.656111 
L 272.111899 234.867392 
L 272.954753 235.530823 
L 273.797606 233.815203 
L 274.640459 234.091254 
L 275.483312 230.783399 
L 276.326165 231.431216 
L 277.169018 231.399595 
L 278.011872 230.544198 
L 278.854725 233.800937 
L 279.697578 231.040174 
L 280.540431 230.763972 
L 281.383284 229.755437 
L 282.226137 230.563042 
L 283.06899 229.267588 
L 283.911844 229.132469 
L 284.754697 229.721358 
L 285.59755 226.938512 
L 286.440403 227.969603 
L 287.283256 226.492031 
L 288.126109 228.830993 
L 288.968962 227.689049 
L 289.811816 228.830934 
L 290.654669 229.781006 
L 291.497522 230.478431 
L 292.340375 230.266354 
L 293.183228 229.470651 
L 294.026081 228.345573 
L 294.868934 227.623718 
L 295.711788 230.024322 
L 296.554641 223.772893 
L 297.397494 224.473917 
L 298.240347 226.407932 
L 299.0832 227.675942 
L 299.926053 227.675934 
L 301.61176 228.28878 
L 303.297466 225.612809 
L 304.140319 224.14482 
L 304.983172 224.803647 
L 305.826025 224.641513 
L 306.668878 223.709285 
L 307.511732 223.83703 
L 308.354585 224.867608 
L 309.197438 224.785441 
L 310.883144 224.165807 
L 312.568851 222.506835 
L 313.411704 224.400061 
L 314.254557 223.251527 
L 315.09741 223.10712 
L 315.940263 223.375804 
L 316.783116 223.143884 
L 317.625969 224.487041 
L 318.468823 224.654872 
L 319.311676 224.495757 
L 320.154529 223.657962 
L 320.997382 224.959875 
L 321.840235 224.352659 
L 322.683088 225.780985 
L 323.525941 225.905604 
L 324.368795 226.932553 
L 325.211648 234.392632 
L 326.054501 233.400415 
L 326.897354 220.77452 
L 328.58306 209.010831 
L 331.954473 188.832913 
L 334.483032 173.315322 
L 339.540151 139.953902 
L 346.282976 93.549369 
L 348.811536 76.046675 
L 351.340095 60.535584 
L 353.025802 52.097172 
L 353.868655 48.818691 
L 354.711508 46.227266 
L 355.554361 44.341544 
L 356.397214 43.042462 
L 357.240067 42.162696 
L 358.08292 41.564248 
L 358.925774 41.150915 
L 360.61148 40.663655 
L 363.140039 40.296737 
L 367.354305 40.041917 
L 374.939983 39.874962 
L 393.482753 39.752899 
L 434.782557 39.681135 
L 434.782557 39.681135 
" clip-path="url(#p00d3610ef1)" style="fill: none; stroke-dasharray: 4.07,1.76; stroke-dashoffset: 0; stroke: #471365; stroke-width: 1.1"/>
   </g>
   <g id="line2d_27">
    <path d="M 295.290361 190.895018 
L 296.569344 190.537037 
L 298.279486 190.931027 
L 300.246143 192.334265 
L 302.212801 194.09277 
L 304.179458 195.292057 
L 306.146115 194.983675 
L 308.112773 191.390768 
L 310.07943 182.422541 
L 312.046087 170.26742 
L 314.012745 157.725152 
L 315.979402 145.258246 
L 317.946059 132.931681 
L 319.912717 121.072469 
L 321.879374 109.511892 
L 323.846031 98.141433 
L 325.812689 87.032903 
L 327.779346 76.395688 
L 329.746003 66.662072 
L 331.712661 58.459985 
L 333.679318 52.219618 
L 335.645975 47.841452 
L 337.612633 44.880806 
L 339.57929 42.862548 
L 341.545948 41.436767 
L 343.512605 40.386013 
L 345.479262 39.581228 
L 347.44592 38.944631 
L 349.412577 38.427612 
L 351.379234 37.99855 
L 353.345892 37.63609 
L 355.312549 37.325319 
L 357.279206 37.055516 
L 359.245864 36.818774 
L 361.212521 36.609131 
L 363.179178 36.422004 
L 365.145836 36.253809 
L 367.112493 36.101701 
L 369.07915 35.963389 
L 371.045808 35.83701 
L 373.012465 35.721029 
L 374.979122 35.614168 
L 376.94578 35.515358 
L 378.912437 35.423694 
L 380.879094 35.338405 
L 382.845752 35.258828 
L 384.812409 35.184394 
L 386.779066 35.114607 
L 388.745724 35.049035 
L 390.712381 34.987299 
L 392.639899 34.930192 
" clip-path="url(#p00d3610ef1)" style="fill: none; stroke: #424186; stroke-width: 1.7; stroke-linecap: square"/>
   </g>
   <g id="line2d_28">
    <path d="M 181.926613 225.105836 
L 182.769466 224.44408 
L 183.612319 225.838617 
L 184.455172 225.503374 
L 185.298025 225.011785 
L 186.983732 227.611675 
L 187.826585 227.676941 
L 188.669438 228.771677 
L 189.512291 229.381925 
L 190.355144 229.521401 
L 191.197997 228.025231 
L 192.040851 228.726674 
L 192.883704 230.069977 
L 193.726557 230.285935 
L 194.56941 229.117977 
L 195.412263 230.602372 
L 196.255116 230.545572 
L 197.097969 231.255426 
L 197.940823 234.692424 
L 198.783676 229.48014 
L 199.626529 235.604913 
L 200.469382 233.817337 
L 201.312235 234.487659 
L 202.155088 234.45666 
L 202.997941 231.173323 
L 203.840795 229.629748 
L 204.683648 234.005211 
L 205.526501 235.551326 
L 206.369354 234.804971 
L 207.212207 235.480525 
L 208.05506 238.340275 
L 208.897913 236.949649 
L 209.740767 233.746284 
L 210.58362 237.707311 
L 211.426473 236.928405 
L 212.269326 236.495487 
L 213.112179 238.442319 
L 213.955032 239.338845 
L 214.797885 244.521095 
L 215.640739 236.616726 
L 216.483592 239.931979 
L 217.326445 244.195085 
L 218.169298 245.981293 
L 219.012151 261.690165 
L 219.855004 267.119827 
L 220.697858 238.887672 
L 221.540711 254.131692 
L 222.383564 243.772414 
L 223.226417 249.436966 
L 224.06927 247.527292 
L 224.912123 233.631979 
L 225.754976 236.255575 
L 226.59783 236.799211 
L 227.440683 236.675134 
L 228.283536 233.730222 
L 229.126389 234.658326 
L 229.969242 232.148822 
L 230.812095 236.006716 
L 231.654948 234.047206 
L 232.497802 232.79886 
L 233.340655 234.439034 
L 234.183508 232.849202 
L 235.026361 230.648627 
L 236.712067 230.06868 
L 237.55492 229.971688 
L 238.397774 230.404108 
L 239.240627 231.010278 
L 240.08348 232.102689 
L 240.926333 232.989326 
L 241.769186 231.920958 
L 242.612039 232.479151 
L 243.454892 229.679127 
L 244.297746 231.820558 
L 245.140599 229.59507 
L 245.983452 228.410159 
L 246.826305 230.62007 
L 247.669158 228.907304 
L 248.512011 229.015256 
L 249.354865 228.91493 
L 250.197718 230.230047 
L 251.040571 230.735076 
L 251.883424 229.35637 
L 252.726277 229.437895 
L 253.56913 226.242422 
L 254.411983 229.315886 
L 255.254837 227.010505 
L 256.09769 227.788152 
L 256.940543 227.695692 
L 257.783396 229.148388 
L 258.626249 227.405559 
L 259.469102 227.292457 
L 260.311955 227.834841 
L 261.154809 227.205565 
L 261.997662 228.504185 
L 262.840515 227.848223 
L 263.683368 228.47512 
L 264.526221 227.748386 
L 265.369074 228.733067 
L 266.211927 226.60568 
L 267.897634 228.606698 
L 268.740487 226.956528 
L 269.58334 228.614067 
L 270.426193 226.324772 
L 271.269046 228.438987 
L 272.111899 227.437286 
L 272.954753 227.990094 
L 273.797606 226.802561 
L 274.640459 227.481934 
L 275.483312 226.291671 
L 276.326165 226.732495 
L 277.169018 228.288856 
L 278.011872 227.689144 
L 278.854725 225.895163 
L 279.697578 228.569942 
L 280.540431 228.017423 
L 281.383284 226.54299 
L 282.226137 225.443258 
L 283.06899 227.168599 
L 283.911844 227.298669 
L 284.754697 226.346858 
L 285.59755 225.832694 
L 286.440403 227.399226 
L 287.283256 227.942463 
L 288.126109 226.577137 
L 288.968962 228.176337 
L 290.654669 226.128541 
L 291.497522 225.973929 
L 292.340375 225.311112 
L 294.026081 224.614882 
L 294.868934 225.195523 
L 295.711788 225.219447 
L 296.554641 226.058861 
L 297.397494 225.364681 
L 298.240347 226.968459 
L 299.0832 226.160901 
L 299.926053 224.686255 
L 300.768906 226.651538 
L 301.61176 224.969222 
L 302.454613 225.152547 
L 303.297466 226.101642 
L 304.140319 231.473646 
L 304.983172 233.534848 
L 305.826025 235.254523 
L 306.668878 220.231428 
L 307.511732 212.873205 
L 311.725997 183.432268 
L 315.940263 157.454663 
L 324.368795 110.038784 
L 328.58306 88.940027 
L 331.954473 73.816024 
L 334.483032 63.803756 
L 336.168739 57.872713 
L 337.854445 52.804788 
L 339.540151 48.617503 
L 340.383004 46.94526 
L 341.225858 45.542972 
L 342.068711 44.393921 
L 342.911564 43.485258 
L 343.754417 42.768905 
L 345.440123 41.770683 
L 347.12583 41.163103 
L 348.811536 40.787006 
L 351.340095 40.456088 
L 355.554361 40.1926 
L 363.140039 40.01289 
L 380.839955 39.889802 
L 434.782557 39.807448 
L 434.782557 39.807448 
" clip-path="url(#p00d3610ef1)" style="fill: none; stroke-dasharray: 4.07,1.76; stroke-dashoffset: 0; stroke: #424186; stroke-width: 1.1"/>
   </g>
   <g id="line2d_29">
    <path d="M 295.290361 191.091562 
L 296.533507 191.352963 
L 298.195731 190.25493 
L 300.162389 184.838924 
L 302.129046 174.63745 
L 304.095703 162.957476 
L 306.062361 151.34862 
L 308.029018 139.779334 
L 309.995675 128.571028 
L 311.962333 117.844803 
L 313.92899 107.347816 
L 315.895647 97.005928 
L 317.862305 86.876827 
L 319.828962 77.112191 
L 321.795619 68.019197 
L 323.762277 60.074482 
L 325.728934 53.713923 
L 327.695591 49.031858 
L 329.662249 45.767982 
L 331.628906 43.521286 
L 333.595563 41.9384 
L 335.562221 40.77939 
L 337.528878 39.897305 
L 339.495535 39.203161 
L 341.462193 38.641628 
L 343.42885 38.176996 
L 345.395507 37.785334 
L 347.362165 37.450052 
L 349.328822 37.159293 
L 351.295479 36.904358 
L 353.262137 36.678718 
L 355.228794 36.47737 
L 357.195452 36.296415 
L 359.162109 36.132767 
L 361.128766 35.983945 
L 363.095424 35.847936 
L 365.062081 35.723084 
L 367.028738 35.608015 
L 368.995396 35.501576 
L 370.962053 35.402797 
L 372.92871 35.310848 
L 374.895368 35.225022 
L 376.862025 35.144706 
L 378.828682 35.06937 
L 380.79534 34.998551 
L 382.761997 34.931844 
L 384.728654 34.868892 
L 386.695312 34.809378 
L 388.661969 34.753023 
L 390.628626 34.699576 
L 392.595284 34.648813 
L 392.639899 34.647691 
" clip-path="url(#p00d3610ef1)" style="fill: none; stroke: #306a8e; stroke-width: 1.7; stroke-linecap: square"/>
   </g>
   <g id="line2d_30">
    <path d="M 181.926613 222.788559 
L 182.769466 223.588976 
L 183.612319 226.103724 
L 184.455172 227.724562 
L 185.298025 226.293821 
L 186.140878 225.395933 
L 186.983732 228.116429 
L 187.826585 231.858194 
L 188.669438 231.660264 
L 189.512291 229.135629 
L 190.355144 227.332415 
L 191.197997 236.440376 
L 192.040851 232.904804 
L 192.883704 232.352293 
L 193.726557 226.694186 
L 194.56941 233.007237 
L 195.412263 234.008868 
L 196.255116 232.593077 
L 197.097969 233.202883 
L 197.940823 233.124009 
L 198.783676 242.574931 
L 199.626529 233.255878 
L 200.469382 237.258119 
L 201.312235 237.950581 
L 202.155088 244.703472 
L 202.997941 238.57816 
L 203.840795 234.276686 
L 204.683648 236.147063 
L 205.526501 241.558798 
L 206.369354 238.709797 
L 207.212207 234.972547 
L 208.05506 244.992875 
L 208.897913 239.639053 
L 209.740767 255.40286 
L 210.58362 235.351377 
L 211.426473 235.055571 
L 212.269326 234.616896 
L 213.112179 238.709879 
L 213.955032 263.789129 
L 214.797885 239.881857 
L 215.640739 250.884177 
L 216.483592 257.692534 
L 217.326445 258.973001 
L 218.169298 250.056438 
L 219.012151 250.35739 
L 219.855004 252.48188 
L 220.697858 242.839451 
L 221.540711 245.733917 
L 222.383564 250.35693 
L 223.226417 244.068582 
L 224.06927 241.309942 
L 224.912123 256.183545 
L 225.754976 244.646522 
L 226.59783 240.727152 
L 227.440683 279.474865 
L 228.283536 242.292477 
L 229.126389 234.808933 
L 229.969242 235.845919 
L 230.812095 248.051921 
L 231.654948 239.129092 
L 232.497802 240.830916 
L 233.340655 259.700536 
L 234.183508 241.113881 
L 235.026361 249.835834 
L 235.869214 253.01349 
L 236.712067 247.414784 
L 237.55492 265.985095 
L 238.397774 251.754745 
L 239.240627 245.62925 
L 240.08348 236.870235 
L 240.926333 246.064896 
L 241.769186 242.360688 
L 242.612039 246.624555 
L 243.454892 241.296179 
L 244.297746 243.691704 
L 245.140599 252.238326 
L 245.983452 238.056771 
L 246.826305 243.271507 
L 247.669158 246.132777 
L 248.512011 251.348469 
L 249.354865 243.660016 
L 250.197718 255.85677 
L 251.040571 240.795935 
L 251.883424 236.321651 
L 252.726277 243.177365 
L 253.56913 248.719532 
L 254.411983 286.535625 
L 255.254837 250.015169 
L 256.09769 260.24029 
L 256.940543 238.692988 
L 257.783396 245.629225 
L 258.626249 250.760036 
L 259.469102 248.139166 
L 260.311955 252.091523 
L 261.154809 246.132761 
L 261.997662 236.690726 
L 262.840515 250.638304 
L 263.683368 243.319054 
L 264.526221 260.934626 
L 265.369074 245.31608 
L 266.211927 240.603528 
L 267.897634 246.798243 
L 268.740487 240.228725 
L 269.58334 253.519354 
L 270.426193 252.482476 
L 271.269046 243.561421 
L 272.111899 249.687767 
L 272.954753 241.830397 
L 273.797606 245.23215 
L 274.640459 241.496591 
L 275.483312 240.637332 
L 276.326165 243.08416 
L 277.169018 251.397598 
L 278.011872 247.546225 
L 278.854725 274.126058 
L 279.697578 253.695081 
L 280.540431 241.909598 
L 281.383284 242.376563 
L 282.226137 241.078107 
L 283.06899 245.111738 
L 283.911844 241.42162 
L 284.754697 244.955641 
L 285.59755 242.488706 
L 287.283256 228.298628 
L 288.126109 221.29989 
L 288.968962 217.206055 
L 292.340375 196.246411 
L 294.868934 180.844326 
L 301.61176 142.308449 
L 304.983172 124.629464 
L 307.511732 112.111504 
L 311.725997 92.938385 
L 315.09741 79.18549 
L 317.625969 69.971873 
L 319.311676 64.353111 
L 321.840235 56.920659 
L 323.525941 52.702031 
L 325.211648 49.203303 
L 326.897354 46.428327 
L 328.58306 44.383594 
L 330.268767 42.954782 
L 331.954473 41.990776 
L 333.640179 41.337982 
L 336.168739 40.740547 
L 338.697298 40.395767 
L 342.911564 40.094724 
L 349.654389 39.893769 
L 363.982892 39.757021 
L 405.282697 39.666405 
L 434.782557 39.645235 
L 434.782557 39.645235 
" clip-path="url(#p00d3610ef1)" style="fill: none; stroke-dasharray: 4.07,1.76; stroke-dashoffset: 0; stroke: #306a8e; stroke-width: 1.1"/>
   </g>
   <g id="line2d_31">
    <path d="M 295.290361 164.088381 
L 296.533507 157.513371 
L 298.195731 148.781243 
L 300.162389 138.480992 
L 302.129046 128.628333 
L 304.095703 119.270555 
L 306.062361 110.134276 
L 308.029018 101.108577 
L 309.995675 92.203934 
L 311.962333 83.484943 
L 313.92899 75.075392 
L 315.895647 67.198848 
L 317.862305 60.184492 
L 319.828962 54.358259 
L 321.795619 49.861438 
L 323.762277 46.580622 
L 325.728934 44.244372 
L 327.695591 42.565547 
L 329.662249 41.324026 
L 331.628906 40.37461 
L 333.595563 39.625707 
L 335.562221 39.019112 
L 337.528878 38.516814 
L 339.495535 38.093182 
L 341.462193 37.730382 
L 343.42885 37.41564 
L 345.395507 37.139576 
L 347.362165 36.895144 
L 349.328822 36.676942 
L 351.295479 36.480762 
L 353.262137 36.303269 
L 355.228794 36.141787 
L 357.195452 35.99414 
L 359.162109 35.858541 
L 361.128766 35.733506 
L 363.095424 35.617792 
L 365.062081 35.51035 
L 367.028738 35.410286 
L 368.995396 35.316836 
L 370.962053 35.229339 
L 372.92871 35.147224 
L 374.895368 35.069992 
L 376.862025 34.997206 
L 378.828682 34.92848 
L 380.79534 34.863473 
L 382.761997 34.801884 
L 384.728654 34.743444 
L 386.695312 34.68791 
L 388.661969 34.635066 
L 390.628626 34.584718 
L 392.595284 34.536689 
L 392.639899 34.535625 
" clip-path="url(#p00d3610ef1)" style="fill: none; stroke: #228d8d; stroke-width: 1.7; stroke-linecap: square"/>
   </g>
   <g id="line2d_32">
    <path d="M 125.736403 215.760066 
L 126.485606 216.825117 
L 127.234809 217.604256 
L 127.984011 219.017216 
L 128.733214 219.890786 
L 129.482417 222.229003 
L 130.23162 223.56344 
L 130.980823 223.989456 
L 131.730025 224.675002 
L 132.479228 224.131596 
L 133.228431 224.32904 
L 135.476039 230.30437 
L 136.225242 228.921284 
L 136.974445 231.818645 
L 137.723648 229.444618 
L 138.472851 231.600129 
L 139.222053 244.448832 
L 139.971256 266.642279 
L 140.720459 246.264762 
L 141.469662 240.051615 
L 142.968067 246.117288 
L 143.71727 245.794484 
L 144.466473 234.459342 
L 145.215676 238.235407 
L 145.964878 251.54183 
L 146.714081 243.564669 
L 147.463284 250.293062 
L 148.212487 232.853136 
L 148.96169 238.005395 
L 149.710892 235.442487 
L 150.460095 243.345746 
L 151.209298 239.572833 
L 151.958501 256.451028 
L 152.707704 239.726862 
L 153.456906 236.62016 
L 154.206109 239.469401 
L 154.955312 267.428281 
L 155.704515 248.447728 
L 156.453718 236.255126 
L 157.20292 235.121556 
L 157.952123 233.33504 
L 158.701326 232.925025 
L 159.450529 262.916584 
L 160.199732 249.263729 
L 160.948934 243.49028 
L 161.698137 236.539193 
L 162.44734 233.353025 
L 163.945746 235.536678 
L 164.694948 233.805548 
L 165.444151 230.990075 
L 166.193354 231.913238 
L 166.942557 235.104649 
L 167.69176 234.68459 
L 168.440962 235.608 
L 169.190165 267.427972 
L 169.939368 223.828268 
L 170.688571 225.085493 
L 171.437774 228.30284 
L 172.186976 222.406532 
L 172.936179 228.143648 
L 173.685382 232.838559 
L 174.434585 229.981886 
L 175.183788 241.556051 
L 175.93299 226.734295 
L 176.682193 226.535292 
L 177.431396 234.987956 
L 178.180599 240.178438 
L 178.929802 242.514269 
L 179.679004 229.310434 
L 180.428207 229.211568 
L 181.17741 232.68228 
L 181.926613 234.897545 
L 182.675816 245.828612 
L 183.425018 239.343701 
L 184.174221 229.174483 
L 184.923424 228.081377 
L 185.672627 231.681184 
L 186.42183 233.993058 
L 187.171032 239.577371 
L 187.920235 234.759199 
L 188.669438 228.683095 
L 189.418641 229.465013 
L 190.167844 233.687624 
L 190.917046 244.642612 
L 191.666249 252.07476 
L 192.415452 233.162344 
L 193.164655 230.151815 
L 193.913858 227.992192 
L 194.66306 232.491 
L 195.412263 235.93735 
L 196.910669 229.800929 
L 197.659872 228.248595 
L 198.409074 227.904047 
L 199.90748 232.827875 
L 200.656683 232.523153 
L 201.405885 229.238147 
L 202.155088 227.024393 
L 202.904291 226.448865 
L 203.653494 229.035766 
L 204.402697 232.604349 
L 205.151899 231.909443 
L 205.901102 228.922396 
L 206.650305 226.988309 
L 207.399508 228.57953 
L 208.148711 229.772341 
L 208.897913 233.07083 
L 210.396319 227.093046 
L 211.894725 225.822185 
L 212.643927 227.184835 
L 213.39313 230.16074 
L 214.142333 226.66862 
L 214.891536 227.152095 
L 215.640739 224.505887 
L 216.389941 226.948379 
L 217.888347 228.623758 
L 218.63755 230.43173 
L 219.386753 229.315766 
L 220.135955 229.07217 
L 220.885158 227.651858 
L 221.634361 228.248663 
L 222.383564 230.260164 
L 223.132767 228.062985 
L 223.881969 226.940444 
L 224.631172 226.103343 
L 225.380375 226.93445 
L 226.129578 229.208899 
L 226.878781 229.930649 
L 227.627983 230.867913 
L 228.377186 230.232897 
L 229.126389 229.399565 
L 229.875592 230.296616 
L 230.624795 231.448701 
L 231.373997 229.715633 
L 232.1232 229.124516 
L 232.872403 226.59598 
L 233.621606 224.998599 
L 234.370809 225.796366 
L 235.120011 227.906271 
L 235.869214 227.006337 
L 236.618417 226.964334 
L 237.36762 225.211316 
L 238.116823 228.426768 
L 238.866025 229.741102 
L 239.615228 233.259321 
L 240.364431 233.777178 
L 241.862837 228.155271 
L 242.612039 227.62577 
L 244.110445 227.680194 
L 244.859648 227.145963 
L 245.608851 226.932492 
L 246.358053 225.658234 
L 247.107256 225.849865 
L 247.856459 228.241616 
L 249.354865 228.609013 
L 250.104067 230.459648 
L 250.85327 225.782611 
L 251.602473 226.249583 
L 252.351676 249.215046 
L 253.100878 233.708929 
L 253.850081 233.162367 
L 254.599284 223.626454 
L 255.348487 225.193763 
L 256.09769 245.411921 
L 256.846892 236.596861 
L 257.596095 231.87593 
L 258.345298 223.842322 
L 259.094501 225.611041 
L 259.843704 231.547972 
L 260.592906 228.426743 
L 261.342109 227.232213 
L 262.091312 222.678659 
L 262.840515 228.841001 
L 263.589718 231.361105 
L 264.33892 231.070246 
L 265.088123 226.904704 
L 265.837326 227.121531 
L 266.586529 238.310926 
L 267.335732 235.891074 
L 268.084934 232.573974 
L 268.834137 233.404947 
L 269.58334 226.214194 
L 270.332543 217.26078 
L 271.081746 212.004508 
L 272.580151 203.975387 
L 277.075368 178.27833 
L 279.322976 166.745061 
L 281.570585 156.273869 
L 292.059424 110.25815 
L 295.805438 94.803301 
L 298.802249 83.453165 
L 301.049858 75.647512 
L 303.297466 68.471212 
L 305.545074 62.003227 
L 307.792683 56.253428 
L 309.291088 52.936194 
L 310.789494 50.073616 
L 312.287899 47.679824 
L 313.786305 45.746922 
L 315.284711 44.243339 
L 316.783116 43.107142 
L 318.281522 42.272714 
L 319.779927 41.657846 
L 322.027536 41.02585 
L 324.275144 40.622895 
L 328.021158 40.231846 
L 333.265578 39.969767 
L 342.256011 39.791073 
L 350.497242 39.723249 
L 350.497242 39.723249 
" clip-path="url(#p00d3610ef1)" style="fill: none; stroke-dasharray: 4.07,1.76; stroke-dashoffset: 0; stroke: #228d8d; stroke-width: 1.1"/>
   </g>
   <g id="line2d_33">
    <path d="M 295.290361 205.214081 
L 296.49767 204.988663 
L 298.111977 204.603288 
L 300.078634 203.953527 
L 302.045291 203.029281 
L 304.011949 201.807449 
L 305.978606 200.458163 
L 307.945263 199.441608 
L 309.911921 199.275144 
L 311.878578 200.116765 
L 313.845235 201.595149 
L 315.811893 202.903572 
L 317.77855 202.460186 
L 319.745207 197.032021 
L 321.711865 185.790258 
L 323.678522 171.693352 
L 325.645179 157.820658 
L 327.611837 144.507138 
L 329.578494 130.861579 
L 331.545151 117.523104 
L 333.511809 104.459726 
L 335.478466 91.729664 
L 337.445123 79.594059 
L 339.411781 68.633442 
L 341.378438 59.710818 
L 343.345095 53.268978 
L 345.311753 48.940185 
L 347.27841 46.104594 
L 349.245067 44.247098 
L 351.211725 42.998851 
L 353.178382 42.124104 
L 355.145039 41.483388 
L 357.111697 40.995306 
L 359.078354 40.611135 
L 361.045011 40.300542 
L 363.011669 40.043864 
L 364.978326 39.827861 
L 366.944983 39.643317 
L 368.911641 39.483624 
L 370.878298 39.343924 
L 372.844956 39.220563 
L 374.811613 39.11074 
L 376.77827 39.01227 
L 378.744928 38.92342 
L 380.711585 38.842803 
L 382.678242 38.769286 
L 384.6449 38.701944 
L 386.611557 38.640004 
L 388.578214 38.582824 
L 390.544872 38.529857 
L 392.511529 38.480641 
L 392.639899 38.477554 
" clip-path="url(#p00d3610ef1)" style="fill: none; stroke: #29af7f; stroke-width: 1.7; stroke-linecap: square"/>
   </g>
   <g id="line2d_34">
    <path d="M 125.736403 212.256367 
L 126.485606 212.078417 
L 127.234809 212.714895 
L 127.984011 212.567097 
L 128.733214 212.817648 
L 129.482417 212.839221 
L 130.980823 213.59933 
L 131.730025 213.227552 
L 132.479228 212.98549 
L 133.977634 213.805154 
L 134.726837 213.999918 
L 135.476039 213.406963 
L 136.225242 213.510528 
L 136.974445 214.082377 
L 137.723648 213.592377 
L 138.472851 213.604099 
L 139.971256 214.379396 
L 140.720459 214.385865 
L 141.469662 213.926314 
L 142.218865 213.964946 
L 142.968067 214.300182 
L 143.71727 214.303789 
L 144.466473 213.945421 
L 145.215676 213.903837 
L 145.964878 214.07304 
L 147.463284 213.967242 
L 148.212487 214.30138 
L 148.96169 214.246751 
L 149.710892 213.795014 
L 150.460095 213.686196 
L 151.209298 214.090162 
L 151.958501 214.09211 
L 152.707704 214.315799 
L 154.206109 213.751229 
L 154.955312 213.676206 
L 155.704515 213.745263 
L 156.453718 213.980298 
L 157.20292 214.017265 
L 157.952123 214.271828 
L 158.701326 214.257489 
L 159.450529 213.762071 
L 160.199732 214.352769 
L 160.948934 214.340699 
L 161.698137 214.511842 
L 163.196543 214.096008 
L 164.694948 214.346733 
L 166.193354 214.374954 
L 166.942557 214.279406 
L 167.69176 214.44392 
L 168.440962 214.049756 
L 169.190165 214.262268 
L 169.939368 214.285394 
L 170.688571 214.796809 
L 172.186976 213.799518 
L 172.936179 213.952685 
L 173.685382 214.233255 
L 174.434585 214.285393 
L 175.183788 214.069543 
L 178.929802 214.896295 
L 179.679004 214.599879 
L 180.428207 214.57332 
L 181.17741 214.169644 
L 181.926613 214.508148 
L 182.675816 214.304587 
L 185.672627 214.129214 
L 186.42183 214.338683 
L 187.171032 214.806616 
L 187.920235 214.752193 
L 189.418641 215.056711 
L 190.167844 214.758126 
L 190.917046 214.683845 
L 191.666249 214.821135 
L 192.415452 214.710775 
L 193.164655 215.387232 
L 193.913858 214.598211 
L 194.66306 214.71205 
L 195.412263 215.139047 
L 196.161466 215.073462 
L 196.910669 215.12083 
L 198.409074 214.778083 
L 199.158277 214.812159 
L 199.90748 214.622343 
L 201.405885 214.744147 
L 202.155088 214.776385 
L 203.653494 214.374151 
L 204.402697 214.714146 
L 205.151899 214.666656 
L 205.901102 214.846395 
L 206.650305 214.619848 
L 208.897913 214.831396 
L 211.894725 214.936524 
L 212.643927 214.668743 
L 213.39313 214.775108 
L 214.142333 214.646557 
L 214.891536 215.045266 
L 215.640739 214.570006 
L 216.389941 214.355997 
L 217.139144 214.495015 
L 217.888347 214.841679 
L 219.386753 215.118607 
L 220.885158 214.910975 
L 221.634361 214.347133 
L 222.383564 214.353171 
L 223.132767 214.605275 
L 223.881969 215.07126 
L 224.631172 214.739503 
L 225.380375 214.652409 
L 226.129578 214.82926 
L 226.878781 215.16312 
L 227.627983 214.535714 
L 228.377186 215.420371 
L 229.126389 214.964771 
L 229.875592 214.921356 
L 230.624795 214.495837 
L 232.872403 214.956937 
L 233.621606 214.949114 
L 234.370809 214.728927 
L 235.120011 214.726815 
L 235.869214 215.354239 
L 236.618417 215.695367 
L 237.36762 215.565585 
L 238.866025 214.534892 
L 239.615228 214.815156 
L 240.364431 214.745846 
L 241.862837 214.910543 
L 244.110445 214.838678 
L 244.859648 214.9153 
L 245.608851 215.580158 
L 246.358053 215.636368 
L 247.107256 214.790422 
L 247.856459 214.662464 
L 248.605662 214.848113 
L 249.354865 214.803204 
L 250.104067 214.433334 
L 252.351676 214.119432 
L 253.100878 213.58836 
L 253.850081 213.644117 
L 254.599284 213.380932 
L 255.348487 212.791172 
L 256.09769 211.566924 
L 257.596095 207.941352 
L 258.345298 205.308927 
L 259.094501 202.173903 
L 260.592906 194.691685 
L 269.58334 145.345759 
L 273.329354 127.093457 
L 276.326165 113.666918 
L 279.322976 101.332253 
L 282.319788 90.053343 
L 285.316599 79.682747 
L 287.564207 72.571395 
L 289.811816 66.098553 
L 292.059424 60.289463 
L 294.307032 55.203225 
L 295.805438 52.244323 
L 297.303844 49.691713 
L 298.802249 47.535832 
L 300.300655 45.774588 
L 301.79906 44.375508 
L 303.297466 43.289933 
L 304.795872 42.463514 
L 306.294277 41.837708 
L 308.541885 41.175423 
L 310.789494 40.736046 
L 313.786305 40.362568 
L 318.281522 40.051455 
L 325.024347 39.834455 
L 337.760795 39.685924 
L 350.497242 39.630717 
L 350.497242 39.630717 
" clip-path="url(#p00d3610ef1)" style="fill: none; stroke-dasharray: 4.07,1.76; stroke-dashoffset: 0; stroke: #29af7f; stroke-width: 1.1"/>
   </g>
   <g id="line2d_35">
    <path d="M 295.290361 194.98859 
L 296.49767 193.908382 
L 298.111977 192.286956 
L 300.078634 190.669821 
L 302.045291 190.339195 
L 304.011949 191.321377 
L 305.978606 192.762583 
L 307.945263 192.674916 
L 309.911921 187.580527 
L 311.878578 176.944876 
L 313.845235 164.502565 
L 315.811893 152.023425 
L 317.77855 139.567298 
L 319.745207 127.478059 
L 321.711865 115.819415 
L 323.678522 104.388517 
L 325.645179 93.179868 
L 327.611837 82.327346 
L 329.578494 72.141099 
L 331.545151 63.178752 
L 333.511809 56.042476 
L 335.478466 50.904214 
L 337.445123 47.446146 
L 339.411781 45.17368 
L 341.378438 43.652694 
L 343.345095 42.591538 
L 345.311753 41.816977 
L 347.27841 41.228431 
L 349.245067 40.766035 
L 351.211725 40.392695 
L 353.178382 40.08445 
L 355.145039 39.82522 
L 357.111697 39.603834 
L 359.078354 39.412303 
L 361.045011 39.244764 
L 363.011669 39.096813 
L 364.978326 38.965079 
L 366.944983 38.846937 
L 368.911641 38.740307 
L 370.878298 38.643524 
L 372.844956 38.555235 
L 374.811613 38.474329 
L 376.77827 38.399885 
L 378.744928 38.331132 
L 380.711585 38.26742 
L 382.678242 38.208198 
L 384.6449 38.152991 
L 386.611557 38.101394 
L 388.578214 38.053053 
L 390.544872 38.00766 
L 392.511529 37.964948 
L 392.639899 37.96225 
" clip-path="url(#p00d3610ef1)" style="fill: none; stroke: #6ccd5a; stroke-width: 1.7; stroke-linecap: square"/>
   </g>
   <g id="line2d_36">
    <path d="M 97.641298 199.907823 
L 100.638109 200.070239 
L 115.622165 200.366652 
L 117.120571 200.314921 
L 119.368179 200.327006 
L 124.612599 200.324357 
L 130.606221 200.342991 
L 132.85383 200.411237 
L 134.352235 200.330472 
L 136.599844 200.406911 
L 141.09506 200.437378 
L 141.844263 200.488397 
L 144.091872 200.347077 
L 146.33948 200.419551 
L 147.837885 200.390796 
L 150.085494 200.423677 
L 155.329913 200.37492 
L 156.828319 200.418108 
L 159.82513 200.466719 
L 162.821941 200.487009 
L 164.320347 200.428908 
L 165.06955 200.402383 
L 166.567955 200.590804 
L 172.561578 200.56527 
L 175.558389 200.70767 
L 176.307592 200.625733 
L 177.805997 200.645729 
L 183.050417 200.647993 
L 183.79962 200.842891 
L 184.548823 200.910649 
L 185.298025 200.640778 
L 186.047228 200.229964 
L 186.796431 200.401626 
L 187.545634 200.809951 
L 189.044039 200.661595 
L 189.793242 200.426704 
L 192.040851 200.798689 
L 193.539256 200.508536 
L 195.037662 200.729808 
L 198.034473 200.633005 
L 199.532878 200.694346 
L 200.282081 200.554912 
L 201.780487 200.641981 
L 202.52969 200.719803 
L 204.777298 200.547221 
L 207.024906 200.698762 
L 207.774109 200.545266 
L 209.272515 200.57936 
L 210.021718 200.702324 
L 211.520123 200.535143 
L 216.01534 200.560439 
L 224.256571 200.516885 
L 225.005774 200.613743 
L 230.250193 200.495335 
L 234.74541 200.483682 
L 238.491424 200.269662 
L 239.98983 199.825462 
L 240.739032 199.480707 
L 241.488235 198.819123 
L 242.237438 197.808385 
L 242.986641 196.41632 
L 243.735844 194.491829 
L 244.485046 191.974613 
L 245.983452 185.680535 
L 248.980263 170.902358 
L 252.726277 152.711994 
L 256.472291 135.701919 
L 260.218305 119.639441 
L 263.215116 107.655053 
L 266.211927 96.477847 
L 269.208739 86.035113 
L 272.20555 76.558332 
L 274.453158 70.086888 
L 276.700767 64.202657 
L 278.948375 58.890192 
L 281.195983 54.260295 
L 282.694389 51.601662 
L 284.192795 49.295879 
L 285.6912 47.340755 
L 287.189606 45.728961 
L 288.688011 44.431818 
L 290.186417 43.41475 
L 291.684823 42.621498 
L 293.932431 41.757938 
L 296.180039 41.172923 
L 299.176851 40.669982 
L 302.922865 40.300426 
L 308.167284 40.02619 
L 317.157718 39.822773 
L 322.402137 39.76615 
L 322.402137 39.76615 
" clip-path="url(#p00d3610ef1)" style="fill: none; stroke-dasharray: 4.07,1.76; stroke-dashoffset: 0; stroke: #6ccd5a; stroke-width: 1.1"/>
   </g>
   <g id="line2d_37">
    <path d="M 295.290361 186.454489 
L 296.533507 187.198785 
L 298.195731 188.206337 
L 300.162389 186.74371 
L 302.129046 179.286042 
L 304.095703 168.135482 
L 306.062361 156.509748 
L 308.029018 144.907519 
L 309.995675 133.470891 
L 311.962333 122.563323 
L 313.92899 111.984932 
L 315.895647 101.577574 
L 317.862305 91.359113 
L 319.828962 81.439787 
L 321.795619 72.058411 
L 323.762277 63.639829 
L 325.728934 56.692592 
L 327.695591 51.482154 
L 329.662249 47.870598 
L 331.628906 45.462915 
L 333.595563 43.842709 
L 335.562221 42.709486 
L 337.528878 41.880682 
L 339.495535 41.249705 
L 341.462193 40.753034 
L 343.42885 40.351293 
L 345.395507 40.019035 
L 347.362165 39.739166 
L 349.328822 39.499802 
L 351.295479 39.292433 
L 353.262137 39.110807 
L 355.228794 38.950224 
L 357.195452 38.807081 
L 359.162109 38.678569 
L 361.128766 38.562463 
L 363.095424 38.456976 
L 365.062081 38.360658 
L 367.028738 38.272316 
L 368.995396 38.190961 
L 370.962053 38.115765 
L 372.92871 38.046027 
L 374.895368 37.981155 
L 376.862025 37.920637 
L 378.828682 37.864037 
L 380.79534 37.810973 
L 382.761997 37.761114 
L 384.728654 37.714169 
L 386.695312 37.669884 
L 388.661969 37.628032 
L 390.628626 37.588413 
L 392.595284 37.550849 
L 392.639899 37.55002 
" clip-path="url(#p00d3610ef1)" style="fill: none; stroke: #cae11f; stroke-width: 1.7; stroke-linecap: square"/>
   </g>
   <g id="line2d_38">
    <path d="M 69.546193 189.620143 
L 74.603312 189.706182 
L 78.817578 189.721401 
L 103.260319 189.66692 
L 106.631732 189.660334 
L 110.003144 189.64986 
L 123.488795 189.355512 
L 125.174501 189.272296 
L 132.760179 189.130537 
L 135.288739 189.130241 
L 208.616962 188.879489 
L 215.359788 188.881923 
L 224.631172 188.744278 
L 226.316878 188.459561 
L 227.159732 188.157957 
L 228.002585 187.661387 
L 228.845438 186.853174 
L 229.688291 185.582599 
L 230.531144 183.631939 
L 231.373997 181.076127 
L 233.059704 174.579406 
L 234.74541 166.91888 
L 238.116823 151.419193 
L 240.645382 140.291082 
L 244.859648 123.17792 
L 249.073913 107.172379 
L 253.288179 92.382682 
L 256.659592 81.649655 
L 259.188151 74.339721 
L 261.716711 67.559402 
L 264.24527 61.52253 
L 265.930976 57.891412 
L 267.616683 54.649191 
L 269.302389 51.768412 
L 270.988095 49.301228 
L 272.673802 47.238819 
L 274.359508 45.566914 
L 276.045214 44.24842 
L 277.73092 43.231192 
L 279.416627 42.452264 
L 281.102333 41.862917 
L 283.630892 41.236089 
L 287.002305 40.709862 
L 291.216571 40.334287 
L 297.116543 40.063291 
L 307.230781 39.86904 
L 322.402137 39.767889 
L 322.402137 39.767889 
" clip-path="url(#p00d3610ef1)" style="fill: none; stroke-dasharray: 4.07,1.76; stroke-dashoffset: 0; stroke: #cae11f; stroke-width: 1.1"/>
   </g>
   <g id="patch_3">
    <path d="M 51.284375 299.135625 
L 51.284375 21.935625 
" style="fill: none; stroke: #000000; stroke-width: 0.8; stroke-linejoin: miter; stroke-linecap: square"/>
   </g>
   <g id="patch_4">
    <path d="M 453.044375 299.135625 
L 453.044375 21.935625 
" style="fill: none; stroke: #000000; stroke-width: 0.8; stroke-linejoin: miter; stroke-linecap: square"/>
   </g>
   <g id="patch_5">
    <path d="M 51.284375 299.135625 
L 453.044375 299.135625 
" style="fill: none; stroke: #000000; stroke-width: 0.8; stroke-linejoin: miter; stroke-linecap: square"/>
   </g>
   <g id="patch_6">
    <path d="M 51.284375 21.935625 
L 453.044375 21.935625 
" style="fill: none; stroke: #000000; stroke-width: 0.8; stroke-linejoin: miter; stroke-linecap: square"/>
   </g>
   <g id="text_15">
    <!-- S device transfer: simulation solid / experiment dashed -->
    <g transform="translate(106.7675 15.935625) scale(0.12 -0.12)">
     <defs>
      <path id="ArialMT-53" d="M 288 1472 
L 859 1522 
Q 900 1178 1048 958 
Q 1197 738 1509 602 
Q 1822 466 2213 466 
Q 2559 466 2825 569 
Q 3091 672 3220 851 
Q 3350 1031 3350 1244 
Q 3350 1459 3225 1620 
Q 3100 1781 2813 1891 
Q 2628 1963 1997 2114 
Q 1366 2266 1113 2400 
Q 784 2572 623 2826 
Q 463 3081 463 3397 
Q 463 3744 659 4045 
Q 856 4347 1234 4503 
Q 1613 4659 2075 4659 
Q 2584 4659 2973 4495 
Q 3363 4331 3572 4012 
Q 3781 3694 3797 3291 
L 3216 3247 
Q 3169 3681 2898 3903 
Q 2628 4125 2100 4125 
Q 1550 4125 1298 3923 
Q 1047 3722 1047 3438 
Q 1047 3191 1225 3031 
Q 1400 2872 2139 2705 
Q 2878 2538 3153 2413 
Q 3553 2228 3743 1945 
Q 3934 1663 3934 1294 
Q 3934 928 3725 604 
Q 3516 281 3123 101 
Q 2731 -78 2241 -78 
Q 1619 -78 1198 103 
Q 778 284 539 648 
Q 300 1013 288 1472 
z
" transform="scale(0.015625)"/>
      <path id="ArialMT-64" d="M 2575 0 
L 2575 419 
Q 2259 -75 1647 -75 
Q 1250 -75 917 144 
Q 584 363 401 755 
Q 219 1147 219 1656 
Q 219 2153 384 2558 
Q 550 2963 881 3178 
Q 1213 3394 1622 3394 
Q 1922 3394 2156 3267 
Q 2391 3141 2538 2938 
L 2538 4581 
L 3097 4581 
L 3097 0 
L 2575 0 
z
M 797 1656 
Q 797 1019 1065 703 
Q 1334 388 1700 388 
Q 2069 388 2326 689 
Q 2584 991 2584 1609 
Q 2584 2291 2321 2609 
Q 2059 2928 1675 2928 
Q 1300 2928 1048 2622 
Q 797 2316 797 1656 
z
" transform="scale(0.015625)"/>
      <path id="ArialMT-73" d="M 197 991 
L 753 1078 
Q 800 744 1014 566 
Q 1228 388 1613 388 
Q 2000 388 2187 545 
Q 2375 703 2375 916 
Q 2375 1106 2209 1216 
Q 2094 1291 1634 1406 
Q 1016 1563 777 1677 
Q 538 1791 414 1992 
Q 291 2194 291 2438 
Q 291 2659 392 2848 
Q 494 3038 669 3163 
Q 800 3259 1026 3326 
Q 1253 3394 1513 3394 
Q 1903 3394 2198 3281 
Q 2494 3169 2634 2976 
Q 2775 2784 2828 2463 
L 2278 2388 
Q 2241 2644 2061 2787 
Q 1881 2931 1553 2931 
Q 1166 2931 1000 2803 
Q 834 2675 834 2503 
Q 834 2394 903 2306 
Q 972 2216 1119 2156 
Q 1203 2125 1616 2013 
Q 2213 1853 2448 1751 
Q 2684 1650 2818 1456 
Q 2953 1263 2953 975 
Q 2953 694 2789 445 
Q 2625 197 2315 61 
Q 2006 -75 1616 -75 
Q 969 -75 630 194 
Q 291 463 197 991 
z
" transform="scale(0.015625)"/>
      <path id="ArialMT-66" d="M 556 0 
L 556 2881 
L 59 2881 
L 59 3319 
L 556 3319 
L 556 3672 
Q 556 4006 616 4169 
Q 697 4388 901 4523 
Q 1106 4659 1475 4659 
Q 1713 4659 2000 4603 
L 1916 4113 
Q 1741 4144 1584 4144 
Q 1328 4144 1222 4034 
Q 1116 3925 1116 3625 
L 1116 3319 
L 1763 3319 
L 1763 2881 
L 1116 2881 
L 1116 0 
L 556 0 
z
" transform="scale(0.015625)"/>
      <path id="ArialMT-3a" d="M 578 2678 
L 578 3319 
L 1219 3319 
L 1219 2678 
L 578 2678 
z
M 578 0 
L 578 641 
L 1219 641 
L 1219 0 
L 578 0 
z
" transform="scale(0.015625)"/>
      <path id="ArialMT-6d" d="M 422 0 
L 422 3319 
L 925 3319 
L 925 2853 
Q 1081 3097 1340 3245 
Q 1600 3394 1931 3394 
Q 2300 3394 2536 3241 
Q 2772 3088 2869 2813 
Q 3263 3394 3894 3394 
Q 4388 3394 4653 3120 
Q 4919 2847 4919 2278 
L 4919 0 
L 4359 0 
L 4359 2091 
Q 4359 2428 4304 2576 
Q 4250 2725 4106 2815 
Q 3963 2906 3769 2906 
Q 3419 2906 3187 2673 
Q 2956 2441 2956 1928 
L 2956 0 
L 2394 0 
L 2394 2156 
Q 2394 2531 2256 2718 
Q 2119 2906 1806 2906 
Q 1569 2906 1367 2781 
Q 1166 2656 1075 2415 
Q 984 2175 984 1722 
L 984 0 
L 422 0 
z
" transform="scale(0.015625)"/>
      <path id="ArialMT-2f" d="M 0 -78 
L 1328 4659 
L 1778 4659 
L 453 -78 
L 0 -78 
z
" transform="scale(0.015625)"/>
      <path id="ArialMT-78" d="M 47 0 
L 1259 1725 
L 138 3319 
L 841 3319 
L 1350 2541 
Q 1494 2319 1581 2169 
Q 1719 2375 1834 2534 
L 2394 3319 
L 3066 3319 
L 1919 1756 
L 3153 0 
L 2463 0 
L 1781 1031 
L 1600 1309 
L 728 0 
L 47 0 
z
" transform="scale(0.015625)"/>
      <path id="ArialMT-70" d="M 422 -1272 
L 422 3319 
L 934 3319 
L 934 2888 
Q 1116 3141 1344 3267 
Q 1572 3394 1897 3394 
Q 2322 3394 2647 3175 
Q 2972 2956 3137 2557 
Q 3303 2159 3303 1684 
Q 3303 1175 3120 767 
Q 2938 359 2589 142 
Q 2241 -75 1856 -75 
Q 1575 -75 1351 44 
Q 1128 163 984 344 
L 984 -1272 
L 422 -1272 
z
M 931 1641 
Q 931 1000 1190 694 
Q 1450 388 1819 388 
Q 2194 388 2461 705 
Q 2728 1022 2728 1688 
Q 2728 2322 2467 2637 
Q 2206 2953 1844 2953 
Q 1484 2953 1207 2617 
Q 931 2281 931 1641 
z
" transform="scale(0.015625)"/>
      <path id="ArialMT-68" d="M 422 0 
L 422 4581 
L 984 4581 
L 984 2938 
Q 1378 3394 1978 3394 
Q 2347 3394 2619 3248 
Q 2891 3103 3008 2847 
Q 3125 2591 3125 2103 
L 3125 0 
L 2563 0 
L 2563 2103 
Q 2563 2525 2380 2717 
Q 2197 2909 1863 2909 
Q 1613 2909 1392 2779 
Q 1172 2650 1078 2428 
Q 984 2206 984 1816 
L 984 0 
L 422 0 
z
" transform="scale(0.015625)"/>
     </defs>
     <use xlink:href="#ArialMT-53"/>
     <use xlink:href="#ArialMT-20" x="66.699219"/>
     <use xlink:href="#ArialMT-64" x="94.482422"/>
     <use xlink:href="#ArialMT-65" x="150.097656"/>
     <use xlink:href="#ArialMT-76" x="205.712891"/>
     <use xlink:href="#ArialMT-69" x="255.712891"/>
     <use xlink:href="#ArialMT-63" x="277.929688"/>
     <use xlink:href="#ArialMT-65" x="327.929688"/>
     <use xlink:href="#ArialMT-20" x="383.544922"/>
     <use xlink:href="#ArialMT-74" x="411.328125"/>
     <use xlink:href="#ArialMT-72" x="439.111328"/>
     <use xlink:href="#ArialMT-61" x="472.412109"/>
     <use xlink:href="#ArialMT-6e" x="528.027344"/>
     <use xlink:href="#ArialMT-73" x="583.642578"/>
     <use xlink:href="#ArialMT-66" x="633.642578"/>
     <use xlink:href="#ArialMT-65" x="661.425781"/>
     <use xlink:href="#ArialMT-72" x="717.041016"/>
     <use xlink:href="#ArialMT-3a" x="750.341797"/>
     <use xlink:href="#ArialMT-20" x="778.125"/>
     <use xlink:href="#ArialMT-73" x="805.908203"/>
     <use xlink:href="#ArialMT-69" x="855.908203"/>
     <use xlink:href="#ArialMT-6d" x="878.125"/>
     <use xlink:href="#ArialMT-75" x="961.425781"/>
     <use xlink:href="#ArialMT-6c" x="1017.041016"/>
     <use xlink:href="#ArialMT-61" x="1039.257812"/>
     <use xlink:href="#ArialMT-74" x="1094.873047"/>
     <use xlink:href="#ArialMT-69" x="1122.65625"/>
     <use xlink:href="#ArialMT-6f" x="1144.873047"/>
     <use xlink:href="#ArialMT-6e" x="1200.488281"/>
     <use xlink:href="#ArialMT-20" x="1256.103516"/>
     <use xlink:href="#ArialMT-73" x="1283.886719"/>
     <use xlink:href="#ArialMT-6f" x="1333.886719"/>
     <use xlink:href="#ArialMT-6c" x="1389.501953"/>
     <use xlink:href="#ArialMT-69" x="1411.71875"/>
     <use xlink:href="#ArialMT-64" x="1433.935547"/>
     <use xlink:href="#ArialMT-20" x="1489.550781"/>
     <use xlink:href="#ArialMT-2f" x="1517.333984"/>
     <use xlink:href="#ArialMT-20" x="1545.117188"/>
     <use xlink:href="#ArialMT-65" x="1572.900391"/>
     <use xlink:href="#ArialMT-78" x="1628.515625"/>
     <use xlink:href="#ArialMT-70" x="1678.515625"/>
     <use xlink:href="#ArialMT-65" x="1734.130859"/>
     <use xlink:href="#ArialMT-72" x="1789.746094"/>
     <use xlink:href="#ArialMT-69" x="1823.046875"/>
     <use xlink:href="#ArialMT-6d" x="1845.263672"/>
     <use xlink:href="#ArialMT-65" x="1928.564453"/>
     <use xlink:href="#ArialMT-6e" x="1984.179688"/>
     <use xlink:href="#ArialMT-74" x="2039.794922"/>
     <use xlink:href="#ArialMT-20" x="2067.578125"/>
     <use xlink:href="#ArialMT-64" x="2095.361328"/>
     <use xlink:href="#ArialMT-61" x="2150.976562"/>
     <use xlink:href="#ArialMT-73" x="2206.591797"/>
     <use xlink:href="#ArialMT-68" x="2256.591797"/>
     <use xlink:href="#ArialMT-65" x="2312.207031"/>
     <use xlink:href="#ArialMT-64" x="2367.822266"/>
    </g>
   </g>
   <g id="legend_1">
    <g id="patch_7">
     <path d="M 56.184375 96.930781 
L 185.336563 96.930781 
Q 186.736563 96.930781 186.736563 95.530781 
L 186.736563 26.835625 
Q 186.736563 25.435625 185.336563 25.435625 
L 56.184375 25.435625 
Q 54.784375 25.435625 54.784375 26.835625 
L 54.784375 95.530781 
Q 54.784375 96.930781 56.184375 96.930781 
z
" style="fill: #ffffff; opacity: 0.8; stroke: #cccccc; stroke-linejoin: miter"/>
    </g>
    <g id="line2d_39">
     <path d="M 57.584375 30.816875 
L 64.584375 30.816875 
L 71.584375 30.816875 
" style="fill: none; stroke: #471365; stroke-width: 1.7; stroke-linecap: square"/>
    </g>
    <g id="text_16">
     <!-- 0 krad sim -->
     <g transform="translate(77.184375 33.266875) scale(0.07 -0.07)">
      <defs>
       <path id="ArialMT-6b" d="M 425 0 
L 425 4581 
L 988 4581 
L 988 1969 
L 2319 3319 
L 3047 3319 
L 1778 2088 
L 3175 0 
L 2481 0 
L 1384 1697 
L 988 1316 
L 988 0 
L 425 0 
z
" transform="scale(0.015625)"/>
      </defs>
      <use xlink:href="#ArialMT-30"/>
      <use xlink:href="#ArialMT-20" x="55.615234"/>
      <use xlink:href="#ArialMT-6b" x="83.398438"/>
      <use xlink:href="#ArialMT-72" x="133.398438"/>
      <use xlink:href="#ArialMT-61" x="166.699219"/>
      <use xlink:href="#ArialMT-64" x="222.314453"/>
      <use xlink:href="#ArialMT-20" x="277.929688"/>
      <use xlink:href="#ArialMT-73" x="305.712891"/>
      <use xlink:href="#ArialMT-69" x="355.712891"/>
      <use xlink:href="#ArialMT-6d" x="377.929688"/>
     </g>
    </g>
    <g id="line2d_40">
     <path d="M 57.584375 40.739375 
L 64.584375 40.739375 
L 71.584375 40.739375 
" style="fill: none; stroke-dasharray: 4.07,1.76; stroke-dashoffset: 0; stroke: #471365; stroke-width: 1.1"/>
    </g>
    <g id="text_17">
     <!-- 0 krad exp -->
     <g transform="translate(77.184375 43.189375) scale(0.07 -0.07)">
      <use xlink:href="#ArialMT-30"/>
      <use xlink:href="#ArialMT-20" x="55.615234"/>
      <use xlink:href="#ArialMT-6b" x="83.398438"/>
      <use xlink:href="#ArialMT-72" x="133.398438"/>
      <use xlink:href="#ArialMT-61" x="166.699219"/>
      <use xlink:href="#ArialMT-64" x="222.314453"/>
      <use xlink:href="#ArialMT-20" x="277.929688"/>
      <use xlink:href="#ArialMT-65" x="305.712891"/>
      <use xlink:href="#ArialMT-78" x="361.328125"/>
      <use xlink:href="#ArialMT-70" x="411.328125"/>
     </g>
    </g>
    <g id="line2d_41">
     <path d="M 57.584375 50.641094 
L 64.584375 50.641094 
L 71.584375 50.641094 
" style="fill: none; stroke: #424186; stroke-width: 1.7; stroke-linecap: square"/>
    </g>
    <g id="text_18">
     <!-- 10 krad sim -->
     <g transform="translate(77.184375 53.091094) scale(0.07 -0.07)">
      <use xlink:href="#ArialMT-31"/>
      <use xlink:href="#ArialMT-30" x="55.615234"/>
      <use xlink:href="#ArialMT-20" x="111.230469"/>
      <use xlink:href="#ArialMT-6b" x="139.013672"/>
      <use xlink:href="#ArialMT-72" x="189.013672"/>
      <use xlink:href="#ArialMT-61" x="222.314453"/>
      <use xlink:href="#ArialMT-64" x="277.929688"/>
      <use xlink:href="#ArialMT-20" x="333.544922"/>
      <use xlink:href="#ArialMT-73" x="361.328125"/>
      <use xlink:href="#ArialMT-69" x="411.328125"/>
      <use xlink:href="#ArialMT-6d" x="433.544922"/>
     </g>
    </g>
    <g id="line2d_42">
     <path d="M 57.584375 60.563594 
L 64.584375 60.563594 
L 71.584375 60.563594 
" style="fill: none; stroke-dasharray: 4.07,1.76; stroke-dashoffset: 0; stroke: #424186; stroke-width: 1.1"/>
    </g>
    <g id="text_19">
     <!-- 10 krad exp -->
     <g transform="translate(77.184375 63.013594) scale(0.07 -0.07)">
      <use xlink:href="#ArialMT-31"/>
      <use xlink:href="#ArialMT-30" x="55.615234"/>
      <use xlink:href="#ArialMT-20" x="111.230469"/>
      <use xlink:href="#ArialMT-6b" x="139.013672"/>
      <use xlink:href="#ArialMT-72" x="189.013672"/>
      <use xlink:href="#ArialMT-61" x="222.314453"/>
      <use xlink:href="#ArialMT-64" x="277.929688"/>
      <use xlink:href="#ArialMT-20" x="333.544922"/>
      <use xlink:href="#ArialMT-65" x="361.328125"/>
      <use xlink:href="#ArialMT-78" x="416.943359"/>
      <use xlink:href="#ArialMT-70" x="466.943359"/>
     </g>
    </g>
    <g id="line2d_43">
     <path d="M 57.584375 70.465312 
L 64.584375 70.465312 
L 71.584375 70.465312 
" style="fill: none; stroke: #306a8e; stroke-width: 1.7; stroke-linecap: square"/>
    </g>
    <g id="text_20">
     <!-- 20 krad sim -->
     <g transform="translate(77.184375 72.915312) scale(0.07 -0.07)">
      <use xlink:href="#ArialMT-32"/>
      <use xlink:href="#ArialMT-30" x="55.615234"/>
      <use xlink:href="#ArialMT-20" x="111.230469"/>
      <use xlink:href="#ArialMT-6b" x="139.013672"/>
      <use xlink:href="#ArialMT-72" x="189.013672"/>
      <use xlink:href="#ArialMT-61" x="222.314453"/>
      <use xlink:href="#ArialMT-64" x="277.929688"/>
      <use xlink:href="#ArialMT-20" x="333.544922"/>
      <use xlink:href="#ArialMT-73" x="361.328125"/>
      <use xlink:href="#ArialMT-69" x="411.328125"/>
      <use xlink:href="#ArialMT-6d" x="433.544922"/>
     </g>
    </g>
    <g id="line2d_44">
     <path d="M 57.584375 80.387812 
L 64.584375 80.387812 
L 71.584375 80.387812 
" style="fill: none; stroke-dasharray: 4.07,1.76; stroke-dashoffset: 0; stroke: #306a8e; stroke-width: 1.1"/>
    </g>
    <g id="text_21">
     <!-- 20 krad exp -->
     <g transform="translate(77.184375 82.837812) scale(0.07 -0.07)">
      <use xlink:href="#ArialMT-32"/>
      <use xlink:href="#ArialMT-30" x="55.615234"/>
      <use xlink:href="#ArialMT-20" x="111.230469"/>
      <use xlink:href="#ArialMT-6b" x="139.013672"/>
      <use xlink:href="#ArialMT-72" x="189.013672"/>
      <use xlink:href="#ArialMT-61" x="222.314453"/>
      <use xlink:href="#ArialMT-64" x="277.929688"/>
      <use xlink:href="#ArialMT-20" x="333.544922"/>
      <use xlink:href="#ArialMT-65" x="361.328125"/>
      <use xlink:href="#ArialMT-78" x="416.943359"/>
      <use xlink:href="#ArialMT-70" x="466.943359"/>
     </g>
    </g>
    <g id="line2d_45">
     <path d="M 57.584375 90.289531 
L 64.584375 90.289531 
L 71.584375 90.289531 
" style="fill: none; stroke: #228d8d; stroke-width: 1.7; stroke-linecap: square"/>
    </g>
    <g id="text_22">
     <!-- 30 krad sim -->
     <g transform="translate(77.184375 92.739531) scale(0.07 -0.07)">
      <defs>
       <path id="ArialMT-33" d="M 269 1209 
L 831 1284 
Q 928 806 1161 595 
Q 1394 384 1728 384 
Q 2125 384 2398 659 
Q 2672 934 2672 1341 
Q 2672 1728 2419 1979 
Q 2166 2231 1775 2231 
Q 1616 2231 1378 2169 
L 1441 2663 
Q 1497 2656 1531 2656 
Q 1891 2656 2178 2843 
Q 2466 3031 2466 3422 
Q 2466 3731 2256 3934 
Q 2047 4138 1716 4138 
Q 1388 4138 1169 3931 
Q 950 3725 888 3313 
L 325 3413 
Q 428 3978 793 4289 
Q 1159 4600 1703 4600 
Q 2078 4600 2393 4439 
Q 2709 4278 2876 4000 
Q 3044 3722 3044 3409 
Q 3044 3113 2884 2869 
Q 2725 2625 2413 2481 
Q 2819 2388 3044 2092 
Q 3269 1797 3269 1353 
Q 3269 753 2831 336 
Q 2394 -81 1725 -81 
Q 1122 -81 723 278 
Q 325 638 269 1209 
z
" transform="scale(0.015625)"/>
      </defs>
      <use xlink:href="#ArialMT-33"/>
      <use xlink:href="#ArialMT-30" x="55.615234"/>
      <use xlink:href="#ArialMT-20" x="111.230469"/>
      <use xlink:href="#ArialMT-6b" x="139.013672"/>
      <use xlink:href="#ArialMT-72" x="189.013672"/>
      <use xlink:href="#ArialMT-61" x="222.314453"/>
      <use xlink:href="#ArialMT-64" x="277.929688"/>
      <use xlink:href="#ArialMT-20" x="333.544922"/>
      <use xlink:href="#ArialMT-73" x="361.328125"/>
      <use xlink:href="#ArialMT-69" x="411.328125"/>
      <use xlink:href="#ArialMT-6d" x="433.544922"/>
     </g>
    </g>
    <g id="line2d_46">
     <path d="M 127.760469 30.816875 
L 134.760469 30.816875 
L 141.760469 30.816875 
" style="fill: none; stroke-dasharray: 4.07,1.76; stroke-dashoffset: 0; stroke: #228d8d; stroke-width: 1.1"/>
    </g>
    <g id="text_23">
     <!-- 30 krad exp -->
     <g transform="translate(147.360469 33.266875) scale(0.07 -0.07)">
      <use xlink:href="#ArialMT-33"/>
      <use xlink:href="#ArialMT-30" x="55.615234"/>
      <use xlink:href="#ArialMT-20" x="111.230469"/>
      <use xlink:href="#ArialMT-6b" x="139.013672"/>
      <use xlink:href="#ArialMT-72" x="189.013672"/>
      <use xlink:href="#ArialMT-61" x="222.314453"/>
      <use xlink:href="#ArialMT-64" x="277.929688"/>
      <use xlink:href="#ArialMT-20" x="333.544922"/>
      <use xlink:href="#ArialMT-65" x="361.328125"/>
      <use xlink:href="#ArialMT-78" x="416.943359"/>
      <use xlink:href="#ArialMT-70" x="466.943359"/>
     </g>
    </g>
    <g id="line2d_47">
     <path d="M 127.760469 40.718594 
L 134.760469 40.718594 
L 141.760469 40.718594 
" style="fill: none; stroke: #29af7f; stroke-width: 1.7; stroke-linecap: square"/>
    </g>
    <g id="text_24">
     <!-- 40 krad sim -->
     <g transform="translate(147.360469 43.168594) scale(0.07 -0.07)">
      <use xlink:href="#ArialMT-34"/>
      <use xlink:href="#ArialMT-30" x="55.615234"/>
      <use xlink:href="#ArialMT-20" x="111.230469"/>
      <use xlink:href="#ArialMT-6b" x="139.013672"/>
      <use xlink:href="#ArialMT-72" x="189.013672"/>
      <use xlink:href="#ArialMT-61" x="222.314453"/>
      <use xlink:href="#ArialMT-64" x="277.929688"/>
      <use xlink:href="#ArialMT-20" x="333.544922"/>
      <use xlink:href="#ArialMT-73" x="361.328125"/>
      <use xlink:href="#ArialMT-69" x="411.328125"/>
      <use xlink:href="#ArialMT-6d" x="433.544922"/>
     </g>
    </g>
    <g id="line2d_48">
     <path d="M 127.760469 50.641094 
L 134.760469 50.641094 
L 141.760469 50.641094 
" style="fill: none; stroke-dasharray: 4.07,1.76; stroke-dashoffset: 0; stroke: #29af7f; stroke-width: 1.1"/>
    </g>
    <g id="text_25">
     <!-- 40 krad exp -->
     <g transform="translate(147.360469 53.091094) scale(0.07 -0.07)">
      <use xlink:href="#ArialMT-34"/>
      <use xlink:href="#ArialMT-30" x="55.615234"/>
      <use xlink:href="#ArialMT-20" x="111.230469"/>
      <use xlink:href="#ArialMT-6b" x="139.013672"/>
      <use xlink:href="#ArialMT-72" x="189.013672"/>
      <use xlink:href="#ArialMT-61" x="222.314453"/>
      <use xlink:href="#ArialMT-64" x="277.929688"/>
      <use xlink:href="#ArialMT-20" x="333.544922"/>
      <use xlink:href="#ArialMT-65" x="361.328125"/>
      <use xlink:href="#ArialMT-78" x="416.943359"/>
      <use xlink:href="#ArialMT-70" x="466.943359"/>
     </g>
    </g>
    <g id="line2d_49">
     <path d="M 127.760469 60.542812 
L 134.760469 60.542812 
L 141.760469 60.542812 
" style="fill: none; stroke: #6ccd5a; stroke-width: 1.7; stroke-linecap: square"/>
    </g>
    <g id="text_26">
     <!-- 50 krad sim -->
     <g transform="translate(147.360469 62.992812) scale(0.07 -0.07)">
      <use xlink:href="#ArialMT-35"/>
      <use xlink:href="#ArialMT-30" x="55.615234"/>
      <use xlink:href="#ArialMT-20" x="111.230469"/>
      <use xlink:href="#ArialMT-6b" x="139.013672"/>
      <use xlink:href="#ArialMT-72" x="189.013672"/>
      <use xlink:href="#ArialMT-61" x="222.314453"/>
      <use xlink:href="#ArialMT-64" x="277.929688"/>
      <use xlink:href="#ArialMT-20" x="333.544922"/>
      <use xlink:href="#ArialMT-73" x="361.328125"/>
      <use xlink:href="#ArialMT-69" x="411.328125"/>
      <use xlink:href="#ArialMT-6d" x="433.544922"/>
     </g>
    </g>
    <g id="line2d_50">
     <path d="M 127.760469 70.465312 
L 134.760469 70.465312 
L 141.760469 70.465312 
" style="fill: none; stroke-dasharray: 4.07,1.76; stroke-dashoffset: 0; stroke: #6ccd5a; stroke-width: 1.1"/>
    </g>
    <g id="text_27">
     <!-- 50 krad exp -->
     <g transform="translate(147.360469 72.915312) scale(0.07 -0.07)">
      <use xlink:href="#ArialMT-35"/>
      <use xlink:href="#ArialMT-30" x="55.615234"/>
      <use xlink:href="#ArialMT-20" x="111.230469"/>
      <use xlink:href="#ArialMT-6b" x="139.013672"/>
      <use xlink:href="#ArialMT-72" x="189.013672"/>
      <use xlink:href="#ArialMT-61" x="222.314453"/>
      <use xlink:href="#ArialMT-64" x="277.929688"/>
      <use xlink:href="#ArialMT-20" x="333.544922"/>
      <use xlink:href="#ArialMT-65" x="361.328125"/>
      <use xlink:href="#ArialMT-78" x="416.943359"/>
      <use xlink:href="#ArialMT-70" x="466.943359"/>
     </g>
    </g>
    <g id="line2d_51">
     <path d="M 127.760469 80.367031 
L 134.760469 80.367031 
L 141.760469 80.367031 
" style="fill: none; stroke: #cae11f; stroke-width: 1.7; stroke-linecap: square"/>
    </g>
    <g id="text_28">
     <!-- 60 krad sim -->
     <g transform="translate(147.360469 82.817031) scale(0.07 -0.07)">
      <use xlink:href="#ArialMT-36"/>
      <use xlink:href="#ArialMT-30" x="55.615234"/>
      <use xlink:href="#ArialMT-20" x="111.230469"/>
      <use xlink:href="#ArialMT-6b" x="139.013672"/>
      <use xlink:href="#ArialMT-72" x="189.013672"/>
      <use xlink:href="#ArialMT-61" x="222.314453"/>
      <use xlink:href="#ArialMT-64" x="277.929688"/>
      <use xlink:href="#ArialMT-20" x="333.544922"/>
      <use xlink:href="#ArialMT-73" x="361.328125"/>
      <use xlink:href="#ArialMT-69" x="411.328125"/>
      <use xlink:href="#ArialMT-6d" x="433.544922"/>
     </g>
    </g>
    <g id="line2d_52">
     <path d="M 127.760469 90.289531 
L 134.760469 90.289531 
L 141.760469 90.289531 
" style="fill: none; stroke-dasharray: 4.07,1.76; stroke-dashoffset: 0; stroke: #cae11f; stroke-width: 1.1"/>
    </g>
    <g id="text_29">
     <!-- 60 krad exp -->
     <g transform="translate(147.360469 92.739531) scale(0.07 -0.07)">
      <use xlink:href="#ArialMT-36"/>
      <use xlink:href="#ArialMT-30" x="55.615234"/>
      <use xlink:href="#ArialMT-20" x="111.230469"/>
      <use xlink:href="#ArialMT-6b" x="139.013672"/>
      <use xlink:href="#ArialMT-72" x="189.013672"/>
      <use xlink:href="#ArialMT-61" x="222.314453"/>
      <use xlink:href="#ArialMT-64" x="277.929688"/>
      <use xlink:href="#ArialMT-20" x="333.544922"/>
      <use xlink:href="#ArialMT-65" x="361.328125"/>
      <use xlink:href="#ArialMT-78" x="416.943359"/>
      <use xlink:href="#ArialMT-70" x="466.943359"/>
     </g>
    </g>
   </g>
  </g>
 </g>
 <defs>
  <clipPath id="p00d3610ef1">
   <rect x="51.284375" y="21.935625" width="401.76" height="277.2"/>
  </clipPath>
 </defs>
</svg>
