<?xml version="1.0" encoding="utf-8" standalone="no"?>
<!DOCTYPE svg PUBLIC "-//W3C//DTD SVG 1.1//EN"
  "http://www.w3.org/Graphics/SVG/1.1/DTD/svg11.dtd">
<svg xmlns:xlink="http://www.w3.org/1999/xlink" width="682.759636pt" height="322.327989pt" viewBox="0 0 682.759636 322.327989" xmlns="http://www.w3.org/2000/svg" version="1.1">
 <metadata>
  <rdf:RDF xmlns:dc="http://purl.org/dc/elements/1.1/" xmlns:cc="http://creativecommons.org/ns#" xmlns:rdf="http://www.w3.org/1999/02/22-rdf-syntax-ns#">
   <cc:Work>
    <dc:type rdf:resource="http://purl.org/dc/dcmitype/StillImage"/>
    <dc:date>2026-07-22T19:01:09.374065</dc:date>
    <dc:format>image/svg+xml</dc:format>
    <dc:creator>
     <cc:Agent>
      <dc:title>Matplotlib v3.9.2, https://matplotlib.org/</dc:title>
     </cc:Agent>
    </dc:creator>
   </cc:Work>
  </rdf:RDF>
 </metadata>
 <defs>
  <style type="text/css">*{stroke-linejoin: round; stroke-linecap: butt}</style>
 </defs>
 <g id="figure_1">
  <g id="patch_1">
   <path d="M 0 322.327989 
L 682.759636 322.327989 
L 682.759636 0 
L 0 0 
z
" style="fill: #ffffff"/>
  </g>
  <g id="axes_1">
   <g id="patch_2">
    <path d="M 46.079937 288.182896 
L 675.559636 288.182896 
L 675.559636 42.507986 
L 46.079937 42.507986 
z
" style="fill: #ffffff"/>
   </g>
   <g id="matplotlib.axis_1">
    <g id="xtick_1">
     <g id="line2d_1">
      <path d="M 46.079937 288.182896 
L 46.079937 42.507986 
" clip-path="url(#p4fa9f1fe58)" style="fill: none; stroke: #d9dee3; stroke-opacity: 0.75; stroke-width: 0.65; stroke-linecap: square"/>
     </g>
     <g id="line2d_2">
      <defs>
       <path id="m47cea34d3d" d="M 0 0 
L 0 3.5 
" style="stroke: #666666; stroke-width: 0.8"/>
      </defs>
      <g>
       <use xlink:href="#m47cea34d3d" x="46.079937" y="288.182896" style="fill: #666666; stroke: #666666; stroke-width: 0.8"/>
      </g>
     </g>
     <g id="text_1">
      <!-- 0 -->
      <g style="fill: #666666" transform="translate(43.799953 301.052302) scale(0.082 -0.082)">
       <defs>
        <path id="ArialMT-30" d="M 266 2259 
Q 266 3072 433 3567 
Q 600 4063 929 4331 
Q 1259 4600 1759 4600 
Q 2128 4600 2406 4451 
Q 2684 4303 2865 4023 
Q 3047 3744 3150 3342 
Q 3253 2941 3253 2259 
Q 3253 1453 3087 958 
Q 2922 463 2592 192 
Q 2263 -78 1759 -78 
Q 1097 -78 719 397 
Q 266 969 266 2259 
z
M 844 2259 
Q 844 1131 1108 757 
Q 1372 384 1759 384 
Q 2147 384 2411 759 
Q 2675 1134 2675 2259 
Q 2675 3391 2411 3762 
Q 2147 4134 1753 4134 
Q 1366 4134 1134 3806 
Q 844 3388 844 2259 
z
" transform="scale(0.015625)"/>
       </defs>
       <use xlink:href="#ArialMT-30"/>
      </g>
     </g>
    </g>
    <g id="xtick_2">
     <g id="line2d_3">
      <path d="M 130.010564 288.182896 
L 130.010564 42.507986 
" clip-path="url(#p4fa9f1fe58)" style="fill: none; stroke: #d9dee3; stroke-opacity: 0.75; stroke-width: 0.65; stroke-linecap: square"/>
     </g>
     <g id="line2d_4">
      <g>
       <use xlink:href="#m47cea34d3d" x="130.010564" y="288.182896" style="fill: #666666; stroke: #666666; stroke-width: 0.8"/>
      </g>
     </g>
     <g id="text_2">
      <!-- 20 -->
      <g style="fill: #666666" transform="translate(125.450595 301.052302) scale(0.082 -0.082)">
       <defs>
        <path id="ArialMT-32" d="M 3222 541 
L 3222 0 
L 194 0 
Q 188 203 259 391 
Q 375 700 629 1000 
Q 884 1300 1366 1694 
Q 2113 2306 2375 2664 
Q 2638 3022 2638 3341 
Q 2638 3675 2398 3904 
Q 2159 4134 1775 4134 
Q 1369 4134 1125 3890 
Q 881 3647 878 3216 
L 300 3275 
Q 359 3922 746 4261 
Q 1134 4600 1788 4600 
Q 2447 4600 2831 4234 
Q 3216 3869 3216 3328 
Q 3216 3053 3103 2787 
Q 2991 2522 2730 2228 
Q 2469 1934 1863 1422 
Q 1356 997 1212 845 
Q 1069 694 975 541 
L 3222 541 
z
" transform="scale(0.015625)"/>
       </defs>
       <use xlink:href="#ArialMT-32"/>
       <use xlink:href="#ArialMT-30" x="55.615234"/>
      </g>
     </g>
    </g>
    <g id="xtick_3">
     <g id="line2d_5">
      <path d="M 213.94119 288.182896 
L 213.94119 42.507986 
" clip-path="url(#p4fa9f1fe58)" style="fill: none; stroke: #d9dee3; stroke-opacity: 0.75; stroke-width: 0.65; stroke-linecap: square"/>
     </g>
     <g id="line2d_6">
      <g>
       <use xlink:href="#m47cea34d3d" x="213.94119" y="288.182896" style="fill: #666666; stroke: #666666; stroke-width: 0.8"/>
      </g>
     </g>
     <g id="text_3">
      <!-- 40 -->
      <g style="fill: #666666" transform="translate(209.381222 301.052302) scale(0.082 -0.082)">
       <defs>
        <path id="ArialMT-34" d="M 2069 0 
L 2069 1097 
L 81 1097 
L 81 1613 
L 2172 4581 
L 2631 4581 
L 2631 1613 
L 3250 1613 
L 3250 1097 
L 2631 1097 
L 2631 0 
L 2069 0 
z
M 2069 1613 
L 2069 3678 
L 634 1613 
L 2069 1613 
z
" transform="scale(0.015625)"/>
       </defs>
       <use xlink:href="#ArialMT-34"/>
       <use xlink:href="#ArialMT-30" x="55.615234"/>
      </g>
     </g>
    </g>
    <g id="xtick_4">
     <g id="line2d_7">
      <path d="M 297.871817 288.182896 
L 297.871817 42.507986 
" clip-path="url(#p4fa9f1fe58)" style="fill: none; stroke: #d9dee3; stroke-opacity: 0.75; stroke-width: 0.65; stroke-linecap: square"/>
     </g>
     <g id="line2d_8">
      <g>
       <use xlink:href="#m47cea34d3d" x="297.871817" y="288.182896" style="fill: #666666; stroke: #666666; stroke-width: 0.8"/>
      </g>
     </g>
     <g id="text_4">
      <!-- 60 -->
      <g style="fill: #666666" transform="translate(293.311848 301.052302) scale(0.082 -0.082)">
       <defs>
        <path id="ArialMT-36" d="M 3184 3459 
L 2625 3416 
Q 2550 3747 2413 3897 
Q 2184 4138 1850 4138 
Q 1581 4138 1378 3988 
Q 1113 3794 959 3422 
Q 806 3050 800 2363 
Q 1003 2672 1297 2822 
Q 1591 2972 1913 2972 
Q 2475 2972 2870 2558 
Q 3266 2144 3266 1488 
Q 3266 1056 3080 686 
Q 2894 316 2569 119 
Q 2244 -78 1831 -78 
Q 1128 -78 684 439 
Q 241 956 241 2144 
Q 241 3472 731 4075 
Q 1159 4600 1884 4600 
Q 2425 4600 2770 4297 
Q 3116 3994 3184 3459 
z
M 888 1484 
Q 888 1194 1011 928 
Q 1134 663 1356 523 
Q 1578 384 1822 384 
Q 2178 384 2434 671 
Q 2691 959 2691 1453 
Q 2691 1928 2437 2201 
Q 2184 2475 1800 2475 
Q 1419 2475 1153 2201 
Q 888 1928 888 1484 
z
" transform="scale(0.015625)"/>
       </defs>
       <use xlink:href="#ArialMT-36"/>
       <use xlink:href="#ArialMT-30" x="55.615234"/>
      </g>
     </g>
    </g>
    <g id="xtick_5">
     <g id="line2d_9">
      <path d="M 381.802443 288.182896 
L 381.802443 42.507986 
" clip-path="url(#p4fa9f1fe58)" style="fill: none; stroke: #d9dee3; stroke-opacity: 0.75; stroke-width: 0.65; stroke-linecap: square"/>
     </g>
     <g id="line2d_10">
      <g>
       <use xlink:href="#m47cea34d3d" x="381.802443" y="288.182896" style="fill: #666666; stroke: #666666; stroke-width: 0.8"/>
      </g>
     </g>
     <g id="text_5">
      <!-- 80 -->
      <g style="fill: #666666" transform="translate(377.242475 301.052302) scale(0.082 -0.082)">
       <defs>
        <path id="ArialMT-38" d="M 1131 2484 
Q 781 2613 612 2850 
Q 444 3088 444 3419 
Q 444 3919 803 4259 
Q 1163 4600 1759 4600 
Q 2359 4600 2725 4251 
Q 3091 3903 3091 3403 
Q 3091 3084 2923 2848 
Q 2756 2613 2416 2484 
Q 2838 2347 3058 2040 
Q 3278 1734 3278 1309 
Q 3278 722 2862 322 
Q 2447 -78 1769 -78 
Q 1091 -78 675 323 
Q 259 725 259 1325 
Q 259 1772 486 2073 
Q 713 2375 1131 2484 
z
M 1019 3438 
Q 1019 3113 1228 2906 
Q 1438 2700 1772 2700 
Q 2097 2700 2305 2904 
Q 2513 3109 2513 3406 
Q 2513 3716 2298 3927 
Q 2084 4138 1766 4138 
Q 1444 4138 1231 3931 
Q 1019 3725 1019 3438 
z
M 838 1322 
Q 838 1081 952 856 
Q 1066 631 1291 507 
Q 1516 384 1775 384 
Q 2178 384 2440 643 
Q 2703 903 2703 1303 
Q 2703 1709 2433 1975 
Q 2163 2241 1756 2241 
Q 1359 2241 1098 1978 
Q 838 1716 838 1322 
z
" transform="scale(0.015625)"/>
       </defs>
       <use xlink:href="#ArialMT-38"/>
       <use xlink:href="#ArialMT-30" x="55.615234"/>
      </g>
     </g>
    </g>
    <g id="xtick_6">
     <g id="line2d_11">
      <path d="M 465.73307 288.182896 
L 465.73307 42.507986 
" clip-path="url(#p4fa9f1fe58)" style="fill: none; stroke: #d9dee3; stroke-opacity: 0.75; stroke-width: 0.65; stroke-linecap: square"/>
     </g>
     <g id="line2d_12">
      <g>
       <use xlink:href="#m47cea34d3d" x="465.73307" y="288.182896" style="fill: #666666; stroke: #666666; stroke-width: 0.8"/>
      </g>
     </g>
     <g id="text_6">
      <!-- 100 -->
      <g style="fill: #666666" transform="translate(458.893117 301.052302) scale(0.082 -0.082)">
       <defs>
        <path id="ArialMT-31" d="M 2384 0 
L 1822 0 
L 1822 3584 
Q 1619 3391 1289 3197 
Q 959 3003 697 2906 
L 697 3450 
Q 1169 3672 1522 3987 
Q 1875 4303 2022 4600 
L 2384 4600 
L 2384 0 
z
" transform="scale(0.015625)"/>
       </defs>
       <use xlink:href="#ArialMT-31"/>
       <use xlink:href="#ArialMT-30" x="55.615234"/>
       <use xlink:href="#ArialMT-30" x="111.230469"/>
      </g>
     </g>
    </g>
    <g id="xtick_7">
     <g id="line2d_13">
      <path d="M 549.663696 288.182896 
L 549.663696 42.507986 
" clip-path="url(#p4fa9f1fe58)" style="fill: none; stroke: #d9dee3; stroke-opacity: 0.75; stroke-width: 0.65; stroke-linecap: square"/>
     </g>
     <g id="line2d_14">
      <g>
       <use xlink:href="#m47cea34d3d" x="549.663696" y="288.182896" style="fill: #666666; stroke: #666666; stroke-width: 0.8"/>
      </g>
     </g>
     <g id="text_7">
      <!-- 120 -->
      <g style="fill: #666666" transform="translate(542.823743 301.052302) scale(0.082 -0.082)">
       <use xlink:href="#ArialMT-31"/>
       <use xlink:href="#ArialMT-32" x="55.615234"/>
       <use xlink:href="#ArialMT-30" x="111.230469"/>
      </g>
     </g>
    </g>
    <g id="xtick_8">
     <g id="line2d_15">
      <path d="M 633.594323 288.182896 
L 633.594323 42.507986 
" clip-path="url(#p4fa9f1fe58)" style="fill: none; stroke: #d9dee3; stroke-opacity: 0.75; stroke-width: 0.65; stroke-linecap: square"/>
     </g>
     <g id="line2d_16">
      <g>
       <use xlink:href="#m47cea34d3d" x="633.594323" y="288.182896" style="fill: #666666; stroke: #666666; stroke-width: 0.8"/>
      </g>
     </g>
     <g id="text_8">
      <!-- 140 -->
      <g style="fill: #666666" transform="translate(626.75437 301.052302) scale(0.082 -0.082)">
       <use xlink:href="#ArialMT-31"/>
       <use xlink:href="#ArialMT-34" x="55.615234"/>
       <use xlink:href="#ArialMT-30" x="111.230469"/>
      </g>
     </g>
    </g>
    <g id="text_9">
     <!-- Drain voltage, VDS (V) -->
     <g style="fill: #666666" transform="translate(315.305099 313.233771) scale(0.09 -0.09)">
      <defs>
       <path id="ArialMT-44" d="M 494 0 
L 494 4581 
L 2072 4581 
Q 2606 4581 2888 4516 
Q 3281 4425 3559 4188 
Q 3922 3881 4101 3404 
Q 4281 2928 4281 2316 
Q 4281 1794 4159 1391 
Q 4038 988 3847 723 
Q 3656 459 3429 307 
Q 3203 156 2883 78 
Q 2563 0 2147 0 
L 494 0 
z
M 1100 541 
L 2078 541 
Q 2531 541 2789 625 
Q 3047 709 3200 863 
Q 3416 1078 3536 1442 
Q 3656 1806 3656 2325 
Q 3656 3044 3420 3430 
Q 3184 3816 2847 3947 
Q 2603 4041 2063 4041 
L 1100 4041 
L 1100 541 
z
" transform="scale(0.015625)"/>
       <path id="ArialMT-72" d="M 416 0 
L 416 3319 
L 922 3319 
L 922 2816 
Q 1116 3169 1280 3281 
Q 1444 3394 1641 3394 
Q 1925 3394 2219 3213 
L 2025 2691 
Q 1819 2813 1613 2813 
Q 1428 2813 1281 2702 
Q 1134 2591 1072 2394 
Q 978 2094 978 1738 
L 978 0 
L 416 0 
z
" transform="scale(0.015625)"/>
       <path id="ArialMT-61" d="M 2588 409 
Q 2275 144 1986 34 
Q 1697 -75 1366 -75 
Q 819 -75 525 192 
Q 231 459 231 875 
Q 231 1119 342 1320 
Q 453 1522 633 1644 
Q 813 1766 1038 1828 
Q 1203 1872 1538 1913 
Q 2219 1994 2541 2106 
Q 2544 2222 2544 2253 
Q 2544 2597 2384 2738 
Q 2169 2928 1744 2928 
Q 1347 2928 1158 2789 
Q 969 2650 878 2297 
L 328 2372 
Q 403 2725 575 2942 
Q 747 3159 1072 3276 
Q 1397 3394 1825 3394 
Q 2250 3394 2515 3294 
Q 2781 3194 2906 3042 
Q 3031 2891 3081 2659 
Q 3109 2516 3109 2141 
L 3109 1391 
Q 3109 606 3145 398 
Q 3181 191 3288 0 
L 2700 0 
Q 2613 175 2588 409 
z
M 2541 1666 
Q 2234 1541 1622 1453 
Q 1275 1403 1131 1340 
Q 988 1278 909 1158 
Q 831 1038 831 891 
Q 831 666 1001 516 
Q 1172 366 1500 366 
Q 1825 366 2078 508 
Q 2331 650 2450 897 
Q 2541 1088 2541 1459 
L 2541 1666 
z
" transform="scale(0.015625)"/>
       <path id="ArialMT-69" d="M 425 3934 
L 425 4581 
L 988 4581 
L 988 3934 
L 425 3934 
z
M 425 0 
L 425 3319 
L 988 3319 
L 988 0 
L 425 0 
z
" transform="scale(0.015625)"/>
       <path id="ArialMT-6e" d="M 422 0 
L 422 3319 
L 928 3319 
L 928 2847 
Q 1294 3394 1984 3394 
Q 2284 3394 2536 3286 
Q 2788 3178 2913 3003 
Q 3038 2828 3088 2588 
Q 3119 2431 3119 2041 
L 3119 0 
L 2556 0 
L 2556 2019 
Q 2556 2363 2490 2533 
Q 2425 2703 2258 2804 
Q 2091 2906 1866 2906 
Q 1506 2906 1245 2678 
Q 984 2450 984 1813 
L 984 0 
L 422 0 
z
" transform="scale(0.015625)"/>
       <path id="ArialMT-20" transform="scale(0.015625)"/>
       <path id="ArialMT-76" d="M 1344 0 
L 81 3319 
L 675 3319 
L 1388 1331 
Q 1503 1009 1600 663 
Q 1675 925 1809 1294 
L 2547 3319 
L 3125 3319 
L 1869 0 
L 1344 0 
z
" transform="scale(0.015625)"/>
       <path id="ArialMT-6f" d="M 213 1659 
Q 213 2581 725 3025 
Q 1153 3394 1769 3394 
Q 2453 3394 2887 2945 
Q 3322 2497 3322 1706 
Q 3322 1066 3130 698 
Q 2938 331 2570 128 
Q 2203 -75 1769 -75 
Q 1072 -75 642 372 
Q 213 819 213 1659 
z
M 791 1659 
Q 791 1022 1069 705 
Q 1347 388 1769 388 
Q 2188 388 2466 706 
Q 2744 1025 2744 1678 
Q 2744 2294 2464 2611 
Q 2184 2928 1769 2928 
Q 1347 2928 1069 2612 
Q 791 2297 791 1659 
z
" transform="scale(0.015625)"/>
       <path id="ArialMT-6c" d="M 409 0 
L 409 4581 
L 972 4581 
L 972 0 
L 409 0 
z
" transform="scale(0.015625)"/>
       <path id="ArialMT-74" d="M 1650 503 
L 1731 6 
Q 1494 -44 1306 -44 
Q 1000 -44 831 53 
Q 663 150 594 308 
Q 525 466 525 972 
L 525 2881 
L 113 2881 
L 113 3319 
L 525 3319 
L 525 4141 
L 1084 4478 
L 1084 3319 
L 1650 3319 
L 1650 2881 
L 1084 2881 
L 1084 941 
Q 1084 700 1114 631 
Q 1144 563 1211 522 
Q 1278 481 1403 481 
Q 1497 481 1650 503 
z
" transform="scale(0.015625)"/>
       <path id="ArialMT-67" d="M 319 -275 
L 866 -356 
Q 900 -609 1056 -725 
Q 1266 -881 1628 -881 
Q 2019 -881 2231 -725 
Q 2444 -569 2519 -288 
Q 2563 -116 2559 434 
Q 2191 0 1641 0 
Q 956 0 581 494 
Q 206 988 206 1678 
Q 206 2153 378 2554 
Q 550 2956 876 3175 
Q 1203 3394 1644 3394 
Q 2231 3394 2613 2919 
L 2613 3319 
L 3131 3319 
L 3131 450 
Q 3131 -325 2973 -648 
Q 2816 -972 2473 -1159 
Q 2131 -1347 1631 -1347 
Q 1038 -1347 672 -1080 
Q 306 -813 319 -275 
z
M 784 1719 
Q 784 1066 1043 766 
Q 1303 466 1694 466 
Q 2081 466 2343 764 
Q 2606 1063 2606 1700 
Q 2606 2309 2336 2618 
Q 2066 2928 1684 2928 
Q 1309 2928 1046 2623 
Q 784 2319 784 1719 
z
" transform="scale(0.015625)"/>
       <path id="ArialMT-65" d="M 2694 1069 
L 3275 997 
Q 3138 488 2766 206 
Q 2394 -75 1816 -75 
Q 1088 -75 661 373 
Q 234 822 234 1631 
Q 234 2469 665 2931 
Q 1097 3394 1784 3394 
Q 2450 3394 2872 2941 
Q 3294 2488 3294 1666 
Q 3294 1616 3291 1516 
L 816 1516 
Q 847 969 1125 678 
Q 1403 388 1819 388 
Q 2128 388 2347 550 
Q 2566 713 2694 1069 
z
M 847 1978 
L 2700 1978 
Q 2663 2397 2488 2606 
Q 2219 2931 1791 2931 
Q 1403 2931 1139 2672 
Q 875 2413 847 1978 
z
" transform="scale(0.015625)"/>
       <path id="ArialMT-2c" d="M 569 0 
L 569 641 
L 1209 641 
L 1209 0 
Q 1209 -353 1084 -570 
Q 959 -788 688 -906 
L 531 -666 
Q 709 -588 793 -436 
Q 878 -284 888 0 
L 569 0 
z
" transform="scale(0.015625)"/>
       <path id="ArialMT-56" d="M 1803 0 
L 28 4581 
L 684 4581 
L 1875 1253 
Q 2019 853 2116 503 
Q 2222 878 2363 1253 
L 3600 4581 
L 4219 4581 
L 2425 0 
L 1803 0 
z
" transform="scale(0.015625)"/>
       <path id="ArialMT-53" d="M 288 1472 
L 859 1522 
Q 900 1178 1048 958 
Q 1197 738 1509 602 
Q 1822 466 2213 466 
Q 2559 466 2825 569 
Q 3091 672 3220 851 
Q 3350 1031 3350 1244 
Q 3350 1459 3225 1620 
Q 3100 1781 2813 1891 
Q 2628 1963 1997 2114 
Q 1366 2266 1113 2400 
Q 784 2572 623 2826 
Q 463 3081 463 3397 
Q 463 3744 659 4045 
Q 856 4347 1234 4503 
Q 1613 4659 2075 4659 
Q 2584 4659 2973 4495 
Q 3363 4331 3572 4012 
Q 3781 3694 3797 3291 
L 3216 3247 
Q 3169 3681 2898 3903 
Q 2628 4125 2100 4125 
Q 1550 4125 1298 3923 
Q 1047 3722 1047 3438 
Q 1047 3191 1225 3031 
Q 1400 2872 2139 2705 
Q 2878 2538 3153 2413 
Q 3553 2228 3743 1945 
Q 3934 1663 3934 1294 
Q 3934 928 3725 604 
Q 3516 281 3123 101 
Q 2731 -78 2241 -78 
Q 1619 -78 1198 103 
Q 778 284 539 648 
Q 300 1013 288 1472 
z
" transform="scale(0.015625)"/>
       <path id="ArialMT-28" d="M 1497 -1347 
Q 1031 -759 709 28 
Q 388 816 388 1659 
Q 388 2403 628 3084 
Q 909 3875 1497 4659 
L 1900 4659 
Q 1522 4009 1400 3731 
Q 1209 3300 1100 2831 
Q 966 2247 966 1656 
Q 966 153 1900 -1347 
L 1497 -1347 
z
" transform="scale(0.015625)"/>
       <path id="ArialMT-29" d="M 791 -1347 
L 388 -1347 
Q 1322 153 1322 1656 
Q 1322 2244 1188 2822 
Q 1081 3291 891 3722 
Q 769 4003 388 4659 
L 791 4659 
Q 1378 3875 1659 3084 
Q 1900 2403 1900 1659 
Q 1900 816 1576 28 
Q 1253 -759 791 -1347 
z
" transform="scale(0.015625)"/>
      </defs>
      <use xlink:href="#ArialMT-44"/>
      <use xlink:href="#ArialMT-72" x="72.216797"/>
      <use xlink:href="#ArialMT-61" x="105.517578"/>
      <use xlink:href="#ArialMT-69" x="161.132812"/>
      <use xlink:href="#ArialMT-6e" x="183.349609"/>
      <use xlink:href="#ArialMT-20" x="238.964844"/>
      <use xlink:href="#ArialMT-76" x="266.748047"/>
      <use xlink:href="#ArialMT-6f" x="316.748047"/>
      <use xlink:href="#ArialMT-6c" x="372.363281"/>
      <use xlink:href="#ArialMT-74" x="394.580078"/>
      <use xlink:href="#ArialMT-61" x="422.363281"/>
      <use xlink:href="#ArialMT-67" x="477.978516"/>
      <use xlink:href="#ArialMT-65" x="533.59375"/>
      <use xlink:href="#ArialMT-2c" x="589.208984"/>
      <use xlink:href="#ArialMT-20" x="616.992188"/>
      <use xlink:href="#ArialMT-56" x="644.775391"/>
      <use xlink:href="#ArialMT-44" x="711.474609"/>
      <use xlink:href="#ArialMT-53" x="783.691406"/>
      <use xlink:href="#ArialMT-20" x="850.390625"/>
      <use xlink:href="#ArialMT-28" x="878.173828"/>
      <use xlink:href="#ArialMT-56" x="911.474609"/>
      <use xlink:href="#ArialMT-29" x="978.173828"/>
     </g>
    </g>
   </g>
   <g id="matplotlib.axis_2">
    <g id="ytick_1">
     <g id="line2d_17">
      <path d="M 46.079937 288.182896 
L 675.559636 288.182896 
" clip-path="url(#p4fa9f1fe58)" style="fill: none; stroke: #d9dee3; stroke-opacity: 0.75; stroke-width: 0.65; stroke-linecap: square"/>
     </g>
     <g id="line2d_18">
      <defs>
       <path id="ma89db6e3a3" d="M 0 0 
L -3.5 0 
" style="stroke: #666666; stroke-width: 0.8"/>
      </defs>
      <g>
       <use xlink:href="#ma89db6e3a3" x="46.079937" y="288.182896" style="fill: #666666; stroke: #666666; stroke-width: 0.8"/>
      </g>
     </g>
     <g id="text_10">
      <!-- $\mathdefault{10^{-13}}$ -->
      <g style="fill: #666666" transform="translate(19.645938 292.411021) scale(0.082 -0.082)">
       <defs>
        <path id="ArialMT-2212" d="M 3381 1997 
L 356 1997 
L 356 2522 
L 3381 2522 
L 3381 1997 
z
" transform="scale(0.015625)"/>
        <path id="ArialMT-33" d="M 269 1209 
L 831 1284 
Q 928 806 1161 595 
Q 1394 384 1728 384 
Q 2125 384 2398 659 
Q 2672 934 2672 1341 
Q 2672 1728 2419 1979 
Q 2166 2231 1775 2231 
Q 1616 2231 1378 2169 
L 1441 2663 
Q 1497 2656 1531 2656 
Q 1891 2656 2178 2843 
Q 2466 3031 2466 3422 
Q 2466 3731 2256 3934 
Q 2047 4138 1716 4138 
Q 1388 4138 1169 3931 
Q 950 3725 888 3313 
L 325 3413 
Q 428 3978 793 4289 
Q 1159 4600 1703 4600 
Q 2078 4600 2393 4439 
Q 2709 4278 2876 4000 
Q 3044 3722 3044 3409 
Q 3044 3113 2884 2869 
Q 2725 2625 2413 2481 
Q 2819 2388 3044 2092 
Q 3269 1797 3269 1353 
Q 3269 753 2831 336 
Q 2394 -81 1725 -81 
Q 1122 -81 723 278 
Q 325 638 269 1209 
z
" transform="scale(0.015625)"/>
       </defs>
       <use xlink:href="#ArialMT-31" transform="translate(0 0.99375)"/>
       <use xlink:href="#ArialMT-30" transform="translate(55.615234 0.99375)"/>
       <use xlink:href="#ArialMT-2212" transform="translate(112.972813 70.6875) scale(0.7)"/>
       <use xlink:href="#ArialMT-31" transform="translate(153.851719 70.6875) scale(0.7)"/>
       <use xlink:href="#ArialMT-33" transform="translate(192.782383 70.6875) scale(0.7)"/>
      </g>
     </g>
    </g>
    <g id="ytick_2">
     <g id="line2d_19">
      <path d="M 46.079937 244.704574 
L 675.559636 244.704574 
" clip-path="url(#p4fa9f1fe58)" style="fill: none; stroke: #d9dee3; stroke-opacity: 0.75; stroke-width: 0.65; stroke-linecap: square"/>
     </g>
     <g id="line2d_20">
      <g>
       <use xlink:href="#ma89db6e3a3" x="46.079937" y="244.704574" style="fill: #666666; stroke: #666666; stroke-width: 0.8"/>
      </g>
     </g>
     <g id="text_11">
      <!-- $\mathdefault{10^{-11}}$ -->
      <g style="fill: #666666" transform="translate(19.645938 248.932699) scale(0.082 -0.082)">
       <use xlink:href="#ArialMT-31" transform="translate(0 0.99375)"/>
       <use xlink:href="#ArialMT-30" transform="translate(55.615234 0.99375)"/>
       <use xlink:href="#ArialMT-2212" transform="translate(112.972813 70.6875) scale(0.7)"/>
       <use xlink:href="#ArialMT-31" transform="translate(153.851719 70.6875) scale(0.7)"/>
       <use xlink:href="#ArialMT-31" transform="translate(192.782383 70.6875) scale(0.7)"/>
      </g>
     </g>
    </g>
    <g id="ytick_3">
     <g id="line2d_21">
      <path d="M 46.079937 201.226252 
L 675.559636 201.226252 
" clip-path="url(#p4fa9f1fe58)" style="fill: none; stroke: #d9dee3; stroke-opacity: 0.75; stroke-width: 0.65; stroke-linecap: square"/>
     </g>
     <g id="line2d_22">
      <g>
       <use xlink:href="#ma89db6e3a3" x="46.079937" y="201.226252" style="fill: #666666; stroke: #666666; stroke-width: 0.8"/>
      </g>
     </g>
     <g id="text_12">
      <!-- $\mathdefault{10^{-9}}$ -->
      <g style="fill: #666666" transform="translate(22.843938 205.454377) scale(0.082 -0.082)">
       <defs>
        <path id="ArialMT-39" d="M 350 1059 
L 891 1109 
Q 959 728 1153 556 
Q 1347 384 1650 384 
Q 1909 384 2104 503 
Q 2300 622 2425 820 
Q 2550 1019 2634 1356 
Q 2719 1694 2719 2044 
Q 2719 2081 2716 2156 
Q 2547 1888 2255 1720 
Q 1963 1553 1622 1553 
Q 1053 1553 659 1965 
Q 266 2378 266 3053 
Q 266 3750 677 4175 
Q 1088 4600 1706 4600 
Q 2153 4600 2523 4359 
Q 2894 4119 3086 3673 
Q 3278 3228 3278 2384 
Q 3278 1506 3087 986 
Q 2897 466 2520 194 
Q 2144 -78 1638 -78 
Q 1100 -78 759 220 
Q 419 519 350 1059 
z
M 2653 3081 
Q 2653 3566 2395 3850 
Q 2138 4134 1775 4134 
Q 1400 4134 1122 3828 
Q 844 3522 844 3034 
Q 844 2597 1108 2323 
Q 1372 2050 1759 2050 
Q 2150 2050 2401 2323 
Q 2653 2597 2653 3081 
z
" transform="scale(0.015625)"/>
       </defs>
       <use xlink:href="#ArialMT-31" transform="translate(0 0.99375)"/>
       <use xlink:href="#ArialMT-30" transform="translate(55.615234 0.99375)"/>
       <use xlink:href="#ArialMT-2212" transform="translate(112.972813 70.6875) scale(0.7)"/>
       <use xlink:href="#ArialMT-39" transform="translate(153.851719 70.6875) scale(0.7)"/>
      </g>
     </g>
    </g>
    <g id="ytick_4">
     <g id="line2d_23">
      <path d="M 46.079937 157.74793 
L 675.559636 157.74793 
" clip-path="url(#p4fa9f1fe58)" style="fill: none; stroke: #d9dee3; stroke-opacity: 0.75; stroke-width: 0.65; stroke-linecap: square"/>
     </g>
     <g id="line2d_24">
      <g>
       <use xlink:href="#ma89db6e3a3" x="46.079937" y="157.74793" style="fill: #666666; stroke: #666666; stroke-width: 0.8"/>
      </g>
     </g>
     <g id="text_13">
      <!-- $\mathdefault{10^{-7}}$ -->
      <g style="fill: #666666" transform="translate(22.843938 161.935055) scale(0.082 -0.082)">
       <defs>
        <path id="ArialMT-37" d="M 303 3981 
L 303 4522 
L 3269 4522 
L 3269 4084 
Q 2831 3619 2401 2847 
Q 1972 2075 1738 1259 
Q 1569 684 1522 0 
L 944 0 
Q 953 541 1156 1306 
Q 1359 2072 1739 2783 
Q 2119 3494 2547 3981 
L 303 3981 
z
" transform="scale(0.015625)"/>
       </defs>
       <use xlink:href="#ArialMT-31" transform="translate(0 0.846875)"/>
       <use xlink:href="#ArialMT-30" transform="translate(55.615234 0.846875)"/>
       <use xlink:href="#ArialMT-2212" transform="translate(112.972813 70.540625) scale(0.7)"/>
       <use xlink:href="#ArialMT-37" transform="translate(153.851719 70.540625) scale(0.7)"/>
      </g>
     </g>
    </g>
    <g id="ytick_5">
     <g id="line2d_25">
      <path d="M 46.079937 114.269608 
L 675.559636 114.269608 
" clip-path="url(#p4fa9f1fe58)" style="fill: none; stroke: #d9dee3; stroke-opacity: 0.75; stroke-width: 0.65; stroke-linecap: square"/>
     </g>
     <g id="line2d_26">
      <g>
       <use xlink:href="#ma89db6e3a3" x="46.079937" y="114.269608" style="fill: #666666; stroke: #666666; stroke-width: 0.8"/>
      </g>
     </g>
     <g id="text_14">
      <!-- $\mathdefault{10^{-5}}$ -->
      <g style="fill: #666666" transform="translate(22.843938 118.456733) scale(0.082 -0.082)">
       <defs>
        <path id="ArialMT-35" d="M 266 1200 
L 856 1250 
Q 922 819 1161 601 
Q 1400 384 1738 384 
Q 2144 384 2425 690 
Q 2706 997 2706 1503 
Q 2706 1984 2436 2262 
Q 2166 2541 1728 2541 
Q 1456 2541 1237 2417 
Q 1019 2294 894 2097 
L 366 2166 
L 809 4519 
L 3088 4519 
L 3088 3981 
L 1259 3981 
L 1013 2750 
Q 1425 3038 1878 3038 
Q 2478 3038 2890 2622 
Q 3303 2206 3303 1553 
Q 3303 931 2941 478 
Q 2500 -78 1738 -78 
Q 1113 -78 717 272 
Q 322 622 266 1200 
z
" transform="scale(0.015625)"/>
       </defs>
       <use xlink:href="#ArialMT-31" transform="translate(0 0.879688)"/>
       <use xlink:href="#ArialMT-30" transform="translate(55.615234 0.879688)"/>
       <use xlink:href="#ArialMT-2212" transform="translate(112.972813 70.573438) scale(0.7)"/>
       <use xlink:href="#ArialMT-35" transform="translate(153.851719 70.573438) scale(0.7)"/>
      </g>
     </g>
    </g>
    <g id="ytick_6">
     <g id="line2d_27">
      <path d="M 46.079937 70.791286 
L 675.559636 70.791286 
" clip-path="url(#p4fa9f1fe58)" style="fill: none; stroke: #d9dee3; stroke-opacity: 0.75; stroke-width: 0.65; stroke-linecap: square"/>
     </g>
     <g id="line2d_28">
      <g>
       <use xlink:href="#ma89db6e3a3" x="46.079937" y="70.791286" style="fill: #666666; stroke: #666666; stroke-width: 0.8"/>
      </g>
     </g>
     <g id="text_15">
      <!-- $\mathdefault{10^{-3}}$ -->
      <g style="fill: #666666" transform="translate(22.843938 75.019411) scale(0.082 -0.082)">
       <use xlink:href="#ArialMT-31" transform="translate(0 0.99375)"/>
       <use xlink:href="#ArialMT-30" transform="translate(55.615234 0.99375)"/>
       <use xlink:href="#ArialMT-2212" transform="translate(112.972813 70.6875) scale(0.7)"/>
       <use xlink:href="#ArialMT-33" transform="translate(153.851719 70.6875) scale(0.7)"/>
      </g>
     </g>
    </g>
    <g id="text_16">
     <!-- Absolute drain current, |ID| (A) -->
     <g style="fill: #666666" transform="translate(13.751719 225.954112) rotate(-90) scale(0.09 -0.09)">
      <defs>
       <path id="ArialMT-41" d="M -9 0 
L 1750 4581 
L 2403 4581 
L 4278 0 
L 3588 0 
L 3053 1388 
L 1138 1388 
L 634 0 
L -9 0 
z
M 1313 1881 
L 2866 1881 
L 2388 3150 
Q 2169 3728 2063 4100 
Q 1975 3659 1816 3225 
L 1313 1881 
z
" transform="scale(0.015625)"/>
       <path id="ArialMT-62" d="M 941 0 
L 419 0 
L 419 4581 
L 981 4581 
L 981 2947 
Q 1338 3394 1891 3394 
Q 2197 3394 2470 3270 
Q 2744 3147 2920 2923 
Q 3097 2700 3197 2384 
Q 3297 2069 3297 1709 
Q 3297 856 2875 390 
Q 2453 -75 1863 -75 
Q 1275 -75 941 416 
L 941 0 
z
M 934 1684 
Q 934 1088 1097 822 
Q 1363 388 1816 388 
Q 2184 388 2453 708 
Q 2722 1028 2722 1663 
Q 2722 2313 2464 2622 
Q 2206 2931 1841 2931 
Q 1472 2931 1203 2611 
Q 934 2291 934 1684 
z
" transform="scale(0.015625)"/>
       <path id="ArialMT-73" d="M 197 991 
L 753 1078 
Q 800 744 1014 566 
Q 1228 388 1613 388 
Q 2000 388 2187 545 
Q 2375 703 2375 916 
Q 2375 1106 2209 1216 
Q 2094 1291 1634 1406 
Q 1016 1563 777 1677 
Q 538 1791 414 1992 
Q 291 2194 291 2438 
Q 291 2659 392 2848 
Q 494 3038 669 3163 
Q 800 3259 1026 3326 
Q 1253 3394 1513 3394 
Q 1903 3394 2198 3281 
Q 2494 3169 2634 2976 
Q 2775 2784 2828 2463 
L 2278 2388 
Q 2241 2644 2061 2787 
Q 1881 2931 1553 2931 
Q 1166 2931 1000 2803 
Q 834 2675 834 2503 
Q 834 2394 903 2306 
Q 972 2216 1119 2156 
Q 1203 2125 1616 2013 
Q 2213 1853 2448 1751 
Q 2684 1650 2818 1456 
Q 2953 1263 2953 975 
Q 2953 694 2789 445 
Q 2625 197 2315 61 
Q 2006 -75 1616 -75 
Q 969 -75 630 194 
Q 291 463 197 991 
z
" transform="scale(0.015625)"/>
       <path id="ArialMT-75" d="M 2597 0 
L 2597 488 
Q 2209 -75 1544 -75 
Q 1250 -75 995 37 
Q 741 150 617 320 
Q 494 491 444 738 
Q 409 903 409 1263 
L 409 3319 
L 972 3319 
L 972 1478 
Q 972 1038 1006 884 
Q 1059 663 1231 536 
Q 1403 409 1656 409 
Q 1909 409 2131 539 
Q 2353 669 2445 892 
Q 2538 1116 2538 1541 
L 2538 3319 
L 3100 3319 
L 3100 0 
L 2597 0 
z
" transform="scale(0.015625)"/>
       <path id="ArialMT-64" d="M 2575 0 
L 2575 419 
Q 2259 -75 1647 -75 
Q 1250 -75 917 144 
Q 584 363 401 755 
Q 219 1147 219 1656 
Q 219 2153 384 2558 
Q 550 2963 881 3178 
Q 1213 3394 1622 3394 
Q 1922 3394 2156 3267 
Q 2391 3141 2538 2938 
L 2538 4581 
L 3097 4581 
L 3097 0 
L 2575 0 
z
M 797 1656 
Q 797 1019 1065 703 
Q 1334 388 1700 388 
Q 2069 388 2326 689 
Q 2584 991 2584 1609 
Q 2584 2291 2321 2609 
Q 2059 2928 1675 2928 
Q 1300 2928 1048 2622 
Q 797 2316 797 1656 
z
" transform="scale(0.015625)"/>
       <path id="ArialMT-63" d="M 2588 1216 
L 3141 1144 
Q 3050 572 2676 248 
Q 2303 -75 1759 -75 
Q 1078 -75 664 370 
Q 250 816 250 1647 
Q 250 2184 428 2587 
Q 606 2991 970 3192 
Q 1334 3394 1763 3394 
Q 2303 3394 2647 3120 
Q 2991 2847 3088 2344 
L 2541 2259 
Q 2463 2594 2264 2762 
Q 2066 2931 1784 2931 
Q 1359 2931 1093 2626 
Q 828 2322 828 1663 
Q 828 994 1084 691 
Q 1341 388 1753 388 
Q 2084 388 2306 591 
Q 2528 794 2588 1216 
z
" transform="scale(0.015625)"/>
       <path id="ArialMT-7c" d="M 588 -1347 
L 588 4659 
L 1078 4659 
L 1078 -1347 
L 588 -1347 
z
" transform="scale(0.015625)"/>
       <path id="ArialMT-49" d="M 597 0 
L 597 4581 
L 1203 4581 
L 1203 0 
L 597 0 
z
" transform="scale(0.015625)"/>
      </defs>
      <use xlink:href="#ArialMT-41"/>
      <use xlink:href="#ArialMT-62" x="66.699219"/>
      <use xlink:href="#ArialMT-73" x="122.314453"/>
      <use xlink:href="#ArialMT-6f" x="172.314453"/>
      <use xlink:href="#ArialMT-6c" x="227.929688"/>
      <use xlink:href="#ArialMT-75" x="250.146484"/>
      <use xlink:href="#ArialMT-74" x="305.761719"/>
      <use xlink:href="#ArialMT-65" x="333.544922"/>
      <use xlink:href="#ArialMT-20" x="389.160156"/>
      <use xlink:href="#ArialMT-64" x="416.943359"/>
      <use xlink:href="#ArialMT-72" x="472.558594"/>
      <use xlink:href="#ArialMT-61" x="505.859375"/>
      <use xlink:href="#ArialMT-69" x="561.474609"/>
      <use xlink:href="#ArialMT-6e" x="583.691406"/>
      <use xlink:href="#ArialMT-20" x="639.306641"/>
      <use xlink:href="#ArialMT-63" x="667.089844"/>
      <use xlink:href="#ArialMT-75" x="717.089844"/>
      <use xlink:href="#ArialMT-72" x="772.705078"/>
      <use xlink:href="#ArialMT-72" x="806.005859"/>
      <use xlink:href="#ArialMT-65" x="839.306641"/>
      <use xlink:href="#ArialMT-6e" x="894.921875"/>
      <use xlink:href="#ArialMT-74" x="950.537109"/>
      <use xlink:href="#ArialMT-2c" x="978.320312"/>
      <use xlink:href="#ArialMT-20" x="1006.103516"/>
      <use xlink:href="#ArialMT-7c" x="1033.886719"/>
      <use xlink:href="#ArialMT-49" x="1059.863281"/>
      <use xlink:href="#ArialMT-44" x="1087.646484"/>
      <use xlink:href="#ArialMT-7c" x="1159.863281"/>
      <use xlink:href="#ArialMT-20" x="1185.839844"/>
      <use xlink:href="#ArialMT-28" x="1213.623047"/>
      <use xlink:href="#ArialMT-41" x="1246.923828"/>
      <use xlink:href="#ArialMT-29" x="1313.623047"/>
     </g>
    </g>
   </g>
   <g id="line2d_29">
    <path d="M 46.079937 249.481884 
L 50.276469 239.615763 
L 54.473 231.348135 
L 58.669531 231.117416 
L 62.866063 229.898511 
L 67.062594 228.130174 
L 71.259125 227.938347 
L 75.455657 227.258138 
L 79.652188 226.706628 
L 88.045251 224.833862 
L 100.634845 224.21513 
L 104.831376 224.390472 
L 109.027907 224.164973 
L 113.224439 223.046966 
L 117.42097 224.011613 
L 121.617501 222.6514 
L 125.814033 222.740927 
L 130.010564 222.539724 
L 138.403627 222.471063 
L 146.796689 221.500353 
L 150.993221 221.718908 
L 155.189752 221.253283 
L 159.386283 221.452467 
L 163.582815 221.06803 
L 167.779346 221.13048 
L 171.975877 220.841466 
L 176.172409 220.676612 
L 180.36894 220.252582 
L 188.762003 220.288706 
L 192.958534 219.812302 
L 197.155065 220.225578 
L 201.351596 219.829525 
L 205.548128 219.627711 
L 209.744659 219.980118 
L 213.94119 219.277142 
L 218.137722 219.849657 
L 226.530784 219.05222 
L 230.727316 219.369726 
L 239.120378 218.778402 
L 243.31691 218.915622 
L 247.513441 218.668519 
L 251.709972 218.949588 
L 255.906504 218.388175 
L 260.103035 218.597649 
L 264.299566 218.467428 
L 268.496098 218.0087 
L 276.88916 218.243775 
L 281.085692 217.841974 
L 285.282223 217.940245 
L 289.478754 218.209833 
L 293.675286 217.452111 
L 297.871817 217.895663 
L 302.068348 217.78165 
L 306.26488 217.301442 
L 310.461411 217.689588 
L 314.657942 217.398659 
L 318.854474 217.22482 
L 323.051005 217.555414 
L 327.247536 216.666072 
L 331.444068 217.46552 
L 335.640599 216.88646 
L 339.83713 216.661964 
L 344.033662 216.777703 
L 348.230193 216.519256 
L 356.623255 216.60258 
L 360.819787 216.124959 
L 365.016318 216.024583 
L 369.212849 216.364729 
L 373.409381 215.780089 
L 381.802443 215.847685 
L 385.998975 215.287976 
L 390.195506 215.787576 
L 394.392037 215.563684 
L 398.588569 215.092874 
L 402.7851 215.666644 
L 406.981631 214.944439 
L 411.178163 215.068551 
L 415.374694 214.879588 
L 419.571225 214.452306 
L 423.767757 214.925621 
L 427.964288 214.652731 
L 432.160819 196.237299 
L 436.357351 138.623612 
L 440.553882 51.987704 
L 444.750413 49.099914 
L 448.946945 49.242891 
L 453.143476 49.052223 
L 675.559636 49.052209 
L 675.559636 49.052209 
" clip-path="url(#p4fa9f1fe58)" style="fill: none; stroke: #dceaf5; stroke-width: 1.5; stroke-linecap: square"/>
   </g>
   <g id="line2d_30">
    <path d="M 46.079937 240.730295 
L 50.276469 233.15524 
L 54.473 234.01847 
L 58.669531 231.338404 
L 62.866063 228.984357 
L 67.062594 228.276643 
L 71.259125 227.710536 
L 75.455657 226.844532 
L 79.652188 226.966108 
L 83.848719 224.809486 
L 88.045251 225.750741 
L 92.241782 224.683737 
L 100.634845 224.04747 
L 104.831376 223.354904 
L 109.027907 223.018726 
L 113.224439 223.280077 
L 121.617501 222.264305 
L 125.814033 222.605027 
L 130.010564 222.219793 
L 138.403627 222.040174 
L 142.600158 221.757594 
L 146.796689 221.928275 
L 150.993221 221.243261 
L 155.189752 221.354035 
L 159.386283 221.347284 
L 163.582815 220.999488 
L 167.779346 220.983243 
L 171.975877 220.294739 
L 176.172409 220.645237 
L 180.36894 220.282675 
L 184.565471 220.207618 
L 188.762003 220.261599 
L 197.155065 219.515883 
L 201.351596 219.715295 
L 205.548128 219.613658 
L 213.94119 219.560454 
L 230.727316 218.773262 
L 234.923847 219.025796 
L 243.31691 218.452516 
L 247.513441 218.750168 
L 251.709972 218.268094 
L 255.906504 218.437629 
L 260.103035 218.297361 
L 264.299566 217.783962 
L 268.496098 218.032421 
L 272.692629 217.977951 
L 276.88916 217.288262 
L 281.085692 217.726303 
L 285.282223 217.30364 
L 289.478754 217.33447 
L 293.675286 217.664426 
L 297.871817 217.105656 
L 302.068348 217.060549 
L 306.26488 217.4298 
L 310.461411 216.75693 
L 314.657942 217.163965 
L 318.854474 216.813119 
L 323.051005 216.590338 
L 327.247536 216.802689 
L 331.444068 216.32302 
L 339.83713 216.394632 
L 344.033662 215.887341 
L 348.230193 215.974793 
L 352.426724 215.701832 
L 356.623255 215.316433 
L 360.819787 215.561855 
L 369.212849 214.884691 
L 373.409381 214.975315 
L 377.605912 214.268791 
L 385.998975 214.162579 
L 390.195506 213.500608 
L 398.588569 213.541848 
L 402.7851 212.665671 
L 406.981631 212.557328 
L 411.178163 211.847894 
L 415.374694 211.359869 
L 419.571225 211.163935 
L 423.767757 210.210849 
L 432.160819 208.770627 
L 440.553882 205.684466 
L 444.750413 202.852166 
L 448.946945 197.942705 
L 453.143476 188.954239 
L 457.340007 158.042876 
L 461.536539 110.571241 
L 465.73307 84.275092 
L 469.929601 49.052274 
L 675.559636 49.052234 
L 675.559636 49.052234 
" clip-path="url(#p4fa9f1fe58)" style="fill: none; stroke: #b7d4ea; stroke-width: 1.5; stroke-linecap: square"/>
   </g>
   <g id="line2d_31">
    <path d="M 46.079937 252.906552 
L 50.276469 238.874989 
L 54.473 232.118493 
L 58.669531 229.339577 
L 62.866063 228.490016 
L 67.062594 228.804353 
L 71.259125 226.826513 
L 75.455657 226.157514 
L 79.652188 226.090361 
L 83.848719 226.594283 
L 88.045251 225.930021 
L 92.241782 225.412671 
L 96.438313 224.451271 
L 100.634845 223.913742 
L 104.831376 223.193572 
L 109.027907 222.982597 
L 113.224439 223.124081 
L 117.42097 222.282962 
L 121.617501 222.00036 
L 125.814033 221.58998 
L 130.010564 221.638571 
L 134.207095 221.347323 
L 138.403627 221.493539 
L 142.600158 220.915349 
L 146.796689 220.635882 
L 150.993221 220.551771 
L 155.189752 220.902466 
L 159.386283 220.198685 
L 167.779346 220.186742 
L 171.975877 219.875638 
L 176.172409 220.026972 
L 180.36894 219.435661 
L 184.565471 219.763708 
L 188.762003 219.689816 
L 192.958534 218.786143 
L 197.155065 218.853266 
L 201.351596 219.099997 
L 205.548128 218.324293 
L 209.744659 218.648242 
L 213.94119 218.277865 
L 218.137722 218.40548 
L 222.334253 218.144739 
L 230.727316 217.987425 
L 234.923847 217.980338 
L 239.120378 217.22266 
L 243.31691 217.657598 
L 247.513441 216.990124 
L 251.709972 216.727945 
L 255.906504 217.349946 
L 260.103035 216.804794 
L 264.299566 216.529396 
L 281.085692 215.99393 
L 285.282223 215.607687 
L 289.478754 215.791337 
L 293.675286 215.712989 
L 297.871817 215.138228 
L 302.068348 215.259618 
L 306.26488 214.970175 
L 310.461411 215.059893 
L 314.657942 214.835484 
L 318.854474 214.356896 
L 323.051005 214.468588 
L 331.444068 213.858566 
L 335.640599 213.953682 
L 339.83713 213.663681 
L 344.033662 213.249732 
L 348.230193 213.276963 
L 352.426724 212.775278 
L 360.819787 212.363836 
L 365.016318 211.849134 
L 373.409381 211.264297 
L 377.605912 210.653608 
L 381.802443 210.315151 
L 394.392037 208.845728 
L 402.7851 207.592523 
L 406.981631 207.182575 
L 411.178163 206.320686 
L 415.374694 205.958129 
L 440.553882 201.612634 
L 453.143476 198.628328 
L 461.536539 196.029682 
L 465.73307 194.335123 
L 469.929601 192.244863 
L 474.126133 189.522404 
L 478.322664 185.23572 
L 482.519195 175.685658 
L 490.912258 62.266796 
L 495.108789 49.052204 
L 675.559636 49.052215 
L 675.559636 49.052215 
" clip-path="url(#p4fa9f1fe58)" style="fill: none; stroke: #8dbdde; stroke-width: 1.5; stroke-linecap: square"/>
   </g>
   <g id="line2d_32">
    <path d="M 46.079937 270.659853 
L 50.276469 237.036514 
L 54.473 230.772782 
L 58.669531 230.967055 
L 62.866063 229.865523 
L 67.062594 228.347484 
L 71.259125 228.635109 
L 75.455657 226.966345 
L 79.652188 226.838729 
L 83.848719 227.126784 
L 88.045251 225.990655 
L 92.241782 225.968612 
L 96.438313 225.016408 
L 100.634845 224.8487 
L 109.027907 223.447327 
L 113.224439 223.587443 
L 117.42097 223.059233 
L 125.814033 222.346598 
L 130.010564 221.687494 
L 134.207095 221.313718 
L 138.403627 221.283509 
L 142.600158 220.967132 
L 146.796689 220.960653 
L 150.993221 220.539436 
L 159.386283 220.376685 
L 163.582815 219.881475 
L 167.779346 219.66443 
L 171.975877 219.563336 
L 180.36894 218.975875 
L 184.565471 219.242062 
L 188.762003 218.582606 
L 197.155065 218.422839 
L 201.351596 217.933258 
L 205.548128 218.039618 
L 209.744659 217.994564 
L 218.137722 217.336738 
L 222.334253 217.3103 
L 226.530784 216.886517 
L 230.727316 217.142387 
L 234.923847 216.725911 
L 239.120378 216.464834 
L 243.31691 216.604674 
L 247.513441 216.040004 
L 251.709972 216.244132 
L 255.906504 215.787621 
L 260.103035 215.549109 
L 264.299566 215.615067 
L 268.496098 215.552762 
L 272.692629 215.131265 
L 276.88916 215.343234 
L 281.085692 214.70939 
L 289.478754 214.744535 
L 293.675286 214.162611 
L 297.871817 214.278396 
L 302.068348 214.009375 
L 306.26488 213.402679 
L 310.461411 213.469824 
L 318.854474 212.649563 
L 323.051005 212.60936 
L 327.247536 212.090323 
L 331.444068 211.94089 
L 335.640599 211.577938 
L 339.83713 210.794897 
L 344.033662 210.699381 
L 348.230193 210.352988 
L 352.426724 209.750322 
L 356.623255 209.605237 
L 360.819787 209.022406 
L 365.016318 208.659966 
L 369.212849 208.420981 
L 373.409381 207.919628 
L 381.802443 207.283973 
L 385.998975 206.774536 
L 390.195506 206.477934 
L 406.981631 204.681865 
L 411.178163 204.12022 
L 415.374694 203.686299 
L 419.571225 203.007091 
L 427.964288 201.915765 
L 432.160819 201.19355 
L 436.357351 200.613824 
L 448.946945 198.28543 
L 461.536539 195.283395 
L 465.73307 194.049536 
L 469.929601 192.635851 
L 474.126133 191.065411 
L 478.322664 189.098978 
L 482.519195 186.713517 
L 486.715727 183.416157 
L 490.912258 178.090566 
L 495.108789 163.992167 
L 499.305321 49.052205 
L 675.559636 49.052219 
L 675.559636 49.052219 
" clip-path="url(#p4fa9f1fe58)" style="fill: none; stroke: #5b9bd5; stroke-width: 1.5; stroke-linecap: square"/>
   </g>
   <g id="line2d_33">
    <path d="M 46.079937 257.319505 
L 50.276469 231.982941 
L 54.473 227.918573 
L 58.669531 227.645091 
L 62.866063 228.165408 
L 67.062594 226.460339 
L 71.259125 226.333614 
L 75.455657 225.580566 
L 79.652188 224.070293 
L 83.848719 224.49385 
L 88.045251 223.481263 
L 100.634845 222.482741 
L 104.831376 221.670145 
L 109.027907 221.367785 
L 113.224439 221.459531 
L 117.42097 221.24683 
L 125.814033 220.255785 
L 130.010564 220.053575 
L 134.207095 219.557842 
L 138.403627 219.772424 
L 142.600158 219.608224 
L 146.796689 218.889739 
L 150.993221 218.607894 
L 155.189752 218.552522 
L 159.386283 218.24392 
L 167.779346 217.788724 
L 184.565471 216.734245 
L 188.762003 216.748746 
L 192.958534 216.553823 
L 197.155065 216.623124 
L 201.351596 216.169799 
L 209.744659 215.879871 
L 213.94119 215.505439 
L 222.334253 215.440239 
L 226.530784 215.047833 
L 234.923847 214.971958 
L 239.120378 214.450751 
L 243.31691 214.593219 
L 247.513441 214.352127 
L 251.709972 213.975346 
L 255.906504 214.084151 
L 260.103035 213.571474 
L 264.299566 213.478646 
L 268.496098 213.256934 
L 272.692629 212.861451 
L 281.085692 212.581341 
L 285.282223 212.039848 
L 289.478754 211.932192 
L 297.871817 211.284056 
L 302.068348 211.009185 
L 310.461411 210.700485 
L 314.657942 210.12619 
L 318.854474 209.719754 
L 323.051005 209.780011 
L 327.247536 209.567379 
L 331.444068 208.896132 
L 339.83713 208.518452 
L 344.033662 208.280433 
L 352.426724 207.378782 
L 360.819787 207.170532 
L 365.016318 206.562831 
L 369.212849 206.205277 
L 373.409381 206.051128 
L 377.605912 205.625544 
L 381.802443 205.351912 
L 385.998975 204.792809 
L 390.195506 204.376142 
L 394.392037 204.120205 
L 402.7851 203.061398 
L 415.374694 201.753844 
L 419.571225 201.213906 
L 423.767757 200.525258 
L 427.964288 200.035439 
L 440.553882 198.005087 
L 453.143476 195.558602 
L 465.73307 192.428347 
L 474.126133 189.741568 
L 478.322664 188.110782 
L 482.519195 186.163497 
L 486.715727 183.793992 
L 490.912258 180.591629 
L 495.108789 175.397632 
L 499.305321 50.367404 
L 503.501852 49.052174 
L 675.559636 49.052189 
L 675.559636 49.052189 
" clip-path="url(#p4fa9f1fe58)" style="fill: none; stroke: #377faf; stroke-width: 1.5; stroke-linecap: square"/>
   </g>
   <g id="line2d_34">
    <path d="M 46.079937 258.438973 
L 50.276469 231.43696 
L 54.473 229.222837 
L 58.669531 228.909516 
L 62.866063 227.058828 
L 67.062594 226.19164 
L 71.259125 224.790404 
L 75.455657 224.78069 
L 79.652188 224.503276 
L 83.848719 224.829357 
L 88.045251 223.795203 
L 92.241782 223.468582 
L 96.438313 223.695161 
L 100.634845 222.831589 
L 104.831376 222.357993 
L 109.027907 221.698119 
L 113.224439 221.411848 
L 117.42097 220.91553 
L 121.617501 220.928432 
L 125.814033 220.085994 
L 130.010564 220.337291 
L 134.207095 219.471698 
L 138.403627 219.161503 
L 142.600158 218.978584 
L 146.796689 218.33422 
L 150.993221 218.268241 
L 155.189752 218.061106 
L 159.386283 217.589475 
L 163.582815 217.367742 
L 167.779346 217.423246 
L 171.975877 216.829948 
L 184.565471 216.47294 
L 188.762003 216.078598 
L 192.958534 216.065091 
L 197.155065 215.780182 
L 201.351596 215.666735 
L 205.548128 215.327213 
L 209.744659 215.257917 
L 213.94119 214.953084 
L 218.137722 214.415063 
L 222.334253 214.442629 
L 230.727316 213.844888 
L 239.120378 213.48598 
L 243.31691 213.151541 
L 247.513441 213.117611 
L 251.709972 212.638848 
L 255.906504 212.533464 
L 260.103035 212.26923 
L 264.299566 211.822057 
L 268.496098 211.822057 
L 281.085692 210.957403 
L 285.282223 210.771764 
L 289.478754 210.296306 
L 293.675286 210.313068 
L 297.871817 209.792903 
L 302.068348 209.496911 
L 306.26488 209.388858 
L 310.461411 208.906967 
L 314.657942 208.867298 
L 327.247536 207.993152 
L 335.640599 207.413428 
L 339.83713 207.340437 
L 344.033662 206.893493 
L 365.016318 205.419737 
L 369.212849 204.863194 
L 373.409381 204.658201 
L 381.802443 203.74938 
L 385.998975 203.512227 
L 390.195506 202.940082 
L 398.588569 202.207592 
L 402.7851 201.534895 
L 411.178163 200.658198 
L 415.374694 199.977715 
L 419.571225 199.515832 
L 427.964288 198.205956 
L 432.160819 197.570757 
L 436.357351 196.751066 
L 444.750413 195.263111 
L 457.340007 192.47119 
L 465.73307 190.247463 
L 474.126133 187.460475 
L 478.322664 185.819796 
L 482.519195 183.83821 
L 486.715727 181.43953 
L 490.912258 178.223067 
L 495.108789 172.723774 
L 499.305321 59.010959 
L 503.501852 49.052181 
L 675.559636 49.052196 
L 675.559636 49.052196 
" clip-path="url(#p4fa9f1fe58)" style="fill: none; stroke: #225f8d; stroke-width: 1.5; stroke-linecap: square"/>
   </g>
   <g id="line2d_35">
    <path d="M 46.079937 257.940005 
L 50.276469 231.57562 
L 54.473 231.397857 
L 58.669531 228.082483 
L 62.866063 227.040371 
L 67.062594 226.760888 
L 71.259125 225.908526 
L 75.455657 226.152327 
L 79.652188 225.649556 
L 83.848719 224.741987 
L 88.045251 225.136862 
L 92.241782 223.621935 
L 100.634845 223.104025 
L 104.831376 222.220093 
L 109.027907 221.835722 
L 113.224439 221.635327 
L 117.42097 220.822541 
L 121.617501 220.231797 
L 125.814033 219.884484 
L 130.010564 219.364451 
L 134.207095 219.320792 
L 138.403627 218.565098 
L 142.600158 218.405624 
L 146.796689 218.422937 
L 150.993221 217.733357 
L 159.386283 217.321387 
L 163.582815 216.988109 
L 167.779346 216.800733 
L 176.172409 216.154227 
L 180.36894 215.668596 
L 184.565471 215.549168 
L 188.762003 215.268557 
L 192.958534 215.166317 
L 201.351596 214.400512 
L 205.548128 214.449136 
L 209.744659 213.864733 
L 213.94119 213.714713 
L 218.137722 213.430391 
L 222.334253 212.977538 
L 226.530784 212.923466 
L 230.727316 212.448949 
L 234.923847 212.120775 
L 239.120378 211.938422 
L 243.31691 211.539672 
L 247.513441 211.294525 
L 251.709972 211.224976 
L 255.906504 210.740996 
L 260.103035 210.59943 
L 268.496098 210.053485 
L 272.692629 209.96616 
L 285.282223 209.169888 
L 289.478754 208.746617 
L 297.871817 208.349167 
L 302.068348 208.006283 
L 306.26488 207.798339 
L 314.657942 207.193862 
L 323.051005 206.652062 
L 327.247536 206.346814 
L 331.444068 206.193744 
L 339.83713 205.443494 
L 344.033662 205.171972 
L 348.230193 204.690514 
L 365.016318 203.221817 
L 373.409381 202.321591 
L 377.605912 202.000567 
L 390.195506 200.472965 
L 394.392037 199.832159 
L 402.7851 198.773257 
L 406.981631 198.107858 
L 411.178163 197.564497 
L 423.767757 195.453921 
L 436.357351 193.096048 
L 448.946945 190.262615 
L 457.340007 188.013136 
L 461.536539 186.770732 
L 469.929601 183.903769 
L 474.126133 182.224062 
L 478.322664 180.322082 
L 482.519195 178.080883 
L 486.715727 175.34533 
L 490.912258 171.688811 
L 495.108789 165.775544 
L 499.305321 137.020909 
L 503.501852 49.052204 
L 675.559636 49.052218 
L 675.559636 49.052218 
" clip-path="url(#p4fa9f1fe58)" style="fill: none; stroke: #13304b; stroke-width: 1.5; stroke-linecap: square"/>
   </g>
   <g id="line2d_36">
    <path d="M 171.975877 288.182896 
L 171.975877 42.507986 
" clip-path="url(#p4fa9f1fe58)" style="fill: none; stroke-dasharray: 3.33,1.44; stroke-dashoffset: 0; stroke: #7d858c; stroke-width: 0.9"/>
   </g>
   <g id="patch_3">
    <path d="M 46.079937 288.182896 
L 46.079937 42.507986 
" style="fill: none; stroke: #b9c0c7; stroke-width: 0.8; stroke-linejoin: miter; stroke-linecap: square"/>
   </g>
   <g id="patch_4">
    <path d="M 46.079937 288.182896 
L 675.559636 288.182896 
" style="fill: none; stroke: #b9c0c7; stroke-width: 0.8; stroke-linejoin: miter; stroke-linecap: square"/>
   </g>
   <g id="text_17">
    <!-- 30 V -->
    <g style="fill: #666666" transform="translate(178.270674 260.894325) scale(0.08 -0.08)">
     <use xlink:href="#ArialMT-33"/>
     <use xlink:href="#ArialMT-30" x="55.615234"/>
     <use xlink:href="#ArialMT-20" x="111.230469"/>
     <use xlink:href="#ArialMT-56" x="139.013672"/>
    </g>
   </g>
   <g id="legend_1">
    <g id="text_18">
     <!-- Dose (krad(Si)) -->
     <g style="fill: #343434" transform="translate(333.706037 16.22375) scale(0.08 -0.08)">
      <defs>
       <path id="ArialMT-6b" d="M 425 0 
L 425 4581 
L 988 4581 
L 988 1969 
L 2319 3319 
L 3047 3319 
L 1778 2088 
L 3175 0 
L 2481 0 
L 1384 1697 
L 988 1316 
L 988 0 
L 425 0 
z
" transform="scale(0.015625)"/>
      </defs>
      <use xlink:href="#ArialMT-44"/>
      <use xlink:href="#ArialMT-6f" x="72.216797"/>
      <use xlink:href="#ArialMT-73" x="127.832031"/>
      <use xlink:href="#ArialMT-65" x="177.832031"/>
      <use xlink:href="#ArialMT-20" x="233.447266"/>
      <use xlink:href="#ArialMT-28" x="261.230469"/>
      <use xlink:href="#ArialMT-6b" x="294.53125"/>
      <use xlink:href="#ArialMT-72" x="344.53125"/>
      <use xlink:href="#ArialMT-61" x="377.832031"/>
      <use xlink:href="#ArialMT-64" x="433.447266"/>
      <use xlink:href="#ArialMT-28" x="489.0625"/>
      <use xlink:href="#ArialMT-53" x="522.363281"/>
      <use xlink:href="#ArialMT-69" x="589.0625"/>
      <use xlink:href="#ArialMT-29" x="611.279297"/>
      <use xlink:href="#ArialMT-29" x="644.580078"/>
     </g>
    </g>
    <g id="line2d_37">
     <path d="M 205.502912 24.83375 
L 213.502912 24.83375 
L 221.502912 24.83375 
" style="fill: none; stroke: #dceaf5; stroke-width: 1.5; stroke-linecap: square"/>
    </g>
    <g id="text_19">
     <!-- 0 -->
     <g style="fill: #343434" transform="translate(227.902912 27.63375) scale(0.08 -0.08)">
      <use xlink:href="#ArialMT-30"/>
     </g>
    </g>
    <g id="line2d_38">
     <path d="M 248.351662 24.83375 
L 256.351662 24.83375 
L 264.351662 24.83375 
" style="fill: none; stroke: #b7d4ea; stroke-width: 1.5; stroke-linecap: square"/>
    </g>
    <g id="text_20">
     <!-- 10 -->
     <g style="fill: #343434" transform="translate(270.751662 27.63375) scale(0.08 -0.08)">
      <use xlink:href="#ArialMT-31"/>
      <use xlink:href="#ArialMT-30" x="55.615234"/>
     </g>
    </g>
    <g id="line2d_39">
     <path d="M 295.649162 24.83375 
L 303.649162 24.83375 
L 311.649162 24.83375 
" style="fill: none; stroke: #8dbdde; stroke-width: 1.5; stroke-linecap: square"/>
    </g>
    <g id="text_21">
     <!-- 20 -->
     <g style="fill: #343434" transform="translate(318.049162 27.63375) scale(0.08 -0.08)">
      <use xlink:href="#ArialMT-32"/>
      <use xlink:href="#ArialMT-30" x="55.615234"/>
     </g>
    </g>
    <g id="line2d_40">
     <path d="M 342.946662 24.83375 
L 350.946662 24.83375 
L 358.946662 24.83375 
" style="fill: none; stroke: #5b9bd5; stroke-width: 1.5; stroke-linecap: square"/>
    </g>
    <g id="text_22">
     <!-- 30 -->
     <g style="fill: #343434" transform="translate(365.346662 27.63375) scale(0.08 -0.08)">
      <use xlink:href="#ArialMT-33"/>
      <use xlink:href="#ArialMT-30" x="55.615234"/>
     </g>
    </g>
    <g id="line2d_41">
     <path d="M 390.244162 24.83375 
L 398.244162 24.83375 
L 406.244162 24.83375 
" style="fill: none; stroke: #377faf; stroke-width: 1.5; stroke-linecap: square"/>
    </g>
    <g id="text_23">
     <!-- 40 -->
     <g style="fill: #343434" transform="translate(412.644162 27.63375) scale(0.08 -0.08)">
      <use xlink:href="#ArialMT-34"/>
      <use xlink:href="#ArialMT-30" x="55.615234"/>
     </g>
    </g>
    <g id="line2d_42">
     <path d="M 437.541662 24.83375 
L 445.541662 24.83375 
L 453.541662 24.83375 
" style="fill: none; stroke: #225f8d; stroke-width: 1.5; stroke-linecap: square"/>
    </g>
    <g id="text_24">
     <!-- 50 -->
     <g style="fill: #343434" transform="translate(459.941662 27.63375) scale(0.08 -0.08)">
      <use xlink:href="#ArialMT-35"/>
      <use xlink:href="#ArialMT-30" x="55.615234"/>
     </g>
    </g>
    <g id="line2d_43">
     <path d="M 484.839162 24.83375 
L 492.839162 24.83375 
L 500.839162 24.83375 
" style="fill: none; stroke: #13304b; stroke-width: 1.5; stroke-linecap: square"/>
    </g>
    <g id="text_25">
     <!-- 60 -->
     <g style="fill: #343434" transform="translate(507.239162 27.63375) scale(0.08 -0.08)">
      <use xlink:href="#ArialMT-36"/>
      <use xlink:href="#ArialMT-30" x="55.615234"/>
     </g>
    </g>
   </g>
  </g>
 </g>
 <defs>
  <clipPath id="p4fa9f1fe58">
   <rect x="46.079937" y="42.507986" width="629.479699" height="245.67491"/>
  </clipPath>
 </defs>
</svg>
