<?xml version="1.0" encoding="utf-8" standalone="no"?>
<!DOCTYPE svg PUBLIC "-//W3C//DTD SVG 1.1//EN"
  "http://www.w3.org/Graphics/SVG/1.1/DTD/svg11.dtd">
<svg xmlns:xlink="http://www.w3.org/1999/xlink" width="682.759636pt" height="322.327989pt" viewBox="0 0 682.759636 322.327989" xmlns="http://www.w3.org/2000/svg" version="1.1">
 <metadata>
  <rdf:RDF xmlns:dc="http://purl.org/dc/elements/1.1/" xmlns:cc="http://creativecommons.org/ns#" xmlns:rdf="http://www.w3.org/1999/02/22-rdf-syntax-ns#">
   <cc:Work>
    <dc:type rdf:resource="http://purl.org/dc/dcmitype/StillImage"/>
    <dc:date>2026-07-22T19:01:07.444724</dc:date>
    <dc:format>image/svg+xml</dc:format>
    <dc:creator>
     <cc:Agent>
      <dc:title>Matplotlib v3.9.2, https://matplotlib.org/</dc:title>
     </cc:Agent>
    </dc:creator>
   </cc:Work>
  </rdf:RDF>
 </metadata>
 <defs>
  <style type="text/css">*{stroke-linejoin: round; stroke-linecap: butt}</style>
 </defs>
 <g id="figure_1">
  <g id="patch_1">
   <path d="M 0 322.327989 
L 682.759636 322.327989 
L 682.759636 0 
L 0 0 
z
" style="fill: #ffffff"/>
  </g>
  <g id="axes_1">
   <g id="patch_2">
    <path d="M 46.079937 288.182896 
L 675.559636 288.182896 
L 675.559636 42.507986 
L 46.079937 42.507986 
z
" style="fill: #ffffff"/>
   </g>
   <g id="matplotlib.axis_1">
    <g id="xtick_1">
     <g id="line2d_1">
      <path d="M 46.079937 288.182896 
L 46.079937 42.507986 
" clip-path="url(#pcc66983c48)" style="fill: none; stroke: #d9dee3; stroke-opacity: 0.75; stroke-width: 0.65; stroke-linecap: square"/>
     </g>
     <g id="line2d_2">
      <defs>
       <path id="mba08d4f3bd" d="M 0 0 
L 0 3.5 
" style="stroke: #666666; stroke-width: 0.8"/>
      </defs>
      <g>
       <use xlink:href="#mba08d4f3bd" x="46.079937" y="288.182896" style="fill: #666666; stroke: #666666; stroke-width: 0.8"/>
      </g>
     </g>
     <g id="text_1">
      <!-- 0 -->
      <g style="fill: #666666" transform="translate(43.799953 301.052302) scale(0.082 -0.082)">
       <defs>
        <path id="ArialMT-30" d="M 266 2259 
Q 266 3072 433 3567 
Q 600 4063 929 4331 
Q 1259 4600 1759 4600 
Q 2128 4600 2406 4451 
Q 2684 4303 2865 4023 
Q 3047 3744 3150 3342 
Q 3253 2941 3253 2259 
Q 3253 1453 3087 958 
Q 2922 463 2592 192 
Q 2263 -78 1759 -78 
Q 1097 -78 719 397 
Q 266 969 266 2259 
z
M 844 2259 
Q 844 1131 1108 757 
Q 1372 384 1759 384 
Q 2147 384 2411 759 
Q 2675 1134 2675 2259 
Q 2675 3391 2411 3762 
Q 2147 4134 1753 4134 
Q 1366 4134 1134 3806 
Q 844 3388 844 2259 
z
" transform="scale(0.015625)"/>
       </defs>
       <use xlink:href="#ArialMT-30"/>
      </g>
     </g>
    </g>
    <g id="xtick_2">
     <g id="line2d_3">
      <path d="M 130.010564 288.182896 
L 130.010564 42.507986 
" clip-path="url(#pcc66983c48)" style="fill: none; stroke: #d9dee3; stroke-opacity: 0.75; stroke-width: 0.65; stroke-linecap: square"/>
     </g>
     <g id="line2d_4">
      <g>
       <use xlink:href="#mba08d4f3bd" x="130.010564" y="288.182896" style="fill: #666666; stroke: #666666; stroke-width: 0.8"/>
      </g>
     </g>
     <g id="text_2">
      <!-- 20 -->
      <g style="fill: #666666" transform="translate(125.450595 301.052302) scale(0.082 -0.082)">
       <defs>
        <path id="ArialMT-32" d="M 3222 541 
L 3222 0 
L 194 0 
Q 188 203 259 391 
Q 375 700 629 1000 
Q 884 1300 1366 1694 
Q 2113 2306 2375 2664 
Q 2638 3022 2638 3341 
Q 2638 3675 2398 3904 
Q 2159 4134 1775 4134 
Q 1369 4134 1125 3890 
Q 881 3647 878 3216 
L 300 3275 
Q 359 3922 746 4261 
Q 1134 4600 1788 4600 
Q 2447 4600 2831 4234 
Q 3216 3869 3216 3328 
Q 3216 3053 3103 2787 
Q 2991 2522 2730 2228 
Q 2469 1934 1863 1422 
Q 1356 997 1212 845 
Q 1069 694 975 541 
L 3222 541 
z
" transform="scale(0.015625)"/>
       </defs>
       <use xlink:href="#ArialMT-32"/>
       <use xlink:href="#ArialMT-30" x="55.615234"/>
      </g>
     </g>
    </g>
    <g id="xtick_3">
     <g id="line2d_5">
      <path d="M 213.94119 288.182896 
L 213.94119 42.507986 
" clip-path="url(#pcc66983c48)" style="fill: none; stroke: #d9dee3; stroke-opacity: 0.75; stroke-width: 0.65; stroke-linecap: square"/>
     </g>
     <g id="line2d_6">
      <g>
       <use xlink:href="#mba08d4f3bd" x="213.94119" y="288.182896" style="fill: #666666; stroke: #666666; stroke-width: 0.8"/>
      </g>
     </g>
     <g id="text_3">
      <!-- 40 -->
      <g style="fill: #666666" transform="translate(209.381222 301.052302) scale(0.082 -0.082)">
       <defs>
        <path id="ArialMT-34" d="M 2069 0 
L 2069 1097 
L 81 1097 
L 81 1613 
L 2172 4581 
L 2631 4581 
L 2631 1613 
L 3250 1613 
L 3250 1097 
L 2631 1097 
L 2631 0 
L 2069 0 
z
M 2069 1613 
L 2069 3678 
L 634 1613 
L 2069 1613 
z
" transform="scale(0.015625)"/>
       </defs>
       <use xlink:href="#ArialMT-34"/>
       <use xlink:href="#ArialMT-30" x="55.615234"/>
      </g>
     </g>
    </g>
    <g id="xtick_4">
     <g id="line2d_7">
      <path d="M 297.871817 288.182896 
L 297.871817 42.507986 
" clip-path="url(#pcc66983c48)" style="fill: none; stroke: #d9dee3; stroke-opacity: 0.75; stroke-width: 0.65; stroke-linecap: square"/>
     </g>
     <g id="line2d_8">
      <g>
       <use xlink:href="#mba08d4f3bd" x="297.871817" y="288.182896" style="fill: #666666; stroke: #666666; stroke-width: 0.8"/>
      </g>
     </g>
     <g id="text_4">
      <!-- 60 -->
      <g style="fill: #666666" transform="translate(293.311848 301.052302) scale(0.082 -0.082)">
       <defs>
        <path id="ArialMT-36" d="M 3184 3459 
L 2625 3416 
Q 2550 3747 2413 3897 
Q 2184 4138 1850 4138 
Q 1581 4138 1378 3988 
Q 1113 3794 959 3422 
Q 806 3050 800 2363 
Q 1003 2672 1297 2822 
Q 1591 2972 1913 2972 
Q 2475 2972 2870 2558 
Q 3266 2144 3266 1488 
Q 3266 1056 3080 686 
Q 2894 316 2569 119 
Q 2244 -78 1831 -78 
Q 1128 -78 684 439 
Q 241 956 241 2144 
Q 241 3472 731 4075 
Q 1159 4600 1884 4600 
Q 2425 4600 2770 4297 
Q 3116 3994 3184 3459 
z
M 888 1484 
Q 888 1194 1011 928 
Q 1134 663 1356 523 
Q 1578 384 1822 384 
Q 2178 384 2434 671 
Q 2691 959 2691 1453 
Q 2691 1928 2437 2201 
Q 2184 2475 1800 2475 
Q 1419 2475 1153 2201 
Q 888 1928 888 1484 
z
" transform="scale(0.015625)"/>
       </defs>
       <use xlink:href="#ArialMT-36"/>
       <use xlink:href="#ArialMT-30" x="55.615234"/>
      </g>
     </g>
    </g>
    <g id="xtick_5">
     <g id="line2d_9">
      <path d="M 381.802443 288.182896 
L 381.802443 42.507986 
" clip-path="url(#pcc66983c48)" style="fill: none; stroke: #d9dee3; stroke-opacity: 0.75; stroke-width: 0.65; stroke-linecap: square"/>
     </g>
     <g id="line2d_10">
      <g>
       <use xlink:href="#mba08d4f3bd" x="381.802443" y="288.182896" style="fill: #666666; stroke: #666666; stroke-width: 0.8"/>
      </g>
     </g>
     <g id="text_5">
      <!-- 80 -->
      <g style="fill: #666666" transform="translate(377.242475 301.052302) scale(0.082 -0.082)">
       <defs>
        <path id="ArialMT-38" d="M 1131 2484 
Q 781 2613 612 2850 
Q 444 3088 444 3419 
Q 444 3919 803 4259 
Q 1163 4600 1759 4600 
Q 2359 4600 2725 4251 
Q 3091 3903 3091 3403 
Q 3091 3084 2923 2848 
Q 2756 2613 2416 2484 
Q 2838 2347 3058 2040 
Q 3278 1734 3278 1309 
Q 3278 722 2862 322 
Q 2447 -78 1769 -78 
Q 1091 -78 675 323 
Q 259 725 259 1325 
Q 259 1772 486 2073 
Q 713 2375 1131 2484 
z
M 1019 3438 
Q 1019 3113 1228 2906 
Q 1438 2700 1772 2700 
Q 2097 2700 2305 2904 
Q 2513 3109 2513 3406 
Q 2513 3716 2298 3927 
Q 2084 4138 1766 4138 
Q 1444 4138 1231 3931 
Q 1019 3725 1019 3438 
z
M 838 1322 
Q 838 1081 952 856 
Q 1066 631 1291 507 
Q 1516 384 1775 384 
Q 2178 384 2440 643 
Q 2703 903 2703 1303 
Q 2703 1709 2433 1975 
Q 2163 2241 1756 2241 
Q 1359 2241 1098 1978 
Q 838 1716 838 1322 
z
" transform="scale(0.015625)"/>
       </defs>
       <use xlink:href="#ArialMT-38"/>
       <use xlink:href="#ArialMT-30" x="55.615234"/>
      </g>
     </g>
    </g>
    <g id="xtick_6">
     <g id="line2d_11">
      <path d="M 465.73307 288.182896 
L 465.73307 42.507986 
" clip-path="url(#pcc66983c48)" style="fill: none; stroke: #d9dee3; stroke-opacity: 0.75; stroke-width: 0.65; stroke-linecap: square"/>
     </g>
     <g id="line2d_12">
      <g>
       <use xlink:href="#mba08d4f3bd" x="465.73307" y="288.182896" style="fill: #666666; stroke: #666666; stroke-width: 0.8"/>
      </g>
     </g>
     <g id="text_6">
      <!-- 100 -->
      <g style="fill: #666666" transform="translate(458.893117 301.052302) scale(0.082 -0.082)">
       <defs>
        <path id="ArialMT-31" d="M 2384 0 
L 1822 0 
L 1822 3584 
Q 1619 3391 1289 3197 
Q 959 3003 697 2906 
L 697 3450 
Q 1169 3672 1522 3987 
Q 1875 4303 2022 4600 
L 2384 4600 
L 2384 0 
z
" transform="scale(0.015625)"/>
       </defs>
       <use xlink:href="#ArialMT-31"/>
       <use xlink:href="#ArialMT-30" x="55.615234"/>
       <use xlink:href="#ArialMT-30" x="111.230469"/>
      </g>
     </g>
    </g>
    <g id="xtick_7">
     <g id="line2d_13">
      <path d="M 549.663696 288.182896 
L 549.663696 42.507986 
" clip-path="url(#pcc66983c48)" style="fill: none; stroke: #d9dee3; stroke-opacity: 0.75; stroke-width: 0.65; stroke-linecap: square"/>
     </g>
     <g id="line2d_14">
      <g>
       <use xlink:href="#mba08d4f3bd" x="549.663696" y="288.182896" style="fill: #666666; stroke: #666666; stroke-width: 0.8"/>
      </g>
     </g>
     <g id="text_7">
      <!-- 120 -->
      <g style="fill: #666666" transform="translate(542.823743 301.052302) scale(0.082 -0.082)">
       <use xlink:href="#ArialMT-31"/>
       <use xlink:href="#ArialMT-32" x="55.615234"/>
       <use xlink:href="#ArialMT-30" x="111.230469"/>
      </g>
     </g>
    </g>
    <g id="xtick_8">
     <g id="line2d_15">
      <path d="M 633.594323 288.182896 
L 633.594323 42.507986 
" clip-path="url(#pcc66983c48)" style="fill: none; stroke: #d9dee3; stroke-opacity: 0.75; stroke-width: 0.65; stroke-linecap: square"/>
     </g>
     <g id="line2d_16">
      <g>
       <use xlink:href="#mba08d4f3bd" x="633.594323" y="288.182896" style="fill: #666666; stroke: #666666; stroke-width: 0.8"/>
      </g>
     </g>
     <g id="text_8">
      <!-- 140 -->
      <g style="fill: #666666" transform="translate(626.75437 301.052302) scale(0.082 -0.082)">
       <use xlink:href="#ArialMT-31"/>
       <use xlink:href="#ArialMT-34" x="55.615234"/>
       <use xlink:href="#ArialMT-30" x="111.230469"/>
      </g>
     </g>
    </g>
    <g id="text_9">
     <!-- Drain voltage, VDS (V) -->
     <g style="fill: #666666" transform="translate(315.305099 313.233771) scale(0.09 -0.09)">
      <defs>
       <path id="ArialMT-44" d="M 494 0 
L 494 4581 
L 2072 4581 
Q 2606 4581 2888 4516 
Q 3281 4425 3559 4188 
Q 3922 3881 4101 3404 
Q 4281 2928 4281 2316 
Q 4281 1794 4159 1391 
Q 4038 988 3847 723 
Q 3656 459 3429 307 
Q 3203 156 2883 78 
Q 2563 0 2147 0 
L 494 0 
z
M 1100 541 
L 2078 541 
Q 2531 541 2789 625 
Q 3047 709 3200 863 
Q 3416 1078 3536 1442 
Q 3656 1806 3656 2325 
Q 3656 3044 3420 3430 
Q 3184 3816 2847 3947 
Q 2603 4041 2063 4041 
L 1100 4041 
L 1100 541 
z
" transform="scale(0.015625)"/>
       <path id="ArialMT-72" d="M 416 0 
L 416 3319 
L 922 3319 
L 922 2816 
Q 1116 3169 1280 3281 
Q 1444 3394 1641 3394 
Q 1925 3394 2219 3213 
L 2025 2691 
Q 1819 2813 1613 2813 
Q 1428 2813 1281 2702 
Q 1134 2591 1072 2394 
Q 978 2094 978 1738 
L 978 0 
L 416 0 
z
" transform="scale(0.015625)"/>
       <path id="ArialMT-61" d="M 2588 409 
Q 2275 144 1986 34 
Q 1697 -75 1366 -75 
Q 819 -75 525 192 
Q 231 459 231 875 
Q 231 1119 342 1320 
Q 453 1522 633 1644 
Q 813 1766 1038 1828 
Q 1203 1872 1538 1913 
Q 2219 1994 2541 2106 
Q 2544 2222 2544 2253 
Q 2544 2597 2384 2738 
Q 2169 2928 1744 2928 
Q 1347 2928 1158 2789 
Q 969 2650 878 2297 
L 328 2372 
Q 403 2725 575 2942 
Q 747 3159 1072 3276 
Q 1397 3394 1825 3394 
Q 2250 3394 2515 3294 
Q 2781 3194 2906 3042 
Q 3031 2891 3081 2659 
Q 3109 2516 3109 2141 
L 3109 1391 
Q 3109 606 3145 398 
Q 3181 191 3288 0 
L 2700 0 
Q 2613 175 2588 409 
z
M 2541 1666 
Q 2234 1541 1622 1453 
Q 1275 1403 1131 1340 
Q 988 1278 909 1158 
Q 831 1038 831 891 
Q 831 666 1001 516 
Q 1172 366 1500 366 
Q 1825 366 2078 508 
Q 2331 650 2450 897 
Q 2541 1088 2541 1459 
L 2541 1666 
z
" transform="scale(0.015625)"/>
       <path id="ArialMT-69" d="M 425 3934 
L 425 4581 
L 988 4581 
L 988 3934 
L 425 3934 
z
M 425 0 
L 425 3319 
L 988 3319 
L 988 0 
L 425 0 
z
" transform="scale(0.015625)"/>
       <path id="ArialMT-6e" d="M 422 0 
L 422 3319 
L 928 3319 
L 928 2847 
Q 1294 3394 1984 3394 
Q 2284 3394 2536 3286 
Q 2788 3178 2913 3003 
Q 3038 2828 3088 2588 
Q 3119 2431 3119 2041 
L 3119 0 
L 2556 0 
L 2556 2019 
Q 2556 2363 2490 2533 
Q 2425 2703 2258 2804 
Q 2091 2906 1866 2906 
Q 1506 2906 1245 2678 
Q 984 2450 984 1813 
L 984 0 
L 422 0 
z
" transform="scale(0.015625)"/>
       <path id="ArialMT-20" transform="scale(0.015625)"/>
       <path id="ArialMT-76" d="M 1344 0 
L 81 3319 
L 675 3319 
L 1388 1331 
Q 1503 1009 1600 663 
Q 1675 925 1809 1294 
L 2547 3319 
L 3125 3319 
L 1869 0 
L 1344 0 
z
" transform="scale(0.015625)"/>
       <path id="ArialMT-6f" d="M 213 1659 
Q 213 2581 725 3025 
Q 1153 3394 1769 3394 
Q 2453 3394 2887 2945 
Q 3322 2497 3322 1706 
Q 3322 1066 3130 698 
Q 2938 331 2570 128 
Q 2203 -75 1769 -75 
Q 1072 -75 642 372 
Q 213 819 213 1659 
z
M 791 1659 
Q 791 1022 1069 705 
Q 1347 388 1769 388 
Q 2188 388 2466 706 
Q 2744 1025 2744 1678 
Q 2744 2294 2464 2611 
Q 2184 2928 1769 2928 
Q 1347 2928 1069 2612 
Q 791 2297 791 1659 
z
" transform="scale(0.015625)"/>
       <path id="ArialMT-6c" d="M 409 0 
L 409 4581 
L 972 4581 
L 972 0 
L 409 0 
z
" transform="scale(0.015625)"/>
       <path id="ArialMT-74" d="M 1650 503 
L 1731 6 
Q 1494 -44 1306 -44 
Q 1000 -44 831 53 
Q 663 150 594 308 
Q 525 466 525 972 
L 525 2881 
L 113 2881 
L 113 3319 
L 525 3319 
L 525 4141 
L 1084 4478 
L 1084 3319 
L 1650 3319 
L 1650 2881 
L 1084 2881 
L 1084 941 
Q 1084 700 1114 631 
Q 1144 563 1211 522 
Q 1278 481 1403 481 
Q 1497 481 1650 503 
z
" transform="scale(0.015625)"/>
       <path id="ArialMT-67" d="M 319 -275 
L 866 -356 
Q 900 -609 1056 -725 
Q 1266 -881 1628 -881 
Q 2019 -881 2231 -725 
Q 2444 -569 2519 -288 
Q 2563 -116 2559 434 
Q 2191 0 1641 0 
Q 956 0 581 494 
Q 206 988 206 1678 
Q 206 2153 378 2554 
Q 550 2956 876 3175 
Q 1203 3394 1644 3394 
Q 2231 3394 2613 2919 
L 2613 3319 
L 3131 3319 
L 3131 450 
Q 3131 -325 2973 -648 
Q 2816 -972 2473 -1159 
Q 2131 -1347 1631 -1347 
Q 1038 -1347 672 -1080 
Q 306 -813 319 -275 
z
M 784 1719 
Q 784 1066 1043 766 
Q 1303 466 1694 466 
Q 2081 466 2343 764 
Q 2606 1063 2606 1700 
Q 2606 2309 2336 2618 
Q 2066 2928 1684 2928 
Q 1309 2928 1046 2623 
Q 784 2319 784 1719 
z
" transform="scale(0.015625)"/>
       <path id="ArialMT-65" d="M 2694 1069 
L 3275 997 
Q 3138 488 2766 206 
Q 2394 -75 1816 -75 
Q 1088 -75 661 373 
Q 234 822 234 1631 
Q 234 2469 665 2931 
Q 1097 3394 1784 3394 
Q 2450 3394 2872 2941 
Q 3294 2488 3294 1666 
Q 3294 1616 3291 1516 
L 816 1516 
Q 847 969 1125 678 
Q 1403 388 1819 388 
Q 2128 388 2347 550 
Q 2566 713 2694 1069 
z
M 847 1978 
L 2700 1978 
Q 2663 2397 2488 2606 
Q 2219 2931 1791 2931 
Q 1403 2931 1139 2672 
Q 875 2413 847 1978 
z
" transform="scale(0.015625)"/>
       <path id="ArialMT-2c" d="M 569 0 
L 569 641 
L 1209 641 
L 1209 0 
Q 1209 -353 1084 -570 
Q 959 -788 688 -906 
L 531 -666 
Q 709 -588 793 -436 
Q 878 -284 888 0 
L 569 0 
z
" transform="scale(0.015625)"/>
       <path id="ArialMT-56" d="M 1803 0 
L 28 4581 
L 684 4581 
L 1875 1253 
Q 2019 853 2116 503 
Q 2222 878 2363 1253 
L 3600 4581 
L 4219 4581 
L 2425 0 
L 1803 0 
z
" transform="scale(0.015625)"/>
       <path id="ArialMT-53" d="M 288 1472 
L 859 1522 
Q 900 1178 1048 958 
Q 1197 738 1509 602 
Q 1822 466 2213 466 
Q 2559 466 2825 569 
Q 3091 672 3220 851 
Q 3350 1031 3350 1244 
Q 3350 1459 3225 1620 
Q 3100 1781 2813 1891 
Q 2628 1963 1997 2114 
Q 1366 2266 1113 2400 
Q 784 2572 623 2826 
Q 463 3081 463 3397 
Q 463 3744 659 4045 
Q 856 4347 1234 4503 
Q 1613 4659 2075 4659 
Q 2584 4659 2973 4495 
Q 3363 4331 3572 4012 
Q 3781 3694 3797 3291 
L 3216 3247 
Q 3169 3681 2898 3903 
Q 2628 4125 2100 4125 
Q 1550 4125 1298 3923 
Q 1047 3722 1047 3438 
Q 1047 3191 1225 3031 
Q 1400 2872 2139 2705 
Q 2878 2538 3153 2413 
Q 3553 2228 3743 1945 
Q 3934 1663 3934 1294 
Q 3934 928 3725 604 
Q 3516 281 3123 101 
Q 2731 -78 2241 -78 
Q 1619 -78 1198 103 
Q 778 284 539 648 
Q 300 1013 288 1472 
z
" transform="scale(0.015625)"/>
       <path id="ArialMT-28" d="M 1497 -1347 
Q 1031 -759 709 28 
Q 388 816 388 1659 
Q 388 2403 628 3084 
Q 909 3875 1497 4659 
L 1900 4659 
Q 1522 4009 1400 3731 
Q 1209 3300 1100 2831 
Q 966 2247 966 1656 
Q 966 153 1900 -1347 
L 1497 -1347 
z
" transform="scale(0.015625)"/>
       <path id="ArialMT-29" d="M 791 -1347 
L 388 -1347 
Q 1322 153 1322 1656 
Q 1322 2244 1188 2822 
Q 1081 3291 891 3722 
Q 769 4003 388 4659 
L 791 4659 
Q 1378 3875 1659 3084 
Q 1900 2403 1900 1659 
Q 1900 816 1576 28 
Q 1253 -759 791 -1347 
z
" transform="scale(0.015625)"/>
      </defs>
      <use xlink:href="#ArialMT-44"/>
      <use xlink:href="#ArialMT-72" x="72.216797"/>
      <use xlink:href="#ArialMT-61" x="105.517578"/>
      <use xlink:href="#ArialMT-69" x="161.132812"/>
      <use xlink:href="#ArialMT-6e" x="183.349609"/>
      <use xlink:href="#ArialMT-20" x="238.964844"/>
      <use xlink:href="#ArialMT-76" x="266.748047"/>
      <use xlink:href="#ArialMT-6f" x="316.748047"/>
      <use xlink:href="#ArialMT-6c" x="372.363281"/>
      <use xlink:href="#ArialMT-74" x="394.580078"/>
      <use xlink:href="#ArialMT-61" x="422.363281"/>
      <use xlink:href="#ArialMT-67" x="477.978516"/>
      <use xlink:href="#ArialMT-65" x="533.59375"/>
      <use xlink:href="#ArialMT-2c" x="589.208984"/>
      <use xlink:href="#ArialMT-20" x="616.992188"/>
      <use xlink:href="#ArialMT-56" x="644.775391"/>
      <use xlink:href="#ArialMT-44" x="711.474609"/>
      <use xlink:href="#ArialMT-53" x="783.691406"/>
      <use xlink:href="#ArialMT-20" x="850.390625"/>
      <use xlink:href="#ArialMT-28" x="878.173828"/>
      <use xlink:href="#ArialMT-56" x="911.474609"/>
      <use xlink:href="#ArialMT-29" x="978.173828"/>
     </g>
    </g>
   </g>
   <g id="matplotlib.axis_2">
    <g id="ytick_1">
     <g id="line2d_17">
      <path d="M 46.079937 288.182896 
L 675.559636 288.182896 
" clip-path="url(#pcc66983c48)" style="fill: none; stroke: #d9dee3; stroke-opacity: 0.75; stroke-width: 0.65; stroke-linecap: square"/>
     </g>
     <g id="line2d_18">
      <defs>
       <path id="m73780c90c1" d="M 0 0 
L -3.5 0 
" style="stroke: #666666; stroke-width: 0.8"/>
      </defs>
      <g>
       <use xlink:href="#m73780c90c1" x="46.079937" y="288.182896" style="fill: #666666; stroke: #666666; stroke-width: 0.8"/>
      </g>
     </g>
     <g id="text_10">
      <!-- $\mathdefault{10^{-13}}$ -->
      <g style="fill: #666666" transform="translate(19.645938 292.411021) scale(0.082 -0.082)">
       <defs>
        <path id="ArialMT-2212" d="M 3381 1997 
L 356 1997 
L 356 2522 
L 3381 2522 
L 3381 1997 
z
" transform="scale(0.015625)"/>
        <path id="ArialMT-33" d="M 269 1209 
L 831 1284 
Q 928 806 1161 595 
Q 1394 384 1728 384 
Q 2125 384 2398 659 
Q 2672 934 2672 1341 
Q 2672 1728 2419 1979 
Q 2166 2231 1775 2231 
Q 1616 2231 1378 2169 
L 1441 2663 
Q 1497 2656 1531 2656 
Q 1891 2656 2178 2843 
Q 2466 3031 2466 3422 
Q 2466 3731 2256 3934 
Q 2047 4138 1716 4138 
Q 1388 4138 1169 3931 
Q 950 3725 888 3313 
L 325 3413 
Q 428 3978 793 4289 
Q 1159 4600 1703 4600 
Q 2078 4600 2393 4439 
Q 2709 4278 2876 4000 
Q 3044 3722 3044 3409 
Q 3044 3113 2884 2869 
Q 2725 2625 2413 2481 
Q 2819 2388 3044 2092 
Q 3269 1797 3269 1353 
Q 3269 753 2831 336 
Q 2394 -81 1725 -81 
Q 1122 -81 723 278 
Q 325 638 269 1209 
z
" transform="scale(0.015625)"/>
       </defs>
       <use xlink:href="#ArialMT-31" transform="translate(0 0.99375)"/>
       <use xlink:href="#ArialMT-30" transform="translate(55.615234 0.99375)"/>
       <use xlink:href="#ArialMT-2212" transform="translate(112.972813 70.6875) scale(0.7)"/>
       <use xlink:href="#ArialMT-31" transform="translate(153.851719 70.6875) scale(0.7)"/>
       <use xlink:href="#ArialMT-33" transform="translate(192.782383 70.6875) scale(0.7)"/>
      </g>
     </g>
    </g>
    <g id="ytick_2">
     <g id="line2d_19">
      <path d="M 46.079937 244.704574 
L 675.559636 244.704574 
" clip-path="url(#pcc66983c48)" style="fill: none; stroke: #d9dee3; stroke-opacity: 0.75; stroke-width: 0.65; stroke-linecap: square"/>
     </g>
     <g id="line2d_20">
      <g>
       <use xlink:href="#m73780c90c1" x="46.079937" y="244.704574" style="fill: #666666; stroke: #666666; stroke-width: 0.8"/>
      </g>
     </g>
     <g id="text_11">
      <!-- $\mathdefault{10^{-11}}$ -->
      <g style="fill: #666666" transform="translate(19.645938 248.932699) scale(0.082 -0.082)">
       <use xlink:href="#ArialMT-31" transform="translate(0 0.99375)"/>
       <use xlink:href="#ArialMT-30" transform="translate(55.615234 0.99375)"/>
       <use xlink:href="#ArialMT-2212" transform="translate(112.972813 70.6875) scale(0.7)"/>
       <use xlink:href="#ArialMT-31" transform="translate(153.851719 70.6875) scale(0.7)"/>
       <use xlink:href="#ArialMT-31" transform="translate(192.782383 70.6875) scale(0.7)"/>
      </g>
     </g>
    </g>
    <g id="ytick_3">
     <g id="line2d_21">
      <path d="M 46.079937 201.226252 
L 675.559636 201.226252 
" clip-path="url(#pcc66983c48)" style="fill: none; stroke: #d9dee3; stroke-opacity: 0.75; stroke-width: 0.65; stroke-linecap: square"/>
     </g>
     <g id="line2d_22">
      <g>
       <use xlink:href="#m73780c90c1" x="46.079937" y="201.226252" style="fill: #666666; stroke: #666666; stroke-width: 0.8"/>
      </g>
     </g>
     <g id="text_12">
      <!-- $\mathdefault{10^{-9}}$ -->
      <g style="fill: #666666" transform="translate(22.843938 205.454377) scale(0.082 -0.082)">
       <defs>
        <path id="ArialMT-39" d="M 350 1059 
L 891 1109 
Q 959 728 1153 556 
Q 1347 384 1650 384 
Q 1909 384 2104 503 
Q 2300 622 2425 820 
Q 2550 1019 2634 1356 
Q 2719 1694 2719 2044 
Q 2719 2081 2716 2156 
Q 2547 1888 2255 1720 
Q 1963 1553 1622 1553 
Q 1053 1553 659 1965 
Q 266 2378 266 3053 
Q 266 3750 677 4175 
Q 1088 4600 1706 4600 
Q 2153 4600 2523 4359 
Q 2894 4119 3086 3673 
Q 3278 3228 3278 2384 
Q 3278 1506 3087 986 
Q 2897 466 2520 194 
Q 2144 -78 1638 -78 
Q 1100 -78 759 220 
Q 419 519 350 1059 
z
M 2653 3081 
Q 2653 3566 2395 3850 
Q 2138 4134 1775 4134 
Q 1400 4134 1122 3828 
Q 844 3522 844 3034 
Q 844 2597 1108 2323 
Q 1372 2050 1759 2050 
Q 2150 2050 2401 2323 
Q 2653 2597 2653 3081 
z
" transform="scale(0.015625)"/>
       </defs>
       <use xlink:href="#ArialMT-31" transform="translate(0 0.99375)"/>
       <use xlink:href="#ArialMT-30" transform="translate(55.615234 0.99375)"/>
       <use xlink:href="#ArialMT-2212" transform="translate(112.972813 70.6875) scale(0.7)"/>
       <use xlink:href="#ArialMT-39" transform="translate(153.851719 70.6875) scale(0.7)"/>
      </g>
     </g>
    </g>
    <g id="ytick_4">
     <g id="line2d_23">
      <path d="M 46.079937 157.74793 
L 675.559636 157.74793 
" clip-path="url(#pcc66983c48)" style="fill: none; stroke: #d9dee3; stroke-opacity: 0.75; stroke-width: 0.65; stroke-linecap: square"/>
     </g>
     <g id="line2d_24">
      <g>
       <use xlink:href="#m73780c90c1" x="46.079937" y="157.74793" style="fill: #666666; stroke: #666666; stroke-width: 0.8"/>
      </g>
     </g>
     <g id="text_13">
      <!-- $\mathdefault{10^{-7}}$ -->
      <g style="fill: #666666" transform="translate(22.843938 161.935055) scale(0.082 -0.082)">
       <defs>
        <path id="ArialMT-37" d="M 303 3981 
L 303 4522 
L 3269 4522 
L 3269 4084 
Q 2831 3619 2401 2847 
Q 1972 2075 1738 1259 
Q 1569 684 1522 0 
L 944 0 
Q 953 541 1156 1306 
Q 1359 2072 1739 2783 
Q 2119 3494 2547 3981 
L 303 3981 
z
" transform="scale(0.015625)"/>
       </defs>
       <use xlink:href="#ArialMT-31" transform="translate(0 0.846875)"/>
       <use xlink:href="#ArialMT-30" transform="translate(55.615234 0.846875)"/>
       <use xlink:href="#ArialMT-2212" transform="translate(112.972813 70.540625) scale(0.7)"/>
       <use xlink:href="#ArialMT-37" transform="translate(153.851719 70.540625) scale(0.7)"/>
      </g>
     </g>
    </g>
    <g id="ytick_5">
     <g id="line2d_25">
      <path d="M 46.079937 114.269608 
L 675.559636 114.269608 
" clip-path="url(#pcc66983c48)" style="fill: none; stroke: #d9dee3; stroke-opacity: 0.75; stroke-width: 0.65; stroke-linecap: square"/>
     </g>
     <g id="line2d_26">
      <g>
       <use xlink:href="#m73780c90c1" x="46.079937" y="114.269608" style="fill: #666666; stroke: #666666; stroke-width: 0.8"/>
      </g>
     </g>
     <g id="text_14">
      <!-- $\mathdefault{10^{-5}}$ -->
      <g style="fill: #666666" transform="translate(22.843938 118.456733) scale(0.082 -0.082)">
       <defs>
        <path id="ArialMT-35" d="M 266 1200 
L 856 1250 
Q 922 819 1161 601 
Q 1400 384 1738 384 
Q 2144 384 2425 690 
Q 2706 997 2706 1503 
Q 2706 1984 2436 2262 
Q 2166 2541 1728 2541 
Q 1456 2541 1237 2417 
Q 1019 2294 894 2097 
L 366 2166 
L 809 4519 
L 3088 4519 
L 3088 3981 
L 1259 3981 
L 1013 2750 
Q 1425 3038 1878 3038 
Q 2478 3038 2890 2622 
Q 3303 2206 3303 1553 
Q 3303 931 2941 478 
Q 2500 -78 1738 -78 
Q 1113 -78 717 272 
Q 322 622 266 1200 
z
" transform="scale(0.015625)"/>
       </defs>
       <use xlink:href="#ArialMT-31" transform="translate(0 0.879688)"/>
       <use xlink:href="#ArialMT-30" transform="translate(55.615234 0.879688)"/>
       <use xlink:href="#ArialMT-2212" transform="translate(112.972813 70.573438) scale(0.7)"/>
       <use xlink:href="#ArialMT-35" transform="translate(153.851719 70.573438) scale(0.7)"/>
      </g>
     </g>
    </g>
    <g id="ytick_6">
     <g id="line2d_27">
      <path d="M 46.079937 70.791286 
L 675.559636 70.791286 
" clip-path="url(#pcc66983c48)" style="fill: none; stroke: #d9dee3; stroke-opacity: 0.75; stroke-width: 0.65; stroke-linecap: square"/>
     </g>
     <g id="line2d_28">
      <g>
       <use xlink:href="#m73780c90c1" x="46.079937" y="70.791286" style="fill: #666666; stroke: #666666; stroke-width: 0.8"/>
      </g>
     </g>
     <g id="text_15">
      <!-- $\mathdefault{10^{-3}}$ -->
      <g style="fill: #666666" transform="translate(22.843938 75.019411) scale(0.082 -0.082)">
       <use xlink:href="#ArialMT-31" transform="translate(0 0.99375)"/>
       <use xlink:href="#ArialMT-30" transform="translate(55.615234 0.99375)"/>
       <use xlink:href="#ArialMT-2212" transform="translate(112.972813 70.6875) scale(0.7)"/>
       <use xlink:href="#ArialMT-33" transform="translate(153.851719 70.6875) scale(0.7)"/>
      </g>
     </g>
    </g>
    <g id="text_16">
     <!-- Absolute drain current, |ID| (A) -->
     <g style="fill: #666666" transform="translate(13.751719 225.954112) rotate(-90) scale(0.09 -0.09)">
      <defs>
       <path id="ArialMT-41" d="M -9 0 
L 1750 4581 
L 2403 4581 
L 4278 0 
L 3588 0 
L 3053 1388 
L 1138 1388 
L 634 0 
L -9 0 
z
M 1313 1881 
L 2866 1881 
L 2388 3150 
Q 2169 3728 2063 4100 
Q 1975 3659 1816 3225 
L 1313 1881 
z
" transform="scale(0.015625)"/>
       <path id="ArialMT-62" d="M 941 0 
L 419 0 
L 419 4581 
L 981 4581 
L 981 2947 
Q 1338 3394 1891 3394 
Q 2197 3394 2470 3270 
Q 2744 3147 2920 2923 
Q 3097 2700 3197 2384 
Q 3297 2069 3297 1709 
Q 3297 856 2875 390 
Q 2453 -75 1863 -75 
Q 1275 -75 941 416 
L 941 0 
z
M 934 1684 
Q 934 1088 1097 822 
Q 1363 388 1816 388 
Q 2184 388 2453 708 
Q 2722 1028 2722 1663 
Q 2722 2313 2464 2622 
Q 2206 2931 1841 2931 
Q 1472 2931 1203 2611 
Q 934 2291 934 1684 
z
" transform="scale(0.015625)"/>
       <path id="ArialMT-73" d="M 197 991 
L 753 1078 
Q 800 744 1014 566 
Q 1228 388 1613 388 
Q 2000 388 2187 545 
Q 2375 703 2375 916 
Q 2375 1106 2209 1216 
Q 2094 1291 1634 1406 
Q 1016 1563 777 1677 
Q 538 1791 414 1992 
Q 291 2194 291 2438 
Q 291 2659 392 2848 
Q 494 3038 669 3163 
Q 800 3259 1026 3326 
Q 1253 3394 1513 3394 
Q 1903 3394 2198 3281 
Q 2494 3169 2634 2976 
Q 2775 2784 2828 2463 
L 2278 2388 
Q 2241 2644 2061 2787 
Q 1881 2931 1553 2931 
Q 1166 2931 1000 2803 
Q 834 2675 834 2503 
Q 834 2394 903 2306 
Q 972 2216 1119 2156 
Q 1203 2125 1616 2013 
Q 2213 1853 2448 1751 
Q 2684 1650 2818 1456 
Q 2953 1263 2953 975 
Q 2953 694 2789 445 
Q 2625 197 2315 61 
Q 2006 -75 1616 -75 
Q 969 -75 630 194 
Q 291 463 197 991 
z
" transform="scale(0.015625)"/>
       <path id="ArialMT-75" d="M 2597 0 
L 2597 488 
Q 2209 -75 1544 -75 
Q 1250 -75 995 37 
Q 741 150 617 320 
Q 494 491 444 738 
Q 409 903 409 1263 
L 409 3319 
L 972 3319 
L 972 1478 
Q 972 1038 1006 884 
Q 1059 663 1231 536 
Q 1403 409 1656 409 
Q 1909 409 2131 539 
Q 2353 669 2445 892 
Q 2538 1116 2538 1541 
L 2538 3319 
L 3100 3319 
L 3100 0 
L 2597 0 
z
" transform="scale(0.015625)"/>
       <path id="ArialMT-64" d="M 2575 0 
L 2575 419 
Q 2259 -75 1647 -75 
Q 1250 -75 917 144 
Q 584 363 401 755 
Q 219 1147 219 1656 
Q 219 2153 384 2558 
Q 550 2963 881 3178 
Q 1213 3394 1622 3394 
Q 1922 3394 2156 3267 
Q 2391 3141 2538 2938 
L 2538 4581 
L 3097 4581 
L 3097 0 
L 2575 0 
z
M 797 1656 
Q 797 1019 1065 703 
Q 1334 388 1700 388 
Q 2069 388 2326 689 
Q 2584 991 2584 1609 
Q 2584 2291 2321 2609 
Q 2059 2928 1675 2928 
Q 1300 2928 1048 2622 
Q 797 2316 797 1656 
z
" transform="scale(0.015625)"/>
       <path id="ArialMT-63" d="M 2588 1216 
L 3141 1144 
Q 3050 572 2676 248 
Q 2303 -75 1759 -75 
Q 1078 -75 664 370 
Q 250 816 250 1647 
Q 250 2184 428 2587 
Q 606 2991 970 3192 
Q 1334 3394 1763 3394 
Q 2303 3394 2647 3120 
Q 2991 2847 3088 2344 
L 2541 2259 
Q 2463 2594 2264 2762 
Q 2066 2931 1784 2931 
Q 1359 2931 1093 2626 
Q 828 2322 828 1663 
Q 828 994 1084 691 
Q 1341 388 1753 388 
Q 2084 388 2306 591 
Q 2528 794 2588 1216 
z
" transform="scale(0.015625)"/>
       <path id="ArialMT-7c" d="M 588 -1347 
L 588 4659 
L 1078 4659 
L 1078 -1347 
L 588 -1347 
z
" transform="scale(0.015625)"/>
       <path id="ArialMT-49" d="M 597 0 
L 597 4581 
L 1203 4581 
L 1203 0 
L 597 0 
z
" transform="scale(0.015625)"/>
      </defs>
      <use xlink:href="#ArialMT-41"/>
      <use xlink:href="#ArialMT-62" x="66.699219"/>
      <use xlink:href="#ArialMT-73" x="122.314453"/>
      <use xlink:href="#ArialMT-6f" x="172.314453"/>
      <use xlink:href="#ArialMT-6c" x="227.929688"/>
      <use xlink:href="#ArialMT-75" x="250.146484"/>
      <use xlink:href="#ArialMT-74" x="305.761719"/>
      <use xlink:href="#ArialMT-65" x="333.544922"/>
      <use xlink:href="#ArialMT-20" x="389.160156"/>
      <use xlink:href="#ArialMT-64" x="416.943359"/>
      <use xlink:href="#ArialMT-72" x="472.558594"/>
      <use xlink:href="#ArialMT-61" x="505.859375"/>
      <use xlink:href="#ArialMT-69" x="561.474609"/>
      <use xlink:href="#ArialMT-6e" x="583.691406"/>
      <use xlink:href="#ArialMT-20" x="639.306641"/>
      <use xlink:href="#ArialMT-63" x="667.089844"/>
      <use xlink:href="#ArialMT-75" x="717.089844"/>
      <use xlink:href="#ArialMT-72" x="772.705078"/>
      <use xlink:href="#ArialMT-72" x="806.005859"/>
      <use xlink:href="#ArialMT-65" x="839.306641"/>
      <use xlink:href="#ArialMT-6e" x="894.921875"/>
      <use xlink:href="#ArialMT-74" x="950.537109"/>
      <use xlink:href="#ArialMT-2c" x="978.320312"/>
      <use xlink:href="#ArialMT-20" x="1006.103516"/>
      <use xlink:href="#ArialMT-7c" x="1033.886719"/>
      <use xlink:href="#ArialMT-49" x="1059.863281"/>
      <use xlink:href="#ArialMT-44" x="1087.646484"/>
      <use xlink:href="#ArialMT-7c" x="1159.863281"/>
      <use xlink:href="#ArialMT-20" x="1185.839844"/>
      <use xlink:href="#ArialMT-28" x="1213.623047"/>
      <use xlink:href="#ArialMT-41" x="1246.923828"/>
      <use xlink:href="#ArialMT-29" x="1313.623047"/>
     </g>
    </g>
   </g>
   <g id="line2d_29">
    <path d="M 46.079937 235.069155 
L 50.276469 228.744974 
L 54.473 225.601316 
L 58.669531 223.421921 
L 62.866063 220.771371 
L 67.062594 219.62209 
L 71.259125 217.336678 
L 79.652188 214.256048 
L 88.045251 211.754599 
L 92.241782 211.013676 
L 96.438313 209.873614 
L 100.634845 208.893421 
L 104.831376 208.029312 
L 113.224439 206.560731 
L 121.617501 205.102905 
L 130.010564 203.749412 
L 138.403627 202.446142 
L 146.796689 201.382643 
L 159.386283 200.235295 
L 167.779346 199.715457 
L 171.975877 199.114855 
L 176.172409 199.067576 
L 184.565471 198.461912 
L 197.155065 197.770606 
L 222.334253 197.091267 
L 230.727316 196.864241 
L 251.709972 196.108553 
L 264.299566 195.381036 
L 268.496098 194.917744 
L 272.692629 194.299491 
L 276.88916 193.537634 
L 281.085692 192.426835 
L 285.282223 190.284285 
L 289.478754 188.586705 
L 293.675286 186.570754 
L 297.871817 184.829899 
L 306.26488 179.838543 
L 310.461411 177.587009 
L 314.657942 174.400167 
L 318.854474 172.501652 
L 323.051005 169.86847 
L 327.247536 168.277035 
L 331.444068 166.423191 
L 335.640599 164.813842 
L 339.83713 163.440735 
L 344.033662 159.533112 
L 352.426724 156.562616 
L 356.623255 155.344339 
L 360.819787 154.417863 
L 365.016318 153.312782 
L 369.212849 152.380468 
L 373.409381 151.571472 
L 377.605912 150.88982 
L 394.392037 147.704601 
L 406.981631 145.718328 
L 415.374694 144.729887 
L 419.571225 144.084713 
L 423.767757 143.320418 
L 427.964288 148.970298 
L 432.160819 143.661579 
L 436.357351 140.926375 
L 440.553882 139.442062 
L 444.750413 138.230273 
L 448.946945 137.522962 
L 453.143476 137.072101 
L 457.340007 136.392994 
L 465.73307 135.476226 
L 474.126133 134.927238 
L 478.322664 134.863451 
L 482.519195 146.818698 
L 486.715727 152.34536 
L 490.912258 149.565167 
L 495.108789 138.247594 
L 499.305321 147.284634 
L 503.501852 151.922102 
L 507.698383 148.225108 
L 511.894914 77.215653 
L 516.091446 54.016123 
L 520.287977 50.091485 
L 524.484508 49.052195 
L 675.559636 49.052195 
L 675.559636 49.052195 
" clip-path="url(#pcc66983c48)" style="fill: none; stroke: #fde9d2; stroke-width: 1.5; stroke-linecap: square"/>
   </g>
   <g id="line2d_30">
    <path d="M 46.079937 236.333695 
L 50.276469 226.990612 
L 54.473 222.290371 
L 58.669531 217.876952 
L 71.259125 207.245257 
L 75.455657 204.233556 
L 79.652188 201.52253 
L 88.045251 196.866008 
L 92.241782 194.857982 
L 96.438313 193.095274 
L 100.634845 191.472336 
L 104.831376 190.002595 
L 113.224439 187.497992 
L 121.617501 185.446288 
L 125.814033 184.471574 
L 138.403627 182.068989 
L 146.796689 180.721446 
L 159.386283 178.97484 
L 167.779346 177.956357 
L 180.36894 176.500068 
L 184.565471 175.909667 
L 188.762003 173.838706 
L 192.958534 157.689169 
L 197.155065 154.157557 
L 201.351596 147.943258 
L 205.548128 151.340773 
L 209.744659 135.872643 
L 213.94119 138.667761 
L 218.137722 138.497732 
L 222.334253 143.02276 
L 226.530784 135.919695 
L 230.727316 135.752173 
L 234.923847 140.290449 
L 239.120378 133.938229 
L 243.31691 134.135607 
L 247.513441 138.762081 
L 251.709972 133.295495 
L 255.906504 118.794882 
L 260.103035 132.095631 
L 264.299566 137.518133 
L 268.496098 133.035422 
L 272.692629 118.969194 
L 276.88916 117.248011 
L 281.085692 116.878524 
L 289.478754 116.632632 
L 331.444068 116.421669 
L 335.640599 116.270209 
L 365.016318 116.00473 
L 369.212849 115.876146 
L 377.605912 115.804709 
L 406.981631 115.285602 
L 411.178163 115.244379 
L 415.374694 115.007141 
L 419.571225 114.978274 
L 423.767757 114.736078 
L 436.357351 114.335322 
L 440.553882 114.172137 
L 444.750413 113.664944 
L 448.946945 113.400235 
L 453.143476 112.991063 
L 457.340007 125.252355 
L 461.536539 129.741258 
L 465.73307 130.070333 
L 469.929601 117.786091 
L 474.126133 127.270718 
L 478.322664 130.139963 
L 482.519195 130.175344 
L 486.715727 116.285758 
L 490.912258 122.026102 
L 495.108789 128.900168 
L 499.305321 118.138319 
L 503.501852 106.381706 
L 507.698383 99.539414 
L 511.894914 59.771201 
L 516.091446 54.012959 
L 520.287977 49.676437 
L 524.484508 49.052212 
L 675.559636 49.052201 
L 675.559636 49.052201 
" clip-path="url(#pcc66983c48)" style="fill: none; stroke: #f7c98f; stroke-width: 1.5; stroke-linecap: square"/>
   </g>
   <g id="line2d_31">
    <path d="M 46.079937 238.32949 
L 50.276469 231.75597 
L 54.473 226.090361 
L 58.669531 222.234656 
L 79.652188 204.97455 
L 83.848719 201.632264 
L 88.045251 198.446674 
L 96.438313 192.546488 
L 100.634845 189.844832 
L 104.831376 187.452802 
L 109.027907 185.295548 
L 113.224439 183.298866 
L 117.42097 181.4566 
L 121.617501 179.777247 
L 130.010564 176.794409 
L 138.403627 174.105596 
L 150.993221 170.499146 
L 163.582815 167.029746 
L 167.779346 165.768574 
L 171.975877 164.368204 
L 176.172409 162.617487 
L 180.36894 159.202414 
L 184.565471 150.208893 
L 188.762003 143.567042 
L 192.958534 132.138504 
L 197.155065 123.130142 
L 201.351596 101.023709 
L 205.548128 110.831842 
L 209.744659 113.785189 
L 213.94119 102.792701 
L 218.137722 103.348293 
L 222.334253 108.261878 
L 226.530784 101.303692 
L 230.727316 101.761535 
L 234.923847 107.019745 
L 239.120378 103.39927 
L 243.31691 102.804135 
L 247.513441 107.991814 
L 251.709972 104.910056 
L 255.906504 96.616044 
L 260.103035 92.312645 
L 264.299566 91.567458 
L 268.496098 93.033582 
L 272.692629 94.131057 
L 276.88916 92.606073 
L 281.085692 101.204513 
L 285.282223 109.163897 
L 289.478754 101.083611 
L 293.675286 104.112205 
L 297.871817 98.61556 
L 302.068348 136.801543 
L 306.26488 134.624246 
L 310.461411 132.822392 
L 318.854474 128.864578 
L 323.051005 126.624244 
L 327.247536 124.121816 
L 331.444068 121.260416 
L 335.640599 119.349787 
L 339.83713 115.57363 
L 344.033662 111.217122 
L 348.230193 106.25223 
L 352.426724 100.692984 
L 356.623255 103.296169 
L 360.819787 94.982997 
L 365.016318 89.486565 
L 369.212849 84.872202 
L 373.409381 87.07952 
L 377.605912 135.063024 
L 381.802443 132.95422 
L 385.998975 127.943655 
L 390.195506 121.112733 
L 394.392037 118.195678 
L 398.588569 105.665744 
L 402.7851 107.278866 
L 406.981631 90.60512 
L 411.178163 101.537654 
L 415.374694 79.056549 
L 419.571225 100.110496 
L 423.767757 98.844361 
L 427.964288 78.422363 
L 432.160819 75.674094 
L 436.357351 73.446333 
L 440.553882 71.414299 
L 448.946945 67.913807 
L 457.340007 64.766565 
L 469.929601 60.491172 
L 499.305321 51.017941 
L 503.501852 49.650199 
L 507.698383 49.05227 
L 675.559636 49.052203 
L 675.559636 49.052203 
" clip-path="url(#pcc66983c48)" style="fill: none; stroke: #f2ad62; stroke-width: 1.5; stroke-linecap: square"/>
   </g>
   <g id="line2d_32">
    <path d="M 46.079937 250.625183 
L 50.276469 233.286283 
L 54.473 229.13743 
L 58.669531 226.838729 
L 62.866063 225.101395 
L 67.062594 223.014842 
L 71.259125 221.6805 
L 75.455657 219.974374 
L 88.045251 214.287976 
L 96.438313 209.791904 
L 121.617501 196.694419 
L 130.010564 192.674951 
L 138.403627 188.989533 
L 159.386283 180.154686 
L 163.582815 178.207425 
L 167.779346 176.017146 
L 171.975877 173.185963 
L 176.172409 167.779184 
L 180.36894 153.133011 
L 184.565471 147.294195 
L 188.762003 136.380429 
L 192.958534 127.682973 
L 197.155065 121.538693 
L 201.351596 112.555988 
L 205.548128 109.859453 
L 209.744659 113.257694 
L 213.94119 96.59566 
L 218.137722 101.15298 
L 222.334253 106.770814 
L 226.530784 94.914341 
L 230.727316 98.853256 
L 234.923847 106.970218 
L 239.120378 102.103972 
L 243.31691 91.434296 
L 247.513441 86.767668 
L 251.709972 85.179528 
L 255.906504 135.709845 
L 260.103035 129.492866 
L 264.299566 118.897187 
L 268.496098 119.650697 
L 272.692629 119.749113 
L 276.88916 118.559965 
L 281.085692 118.753177 
L 285.282223 118.075612 
L 289.478754 118.418424 
L 293.675286 150.82947 
L 297.871817 147.732827 
L 302.068348 144.465664 
L 306.26488 140.707641 
L 310.461411 133.991032 
L 314.657942 124.188985 
L 318.854474 123.447178 
L 323.051005 111.087343 
L 327.247536 120.699698 
L 331.444068 121.154959 
L 335.640599 108.686938 
L 339.83713 118.965246 
L 344.033662 119.646199 
L 348.230193 107.497679 
L 352.426724 117.600871 
L 356.623255 118.400103 
L 360.819787 106.497551 
L 365.016318 153.169477 
L 369.212849 153.846956 
L 373.409381 150.315681 
L 377.605912 146.153167 
L 381.802443 146.407044 
L 385.998975 141.049986 
L 390.195506 135.140187 
L 394.392037 129.88308 
L 398.588569 125.728017 
L 402.7851 122.642725 
L 406.981631 130.817391 
L 411.178163 122.443156 
L 415.374694 116.182789 
L 419.571225 112.191292 
L 423.767757 108.931364 
L 427.964288 118.697471 
L 432.160819 117.521822 
L 436.357351 114.462201 
L 440.553882 97.331258 
L 444.750413 108.202406 
L 448.946945 171.683146 
L 453.143476 172.758863 
L 457.340007 171.127997 
L 461.536539 168.294617 
L 465.73307 162.821806 
L 469.929601 163.722738 
L 474.126133 162.238424 
L 482.519195 152.691993 
L 486.715727 153.203568 
L 490.912258 142.996058 
L 495.108789 136.824181 
L 499.305321 131.772212 
L 503.501852 129.10603 
L 507.698383 108.546035 
L 511.894914 104.605214 
L 516.091446 65.417784 
L 520.287977 58.102312 
L 524.484508 52.9179 
L 528.68104 49.057741 
L 616.808198 49.05222 
L 675.559636 49.052207 
L 675.559636 49.052207 
" clip-path="url(#pcc66983c48)" style="fill: none; stroke: #e69138; stroke-width: 1.5; stroke-linecap: square"/>
   </g>
   <g id="line2d_33">
    <path d="M 46.079937 270.689798 
L 50.276469 228.027476 
L 54.473 225.6495 
L 58.669531 223.532158 
L 62.866063 221.586719 
L 71.259125 218.643302 
L 75.455657 217.685139 
L 88.045251 213.199818 
L 92.241782 211.912297 
L 100.634845 208.361098 
L 109.027907 204.40414 
L 117.42097 200.517081 
L 130.010564 194.494699 
L 155.189752 182.434706 
L 159.386283 180.15641 
L 163.582815 177.592338 
L 167.779346 174.345334 
L 171.975877 168.993679 
L 176.172409 155.774164 
L 180.36894 148.468906 
L 184.565471 134.705188 
L 188.762003 123.014959 
L 192.958534 114.144922 
L 197.155065 114.638733 
L 201.351596 102.077183 
L 205.548128 72.328294 
L 209.744659 61.557535 
L 213.94119 57.714418 
L 218.137722 56.027778 
L 222.334253 55.716865 
L 226.530784 56.683755 
L 230.727316 57.093563 
L 234.923847 57.221397 
L 239.120378 60.230482 
L 243.31691 58.137975 
L 247.513441 65.02366 
L 251.709972 64.625671 
L 255.906504 65.725708 
L 260.103035 63.302906 
L 264.299566 60.0544 
L 268.496098 59.368865 
L 272.692629 62.252476 
L 276.88916 63.358136 
L 281.085692 69.111095 
L 285.282223 73.073557 
L 289.478754 76.484489 
L 293.675286 78.622816 
L 297.871817 95.726753 
L 302.068348 139.642468 
L 310.461411 133.115452 
L 314.657942 126.517586 
L 318.854474 122.527979 
L 323.051005 110.689777 
L 327.247536 104.552033 
L 331.444068 114.720749 
L 335.640599 115.235146 
L 339.83713 103.635908 
L 344.033662 112.566621 
L 348.230193 100.749913 
L 352.426724 98.362229 
L 356.623255 96.882131 
L 360.819787 95.934095 
L 365.016318 94.76608 
L 369.212849 93.460951 
L 373.409381 91.706331 
L 377.605912 89.18527 
L 381.802443 84.511775 
L 385.998975 88.038186 
L 390.195506 157.086047 
L 394.392037 157.54238 
L 398.588569 154.927732 
L 402.7851 151.338138 
L 406.981631 146.794143 
L 411.178163 149.561414 
L 415.374694 142.133289 
L 419.571225 134.095938 
L 423.767757 128.424396 
L 427.964288 136.112309 
L 432.160819 122.143315 
L 436.357351 115.151461 
L 440.553882 124.611436 
L 444.750413 121.352316 
L 448.946945 116.306106 
L 453.143476 96.018656 
L 457.340007 106.703498 
L 461.536539 108.026517 
L 465.73307 88.036837 
L 469.929601 90.804203 
L 474.126133 66.491571 
L 478.322664 61.736319 
L 482.519195 58.632679 
L 486.715727 56.15019 
L 490.912258 54.051929 
L 495.108789 52.214267 
L 499.305321 50.556355 
L 503.501852 49.164871 
L 507.698383 49.052204 
L 675.559636 49.052186 
L 675.559636 49.052186 
" clip-path="url(#pcc66983c48)" style="fill: none; stroke: #d9771f; stroke-width: 1.5; stroke-linecap: square"/>
   </g>
   <g id="line2d_34">
    <path d="M 46.079937 254.677127 
L 50.276469 220.806597 
L 54.473 218.635725 
L 58.669531 217.131663 
L 62.866063 215.836494 
L 83.848719 210.778374 
L 92.241782 208.494207 
L 100.634845 205.684443 
L 104.831376 204.151817 
L 113.224439 200.74419 
L 121.617501 196.899316 
L 134.207095 190.736795 
L 150.993221 182.460728 
L 155.189752 180.253418 
L 159.386283 177.910202 
L 163.582815 175.300161 
L 167.779346 171.964352 
L 171.975877 166.119799 
L 176.172409 159.377967 
L 180.36894 133.038195 
L 184.565471 130.995232 
L 188.762003 120.270405 
L 192.958534 112.168421 
L 197.155065 113.56245 
L 201.351596 95.964165 
L 205.548128 54.748614 
L 209.744659 49.553046 
L 213.94119 49.052308 
L 264.299566 49.05075 
L 268.496098 49.454426 
L 272.692629 56.874068 
L 276.88916 93.608128 
L 281.085692 78.359895 
L 285.282223 78.874673 
L 289.478754 138.999726 
L 293.675286 125.13304 
L 297.871817 112.799692 
L 302.068348 110.68343 
L 306.26488 93.631382 
L 310.461411 89.041877 
L 314.657942 87.609396 
L 318.854474 87.055698 
L 323.051005 100.491872 
L 327.247536 155.627856 
L 331.444068 153.595859 
L 339.83713 150.758428 
L 344.033662 148.782414 
L 352.426724 143.07555 
L 356.623255 140.010124 
L 360.819787 132.215094 
L 365.016318 122.803306 
L 369.212849 118.44218 
L 373.409381 105.679649 
L 377.605912 110.474717 
L 381.802443 96.402029 
L 390.195506 89.692369 
L 394.392037 88.286356 
L 402.7851 87.032977 
L 406.981631 105.113869 
L 411.178163 154.007372 
L 415.374694 150.596515 
L 419.571225 146.816431 
L 423.767757 147.313913 
L 427.964288 141.083221 
L 432.160819 133.907379 
L 436.357351 128.257179 
L 440.553882 135.708621 
L 444.750413 135.084477 
L 448.946945 121.958623 
L 453.143476 128.247509 
L 457.340007 113.909497 
L 461.536539 123.12429 
L 465.73307 121.610577 
L 469.929601 117.550037 
L 474.126133 98.066443 
L 478.322664 109.781085 
L 482.519195 111.014918 
L 486.715727 91.584868 
L 490.912258 92.686036 
L 495.108789 68.010331 
L 499.305321 62.352602 
L 503.501852 58.361787 
L 507.698383 55.073537 
L 511.894914 52.259775 
L 516.091446 49.760558 
L 520.287977 49.052202 
L 675.559636 49.052197 
L 675.559636 49.052197 
" clip-path="url(#pcc66983c48)" style="fill: none; stroke: #b85812; stroke-width: 1.5; stroke-linecap: square"/>
   </g>
   <g id="line2d_35">
    <path d="M 46.079937 246.545143 
L 50.276469 209.173607 
L 54.473 207.955499 
L 58.669531 206.96015 
L 67.062594 205.419724 
L 75.455657 204.040532 
L 79.652188 203.468937 
L 88.045251 202.108988 
L 96.438313 200.796454 
L 104.831376 199.287359 
L 113.224439 197.599867 
L 121.617501 195.60593 
L 130.010564 193.395102 
L 138.403627 190.919431 
L 146.796689 188.257039 
L 155.189752 185.30071 
L 159.386283 183.696553 
L 163.582815 181.967073 
L 167.779346 180.036193 
L 171.975877 177.40332 
L 176.172409 171.30826 
L 180.36894 163.726587 
L 184.565471 149.552427 
L 188.762003 136.157629 
L 192.958534 131.257356 
L 197.155065 112.988098 
L 201.351596 104.727783 
L 205.548128 74.703984 
L 209.744659 54.95694 
L 213.94119 49.1704 
L 218.137722 49.052255 
L 302.068348 49.081347 
L 306.26488 51.869921 
L 310.461411 54.484501 
L 314.657942 85.329487 
L 318.854474 148.123313 
L 323.051005 148.267307 
L 327.247536 145.849579 
L 331.444068 143.696905 
L 335.640599 143.933954 
L 339.83713 140.350277 
L 344.033662 135.975564 
L 348.230193 129.244433 
L 352.426724 123.996803 
L 356.623255 111.819328 
L 360.819787 102.955708 
L 365.016318 103.534202 
L 369.212849 95.453815 
L 373.409381 88.398966 
L 377.605912 84.996074 
L 381.802443 83.063617 
L 385.998975 81.847446 
L 390.195506 92.503917 
L 394.392037 94.528919 
L 398.588569 145.392808 
L 402.7851 150.409515 
L 415.374694 143.18716 
L 419.571225 145.817988 
L 423.767757 141.311659 
L 427.964288 136.414101 
L 432.160819 132.122796 
L 440.553882 124.531797 
L 444.750413 129.976015 
L 448.946945 121.003578 
L 453.143476 114.76022 
L 457.340007 110.238688 
L 461.536539 118.096832 
L 465.73307 116.049072 
L 469.929601 111.830553 
L 474.126133 94.398158 
L 478.322664 96.322252 
L 482.519195 93.940598 
L 486.715727 88.925619 
L 490.912258 73.306669 
L 495.108789 67.397027 
L 499.305321 62.91381 
L 503.501852 59.116655 
L 507.698383 55.932307 
L 511.894914 53.184351 
L 516.091446 50.805596 
L 520.287977 49.052191 
L 675.559636 49.052147 
L 675.559636 49.052147 
" clip-path="url(#pcc66983c48)" style="fill: none; stroke: #7a3510; stroke-width: 1.5; stroke-linecap: square"/>
   </g>
   <g id="line2d_36">
    <path d="M 171.975877 288.182896 
L 171.975877 42.507986 
" clip-path="url(#pcc66983c48)" style="fill: none; stroke-dasharray: 3.33,1.44; stroke-dashoffset: 0; stroke: #7d858c; stroke-width: 0.9"/>
   </g>
   <g id="patch_3">
    <path d="M 46.079937 288.182896 
L 46.079937 42.507986 
" style="fill: none; stroke: #b9c0c7; stroke-width: 0.8; stroke-linejoin: miter; stroke-linecap: square"/>
   </g>
   <g id="patch_4">
    <path d="M 46.079937 288.182896 
L 675.559636 288.182896 
" style="fill: none; stroke: #b9c0c7; stroke-width: 0.8; stroke-linejoin: miter; stroke-linecap: square"/>
   </g>
   <g id="text_17">
    <!-- 30 V -->
    <g style="fill: #666666" transform="translate(178.270674 260.894325) scale(0.08 -0.08)">
     <use xlink:href="#ArialMT-33"/>
     <use xlink:href="#ArialMT-30" x="55.615234"/>
     <use xlink:href="#ArialMT-20" x="111.230469"/>
     <use xlink:href="#ArialMT-56" x="139.013672"/>
    </g>
   </g>
   <g id="legend_1">
    <g id="text_18">
     <!-- Dose (krad(Si)) -->
     <g style="fill: #343434" transform="translate(333.706037 16.22375) scale(0.08 -0.08)">
      <defs>
       <path id="ArialMT-6b" d="M 425 0 
L 425 4581 
L 988 4581 
L 988 1969 
L 2319 3319 
L 3047 3319 
L 1778 2088 
L 3175 0 
L 2481 0 
L 1384 1697 
L 988 1316 
L 988 0 
L 425 0 
z
" transform="scale(0.015625)"/>
      </defs>
      <use xlink:href="#ArialMT-44"/>
      <use xlink:href="#ArialMT-6f" x="72.216797"/>
      <use xlink:href="#ArialMT-73" x="127.832031"/>
      <use xlink:href="#ArialMT-65" x="177.832031"/>
      <use xlink:href="#ArialMT-20" x="233.447266"/>
      <use xlink:href="#ArialMT-28" x="261.230469"/>
      <use xlink:href="#ArialMT-6b" x="294.53125"/>
      <use xlink:href="#ArialMT-72" x="344.53125"/>
      <use xlink:href="#ArialMT-61" x="377.832031"/>
      <use xlink:href="#ArialMT-64" x="433.447266"/>
      <use xlink:href="#ArialMT-28" x="489.0625"/>
      <use xlink:href="#ArialMT-53" x="522.363281"/>
      <use xlink:href="#ArialMT-69" x="589.0625"/>
      <use xlink:href="#ArialMT-29" x="611.279297"/>
      <use xlink:href="#ArialMT-29" x="644.580078"/>
     </g>
    </g>
    <g id="line2d_37">
     <path d="M 205.502912 24.83375 
L 213.502912 24.83375 
L 221.502912 24.83375 
" style="fill: none; stroke: #fde9d2; stroke-width: 1.5; stroke-linecap: square"/>
    </g>
    <g id="text_19">
     <!-- 0 -->
     <g style="fill: #343434" transform="translate(227.902912 27.63375) scale(0.08 -0.08)">
      <use xlink:href="#ArialMT-30"/>
     </g>
    </g>
    <g id="line2d_38">
     <path d="M 248.351662 24.83375 
L 256.351662 24.83375 
L 264.351662 24.83375 
" style="fill: none; stroke: #f7c98f; stroke-width: 1.5; stroke-linecap: square"/>
    </g>
    <g id="text_20">
     <!-- 10 -->
     <g style="fill: #343434" transform="translate(270.751662 27.63375) scale(0.08 -0.08)">
      <use xlink:href="#ArialMT-31"/>
      <use xlink:href="#ArialMT-30" x="55.615234"/>
     </g>
    </g>
    <g id="line2d_39">
     <path d="M 295.649162 24.83375 
L 303.649162 24.83375 
L 311.649162 24.83375 
" style="fill: none; stroke: #f2ad62; stroke-width: 1.5; stroke-linecap: square"/>
    </g>
    <g id="text_21">
     <!-- 20 -->
     <g style="fill: #343434" transform="translate(318.049162 27.63375) scale(0.08 -0.08)">
      <use xlink:href="#ArialMT-32"/>
      <use xlink:href="#ArialMT-30" x="55.615234"/>
     </g>
    </g>
    <g id="line2d_40">
     <path d="M 342.946662 24.83375 
L 350.946662 24.83375 
L 358.946662 24.83375 
" style="fill: none; stroke: #e69138; stroke-width: 1.5; stroke-linecap: square"/>
    </g>
    <g id="text_22">
     <!-- 30 -->
     <g style="fill: #343434" transform="translate(365.346662 27.63375) scale(0.08 -0.08)">
      <use xlink:href="#ArialMT-33"/>
      <use xlink:href="#ArialMT-30" x="55.615234"/>
     </g>
    </g>
    <g id="line2d_41">
     <path d="M 390.244162 24.83375 
L 398.244162 24.83375 
L 406.244162 24.83375 
" style="fill: none; stroke: #d9771f; stroke-width: 1.5; stroke-linecap: square"/>
    </g>
    <g id="text_23">
     <!-- 40 -->
     <g style="fill: #343434" transform="translate(412.644162 27.63375) scale(0.08 -0.08)">
      <use xlink:href="#ArialMT-34"/>
      <use xlink:href="#ArialMT-30" x="55.615234"/>
     </g>
    </g>
    <g id="line2d_42">
     <path d="M 437.541662 24.83375 
L 445.541662 24.83375 
L 453.541662 24.83375 
" style="fill: none; stroke: #b85812; stroke-width: 1.5; stroke-linecap: square"/>
    </g>
    <g id="text_24">
     <!-- 50 -->
     <g style="fill: #343434" transform="translate(459.941662 27.63375) scale(0.08 -0.08)">
      <use xlink:href="#ArialMT-35"/>
      <use xlink:href="#ArialMT-30" x="55.615234"/>
     </g>
    </g>
    <g id="line2d_43">
     <path d="M 484.839162 24.83375 
L 492.839162 24.83375 
L 500.839162 24.83375 
" style="fill: none; stroke: #7a3510; stroke-width: 1.5; stroke-linecap: square"/>
    </g>
    <g id="text_25">
     <!-- 60 -->
     <g style="fill: #343434" transform="translate(507.239162 27.63375) scale(0.08 -0.08)">
      <use xlink:href="#ArialMT-36"/>
      <use xlink:href="#ArialMT-30" x="55.615234"/>
     </g>
    </g>
   </g>
  </g>
 </g>
 <defs>
  <clipPath id="pcc66983c48">
   <rect x="46.079937" y="42.507986" width="629.479699" height="245.67491"/>
  </clipPath>
 </defs>
</svg>
