<?xml version="1.0" encoding="utf-8" standalone="no"?>
<!DOCTYPE svg PUBLIC "-//W3C//DTD SVG 1.1//EN"
  "http://www.w3.org/Graphics/SVG/1.1/DTD/svg11.dtd">
<svg xmlns:xlink="http://www.w3.org/1999/xlink" width="682.759636pt" height="322.327989pt" viewBox="0 0 682.759636 322.327989" xmlns="http://www.w3.org/2000/svg" version="1.1">
 <metadata>
  <rdf:RDF xmlns:dc="http://purl.org/dc/elements/1.1/" xmlns:cc="http://creativecommons.org/ns#" xmlns:rdf="http://www.w3.org/1999/02/22-rdf-syntax-ns#">
   <cc:Work>
    <dc:type rdf:resource="http://purl.org/dc/dcmitype/StillImage"/>
    <dc:date>2026-07-22T19:01:06.455645</dc:date>
    <dc:format>image/svg+xml</dc:format>
    <dc:creator>
     <cc:Agent>
      <dc:title>Matplotlib v3.9.2, https://matplotlib.org/</dc:title>
     </cc:Agent>
    </dc:creator>
   </cc:Work>
  </rdf:RDF>
 </metadata>
 <defs>
  <style type="text/css">*{stroke-linejoin: round; stroke-linecap: butt}</style>
 </defs>
 <g id="figure_1">
  <g id="patch_1">
   <path d="M 0 322.327989 
L 682.759636 322.327989 
L 682.759636 0 
L 0 0 
z
" style="fill: #ffffff"/>
  </g>
  <g id="axes_1">
   <g id="patch_2">
    <path d="M 46.079937 288.182896 
L 675.559636 288.182896 
L 675.559636 42.507986 
L 46.079937 42.507986 
z
" style="fill: #ffffff"/>
   </g>
   <g id="matplotlib.axis_1">
    <g id="xtick_1">
     <g id="line2d_1">
      <path d="M 46.079937 288.182896 
L 46.079937 42.507986 
" clip-path="url(#p1a2656289c)" style="fill: none; stroke: #d9dee3; stroke-opacity: 0.75; stroke-width: 0.65; stroke-linecap: square"/>
     </g>
     <g id="line2d_2">
      <defs>
       <path id="m596ff7ba6d" d="M 0 0 
L 0 3.5 
" style="stroke: #666666; stroke-width: 0.8"/>
      </defs>
      <g>
       <use xlink:href="#m596ff7ba6d" x="46.079937" y="288.182896" style="fill: #666666; stroke: #666666; stroke-width: 0.8"/>
      </g>
     </g>
     <g id="text_1">
      <!-- 0 -->
      <g style="fill: #666666" transform="translate(43.799953 301.052302) scale(0.082 -0.082)">
       <defs>
        <path id="ArialMT-30" d="M 266 2259 
Q 266 3072 433 3567 
Q 600 4063 929 4331 
Q 1259 4600 1759 4600 
Q 2128 4600 2406 4451 
Q 2684 4303 2865 4023 
Q 3047 3744 3150 3342 
Q 3253 2941 3253 2259 
Q 3253 1453 3087 958 
Q 2922 463 2592 192 
Q 2263 -78 1759 -78 
Q 1097 -78 719 397 
Q 266 969 266 2259 
z
M 844 2259 
Q 844 1131 1108 757 
Q 1372 384 1759 384 
Q 2147 384 2411 759 
Q 2675 1134 2675 2259 
Q 2675 3391 2411 3762 
Q 2147 4134 1753 4134 
Q 1366 4134 1134 3806 
Q 844 3388 844 2259 
z
" transform="scale(0.015625)"/>
       </defs>
       <use xlink:href="#ArialMT-30"/>
      </g>
     </g>
    </g>
    <g id="xtick_2">
     <g id="line2d_3">
      <path d="M 130.010564 288.182896 
L 130.010564 42.507986 
" clip-path="url(#p1a2656289c)" style="fill: none; stroke: #d9dee3; stroke-opacity: 0.75; stroke-width: 0.65; stroke-linecap: square"/>
     </g>
     <g id="line2d_4">
      <g>
       <use xlink:href="#m596ff7ba6d" x="130.010564" y="288.182896" style="fill: #666666; stroke: #666666; stroke-width: 0.8"/>
      </g>
     </g>
     <g id="text_2">
      <!-- 20 -->
      <g style="fill: #666666" transform="translate(125.450595 301.052302) scale(0.082 -0.082)">
       <defs>
        <path id="ArialMT-32" d="M 3222 541 
L 3222 0 
L 194 0 
Q 188 203 259 391 
Q 375 700 629 1000 
Q 884 1300 1366 1694 
Q 2113 2306 2375 2664 
Q 2638 3022 2638 3341 
Q 2638 3675 2398 3904 
Q 2159 4134 1775 4134 
Q 1369 4134 1125 3890 
Q 881 3647 878 3216 
L 300 3275 
Q 359 3922 746 4261 
Q 1134 4600 1788 4600 
Q 2447 4600 2831 4234 
Q 3216 3869 3216 3328 
Q 3216 3053 3103 2787 
Q 2991 2522 2730 2228 
Q 2469 1934 1863 1422 
Q 1356 997 1212 845 
Q 1069 694 975 541 
L 3222 541 
z
" transform="scale(0.015625)"/>
       </defs>
       <use xlink:href="#ArialMT-32"/>
       <use xlink:href="#ArialMT-30" x="55.615234"/>
      </g>
     </g>
    </g>
    <g id="xtick_3">
     <g id="line2d_5">
      <path d="M 213.94119 288.182896 
L 213.94119 42.507986 
" clip-path="url(#p1a2656289c)" style="fill: none; stroke: #d9dee3; stroke-opacity: 0.75; stroke-width: 0.65; stroke-linecap: square"/>
     </g>
     <g id="line2d_6">
      <g>
       <use xlink:href="#m596ff7ba6d" x="213.94119" y="288.182896" style="fill: #666666; stroke: #666666; stroke-width: 0.8"/>
      </g>
     </g>
     <g id="text_3">
      <!-- 40 -->
      <g style="fill: #666666" transform="translate(209.381222 301.052302) scale(0.082 -0.082)">
       <defs>
        <path id="ArialMT-34" d="M 2069 0 
L 2069 1097 
L 81 1097 
L 81 1613 
L 2172 4581 
L 2631 4581 
L 2631 1613 
L 3250 1613 
L 3250 1097 
L 2631 1097 
L 2631 0 
L 2069 0 
z
M 2069 1613 
L 2069 3678 
L 634 1613 
L 2069 1613 
z
" transform="scale(0.015625)"/>
       </defs>
       <use xlink:href="#ArialMT-34"/>
       <use xlink:href="#ArialMT-30" x="55.615234"/>
      </g>
     </g>
    </g>
    <g id="xtick_4">
     <g id="line2d_7">
      <path d="M 297.871817 288.182896 
L 297.871817 42.507986 
" clip-path="url(#p1a2656289c)" style="fill: none; stroke: #d9dee3; stroke-opacity: 0.75; stroke-width: 0.65; stroke-linecap: square"/>
     </g>
     <g id="line2d_8">
      <g>
       <use xlink:href="#m596ff7ba6d" x="297.871817" y="288.182896" style="fill: #666666; stroke: #666666; stroke-width: 0.8"/>
      </g>
     </g>
     <g id="text_4">
      <!-- 60 -->
      <g style="fill: #666666" transform="translate(293.311848 301.052302) scale(0.082 -0.082)">
       <defs>
        <path id="ArialMT-36" d="M 3184 3459 
L 2625 3416 
Q 2550 3747 2413 3897 
Q 2184 4138 1850 4138 
Q 1581 4138 1378 3988 
Q 1113 3794 959 3422 
Q 806 3050 800 2363 
Q 1003 2672 1297 2822 
Q 1591 2972 1913 2972 
Q 2475 2972 2870 2558 
Q 3266 2144 3266 1488 
Q 3266 1056 3080 686 
Q 2894 316 2569 119 
Q 2244 -78 1831 -78 
Q 1128 -78 684 439 
Q 241 956 241 2144 
Q 241 3472 731 4075 
Q 1159 4600 1884 4600 
Q 2425 4600 2770 4297 
Q 3116 3994 3184 3459 
z
M 888 1484 
Q 888 1194 1011 928 
Q 1134 663 1356 523 
Q 1578 384 1822 384 
Q 2178 384 2434 671 
Q 2691 959 2691 1453 
Q 2691 1928 2437 2201 
Q 2184 2475 1800 2475 
Q 1419 2475 1153 2201 
Q 888 1928 888 1484 
z
" transform="scale(0.015625)"/>
       </defs>
       <use xlink:href="#ArialMT-36"/>
       <use xlink:href="#ArialMT-30" x="55.615234"/>
      </g>
     </g>
    </g>
    <g id="xtick_5">
     <g id="line2d_9">
      <path d="M 381.802443 288.182896 
L 381.802443 42.507986 
" clip-path="url(#p1a2656289c)" style="fill: none; stroke: #d9dee3; stroke-opacity: 0.75; stroke-width: 0.65; stroke-linecap: square"/>
     </g>
     <g id="line2d_10">
      <g>
       <use xlink:href="#m596ff7ba6d" x="381.802443" y="288.182896" style="fill: #666666; stroke: #666666; stroke-width: 0.8"/>
      </g>
     </g>
     <g id="text_5">
      <!-- 80 -->
      <g style="fill: #666666" transform="translate(377.242475 301.052302) scale(0.082 -0.082)">
       <defs>
        <path id="ArialMT-38" d="M 1131 2484 
Q 781 2613 612 2850 
Q 444 3088 444 3419 
Q 444 3919 803 4259 
Q 1163 4600 1759 4600 
Q 2359 4600 2725 4251 
Q 3091 3903 3091 3403 
Q 3091 3084 2923 2848 
Q 2756 2613 2416 2484 
Q 2838 2347 3058 2040 
Q 3278 1734 3278 1309 
Q 3278 722 2862 322 
Q 2447 -78 1769 -78 
Q 1091 -78 675 323 
Q 259 725 259 1325 
Q 259 1772 486 2073 
Q 713 2375 1131 2484 
z
M 1019 3438 
Q 1019 3113 1228 2906 
Q 1438 2700 1772 2700 
Q 2097 2700 2305 2904 
Q 2513 3109 2513 3406 
Q 2513 3716 2298 3927 
Q 2084 4138 1766 4138 
Q 1444 4138 1231 3931 
Q 1019 3725 1019 3438 
z
M 838 1322 
Q 838 1081 952 856 
Q 1066 631 1291 507 
Q 1516 384 1775 384 
Q 2178 384 2440 643 
Q 2703 903 2703 1303 
Q 2703 1709 2433 1975 
Q 2163 2241 1756 2241 
Q 1359 2241 1098 1978 
Q 838 1716 838 1322 
z
" transform="scale(0.015625)"/>
       </defs>
       <use xlink:href="#ArialMT-38"/>
       <use xlink:href="#ArialMT-30" x="55.615234"/>
      </g>
     </g>
    </g>
    <g id="xtick_6">
     <g id="line2d_11">
      <path d="M 465.73307 288.182896 
L 465.73307 42.507986 
" clip-path="url(#p1a2656289c)" style="fill: none; stroke: #d9dee3; stroke-opacity: 0.75; stroke-width: 0.65; stroke-linecap: square"/>
     </g>
     <g id="line2d_12">
      <g>
       <use xlink:href="#m596ff7ba6d" x="465.73307" y="288.182896" style="fill: #666666; stroke: #666666; stroke-width: 0.8"/>
      </g>
     </g>
     <g id="text_6">
      <!-- 100 -->
      <g style="fill: #666666" transform="translate(458.893117 301.052302) scale(0.082 -0.082)">
       <defs>
        <path id="ArialMT-31" d="M 2384 0 
L 1822 0 
L 1822 3584 
Q 1619 3391 1289 3197 
Q 959 3003 697 2906 
L 697 3450 
Q 1169 3672 1522 3987 
Q 1875 4303 2022 4600 
L 2384 4600 
L 2384 0 
z
" transform="scale(0.015625)"/>
       </defs>
       <use xlink:href="#ArialMT-31"/>
       <use xlink:href="#ArialMT-30" x="55.615234"/>
       <use xlink:href="#ArialMT-30" x="111.230469"/>
      </g>
     </g>
    </g>
    <g id="xtick_7">
     <g id="line2d_13">
      <path d="M 549.663696 288.182896 
L 549.663696 42.507986 
" clip-path="url(#p1a2656289c)" style="fill: none; stroke: #d9dee3; stroke-opacity: 0.75; stroke-width: 0.65; stroke-linecap: square"/>
     </g>
     <g id="line2d_14">
      <g>
       <use xlink:href="#m596ff7ba6d" x="549.663696" y="288.182896" style="fill: #666666; stroke: #666666; stroke-width: 0.8"/>
      </g>
     </g>
     <g id="text_7">
      <!-- 120 -->
      <g style="fill: #666666" transform="translate(542.823743 301.052302) scale(0.082 -0.082)">
       <use xlink:href="#ArialMT-31"/>
       <use xlink:href="#ArialMT-32" x="55.615234"/>
       <use xlink:href="#ArialMT-30" x="111.230469"/>
      </g>
     </g>
    </g>
    <g id="xtick_8">
     <g id="line2d_15">
      <path d="M 633.594323 288.182896 
L 633.594323 42.507986 
" clip-path="url(#p1a2656289c)" style="fill: none; stroke: #d9dee3; stroke-opacity: 0.75; stroke-width: 0.65; stroke-linecap: square"/>
     </g>
     <g id="line2d_16">
      <g>
       <use xlink:href="#m596ff7ba6d" x="633.594323" y="288.182896" style="fill: #666666; stroke: #666666; stroke-width: 0.8"/>
      </g>
     </g>
     <g id="text_8">
      <!-- 140 -->
      <g style="fill: #666666" transform="translate(626.75437 301.052302) scale(0.082 -0.082)">
       <use xlink:href="#ArialMT-31"/>
       <use xlink:href="#ArialMT-34" x="55.615234"/>
       <use xlink:href="#ArialMT-30" x="111.230469"/>
      </g>
     </g>
    </g>
    <g id="text_9">
     <!-- Drain voltage, VDS (V) -->
     <g style="fill: #666666" transform="translate(315.305099 313.233771) scale(0.09 -0.09)">
      <defs>
       <path id="ArialMT-44" d="M 494 0 
L 494 4581 
L 2072 4581 
Q 2606 4581 2888 4516 
Q 3281 4425 3559 4188 
Q 3922 3881 4101 3404 
Q 4281 2928 4281 2316 
Q 4281 1794 4159 1391 
Q 4038 988 3847 723 
Q 3656 459 3429 307 
Q 3203 156 2883 78 
Q 2563 0 2147 0 
L 494 0 
z
M 1100 541 
L 2078 541 
Q 2531 541 2789 625 
Q 3047 709 3200 863 
Q 3416 1078 3536 1442 
Q 3656 1806 3656 2325 
Q 3656 3044 3420 3430 
Q 3184 3816 2847 3947 
Q 2603 4041 2063 4041 
L 1100 4041 
L 1100 541 
z
" transform="scale(0.015625)"/>
       <path id="ArialMT-72" d="M 416 0 
L 416 3319 
L 922 3319 
L 922 2816 
Q 1116 3169 1280 3281 
Q 1444 3394 1641 3394 
Q 1925 3394 2219 3213 
L 2025 2691 
Q 1819 2813 1613 2813 
Q 1428 2813 1281 2702 
Q 1134 2591 1072 2394 
Q 978 2094 978 1738 
L 978 0 
L 416 0 
z
" transform="scale(0.015625)"/>
       <path id="ArialMT-61" d="M 2588 409 
Q 2275 144 1986 34 
Q 1697 -75 1366 -75 
Q 819 -75 525 192 
Q 231 459 231 875 
Q 231 1119 342 1320 
Q 453 1522 633 1644 
Q 813 1766 1038 1828 
Q 1203 1872 1538 1913 
Q 2219 1994 2541 2106 
Q 2544 2222 2544 2253 
Q 2544 2597 2384 2738 
Q 2169 2928 1744 2928 
Q 1347 2928 1158 2789 
Q 969 2650 878 2297 
L 328 2372 
Q 403 2725 575 2942 
Q 747 3159 1072 3276 
Q 1397 3394 1825 3394 
Q 2250 3394 2515 3294 
Q 2781 3194 2906 3042 
Q 3031 2891 3081 2659 
Q 3109 2516 3109 2141 
L 3109 1391 
Q 3109 606 3145 398 
Q 3181 191 3288 0 
L 2700 0 
Q 2613 175 2588 409 
z
M 2541 1666 
Q 2234 1541 1622 1453 
Q 1275 1403 1131 1340 
Q 988 1278 909 1158 
Q 831 1038 831 891 
Q 831 666 1001 516 
Q 1172 366 1500 366 
Q 1825 366 2078 508 
Q 2331 650 2450 897 
Q 2541 1088 2541 1459 
L 2541 1666 
z
" transform="scale(0.015625)"/>
       <path id="ArialMT-69" d="M 425 3934 
L 425 4581 
L 988 4581 
L 988 3934 
L 425 3934 
z
M 425 0 
L 425 3319 
L 988 3319 
L 988 0 
L 425 0 
z
" transform="scale(0.015625)"/>
       <path id="ArialMT-6e" d="M 422 0 
L 422 3319 
L 928 3319 
L 928 2847 
Q 1294 3394 1984 3394 
Q 2284 3394 2536 3286 
Q 2788 3178 2913 3003 
Q 3038 2828 3088 2588 
Q 3119 2431 3119 2041 
L 3119 0 
L 2556 0 
L 2556 2019 
Q 2556 2363 2490 2533 
Q 2425 2703 2258 2804 
Q 2091 2906 1866 2906 
Q 1506 2906 1245 2678 
Q 984 2450 984 1813 
L 984 0 
L 422 0 
z
" transform="scale(0.015625)"/>
       <path id="ArialMT-20" transform="scale(0.015625)"/>
       <path id="ArialMT-76" d="M 1344 0 
L 81 3319 
L 675 3319 
L 1388 1331 
Q 1503 1009 1600 663 
Q 1675 925 1809 1294 
L 2547 3319 
L 3125 3319 
L 1869 0 
L 1344 0 
z
" transform="scale(0.015625)"/>
       <path id="ArialMT-6f" d="M 213 1659 
Q 213 2581 725 3025 
Q 1153 3394 1769 3394 
Q 2453 3394 2887 2945 
Q 3322 2497 3322 1706 
Q 3322 1066 3130 698 
Q 2938 331 2570 128 
Q 2203 -75 1769 -75 
Q 1072 -75 642 372 
Q 213 819 213 1659 
z
M 791 1659 
Q 791 1022 1069 705 
Q 1347 388 1769 388 
Q 2188 388 2466 706 
Q 2744 1025 2744 1678 
Q 2744 2294 2464 2611 
Q 2184 2928 1769 2928 
Q 1347 2928 1069 2612 
Q 791 2297 791 1659 
z
" transform="scale(0.015625)"/>
       <path id="ArialMT-6c" d="M 409 0 
L 409 4581 
L 972 4581 
L 972 0 
L 409 0 
z
" transform="scale(0.015625)"/>
       <path id="ArialMT-74" d="M 1650 503 
L 1731 6 
Q 1494 -44 1306 -44 
Q 1000 -44 831 53 
Q 663 150 594 308 
Q 525 466 525 972 
L 525 2881 
L 113 2881 
L 113 3319 
L 525 3319 
L 525 4141 
L 1084 4478 
L 1084 3319 
L 1650 3319 
L 1650 2881 
L 1084 2881 
L 1084 941 
Q 1084 700 1114 631 
Q 1144 563 1211 522 
Q 1278 481 1403 481 
Q 1497 481 1650 503 
z
" transform="scale(0.015625)"/>
       <path id="ArialMT-67" d="M 319 -275 
L 866 -356 
Q 900 -609 1056 -725 
Q 1266 -881 1628 -881 
Q 2019 -881 2231 -725 
Q 2444 -569 2519 -288 
Q 2563 -116 2559 434 
Q 2191 0 1641 0 
Q 956 0 581 494 
Q 206 988 206 1678 
Q 206 2153 378 2554 
Q 550 2956 876 3175 
Q 1203 3394 1644 3394 
Q 2231 3394 2613 2919 
L 2613 3319 
L 3131 3319 
L 3131 450 
Q 3131 -325 2973 -648 
Q 2816 -972 2473 -1159 
Q 2131 -1347 1631 -1347 
Q 1038 -1347 672 -1080 
Q 306 -813 319 -275 
z
M 784 1719 
Q 784 1066 1043 766 
Q 1303 466 1694 466 
Q 2081 466 2343 764 
Q 2606 1063 2606 1700 
Q 2606 2309 2336 2618 
Q 2066 2928 1684 2928 
Q 1309 2928 1046 2623 
Q 784 2319 784 1719 
z
" transform="scale(0.015625)"/>
       <path id="ArialMT-65" d="M 2694 1069 
L 3275 997 
Q 3138 488 2766 206 
Q 2394 -75 1816 -75 
Q 1088 -75 661 373 
Q 234 822 234 1631 
Q 234 2469 665 2931 
Q 1097 3394 1784 3394 
Q 2450 3394 2872 2941 
Q 3294 2488 3294 1666 
Q 3294 1616 3291 1516 
L 816 1516 
Q 847 969 1125 678 
Q 1403 388 1819 388 
Q 2128 388 2347 550 
Q 2566 713 2694 1069 
z
M 847 1978 
L 2700 1978 
Q 2663 2397 2488 2606 
Q 2219 2931 1791 2931 
Q 1403 2931 1139 2672 
Q 875 2413 847 1978 
z
" transform="scale(0.015625)"/>
       <path id="ArialMT-2c" d="M 569 0 
L 569 641 
L 1209 641 
L 1209 0 
Q 1209 -353 1084 -570 
Q 959 -788 688 -906 
L 531 -666 
Q 709 -588 793 -436 
Q 878 -284 888 0 
L 569 0 
z
" transform="scale(0.015625)"/>
       <path id="ArialMT-56" d="M 1803 0 
L 28 4581 
L 684 4581 
L 1875 1253 
Q 2019 853 2116 503 
Q 2222 878 2363 1253 
L 3600 4581 
L 4219 4581 
L 2425 0 
L 1803 0 
z
" transform="scale(0.015625)"/>
       <path id="ArialMT-53" d="M 288 1472 
L 859 1522 
Q 900 1178 1048 958 
Q 1197 738 1509 602 
Q 1822 466 2213 466 
Q 2559 466 2825 569 
Q 3091 672 3220 851 
Q 3350 1031 3350 1244 
Q 3350 1459 3225 1620 
Q 3100 1781 2813 1891 
Q 2628 1963 1997 2114 
Q 1366 2266 1113 2400 
Q 784 2572 623 2826 
Q 463 3081 463 3397 
Q 463 3744 659 4045 
Q 856 4347 1234 4503 
Q 1613 4659 2075 4659 
Q 2584 4659 2973 4495 
Q 3363 4331 3572 4012 
Q 3781 3694 3797 3291 
L 3216 3247 
Q 3169 3681 2898 3903 
Q 2628 4125 2100 4125 
Q 1550 4125 1298 3923 
Q 1047 3722 1047 3438 
Q 1047 3191 1225 3031 
Q 1400 2872 2139 2705 
Q 2878 2538 3153 2413 
Q 3553 2228 3743 1945 
Q 3934 1663 3934 1294 
Q 3934 928 3725 604 
Q 3516 281 3123 101 
Q 2731 -78 2241 -78 
Q 1619 -78 1198 103 
Q 778 284 539 648 
Q 300 1013 288 1472 
z
" transform="scale(0.015625)"/>
       <path id="ArialMT-28" d="M 1497 -1347 
Q 1031 -759 709 28 
Q 388 816 388 1659 
Q 388 2403 628 3084 
Q 909 3875 1497 4659 
L 1900 4659 
Q 1522 4009 1400 3731 
Q 1209 3300 1100 2831 
Q 966 2247 966 1656 
Q 966 153 1900 -1347 
L 1497 -1347 
z
" transform="scale(0.015625)"/>
       <path id="ArialMT-29" d="M 791 -1347 
L 388 -1347 
Q 1322 153 1322 1656 
Q 1322 2244 1188 2822 
Q 1081 3291 891 3722 
Q 769 4003 388 4659 
L 791 4659 
Q 1378 3875 1659 3084 
Q 1900 2403 1900 1659 
Q 1900 816 1576 28 
Q 1253 -759 791 -1347 
z
" transform="scale(0.015625)"/>
      </defs>
      <use xlink:href="#ArialMT-44"/>
      <use xlink:href="#ArialMT-72" x="72.216797"/>
      <use xlink:href="#ArialMT-61" x="105.517578"/>
      <use xlink:href="#ArialMT-69" x="161.132812"/>
      <use xlink:href="#ArialMT-6e" x="183.349609"/>
      <use xlink:href="#ArialMT-20" x="238.964844"/>
      <use xlink:href="#ArialMT-76" x="266.748047"/>
      <use xlink:href="#ArialMT-6f" x="316.748047"/>
      <use xlink:href="#ArialMT-6c" x="372.363281"/>
      <use xlink:href="#ArialMT-74" x="394.580078"/>
      <use xlink:href="#ArialMT-61" x="422.363281"/>
      <use xlink:href="#ArialMT-67" x="477.978516"/>
      <use xlink:href="#ArialMT-65" x="533.59375"/>
      <use xlink:href="#ArialMT-2c" x="589.208984"/>
      <use xlink:href="#ArialMT-20" x="616.992188"/>
      <use xlink:href="#ArialMT-56" x="644.775391"/>
      <use xlink:href="#ArialMT-44" x="711.474609"/>
      <use xlink:href="#ArialMT-53" x="783.691406"/>
      <use xlink:href="#ArialMT-20" x="850.390625"/>
      <use xlink:href="#ArialMT-28" x="878.173828"/>
      <use xlink:href="#ArialMT-56" x="911.474609"/>
      <use xlink:href="#ArialMT-29" x="978.173828"/>
     </g>
    </g>
   </g>
   <g id="matplotlib.axis_2">
    <g id="ytick_1">
     <g id="line2d_17">
      <path d="M 46.079937 288.182896 
L 675.559636 288.182896 
" clip-path="url(#p1a2656289c)" style="fill: none; stroke: #d9dee3; stroke-opacity: 0.75; stroke-width: 0.65; stroke-linecap: square"/>
     </g>
     <g id="line2d_18">
      <defs>
       <path id="m520909559e" d="M 0 0 
L -3.5 0 
" style="stroke: #666666; stroke-width: 0.8"/>
      </defs>
      <g>
       <use xlink:href="#m520909559e" x="46.079937" y="288.182896" style="fill: #666666; stroke: #666666; stroke-width: 0.8"/>
      </g>
     </g>
     <g id="text_10">
      <!-- $\mathdefault{10^{-13}}$ -->
      <g style="fill: #666666" transform="translate(19.645938 292.411021) scale(0.082 -0.082)">
       <defs>
        <path id="ArialMT-2212" d="M 3381 1997 
L 356 1997 
L 356 2522 
L 3381 2522 
L 3381 1997 
z
" transform="scale(0.015625)"/>
        <path id="ArialMT-33" d="M 269 1209 
L 831 1284 
Q 928 806 1161 595 
Q 1394 384 1728 384 
Q 2125 384 2398 659 
Q 2672 934 2672 1341 
Q 2672 1728 2419 1979 
Q 2166 2231 1775 2231 
Q 1616 2231 1378 2169 
L 1441 2663 
Q 1497 2656 1531 2656 
Q 1891 2656 2178 2843 
Q 2466 3031 2466 3422 
Q 2466 3731 2256 3934 
Q 2047 4138 1716 4138 
Q 1388 4138 1169 3931 
Q 950 3725 888 3313 
L 325 3413 
Q 428 3978 793 4289 
Q 1159 4600 1703 4600 
Q 2078 4600 2393 4439 
Q 2709 4278 2876 4000 
Q 3044 3722 3044 3409 
Q 3044 3113 2884 2869 
Q 2725 2625 2413 2481 
Q 2819 2388 3044 2092 
Q 3269 1797 3269 1353 
Q 3269 753 2831 336 
Q 2394 -81 1725 -81 
Q 1122 -81 723 278 
Q 325 638 269 1209 
z
" transform="scale(0.015625)"/>
       </defs>
       <use xlink:href="#ArialMT-31" transform="translate(0 0.99375)"/>
       <use xlink:href="#ArialMT-30" transform="translate(55.615234 0.99375)"/>
       <use xlink:href="#ArialMT-2212" transform="translate(112.972813 70.6875) scale(0.7)"/>
       <use xlink:href="#ArialMT-31" transform="translate(153.851719 70.6875) scale(0.7)"/>
       <use xlink:href="#ArialMT-33" transform="translate(192.782383 70.6875) scale(0.7)"/>
      </g>
     </g>
    </g>
    <g id="ytick_2">
     <g id="line2d_19">
      <path d="M 46.079937 244.704574 
L 675.559636 244.704574 
" clip-path="url(#p1a2656289c)" style="fill: none; stroke: #d9dee3; stroke-opacity: 0.75; stroke-width: 0.65; stroke-linecap: square"/>
     </g>
     <g id="line2d_20">
      <g>
       <use xlink:href="#m520909559e" x="46.079937" y="244.704574" style="fill: #666666; stroke: #666666; stroke-width: 0.8"/>
      </g>
     </g>
     <g id="text_11">
      <!-- $\mathdefault{10^{-11}}$ -->
      <g style="fill: #666666" transform="translate(19.645938 248.932699) scale(0.082 -0.082)">
       <use xlink:href="#ArialMT-31" transform="translate(0 0.99375)"/>
       <use xlink:href="#ArialMT-30" transform="translate(55.615234 0.99375)"/>
       <use xlink:href="#ArialMT-2212" transform="translate(112.972813 70.6875) scale(0.7)"/>
       <use xlink:href="#ArialMT-31" transform="translate(153.851719 70.6875) scale(0.7)"/>
       <use xlink:href="#ArialMT-31" transform="translate(192.782383 70.6875) scale(0.7)"/>
      </g>
     </g>
    </g>
    <g id="ytick_3">
     <g id="line2d_21">
      <path d="M 46.079937 201.226252 
L 675.559636 201.226252 
" clip-path="url(#p1a2656289c)" style="fill: none; stroke: #d9dee3; stroke-opacity: 0.75; stroke-width: 0.65; stroke-linecap: square"/>
     </g>
     <g id="line2d_22">
      <g>
       <use xlink:href="#m520909559e" x="46.079937" y="201.226252" style="fill: #666666; stroke: #666666; stroke-width: 0.8"/>
      </g>
     </g>
     <g id="text_12">
      <!-- $\mathdefault{10^{-9}}$ -->
      <g style="fill: #666666" transform="translate(22.843938 205.454377) scale(0.082 -0.082)">
       <defs>
        <path id="ArialMT-39" d="M 350 1059 
L 891 1109 
Q 959 728 1153 556 
Q 1347 384 1650 384 
Q 1909 384 2104 503 
Q 2300 622 2425 820 
Q 2550 1019 2634 1356 
Q 2719 1694 2719 2044 
Q 2719 2081 2716 2156 
Q 2547 1888 2255 1720 
Q 1963 1553 1622 1553 
Q 1053 1553 659 1965 
Q 266 2378 266 3053 
Q 266 3750 677 4175 
Q 1088 4600 1706 4600 
Q 2153 4600 2523 4359 
Q 2894 4119 3086 3673 
Q 3278 3228 3278 2384 
Q 3278 1506 3087 986 
Q 2897 466 2520 194 
Q 2144 -78 1638 -78 
Q 1100 -78 759 220 
Q 419 519 350 1059 
z
M 2653 3081 
Q 2653 3566 2395 3850 
Q 2138 4134 1775 4134 
Q 1400 4134 1122 3828 
Q 844 3522 844 3034 
Q 844 2597 1108 2323 
Q 1372 2050 1759 2050 
Q 2150 2050 2401 2323 
Q 2653 2597 2653 3081 
z
" transform="scale(0.015625)"/>
       </defs>
       <use xlink:href="#ArialMT-31" transform="translate(0 0.99375)"/>
       <use xlink:href="#ArialMT-30" transform="translate(55.615234 0.99375)"/>
       <use xlink:href="#ArialMT-2212" transform="translate(112.972813 70.6875) scale(0.7)"/>
       <use xlink:href="#ArialMT-39" transform="translate(153.851719 70.6875) scale(0.7)"/>
      </g>
     </g>
    </g>
    <g id="ytick_4">
     <g id="line2d_23">
      <path d="M 46.079937 157.74793 
L 675.559636 157.74793 
" clip-path="url(#p1a2656289c)" style="fill: none; stroke: #d9dee3; stroke-opacity: 0.75; stroke-width: 0.65; stroke-linecap: square"/>
     </g>
     <g id="line2d_24">
      <g>
       <use xlink:href="#m520909559e" x="46.079937" y="157.74793" style="fill: #666666; stroke: #666666; stroke-width: 0.8"/>
      </g>
     </g>
     <g id="text_13">
      <!-- $\mathdefault{10^{-7}}$ -->
      <g style="fill: #666666" transform="translate(22.843938 161.935055) scale(0.082 -0.082)">
       <defs>
        <path id="ArialMT-37" d="M 303 3981 
L 303 4522 
L 3269 4522 
L 3269 4084 
Q 2831 3619 2401 2847 
Q 1972 2075 1738 1259 
Q 1569 684 1522 0 
L 944 0 
Q 953 541 1156 1306 
Q 1359 2072 1739 2783 
Q 2119 3494 2547 3981 
L 303 3981 
z
" transform="scale(0.015625)"/>
       </defs>
       <use xlink:href="#ArialMT-31" transform="translate(0 0.846875)"/>
       <use xlink:href="#ArialMT-30" transform="translate(55.615234 0.846875)"/>
       <use xlink:href="#ArialMT-2212" transform="translate(112.972813 70.540625) scale(0.7)"/>
       <use xlink:href="#ArialMT-37" transform="translate(153.851719 70.540625) scale(0.7)"/>
      </g>
     </g>
    </g>
    <g id="ytick_5">
     <g id="line2d_25">
      <path d="M 46.079937 114.269608 
L 675.559636 114.269608 
" clip-path="url(#p1a2656289c)" style="fill: none; stroke: #d9dee3; stroke-opacity: 0.75; stroke-width: 0.65; stroke-linecap: square"/>
     </g>
     <g id="line2d_26">
      <g>
       <use xlink:href="#m520909559e" x="46.079937" y="114.269608" style="fill: #666666; stroke: #666666; stroke-width: 0.8"/>
      </g>
     </g>
     <g id="text_14">
      <!-- $\mathdefault{10^{-5}}$ -->
      <g style="fill: #666666" transform="translate(22.843938 118.456733) scale(0.082 -0.082)">
       <defs>
        <path id="ArialMT-35" d="M 266 1200 
L 856 1250 
Q 922 819 1161 601 
Q 1400 384 1738 384 
Q 2144 384 2425 690 
Q 2706 997 2706 1503 
Q 2706 1984 2436 2262 
Q 2166 2541 1728 2541 
Q 1456 2541 1237 2417 
Q 1019 2294 894 2097 
L 366 2166 
L 809 4519 
L 3088 4519 
L 3088 3981 
L 1259 3981 
L 1013 2750 
Q 1425 3038 1878 3038 
Q 2478 3038 2890 2622 
Q 3303 2206 3303 1553 
Q 3303 931 2941 478 
Q 2500 -78 1738 -78 
Q 1113 -78 717 272 
Q 322 622 266 1200 
z
" transform="scale(0.015625)"/>
       </defs>
       <use xlink:href="#ArialMT-31" transform="translate(0 0.879688)"/>
       <use xlink:href="#ArialMT-30" transform="translate(55.615234 0.879688)"/>
       <use xlink:href="#ArialMT-2212" transform="translate(112.972813 70.573438) scale(0.7)"/>
       <use xlink:href="#ArialMT-35" transform="translate(153.851719 70.573438) scale(0.7)"/>
      </g>
     </g>
    </g>
    <g id="ytick_6">
     <g id="line2d_27">
      <path d="M 46.079937 70.791286 
L 675.559636 70.791286 
" clip-path="url(#p1a2656289c)" style="fill: none; stroke: #d9dee3; stroke-opacity: 0.75; stroke-width: 0.65; stroke-linecap: square"/>
     </g>
     <g id="line2d_28">
      <g>
       <use xlink:href="#m520909559e" x="46.079937" y="70.791286" style="fill: #666666; stroke: #666666; stroke-width: 0.8"/>
      </g>
     </g>
     <g id="text_15">
      <!-- $\mathdefault{10^{-3}}$ -->
      <g style="fill: #666666" transform="translate(22.843938 75.019411) scale(0.082 -0.082)">
       <use xlink:href="#ArialMT-31" transform="translate(0 0.99375)"/>
       <use xlink:href="#ArialMT-30" transform="translate(55.615234 0.99375)"/>
       <use xlink:href="#ArialMT-2212" transform="translate(112.972813 70.6875) scale(0.7)"/>
       <use xlink:href="#ArialMT-33" transform="translate(153.851719 70.6875) scale(0.7)"/>
      </g>
     </g>
    </g>
    <g id="text_16">
     <!-- Absolute drain current, |ID| (A) -->
     <g style="fill: #666666" transform="translate(13.751719 225.954112) rotate(-90) scale(0.09 -0.09)">
      <defs>
       <path id="ArialMT-41" d="M -9 0 
L 1750 4581 
L 2403 4581 
L 4278 0 
L 3588 0 
L 3053 1388 
L 1138 1388 
L 634 0 
L -9 0 
z
M 1313 1881 
L 2866 1881 
L 2388 3150 
Q 2169 3728 2063 4100 
Q 1975 3659 1816 3225 
L 1313 1881 
z
" transform="scale(0.015625)"/>
       <path id="ArialMT-62" d="M 941 0 
L 419 0 
L 419 4581 
L 981 4581 
L 981 2947 
Q 1338 3394 1891 3394 
Q 2197 3394 2470 3270 
Q 2744 3147 2920 2923 
Q 3097 2700 3197 2384 
Q 3297 2069 3297 1709 
Q 3297 856 2875 390 
Q 2453 -75 1863 -75 
Q 1275 -75 941 416 
L 941 0 
z
M 934 1684 
Q 934 1088 1097 822 
Q 1363 388 1816 388 
Q 2184 388 2453 708 
Q 2722 1028 2722 1663 
Q 2722 2313 2464 2622 
Q 2206 2931 1841 2931 
Q 1472 2931 1203 2611 
Q 934 2291 934 1684 
z
" transform="scale(0.015625)"/>
       <path id="ArialMT-73" d="M 197 991 
L 753 1078 
Q 800 744 1014 566 
Q 1228 388 1613 388 
Q 2000 388 2187 545 
Q 2375 703 2375 916 
Q 2375 1106 2209 1216 
Q 2094 1291 1634 1406 
Q 1016 1563 777 1677 
Q 538 1791 414 1992 
Q 291 2194 291 2438 
Q 291 2659 392 2848 
Q 494 3038 669 3163 
Q 800 3259 1026 3326 
Q 1253 3394 1513 3394 
Q 1903 3394 2198 3281 
Q 2494 3169 2634 2976 
Q 2775 2784 2828 2463 
L 2278 2388 
Q 2241 2644 2061 2787 
Q 1881 2931 1553 2931 
Q 1166 2931 1000 2803 
Q 834 2675 834 2503 
Q 834 2394 903 2306 
Q 972 2216 1119 2156 
Q 1203 2125 1616 2013 
Q 2213 1853 2448 1751 
Q 2684 1650 2818 1456 
Q 2953 1263 2953 975 
Q 2953 694 2789 445 
Q 2625 197 2315 61 
Q 2006 -75 1616 -75 
Q 969 -75 630 194 
Q 291 463 197 991 
z
" transform="scale(0.015625)"/>
       <path id="ArialMT-75" d="M 2597 0 
L 2597 488 
Q 2209 -75 1544 -75 
Q 1250 -75 995 37 
Q 741 150 617 320 
Q 494 491 444 738 
Q 409 903 409 1263 
L 409 3319 
L 972 3319 
L 972 1478 
Q 972 1038 1006 884 
Q 1059 663 1231 536 
Q 1403 409 1656 409 
Q 1909 409 2131 539 
Q 2353 669 2445 892 
Q 2538 1116 2538 1541 
L 2538 3319 
L 3100 3319 
L 3100 0 
L 2597 0 
z
" transform="scale(0.015625)"/>
       <path id="ArialMT-64" d="M 2575 0 
L 2575 419 
Q 2259 -75 1647 -75 
Q 1250 -75 917 144 
Q 584 363 401 755 
Q 219 1147 219 1656 
Q 219 2153 384 2558 
Q 550 2963 881 3178 
Q 1213 3394 1622 3394 
Q 1922 3394 2156 3267 
Q 2391 3141 2538 2938 
L 2538 4581 
L 3097 4581 
L 3097 0 
L 2575 0 
z
M 797 1656 
Q 797 1019 1065 703 
Q 1334 388 1700 388 
Q 2069 388 2326 689 
Q 2584 991 2584 1609 
Q 2584 2291 2321 2609 
Q 2059 2928 1675 2928 
Q 1300 2928 1048 2622 
Q 797 2316 797 1656 
z
" transform="scale(0.015625)"/>
       <path id="ArialMT-63" d="M 2588 1216 
L 3141 1144 
Q 3050 572 2676 248 
Q 2303 -75 1759 -75 
Q 1078 -75 664 370 
Q 250 816 250 1647 
Q 250 2184 428 2587 
Q 606 2991 970 3192 
Q 1334 3394 1763 3394 
Q 2303 3394 2647 3120 
Q 2991 2847 3088 2344 
L 2541 2259 
Q 2463 2594 2264 2762 
Q 2066 2931 1784 2931 
Q 1359 2931 1093 2626 
Q 828 2322 828 1663 
Q 828 994 1084 691 
Q 1341 388 1753 388 
Q 2084 388 2306 591 
Q 2528 794 2588 1216 
z
" transform="scale(0.015625)"/>
       <path id="ArialMT-7c" d="M 588 -1347 
L 588 4659 
L 1078 4659 
L 1078 -1347 
L 588 -1347 
z
" transform="scale(0.015625)"/>
       <path id="ArialMT-49" d="M 597 0 
L 597 4581 
L 1203 4581 
L 1203 0 
L 597 0 
z
" transform="scale(0.015625)"/>
      </defs>
      <use xlink:href="#ArialMT-41"/>
      <use xlink:href="#ArialMT-62" x="66.699219"/>
      <use xlink:href="#ArialMT-73" x="122.314453"/>
      <use xlink:href="#ArialMT-6f" x="172.314453"/>
      <use xlink:href="#ArialMT-6c" x="227.929688"/>
      <use xlink:href="#ArialMT-75" x="250.146484"/>
      <use xlink:href="#ArialMT-74" x="305.761719"/>
      <use xlink:href="#ArialMT-65" x="333.544922"/>
      <use xlink:href="#ArialMT-20" x="389.160156"/>
      <use xlink:href="#ArialMT-64" x="416.943359"/>
      <use xlink:href="#ArialMT-72" x="472.558594"/>
      <use xlink:href="#ArialMT-61" x="505.859375"/>
      <use xlink:href="#ArialMT-69" x="561.474609"/>
      <use xlink:href="#ArialMT-6e" x="583.691406"/>
      <use xlink:href="#ArialMT-20" x="639.306641"/>
      <use xlink:href="#ArialMT-63" x="667.089844"/>
      <use xlink:href="#ArialMT-75" x="717.089844"/>
      <use xlink:href="#ArialMT-72" x="772.705078"/>
      <use xlink:href="#ArialMT-72" x="806.005859"/>
      <use xlink:href="#ArialMT-65" x="839.306641"/>
      <use xlink:href="#ArialMT-6e" x="894.921875"/>
      <use xlink:href="#ArialMT-74" x="950.537109"/>
      <use xlink:href="#ArialMT-2c" x="978.320312"/>
      <use xlink:href="#ArialMT-20" x="1006.103516"/>
      <use xlink:href="#ArialMT-7c" x="1033.886719"/>
      <use xlink:href="#ArialMT-49" x="1059.863281"/>
      <use xlink:href="#ArialMT-44" x="1087.646484"/>
      <use xlink:href="#ArialMT-7c" x="1159.863281"/>
      <use xlink:href="#ArialMT-20" x="1185.839844"/>
      <use xlink:href="#ArialMT-28" x="1213.623047"/>
      <use xlink:href="#ArialMT-41" x="1246.923828"/>
      <use xlink:href="#ArialMT-29" x="1313.623047"/>
     </g>
    </g>
   </g>
   <g id="line2d_29">
    <path d="M 46.079937 228.220583 
L 50.276469 224.441845 
L 54.473 222.666913 
L 58.669531 221.394643 
L 62.866063 220.793615 
L 67.062594 219.769384 
L 71.259125 218.452517 
L 79.652188 216.169698 
L 83.848719 215.411319 
L 88.045251 214.901724 
L 92.241782 214.181515 
L 96.438313 213.11756 
L 100.634845 212.625399 
L 113.224439 210.613469 
L 121.617501 209.405979 
L 125.814033 208.737736 
L 130.010564 208.326201 
L 138.403627 207.25587 
L 163.582815 204.792834 
L 180.36894 203.738431 
L 192.958534 203.141058 
L 197.155065 203.064838 
L 201.351596 202.856449 
L 218.137722 202.541878 
L 222.334253 202.700662 
L 226.530784 202.555239 
L 234.923847 202.511082 
L 251.709972 202.238343 
L 255.906504 202.310845 
L 289.478754 201.945128 
L 293.675286 202.011922 
L 297.871817 201.888249 
L 302.068348 201.945992 
L 310.461411 201.772963 
L 314.657942 201.826161 
L 323.051005 201.622241 
L 327.247536 201.667458 
L 331.444068 201.521703 
L 339.83713 201.482938 
L 356.623255 201.276554 
L 360.819787 201.25082 
L 365.016318 201.080894 
L 373.409381 201.04743 
L 377.605912 200.841022 
L 385.998975 200.762908 
L 402.7851 200.302607 
L 406.981631 200.262379 
L 411.178163 200.077948 
L 419.571225 199.873421 
L 423.767757 199.618688 
L 427.964288 199.562106 
L 448.946945 198.222602 
L 453.143476 197.826601 
L 457.340007 197.299019 
L 461.536539 196.610805 
L 465.73307 195.782572 
L 469.929601 194.212777 
L 474.126133 192.433777 
L 478.322664 189.167212 
L 482.519195 187.678988 
L 486.715727 183.686166 
L 490.912258 180.996406 
L 495.108789 176.071921 
L 499.305321 172.559813 
L 503.501852 155.270378 
L 507.698383 65.75726 
L 511.894914 53.03237 
L 516.091446 49.052198 
L 675.559636 49.05221 
L 675.559636 49.05221 
" clip-path="url(#p1a2656289c)" style="fill: none; stroke: #fde9d2; stroke-width: 1.5; stroke-linecap: square"/>
   </g>
   <g id="line2d_30">
    <path d="M 46.079937 245.745571 
L 50.276469 232.05519 
L 54.473 230.049956 
L 58.669531 227.904493 
L 67.062594 224.087979 
L 71.259125 223.132177 
L 75.455657 221.66292 
L 79.652188 220.400971 
L 83.848719 218.981046 
L 88.045251 217.101349 
L 92.241782 215.507167 
L 100.634845 213.559578 
L 104.831376 212.246 
L 113.224439 210.298382 
L 150.993221 201.537834 
L 167.779346 198.154088 
L 184.565471 194.928838 
L 188.762003 192.199659 
L 192.958534 176.330382 
L 197.155065 156.419423 
L 201.351596 159.692682 
L 205.548128 138.529698 
L 209.744659 150.120912 
L 213.94119 154.953241 
L 218.137722 140.879216 
L 222.334253 144.672628 
L 226.530784 150.09158 
L 230.727316 137.70392 
L 234.923847 141.970558 
L 239.120378 143.226587 
L 243.31691 141.256311 
L 247.513441 142.525111 
L 251.709972 141.018333 
L 255.906504 142.012941 
L 260.103035 140.897688 
L 264.299566 141.977992 
L 268.496098 140.728727 
L 272.692629 141.880001 
L 276.88916 140.721264 
L 281.085692 141.670316 
L 285.282223 128.510254 
L 289.478754 139.869531 
L 293.675286 141.366782 
L 297.871817 128.708382 
L 302.068348 139.571376 
L 306.26488 141.13153 
L 310.461411 128.835421 
L 314.657942 139.345095 
L 318.854474 140.985803 
L 323.051005 129.022575 
L 327.247536 139.034035 
L 331.444068 140.754221 
L 335.640599 128.864018 
L 339.83713 139.02572 
L 344.033662 140.444195 
L 348.230193 128.765125 
L 352.426724 138.558001 
L 356.623255 140.326522 
L 360.819787 128.535233 
L 365.016318 138.527245 
L 369.212849 140.13377 
L 373.409381 128.3171 
L 377.605912 138.752479 
L 381.802443 139.90575 
L 385.998975 127.942643 
L 390.195506 138.665971 
L 394.392037 139.852342 
L 398.588569 127.745215 
L 402.7851 138.545728 
L 406.981631 139.653092 
L 411.178163 138.770132 
L 415.374694 139.70655 
L 419.571225 138.766036 
L 423.767757 139.619157 
L 427.964288 139.197496 
L 436.357351 140.482132 
L 440.553882 139.719185 
L 444.750413 139.385851 
L 448.946945 139.701674 
L 453.143476 141.980797 
L 457.340007 139.633995 
L 461.536539 141.345025 
L 465.73307 139.293527 
L 469.929601 140.38167 
L 474.126133 139.215045 
L 478.322664 142.178088 
L 482.519195 138.723207 
L 486.715727 139.208851 
L 490.912258 141.763618 
L 495.108789 138.371579 
L 499.305321 141.09856 
L 503.501852 136.991063 
L 507.698383 134.994168 
L 511.894914 101.555389 
L 516.091446 61.480387 
L 520.287977 49.052208 
L 675.559636 49.052204 
L 675.559636 49.052204 
" clip-path="url(#p1a2656289c)" style="fill: none; stroke: #f7c98f; stroke-width: 1.5; stroke-linecap: square"/>
   </g>
   <g id="line2d_31">
    <path d="M 46.079937 245.395162 
L 50.276469 231.878697 
L 54.473 229.106475 
L 58.669531 228.213691 
L 67.062594 223.079387 
L 71.259125 223.359133 
L 75.455657 221.435462 
L 79.652188 219.675672 
L 83.848719 218.653314 
L 88.045251 216.888584 
L 96.438313 214.681013 
L 104.831376 212.744028 
L 109.027907 211.871368 
L 113.224439 211.160498 
L 125.814033 208.457954 
L 142.600158 205.11015 
L 155.189752 202.536349 
L 167.779346 200.188166 
L 176.172409 198.676509 
L 188.762003 196.46213 
L 192.958534 195.595198 
L 197.155065 193.002618 
L 201.351596 189.472103 
L 205.548128 184.993879 
L 209.744659 177.962578 
L 213.94119 171.704996 
L 218.137722 173.56689 
L 222.334253 171.142624 
L 226.530784 165.465408 
L 230.727316 164.185389 
L 234.923847 159.495355 
L 239.120378 140.957302 
L 243.31691 137.789042 
L 247.513441 135.966232 
L 255.906504 133.714352 
L 264.299566 132.413557 
L 268.496098 132.279918 
L 272.692629 131.734502 
L 276.88916 131.716517 
L 285.282223 131.374223 
L 289.478754 131.231097 
L 293.675286 130.894837 
L 306.26488 130.40456 
L 314.657942 130.023165 
L 318.854474 129.748558 
L 323.051005 129.640394 
L 335.640599 128.885752 
L 344.033662 128.294006 
L 356.623255 127.869692 
L 365.016318 127.438979 
L 369.212849 127.066317 
L 373.409381 126.959713 
L 377.605912 126.439567 
L 385.998975 126.262308 
L 402.7851 125.064542 
L 406.981631 132.525289 
L 411.178163 139.102963 
L 415.374694 128.999635 
L 419.571225 138.338563 
L 423.767757 139.917652 
L 427.964288 128.180891 
L 432.160819 138.316523 
L 436.357351 139.651067 
L 440.553882 126.89636 
L 444.750413 137.768582 
L 448.946945 139.114709 
L 453.143476 137.998817 
L 457.340007 138.820736 
L 461.536539 137.622112 
L 465.73307 138.078595 
L 469.929601 138.742326 
L 474.126133 136.150427 
L 478.322664 136.194665 
L 482.519195 132.849581 
L 490.912258 134.913969 
L 495.108789 120.32632 
L 499.305321 125.768246 
L 503.501852 120.90459 
L 507.698383 120.627654 
L 511.894914 98.699514 
L 516.091446 98.132446 
L 520.287977 61.420788 
L 524.484508 51.383969 
L 528.68104 49.052202 
L 675.559636 49.052207 
L 675.559636 49.052207 
" clip-path="url(#p1a2656289c)" style="fill: none; stroke: #f2ad62; stroke-width: 1.5; stroke-linecap: square"/>
   </g>
   <g id="line2d_32">
    <path d="M 46.079937 269.576461 
L 50.276469 232.045155 
L 54.473 229.514474 
L 58.669531 226.576803 
L 62.866063 225.166906 
L 67.062594 223.099771 
L 71.259125 221.569308 
L 75.455657 219.667253 
L 79.652188 217.405385 
L 88.045251 214.049788 
L 92.241782 211.801148 
L 96.438313 209.401222 
L 109.027907 203.447159 
L 117.42097 200.061625 
L 125.814033 196.794076 
L 155.189752 185.649217 
L 163.582815 182.120212 
L 167.779346 180.112354 
L 171.975877 177.590543 
L 176.172409 173.381011 
L 180.36894 165.349412 
L 184.565471 151.031833 
L 188.762003 149.861148 
L 192.958534 127.989496 
L 197.155065 134.088263 
L 201.351596 114.274897 
L 205.548128 124.801127 
L 209.744659 128.149385 
L 213.94119 118.376003 
L 222.334253 118.373266 
L 226.530784 117.329506 
L 230.727316 117.937853 
L 234.923847 117.484429 
L 239.120378 118.092908 
L 243.31691 117.706586 
L 247.513441 118.224465 
L 251.709972 117.865318 
L 255.906504 118.29107 
L 260.103035 117.958191 
L 264.299566 118.387013 
L 268.496098 118.08578 
L 272.692629 118.40747 
L 276.88916 118.21391 
L 281.085692 118.448123 
L 285.282223 110.522099 
L 289.478754 144.040508 
L 293.675286 142.92351 
L 302.068348 139.741447 
L 306.26488 137.938579 
L 310.461411 135.884198 
L 314.657942 133.400549 
L 318.854474 130.213085 
L 323.051005 126.422579 
L 327.247536 122.875065 
L 331.444068 127.371069 
L 335.640599 121.737953 
L 339.83713 116.65371 
L 344.033662 114.294505 
L 348.230193 113.069981 
L 360.819787 109.982173 
L 369.212849 107.302682 
L 373.409381 115.188911 
L 377.605912 116.184569 
L 381.802443 108.30971 
L 385.998975 152.956712 
L 390.195506 151.846269 
L 394.392037 149.179663 
L 398.588569 146.062976 
L 402.7851 144.163984 
L 406.981631 139.432958 
L 411.178163 133.483329 
L 415.374694 126.177235 
L 419.571225 126.097315 
L 423.767757 111.604862 
L 427.964288 116.431293 
L 432.160819 99.520247 
L 436.357351 111.612934 
L 440.553882 115.868232 
L 444.750413 108.017083 
L 448.946945 108.035763 
L 453.143476 112.487681 
L 457.340007 97.874525 
L 461.536539 103.613229 
L 465.73307 77.877432 
L 469.929601 74.153527 
L 474.126133 71.461129 
L 482.519195 66.560599 
L 490.912258 62.025002 
L 503.501852 55.637956 
L 516.091446 49.297558 
L 520.287977 49.052248 
L 675.559636 49.052212 
L 675.559636 49.052212 
" clip-path="url(#p1a2656289c)" style="fill: none; stroke: #e69138; stroke-width: 1.5; stroke-linecap: square"/>
   </g>
   <g id="line2d_33">
    <path d="M 46.079937 238.454135 
L 50.276469 228.4905 
L 54.473 225.081527 
L 58.669531 222.784325 
L 62.866063 221.691115 
L 67.062594 219.803888 
L 71.259125 218.527458 
L 75.455657 216.844596 
L 79.652188 215.461922 
L 92.241782 210.045326 
L 100.634845 205.925116 
L 117.42097 197.271261 
L 125.814033 193.230751 
L 138.403627 187.874252 
L 150.993221 182.701068 
L 159.386283 178.94991 
L 163.582815 176.852521 
L 167.779346 174.408179 
L 171.975877 171.059108 
L 176.172409 164.968976 
L 180.36894 151.461989 
L 184.565471 148.519083 
L 188.762003 138.940075 
L 192.958534 113.860509 
L 197.155065 122.56188 
L 201.351596 99.92181 
L 205.548128 112.70874 
L 209.744659 117.0416 
L 213.94119 105.976951 
L 218.137722 105.427252 
L 222.334253 111.265701 
L 226.530784 104.558204 
L 230.727316 90.728325 
L 234.923847 102.997994 
L 239.120378 112.27532 
L 243.31691 109.386352 
L 247.513441 101.004652 
L 251.709972 96.481854 
L 255.906504 104.129142 
L 260.103035 66.171988 
L 264.299566 62.068698 
L 268.496098 75.660065 
L 272.692629 73.063055 
L 276.88916 71.740436 
L 281.085692 68.56176 
L 285.282223 69.334629 
L 289.478754 75.047134 
L 293.675286 76.526402 
L 297.871817 122.744275 
L 302.068348 108.623732 
L 306.26488 102.714347 
L 310.461411 173.631588 
L 314.657942 170.449881 
L 323.051005 169.667927 
L 327.247536 169.156937 
L 331.444068 168.529287 
L 335.640599 167.743736 
L 339.83713 166.661453 
L 344.033662 165.284067 
L 348.230193 163.478236 
L 352.426724 161.132841 
L 356.623255 157.777967 
L 360.819787 154.227331 
L 365.016318 150.327118 
L 369.212849 146.208216 
L 373.409381 147.539969 
L 377.605912 141.627705 
L 381.802443 135.127062 
L 385.998975 129.495097 
L 390.195506 124.708104 
L 394.392037 120.893311 
L 398.588569 131.807191 
L 402.7851 121.328961 
L 406.981631 116.479309 
L 411.178163 114.699749 
L 415.374694 113.712857 
L 419.571225 127.326854 
L 423.767757 130.656824 
L 427.964288 126.736812 
L 432.160819 113.08343 
L 436.357351 121.751973 
L 440.553882 120.654759 
L 444.750413 118.902722 
L 448.946945 117.661289 
L 453.143476 173.935455 
L 457.340007 174.948052 
L 461.536539 173.71497 
L 465.73307 171.940471 
L 474.126133 166.357448 
L 478.322664 163.320642 
L 482.519195 163.51188 
L 486.715727 162.210693 
L 490.912258 157.962656 
L 495.108789 153.495349 
L 499.305321 153.327715 
L 503.501852 140.506014 
L 507.698383 129.576532 
L 511.894914 116.466677 
L 516.091446 73.555612 
L 520.287977 60.573282 
L 524.484508 53.367436 
L 528.68104 49.052202 
L 675.559636 49.052191 
L 675.559636 49.052191 
" clip-path="url(#p1a2656289c)" style="fill: none; stroke: #d9771f; stroke-width: 1.5; stroke-linecap: square"/>
   </g>
   <g id="line2d_34">
    <path d="M 46.079937 249.48871 
L 50.276469 217.879446 
L 54.473 216.177615 
L 62.866063 213.656263 
L 67.062594 212.574683 
L 71.259125 211.785225 
L 75.455657 210.719078 
L 79.652188 209.929844 
L 83.848719 208.681115 
L 88.045251 207.723915 
L 100.634845 204.131636 
L 113.224439 199.867816 
L 125.814033 195.141012 
L 155.189752 183.526171 
L 159.386283 181.748052 
L 163.582815 179.820225 
L 167.779346 177.707058 
L 171.975877 175.20535 
L 176.172409 171.590585 
L 180.36894 164.77797 
L 184.565471 149.621155 
L 188.762003 144.717509 
L 192.958534 133.822571 
L 197.155065 124.073382 
L 201.351596 116.588234 
L 205.548128 117.825053 
L 209.744659 96.652378 
L 213.94119 101.158974 
L 218.137722 76.959743 
L 222.334253 72.380004 
L 226.530784 72.877662 
L 230.727316 96.839592 
L 234.923847 96.996961 
L 239.120378 99.627463 
L 243.31691 95.949607 
L 247.513441 99.683255 
L 251.709972 98.533757 
L 255.906504 100.244928 
L 260.103035 99.084819 
L 264.299566 65.949103 
L 268.496098 67.714233 
L 276.88916 65.019627 
L 281.085692 65.890692 
L 285.282223 119.74428 
L 289.478754 167.502707 
L 293.675286 163.858794 
L 297.871817 162.306594 
L 302.068348 160.072325 
L 306.26488 156.621921 
L 310.461411 151.700841 
L 314.657942 144.803928 
L 318.854474 137.451388 
L 323.051005 126.204704 
L 327.247536 127.47016 
L 331.444068 113.681557 
L 335.640599 124.854063 
L 339.83713 129.797408 
L 344.033662 124.959047 
L 348.230193 110.790674 
L 352.426724 123.255157 
L 356.623255 127.863812 
L 360.819787 124.457417 
L 365.016318 109.508851 
L 369.212849 122.541246 
L 373.409381 122.636479 
L 377.605912 107.579854 
L 381.802443 121.407917 
L 385.998975 121.342141 
L 390.195506 106.101005 
L 394.392037 166.834983 
L 398.588569 168.918303 
L 402.7851 167.230067 
L 406.981631 165.186315 
L 411.178163 162.895488 
L 415.374694 159.6424 
L 419.571225 156.800424 
L 423.767757 153.805251 
L 432.160819 148.411972 
L 440.553882 143.815448 
L 444.750413 150.884206 
L 448.946945 151.276832 
L 453.143476 145.069605 
L 457.340007 145.020273 
L 461.536539 137.286548 
L 465.73307 131.353722 
L 469.929601 139.168942 
L 474.126133 138.651683 
L 482.519195 130.559109 
L 486.715727 129.957063 
L 490.912258 110.819785 
L 495.108789 108.422186 
L 499.305321 103.449179 
L 503.501852 69.226856 
L 507.698383 61.257549 
L 511.894914 56.401602 
L 516.091446 52.841184 
L 520.287977 49.867742 
L 524.484508 49.052208 
L 675.559636 49.052184 
L 675.559636 49.052184 
" clip-path="url(#p1a2656289c)" style="fill: none; stroke: #b85812; stroke-width: 1.5; stroke-linecap: square"/>
   </g>
   <g id="line2d_35">
    <path d="M 46.079937 252.163629 
L 50.276469 204.180786 
L 54.473 202.999801 
L 58.669531 202.000115 
L 67.062594 200.368501 
L 83.848719 197.687562 
L 92.241782 196.432594 
L 104.831376 194.204299 
L 113.224439 192.489233 
L 121.617501 190.473076 
L 130.010564 188.228588 
L 138.403627 185.767653 
L 146.796689 183.089337 
L 155.189752 180.132363 
L 159.386283 178.529325 
L 163.582815 176.784821 
L 167.779346 174.818762 
L 171.975877 172.242138 
L 176.172409 167.530475 
L 180.36894 162.439949 
L 184.565471 138.705097 
L 188.762003 138.867807 
L 192.958534 127.815202 
L 197.155065 118.750685 
L 201.351596 119.453182 
L 205.548128 106.469918 
L 209.744659 75.255767 
L 213.94119 61.97512 
L 218.137722 56.538099 
L 222.334253 54.372403 
L 226.530784 54.023309 
L 230.727316 55.313148 
L 234.923847 54.269926 
L 239.120378 54.583867 
L 243.31691 62.897183 
L 247.513441 58.426896 
L 251.709972 62.35606 
L 255.906504 63.953496 
L 260.103035 105.918385 
L 264.299566 103.620005 
L 268.496098 100.138964 
L 272.692629 62.717566 
L 276.88916 60.335995 
L 281.085692 114.562616 
L 285.282223 165.681833 
L 289.478754 161.597874 
L 293.675286 158.957266 
L 297.871817 155.074787 
L 302.068348 149.230014 
L 306.26488 142.693327 
L 310.461411 132.765104 
L 314.657942 127.000931 
L 318.854474 112.743806 
L 323.051005 118.94918 
L 327.247536 101.000749 
L 331.444068 95.87391 
L 335.640599 94.875201 
L 339.83713 95.755629 
L 344.033662 95.801524 
L 348.230193 95.087468 
L 352.426724 95.193871 
L 356.623255 94.248206 
L 360.819787 94.298477 
L 365.016318 93.700509 
L 373.409381 93.291911 
L 377.605912 92.701279 
L 381.802443 92.521584 
L 390.195506 91.477166 
L 394.392037 90.976517 
L 398.588569 89.542913 
L 402.7851 90.220288 
L 406.981631 168.388583 
L 411.178163 171.71123 
L 415.374694 171.412325 
L 423.767757 170.376078 
L 427.964288 169.74679 
L 432.160819 168.975345 
L 436.357351 168.015273 
L 444.750413 165.70614 
L 453.143476 162.658432 
L 457.340007 159.72898 
L 461.536539 157.17674 
L 465.73307 154.900116 
L 469.929601 157.818392 
L 474.126133 157.356638 
L 482.519195 153.492995 
L 486.715727 149.853864 
L 490.912258 145.748298 
L 495.108789 142.670006 
L 499.305321 134.22981 
L 503.501852 129.906939 
L 507.698383 121.551754 
L 511.894914 100.511085 
L 516.091446 86.164806 
L 520.287977 62.799804 
L 524.484508 56.128325 
L 528.68104 51.265339 
L 532.877571 49.052171 
L 675.559636 49.052168 
L 675.559636 49.052168 
" clip-path="url(#p1a2656289c)" style="fill: none; stroke: #7a3510; stroke-width: 1.5; stroke-linecap: square"/>
   </g>
   <g id="line2d_36">
    <path d="M 171.975877 288.182896 
L 171.975877 42.507986 
" clip-path="url(#p1a2656289c)" style="fill: none; stroke-dasharray: 3.33,1.44; stroke-dashoffset: 0; stroke: #7d858c; stroke-width: 0.9"/>
   </g>
   <g id="patch_3">
    <path d="M 46.079937 288.182896 
L 46.079937 42.507986 
" style="fill: none; stroke: #b9c0c7; stroke-width: 0.8; stroke-linejoin: miter; stroke-linecap: square"/>
   </g>
   <g id="patch_4">
    <path d="M 46.079937 288.182896 
L 675.559636 288.182896 
" style="fill: none; stroke: #b9c0c7; stroke-width: 0.8; stroke-linejoin: miter; stroke-linecap: square"/>
   </g>
   <g id="text_17">
    <!-- 30 V -->
    <g style="fill: #666666" transform="translate(178.270674 260.894325) scale(0.08 -0.08)">
     <use xlink:href="#ArialMT-33"/>
     <use xlink:href="#ArialMT-30" x="55.615234"/>
     <use xlink:href="#ArialMT-20" x="111.230469"/>
     <use xlink:href="#ArialMT-56" x="139.013672"/>
    </g>
   </g>
   <g id="legend_1">
    <g id="text_18">
     <!-- Dose (krad(Si)) -->
     <g style="fill: #343434" transform="translate(333.706037 16.22375) scale(0.08 -0.08)">
      <defs>
       <path id="ArialMT-6b" d="M 425 0 
L 425 4581 
L 988 4581 
L 988 1969 
L 2319 3319 
L 3047 3319 
L 1778 2088 
L 3175 0 
L 2481 0 
L 1384 1697 
L 988 1316 
L 988 0 
L 425 0 
z
" transform="scale(0.015625)"/>
      </defs>
      <use xlink:href="#ArialMT-44"/>
      <use xlink:href="#ArialMT-6f" x="72.216797"/>
      <use xlink:href="#ArialMT-73" x="127.832031"/>
      <use xlink:href="#ArialMT-65" x="177.832031"/>
      <use xlink:href="#ArialMT-20" x="233.447266"/>
      <use xlink:href="#ArialMT-28" x="261.230469"/>
      <use xlink:href="#ArialMT-6b" x="294.53125"/>
      <use xlink:href="#ArialMT-72" x="344.53125"/>
      <use xlink:href="#ArialMT-61" x="377.832031"/>
      <use xlink:href="#ArialMT-64" x="433.447266"/>
      <use xlink:href="#ArialMT-28" x="489.0625"/>
      <use xlink:href="#ArialMT-53" x="522.363281"/>
      <use xlink:href="#ArialMT-69" x="589.0625"/>
      <use xlink:href="#ArialMT-29" x="611.279297"/>
      <use xlink:href="#ArialMT-29" x="644.580078"/>
     </g>
    </g>
    <g id="line2d_37">
     <path d="M 205.502912 24.83375 
L 213.502912 24.83375 
L 221.502912 24.83375 
" style="fill: none; stroke: #fde9d2; stroke-width: 1.5; stroke-linecap: square"/>
    </g>
    <g id="text_19">
     <!-- 0 -->
     <g style="fill: #343434" transform="translate(227.902912 27.63375) scale(0.08 -0.08)">
      <use xlink:href="#ArialMT-30"/>
     </g>
    </g>
    <g id="line2d_38">
     <path d="M 248.351662 24.83375 
L 256.351662 24.83375 
L 264.351662 24.83375 
" style="fill: none; stroke: #f7c98f; stroke-width: 1.5; stroke-linecap: square"/>
    </g>
    <g id="text_20">
     <!-- 10 -->
     <g style="fill: #343434" transform="translate(270.751662 27.63375) scale(0.08 -0.08)">
      <use xlink:href="#ArialMT-31"/>
      <use xlink:href="#ArialMT-30" x="55.615234"/>
     </g>
    </g>
    <g id="line2d_39">
     <path d="M 295.649162 24.83375 
L 303.649162 24.83375 
L 311.649162 24.83375 
" style="fill: none; stroke: #f2ad62; stroke-width: 1.5; stroke-linecap: square"/>
    </g>
    <g id="text_21">
     <!-- 20 -->
     <g style="fill: #343434" transform="translate(318.049162 27.63375) scale(0.08 -0.08)">
      <use xlink:href="#ArialMT-32"/>
      <use xlink:href="#ArialMT-30" x="55.615234"/>
     </g>
    </g>
    <g id="line2d_40">
     <path d="M 342.946662 24.83375 
L 350.946662 24.83375 
L 358.946662 24.83375 
" style="fill: none; stroke: #e69138; stroke-width: 1.5; stroke-linecap: square"/>
    </g>
    <g id="text_22">
     <!-- 30 -->
     <g style="fill: #343434" transform="translate(365.346662 27.63375) scale(0.08 -0.08)">
      <use xlink:href="#ArialMT-33"/>
      <use xlink:href="#ArialMT-30" x="55.615234"/>
     </g>
    </g>
    <g id="line2d_41">
     <path d="M 390.244162 24.83375 
L 398.244162 24.83375 
L 406.244162 24.83375 
" style="fill: none; stroke: #d9771f; stroke-width: 1.5; stroke-linecap: square"/>
    </g>
    <g id="text_23">
     <!-- 40 -->
     <g style="fill: #343434" transform="translate(412.644162 27.63375) scale(0.08 -0.08)">
      <use xlink:href="#ArialMT-34"/>
      <use xlink:href="#ArialMT-30" x="55.615234"/>
     </g>
    </g>
    <g id="line2d_42">
     <path d="M 437.541662 24.83375 
L 445.541662 24.83375 
L 453.541662 24.83375 
" style="fill: none; stroke: #b85812; stroke-width: 1.5; stroke-linecap: square"/>
    </g>
    <g id="text_24">
     <!-- 50 -->
     <g style="fill: #343434" transform="translate(459.941662 27.63375) scale(0.08 -0.08)">
      <use xlink:href="#ArialMT-35"/>
      <use xlink:href="#ArialMT-30" x="55.615234"/>
     </g>
    </g>
    <g id="line2d_43">
     <path d="M 484.839162 24.83375 
L 492.839162 24.83375 
L 500.839162 24.83375 
" style="fill: none; stroke: #7a3510; stroke-width: 1.5; stroke-linecap: square"/>
    </g>
    <g id="text_25">
     <!-- 60 -->
     <g style="fill: #343434" transform="translate(507.239162 27.63375) scale(0.08 -0.08)">
      <use xlink:href="#ArialMT-36"/>
      <use xlink:href="#ArialMT-30" x="55.615234"/>
     </g>
    </g>
   </g>
  </g>
 </g>
 <defs>
  <clipPath id="p1a2656289c">
   <rect x="46.079937" y="42.507986" width="629.479699" height="245.67491"/>
  </clipPath>
 </defs>
</svg>
