<?xml version="1.0" encoding="utf-8" standalone="no"?>
<!DOCTYPE svg PUBLIC "-//W3C//DTD SVG 1.1//EN"
  "http://www.w3.org/Graphics/SVG/1.1/DTD/svg11.dtd">
<svg xmlns:xlink="http://www.w3.org/1999/xlink" width="682.759636pt" height="322.327989pt" viewBox="0 0 682.759636 322.327989" xmlns="http://www.w3.org/2000/svg" version="1.1">
 <metadata>
  <rdf:RDF xmlns:dc="http://purl.org/dc/elements/1.1/" xmlns:cc="http://creativecommons.org/ns#" xmlns:rdf="http://www.w3.org/1999/02/22-rdf-syntax-ns#">
   <cc:Work>
    <dc:type rdf:resource="http://purl.org/dc/dcmitype/StillImage"/>
    <dc:date>2026-07-22T19:01:08.357958</dc:date>
    <dc:format>image/svg+xml</dc:format>
    <dc:creator>
     <cc:Agent>
      <dc:title>Matplotlib v3.9.2, https://matplotlib.org/</dc:title>
     </cc:Agent>
    </dc:creator>
   </cc:Work>
  </rdf:RDF>
 </metadata>
 <defs>
  <style type="text/css">*{stroke-linejoin: round; stroke-linecap: butt}</style>
 </defs>
 <g id="figure_1">
  <g id="patch_1">
   <path d="M 0 322.327989 
L 682.759636 322.327989 
L 682.759636 0 
L 0 0 
z
" style="fill: #ffffff"/>
  </g>
  <g id="axes_1">
   <g id="patch_2">
    <path d="M 46.079937 288.182896 
L 675.559636 288.182896 
L 675.559636 42.507986 
L 46.079937 42.507986 
z
" style="fill: #ffffff"/>
   </g>
   <g id="matplotlib.axis_1">
    <g id="xtick_1">
     <g id="line2d_1">
      <path d="M 46.079937 288.182896 
L 46.079937 42.507986 
" clip-path="url(#p9fbf78f698)" style="fill: none; stroke: #d9dee3; stroke-opacity: 0.75; stroke-width: 0.65; stroke-linecap: square"/>
     </g>
     <g id="line2d_2">
      <defs>
       <path id="m505139ec6d" d="M 0 0 
L 0 3.5 
" style="stroke: #666666; stroke-width: 0.8"/>
      </defs>
      <g>
       <use xlink:href="#m505139ec6d" x="46.079937" y="288.182896" style="fill: #666666; stroke: #666666; stroke-width: 0.8"/>
      </g>
     </g>
     <g id="text_1">
      <!-- 0 -->
      <g style="fill: #666666" transform="translate(43.799953 301.052302) scale(0.082 -0.082)">
       <defs>
        <path id="ArialMT-30" d="M 266 2259 
Q 266 3072 433 3567 
Q 600 4063 929 4331 
Q 1259 4600 1759 4600 
Q 2128 4600 2406 4451 
Q 2684 4303 2865 4023 
Q 3047 3744 3150 3342 
Q 3253 2941 3253 2259 
Q 3253 1453 3087 958 
Q 2922 463 2592 192 
Q 2263 -78 1759 -78 
Q 1097 -78 719 397 
Q 266 969 266 2259 
z
M 844 2259 
Q 844 1131 1108 757 
Q 1372 384 1759 384 
Q 2147 384 2411 759 
Q 2675 1134 2675 2259 
Q 2675 3391 2411 3762 
Q 2147 4134 1753 4134 
Q 1366 4134 1134 3806 
Q 844 3388 844 2259 
z
" transform="scale(0.015625)"/>
       </defs>
       <use xlink:href="#ArialMT-30"/>
      </g>
     </g>
    </g>
    <g id="xtick_2">
     <g id="line2d_3">
      <path d="M 130.010564 288.182896 
L 130.010564 42.507986 
" clip-path="url(#p9fbf78f698)" style="fill: none; stroke: #d9dee3; stroke-opacity: 0.75; stroke-width: 0.65; stroke-linecap: square"/>
     </g>
     <g id="line2d_4">
      <g>
       <use xlink:href="#m505139ec6d" x="130.010564" y="288.182896" style="fill: #666666; stroke: #666666; stroke-width: 0.8"/>
      </g>
     </g>
     <g id="text_2">
      <!-- 20 -->
      <g style="fill: #666666" transform="translate(125.450595 301.052302) scale(0.082 -0.082)">
       <defs>
        <path id="ArialMT-32" d="M 3222 541 
L 3222 0 
L 194 0 
Q 188 203 259 391 
Q 375 700 629 1000 
Q 884 1300 1366 1694 
Q 2113 2306 2375 2664 
Q 2638 3022 2638 3341 
Q 2638 3675 2398 3904 
Q 2159 4134 1775 4134 
Q 1369 4134 1125 3890 
Q 881 3647 878 3216 
L 300 3275 
Q 359 3922 746 4261 
Q 1134 4600 1788 4600 
Q 2447 4600 2831 4234 
Q 3216 3869 3216 3328 
Q 3216 3053 3103 2787 
Q 2991 2522 2730 2228 
Q 2469 1934 1863 1422 
Q 1356 997 1212 845 
Q 1069 694 975 541 
L 3222 541 
z
" transform="scale(0.015625)"/>
       </defs>
       <use xlink:href="#ArialMT-32"/>
       <use xlink:href="#ArialMT-30" x="55.615234"/>
      </g>
     </g>
    </g>
    <g id="xtick_3">
     <g id="line2d_5">
      <path d="M 213.94119 288.182896 
L 213.94119 42.507986 
" clip-path="url(#p9fbf78f698)" style="fill: none; stroke: #d9dee3; stroke-opacity: 0.75; stroke-width: 0.65; stroke-linecap: square"/>
     </g>
     <g id="line2d_6">
      <g>
       <use xlink:href="#m505139ec6d" x="213.94119" y="288.182896" style="fill: #666666; stroke: #666666; stroke-width: 0.8"/>
      </g>
     </g>
     <g id="text_3">
      <!-- 40 -->
      <g style="fill: #666666" transform="translate(209.381222 301.052302) scale(0.082 -0.082)">
       <defs>
        <path id="ArialMT-34" d="M 2069 0 
L 2069 1097 
L 81 1097 
L 81 1613 
L 2172 4581 
L 2631 4581 
L 2631 1613 
L 3250 1613 
L 3250 1097 
L 2631 1097 
L 2631 0 
L 2069 0 
z
M 2069 1613 
L 2069 3678 
L 634 1613 
L 2069 1613 
z
" transform="scale(0.015625)"/>
       </defs>
       <use xlink:href="#ArialMT-34"/>
       <use xlink:href="#ArialMT-30" x="55.615234"/>
      </g>
     </g>
    </g>
    <g id="xtick_4">
     <g id="line2d_7">
      <path d="M 297.871817 288.182896 
L 297.871817 42.507986 
" clip-path="url(#p9fbf78f698)" style="fill: none; stroke: #d9dee3; stroke-opacity: 0.75; stroke-width: 0.65; stroke-linecap: square"/>
     </g>
     <g id="line2d_8">
      <g>
       <use xlink:href="#m505139ec6d" x="297.871817" y="288.182896" style="fill: #666666; stroke: #666666; stroke-width: 0.8"/>
      </g>
     </g>
     <g id="text_4">
      <!-- 60 -->
      <g style="fill: #666666" transform="translate(293.311848 301.052302) scale(0.082 -0.082)">
       <defs>
        <path id="ArialMT-36" d="M 3184 3459 
L 2625 3416 
Q 2550 3747 2413 3897 
Q 2184 4138 1850 4138 
Q 1581 4138 1378 3988 
Q 1113 3794 959 3422 
Q 806 3050 800 2363 
Q 1003 2672 1297 2822 
Q 1591 2972 1913 2972 
Q 2475 2972 2870 2558 
Q 3266 2144 3266 1488 
Q 3266 1056 3080 686 
Q 2894 316 2569 119 
Q 2244 -78 1831 -78 
Q 1128 -78 684 439 
Q 241 956 241 2144 
Q 241 3472 731 4075 
Q 1159 4600 1884 4600 
Q 2425 4600 2770 4297 
Q 3116 3994 3184 3459 
z
M 888 1484 
Q 888 1194 1011 928 
Q 1134 663 1356 523 
Q 1578 384 1822 384 
Q 2178 384 2434 671 
Q 2691 959 2691 1453 
Q 2691 1928 2437 2201 
Q 2184 2475 1800 2475 
Q 1419 2475 1153 2201 
Q 888 1928 888 1484 
z
" transform="scale(0.015625)"/>
       </defs>
       <use xlink:href="#ArialMT-36"/>
       <use xlink:href="#ArialMT-30" x="55.615234"/>
      </g>
     </g>
    </g>
    <g id="xtick_5">
     <g id="line2d_9">
      <path d="M 381.802443 288.182896 
L 381.802443 42.507986 
" clip-path="url(#p9fbf78f698)" style="fill: none; stroke: #d9dee3; stroke-opacity: 0.75; stroke-width: 0.65; stroke-linecap: square"/>
     </g>
     <g id="line2d_10">
      <g>
       <use xlink:href="#m505139ec6d" x="381.802443" y="288.182896" style="fill: #666666; stroke: #666666; stroke-width: 0.8"/>
      </g>
     </g>
     <g id="text_5">
      <!-- 80 -->
      <g style="fill: #666666" transform="translate(377.242475 301.052302) scale(0.082 -0.082)">
       <defs>
        <path id="ArialMT-38" d="M 1131 2484 
Q 781 2613 612 2850 
Q 444 3088 444 3419 
Q 444 3919 803 4259 
Q 1163 4600 1759 4600 
Q 2359 4600 2725 4251 
Q 3091 3903 3091 3403 
Q 3091 3084 2923 2848 
Q 2756 2613 2416 2484 
Q 2838 2347 3058 2040 
Q 3278 1734 3278 1309 
Q 3278 722 2862 322 
Q 2447 -78 1769 -78 
Q 1091 -78 675 323 
Q 259 725 259 1325 
Q 259 1772 486 2073 
Q 713 2375 1131 2484 
z
M 1019 3438 
Q 1019 3113 1228 2906 
Q 1438 2700 1772 2700 
Q 2097 2700 2305 2904 
Q 2513 3109 2513 3406 
Q 2513 3716 2298 3927 
Q 2084 4138 1766 4138 
Q 1444 4138 1231 3931 
Q 1019 3725 1019 3438 
z
M 838 1322 
Q 838 1081 952 856 
Q 1066 631 1291 507 
Q 1516 384 1775 384 
Q 2178 384 2440 643 
Q 2703 903 2703 1303 
Q 2703 1709 2433 1975 
Q 2163 2241 1756 2241 
Q 1359 2241 1098 1978 
Q 838 1716 838 1322 
z
" transform="scale(0.015625)"/>
       </defs>
       <use xlink:href="#ArialMT-38"/>
       <use xlink:href="#ArialMT-30" x="55.615234"/>
      </g>
     </g>
    </g>
    <g id="xtick_6">
     <g id="line2d_11">
      <path d="M 465.73307 288.182896 
L 465.73307 42.507986 
" clip-path="url(#p9fbf78f698)" style="fill: none; stroke: #d9dee3; stroke-opacity: 0.75; stroke-width: 0.65; stroke-linecap: square"/>
     </g>
     <g id="line2d_12">
      <g>
       <use xlink:href="#m505139ec6d" x="465.73307" y="288.182896" style="fill: #666666; stroke: #666666; stroke-width: 0.8"/>
      </g>
     </g>
     <g id="text_6">
      <!-- 100 -->
      <g style="fill: #666666" transform="translate(458.893117 301.052302) scale(0.082 -0.082)">
       <defs>
        <path id="ArialMT-31" d="M 2384 0 
L 1822 0 
L 1822 3584 
Q 1619 3391 1289 3197 
Q 959 3003 697 2906 
L 697 3450 
Q 1169 3672 1522 3987 
Q 1875 4303 2022 4600 
L 2384 4600 
L 2384 0 
z
" transform="scale(0.015625)"/>
       </defs>
       <use xlink:href="#ArialMT-31"/>
       <use xlink:href="#ArialMT-30" x="55.615234"/>
       <use xlink:href="#ArialMT-30" x="111.230469"/>
      </g>
     </g>
    </g>
    <g id="xtick_7">
     <g id="line2d_13">
      <path d="M 549.663696 288.182896 
L 549.663696 42.507986 
" clip-path="url(#p9fbf78f698)" style="fill: none; stroke: #d9dee3; stroke-opacity: 0.75; stroke-width: 0.65; stroke-linecap: square"/>
     </g>
     <g id="line2d_14">
      <g>
       <use xlink:href="#m505139ec6d" x="549.663696" y="288.182896" style="fill: #666666; stroke: #666666; stroke-width: 0.8"/>
      </g>
     </g>
     <g id="text_7">
      <!-- 120 -->
      <g style="fill: #666666" transform="translate(542.823743 301.052302) scale(0.082 -0.082)">
       <use xlink:href="#ArialMT-31"/>
       <use xlink:href="#ArialMT-32" x="55.615234"/>
       <use xlink:href="#ArialMT-30" x="111.230469"/>
      </g>
     </g>
    </g>
    <g id="xtick_8">
     <g id="line2d_15">
      <path d="M 633.594323 288.182896 
L 633.594323 42.507986 
" clip-path="url(#p9fbf78f698)" style="fill: none; stroke: #d9dee3; stroke-opacity: 0.75; stroke-width: 0.65; stroke-linecap: square"/>
     </g>
     <g id="line2d_16">
      <g>
       <use xlink:href="#m505139ec6d" x="633.594323" y="288.182896" style="fill: #666666; stroke: #666666; stroke-width: 0.8"/>
      </g>
     </g>
     <g id="text_8">
      <!-- 140 -->
      <g style="fill: #666666" transform="translate(626.75437 301.052302) scale(0.082 -0.082)">
       <use xlink:href="#ArialMT-31"/>
       <use xlink:href="#ArialMT-34" x="55.615234"/>
       <use xlink:href="#ArialMT-30" x="111.230469"/>
      </g>
     </g>
    </g>
    <g id="text_9">
     <!-- Drain voltage, VDS (V) -->
     <g style="fill: #666666" transform="translate(315.305099 313.233771) scale(0.09 -0.09)">
      <defs>
       <path id="ArialMT-44" d="M 494 0 
L 494 4581 
L 2072 4581 
Q 2606 4581 2888 4516 
Q 3281 4425 3559 4188 
Q 3922 3881 4101 3404 
Q 4281 2928 4281 2316 
Q 4281 1794 4159 1391 
Q 4038 988 3847 723 
Q 3656 459 3429 307 
Q 3203 156 2883 78 
Q 2563 0 2147 0 
L 494 0 
z
M 1100 541 
L 2078 541 
Q 2531 541 2789 625 
Q 3047 709 3200 863 
Q 3416 1078 3536 1442 
Q 3656 1806 3656 2325 
Q 3656 3044 3420 3430 
Q 3184 3816 2847 3947 
Q 2603 4041 2063 4041 
L 1100 4041 
L 1100 541 
z
" transform="scale(0.015625)"/>
       <path id="ArialMT-72" d="M 416 0 
L 416 3319 
L 922 3319 
L 922 2816 
Q 1116 3169 1280 3281 
Q 1444 3394 1641 3394 
Q 1925 3394 2219 3213 
L 2025 2691 
Q 1819 2813 1613 2813 
Q 1428 2813 1281 2702 
Q 1134 2591 1072 2394 
Q 978 2094 978 1738 
L 978 0 
L 416 0 
z
" transform="scale(0.015625)"/>
       <path id="ArialMT-61" d="M 2588 409 
Q 2275 144 1986 34 
Q 1697 -75 1366 -75 
Q 819 -75 525 192 
Q 231 459 231 875 
Q 231 1119 342 1320 
Q 453 1522 633 1644 
Q 813 1766 1038 1828 
Q 1203 1872 1538 1913 
Q 2219 1994 2541 2106 
Q 2544 2222 2544 2253 
Q 2544 2597 2384 2738 
Q 2169 2928 1744 2928 
Q 1347 2928 1158 2789 
Q 969 2650 878 2297 
L 328 2372 
Q 403 2725 575 2942 
Q 747 3159 1072 3276 
Q 1397 3394 1825 3394 
Q 2250 3394 2515 3294 
Q 2781 3194 2906 3042 
Q 3031 2891 3081 2659 
Q 3109 2516 3109 2141 
L 3109 1391 
Q 3109 606 3145 398 
Q 3181 191 3288 0 
L 2700 0 
Q 2613 175 2588 409 
z
M 2541 1666 
Q 2234 1541 1622 1453 
Q 1275 1403 1131 1340 
Q 988 1278 909 1158 
Q 831 1038 831 891 
Q 831 666 1001 516 
Q 1172 366 1500 366 
Q 1825 366 2078 508 
Q 2331 650 2450 897 
Q 2541 1088 2541 1459 
L 2541 1666 
z
" transform="scale(0.015625)"/>
       <path id="ArialMT-69" d="M 425 3934 
L 425 4581 
L 988 4581 
L 988 3934 
L 425 3934 
z
M 425 0 
L 425 3319 
L 988 3319 
L 988 0 
L 425 0 
z
" transform="scale(0.015625)"/>
       <path id="ArialMT-6e" d="M 422 0 
L 422 3319 
L 928 3319 
L 928 2847 
Q 1294 3394 1984 3394 
Q 2284 3394 2536 3286 
Q 2788 3178 2913 3003 
Q 3038 2828 3088 2588 
Q 3119 2431 3119 2041 
L 3119 0 
L 2556 0 
L 2556 2019 
Q 2556 2363 2490 2533 
Q 2425 2703 2258 2804 
Q 2091 2906 1866 2906 
Q 1506 2906 1245 2678 
Q 984 2450 984 1813 
L 984 0 
L 422 0 
z
" transform="scale(0.015625)"/>
       <path id="ArialMT-20" transform="scale(0.015625)"/>
       <path id="ArialMT-76" d="M 1344 0 
L 81 3319 
L 675 3319 
L 1388 1331 
Q 1503 1009 1600 663 
Q 1675 925 1809 1294 
L 2547 3319 
L 3125 3319 
L 1869 0 
L 1344 0 
z
" transform="scale(0.015625)"/>
       <path id="ArialMT-6f" d="M 213 1659 
Q 213 2581 725 3025 
Q 1153 3394 1769 3394 
Q 2453 3394 2887 2945 
Q 3322 2497 3322 1706 
Q 3322 1066 3130 698 
Q 2938 331 2570 128 
Q 2203 -75 1769 -75 
Q 1072 -75 642 372 
Q 213 819 213 1659 
z
M 791 1659 
Q 791 1022 1069 705 
Q 1347 388 1769 388 
Q 2188 388 2466 706 
Q 2744 1025 2744 1678 
Q 2744 2294 2464 2611 
Q 2184 2928 1769 2928 
Q 1347 2928 1069 2612 
Q 791 2297 791 1659 
z
" transform="scale(0.015625)"/>
       <path id="ArialMT-6c" d="M 409 0 
L 409 4581 
L 972 4581 
L 972 0 
L 409 0 
z
" transform="scale(0.015625)"/>
       <path id="ArialMT-74" d="M 1650 503 
L 1731 6 
Q 1494 -44 1306 -44 
Q 1000 -44 831 53 
Q 663 150 594 308 
Q 525 466 525 972 
L 525 2881 
L 113 2881 
L 113 3319 
L 525 3319 
L 525 4141 
L 1084 4478 
L 1084 3319 
L 1650 3319 
L 1650 2881 
L 1084 2881 
L 1084 941 
Q 1084 700 1114 631 
Q 1144 563 1211 522 
Q 1278 481 1403 481 
Q 1497 481 1650 503 
z
" transform="scale(0.015625)"/>
       <path id="ArialMT-67" d="M 319 -275 
L 866 -356 
Q 900 -609 1056 -725 
Q 1266 -881 1628 -881 
Q 2019 -881 2231 -725 
Q 2444 -569 2519 -288 
Q 2563 -116 2559 434 
Q 2191 0 1641 0 
Q 956 0 581 494 
Q 206 988 206 1678 
Q 206 2153 378 2554 
Q 550 2956 876 3175 
Q 1203 3394 1644 3394 
Q 2231 3394 2613 2919 
L 2613 3319 
L 3131 3319 
L 3131 450 
Q 3131 -325 2973 -648 
Q 2816 -972 2473 -1159 
Q 2131 -1347 1631 -1347 
Q 1038 -1347 672 -1080 
Q 306 -813 319 -275 
z
M 784 1719 
Q 784 1066 1043 766 
Q 1303 466 1694 466 
Q 2081 466 2343 764 
Q 2606 1063 2606 1700 
Q 2606 2309 2336 2618 
Q 2066 2928 1684 2928 
Q 1309 2928 1046 2623 
Q 784 2319 784 1719 
z
" transform="scale(0.015625)"/>
       <path id="ArialMT-65" d="M 2694 1069 
L 3275 997 
Q 3138 488 2766 206 
Q 2394 -75 1816 -75 
Q 1088 -75 661 373 
Q 234 822 234 1631 
Q 234 2469 665 2931 
Q 1097 3394 1784 3394 
Q 2450 3394 2872 2941 
Q 3294 2488 3294 1666 
Q 3294 1616 3291 1516 
L 816 1516 
Q 847 969 1125 678 
Q 1403 388 1819 388 
Q 2128 388 2347 550 
Q 2566 713 2694 1069 
z
M 847 1978 
L 2700 1978 
Q 2663 2397 2488 2606 
Q 2219 2931 1791 2931 
Q 1403 2931 1139 2672 
Q 875 2413 847 1978 
z
" transform="scale(0.015625)"/>
       <path id="ArialMT-2c" d="M 569 0 
L 569 641 
L 1209 641 
L 1209 0 
Q 1209 -353 1084 -570 
Q 959 -788 688 -906 
L 531 -666 
Q 709 -588 793 -436 
Q 878 -284 888 0 
L 569 0 
z
" transform="scale(0.015625)"/>
       <path id="ArialMT-56" d="M 1803 0 
L 28 4581 
L 684 4581 
L 1875 1253 
Q 2019 853 2116 503 
Q 2222 878 2363 1253 
L 3600 4581 
L 4219 4581 
L 2425 0 
L 1803 0 
z
" transform="scale(0.015625)"/>
       <path id="ArialMT-53" d="M 288 1472 
L 859 1522 
Q 900 1178 1048 958 
Q 1197 738 1509 602 
Q 1822 466 2213 466 
Q 2559 466 2825 569 
Q 3091 672 3220 851 
Q 3350 1031 3350 1244 
Q 3350 1459 3225 1620 
Q 3100 1781 2813 1891 
Q 2628 1963 1997 2114 
Q 1366 2266 1113 2400 
Q 784 2572 623 2826 
Q 463 3081 463 3397 
Q 463 3744 659 4045 
Q 856 4347 1234 4503 
Q 1613 4659 2075 4659 
Q 2584 4659 2973 4495 
Q 3363 4331 3572 4012 
Q 3781 3694 3797 3291 
L 3216 3247 
Q 3169 3681 2898 3903 
Q 2628 4125 2100 4125 
Q 1550 4125 1298 3923 
Q 1047 3722 1047 3438 
Q 1047 3191 1225 3031 
Q 1400 2872 2139 2705 
Q 2878 2538 3153 2413 
Q 3553 2228 3743 1945 
Q 3934 1663 3934 1294 
Q 3934 928 3725 604 
Q 3516 281 3123 101 
Q 2731 -78 2241 -78 
Q 1619 -78 1198 103 
Q 778 284 539 648 
Q 300 1013 288 1472 
z
" transform="scale(0.015625)"/>
       <path id="ArialMT-28" d="M 1497 -1347 
Q 1031 -759 709 28 
Q 388 816 388 1659 
Q 388 2403 628 3084 
Q 909 3875 1497 4659 
L 1900 4659 
Q 1522 4009 1400 3731 
Q 1209 3300 1100 2831 
Q 966 2247 966 1656 
Q 966 153 1900 -1347 
L 1497 -1347 
z
" transform="scale(0.015625)"/>
       <path id="ArialMT-29" d="M 791 -1347 
L 388 -1347 
Q 1322 153 1322 1656 
Q 1322 2244 1188 2822 
Q 1081 3291 891 3722 
Q 769 4003 388 4659 
L 791 4659 
Q 1378 3875 1659 3084 
Q 1900 2403 1900 1659 
Q 1900 816 1576 28 
Q 1253 -759 791 -1347 
z
" transform="scale(0.015625)"/>
      </defs>
      <use xlink:href="#ArialMT-44"/>
      <use xlink:href="#ArialMT-72" x="72.216797"/>
      <use xlink:href="#ArialMT-61" x="105.517578"/>
      <use xlink:href="#ArialMT-69" x="161.132812"/>
      <use xlink:href="#ArialMT-6e" x="183.349609"/>
      <use xlink:href="#ArialMT-20" x="238.964844"/>
      <use xlink:href="#ArialMT-76" x="266.748047"/>
      <use xlink:href="#ArialMT-6f" x="316.748047"/>
      <use xlink:href="#ArialMT-6c" x="372.363281"/>
      <use xlink:href="#ArialMT-74" x="394.580078"/>
      <use xlink:href="#ArialMT-61" x="422.363281"/>
      <use xlink:href="#ArialMT-67" x="477.978516"/>
      <use xlink:href="#ArialMT-65" x="533.59375"/>
      <use xlink:href="#ArialMT-2c" x="589.208984"/>
      <use xlink:href="#ArialMT-20" x="616.992188"/>
      <use xlink:href="#ArialMT-56" x="644.775391"/>
      <use xlink:href="#ArialMT-44" x="711.474609"/>
      <use xlink:href="#ArialMT-53" x="783.691406"/>
      <use xlink:href="#ArialMT-20" x="850.390625"/>
      <use xlink:href="#ArialMT-28" x="878.173828"/>
      <use xlink:href="#ArialMT-56" x="911.474609"/>
      <use xlink:href="#ArialMT-29" x="978.173828"/>
     </g>
    </g>
   </g>
   <g id="matplotlib.axis_2">
    <g id="ytick_1">
     <g id="line2d_17">
      <path d="M 46.079937 288.182896 
L 675.559636 288.182896 
" clip-path="url(#p9fbf78f698)" style="fill: none; stroke: #d9dee3; stroke-opacity: 0.75; stroke-width: 0.65; stroke-linecap: square"/>
     </g>
     <g id="line2d_18">
      <defs>
       <path id="m8e893f8086" d="M 0 0 
L -3.5 0 
" style="stroke: #666666; stroke-width: 0.8"/>
      </defs>
      <g>
       <use xlink:href="#m8e893f8086" x="46.079937" y="288.182896" style="fill: #666666; stroke: #666666; stroke-width: 0.8"/>
      </g>
     </g>
     <g id="text_10">
      <!-- $\mathdefault{10^{-13}}$ -->
      <g style="fill: #666666" transform="translate(19.645938 292.411021) scale(0.082 -0.082)">
       <defs>
        <path id="ArialMT-2212" d="M 3381 1997 
L 356 1997 
L 356 2522 
L 3381 2522 
L 3381 1997 
z
" transform="scale(0.015625)"/>
        <path id="ArialMT-33" d="M 269 1209 
L 831 1284 
Q 928 806 1161 595 
Q 1394 384 1728 384 
Q 2125 384 2398 659 
Q 2672 934 2672 1341 
Q 2672 1728 2419 1979 
Q 2166 2231 1775 2231 
Q 1616 2231 1378 2169 
L 1441 2663 
Q 1497 2656 1531 2656 
Q 1891 2656 2178 2843 
Q 2466 3031 2466 3422 
Q 2466 3731 2256 3934 
Q 2047 4138 1716 4138 
Q 1388 4138 1169 3931 
Q 950 3725 888 3313 
L 325 3413 
Q 428 3978 793 4289 
Q 1159 4600 1703 4600 
Q 2078 4600 2393 4439 
Q 2709 4278 2876 4000 
Q 3044 3722 3044 3409 
Q 3044 3113 2884 2869 
Q 2725 2625 2413 2481 
Q 2819 2388 3044 2092 
Q 3269 1797 3269 1353 
Q 3269 753 2831 336 
Q 2394 -81 1725 -81 
Q 1122 -81 723 278 
Q 325 638 269 1209 
z
" transform="scale(0.015625)"/>
       </defs>
       <use xlink:href="#ArialMT-31" transform="translate(0 0.99375)"/>
       <use xlink:href="#ArialMT-30" transform="translate(55.615234 0.99375)"/>
       <use xlink:href="#ArialMT-2212" transform="translate(112.972813 70.6875) scale(0.7)"/>
       <use xlink:href="#ArialMT-31" transform="translate(153.851719 70.6875) scale(0.7)"/>
       <use xlink:href="#ArialMT-33" transform="translate(192.782383 70.6875) scale(0.7)"/>
      </g>
     </g>
    </g>
    <g id="ytick_2">
     <g id="line2d_19">
      <path d="M 46.079937 244.704574 
L 675.559636 244.704574 
" clip-path="url(#p9fbf78f698)" style="fill: none; stroke: #d9dee3; stroke-opacity: 0.75; stroke-width: 0.65; stroke-linecap: square"/>
     </g>
     <g id="line2d_20">
      <g>
       <use xlink:href="#m8e893f8086" x="46.079937" y="244.704574" style="fill: #666666; stroke: #666666; stroke-width: 0.8"/>
      </g>
     </g>
     <g id="text_11">
      <!-- $\mathdefault{10^{-11}}$ -->
      <g style="fill: #666666" transform="translate(19.645938 248.932699) scale(0.082 -0.082)">
       <use xlink:href="#ArialMT-31" transform="translate(0 0.99375)"/>
       <use xlink:href="#ArialMT-30" transform="translate(55.615234 0.99375)"/>
       <use xlink:href="#ArialMT-2212" transform="translate(112.972813 70.6875) scale(0.7)"/>
       <use xlink:href="#ArialMT-31" transform="translate(153.851719 70.6875) scale(0.7)"/>
       <use xlink:href="#ArialMT-31" transform="translate(192.782383 70.6875) scale(0.7)"/>
      </g>
     </g>
    </g>
    <g id="ytick_3">
     <g id="line2d_21">
      <path d="M 46.079937 201.226252 
L 675.559636 201.226252 
" clip-path="url(#p9fbf78f698)" style="fill: none; stroke: #d9dee3; stroke-opacity: 0.75; stroke-width: 0.65; stroke-linecap: square"/>
     </g>
     <g id="line2d_22">
      <g>
       <use xlink:href="#m8e893f8086" x="46.079937" y="201.226252" style="fill: #666666; stroke: #666666; stroke-width: 0.8"/>
      </g>
     </g>
     <g id="text_12">
      <!-- $\mathdefault{10^{-9}}$ -->
      <g style="fill: #666666" transform="translate(22.843938 205.454377) scale(0.082 -0.082)">
       <defs>
        <path id="ArialMT-39" d="M 350 1059 
L 891 1109 
Q 959 728 1153 556 
Q 1347 384 1650 384 
Q 1909 384 2104 503 
Q 2300 622 2425 820 
Q 2550 1019 2634 1356 
Q 2719 1694 2719 2044 
Q 2719 2081 2716 2156 
Q 2547 1888 2255 1720 
Q 1963 1553 1622 1553 
Q 1053 1553 659 1965 
Q 266 2378 266 3053 
Q 266 3750 677 4175 
Q 1088 4600 1706 4600 
Q 2153 4600 2523 4359 
Q 2894 4119 3086 3673 
Q 3278 3228 3278 2384 
Q 3278 1506 3087 986 
Q 2897 466 2520 194 
Q 2144 -78 1638 -78 
Q 1100 -78 759 220 
Q 419 519 350 1059 
z
M 2653 3081 
Q 2653 3566 2395 3850 
Q 2138 4134 1775 4134 
Q 1400 4134 1122 3828 
Q 844 3522 844 3034 
Q 844 2597 1108 2323 
Q 1372 2050 1759 2050 
Q 2150 2050 2401 2323 
Q 2653 2597 2653 3081 
z
" transform="scale(0.015625)"/>
       </defs>
       <use xlink:href="#ArialMT-31" transform="translate(0 0.99375)"/>
       <use xlink:href="#ArialMT-30" transform="translate(55.615234 0.99375)"/>
       <use xlink:href="#ArialMT-2212" transform="translate(112.972813 70.6875) scale(0.7)"/>
       <use xlink:href="#ArialMT-39" transform="translate(153.851719 70.6875) scale(0.7)"/>
      </g>
     </g>
    </g>
    <g id="ytick_4">
     <g id="line2d_23">
      <path d="M 46.079937 157.74793 
L 675.559636 157.74793 
" clip-path="url(#p9fbf78f698)" style="fill: none; stroke: #d9dee3; stroke-opacity: 0.75; stroke-width: 0.65; stroke-linecap: square"/>
     </g>
     <g id="line2d_24">
      <g>
       <use xlink:href="#m8e893f8086" x="46.079937" y="157.74793" style="fill: #666666; stroke: #666666; stroke-width: 0.8"/>
      </g>
     </g>
     <g id="text_13">
      <!-- $\mathdefault{10^{-7}}$ -->
      <g style="fill: #666666" transform="translate(22.843938 161.935055) scale(0.082 -0.082)">
       <defs>
        <path id="ArialMT-37" d="M 303 3981 
L 303 4522 
L 3269 4522 
L 3269 4084 
Q 2831 3619 2401 2847 
Q 1972 2075 1738 1259 
Q 1569 684 1522 0 
L 944 0 
Q 953 541 1156 1306 
Q 1359 2072 1739 2783 
Q 2119 3494 2547 3981 
L 303 3981 
z
" transform="scale(0.015625)"/>
       </defs>
       <use xlink:href="#ArialMT-31" transform="translate(0 0.846875)"/>
       <use xlink:href="#ArialMT-30" transform="translate(55.615234 0.846875)"/>
       <use xlink:href="#ArialMT-2212" transform="translate(112.972813 70.540625) scale(0.7)"/>
       <use xlink:href="#ArialMT-37" transform="translate(153.851719 70.540625) scale(0.7)"/>
      </g>
     </g>
    </g>
    <g id="ytick_5">
     <g id="line2d_25">
      <path d="M 46.079937 114.269608 
L 675.559636 114.269608 
" clip-path="url(#p9fbf78f698)" style="fill: none; stroke: #d9dee3; stroke-opacity: 0.75; stroke-width: 0.65; stroke-linecap: square"/>
     </g>
     <g id="line2d_26">
      <g>
       <use xlink:href="#m8e893f8086" x="46.079937" y="114.269608" style="fill: #666666; stroke: #666666; stroke-width: 0.8"/>
      </g>
     </g>
     <g id="text_14">
      <!-- $\mathdefault{10^{-5}}$ -->
      <g style="fill: #666666" transform="translate(22.843938 118.456733) scale(0.082 -0.082)">
       <defs>
        <path id="ArialMT-35" d="M 266 1200 
L 856 1250 
Q 922 819 1161 601 
Q 1400 384 1738 384 
Q 2144 384 2425 690 
Q 2706 997 2706 1503 
Q 2706 1984 2436 2262 
Q 2166 2541 1728 2541 
Q 1456 2541 1237 2417 
Q 1019 2294 894 2097 
L 366 2166 
L 809 4519 
L 3088 4519 
L 3088 3981 
L 1259 3981 
L 1013 2750 
Q 1425 3038 1878 3038 
Q 2478 3038 2890 2622 
Q 3303 2206 3303 1553 
Q 3303 931 2941 478 
Q 2500 -78 1738 -78 
Q 1113 -78 717 272 
Q 322 622 266 1200 
z
" transform="scale(0.015625)"/>
       </defs>
       <use xlink:href="#ArialMT-31" transform="translate(0 0.879688)"/>
       <use xlink:href="#ArialMT-30" transform="translate(55.615234 0.879688)"/>
       <use xlink:href="#ArialMT-2212" transform="translate(112.972813 70.573438) scale(0.7)"/>
       <use xlink:href="#ArialMT-35" transform="translate(153.851719 70.573438) scale(0.7)"/>
      </g>
     </g>
    </g>
    <g id="ytick_6">
     <g id="line2d_27">
      <path d="M 46.079937 70.791286 
L 675.559636 70.791286 
" clip-path="url(#p9fbf78f698)" style="fill: none; stroke: #d9dee3; stroke-opacity: 0.75; stroke-width: 0.65; stroke-linecap: square"/>
     </g>
     <g id="line2d_28">
      <g>
       <use xlink:href="#m8e893f8086" x="46.079937" y="70.791286" style="fill: #666666; stroke: #666666; stroke-width: 0.8"/>
      </g>
     </g>
     <g id="text_15">
      <!-- $\mathdefault{10^{-3}}$ -->
      <g style="fill: #666666" transform="translate(22.843938 75.019411) scale(0.082 -0.082)">
       <use xlink:href="#ArialMT-31" transform="translate(0 0.99375)"/>
       <use xlink:href="#ArialMT-30" transform="translate(55.615234 0.99375)"/>
       <use xlink:href="#ArialMT-2212" transform="translate(112.972813 70.6875) scale(0.7)"/>
       <use xlink:href="#ArialMT-33" transform="translate(153.851719 70.6875) scale(0.7)"/>
      </g>
     </g>
    </g>
    <g id="text_16">
     <!-- Absolute drain current, |ID| (A) -->
     <g style="fill: #666666" transform="translate(13.751719 225.954112) rotate(-90) scale(0.09 -0.09)">
      <defs>
       <path id="ArialMT-41" d="M -9 0 
L 1750 4581 
L 2403 4581 
L 4278 0 
L 3588 0 
L 3053 1388 
L 1138 1388 
L 634 0 
L -9 0 
z
M 1313 1881 
L 2866 1881 
L 2388 3150 
Q 2169 3728 2063 4100 
Q 1975 3659 1816 3225 
L 1313 1881 
z
" transform="scale(0.015625)"/>
       <path id="ArialMT-62" d="M 941 0 
L 419 0 
L 419 4581 
L 981 4581 
L 981 2947 
Q 1338 3394 1891 3394 
Q 2197 3394 2470 3270 
Q 2744 3147 2920 2923 
Q 3097 2700 3197 2384 
Q 3297 2069 3297 1709 
Q 3297 856 2875 390 
Q 2453 -75 1863 -75 
Q 1275 -75 941 416 
L 941 0 
z
M 934 1684 
Q 934 1088 1097 822 
Q 1363 388 1816 388 
Q 2184 388 2453 708 
Q 2722 1028 2722 1663 
Q 2722 2313 2464 2622 
Q 2206 2931 1841 2931 
Q 1472 2931 1203 2611 
Q 934 2291 934 1684 
z
" transform="scale(0.015625)"/>
       <path id="ArialMT-73" d="M 197 991 
L 753 1078 
Q 800 744 1014 566 
Q 1228 388 1613 388 
Q 2000 388 2187 545 
Q 2375 703 2375 916 
Q 2375 1106 2209 1216 
Q 2094 1291 1634 1406 
Q 1016 1563 777 1677 
Q 538 1791 414 1992 
Q 291 2194 291 2438 
Q 291 2659 392 2848 
Q 494 3038 669 3163 
Q 800 3259 1026 3326 
Q 1253 3394 1513 3394 
Q 1903 3394 2198 3281 
Q 2494 3169 2634 2976 
Q 2775 2784 2828 2463 
L 2278 2388 
Q 2241 2644 2061 2787 
Q 1881 2931 1553 2931 
Q 1166 2931 1000 2803 
Q 834 2675 834 2503 
Q 834 2394 903 2306 
Q 972 2216 1119 2156 
Q 1203 2125 1616 2013 
Q 2213 1853 2448 1751 
Q 2684 1650 2818 1456 
Q 2953 1263 2953 975 
Q 2953 694 2789 445 
Q 2625 197 2315 61 
Q 2006 -75 1616 -75 
Q 969 -75 630 194 
Q 291 463 197 991 
z
" transform="scale(0.015625)"/>
       <path id="ArialMT-75" d="M 2597 0 
L 2597 488 
Q 2209 -75 1544 -75 
Q 1250 -75 995 37 
Q 741 150 617 320 
Q 494 491 444 738 
Q 409 903 409 1263 
L 409 3319 
L 972 3319 
L 972 1478 
Q 972 1038 1006 884 
Q 1059 663 1231 536 
Q 1403 409 1656 409 
Q 1909 409 2131 539 
Q 2353 669 2445 892 
Q 2538 1116 2538 1541 
L 2538 3319 
L 3100 3319 
L 3100 0 
L 2597 0 
z
" transform="scale(0.015625)"/>
       <path id="ArialMT-64" d="M 2575 0 
L 2575 419 
Q 2259 -75 1647 -75 
Q 1250 -75 917 144 
Q 584 363 401 755 
Q 219 1147 219 1656 
Q 219 2153 384 2558 
Q 550 2963 881 3178 
Q 1213 3394 1622 3394 
Q 1922 3394 2156 3267 
Q 2391 3141 2538 2938 
L 2538 4581 
L 3097 4581 
L 3097 0 
L 2575 0 
z
M 797 1656 
Q 797 1019 1065 703 
Q 1334 388 1700 388 
Q 2069 388 2326 689 
Q 2584 991 2584 1609 
Q 2584 2291 2321 2609 
Q 2059 2928 1675 2928 
Q 1300 2928 1048 2622 
Q 797 2316 797 1656 
z
" transform="scale(0.015625)"/>
       <path id="ArialMT-63" d="M 2588 1216 
L 3141 1144 
Q 3050 572 2676 248 
Q 2303 -75 1759 -75 
Q 1078 -75 664 370 
Q 250 816 250 1647 
Q 250 2184 428 2587 
Q 606 2991 970 3192 
Q 1334 3394 1763 3394 
Q 2303 3394 2647 3120 
Q 2991 2847 3088 2344 
L 2541 2259 
Q 2463 2594 2264 2762 
Q 2066 2931 1784 2931 
Q 1359 2931 1093 2626 
Q 828 2322 828 1663 
Q 828 994 1084 691 
Q 1341 388 1753 388 
Q 2084 388 2306 591 
Q 2528 794 2588 1216 
z
" transform="scale(0.015625)"/>
       <path id="ArialMT-7c" d="M 588 -1347 
L 588 4659 
L 1078 4659 
L 1078 -1347 
L 588 -1347 
z
" transform="scale(0.015625)"/>
       <path id="ArialMT-49" d="M 597 0 
L 597 4581 
L 1203 4581 
L 1203 0 
L 597 0 
z
" transform="scale(0.015625)"/>
      </defs>
      <use xlink:href="#ArialMT-41"/>
      <use xlink:href="#ArialMT-62" x="66.699219"/>
      <use xlink:href="#ArialMT-73" x="122.314453"/>
      <use xlink:href="#ArialMT-6f" x="172.314453"/>
      <use xlink:href="#ArialMT-6c" x="227.929688"/>
      <use xlink:href="#ArialMT-75" x="250.146484"/>
      <use xlink:href="#ArialMT-74" x="305.761719"/>
      <use xlink:href="#ArialMT-65" x="333.544922"/>
      <use xlink:href="#ArialMT-20" x="389.160156"/>
      <use xlink:href="#ArialMT-64" x="416.943359"/>
      <use xlink:href="#ArialMT-72" x="472.558594"/>
      <use xlink:href="#ArialMT-61" x="505.859375"/>
      <use xlink:href="#ArialMT-69" x="561.474609"/>
      <use xlink:href="#ArialMT-6e" x="583.691406"/>
      <use xlink:href="#ArialMT-20" x="639.306641"/>
      <use xlink:href="#ArialMT-63" x="667.089844"/>
      <use xlink:href="#ArialMT-75" x="717.089844"/>
      <use xlink:href="#ArialMT-72" x="772.705078"/>
      <use xlink:href="#ArialMT-72" x="806.005859"/>
      <use xlink:href="#ArialMT-65" x="839.306641"/>
      <use xlink:href="#ArialMT-6e" x="894.921875"/>
      <use xlink:href="#ArialMT-74" x="950.537109"/>
      <use xlink:href="#ArialMT-2c" x="978.320312"/>
      <use xlink:href="#ArialMT-20" x="1006.103516"/>
      <use xlink:href="#ArialMT-7c" x="1033.886719"/>
      <use xlink:href="#ArialMT-49" x="1059.863281"/>
      <use xlink:href="#ArialMT-44" x="1087.646484"/>
      <use xlink:href="#ArialMT-7c" x="1159.863281"/>
      <use xlink:href="#ArialMT-20" x="1185.839844"/>
      <use xlink:href="#ArialMT-28" x="1213.623047"/>
      <use xlink:href="#ArialMT-41" x="1246.923828"/>
      <use xlink:href="#ArialMT-29" x="1313.623047"/>
     </g>
    </g>
   </g>
   <g id="line2d_29">
    <path d="M 46.079937 249.889064 
L 50.276469 235.961598 
L 54.473 235.09806 
L 58.669531 232.865131 
L 62.866063 233.345721 
L 67.062594 228.562094 
L 71.259125 228.848962 
L 75.455657 228.15096 
L 79.652188 227.664305 
L 88.045251 225.929946 
L 92.241782 225.643767 
L 100.634845 224.640599 
L 104.831376 224.640599 
L 113.224439 223.882743 
L 117.42097 223.591569 
L 121.617501 223.45983 
L 125.814033 222.910605 
L 134.207095 222.647528 
L 138.403627 222.120396 
L 142.600158 222.795836 
L 150.993221 222.182858 
L 155.189752 221.708385 
L 163.582815 222.138727 
L 167.779346 221.572647 
L 171.975877 221.36417 
L 176.172409 221.775231 
L 180.36894 220.851065 
L 184.565471 221.193341 
L 188.762003 220.5115 
L 192.958534 220.443802 
L 197.155065 220.835073 
L 205.548128 220.183724 
L 209.744659 220.385723 
L 213.94119 219.689785 
L 218.137722 219.6446 
L 222.334253 220.024007 
L 226.530784 219.689785 
L 230.727316 219.803703 
L 234.923847 219.532575 
L 239.120378 219.44666 
L 243.31691 219.490905 
L 247.513441 218.734806 
L 251.709972 219.084024 
L 268.496098 218.742485 
L 272.692629 218.304694 
L 281.085692 218.582532 
L 285.282223 218.260792 
L 289.478754 218.209833 
L 293.675286 217.952012 
L 297.871817 217.907374 
L 302.068348 218.001595 
L 306.26488 217.696461 
L 310.461411 217.795535 
L 314.657942 217.696461 
L 318.854474 217.185655 
L 323.051005 217.44318 
L 327.247536 217.436488 
L 331.444068 216.882255 
L 335.640599 217.06055 
L 339.83713 217.066981 
L 344.033662 216.511165 
L 348.230193 217.013528 
L 352.426724 216.444686 
L 356.623255 216.169698 
L 360.819787 216.781862 
L 365.016318 216.049578 
L 369.212849 216.068849 
L 373.409381 215.970974 
L 377.605912 215.479942 
L 381.802443 216.236225 
L 385.998975 215.872214 
L 390.195506 215.275552 
L 394.392037 215.64633 
L 398.588569 215.068551 
L 402.7851 215.132971 
L 406.981631 215.352128 
L 411.178163 214.903429 
L 415.374694 214.855808 
L 419.571225 214.971879 
L 423.767757 214.332778 
L 427.964288 150.977946 
L 432.160819 127.741615 
L 436.357351 98.329804 
L 440.553882 50.79801 
L 444.750413 49.142162 
L 453.143476 49.052236 
L 675.559636 49.052205 
L 675.559636 49.052205 
" clip-path="url(#p9fbf78f698)" style="fill: none; stroke: #dceaf5; stroke-width: 1.5; stroke-linecap: square"/>
   </g>
   <g id="line2d_30">
    <path d="M 46.079937 254.775449 
L 50.276469 236.567599 
L 54.473 229.973933 
L 58.669531 230.726732 
L 62.866063 229.562349 
L 67.062594 227.566001 
L 71.259125 226.617758 
L 75.455657 227.397997 
L 79.652188 226.196834 
L 83.848719 226.023606 
L 88.045251 225.181892 
L 92.241782 224.53124 
L 96.438313 224.242597 
L 100.634845 223.595846 
L 104.831376 223.647367 
L 109.027907 222.870869 
L 113.224439 222.819462 
L 117.42097 222.882772 
L 121.617501 222.011171 
L 125.814033 221.669901 
L 130.010564 221.66292 
L 134.207095 221.143674 
L 138.403627 221.694374 
L 146.796689 220.876711 
L 155.189752 220.623335 
L 163.582815 220.592139 
L 171.975877 219.991802 
L 176.172409 219.956792 
L 180.36894 219.608044 
L 184.565471 219.780808 
L 192.958534 219.397129 
L 197.155065 219.150633 
L 201.351596 218.638079 
L 205.548128 219.076063 
L 218.137722 218.492331 
L 226.530784 218.127904 
L 230.727316 218.221939 
L 234.923847 218.041925 
L 239.120378 217.566709 
L 247.513441 218.173599 
L 251.709972 217.458812 
L 255.906504 217.992131 
L 260.103035 217.189998 
L 264.299566 217.394218 
L 268.496098 217.275101 
L 272.692629 216.748633 
L 276.88916 216.941312 
L 285.282223 216.497024 
L 289.478754 216.846576 
L 293.675286 216.466793 
L 297.871817 216.326984 
L 302.068348 216.400626 
L 306.26488 216.005402 
L 310.461411 216.309158 
L 314.657942 216.301246 
L 318.854474 215.69256 
L 323.051005 215.894913 
L 331.444068 215.404123 
L 335.640599 215.530826 
L 339.83713 215.247217 
L 348.230193 214.995954 
L 352.426724 214.593145 
L 356.623255 214.714366 
L 360.819787 214.514278 
L 365.016318 214.113836 
L 369.212849 214.198905 
L 377.605912 213.439085 
L 381.802443 213.475657 
L 385.998975 212.839453 
L 394.392037 212.529441 
L 398.588569 211.959579 
L 402.7851 212.138525 
L 406.981631 211.448143 
L 411.178163 210.959624 
L 415.374694 210.597246 
L 423.767757 209.39741 
L 427.964288 208.530598 
L 432.160819 207.264218 
L 436.357351 205.796881 
L 440.553882 203.366946 
L 444.750413 199.076822 
L 448.946945 191.19812 
L 453.143476 168.962993 
L 457.340007 113.909235 
L 461.536539 91.846946 
L 465.73307 49.052275 
L 675.559636 49.052226 
L 675.559636 49.052226 
" clip-path="url(#p9fbf78f698)" style="fill: none; stroke: #b7d4ea; stroke-width: 1.5; stroke-linecap: square"/>
   </g>
   <g id="line2d_31">
    <path d="M 46.079937 236.929953 
L 50.276469 230.609144 
L 54.473 227.157794 
L 58.669531 224.829047 
L 62.866063 224.261014 
L 67.062594 223.808064 
L 71.259125 223.57879 
L 79.652188 221.722459 
L 83.848719 221.411654 
L 88.045251 220.579723 
L 92.241782 220.809577 
L 100.634845 219.732375 
L 104.831376 219.594053 
L 109.027907 219.012641 
L 113.224439 218.850673 
L 117.42097 218.866228 
L 125.814033 218.099183 
L 130.010564 217.933215 
L 138.403627 217.928515 
L 142.600158 217.698776 
L 146.796689 217.607513 
L 150.993221 217.369852 
L 155.189752 216.981621 
L 163.582815 217.088468 
L 167.779346 216.555764 
L 171.975877 216.388663 
L 176.172409 216.454748 
L 180.36894 216.321057 
L 184.565471 216.303242 
L 201.351596 215.731584 
L 205.548128 215.774494 
L 209.744659 215.567357 
L 213.94119 215.587501 
L 218.137722 215.245463 
L 222.334253 215.30043 
L 226.530784 214.942741 
L 234.923847 215.016653 
L 239.120378 214.672689 
L 243.31691 214.736131 
L 247.513441 214.273588 
L 255.906504 214.10601 
L 260.103035 213.922895 
L 264.299566 213.945976 
L 272.692629 213.683139 
L 285.282223 213.181288 
L 289.478754 213.407026 
L 293.675286 213.079542 
L 302.068348 213.155748 
L 306.26488 212.595982 
L 310.461411 212.72641 
L 314.657942 212.673754 
L 318.854474 212.267907 
L 323.051005 212.283397 
L 327.247536 212.110585 
L 331.444068 211.755827 
L 335.640599 211.822028 
L 339.83713 211.465902 
L 348.230193 211.205338 
L 352.426724 210.66775 
L 360.819787 210.258686 
L 365.016318 209.649112 
L 369.212849 209.630561 
L 377.605912 208.633599 
L 381.802443 208.425273 
L 385.998975 207.807185 
L 390.195506 207.355763 
L 394.392037 207.058451 
L 398.588569 206.450038 
L 406.981631 205.637056 
L 411.178163 204.940061 
L 415.374694 204.56935 
L 419.571225 203.940203 
L 423.767757 203.462383 
L 427.964288 202.84455 
L 432.160819 202.012786 
L 436.357351 201.400162 
L 440.553882 200.605584 
L 448.946945 198.762193 
L 453.143476 197.631638 
L 461.536539 194.897225 
L 465.73307 193.028972 
L 469.929601 190.584354 
L 474.126133 187.083903 
L 478.322664 180.233704 
L 482.519195 146.447094 
L 486.715727 86.524306 
L 490.912258 49.052215 
L 675.559636 49.052218 
L 675.559636 49.052218 
" clip-path="url(#p9fbf78f698)" style="fill: none; stroke: #8dbdde; stroke-width: 1.5; stroke-linecap: square"/>
   </g>
   <g id="line2d_32">
    <path d="M 46.079937 230.573458 
L 50.276469 228.961957 
L 54.473 225.253261 
L 58.669531 223.634616 
L 62.866063 225.041329 
L 67.062594 222.906765 
L 71.259125 222.069392 
L 75.455657 221.562401 
L 79.652188 221.200092 
L 83.848719 220.607826 
L 88.045251 220.683005 
L 96.438313 219.560544 
L 100.634845 219.684215 
L 104.831376 219.971456 
L 109.027907 218.788768 
L 113.224439 219.161417 
L 117.42097 218.6559 
L 121.617501 217.954434 
L 125.814033 217.900413 
L 134.207095 217.181372 
L 142.600158 216.705253 
L 146.796689 216.210783 
L 150.993221 216.259868 
L 163.582815 215.81575 
L 167.779346 215.284466 
L 171.975877 215.103358 
L 176.172409 215.289793 
L 180.36894 214.798339 
L 184.565471 215.006331 
L 188.762003 214.791597 
L 192.958534 214.376248 
L 197.155065 214.369801 
L 201.351596 213.993877 
L 209.744659 213.758373 
L 213.94119 213.444954 
L 222.334253 213.344678 
L 226.530784 212.992814 
L 230.727316 213.095031 
L 234.923847 212.780738 
L 239.120378 212.633461 
L 243.31691 212.72101 
L 251.709972 212.184455 
L 255.906504 212.260185 
L 260.103035 211.84421 
L 264.299566 211.801148 
L 272.692629 211.315472 
L 276.88916 211.537264 
L 281.085692 211.06578 
L 285.282223 210.951779 
L 289.478754 211.029512 
L 297.871817 210.473799 
L 302.068348 210.342464 
L 306.26488 210.000578 
L 314.657942 209.723687 
L 318.854474 209.298018 
L 327.247536 208.878999 
L 331.444068 208.518452 
L 335.640599 208.447621 
L 339.83713 207.971855 
L 344.033662 207.7295 
L 348.230193 207.617709 
L 352.426724 207.139018 
L 360.819787 206.781747 
L 365.016318 206.225667 
L 369.212849 206.100004 
L 377.605912 205.364332 
L 381.802443 205.267977 
L 385.998975 204.779391 
L 406.981631 203.002739 
L 411.178163 202.388419 
L 415.374694 202.036309 
L 419.571225 201.563929 
L 423.767757 200.96329 
L 427.964288 200.524165 
L 440.553882 198.571905 
L 453.143476 196.020659 
L 461.536539 193.96582 
L 465.73307 192.675922 
L 469.929601 191.150163 
L 474.126133 189.44249 
L 478.322664 187.222806 
L 482.519195 184.278435 
L 486.715727 179.685158 
L 490.912258 169.376882 
L 495.108789 51.860129 
L 499.305321 49.052205 
L 675.559636 49.052235 
L 675.559636 49.052235 
" clip-path="url(#p9fbf78f698)" style="fill: none; stroke: #5b9bd5; stroke-width: 1.5; stroke-linecap: square"/>
   </g>
   <g id="line2d_33">
    <path d="M 46.079937 254.786191 
L 50.276469 232.969533 
L 54.473 230.555929 
L 58.669531 228.701359 
L 62.866063 229.882523 
L 67.062594 228.440303 
L 71.259125 227.764179 
L 75.455657 226.379498 
L 79.652188 225.729668 
L 83.848719 225.692173 
L 88.045251 225.182287 
L 92.241782 225.056504 
L 96.438313 223.786463 
L 100.634845 223.790832 
L 104.831376 223.927312 
L 109.027907 223.817097 
L 113.224439 222.539994 
L 117.42097 222.651679 
L 121.617501 222.220057 
L 125.814033 222.223758 
L 130.010564 221.892713 
L 134.207095 221.130702 
L 138.403627 220.589233 
L 155.189752 219.48554 
L 159.386283 219.110777 
L 163.582815 218.934059 
L 167.779346 218.282863 
L 171.975877 218.572619 
L 184.565471 217.648582 
L 192.958534 217.227123 
L 197.155065 217.407673 
L 201.351596 216.771578 
L 205.548128 216.734245 
L 213.94119 216.240255 
L 222.334253 215.925361 
L 226.530784 215.675983 
L 230.727316 215.755891 
L 234.923847 215.418606 
L 243.31691 215.249069 
L 247.513441 214.736193 
L 251.709972 214.759675 
L 255.906504 214.481682 
L 260.103035 214.06385 
L 268.496098 213.822053 
L 272.692629 213.370763 
L 276.88916 213.29856 
L 285.282223 212.510939 
L 289.478754 212.293772 
L 293.675286 211.820826 
L 297.871817 211.701038 
L 302.068348 211.436355 
L 306.26488 210.885828 
L 310.461411 210.792701 
L 323.051005 209.834674 
L 331.444068 209.257617 
L 335.640599 209.087569 
L 339.83713 208.523656 
L 348.230193 208.277897 
L 369.212849 206.620807 
L 377.605912 205.701802 
L 381.802443 205.479878 
L 398.588569 203.572628 
L 402.7851 203.159192 
L 427.964288 199.840462 
L 448.946945 196.007946 
L 457.340007 194.001682 
L 461.536539 192.902358 
L 469.929601 190.195026 
L 474.126133 188.590837 
L 478.322664 186.652542 
L 482.519195 184.331771 
L 486.715727 181.224112 
L 490.912258 176.311888 
L 495.108789 61.575453 
L 499.305321 49.052165 
L 675.559636 49.052198 
L 675.559636 49.052198 
" clip-path="url(#p9fbf78f698)" style="fill: none; stroke: #377faf; stroke-width: 1.5; stroke-linecap: square"/>
   </g>
   <g id="line2d_34">
    <path d="M 46.079937 237.892746 
L 50.276469 232.22544 
L 54.473 232.150973 
L 58.669531 226.64184 
L 62.866063 228.701359 
L 67.062594 226.808838 
L 71.259125 226.814856 
L 75.455657 225.87571 
L 79.652188 226.362264 
L 83.848719 225.580566 
L 88.045251 224.947187 
L 92.241782 224.522147 
L 104.831376 222.551486 
L 113.224439 221.892713 
L 117.42097 221.736717 
L 121.617501 221.982508 
L 125.814033 220.870511 
L 130.010564 220.771583 
L 134.207095 220.459349 
L 142.600158 219.44132 
L 146.796689 219.318047 
L 150.993221 219.411036 
L 155.189752 218.494976 
L 159.386283 218.363693 
L 163.582815 218.104086 
L 167.779346 217.427701 
L 171.975877 217.418793 
L 176.172409 217.168422 
L 180.36894 217.15759 
L 184.565471 216.779896 
L 188.762003 216.717701 
L 192.958534 216.117299 
L 197.155065 216.19127 
L 201.351596 215.986358 
L 205.548128 215.406009 
L 209.744659 215.580246 
L 218.137722 214.905212 
L 222.334253 214.871165 
L 226.530784 214.584972 
L 230.727316 214.436135 
L 264.299566 212.179363 
L 272.692629 211.730234 
L 276.88916 211.209971 
L 285.282223 210.710322 
L 289.478754 210.322509 
L 293.675286 210.291074 
L 297.871817 209.882639 
L 306.26488 209.481537 
L 310.461411 209.043468 
L 318.854474 208.814366 
L 323.051005 208.402976 
L 327.247536 208.218913 
L 335.640599 207.596449 
L 339.83713 207.479995 
L 348.230193 206.57835 
L 352.426724 206.544522 
L 356.623255 205.934344 
L 365.016318 205.3923 
L 369.212849 204.862016 
L 373.409381 204.564193 
L 398.588569 201.948546 
L 402.7851 201.307567 
L 406.981631 200.872945 
L 423.767757 198.398418 
L 436.357351 196.185203 
L 444.750413 194.52971 
L 457.340007 191.408202 
L 465.73307 188.874918 
L 469.929601 187.403611 
L 474.126133 185.707129 
L 478.322664 183.758413 
L 482.519195 181.347142 
L 486.715727 178.159696 
L 490.912258 173.003769 
L 495.108789 117.054621 
L 499.305321 49.052187 
L 675.559636 49.052195 
L 675.559636 49.052195 
" clip-path="url(#p9fbf78f698)" style="fill: none; stroke: #225f8d; stroke-width: 1.5; stroke-linecap: square"/>
   </g>
   <g id="line2d_35">
    <path d="M 46.079937 237.700305 
L 50.276469 233.346893 
L 54.473 230.87455 
L 58.669531 226.630089 
L 62.866063 228.221223 
L 67.062594 226.512737 
L 71.259125 225.957884 
L 75.455657 226.035181 
L 79.652188 225.985418 
L 83.848719 225.081576 
L 92.241782 224.650581 
L 96.438313 224.025421 
L 100.634845 223.128441 
L 104.831376 222.772582 
L 109.027907 221.726209 
L 113.224439 221.206886 
L 117.42097 221.029054 
L 121.617501 219.954095 
L 125.814033 219.681503 
L 130.010564 220.080116 
L 134.207095 219.419308 
L 138.403627 219.293608 
L 142.600158 218.587742 
L 146.796689 218.265826 
L 159.386283 217.671431 
L 163.582815 217.194482 
L 167.779346 216.430765 
L 171.975877 216.204974 
L 176.172409 216.189331 
L 180.36894 215.709362 
L 184.565471 215.663051 
L 188.762003 215.161059 
L 192.958534 215.006383 
L 197.155065 215.015005 
L 205.548128 214.206898 
L 209.744659 214.084161 
L 213.94119 213.654769 
L 222.334253 213.044517 
L 226.530784 212.677837 
L 234.923847 212.306719 
L 239.120378 211.753416 
L 251.709972 210.974261 
L 255.906504 211.004674 
L 260.103035 210.632996 
L 268.496098 210.203609 
L 272.692629 209.690261 
L 276.88916 209.705979 
L 281.085692 209.27639 
L 289.478754 208.911486 
L 293.675286 208.451925 
L 302.068348 208.06395 
L 306.26488 207.629535 
L 310.461411 207.518133 
L 335.640599 205.681875 
L 344.033662 204.799821 
L 348.230193 204.510725 
L 352.426724 204.003385 
L 356.623255 203.693557 
L 390.195506 199.921382 
L 402.7851 198.113328 
L 427.964288 193.648551 
L 444.750413 189.76104 
L 448.946945 188.671427 
L 457.340007 186.157884 
L 461.536539 184.777416 
L 465.73307 183.217106 
L 469.929601 181.507487 
L 474.126133 179.565864 
L 478.322664 177.328651 
L 482.519195 174.617333 
L 486.715727 171.085677 
L 490.912258 165.770146 
L 495.108789 150.921819 
L 499.305321 49.052183 
L 675.559636 49.052205 
L 675.559636 49.052205 
" clip-path="url(#p9fbf78f698)" style="fill: none; stroke: #13304b; stroke-width: 1.5; stroke-linecap: square"/>
   </g>
   <g id="line2d_36">
    <path d="M 171.975877 288.182896 
L 171.975877 42.507986 
" clip-path="url(#p9fbf78f698)" style="fill: none; stroke-dasharray: 3.33,1.44; stroke-dashoffset: 0; stroke: #7d858c; stroke-width: 0.9"/>
   </g>
   <g id="patch_3">
    <path d="M 46.079937 288.182896 
L 46.079937 42.507986 
" style="fill: none; stroke: #b9c0c7; stroke-width: 0.8; stroke-linejoin: miter; stroke-linecap: square"/>
   </g>
   <g id="patch_4">
    <path d="M 46.079937 288.182896 
L 675.559636 288.182896 
" style="fill: none; stroke: #b9c0c7; stroke-width: 0.8; stroke-linejoin: miter; stroke-linecap: square"/>
   </g>
   <g id="text_17">
    <!-- 30 V -->
    <g style="fill: #666666" transform="translate(178.270674 260.894325) scale(0.08 -0.08)">
     <use xlink:href="#ArialMT-33"/>
     <use xlink:href="#ArialMT-30" x="55.615234"/>
     <use xlink:href="#ArialMT-20" x="111.230469"/>
     <use xlink:href="#ArialMT-56" x="139.013672"/>
    </g>
   </g>
   <g id="legend_1">
    <g id="text_18">
     <!-- Dose (krad(Si)) -->
     <g style="fill: #343434" transform="translate(333.706037 16.22375) scale(0.08 -0.08)">
      <defs>
       <path id="ArialMT-6b" d="M 425 0 
L 425 4581 
L 988 4581 
L 988 1969 
L 2319 3319 
L 3047 3319 
L 1778 2088 
L 3175 0 
L 2481 0 
L 1384 1697 
L 988 1316 
L 988 0 
L 425 0 
z
" transform="scale(0.015625)"/>
      </defs>
      <use xlink:href="#ArialMT-44"/>
      <use xlink:href="#ArialMT-6f" x="72.216797"/>
      <use xlink:href="#ArialMT-73" x="127.832031"/>
      <use xlink:href="#ArialMT-65" x="177.832031"/>
      <use xlink:href="#ArialMT-20" x="233.447266"/>
      <use xlink:href="#ArialMT-28" x="261.230469"/>
      <use xlink:href="#ArialMT-6b" x="294.53125"/>
      <use xlink:href="#ArialMT-72" x="344.53125"/>
      <use xlink:href="#ArialMT-61" x="377.832031"/>
      <use xlink:href="#ArialMT-64" x="433.447266"/>
      <use xlink:href="#ArialMT-28" x="489.0625"/>
      <use xlink:href="#ArialMT-53" x="522.363281"/>
      <use xlink:href="#ArialMT-69" x="589.0625"/>
      <use xlink:href="#ArialMT-29" x="611.279297"/>
      <use xlink:href="#ArialMT-29" x="644.580078"/>
     </g>
    </g>
    <g id="line2d_37">
     <path d="M 205.502912 24.83375 
L 213.502912 24.83375 
L 221.502912 24.83375 
" style="fill: none; stroke: #dceaf5; stroke-width: 1.5; stroke-linecap: square"/>
    </g>
    <g id="text_19">
     <!-- 0 -->
     <g style="fill: #343434" transform="translate(227.902912 27.63375) scale(0.08 -0.08)">
      <use xlink:href="#ArialMT-30"/>
     </g>
    </g>
    <g id="line2d_38">
     <path d="M 248.351662 24.83375 
L 256.351662 24.83375 
L 264.351662 24.83375 
" style="fill: none; stroke: #b7d4ea; stroke-width: 1.5; stroke-linecap: square"/>
    </g>
    <g id="text_20">
     <!-- 10 -->
     <g style="fill: #343434" transform="translate(270.751662 27.63375) scale(0.08 -0.08)">
      <use xlink:href="#ArialMT-31"/>
      <use xlink:href="#ArialMT-30" x="55.615234"/>
     </g>
    </g>
    <g id="line2d_39">
     <path d="M 295.649162 24.83375 
L 303.649162 24.83375 
L 311.649162 24.83375 
" style="fill: none; stroke: #8dbdde; stroke-width: 1.5; stroke-linecap: square"/>
    </g>
    <g id="text_21">
     <!-- 20 -->
     <g style="fill: #343434" transform="translate(318.049162 27.63375) scale(0.08 -0.08)">
      <use xlink:href="#ArialMT-32"/>
      <use xlink:href="#ArialMT-30" x="55.615234"/>
     </g>
    </g>
    <g id="line2d_40">
     <path d="M 342.946662 24.83375 
L 350.946662 24.83375 
L 358.946662 24.83375 
" style="fill: none; stroke: #5b9bd5; stroke-width: 1.5; stroke-linecap: square"/>
    </g>
    <g id="text_22">
     <!-- 30 -->
     <g style="fill: #343434" transform="translate(365.346662 27.63375) scale(0.08 -0.08)">
      <use xlink:href="#ArialMT-33"/>
      <use xlink:href="#ArialMT-30" x="55.615234"/>
     </g>
    </g>
    <g id="line2d_41">
     <path d="M 390.244162 24.83375 
L 398.244162 24.83375 
L 406.244162 24.83375 
" style="fill: none; stroke: #377faf; stroke-width: 1.5; stroke-linecap: square"/>
    </g>
    <g id="text_23">
     <!-- 40 -->
     <g style="fill: #343434" transform="translate(412.644162 27.63375) scale(0.08 -0.08)">
      <use xlink:href="#ArialMT-34"/>
      <use xlink:href="#ArialMT-30" x="55.615234"/>
     </g>
    </g>
    <g id="line2d_42">
     <path d="M 437.541662 24.83375 
L 445.541662 24.83375 
L 453.541662 24.83375 
" style="fill: none; stroke: #225f8d; stroke-width: 1.5; stroke-linecap: square"/>
    </g>
    <g id="text_24">
     <!-- 50 -->
     <g style="fill: #343434" transform="translate(459.941662 27.63375) scale(0.08 -0.08)">
      <use xlink:href="#ArialMT-35"/>
      <use xlink:href="#ArialMT-30" x="55.615234"/>
     </g>
    </g>
    <g id="line2d_43">
     <path d="M 484.839162 24.83375 
L 492.839162 24.83375 
L 500.839162 24.83375 
" style="fill: none; stroke: #13304b; stroke-width: 1.5; stroke-linecap: square"/>
    </g>
    <g id="text_25">
     <!-- 60 -->
     <g style="fill: #343434" transform="translate(507.239162 27.63375) scale(0.08 -0.08)">
      <use xlink:href="#ArialMT-36"/>
      <use xlink:href="#ArialMT-30" x="55.615234"/>
     </g>
    </g>
   </g>
  </g>
 </g>
 <defs>
  <clipPath id="p9fbf78f698">
   <rect x="46.079937" y="42.507986" width="629.479699" height="245.67491"/>
  </clipPath>
 </defs>
</svg>
