<?xml version="1.0" encoding="utf-8" standalone="no"?>
<!DOCTYPE svg PUBLIC "-//W3C//DTD SVG 1.1//EN"
  "http://www.w3.org/Graphics/SVG/1.1/DTD/svg11.dtd">
<svg xmlns:xlink="http://www.w3.org/1999/xlink" width="682.759636pt" height="322.327989pt" viewBox="0 0 682.759636 322.327989" xmlns="http://www.w3.org/2000/svg" version="1.1">
 <metadata>
  <rdf:RDF xmlns:dc="http://purl.org/dc/elements/1.1/" xmlns:cc="http://creativecommons.org/ns#" xmlns:rdf="http://www.w3.org/1999/02/22-rdf-syntax-ns#">
   <cc:Work>
    <dc:type rdf:resource="http://purl.org/dc/dcmitype/StillImage"/>
    <dc:date>2026-07-22T19:01:04.491437</dc:date>
    <dc:format>image/svg+xml</dc:format>
    <dc:creator>
     <cc:Agent>
      <dc:title>Matplotlib v3.9.2, https://matplotlib.org/</dc:title>
     </cc:Agent>
    </dc:creator>
   </cc:Work>
  </rdf:RDF>
 </metadata>
 <defs>
  <style type="text/css">*{stroke-linejoin: round; stroke-linecap: butt}</style>
 </defs>
 <g id="figure_1">
  <g id="patch_1">
   <path d="M 0 322.327989 
L 682.759636 322.327989 
L 682.759636 0 
L 0 0 
z
" style="fill: #ffffff"/>
  </g>
  <g id="axes_1">
   <g id="patch_2">
    <path d="M 46.079937 288.182896 
L 675.559636 288.182896 
L 675.559636 42.507986 
L 46.079937 42.507986 
z
" style="fill: #ffffff"/>
   </g>
   <g id="matplotlib.axis_1">
    <g id="xtick_1">
     <g id="line2d_1">
      <path d="M 140.72199 288.182896 
L 140.72199 42.507986 
" clip-path="url(#pf4f48c9e0d)" style="fill: none; stroke: #d9dee3; stroke-opacity: 0.75; stroke-width: 0.65; stroke-linecap: square"/>
     </g>
     <g id="line2d_2">
      <defs>
       <path id="m88d6a0dcf0" d="M 0 0 
L 0 3.5 
" style="stroke: #666666; stroke-width: 0.8"/>
      </defs>
      <g>
       <use xlink:href="#m88d6a0dcf0" x="140.72199" y="288.182896" style="fill: #666666; stroke: #666666; stroke-width: 0.8"/>
      </g>
     </g>
     <g id="text_1">
      <!-- -15 -->
      <g style="fill: #666666" transform="translate(134.796849 301.052302) scale(0.082 -0.082)">
       <defs>
        <path id="ArialMT-2d" d="M 203 1375 
L 203 1941 
L 1931 1941 
L 1931 1375 
L 203 1375 
z
" transform="scale(0.015625)"/>
        <path id="ArialMT-31" d="M 2384 0 
L 1822 0 
L 1822 3584 
Q 1619 3391 1289 3197 
Q 959 3003 697 2906 
L 697 3450 
Q 1169 3672 1522 3987 
Q 1875 4303 2022 4600 
L 2384 4600 
L 2384 0 
z
" transform="scale(0.015625)"/>
        <path id="ArialMT-35" d="M 266 1200 
L 856 1250 
Q 922 819 1161 601 
Q 1400 384 1738 384 
Q 2144 384 2425 690 
Q 2706 997 2706 1503 
Q 2706 1984 2436 2262 
Q 2166 2541 1728 2541 
Q 1456 2541 1237 2417 
Q 1019 2294 894 2097 
L 366 2166 
L 809 4519 
L 3088 4519 
L 3088 3981 
L 1259 3981 
L 1013 2750 
Q 1425 3038 1878 3038 
Q 2478 3038 2890 2622 
Q 3303 2206 3303 1553 
Q 3303 931 2941 478 
Q 2500 -78 1738 -78 
Q 1113 -78 717 272 
Q 322 622 266 1200 
z
" transform="scale(0.015625)"/>
       </defs>
       <use xlink:href="#ArialMT-2d"/>
       <use xlink:href="#ArialMT-31" x="33.300781"/>
       <use xlink:href="#ArialMT-35" x="88.916016"/>
      </g>
     </g>
    </g>
    <g id="xtick_2">
     <g id="line2d_3">
      <path d="M 250.770888 288.182896 
L 250.770888 42.507986 
" clip-path="url(#pf4f48c9e0d)" style="fill: none; stroke: #d9dee3; stroke-opacity: 0.75; stroke-width: 0.65; stroke-linecap: square"/>
     </g>
     <g id="line2d_4">
      <g>
       <use xlink:href="#m88d6a0dcf0" x="250.770888" y="288.182896" style="fill: #666666; stroke: #666666; stroke-width: 0.8"/>
      </g>
     </g>
     <g id="text_2">
      <!-- -10 -->
      <g style="fill: #666666" transform="translate(244.845748 301.052302) scale(0.082 -0.082)">
       <defs>
        <path id="ArialMT-30" d="M 266 2259 
Q 266 3072 433 3567 
Q 600 4063 929 4331 
Q 1259 4600 1759 4600 
Q 2128 4600 2406 4451 
Q 2684 4303 2865 4023 
Q 3047 3744 3150 3342 
Q 3253 2941 3253 2259 
Q 3253 1453 3087 958 
Q 2922 463 2592 192 
Q 2263 -78 1759 -78 
Q 1097 -78 719 397 
Q 266 969 266 2259 
z
M 844 2259 
Q 844 1131 1108 757 
Q 1372 384 1759 384 
Q 2147 384 2411 759 
Q 2675 1134 2675 2259 
Q 2675 3391 2411 3762 
Q 2147 4134 1753 4134 
Q 1366 4134 1134 3806 
Q 844 3388 844 2259 
z
" transform="scale(0.015625)"/>
       </defs>
       <use xlink:href="#ArialMT-2d"/>
       <use xlink:href="#ArialMT-31" x="33.300781"/>
       <use xlink:href="#ArialMT-30" x="88.916016"/>
      </g>
     </g>
    </g>
    <g id="xtick_3">
     <g id="line2d_5">
      <path d="M 360.819787 288.182896 
L 360.819787 42.507986 
" clip-path="url(#pf4f48c9e0d)" style="fill: none; stroke: #d9dee3; stroke-opacity: 0.75; stroke-width: 0.65; stroke-linecap: square"/>
     </g>
     <g id="line2d_6">
      <g>
       <use xlink:href="#m88d6a0dcf0" x="360.819787" y="288.182896" style="fill: #666666; stroke: #666666; stroke-width: 0.8"/>
      </g>
     </g>
     <g id="text_3">
      <!-- -5 -->
      <g style="fill: #666666" transform="translate(357.174631 301.052302) scale(0.082 -0.082)">
       <use xlink:href="#ArialMT-2d"/>
       <use xlink:href="#ArialMT-35" x="33.300781"/>
      </g>
     </g>
    </g>
    <g id="xtick_4">
     <g id="line2d_7">
      <path d="M 470.868685 288.182896 
L 470.868685 42.507986 
" clip-path="url(#pf4f48c9e0d)" style="fill: none; stroke: #d9dee3; stroke-opacity: 0.75; stroke-width: 0.65; stroke-linecap: square"/>
     </g>
     <g id="line2d_8">
      <g>
       <use xlink:href="#m88d6a0dcf0" x="470.868685" y="288.182896" style="fill: #666666; stroke: #666666; stroke-width: 0.8"/>
      </g>
     </g>
     <g id="text_4">
      <!-- 0 -->
      <g style="fill: #666666" transform="translate(468.588701 301.052302) scale(0.082 -0.082)">
       <use xlink:href="#ArialMT-30"/>
      </g>
     </g>
    </g>
    <g id="xtick_5">
     <g id="line2d_9">
      <path d="M 580.917584 288.182896 
L 580.917584 42.507986 
" clip-path="url(#pf4f48c9e0d)" style="fill: none; stroke: #d9dee3; stroke-opacity: 0.75; stroke-width: 0.65; stroke-linecap: square"/>
     </g>
     <g id="line2d_10">
      <g>
       <use xlink:href="#m88d6a0dcf0" x="580.917584" y="288.182896" style="fill: #666666; stroke: #666666; stroke-width: 0.8"/>
      </g>
     </g>
     <g id="text_5">
      <!-- 5 -->
      <g style="fill: #666666" transform="translate(578.637599 301.052302) scale(0.082 -0.082)">
       <use xlink:href="#ArialMT-35"/>
      </g>
     </g>
    </g>
    <g id="text_6">
     <!-- Gate voltage, VGS (V) -->
     <g style="fill: #666666" transform="translate(316.052521 313.233771) scale(0.09 -0.09)">
      <defs>
       <path id="ArialMT-47" d="M 2638 1797 
L 2638 2334 
L 4578 2338 
L 4578 638 
Q 4131 281 3656 101 
Q 3181 -78 2681 -78 
Q 2006 -78 1454 211 
Q 903 500 622 1047 
Q 341 1594 341 2269 
Q 341 2938 620 3517 
Q 900 4097 1425 4378 
Q 1950 4659 2634 4659 
Q 3131 4659 3532 4498 
Q 3934 4338 4162 4050 
Q 4391 3763 4509 3300 
L 3963 3150 
Q 3859 3500 3706 3700 
Q 3553 3900 3268 4020 
Q 2984 4141 2638 4141 
Q 2222 4141 1919 4014 
Q 1616 3888 1430 3681 
Q 1244 3475 1141 3228 
Q 966 2803 966 2306 
Q 966 1694 1177 1281 
Q 1388 869 1791 669 
Q 2194 469 2647 469 
Q 3041 469 3416 620 
Q 3791 772 3984 944 
L 3984 1797 
L 2638 1797 
z
" transform="scale(0.015625)"/>
       <path id="ArialMT-61" d="M 2588 409 
Q 2275 144 1986 34 
Q 1697 -75 1366 -75 
Q 819 -75 525 192 
Q 231 459 231 875 
Q 231 1119 342 1320 
Q 453 1522 633 1644 
Q 813 1766 1038 1828 
Q 1203 1872 1538 1913 
Q 2219 1994 2541 2106 
Q 2544 2222 2544 2253 
Q 2544 2597 2384 2738 
Q 2169 2928 1744 2928 
Q 1347 2928 1158 2789 
Q 969 2650 878 2297 
L 328 2372 
Q 403 2725 575 2942 
Q 747 3159 1072 3276 
Q 1397 3394 1825 3394 
Q 2250 3394 2515 3294 
Q 2781 3194 2906 3042 
Q 3031 2891 3081 2659 
Q 3109 2516 3109 2141 
L 3109 1391 
Q 3109 606 3145 398 
Q 3181 191 3288 0 
L 2700 0 
Q 2613 175 2588 409 
z
M 2541 1666 
Q 2234 1541 1622 1453 
Q 1275 1403 1131 1340 
Q 988 1278 909 1158 
Q 831 1038 831 891 
Q 831 666 1001 516 
Q 1172 366 1500 366 
Q 1825 366 2078 508 
Q 2331 650 2450 897 
Q 2541 1088 2541 1459 
L 2541 1666 
z
" transform="scale(0.015625)"/>
       <path id="ArialMT-74" d="M 1650 503 
L 1731 6 
Q 1494 -44 1306 -44 
Q 1000 -44 831 53 
Q 663 150 594 308 
Q 525 466 525 972 
L 525 2881 
L 113 2881 
L 113 3319 
L 525 3319 
L 525 4141 
L 1084 4478 
L 1084 3319 
L 1650 3319 
L 1650 2881 
L 1084 2881 
L 1084 941 
Q 1084 700 1114 631 
Q 1144 563 1211 522 
Q 1278 481 1403 481 
Q 1497 481 1650 503 
z
" transform="scale(0.015625)"/>
       <path id="ArialMT-65" d="M 2694 1069 
L 3275 997 
Q 3138 488 2766 206 
Q 2394 -75 1816 -75 
Q 1088 -75 661 373 
Q 234 822 234 1631 
Q 234 2469 665 2931 
Q 1097 3394 1784 3394 
Q 2450 3394 2872 2941 
Q 3294 2488 3294 1666 
Q 3294 1616 3291 1516 
L 816 1516 
Q 847 969 1125 678 
Q 1403 388 1819 388 
Q 2128 388 2347 550 
Q 2566 713 2694 1069 
z
M 847 1978 
L 2700 1978 
Q 2663 2397 2488 2606 
Q 2219 2931 1791 2931 
Q 1403 2931 1139 2672 
Q 875 2413 847 1978 
z
" transform="scale(0.015625)"/>
       <path id="ArialMT-20" transform="scale(0.015625)"/>
       <path id="ArialMT-76" d="M 1344 0 
L 81 3319 
L 675 3319 
L 1388 1331 
Q 1503 1009 1600 663 
Q 1675 925 1809 1294 
L 2547 3319 
L 3125 3319 
L 1869 0 
L 1344 0 
z
" transform="scale(0.015625)"/>
       <path id="ArialMT-6f" d="M 213 1659 
Q 213 2581 725 3025 
Q 1153 3394 1769 3394 
Q 2453 3394 2887 2945 
Q 3322 2497 3322 1706 
Q 3322 1066 3130 698 
Q 2938 331 2570 128 
Q 2203 -75 1769 -75 
Q 1072 -75 642 372 
Q 213 819 213 1659 
z
M 791 1659 
Q 791 1022 1069 705 
Q 1347 388 1769 388 
Q 2188 388 2466 706 
Q 2744 1025 2744 1678 
Q 2744 2294 2464 2611 
Q 2184 2928 1769 2928 
Q 1347 2928 1069 2612 
Q 791 2297 791 1659 
z
" transform="scale(0.015625)"/>
       <path id="ArialMT-6c" d="M 409 0 
L 409 4581 
L 972 4581 
L 972 0 
L 409 0 
z
" transform="scale(0.015625)"/>
       <path id="ArialMT-67" d="M 319 -275 
L 866 -356 
Q 900 -609 1056 -725 
Q 1266 -881 1628 -881 
Q 2019 -881 2231 -725 
Q 2444 -569 2519 -288 
Q 2563 -116 2559 434 
Q 2191 0 1641 0 
Q 956 0 581 494 
Q 206 988 206 1678 
Q 206 2153 378 2554 
Q 550 2956 876 3175 
Q 1203 3394 1644 3394 
Q 2231 3394 2613 2919 
L 2613 3319 
L 3131 3319 
L 3131 450 
Q 3131 -325 2973 -648 
Q 2816 -972 2473 -1159 
Q 2131 -1347 1631 -1347 
Q 1038 -1347 672 -1080 
Q 306 -813 319 -275 
z
M 784 1719 
Q 784 1066 1043 766 
Q 1303 466 1694 466 
Q 2081 466 2343 764 
Q 2606 1063 2606 1700 
Q 2606 2309 2336 2618 
Q 2066 2928 1684 2928 
Q 1309 2928 1046 2623 
Q 784 2319 784 1719 
z
" transform="scale(0.015625)"/>
       <path id="ArialMT-2c" d="M 569 0 
L 569 641 
L 1209 641 
L 1209 0 
Q 1209 -353 1084 -570 
Q 959 -788 688 -906 
L 531 -666 
Q 709 -588 793 -436 
Q 878 -284 888 0 
L 569 0 
z
" transform="scale(0.015625)"/>
       <path id="ArialMT-56" d="M 1803 0 
L 28 4581 
L 684 4581 
L 1875 1253 
Q 2019 853 2116 503 
Q 2222 878 2363 1253 
L 3600 4581 
L 4219 4581 
L 2425 0 
L 1803 0 
z
" transform="scale(0.015625)"/>
       <path id="ArialMT-53" d="M 288 1472 
L 859 1522 
Q 900 1178 1048 958 
Q 1197 738 1509 602 
Q 1822 466 2213 466 
Q 2559 466 2825 569 
Q 3091 672 3220 851 
Q 3350 1031 3350 1244 
Q 3350 1459 3225 1620 
Q 3100 1781 2813 1891 
Q 2628 1963 1997 2114 
Q 1366 2266 1113 2400 
Q 784 2572 623 2826 
Q 463 3081 463 3397 
Q 463 3744 659 4045 
Q 856 4347 1234 4503 
Q 1613 4659 2075 4659 
Q 2584 4659 2973 4495 
Q 3363 4331 3572 4012 
Q 3781 3694 3797 3291 
L 3216 3247 
Q 3169 3681 2898 3903 
Q 2628 4125 2100 4125 
Q 1550 4125 1298 3923 
Q 1047 3722 1047 3438 
Q 1047 3191 1225 3031 
Q 1400 2872 2139 2705 
Q 2878 2538 3153 2413 
Q 3553 2228 3743 1945 
Q 3934 1663 3934 1294 
Q 3934 928 3725 604 
Q 3516 281 3123 101 
Q 2731 -78 2241 -78 
Q 1619 -78 1198 103 
Q 778 284 539 648 
Q 300 1013 288 1472 
z
" transform="scale(0.015625)"/>
       <path id="ArialMT-28" d="M 1497 -1347 
Q 1031 -759 709 28 
Q 388 816 388 1659 
Q 388 2403 628 3084 
Q 909 3875 1497 4659 
L 1900 4659 
Q 1522 4009 1400 3731 
Q 1209 3300 1100 2831 
Q 966 2247 966 1656 
Q 966 153 1900 -1347 
L 1497 -1347 
z
" transform="scale(0.015625)"/>
       <path id="ArialMT-29" d="M 791 -1347 
L 388 -1347 
Q 1322 153 1322 1656 
Q 1322 2244 1188 2822 
Q 1081 3291 891 3722 
Q 769 4003 388 4659 
L 791 4659 
Q 1378 3875 1659 3084 
Q 1900 2403 1900 1659 
Q 1900 816 1576 28 
Q 1253 -759 791 -1347 
z
" transform="scale(0.015625)"/>
      </defs>
      <use xlink:href="#ArialMT-47"/>
      <use xlink:href="#ArialMT-61" x="77.783203"/>
      <use xlink:href="#ArialMT-74" x="133.398438"/>
      <use xlink:href="#ArialMT-65" x="161.181641"/>
      <use xlink:href="#ArialMT-20" x="216.796875"/>
      <use xlink:href="#ArialMT-76" x="244.580078"/>
      <use xlink:href="#ArialMT-6f" x="294.580078"/>
      <use xlink:href="#ArialMT-6c" x="350.195312"/>
      <use xlink:href="#ArialMT-74" x="372.412109"/>
      <use xlink:href="#ArialMT-61" x="400.195312"/>
      <use xlink:href="#ArialMT-67" x="455.810547"/>
      <use xlink:href="#ArialMT-65" x="511.425781"/>
      <use xlink:href="#ArialMT-2c" x="567.041016"/>
      <use xlink:href="#ArialMT-20" x="594.824219"/>
      <use xlink:href="#ArialMT-56" x="622.607422"/>
      <use xlink:href="#ArialMT-47" x="689.306641"/>
      <use xlink:href="#ArialMT-53" x="767.089844"/>
      <use xlink:href="#ArialMT-20" x="833.789062"/>
      <use xlink:href="#ArialMT-28" x="861.572266"/>
      <use xlink:href="#ArialMT-56" x="894.873047"/>
      <use xlink:href="#ArialMT-29" x="961.572266"/>
     </g>
    </g>
   </g>
   <g id="matplotlib.axis_2">
    <g id="ytick_1">
     <g id="line2d_11">
      <path d="M 46.079937 288.182896 
L 675.559636 288.182896 
" clip-path="url(#pf4f48c9e0d)" style="fill: none; stroke: #d9dee3; stroke-opacity: 0.75; stroke-width: 0.65; stroke-linecap: square"/>
     </g>
     <g id="line2d_12">
      <defs>
       <path id="md24f9f71d0" d="M 0 0 
L -3.5 0 
" style="stroke: #666666; stroke-width: 0.8"/>
      </defs>
      <g>
       <use xlink:href="#md24f9f71d0" x="46.079937" y="288.182896" style="fill: #666666; stroke: #666666; stroke-width: 0.8"/>
      </g>
     </g>
     <g id="text_7">
      <!-- $\mathdefault{10^{-13}}$ -->
      <g style="fill: #666666" transform="translate(19.645938 292.411021) scale(0.082 -0.082)">
       <defs>
        <path id="ArialMT-2212" d="M 3381 1997 
L 356 1997 
L 356 2522 
L 3381 2522 
L 3381 1997 
z
" transform="scale(0.015625)"/>
        <path id="ArialMT-33" d="M 269 1209 
L 831 1284 
Q 928 806 1161 595 
Q 1394 384 1728 384 
Q 2125 384 2398 659 
Q 2672 934 2672 1341 
Q 2672 1728 2419 1979 
Q 2166 2231 1775 2231 
Q 1616 2231 1378 2169 
L 1441 2663 
Q 1497 2656 1531 2656 
Q 1891 2656 2178 2843 
Q 2466 3031 2466 3422 
Q 2466 3731 2256 3934 
Q 2047 4138 1716 4138 
Q 1388 4138 1169 3931 
Q 950 3725 888 3313 
L 325 3413 
Q 428 3978 793 4289 
Q 1159 4600 1703 4600 
Q 2078 4600 2393 4439 
Q 2709 4278 2876 4000 
Q 3044 3722 3044 3409 
Q 3044 3113 2884 2869 
Q 2725 2625 2413 2481 
Q 2819 2388 3044 2092 
Q 3269 1797 3269 1353 
Q 3269 753 2831 336 
Q 2394 -81 1725 -81 
Q 1122 -81 723 278 
Q 325 638 269 1209 
z
" transform="scale(0.015625)"/>
       </defs>
       <use xlink:href="#ArialMT-31" transform="translate(0 0.99375)"/>
       <use xlink:href="#ArialMT-30" transform="translate(55.615234 0.99375)"/>
       <use xlink:href="#ArialMT-2212" transform="translate(112.972813 70.6875) scale(0.7)"/>
       <use xlink:href="#ArialMT-31" transform="translate(153.851719 70.6875) scale(0.7)"/>
       <use xlink:href="#ArialMT-33" transform="translate(192.782383 70.6875) scale(0.7)"/>
      </g>
     </g>
    </g>
    <g id="ytick_2">
     <g id="line2d_13">
      <path d="M 46.079937 249.193253 
L 675.559636 249.193253 
" clip-path="url(#pf4f48c9e0d)" style="fill: none; stroke: #d9dee3; stroke-opacity: 0.75; stroke-width: 0.65; stroke-linecap: square"/>
     </g>
     <g id="line2d_14">
      <g>
       <use xlink:href="#md24f9f71d0" x="46.079937" y="249.193253" style="fill: #666666; stroke: #666666; stroke-width: 0.8"/>
      </g>
     </g>
     <g id="text_8">
      <!-- $\mathdefault{10^{-11}}$ -->
      <g style="fill: #666666" transform="translate(19.645938 253.421378) scale(0.082 -0.082)">
       <use xlink:href="#ArialMT-31" transform="translate(0 0.99375)"/>
       <use xlink:href="#ArialMT-30" transform="translate(55.615234 0.99375)"/>
       <use xlink:href="#ArialMT-2212" transform="translate(112.972813 70.6875) scale(0.7)"/>
       <use xlink:href="#ArialMT-31" transform="translate(153.851719 70.6875) scale(0.7)"/>
       <use xlink:href="#ArialMT-31" transform="translate(192.782383 70.6875) scale(0.7)"/>
      </g>
     </g>
    </g>
    <g id="ytick_3">
     <g id="line2d_15">
      <path d="M 46.079937 210.20361 
L 675.559636 210.20361 
" clip-path="url(#pf4f48c9e0d)" style="fill: none; stroke: #d9dee3; stroke-opacity: 0.75; stroke-width: 0.65; stroke-linecap: square"/>
     </g>
     <g id="line2d_16">
      <g>
       <use xlink:href="#md24f9f71d0" x="46.079937" y="210.20361" style="fill: #666666; stroke: #666666; stroke-width: 0.8"/>
      </g>
     </g>
     <g id="text_9">
      <!-- $\mathdefault{10^{-9}}$ -->
      <g style="fill: #666666" transform="translate(22.843938 214.431735) scale(0.082 -0.082)">
       <defs>
        <path id="ArialMT-39" d="M 350 1059 
L 891 1109 
Q 959 728 1153 556 
Q 1347 384 1650 384 
Q 1909 384 2104 503 
Q 2300 622 2425 820 
Q 2550 1019 2634 1356 
Q 2719 1694 2719 2044 
Q 2719 2081 2716 2156 
Q 2547 1888 2255 1720 
Q 1963 1553 1622 1553 
Q 1053 1553 659 1965 
Q 266 2378 266 3053 
Q 266 3750 677 4175 
Q 1088 4600 1706 4600 
Q 2153 4600 2523 4359 
Q 2894 4119 3086 3673 
Q 3278 3228 3278 2384 
Q 3278 1506 3087 986 
Q 2897 466 2520 194 
Q 2144 -78 1638 -78 
Q 1100 -78 759 220 
Q 419 519 350 1059 
z
M 2653 3081 
Q 2653 3566 2395 3850 
Q 2138 4134 1775 4134 
Q 1400 4134 1122 3828 
Q 844 3522 844 3034 
Q 844 2597 1108 2323 
Q 1372 2050 1759 2050 
Q 2150 2050 2401 2323 
Q 2653 2597 2653 3081 
z
" transform="scale(0.015625)"/>
       </defs>
       <use xlink:href="#ArialMT-31" transform="translate(0 0.99375)"/>
       <use xlink:href="#ArialMT-30" transform="translate(55.615234 0.99375)"/>
       <use xlink:href="#ArialMT-2212" transform="translate(112.972813 70.6875) scale(0.7)"/>
       <use xlink:href="#ArialMT-39" transform="translate(153.851719 70.6875) scale(0.7)"/>
      </g>
     </g>
    </g>
    <g id="ytick_4">
     <g id="line2d_17">
      <path d="M 46.079937 171.213967 
L 675.559636 171.213967 
" clip-path="url(#pf4f48c9e0d)" style="fill: none; stroke: #d9dee3; stroke-opacity: 0.75; stroke-width: 0.65; stroke-linecap: square"/>
     </g>
     <g id="line2d_18">
      <g>
       <use xlink:href="#md24f9f71d0" x="46.079937" y="171.213967" style="fill: #666666; stroke: #666666; stroke-width: 0.8"/>
      </g>
     </g>
     <g id="text_10">
      <!-- $\mathdefault{10^{-7}}$ -->
      <g style="fill: #666666" transform="translate(22.843938 175.401092) scale(0.082 -0.082)">
       <defs>
        <path id="ArialMT-37" d="M 303 3981 
L 303 4522 
L 3269 4522 
L 3269 4084 
Q 2831 3619 2401 2847 
Q 1972 2075 1738 1259 
Q 1569 684 1522 0 
L 944 0 
Q 953 541 1156 1306 
Q 1359 2072 1739 2783 
Q 2119 3494 2547 3981 
L 303 3981 
z
" transform="scale(0.015625)"/>
       </defs>
       <use xlink:href="#ArialMT-31" transform="translate(0 0.846875)"/>
       <use xlink:href="#ArialMT-30" transform="translate(55.615234 0.846875)"/>
       <use xlink:href="#ArialMT-2212" transform="translate(112.972813 70.540625) scale(0.7)"/>
       <use xlink:href="#ArialMT-37" transform="translate(153.851719 70.540625) scale(0.7)"/>
      </g>
     </g>
    </g>
    <g id="ytick_5">
     <g id="line2d_19">
      <path d="M 46.079937 132.224324 
L 675.559636 132.224324 
" clip-path="url(#pf4f48c9e0d)" style="fill: none; stroke: #d9dee3; stroke-opacity: 0.75; stroke-width: 0.65; stroke-linecap: square"/>
     </g>
     <g id="line2d_20">
      <g>
       <use xlink:href="#md24f9f71d0" x="46.079937" y="132.224324" style="fill: #666666; stroke: #666666; stroke-width: 0.8"/>
      </g>
     </g>
     <g id="text_11">
      <!-- $\mathdefault{10^{-5}}$ -->
      <g style="fill: #666666" transform="translate(22.843938 136.411449) scale(0.082 -0.082)">
       <use xlink:href="#ArialMT-31" transform="translate(0 0.879688)"/>
       <use xlink:href="#ArialMT-30" transform="translate(55.615234 0.879688)"/>
       <use xlink:href="#ArialMT-2212" transform="translate(112.972813 70.573438) scale(0.7)"/>
       <use xlink:href="#ArialMT-35" transform="translate(153.851719 70.573438) scale(0.7)"/>
      </g>
     </g>
    </g>
    <g id="ytick_6">
     <g id="line2d_21">
      <path d="M 46.079937 93.234681 
L 675.559636 93.234681 
" clip-path="url(#pf4f48c9e0d)" style="fill: none; stroke: #d9dee3; stroke-opacity: 0.75; stroke-width: 0.65; stroke-linecap: square"/>
     </g>
     <g id="line2d_22">
      <g>
       <use xlink:href="#md24f9f71d0" x="46.079937" y="93.234681" style="fill: #666666; stroke: #666666; stroke-width: 0.8"/>
      </g>
     </g>
     <g id="text_12">
      <!-- $\mathdefault{10^{-3}}$ -->
      <g style="fill: #666666" transform="translate(22.843938 97.462806) scale(0.082 -0.082)">
       <use xlink:href="#ArialMT-31" transform="translate(0 0.99375)"/>
       <use xlink:href="#ArialMT-30" transform="translate(55.615234 0.99375)"/>
       <use xlink:href="#ArialMT-2212" transform="translate(112.972813 70.6875) scale(0.7)"/>
       <use xlink:href="#ArialMT-33" transform="translate(153.851719 70.6875) scale(0.7)"/>
      </g>
     </g>
    </g>
    <g id="ytick_7">
     <g id="line2d_23">
      <path d="M 46.079937 54.245038 
L 675.559636 54.245038 
" clip-path="url(#pf4f48c9e0d)" style="fill: none; stroke: #d9dee3; stroke-opacity: 0.75; stroke-width: 0.65; stroke-linecap: square"/>
     </g>
     <g id="line2d_24">
      <g>
       <use xlink:href="#md24f9f71d0" x="46.079937" y="54.245038" style="fill: #666666; stroke: #666666; stroke-width: 0.8"/>
      </g>
     </g>
     <g id="text_13">
      <!-- $\mathdefault{10^{-1}}$ -->
      <g style="fill: #666666" transform="translate(22.843938 58.473163) scale(0.082 -0.082)">
       <use xlink:href="#ArialMT-31" transform="translate(0 0.99375)"/>
       <use xlink:href="#ArialMT-30" transform="translate(55.615234 0.99375)"/>
       <use xlink:href="#ArialMT-2212" transform="translate(112.972813 70.6875) scale(0.7)"/>
       <use xlink:href="#ArialMT-31" transform="translate(153.851719 70.6875) scale(0.7)"/>
      </g>
     </g>
    </g>
    <g id="text_14">
     <!-- Absolute drain current, |ID| (A) -->
     <g style="fill: #666666" transform="translate(13.751719 225.954112) rotate(-90) scale(0.09 -0.09)">
      <defs>
       <path id="ArialMT-41" d="M -9 0 
L 1750 4581 
L 2403 4581 
L 4278 0 
L 3588 0 
L 3053 1388 
L 1138 1388 
L 634 0 
L -9 0 
z
M 1313 1881 
L 2866 1881 
L 2388 3150 
Q 2169 3728 2063 4100 
Q 1975 3659 1816 3225 
L 1313 1881 
z
" transform="scale(0.015625)"/>
       <path id="ArialMT-62" d="M 941 0 
L 419 0 
L 419 4581 
L 981 4581 
L 981 2947 
Q 1338 3394 1891 3394 
Q 2197 3394 2470 3270 
Q 2744 3147 2920 2923 
Q 3097 2700 3197 2384 
Q 3297 2069 3297 1709 
Q 3297 856 2875 390 
Q 2453 -75 1863 -75 
Q 1275 -75 941 416 
L 941 0 
z
M 934 1684 
Q 934 1088 1097 822 
Q 1363 388 1816 388 
Q 2184 388 2453 708 
Q 2722 1028 2722 1663 
Q 2722 2313 2464 2622 
Q 2206 2931 1841 2931 
Q 1472 2931 1203 2611 
Q 934 2291 934 1684 
z
" transform="scale(0.015625)"/>
       <path id="ArialMT-73" d="M 197 991 
L 753 1078 
Q 800 744 1014 566 
Q 1228 388 1613 388 
Q 2000 388 2187 545 
Q 2375 703 2375 916 
Q 2375 1106 2209 1216 
Q 2094 1291 1634 1406 
Q 1016 1563 777 1677 
Q 538 1791 414 1992 
Q 291 2194 291 2438 
Q 291 2659 392 2848 
Q 494 3038 669 3163 
Q 800 3259 1026 3326 
Q 1253 3394 1513 3394 
Q 1903 3394 2198 3281 
Q 2494 3169 2634 2976 
Q 2775 2784 2828 2463 
L 2278 2388 
Q 2241 2644 2061 2787 
Q 1881 2931 1553 2931 
Q 1166 2931 1000 2803 
Q 834 2675 834 2503 
Q 834 2394 903 2306 
Q 972 2216 1119 2156 
Q 1203 2125 1616 2013 
Q 2213 1853 2448 1751 
Q 2684 1650 2818 1456 
Q 2953 1263 2953 975 
Q 2953 694 2789 445 
Q 2625 197 2315 61 
Q 2006 -75 1616 -75 
Q 969 -75 630 194 
Q 291 463 197 991 
z
" transform="scale(0.015625)"/>
       <path id="ArialMT-75" d="M 2597 0 
L 2597 488 
Q 2209 -75 1544 -75 
Q 1250 -75 995 37 
Q 741 150 617 320 
Q 494 491 444 738 
Q 409 903 409 1263 
L 409 3319 
L 972 3319 
L 972 1478 
Q 972 1038 1006 884 
Q 1059 663 1231 536 
Q 1403 409 1656 409 
Q 1909 409 2131 539 
Q 2353 669 2445 892 
Q 2538 1116 2538 1541 
L 2538 3319 
L 3100 3319 
L 3100 0 
L 2597 0 
z
" transform="scale(0.015625)"/>
       <path id="ArialMT-64" d="M 2575 0 
L 2575 419 
Q 2259 -75 1647 -75 
Q 1250 -75 917 144 
Q 584 363 401 755 
Q 219 1147 219 1656 
Q 219 2153 384 2558 
Q 550 2963 881 3178 
Q 1213 3394 1622 3394 
Q 1922 3394 2156 3267 
Q 2391 3141 2538 2938 
L 2538 4581 
L 3097 4581 
L 3097 0 
L 2575 0 
z
M 797 1656 
Q 797 1019 1065 703 
Q 1334 388 1700 388 
Q 2069 388 2326 689 
Q 2584 991 2584 1609 
Q 2584 2291 2321 2609 
Q 2059 2928 1675 2928 
Q 1300 2928 1048 2622 
Q 797 2316 797 1656 
z
" transform="scale(0.015625)"/>
       <path id="ArialMT-72" d="M 416 0 
L 416 3319 
L 922 3319 
L 922 2816 
Q 1116 3169 1280 3281 
Q 1444 3394 1641 3394 
Q 1925 3394 2219 3213 
L 2025 2691 
Q 1819 2813 1613 2813 
Q 1428 2813 1281 2702 
Q 1134 2591 1072 2394 
Q 978 2094 978 1738 
L 978 0 
L 416 0 
z
" transform="scale(0.015625)"/>
       <path id="ArialMT-69" d="M 425 3934 
L 425 4581 
L 988 4581 
L 988 3934 
L 425 3934 
z
M 425 0 
L 425 3319 
L 988 3319 
L 988 0 
L 425 0 
z
" transform="scale(0.015625)"/>
       <path id="ArialMT-6e" d="M 422 0 
L 422 3319 
L 928 3319 
L 928 2847 
Q 1294 3394 1984 3394 
Q 2284 3394 2536 3286 
Q 2788 3178 2913 3003 
Q 3038 2828 3088 2588 
Q 3119 2431 3119 2041 
L 3119 0 
L 2556 0 
L 2556 2019 
Q 2556 2363 2490 2533 
Q 2425 2703 2258 2804 
Q 2091 2906 1866 2906 
Q 1506 2906 1245 2678 
Q 984 2450 984 1813 
L 984 0 
L 422 0 
z
" transform="scale(0.015625)"/>
       <path id="ArialMT-63" d="M 2588 1216 
L 3141 1144 
Q 3050 572 2676 248 
Q 2303 -75 1759 -75 
Q 1078 -75 664 370 
Q 250 816 250 1647 
Q 250 2184 428 2587 
Q 606 2991 970 3192 
Q 1334 3394 1763 3394 
Q 2303 3394 2647 3120 
Q 2991 2847 3088 2344 
L 2541 2259 
Q 2463 2594 2264 2762 
Q 2066 2931 1784 2931 
Q 1359 2931 1093 2626 
Q 828 2322 828 1663 
Q 828 994 1084 691 
Q 1341 388 1753 388 
Q 2084 388 2306 591 
Q 2528 794 2588 1216 
z
" transform="scale(0.015625)"/>
       <path id="ArialMT-7c" d="M 588 -1347 
L 588 4659 
L 1078 4659 
L 1078 -1347 
L 588 -1347 
z
" transform="scale(0.015625)"/>
       <path id="ArialMT-49" d="M 597 0 
L 597 4581 
L 1203 4581 
L 1203 0 
L 597 0 
z
" transform="scale(0.015625)"/>
       <path id="ArialMT-44" d="M 494 0 
L 494 4581 
L 2072 4581 
Q 2606 4581 2888 4516 
Q 3281 4425 3559 4188 
Q 3922 3881 4101 3404 
Q 4281 2928 4281 2316 
Q 4281 1794 4159 1391 
Q 4038 988 3847 723 
Q 3656 459 3429 307 
Q 3203 156 2883 78 
Q 2563 0 2147 0 
L 494 0 
z
M 1100 541 
L 2078 541 
Q 2531 541 2789 625 
Q 3047 709 3200 863 
Q 3416 1078 3536 1442 
Q 3656 1806 3656 2325 
Q 3656 3044 3420 3430 
Q 3184 3816 2847 3947 
Q 2603 4041 2063 4041 
L 1100 4041 
L 1100 541 
z
" transform="scale(0.015625)"/>
      </defs>
      <use xlink:href="#ArialMT-41"/>
      <use xlink:href="#ArialMT-62" x="66.699219"/>
      <use xlink:href="#ArialMT-73" x="122.314453"/>
      <use xlink:href="#ArialMT-6f" x="172.314453"/>
      <use xlink:href="#ArialMT-6c" x="227.929688"/>
      <use xlink:href="#ArialMT-75" x="250.146484"/>
      <use xlink:href="#ArialMT-74" x="305.761719"/>
      <use xlink:href="#ArialMT-65" x="333.544922"/>
      <use xlink:href="#ArialMT-20" x="389.160156"/>
      <use xlink:href="#ArialMT-64" x="416.943359"/>
      <use xlink:href="#ArialMT-72" x="472.558594"/>
      <use xlink:href="#ArialMT-61" x="505.859375"/>
      <use xlink:href="#ArialMT-69" x="561.474609"/>
      <use xlink:href="#ArialMT-6e" x="583.691406"/>
      <use xlink:href="#ArialMT-20" x="639.306641"/>
      <use xlink:href="#ArialMT-63" x="667.089844"/>
      <use xlink:href="#ArialMT-75" x="717.089844"/>
      <use xlink:href="#ArialMT-72" x="772.705078"/>
      <use xlink:href="#ArialMT-72" x="806.005859"/>
      <use xlink:href="#ArialMT-65" x="839.306641"/>
      <use xlink:href="#ArialMT-6e" x="894.921875"/>
      <use xlink:href="#ArialMT-74" x="950.537109"/>
      <use xlink:href="#ArialMT-2c" x="978.320312"/>
      <use xlink:href="#ArialMT-20" x="1006.103516"/>
      <use xlink:href="#ArialMT-7c" x="1033.886719"/>
      <use xlink:href="#ArialMT-49" x="1059.863281"/>
      <use xlink:href="#ArialMT-44" x="1087.646484"/>
      <use xlink:href="#ArialMT-7c" x="1159.863281"/>
      <use xlink:href="#ArialMT-20" x="1185.839844"/>
      <use xlink:href="#ArialMT-28" x="1213.623047"/>
      <use xlink:href="#ArialMT-41" x="1246.923828"/>
      <use xlink:href="#ArialMT-29" x="1313.623047"/>
     </g>
    </g>
   </g>
   <g id="line2d_25">
    <path d="M 250.770888 258.763082 
L 251.871382 262.823144 
L 252.971875 288.182896 
L 254.072347 266.971465 
L 255.17284 267.579513 
L 256.273333 276.721413 
L 257.373827 261.535022 
L 258.47432 257.743296 
L 259.574792 257.645292 
L 260.675285 261.231988 
L 261.775778 258.147199 
L 262.876271 258.463332 
L 263.976765 258.903889 
L 265.077237 257.645292 
L 266.17773 256.810736 
L 267.278223 256.989188 
L 268.378716 258.791582 
L 269.47921 257.452625 
L 270.579682 257.35791 
L 271.680175 259.133074 
L 272.780668 256.380291 
L 273.881161 259.6111 
L 274.981654 260.117569 
L 276.082127 259.368792 
L 277.18262 259.017706 
L 278.283113 260.939427 
L 279.383606 264.029066 
L 280.484099 259.6111 
L 281.584572 260.939427 
L 282.685065 262.690422 
L 283.785558 260.24924 
L 284.886051 272.036833 
L 285.986544 258.044302 
L 287.087017 262.011148 
L 288.18751 263.051653 
L 289.288003 256.213994 
L 291.488989 267.269833 
L 292.589461 260.382814 
L 293.689955 268.581543 
L 294.790448 259.988084 
L 295.890941 267.579513 
L 296.991424 262.175925 
L 298.091917 261.231988 
L 299.1924 261.535022 
L 300.292893 259.6111 
L 301.393386 261.084444 
L 302.493869 265.372921 
L 303.594362 263.429239 
L 304.694844 263.238465 
L 305.795338 273.177603 
L 306.895831 263.051653 
L 307.996313 262.869111 
L 309.096807 263.824453 
L 310.197289 261.084444 
L 311.297783 260.796852 
L 312.398276 260.117569 
L 313.498758 256.213994 
L 314.599252 260.796852 
L 315.699734 256.899492 
L 316.800227 262.515426 
L 317.900721 273.810907 
L 319.001203 263.624411 
L 320.101697 273.177603 
L 321.202179 262.515426 
L 322.302672 257.35791 
L 323.403166 263.238465 
L 324.503648 257.743296 
L 325.604141 257.942773 
L 326.704624 254.306236 
L 327.805117 258.044302 
L 328.90561 257.079844 
L 330.006093 259.48908 
L 331.106586 264.238745 
L 332.207069 258.791582 
L 333.307562 258.044302 
L 334.408055 260.117569 
L 335.508538 258.791582 
L 336.609031 257.842447 
L 337.709514 257.743296 
L 338.810007 259.368792 
L 339.9105 258.791582 
L 341.010983 255.133756 
L 342.111476 256.899492 
L 343.211959 255.20659 
L 345.412945 258.791582 
L 346.513428 253.920955 
L 347.613921 255.35397 
L 348.714404 255.428634 
L 349.814897 256.549807 
L 352.015873 255.35397 
L 353.116366 258.251225 
L 354.216849 256.989188 
L 355.317342 254.573219 
L 356.417835 256.464625 
L 357.518318 255.812262 
L 358.618811 255.428634 
L 359.719294 258.251225 
L 360.819787 255.35397 
L 361.92028 255.579966 
L 363.020763 259.6111 
L 364.121256 257.743296 
L 365.221739 256.989188 
L 366.322232 255.812262 
L 367.422725 254.438719 
L 368.523208 257.079844 
L 369.623701 254.175795 
L 370.724183 256.549807 
L 371.824677 256.635856 
L 372.92517 255.579966 
L 374.025653 255.428634 
L 375.126146 258.903889 
L 376.226628 256.899492 
L 377.327122 255.656658 
L 378.427615 256.132109 
L 379.528097 256.464625 
L 380.628591 256.549807 
L 381.729073 257.452625 
L 382.829566 254.70989 
L 383.930054 257.35791 
L 385.030542 255.35397 
L 386.131036 254.111446 
L 387.231523 257.842447 
L 388.332011 258.463332 
L 389.432499 256.464625 
L 390.532987 255.891098 
L 391.63348 257.842447 
L 392.733968 255.734052 
L 393.834456 253.028079 
L 394.934944 253.552446 
L 396.035432 255.503962 
L 397.135925 253.028079 
L 398.236413 254.70989 
L 399.336901 256.635856 
L 400.437389 255.656658 
L 401.537877 253.984032 
L 402.63837 258.251225 
L 403.738858 255.579966 
L 404.839346 255.656658 
L 405.939834 257.54841 
L 407.040322 255.061637 
L 408.140815 256.464625 
L 409.241303 255.970675 
L 410.341791 256.29668 
L 411.442279 261.849515 
L 412.542767 253.920955 
L 413.64326 253.796355 
L 414.743748 257.079844 
L 415.844236 253.374075 
L 416.944724 256.989188 
L 418.045212 255.970675 
L 419.145705 255.279959 
L 420.246193 255.734052 
L 421.346681 255.656658 
L 422.447169 256.635856 
L 423.547657 257.35791 
L 424.64815 256.722902 
L 425.748638 254.641278 
L 426.849126 257.942773 
L 427.949614 257.645292 
L 429.050104 260.117569 
L 430.150592 257.171482 
L 431.251083 257.35791 
L 432.351571 259.48908 
L 433.452059 256.635856 
L 434.552549 258.463332 
L 435.653037 259.133074 
L 436.753528 260.117569 
L 437.854016 261.849515 
L 438.954504 257.171482 
L 440.054994 257.452625 
L 441.155482 258.463332 
L 443.356461 257.54841 
L 444.456949 255.503962 
L 445.557439 254.779062 
L 446.657927 255.579966 
L 447.758418 259.017706 
L 448.858905 262.011148 
L 449.959395 256.213994 
L 451.059884 260.117569 
L 452.160372 260.939427 
L 453.260861 257.743296 
L 455.46184 256.132109 
L 456.562329 260.796852 
L 457.662817 255.579966 
L 458.763306 255.503962 
L 459.863795 258.044302 
L 460.964285 256.29668 
L 462.064773 256.132109 
L 463.165262 260.939427 
L 464.265751 260.656456 
L 465.36624 258.044302 
L 466.466729 259.6111 
L 467.567218 256.464625 
L 468.667707 264.453751 
L 469.768196 259.017706 
L 470.868685 258.147199 
L 471.969174 263.429239 
L 473.069663 258.571341 
L 474.170152 280.455447 
L 475.270641 275.043816 
L 476.37113 258.018339 
L 477.471619 249.620939 
L 478.572108 245.512239 
L 480.773086 236.021206 
L 482.974064 227.679814 
L 488.476509 204.973655 
L 492.878465 185.662199 
L 498.38091 160.334675 
L 507.184821 118.342585 
L 511.586778 97.632531 
L 514.888245 83.135381 
L 517.08922 74.657438 
L 518.189714 70.949851 
L 519.290201 67.706691 
L 520.390689 64.997931 
L 521.491177 62.852634 
L 522.591665 61.245165 
L 523.692158 60.086475 
L 524.792646 59.265624 
L 525.893134 58.682417 
L 528.09411 57.953621 
L 530.295091 57.546869 
L 533.596555 57.211729 
L 539.099 56.949626 
L 549.003402 56.763411 
L 571.013187 56.628171 
L 634.84154 56.530235 
L 646.946923 56.522073 
L 646.946923 56.522073 
" clip-path="url(#pf4f48c9e0d)" style="fill: none; stroke: #fde9d2; stroke-width: 1.55; stroke-linecap: square"/>
   </g>
   <g id="line2d_26">
    <path d="M 250.770888 252.971861 
L 251.871382 252.067876 
L 252.971875 251.967625 
L 254.072347 252.376023 
L 255.17284 254.306322 
L 256.273333 255.580066 
L 257.373827 254.372262 
L 258.47432 253.796436 
L 259.574792 253.433115 
L 260.675285 253.734736 
L 261.775778 251.67374 
L 262.876271 251.436386 
L 263.976765 253.552524 
L 265.077237 253.921037 
L 266.17773 253.673562 
L 267.278223 251.578023 
L 268.378716 252.641679 
L 269.47921 252.017602 
L 270.579682 257.452625 
L 271.680175 253.141947 
L 272.780668 252.805196 
L 273.881161 253.673562 
L 274.981654 253.921037 
L 276.082127 251.770615 
L 277.18262 256.635969 
L 278.283113 251.819439 
L 279.383606 253.199385 
L 280.484099 251.67374 
L 281.584572 253.199385 
L 282.685065 251.868547 
L 283.785558 254.919217 
L 284.886051 256.464736 
L 287.087017 252.641679 
L 289.288003 253.141947 
L 290.388496 256.214102 
L 291.488989 252.118517 
L 292.589461 254.641278 
L 293.689955 256.464736 
L 294.790448 252.971861 
L 298.091917 257.171602 
L 299.1924 255.504061 
L 300.292893 257.452625 
L 301.393386 253.673562 
L 302.493869 255.35397 
L 303.594362 258.044436 
L 304.694844 254.111446 
L 305.795338 255.279959 
L 306.895831 255.35397 
L 307.996313 253.315444 
L 309.096807 253.921037 
L 310.197289 256.214102 
L 311.297783 253.084896 
L 312.398276 256.380291 
L 313.498758 253.734736 
L 314.599252 253.49257 
L 315.699734 255.504061 
L 316.800227 256.380291 
L 317.900721 252.750362 
L 319.001203 253.984032 
L 320.101697 254.047499 
L 321.202179 256.810736 
L 322.302672 256.899492 
L 323.403166 252.220581 
L 324.503648 255.279959 
L 325.604141 255.504061 
L 326.704624 254.240892 
L 327.805117 256.549919 
L 328.90561 252.91594 
L 330.006093 253.141947 
L 331.106586 254.372262 
L 332.207069 253.552524 
L 333.307562 256.132215 
L 334.408055 253.084896 
L 335.508538 254.240892 
L 336.609031 254.641278 
L 337.709514 251.819439 
L 338.810007 254.779152 
L 339.9105 254.047499 
L 341.010983 256.132215 
L 342.111476 254.175879 
L 343.211959 259.133226 
L 344.312452 255.428634 
L 345.412945 257.645292 
L 346.513428 258.791582 
L 347.613921 252.750362 
L 348.714404 257.54841 
L 349.814897 253.673562 
L 350.91539 253.984032 
L 352.015873 256.132215 
L 353.116366 254.306322 
L 354.216849 255.20659 
L 355.317342 252.481329 
L 356.417835 252.534442 
L 357.518318 254.372262 
L 358.618811 254.047499 
L 359.719294 256.635969 
L 360.819787 253.374075 
L 361.92028 254.779152 
L 363.020763 253.084896 
L 364.121256 253.028153 
L 365.221739 253.858507 
L 366.322232 250.98081 
L 367.422725 256.380291 
L 368.523208 253.141947 
L 369.623701 252.534442 
L 370.724183 253.199385 
L 371.824677 253.315444 
L 372.92517 252.695882 
L 374.025653 254.111446 
L 375.126146 253.433115 
L 376.226628 253.921037 
L 377.327122 252.376023 
L 378.427615 254.573219 
L 379.528097 253.734736 
L 380.628591 253.374075 
L 381.729073 253.315444 
L 382.829566 252.118517 
L 383.930054 253.199385 
L 385.030542 256.989188 
L 386.131036 255.279959 
L 387.231523 253.796436 
L 388.332011 257.54841 
L 389.432499 254.919217 
L 390.532987 255.20659 
L 391.63348 254.70998 
L 392.733968 253.734736 
L 393.834456 255.580066 
L 394.934944 252.587891 
L 396.035432 254.240892 
L 397.135925 256.989188 
L 398.236413 251.389715 
L 399.336901 257.171602 
L 400.437389 255.35397 
L 402.63837 255.279959 
L 403.738858 258.356684 
L 404.839346 255.061731 
L 405.939834 255.20659 
L 407.040322 253.858507 
L 408.140815 253.084896 
L 409.241303 254.111446 
L 410.341791 252.971861 
L 411.442279 254.505701 
L 412.542767 252.860387 
L 413.64326 253.141947 
L 414.743748 259.988252 
L 415.844236 255.891098 
L 416.944724 254.990221 
L 418.045212 255.812262 
L 419.145705 254.438719 
L 420.246193 257.079963 
L 421.346681 253.315444 
L 422.447169 255.428634 
L 423.547657 252.481329 
L 424.64815 254.779152 
L 425.748638 251.917941 
L 426.849126 254.990221 
L 427.949614 253.796436 
L 429.050104 254.240892 
L 430.150592 256.380291 
L 431.251083 252.118517 
L 432.351571 257.264244 
L 433.452059 256.132215 
L 434.552549 255.279959 
L 435.653037 253.673562 
L 436.753528 257.079963 
L 437.854016 253.433115 
L 438.954504 254.372262 
L 440.054994 254.641278 
L 441.155482 255.891098 
L 442.255973 260.939427 
L 443.356461 267.27023 
L 444.456949 257.079963 
L 445.557439 256.35879 
L 446.657927 252.105447 
L 447.758418 244.023526 
L 448.858905 238.040027 
L 459.863795 188.146663 
L 464.265751 169.073409 
L 467.567218 155.553445 
L 470.868685 142.831207 
L 475.270641 126.862234 
L 479.672597 111.800046 
L 482.974064 101.215429 
L 486.275531 91.395205 
L 489.576998 82.410796 
L 491.777976 77.015142 
L 493.978953 72.182778 
L 496.179931 68.051903 
L 498.38091 64.695175 
L 499.481398 63.328747 
L 500.581888 62.164359 
L 501.682376 61.190876 
L 502.782867 60.387432 
L 504.983843 59.198575 
L 507.184821 58.420464 
L 509.3858 57.904697 
L 512.687266 57.429877 
L 517.08922 57.090001 
L 523.692158 56.847765 
L 535.797536 56.673651 
L 563.309756 56.551383 
L 641.444478 56.468044 
L 646.946923 56.465282 
L 646.946923 56.465282 
" clip-path="url(#pf4f48c9e0d)" style="fill: none; stroke: #f7c98f; stroke-width: 1.55; stroke-linecap: square"/>
   </g>
   <g id="line2d_27">
    <path d="M 250.770888 251.471989 
L 251.871382 252.005539 
L 252.971875 256.789499 
L 254.072347 266.901531 
L 255.17284 258.545202 
L 256.273333 256.112558 
L 257.373827 256.52927 
L 258.47432 258.545202 
L 259.574792 288.182896 
L 260.675285 263.193277 
L 262.876271 258.764756 
L 263.976765 263.007689 
L 265.077237 263.426209 
L 266.17773 264.40161 
L 267.278223 264.40161 
L 268.378716 258.019939 
L 269.47921 256.701883 
L 270.579682 274.326364 
L 271.680175 274.326364 
L 272.780668 266.339111 
L 273.881161 262.303196 
L 274.981654 266.339111 
L 276.082127 283.471864 
L 277.18262 266.130525 
L 278.283113 288.182896 
L 279.383606 265.811402 
L 280.484099 270.919301 
L 281.584572 267.197402 
L 282.685065 261.847001 
L 283.785558 276.735992 
L 284.886051 266.400227 
L 285.986544 266.070973 
L 288.18751 278.833573 
L 289.288003 269.229978 
L 290.388496 268.228844 
L 291.488989 266.130525 
L 292.589461 262.866511 
L 293.689955 277.957521 
L 294.790448 270.12772 
L 295.890941 265.869149 
L 296.991424 276.044573 
L 298.091917 268.575975 
L 299.1924 270.12772 
L 300.292893 267.574567 
L 301.393386 270.464407 
L 302.493869 280.116131 
L 303.594362 274.485182 
L 304.694844 263.426209 
L 305.795338 265.36911 
L 306.895831 267.574567 
L 307.996313 263.426209 
L 309.096807 277.957521 
L 310.197289 274.485182 
L 311.297783 262.866511 
L 312.398276 268.938434 
L 313.498758 262.512933 
L 314.599252 264.897263 
L 315.699734 263.048755 
L 316.800227 265.869149 
L 317.900721 266.400227 
L 319.001203 261.847001 
L 320.101697 265.615602 
L 321.202179 261.082147 
L 322.302672 264.897263 
L 323.403166 261.532599 
L 324.503648 280.116131 
L 325.604141 260.654272 
L 326.704624 268.575975 
L 327.805117 262.173312 
L 328.90561 266.400227 
L 330.006093 268.228844 
L 331.106586 259.60917 
L 332.207069 266.679175 
L 333.307562 263.235502 
L 334.408055 258.249581 
L 335.508538 264.897263 
L 336.609031 260.11552 
L 337.709514 271.024863 
L 339.9105 261.229651 
L 341.010983 264.235412 
L 342.111476 270.564414 
L 343.211959 267.895387 
L 344.312452 282.010588 
L 345.412945 282.010588 
L 346.513428 257.941188 
L 347.613921 266.679175 
L 348.714404 261.37977 
L 349.814897 264.235412 
L 350.91539 260.3807 
L 352.015873 259.60917 
L 353.116366 271.024863 
L 354.216849 257.170035 
L 355.317342 262.866511 
L 356.417835 264.025813 
L 357.518318 261.37977 
L 358.618811 267.265461 
L 359.719294 263.821279 
L 360.819787 259.858726 
L 361.92028 256.898091 
L 363.020763 265.36911 
L 364.121256 262.866511 
L 365.221739 262.008585 
L 366.322232 259.732947 
L 367.422725 261.532599 
L 368.523208 259.248186 
L 369.623701 266.400227 
L 370.724183 262.687876 
L 371.824677 264.450331 
L 372.92517 264.025813 
L 374.025653 256.987772 
L 375.126146 262.341309 
L 376.226628 259.248186 
L 377.327122 258.902114 
L 378.427615 260.654272 
L 379.528097 260.794631 
L 380.628591 267.895387 
L 381.729073 261.847001 
L 382.829566 257.170035 
L 383.930054 261.229651 
L 385.030542 267.265461 
L 386.131036 262.341309 
L 387.231523 288.182896 
L 388.332011 258.902114 
L 389.432499 258.249581 
L 390.532987 262.866511 
L 391.63348 265.869149 
L 392.733968 263.62131 
L 393.834456 270.564414 
L 394.934944 261.082147 
L 396.035432 258.042698 
L 397.135925 256.634497 
L 398.236413 266.400227 
L 399.336901 264.897263 
L 400.437389 272.029159 
L 401.537877 288.182896 
L 402.63837 266.400227 
L 403.738858 262.341309 
L 404.839346 280.116131 
L 405.939834 260.516381 
L 407.040322 272.029159 
L 408.140815 271.5118 
L 409.241303 262.008585 
L 410.341791 260.937169 
L 411.442279 260.3807 
L 412.542767 288.182896 
L 413.64326 281.629359 
L 414.743748 268.497034 
L 415.844236 257.241779 
L 416.944724 249.812545 
L 418.045212 247.092968 
L 419.145705 241.15624 
L 421.346681 231.145158 
L 426.849126 208.143261 
L 430.150592 195.274751 
L 435.653037 175.458228 
L 447.758418 133.853737 
L 452.160372 119.657934 
L 456.562329 106.587695 
L 459.863795 97.555475 
L 463.165262 89.224242 
L 466.466729 81.687309 
L 468.667707 77.136222 
L 470.868685 73.019591 
L 473.069663 69.409723 
L 475.270641 66.327506 
L 477.471619 63.815442 
L 479.672597 61.85797 
L 481.873575 60.393684 
L 484.074553 59.333166 
L 486.275531 58.570067 
L 488.476509 58.024687 
L 491.777976 57.478542 
L 496.179931 57.052754 
L 501.682376 56.767563 
L 510.486288 56.552836 
L 528.09411 56.397154 
L 572.11367 56.292819 
L 646.946923 56.243692 
L 646.946923 56.243692 
" clip-path="url(#pf4f48c9e0d)" style="fill: none; stroke: #f2ad62; stroke-width: 1.55; stroke-linecap: square"/>
   </g>
   <g id="line2d_28">
    <path d="M 162.73177 262.308172 
L 163.832263 263.985399 
L 164.932756 288.182896 
L 166.033228 270.114917 
L 167.133721 283.532702 
L 168.234215 263.615629 
L 169.334708 263.229827 
L 170.435201 264.443781 
L 171.535673 279.068922 
L 172.636166 261.52816 
L 173.73666 264.019583 
L 174.837153 263.420657 
L 175.937646 288.182896 
L 177.038118 275.205652 
L 178.138611 269.700259 
L 179.239105 276.018839 
L 180.339598 259.605472 
L 181.440091 259.244796 
L 182.540563 261.52816 
L 183.641056 262.507495 
L 184.741549 273.780835 
L 185.842043 264.443781 
L 186.942536 257.738781 
L 188.043008 255.500496 
L 189.143501 258.039758 
L 190.243994 259.363322 
L 191.344488 267.256329 
L 192.444981 258.246568 
L 193.545453 259.012459 
L 194.645946 259.012459 
L 195.746439 257.448262 
L 196.846932 263.229827 
L 197.947426 257.543999 
L 199.047898 260.932842 
L 200.148391 258.566363 
L 201.248884 255.808668 
L 203.449871 261.077746 
L 204.550343 264.664125 
L 205.650836 260.243171 
L 206.751329 260.932842 
L 207.851822 255.730593 
L 208.952315 262.682557 
L 210.052788 258.898712 
L 211.153281 257.259977 
L 212.253774 265.123111 
L 213.354267 257.738781 
L 214.45476 256.128376 
L 215.555233 256.632007 
L 216.655726 256.806693 
L 218.856712 260.376825 
L 219.957205 260.65027 
L 221.057677 262.336202 
L 222.158171 256.545998 
L 223.258664 255.887471 
L 224.359157 259.127906 
L 225.45965 257.837879 
L 226.560122 261.683716 
L 227.660616 264.019583 
L 229.861602 252.747787 
L 230.962095 258.566363 
L 232.062567 265.608085 
L 233.163061 263.815197 
L 234.263554 259.483531 
L 235.364047 256.985058 
L 236.46454 259.982367 
L 237.565012 259.729194 
L 238.665505 264.664125 
L 240.866492 260.790377 
L 241.966985 257.938283 
L 243.067457 258.039758 
L 244.16795 256.806693 
L 245.268444 263.420657 
L 246.368937 261.683716 
L 247.46943 262.168306 
L 248.569902 280.390605 
L 249.670395 261.375212 
L 250.770888 277.925976 
L 255.17284 261.683716 
L 256.273333 258.039758 
L 257.373827 257.64083 
L 258.47432 252.531932 
L 259.574792 255.887471 
L 260.675285 261.375212 
L 261.775778 257.64083 
L 262.876271 259.729194 
L 263.976765 258.35183 
L 265.077237 257.738781 
L 266.17773 266.391981 
L 267.278223 263.229827 
L 268.378716 260.65027 
L 269.47921 261.683716 
L 270.579682 260.932842 
L 271.680175 257.353596 
L 272.780668 260.790377 
L 273.881161 261.52816 
L 274.981654 266.391981 
L 276.082127 260.111765 
L 277.18262 256.292983 
L 278.283113 257.543999 
L 279.383606 256.292983 
L 280.484099 259.729194 
L 281.584572 255.425199 
L 282.685065 257.64083 
L 283.785558 254.044581 
L 284.886051 256.460743 
L 285.986544 255.130533 
L 287.087017 259.012459 
L 288.18751 261.225172 
L 289.288003 260.932842 
L 290.388496 262.861078 
L 291.488989 257.543999 
L 292.589461 257.543999 
L 293.689955 256.895405 
L 294.790448 257.448262 
L 295.890941 259.729194 
L 296.991424 256.718899 
L 298.091917 251.71979 
L 299.1924 252.913315 
L 300.292893 254.502621 
L 301.393386 254.108422 
L 302.493869 256.04731 
L 303.594362 255.130533 
L 305.795338 256.292983 
L 306.895831 258.786473 
L 307.996313 259.363322 
L 309.096807 278.868696 
L 310.197289 266.391981 
L 311.297783 264.890658 
L 312.398276 256.895405 
L 313.498758 258.246568 
L 314.599252 259.244796 
L 315.699734 256.128376 
L 316.800227 256.985058 
L 317.900721 256.128376 
L 319.001203 253.489838 
L 320.101697 253.430402 
L 321.202179 257.259977 
L 322.302672 264.443781 
L 323.403166 263.815197 
L 324.503648 261.225172 
L 325.604141 257.938283 
L 326.704624 262.507495 
L 327.805117 256.895405 
L 328.90561 259.363322 
L 331.106586 257.07567 
L 332.207069 253.981136 
L 333.307562 255.203244 
L 334.408055 253.609976 
L 335.508538 255.730593 
L 336.609031 258.675703 
L 337.709514 254.502621 
L 338.810007 264.019583 
L 339.9105 256.632007 
L 341.010983 262.168306 
L 342.111476 263.420657 
L 343.211959 265.861404 
L 344.312452 260.376825 
L 345.412945 262.336202 
L 346.513428 258.458417 
L 347.613921 253.981136 
L 348.714404 256.04731 
L 349.814897 259.729194 
L 350.91539 261.683716 
L 352.015873 257.543999 
L 353.116366 257.837879 
L 354.216849 256.895405 
L 355.317342 255.500496 
L 356.417835 258.566363 
L 357.518318 276.018839 
L 358.618811 256.895405 
L 359.719294 250.095219 
L 360.819787 258.880098 
L 361.92028 251.195883 
L 363.020763 256.033962 
L 364.121256 248.432016 
L 365.221739 246.373233 
L 366.322232 255.350565 
L 367.422725 250.971383 
L 368.523208 256.446783 
L 369.623701 251.915607 
L 370.724183 246.194946 
L 371.824677 254.303228 
L 372.92517 266.910098 
L 374.025653 261.053581 
L 375.126146 252.478834 
L 376.226628 247.04251 
L 377.327122 251.866226 
L 378.427615 264.852628 
L 379.528097 257.528072 
L 380.628591 263.615629 
L 381.729073 250.256519 
L 382.829566 249.89777 
L 383.930054 270.477461 
L 385.030542 260.35449 
L 386.131036 270.933076 
L 387.231523 255.203244 
L 388.332011 252.478834 
L 389.432499 278.868696 
L 390.532987 251.907411 
L 391.63348 250.088582 
L 392.733968 249.472805 
L 393.834456 245.725177 
L 394.934944 238.911027 
L 396.035432 232.874035 
L 400.437389 214.863767 
L 404.839346 196.806014 
L 408.140815 183.838425 
L 412.542767 167.772825 
L 416.944724 152.848564 
L 421.346681 138.794314 
L 425.748638 125.57284 
L 429.050104 116.25756 
L 432.351571 107.478769 
L 435.653037 99.235149 
L 438.954504 91.572983 
L 442.255973 84.541521 
L 444.456949 80.22946 
L 446.657927 76.258357 
L 448.858905 72.653931 
L 451.059884 69.457785 
L 453.260861 66.706055 
L 455.46184 64.396265 
L 457.662817 62.529518 
L 459.863795 61.067148 
L 462.064773 59.949203 
L 464.265751 59.111095 
L 466.466729 58.483017 
L 469.768196 57.824581 
L 473.069663 57.39445 
L 477.471619 57.032051 
L 484.074553 56.732729 
L 495.079443 56.509654 
L 514.888245 56.367801 
L 514.888245 56.367801 
" clip-path="url(#pf4f48c9e0d)" style="fill: none; stroke: #e69138; stroke-width: 1.55; stroke-linecap: square"/>
   </g>
   <g id="line2d_29">
    <path d="M 162.73177 242.860757 
L 163.832263 241.792136 
L 164.932756 242.946178 
L 166.033228 242.446079 
L 167.133721 242.860757 
L 168.234215 242.997852 
L 169.334708 242.946178 
L 170.435201 244.162915 
L 171.535673 244.005782 
L 172.636166 243.06724 
L 173.73666 243.332649 
L 174.837153 244.10367 
L 175.937646 245.584384 
L 178.138611 243.699991 
L 179.239105 243.851512 
L 180.339598 244.908573 
L 181.440091 244.424667 
L 182.540563 244.569041 
L 183.641056 244.589862 
L 184.741549 245.17246 
L 185.842043 246.395916 
L 186.942536 245.105699 
L 188.043008 244.48625 
L 189.143501 244.951977 
L 190.243994 246.318839 
L 191.344488 245.17246 
L 192.444981 244.908573 
L 193.545453 244.242615 
L 194.645946 245.375902 
L 195.746439 245.284878 
L 196.846932 244.673677 
L 197.947426 245.17246 
L 199.047898 245.217227 
L 200.148391 245.467931 
L 201.248884 244.162915 
L 202.349377 245.217227 
L 203.449871 244.865376 
L 204.550343 246.293308 
L 205.650836 244.34327 
L 206.751329 245.514308 
L 207.851822 244.800983 
L 208.952315 244.424667 
L 210.052788 244.737091 
L 211.153281 245.17246 
L 212.253774 244.363543 
L 213.354267 245.127884 
L 214.45476 244.930247 
L 215.555233 243.947597 
L 216.655726 245.307553 
L 217.756219 244.694772 
L 218.856712 245.444822 
L 219.957205 245.061486 
L 221.057677 244.506869 
L 222.158171 246.116678 
L 223.258664 244.99562 
L 224.359157 245.72627 
L 225.45965 245.560971 
L 226.560122 244.506869 
L 228.761109 245.65503 
L 229.861602 244.673677 
L 230.962095 246.242458 
L 232.062567 245.798098 
L 233.163061 245.702446 
L 234.263554 246.191928 
L 235.364047 244.88694 
L 236.46454 245.398823 
L 237.565012 245.375902 
L 238.665505 246.217155 
L 240.866492 245.398823 
L 241.966985 245.774088 
L 243.067457 245.584384 
L 245.268444 245.822193 
L 246.368937 246.473718 
L 247.46943 245.194807 
L 248.569902 246.017379 
L 249.670395 245.061486 
L 250.770888 245.798098 
L 251.871382 245.194807 
L 252.971875 245.798098 
L 254.072347 245.105699 
L 256.273333 245.017518 
L 257.373827 244.302856 
L 258.47432 245.444822 
L 259.574792 244.865376 
L 260.675285 246.344465 
L 261.775778 245.584384 
L 262.876271 245.750145 
L 263.976765 245.194807 
L 267.278223 246.421759 
L 268.378716 246.658039 
L 269.47921 245.750145 
L 270.579682 245.330275 
L 271.680175 245.127884 
L 272.780668 245.798098 
L 273.881161 245.846341 
L 278.283113 245.127884 
L 279.383606 245.702446 
L 280.484099 245.89486 
L 281.584572 245.537592 
L 282.685065 246.421759 
L 283.785558 245.943642 
L 284.886051 245.750145 
L 285.986544 246.191928 
L 287.087017 245.750145 
L 288.18751 246.52598 
L 289.288003 245.467931 
L 290.388496 246.318839 
L 291.488989 246.017379 
L 292.589461 245.846341 
L 293.689955 246.066891 
L 294.790448 246.604958 
L 295.890941 245.65503 
L 296.991424 247.151314 
L 298.091917 245.678705 
L 299.1924 245.127884 
L 300.292893 245.798098 
L 301.393386 245.017518 
L 302.493869 245.870557 
L 304.694844 245.061486 
L 305.795338 245.798098 
L 307.996313 244.88694 
L 309.096807 246.091748 
L 310.197289 245.968139 
L 311.297783 246.242458 
L 312.398276 245.353058 
L 313.498758 244.162915 
L 314.599252 245.284878 
L 315.699734 245.105699 
L 316.800227 245.65503 
L 317.900721 245.398823 
L 319.001203 245.537592 
L 320.101697 245.514308 
L 321.202179 245.89486 
L 322.302672 244.758344 
L 323.403166 245.774088 
L 324.503648 245.584384 
L 325.604141 245.798098 
L 327.805117 245.774088 
L 328.90561 245.307553 
L 330.006093 245.774088 
L 331.106586 246.116678 
L 332.207069 245.584384 
L 333.307562 245.822193 
L 334.408055 245.702446 
L 335.508538 248.201475 
L 336.609031 248.265593 
L 337.709514 245.798098 
L 338.810007 245.846341 
L 339.9105 244.737091 
L 341.010983 245.105699 
L 342.111476 245.607862 
L 343.211959 244.88694 
L 344.312452 244.465682 
L 345.412945 245.353058 
L 346.513428 244.445136 
L 347.613921 245.105699 
L 349.814897 245.150157 
L 350.91539 247.409165 
L 352.015873 246.091748 
L 353.116366 245.061486 
L 354.216849 246.267853 
L 356.417835 245.017518 
L 357.518318 245.607862 
L 358.618811 244.202677 
L 359.719294 245.239737 
L 360.819787 244.822384 
L 361.92028 243.332649 
L 363.020763 244.445136 
L 364.121256 244.262648 
L 365.221739 244.589862 
L 366.322232 243.625241 
L 367.422725 243.06724 
L 368.523208 241.599545 
L 369.623701 240.736908 
L 370.724183 238.354449 
L 371.824677 235.393875 
L 375.126146 223.70819 
L 378.427615 210.493387 
L 383.930054 188.18023 
L 387.231523 175.563439 
L 390.532987 163.660554 
L 393.834456 152.49375 
L 397.135925 141.939443 
L 401.537877 128.772237 
L 404.839346 119.523733 
L 408.140815 110.859683 
L 411.442279 102.787898 
L 414.743748 95.282171 
L 418.045212 88.356147 
L 421.346681 82.057357 
L 423.547657 78.214929 
L 425.748638 74.683474 
L 427.949614 71.495196 
L 430.150592 68.671671 
L 432.351571 66.238619 
L 434.552549 64.183197 
L 436.753528 62.500536 
L 438.954504 61.156176 
L 441.155482 60.103776 
L 443.356461 59.292666 
L 445.557439 58.667489 
L 448.858905 57.991635 
L 452.160372 57.533139 
L 456.562329 57.135348 
L 463.165262 56.793623 
L 473.069663 56.548329 
L 490.677486 56.382293 
L 514.888245 56.302147 
L 514.888245 56.302147 
" clip-path="url(#pf4f48c9e0d)" style="fill: none; stroke: #d9771f; stroke-width: 1.55; stroke-linecap: square"/>
   </g>
   <g id="line2d_30">
    <path d="M 118.71221 228.047251 
L 119.812704 228.175285 
L 124.214655 227.988353 
L 125.315149 228.223423 
L 128.616607 228.320528 
L 129.7171 228.196311 
L 144.023449 228.259706 
L 145.123942 228.136372 
L 147.324928 228.387942 
L 150.626387 228.2355 
L 151.72688 228.387942 
L 152.827373 228.344981 
L 153.927866 228.42185 
L 155.028338 228.302236 
L 156.128832 228.440405 
L 158.329818 228.250622 
L 161.631277 228.428032 
L 162.73177 228.271839 
L 167.133721 228.247594 
L 168.234215 228.480745 
L 170.435201 228.287024 
L 172.636166 228.293106 
L 173.73666 228.250622 
L 174.837153 228.329691 
L 175.937646 228.274873 
L 178.138611 228.302236 
L 179.239105 228.181286 
L 180.339598 228.320528 
L 182.540563 228.329691 
L 183.641056 228.455896 
L 184.741549 228.293106 
L 189.143501 228.508782 
L 191.344488 228.274873 
L 192.444981 228.391021 
L 193.545453 228.311377 
L 195.746439 228.518149 
L 196.846932 228.434215 
L 199.047898 228.403339 
L 200.148391 228.253649 
L 204.550343 228.502544 
L 205.650836 228.351105 
L 208.952315 228.351105 
L 210.052788 228.357232 
L 211.153281 228.511905 
L 224.359157 228.536917 
L 225.45965 228.628207 
L 227.660616 228.31443 
L 228.761109 228.458999 
L 229.861602 228.387942 
L 230.962095 228.540048 
L 234.263554 228.351105 
L 235.364047 228.502544 
L 236.46454 228.527529 
L 237.565012 228.755764 
L 241.966985 228.64722 
L 245.268444 228.707705 
L 247.46943 228.590314 
L 248.569902 228.400257 
L 249.670395 228.707705 
L 254.072347 228.593464 
L 255.17284 228.65674 
L 257.373827 228.449697 
L 258.47432 228.691747 
L 259.574792 228.765409 
L 260.675285 228.536917 
L 261.775778 228.653565 
L 262.876271 228.518149 
L 265.077237 228.768626 
L 268.378716 228.65674 
L 269.47921 228.527529 
L 271.680175 228.758977 
L 273.881161 228.678998 
L 277.18262 228.502544 
L 278.283113 228.653565 
L 284.886051 228.659917 
L 288.18751 228.628207 
L 291.488989 228.440405 
L 292.589461 228.682186 
L 294.790448 228.590314 
L 295.890941 228.4435 
L 303.594362 228.490081 
L 304.694844 228.403339 
L 306.895831 228.618717 
L 307.996313 228.590314 
L 309.096807 228.434215 
L 312.398276 228.508782 
L 313.498758 228.644047 
L 314.599252 228.558862 
L 315.699734 228.606081 
L 316.800227 228.369506 
L 317.900721 228.493195 
L 321.202179 228.465204 
L 322.302672 228.468311 
L 323.403166 228.341921 
L 326.704624 228.363366 
L 328.90561 228.555722 
L 331.106586 228.32358 
L 332.207069 228.458999 
L 333.307562 228.354168 
L 334.408055 228.562001 
L 335.508538 228.384867 
L 336.609031 228.477631 
L 338.810007 228.247594 
L 342.111476 228.091694 
L 343.211959 227.816955 
L 344.312452 227.357989 
L 346.513428 225.893286 
L 347.613921 224.492162 
L 348.714404 222.706082 
L 349.814897 220.33753 
L 350.91539 217.491176 
L 353.116366 210.672172 
L 356.417835 199.225448 
L 361.92028 180.101753 
L 366.322232 165.694289 
L 370.724183 152.047802 
L 375.126146 139.085954 
L 379.528097 126.919109 
L 382.829566 118.320363 
L 386.131036 110.202748 
L 389.432499 102.603455 
L 392.733968 95.501381 
L 396.035432 88.908236 
L 399.336901 82.880598 
L 402.63837 77.439007 
L 404.839346 74.168687 
L 407.040322 71.212561 
L 409.241303 68.595803 
L 411.442279 66.311494 
L 413.64326 64.36951 
L 415.844236 62.75852 
L 418.045212 61.449809 
L 420.246193 60.408092 
L 422.447169 59.583494 
L 425.748638 58.669087 
L 429.050104 58.036728 
L 433.452059 57.481032 
L 438.954504 57.060937 
L 446.657927 56.741897 
L 458.763306 56.512194 
L 470.868685 56.409719 
L 470.868685 56.409719 
" clip-path="url(#pf4f48c9e0d)" style="fill: none; stroke: #b85812; stroke-width: 1.55; stroke-linecap: square"/>
   </g>
   <g id="line2d_31">
    <path d="M 74.692651 218.913038 
L 84.597069 218.937185 
L 85.697541 218.870945 
L 87.898527 218.980621 
L 97.802903 218.984673 
L 100.003889 218.963422 
L 103.305348 218.924096 
L 116.511224 218.982647 
L 120.913197 218.94424 
L 123.114162 218.972523 
L 126.415642 218.90902 
L 128.616607 218.9392 
L 130.817593 218.973534 
L 134.119052 218.821107 
L 139.621497 218.786394 
L 144.023449 218.72132 
L 145.123942 218.730164 
L 148.425421 218.407977 
L 151.72688 218.309173 
L 153.927866 218.089395 
L 155.028338 218.049381 
L 156.128832 217.897427 
L 158.329818 217.822902 
L 159.430311 217.800848 
L 160.530783 217.609211 
L 164.932756 217.404143 
L 169.334708 217.220362 
L 173.73666 217.059028 
L 174.837153 217.20721 
L 175.937646 217.058221 
L 177.038118 217.109217 
L 178.138611 217.02359 
L 180.339598 217.018768 
L 181.440091 216.914188 
L 184.741549 217.005124 
L 188.043008 216.913395 
L 190.243994 216.898335 
L 193.545453 216.911015 
L 196.846932 216.856467 
L 200.148391 216.87698 
L 213.354267 216.772565 
L 222.158171 216.771005 
L 227.660616 216.703406 
L 232.062567 216.69026 
L 234.263554 216.680993 
L 237.565012 216.650942 
L 243.067457 216.617932 
L 245.268444 216.56904 
L 248.569902 216.634805 
L 251.871382 216.546976 
L 257.373827 216.55762 
L 260.675285 216.531795 
L 270.579682 216.525729 
L 277.18262 216.457043 
L 280.484099 216.463059 
L 319.001203 216.296203 
L 322.302672 215.870431 
L 323.403166 215.624336 
L 324.503648 215.170034 
L 325.604141 214.445169 
L 326.704624 213.359082 
L 327.805117 211.860628 
L 328.90561 209.848783 
L 330.006093 207.389343 
L 332.207069 201.239288 
L 334.408055 194.245609 
L 339.9105 176.262259 
L 343.211959 166.240654 
L 347.613921 153.701667 
L 353.116366 138.64564 
L 358.618811 124.292379 
L 363.020763 113.547166 
L 366.322232 106.012726 
L 369.623701 98.938244 
L 372.92517 92.33532 
L 376.226628 86.252864 
L 379.528097 80.693711 
L 382.829566 75.714841 
L 385.030542 72.741898 
L 387.231523 70.073551 
L 389.432499 67.702428 
L 391.63348 65.643944 
L 393.834456 63.893328 
L 396.035432 62.434626 
L 398.236413 61.244071 
L 400.437389 60.280582 
L 402.63837 59.51099 
L 405.939834 58.643413 
L 409.241303 58.03177 
L 413.64326 57.478911 
L 419.145705 57.051323 
L 426.849126 56.717208 
L 437.854016 56.484694 
L 457.662817 56.321176 
L 470.868685 56.273751 
L 470.868685 56.273751 
" clip-path="url(#pf4f48c9e0d)" style="fill: none; stroke: #7a3510; stroke-width: 1.55; stroke-linecap: square"/>
   </g>
   <g id="patch_3">
    <path d="M 46.079937 288.182896 
L 46.079937 42.507986 
" style="fill: none; stroke: #b9c0c7; stroke-width: 0.8; stroke-linejoin: miter; stroke-linecap: square"/>
   </g>
   <g id="patch_4">
    <path d="M 46.079937 288.182896 
L 675.559636 288.182896 
" style="fill: none; stroke: #b9c0c7; stroke-width: 0.8; stroke-linejoin: miter; stroke-linecap: square"/>
   </g>
   <g id="legend_1">
    <g id="text_15">
     <!-- Dose (krad(Si)) -->
     <g style="fill: #343434" transform="translate(333.706037 16.22375) scale(0.08 -0.08)">
      <defs>
       <path id="ArialMT-6b" d="M 425 0 
L 425 4581 
L 988 4581 
L 988 1969 
L 2319 3319 
L 3047 3319 
L 1778 2088 
L 3175 0 
L 2481 0 
L 1384 1697 
L 988 1316 
L 988 0 
L 425 0 
z
" transform="scale(0.015625)"/>
      </defs>
      <use xlink:href="#ArialMT-44"/>
      <use xlink:href="#ArialMT-6f" x="72.216797"/>
      <use xlink:href="#ArialMT-73" x="127.832031"/>
      <use xlink:href="#ArialMT-65" x="177.832031"/>
      <use xlink:href="#ArialMT-20" x="233.447266"/>
      <use xlink:href="#ArialMT-28" x="261.230469"/>
      <use xlink:href="#ArialMT-6b" x="294.53125"/>
      <use xlink:href="#ArialMT-72" x="344.53125"/>
      <use xlink:href="#ArialMT-61" x="377.832031"/>
      <use xlink:href="#ArialMT-64" x="433.447266"/>
      <use xlink:href="#ArialMT-28" x="489.0625"/>
      <use xlink:href="#ArialMT-53" x="522.363281"/>
      <use xlink:href="#ArialMT-69" x="589.0625"/>
      <use xlink:href="#ArialMT-29" x="611.279297"/>
      <use xlink:href="#ArialMT-29" x="644.580078"/>
     </g>
    </g>
    <g id="line2d_32">
     <path d="M 205.502912 24.83375 
L 213.502912 24.83375 
L 221.502912 24.83375 
" style="fill: none; stroke: #fde9d2; stroke-width: 1.55; stroke-linecap: square"/>
    </g>
    <g id="text_16">
     <!-- 0 -->
     <g style="fill: #343434" transform="translate(227.902912 27.63375) scale(0.08 -0.08)">
      <use xlink:href="#ArialMT-30"/>
     </g>
    </g>
    <g id="line2d_33">
     <path d="M 248.351662 24.83375 
L 256.351662 24.83375 
L 264.351662 24.83375 
" style="fill: none; stroke: #f7c98f; stroke-width: 1.55; stroke-linecap: square"/>
    </g>
    <g id="text_17">
     <!-- 10 -->
     <g style="fill: #343434" transform="translate(270.751662 27.63375) scale(0.08 -0.08)">
      <use xlink:href="#ArialMT-31"/>
      <use xlink:href="#ArialMT-30" x="55.615234"/>
     </g>
    </g>
    <g id="line2d_34">
     <path d="M 295.649162 24.83375 
L 303.649162 24.83375 
L 311.649162 24.83375 
" style="fill: none; stroke: #f2ad62; stroke-width: 1.55; stroke-linecap: square"/>
    </g>
    <g id="text_18">
     <!-- 20 -->
     <g style="fill: #343434" transform="translate(318.049162 27.63375) scale(0.08 -0.08)">
      <defs>
       <path id="ArialMT-32" d="M 3222 541 
L 3222 0 
L 194 0 
Q 188 203 259 391 
Q 375 700 629 1000 
Q 884 1300 1366 1694 
Q 2113 2306 2375 2664 
Q 2638 3022 2638 3341 
Q 2638 3675 2398 3904 
Q 2159 4134 1775 4134 
Q 1369 4134 1125 3890 
Q 881 3647 878 3216 
L 300 3275 
Q 359 3922 746 4261 
Q 1134 4600 1788 4600 
Q 2447 4600 2831 4234 
Q 3216 3869 3216 3328 
Q 3216 3053 3103 2787 
Q 2991 2522 2730 2228 
Q 2469 1934 1863 1422 
Q 1356 997 1212 845 
Q 1069 694 975 541 
L 3222 541 
z
" transform="scale(0.015625)"/>
      </defs>
      <use xlink:href="#ArialMT-32"/>
      <use xlink:href="#ArialMT-30" x="55.615234"/>
     </g>
    </g>
    <g id="line2d_35">
     <path d="M 342.946662 24.83375 
L 350.946662 24.83375 
L 358.946662 24.83375 
" style="fill: none; stroke: #e69138; stroke-width: 1.55; stroke-linecap: square"/>
    </g>
    <g id="text_19">
     <!-- 30 -->
     <g style="fill: #343434" transform="translate(365.346662 27.63375) scale(0.08 -0.08)">
      <use xlink:href="#ArialMT-33"/>
      <use xlink:href="#ArialMT-30" x="55.615234"/>
     </g>
    </g>
    <g id="line2d_36">
     <path d="M 390.244162 24.83375 
L 398.244162 24.83375 
L 406.244162 24.83375 
" style="fill: none; stroke: #d9771f; stroke-width: 1.55; stroke-linecap: square"/>
    </g>
    <g id="text_20">
     <!-- 40 -->
     <g style="fill: #343434" transform="translate(412.644162 27.63375) scale(0.08 -0.08)">
      <defs>
       <path id="ArialMT-34" d="M 2069 0 
L 2069 1097 
L 81 1097 
L 81 1613 
L 2172 4581 
L 2631 4581 
L 2631 1613 
L 3250 1613 
L 3250 1097 
L 2631 1097 
L 2631 0 
L 2069 0 
z
M 2069 1613 
L 2069 3678 
L 634 1613 
L 2069 1613 
z
" transform="scale(0.015625)"/>
      </defs>
      <use xlink:href="#ArialMT-34"/>
      <use xlink:href="#ArialMT-30" x="55.615234"/>
     </g>
    </g>
    <g id="line2d_37">
     <path d="M 437.541662 24.83375 
L 445.541662 24.83375 
L 453.541662 24.83375 
" style="fill: none; stroke: #b85812; stroke-width: 1.55; stroke-linecap: square"/>
    </g>
    <g id="text_21">
     <!-- 50 -->
     <g style="fill: #343434" transform="translate(459.941662 27.63375) scale(0.08 -0.08)">
      <use xlink:href="#ArialMT-35"/>
      <use xlink:href="#ArialMT-30" x="55.615234"/>
     </g>
    </g>
    <g id="line2d_38">
     <path d="M 484.839162 24.83375 
L 492.839162 24.83375 
L 500.839162 24.83375 
" style="fill: none; stroke: #7a3510; stroke-width: 1.55; stroke-linecap: square"/>
    </g>
    <g id="text_22">
     <!-- 60 -->
     <g style="fill: #343434" transform="translate(507.239162 27.63375) scale(0.08 -0.08)">
      <defs>
       <path id="ArialMT-36" d="M 3184 3459 
L 2625 3416 
Q 2550 3747 2413 3897 
Q 2184 4138 1850 4138 
Q 1581 4138 1378 3988 
Q 1113 3794 959 3422 
Q 806 3050 800 2363 
Q 1003 2672 1297 2822 
Q 1591 2972 1913 2972 
Q 2475 2972 2870 2558 
Q 3266 2144 3266 1488 
Q 3266 1056 3080 686 
Q 2894 316 2569 119 
Q 2244 -78 1831 -78 
Q 1128 -78 684 439 
Q 241 956 241 2144 
Q 241 3472 731 4075 
Q 1159 4600 1884 4600 
Q 2425 4600 2770 4297 
Q 3116 3994 3184 3459 
z
M 888 1484 
Q 888 1194 1011 928 
Q 1134 663 1356 523 
Q 1578 384 1822 384 
Q 2178 384 2434 671 
Q 2691 959 2691 1453 
Q 2691 1928 2437 2201 
Q 2184 2475 1800 2475 
Q 1419 2475 1153 2201 
Q 888 1928 888 1484 
z
" transform="scale(0.015625)"/>
      </defs>
      <use xlink:href="#ArialMT-36"/>
      <use xlink:href="#ArialMT-30" x="55.615234"/>
     </g>
    </g>
   </g>
  </g>
 </g>
 <defs>
  <clipPath id="pf4f48c9e0d">
   <rect x="46.079937" y="42.507986" width="629.479699" height="245.67491"/>
  </clipPath>
 </defs>
</svg>
