<?xml version="1.0" encoding="utf-8" standalone="no"?>
<!DOCTYPE svg PUBLIC "-//W3C//DTD SVG 1.1//EN"
  "http://www.w3.org/Graphics/SVG/1.1/DTD/svg11.dtd">
<svg xmlns:xlink="http://www.w3.org/1999/xlink" width="682.759636pt" height="322.327989pt" viewBox="0 0 682.759636 322.327989" xmlns="http://www.w3.org/2000/svg" version="1.1">
 <metadata>
  <rdf:RDF xmlns:dc="http://purl.org/dc/elements/1.1/" xmlns:cc="http://creativecommons.org/ns#" xmlns:rdf="http://www.w3.org/1999/02/22-rdf-syntax-ns#">
   <cc:Work>
    <dc:type rdf:resource="http://purl.org/dc/dcmitype/StillImage"/>
    <dc:date>2026-07-22T19:01:06.931760</dc:date>
    <dc:format>image/svg+xml</dc:format>
    <dc:creator>
     <cc:Agent>
      <dc:title>Matplotlib v3.9.2, https://matplotlib.org/</dc:title>
     </cc:Agent>
    </dc:creator>
   </cc:Work>
  </rdf:RDF>
 </metadata>
 <defs>
  <style type="text/css">*{stroke-linejoin: round; stroke-linecap: butt}</style>
 </defs>
 <g id="figure_1">
  <g id="patch_1">
   <path d="M 0 322.327989 
L 682.759636 322.327989 
L 682.759636 0 
L 0 0 
z
" style="fill: #ffffff"/>
  </g>
  <g id="axes_1">
   <g id="patch_2">
    <path d="M 46.079937 288.182896 
L 675.559636 288.182896 
L 675.559636 42.507986 
L 46.079937 42.507986 
z
" style="fill: #ffffff"/>
   </g>
   <g id="matplotlib.axis_1">
    <g id="xtick_1">
     <g id="line2d_1">
      <path d="M 140.72199 288.182896 
L 140.72199 42.507986 
" clip-path="url(#p4c1f8861c9)" style="fill: none; stroke: #d9dee3; stroke-opacity: 0.75; stroke-width: 0.65; stroke-linecap: square"/>
     </g>
     <g id="line2d_2">
      <defs>
       <path id="mfa30624868" d="M 0 0 
L 0 3.5 
" style="stroke: #666666; stroke-width: 0.8"/>
      </defs>
      <g>
       <use xlink:href="#mfa30624868" x="140.72199" y="288.182896" style="fill: #666666; stroke: #666666; stroke-width: 0.8"/>
      </g>
     </g>
     <g id="text_1">
      <!-- -15 -->
      <g style="fill: #666666" transform="translate(134.796849 301.052302) scale(0.082 -0.082)">
       <defs>
        <path id="ArialMT-2d" d="M 203 1375 
L 203 1941 
L 1931 1941 
L 1931 1375 
L 203 1375 
z
" transform="scale(0.015625)"/>
        <path id="ArialMT-31" d="M 2384 0 
L 1822 0 
L 1822 3584 
Q 1619 3391 1289 3197 
Q 959 3003 697 2906 
L 697 3450 
Q 1169 3672 1522 3987 
Q 1875 4303 2022 4600 
L 2384 4600 
L 2384 0 
z
" transform="scale(0.015625)"/>
        <path id="ArialMT-35" d="M 266 1200 
L 856 1250 
Q 922 819 1161 601 
Q 1400 384 1738 384 
Q 2144 384 2425 690 
Q 2706 997 2706 1503 
Q 2706 1984 2436 2262 
Q 2166 2541 1728 2541 
Q 1456 2541 1237 2417 
Q 1019 2294 894 2097 
L 366 2166 
L 809 4519 
L 3088 4519 
L 3088 3981 
L 1259 3981 
L 1013 2750 
Q 1425 3038 1878 3038 
Q 2478 3038 2890 2622 
Q 3303 2206 3303 1553 
Q 3303 931 2941 478 
Q 2500 -78 1738 -78 
Q 1113 -78 717 272 
Q 322 622 266 1200 
z
" transform="scale(0.015625)"/>
       </defs>
       <use xlink:href="#ArialMT-2d"/>
       <use xlink:href="#ArialMT-31" x="33.300781"/>
       <use xlink:href="#ArialMT-35" x="88.916016"/>
      </g>
     </g>
    </g>
    <g id="xtick_2">
     <g id="line2d_3">
      <path d="M 250.770888 288.182896 
L 250.770888 42.507986 
" clip-path="url(#p4c1f8861c9)" style="fill: none; stroke: #d9dee3; stroke-opacity: 0.75; stroke-width: 0.65; stroke-linecap: square"/>
     </g>
     <g id="line2d_4">
      <g>
       <use xlink:href="#mfa30624868" x="250.770888" y="288.182896" style="fill: #666666; stroke: #666666; stroke-width: 0.8"/>
      </g>
     </g>
     <g id="text_2">
      <!-- -10 -->
      <g style="fill: #666666" transform="translate(244.845748 301.052302) scale(0.082 -0.082)">
       <defs>
        <path id="ArialMT-30" d="M 266 2259 
Q 266 3072 433 3567 
Q 600 4063 929 4331 
Q 1259 4600 1759 4600 
Q 2128 4600 2406 4451 
Q 2684 4303 2865 4023 
Q 3047 3744 3150 3342 
Q 3253 2941 3253 2259 
Q 3253 1453 3087 958 
Q 2922 463 2592 192 
Q 2263 -78 1759 -78 
Q 1097 -78 719 397 
Q 266 969 266 2259 
z
M 844 2259 
Q 844 1131 1108 757 
Q 1372 384 1759 384 
Q 2147 384 2411 759 
Q 2675 1134 2675 2259 
Q 2675 3391 2411 3762 
Q 2147 4134 1753 4134 
Q 1366 4134 1134 3806 
Q 844 3388 844 2259 
z
" transform="scale(0.015625)"/>
       </defs>
       <use xlink:href="#ArialMT-2d"/>
       <use xlink:href="#ArialMT-31" x="33.300781"/>
       <use xlink:href="#ArialMT-30" x="88.916016"/>
      </g>
     </g>
    </g>
    <g id="xtick_3">
     <g id="line2d_5">
      <path d="M 360.819787 288.182896 
L 360.819787 42.507986 
" clip-path="url(#p4c1f8861c9)" style="fill: none; stroke: #d9dee3; stroke-opacity: 0.75; stroke-width: 0.65; stroke-linecap: square"/>
     </g>
     <g id="line2d_6">
      <g>
       <use xlink:href="#mfa30624868" x="360.819787" y="288.182896" style="fill: #666666; stroke: #666666; stroke-width: 0.8"/>
      </g>
     </g>
     <g id="text_3">
      <!-- -5 -->
      <g style="fill: #666666" transform="translate(357.174631 301.052302) scale(0.082 -0.082)">
       <use xlink:href="#ArialMT-2d"/>
       <use xlink:href="#ArialMT-35" x="33.300781"/>
      </g>
     </g>
    </g>
    <g id="xtick_4">
     <g id="line2d_7">
      <path d="M 470.868685 288.182896 
L 470.868685 42.507986 
" clip-path="url(#p4c1f8861c9)" style="fill: none; stroke: #d9dee3; stroke-opacity: 0.75; stroke-width: 0.65; stroke-linecap: square"/>
     </g>
     <g id="line2d_8">
      <g>
       <use xlink:href="#mfa30624868" x="470.868685" y="288.182896" style="fill: #666666; stroke: #666666; stroke-width: 0.8"/>
      </g>
     </g>
     <g id="text_4">
      <!-- 0 -->
      <g style="fill: #666666" transform="translate(468.588701 301.052302) scale(0.082 -0.082)">
       <use xlink:href="#ArialMT-30"/>
      </g>
     </g>
    </g>
    <g id="xtick_5">
     <g id="line2d_9">
      <path d="M 580.917584 288.182896 
L 580.917584 42.507986 
" clip-path="url(#p4c1f8861c9)" style="fill: none; stroke: #d9dee3; stroke-opacity: 0.75; stroke-width: 0.65; stroke-linecap: square"/>
     </g>
     <g id="line2d_10">
      <g>
       <use xlink:href="#mfa30624868" x="580.917584" y="288.182896" style="fill: #666666; stroke: #666666; stroke-width: 0.8"/>
      </g>
     </g>
     <g id="text_5">
      <!-- 5 -->
      <g style="fill: #666666" transform="translate(578.637599 301.052302) scale(0.082 -0.082)">
       <use xlink:href="#ArialMT-35"/>
      </g>
     </g>
    </g>
    <g id="text_6">
     <!-- Gate voltage, VGS (V) -->
     <g style="fill: #666666" transform="translate(316.052521 313.233771) scale(0.09 -0.09)">
      <defs>
       <path id="ArialMT-47" d="M 2638 1797 
L 2638 2334 
L 4578 2338 
L 4578 638 
Q 4131 281 3656 101 
Q 3181 -78 2681 -78 
Q 2006 -78 1454 211 
Q 903 500 622 1047 
Q 341 1594 341 2269 
Q 341 2938 620 3517 
Q 900 4097 1425 4378 
Q 1950 4659 2634 4659 
Q 3131 4659 3532 4498 
Q 3934 4338 4162 4050 
Q 4391 3763 4509 3300 
L 3963 3150 
Q 3859 3500 3706 3700 
Q 3553 3900 3268 4020 
Q 2984 4141 2638 4141 
Q 2222 4141 1919 4014 
Q 1616 3888 1430 3681 
Q 1244 3475 1141 3228 
Q 966 2803 966 2306 
Q 966 1694 1177 1281 
Q 1388 869 1791 669 
Q 2194 469 2647 469 
Q 3041 469 3416 620 
Q 3791 772 3984 944 
L 3984 1797 
L 2638 1797 
z
" transform="scale(0.015625)"/>
       <path id="ArialMT-61" d="M 2588 409 
Q 2275 144 1986 34 
Q 1697 -75 1366 -75 
Q 819 -75 525 192 
Q 231 459 231 875 
Q 231 1119 342 1320 
Q 453 1522 633 1644 
Q 813 1766 1038 1828 
Q 1203 1872 1538 1913 
Q 2219 1994 2541 2106 
Q 2544 2222 2544 2253 
Q 2544 2597 2384 2738 
Q 2169 2928 1744 2928 
Q 1347 2928 1158 2789 
Q 969 2650 878 2297 
L 328 2372 
Q 403 2725 575 2942 
Q 747 3159 1072 3276 
Q 1397 3394 1825 3394 
Q 2250 3394 2515 3294 
Q 2781 3194 2906 3042 
Q 3031 2891 3081 2659 
Q 3109 2516 3109 2141 
L 3109 1391 
Q 3109 606 3145 398 
Q 3181 191 3288 0 
L 2700 0 
Q 2613 175 2588 409 
z
M 2541 1666 
Q 2234 1541 1622 1453 
Q 1275 1403 1131 1340 
Q 988 1278 909 1158 
Q 831 1038 831 891 
Q 831 666 1001 516 
Q 1172 366 1500 366 
Q 1825 366 2078 508 
Q 2331 650 2450 897 
Q 2541 1088 2541 1459 
L 2541 1666 
z
" transform="scale(0.015625)"/>
       <path id="ArialMT-74" d="M 1650 503 
L 1731 6 
Q 1494 -44 1306 -44 
Q 1000 -44 831 53 
Q 663 150 594 308 
Q 525 466 525 972 
L 525 2881 
L 113 2881 
L 113 3319 
L 525 3319 
L 525 4141 
L 1084 4478 
L 1084 3319 
L 1650 3319 
L 1650 2881 
L 1084 2881 
L 1084 941 
Q 1084 700 1114 631 
Q 1144 563 1211 522 
Q 1278 481 1403 481 
Q 1497 481 1650 503 
z
" transform="scale(0.015625)"/>
       <path id="ArialMT-65" d="M 2694 1069 
L 3275 997 
Q 3138 488 2766 206 
Q 2394 -75 1816 -75 
Q 1088 -75 661 373 
Q 234 822 234 1631 
Q 234 2469 665 2931 
Q 1097 3394 1784 3394 
Q 2450 3394 2872 2941 
Q 3294 2488 3294 1666 
Q 3294 1616 3291 1516 
L 816 1516 
Q 847 969 1125 678 
Q 1403 388 1819 388 
Q 2128 388 2347 550 
Q 2566 713 2694 1069 
z
M 847 1978 
L 2700 1978 
Q 2663 2397 2488 2606 
Q 2219 2931 1791 2931 
Q 1403 2931 1139 2672 
Q 875 2413 847 1978 
z
" transform="scale(0.015625)"/>
       <path id="ArialMT-20" transform="scale(0.015625)"/>
       <path id="ArialMT-76" d="M 1344 0 
L 81 3319 
L 675 3319 
L 1388 1331 
Q 1503 1009 1600 663 
Q 1675 925 1809 1294 
L 2547 3319 
L 3125 3319 
L 1869 0 
L 1344 0 
z
" transform="scale(0.015625)"/>
       <path id="ArialMT-6f" d="M 213 1659 
Q 213 2581 725 3025 
Q 1153 3394 1769 3394 
Q 2453 3394 2887 2945 
Q 3322 2497 3322 1706 
Q 3322 1066 3130 698 
Q 2938 331 2570 128 
Q 2203 -75 1769 -75 
Q 1072 -75 642 372 
Q 213 819 213 1659 
z
M 791 1659 
Q 791 1022 1069 705 
Q 1347 388 1769 388 
Q 2188 388 2466 706 
Q 2744 1025 2744 1678 
Q 2744 2294 2464 2611 
Q 2184 2928 1769 2928 
Q 1347 2928 1069 2612 
Q 791 2297 791 1659 
z
" transform="scale(0.015625)"/>
       <path id="ArialMT-6c" d="M 409 0 
L 409 4581 
L 972 4581 
L 972 0 
L 409 0 
z
" transform="scale(0.015625)"/>
       <path id="ArialMT-67" d="M 319 -275 
L 866 -356 
Q 900 -609 1056 -725 
Q 1266 -881 1628 -881 
Q 2019 -881 2231 -725 
Q 2444 -569 2519 -288 
Q 2563 -116 2559 434 
Q 2191 0 1641 0 
Q 956 0 581 494 
Q 206 988 206 1678 
Q 206 2153 378 2554 
Q 550 2956 876 3175 
Q 1203 3394 1644 3394 
Q 2231 3394 2613 2919 
L 2613 3319 
L 3131 3319 
L 3131 450 
Q 3131 -325 2973 -648 
Q 2816 -972 2473 -1159 
Q 2131 -1347 1631 -1347 
Q 1038 -1347 672 -1080 
Q 306 -813 319 -275 
z
M 784 1719 
Q 784 1066 1043 766 
Q 1303 466 1694 466 
Q 2081 466 2343 764 
Q 2606 1063 2606 1700 
Q 2606 2309 2336 2618 
Q 2066 2928 1684 2928 
Q 1309 2928 1046 2623 
Q 784 2319 784 1719 
z
" transform="scale(0.015625)"/>
       <path id="ArialMT-2c" d="M 569 0 
L 569 641 
L 1209 641 
L 1209 0 
Q 1209 -353 1084 -570 
Q 959 -788 688 -906 
L 531 -666 
Q 709 -588 793 -436 
Q 878 -284 888 0 
L 569 0 
z
" transform="scale(0.015625)"/>
       <path id="ArialMT-56" d="M 1803 0 
L 28 4581 
L 684 4581 
L 1875 1253 
Q 2019 853 2116 503 
Q 2222 878 2363 1253 
L 3600 4581 
L 4219 4581 
L 2425 0 
L 1803 0 
z
" transform="scale(0.015625)"/>
       <path id="ArialMT-53" d="M 288 1472 
L 859 1522 
Q 900 1178 1048 958 
Q 1197 738 1509 602 
Q 1822 466 2213 466 
Q 2559 466 2825 569 
Q 3091 672 3220 851 
Q 3350 1031 3350 1244 
Q 3350 1459 3225 1620 
Q 3100 1781 2813 1891 
Q 2628 1963 1997 2114 
Q 1366 2266 1113 2400 
Q 784 2572 623 2826 
Q 463 3081 463 3397 
Q 463 3744 659 4045 
Q 856 4347 1234 4503 
Q 1613 4659 2075 4659 
Q 2584 4659 2973 4495 
Q 3363 4331 3572 4012 
Q 3781 3694 3797 3291 
L 3216 3247 
Q 3169 3681 2898 3903 
Q 2628 4125 2100 4125 
Q 1550 4125 1298 3923 
Q 1047 3722 1047 3438 
Q 1047 3191 1225 3031 
Q 1400 2872 2139 2705 
Q 2878 2538 3153 2413 
Q 3553 2228 3743 1945 
Q 3934 1663 3934 1294 
Q 3934 928 3725 604 
Q 3516 281 3123 101 
Q 2731 -78 2241 -78 
Q 1619 -78 1198 103 
Q 778 284 539 648 
Q 300 1013 288 1472 
z
" transform="scale(0.015625)"/>
       <path id="ArialMT-28" d="M 1497 -1347 
Q 1031 -759 709 28 
Q 388 816 388 1659 
Q 388 2403 628 3084 
Q 909 3875 1497 4659 
L 1900 4659 
Q 1522 4009 1400 3731 
Q 1209 3300 1100 2831 
Q 966 2247 966 1656 
Q 966 153 1900 -1347 
L 1497 -1347 
z
" transform="scale(0.015625)"/>
       <path id="ArialMT-29" d="M 791 -1347 
L 388 -1347 
Q 1322 153 1322 1656 
Q 1322 2244 1188 2822 
Q 1081 3291 891 3722 
Q 769 4003 388 4659 
L 791 4659 
Q 1378 3875 1659 3084 
Q 1900 2403 1900 1659 
Q 1900 816 1576 28 
Q 1253 -759 791 -1347 
z
" transform="scale(0.015625)"/>
      </defs>
      <use xlink:href="#ArialMT-47"/>
      <use xlink:href="#ArialMT-61" x="77.783203"/>
      <use xlink:href="#ArialMT-74" x="133.398438"/>
      <use xlink:href="#ArialMT-65" x="161.181641"/>
      <use xlink:href="#ArialMT-20" x="216.796875"/>
      <use xlink:href="#ArialMT-76" x="244.580078"/>
      <use xlink:href="#ArialMT-6f" x="294.580078"/>
      <use xlink:href="#ArialMT-6c" x="350.195312"/>
      <use xlink:href="#ArialMT-74" x="372.412109"/>
      <use xlink:href="#ArialMT-61" x="400.195312"/>
      <use xlink:href="#ArialMT-67" x="455.810547"/>
      <use xlink:href="#ArialMT-65" x="511.425781"/>
      <use xlink:href="#ArialMT-2c" x="567.041016"/>
      <use xlink:href="#ArialMT-20" x="594.824219"/>
      <use xlink:href="#ArialMT-56" x="622.607422"/>
      <use xlink:href="#ArialMT-47" x="689.306641"/>
      <use xlink:href="#ArialMT-53" x="767.089844"/>
      <use xlink:href="#ArialMT-20" x="833.789062"/>
      <use xlink:href="#ArialMT-28" x="861.572266"/>
      <use xlink:href="#ArialMT-56" x="894.873047"/>
      <use xlink:href="#ArialMT-29" x="961.572266"/>
     </g>
    </g>
   </g>
   <g id="matplotlib.axis_2">
    <g id="ytick_1">
     <g id="line2d_11">
      <path d="M 46.079937 288.182896 
L 675.559636 288.182896 
" clip-path="url(#p4c1f8861c9)" style="fill: none; stroke: #d9dee3; stroke-opacity: 0.75; stroke-width: 0.65; stroke-linecap: square"/>
     </g>
     <g id="line2d_12">
      <defs>
       <path id="mdca524b7a7" d="M 0 0 
L -3.5 0 
" style="stroke: #666666; stroke-width: 0.8"/>
      </defs>
      <g>
       <use xlink:href="#mdca524b7a7" x="46.079937" y="288.182896" style="fill: #666666; stroke: #666666; stroke-width: 0.8"/>
      </g>
     </g>
     <g id="text_7">
      <!-- $\mathdefault{10^{-13}}$ -->
      <g style="fill: #666666" transform="translate(19.645938 292.411021) scale(0.082 -0.082)">
       <defs>
        <path id="ArialMT-2212" d="M 3381 1997 
L 356 1997 
L 356 2522 
L 3381 2522 
L 3381 1997 
z
" transform="scale(0.015625)"/>
        <path id="ArialMT-33" d="M 269 1209 
L 831 1284 
Q 928 806 1161 595 
Q 1394 384 1728 384 
Q 2125 384 2398 659 
Q 2672 934 2672 1341 
Q 2672 1728 2419 1979 
Q 2166 2231 1775 2231 
Q 1616 2231 1378 2169 
L 1441 2663 
Q 1497 2656 1531 2656 
Q 1891 2656 2178 2843 
Q 2466 3031 2466 3422 
Q 2466 3731 2256 3934 
Q 2047 4138 1716 4138 
Q 1388 4138 1169 3931 
Q 950 3725 888 3313 
L 325 3413 
Q 428 3978 793 4289 
Q 1159 4600 1703 4600 
Q 2078 4600 2393 4439 
Q 2709 4278 2876 4000 
Q 3044 3722 3044 3409 
Q 3044 3113 2884 2869 
Q 2725 2625 2413 2481 
Q 2819 2388 3044 2092 
Q 3269 1797 3269 1353 
Q 3269 753 2831 336 
Q 2394 -81 1725 -81 
Q 1122 -81 723 278 
Q 325 638 269 1209 
z
" transform="scale(0.015625)"/>
       </defs>
       <use xlink:href="#ArialMT-31" transform="translate(0 0.99375)"/>
       <use xlink:href="#ArialMT-30" transform="translate(55.615234 0.99375)"/>
       <use xlink:href="#ArialMT-2212" transform="translate(112.972813 70.6875) scale(0.7)"/>
       <use xlink:href="#ArialMT-31" transform="translate(153.851719 70.6875) scale(0.7)"/>
       <use xlink:href="#ArialMT-33" transform="translate(192.782383 70.6875) scale(0.7)"/>
      </g>
     </g>
    </g>
    <g id="ytick_2">
     <g id="line2d_13">
      <path d="M 46.079937 249.193253 
L 675.559636 249.193253 
" clip-path="url(#p4c1f8861c9)" style="fill: none; stroke: #d9dee3; stroke-opacity: 0.75; stroke-width: 0.65; stroke-linecap: square"/>
     </g>
     <g id="line2d_14">
      <g>
       <use xlink:href="#mdca524b7a7" x="46.079937" y="249.193253" style="fill: #666666; stroke: #666666; stroke-width: 0.8"/>
      </g>
     </g>
     <g id="text_8">
      <!-- $\mathdefault{10^{-11}}$ -->
      <g style="fill: #666666" transform="translate(19.645938 253.421378) scale(0.082 -0.082)">
       <use xlink:href="#ArialMT-31" transform="translate(0 0.99375)"/>
       <use xlink:href="#ArialMT-30" transform="translate(55.615234 0.99375)"/>
       <use xlink:href="#ArialMT-2212" transform="translate(112.972813 70.6875) scale(0.7)"/>
       <use xlink:href="#ArialMT-31" transform="translate(153.851719 70.6875) scale(0.7)"/>
       <use xlink:href="#ArialMT-31" transform="translate(192.782383 70.6875) scale(0.7)"/>
      </g>
     </g>
    </g>
    <g id="ytick_3">
     <g id="line2d_15">
      <path d="M 46.079937 210.20361 
L 675.559636 210.20361 
" clip-path="url(#p4c1f8861c9)" style="fill: none; stroke: #d9dee3; stroke-opacity: 0.75; stroke-width: 0.65; stroke-linecap: square"/>
     </g>
     <g id="line2d_16">
      <g>
       <use xlink:href="#mdca524b7a7" x="46.079937" y="210.20361" style="fill: #666666; stroke: #666666; stroke-width: 0.8"/>
      </g>
     </g>
     <g id="text_9">
      <!-- $\mathdefault{10^{-9}}$ -->
      <g style="fill: #666666" transform="translate(22.843938 214.431735) scale(0.082 -0.082)">
       <defs>
        <path id="ArialMT-39" d="M 350 1059 
L 891 1109 
Q 959 728 1153 556 
Q 1347 384 1650 384 
Q 1909 384 2104 503 
Q 2300 622 2425 820 
Q 2550 1019 2634 1356 
Q 2719 1694 2719 2044 
Q 2719 2081 2716 2156 
Q 2547 1888 2255 1720 
Q 1963 1553 1622 1553 
Q 1053 1553 659 1965 
Q 266 2378 266 3053 
Q 266 3750 677 4175 
Q 1088 4600 1706 4600 
Q 2153 4600 2523 4359 
Q 2894 4119 3086 3673 
Q 3278 3228 3278 2384 
Q 3278 1506 3087 986 
Q 2897 466 2520 194 
Q 2144 -78 1638 -78 
Q 1100 -78 759 220 
Q 419 519 350 1059 
z
M 2653 3081 
Q 2653 3566 2395 3850 
Q 2138 4134 1775 4134 
Q 1400 4134 1122 3828 
Q 844 3522 844 3034 
Q 844 2597 1108 2323 
Q 1372 2050 1759 2050 
Q 2150 2050 2401 2323 
Q 2653 2597 2653 3081 
z
" transform="scale(0.015625)"/>
       </defs>
       <use xlink:href="#ArialMT-31" transform="translate(0 0.99375)"/>
       <use xlink:href="#ArialMT-30" transform="translate(55.615234 0.99375)"/>
       <use xlink:href="#ArialMT-2212" transform="translate(112.972813 70.6875) scale(0.7)"/>
       <use xlink:href="#ArialMT-39" transform="translate(153.851719 70.6875) scale(0.7)"/>
      </g>
     </g>
    </g>
    <g id="ytick_4">
     <g id="line2d_17">
      <path d="M 46.079937 171.213967 
L 675.559636 171.213967 
" clip-path="url(#p4c1f8861c9)" style="fill: none; stroke: #d9dee3; stroke-opacity: 0.75; stroke-width: 0.65; stroke-linecap: square"/>
     </g>
     <g id="line2d_18">
      <g>
       <use xlink:href="#mdca524b7a7" x="46.079937" y="171.213967" style="fill: #666666; stroke: #666666; stroke-width: 0.8"/>
      </g>
     </g>
     <g id="text_10">
      <!-- $\mathdefault{10^{-7}}$ -->
      <g style="fill: #666666" transform="translate(22.843938 175.401092) scale(0.082 -0.082)">
       <defs>
        <path id="ArialMT-37" d="M 303 3981 
L 303 4522 
L 3269 4522 
L 3269 4084 
Q 2831 3619 2401 2847 
Q 1972 2075 1738 1259 
Q 1569 684 1522 0 
L 944 0 
Q 953 541 1156 1306 
Q 1359 2072 1739 2783 
Q 2119 3494 2547 3981 
L 303 3981 
z
" transform="scale(0.015625)"/>
       </defs>
       <use xlink:href="#ArialMT-31" transform="translate(0 0.846875)"/>
       <use xlink:href="#ArialMT-30" transform="translate(55.615234 0.846875)"/>
       <use xlink:href="#ArialMT-2212" transform="translate(112.972813 70.540625) scale(0.7)"/>
       <use xlink:href="#ArialMT-37" transform="translate(153.851719 70.540625) scale(0.7)"/>
      </g>
     </g>
    </g>
    <g id="ytick_5">
     <g id="line2d_19">
      <path d="M 46.079937 132.224324 
L 675.559636 132.224324 
" clip-path="url(#p4c1f8861c9)" style="fill: none; stroke: #d9dee3; stroke-opacity: 0.75; stroke-width: 0.65; stroke-linecap: square"/>
     </g>
     <g id="line2d_20">
      <g>
       <use xlink:href="#mdca524b7a7" x="46.079937" y="132.224324" style="fill: #666666; stroke: #666666; stroke-width: 0.8"/>
      </g>
     </g>
     <g id="text_11">
      <!-- $\mathdefault{10^{-5}}$ -->
      <g style="fill: #666666" transform="translate(22.843938 136.411449) scale(0.082 -0.082)">
       <use xlink:href="#ArialMT-31" transform="translate(0 0.879688)"/>
       <use xlink:href="#ArialMT-30" transform="translate(55.615234 0.879688)"/>
       <use xlink:href="#ArialMT-2212" transform="translate(112.972813 70.573438) scale(0.7)"/>
       <use xlink:href="#ArialMT-35" transform="translate(153.851719 70.573438) scale(0.7)"/>
      </g>
     </g>
    </g>
    <g id="ytick_6">
     <g id="line2d_21">
      <path d="M 46.079937 93.234681 
L 675.559636 93.234681 
" clip-path="url(#p4c1f8861c9)" style="fill: none; stroke: #d9dee3; stroke-opacity: 0.75; stroke-width: 0.65; stroke-linecap: square"/>
     </g>
     <g id="line2d_22">
      <g>
       <use xlink:href="#mdca524b7a7" x="46.079937" y="93.234681" style="fill: #666666; stroke: #666666; stroke-width: 0.8"/>
      </g>
     </g>
     <g id="text_12">
      <!-- $\mathdefault{10^{-3}}$ -->
      <g style="fill: #666666" transform="translate(22.843938 97.462806) scale(0.082 -0.082)">
       <use xlink:href="#ArialMT-31" transform="translate(0 0.99375)"/>
       <use xlink:href="#ArialMT-30" transform="translate(55.615234 0.99375)"/>
       <use xlink:href="#ArialMT-2212" transform="translate(112.972813 70.6875) scale(0.7)"/>
       <use xlink:href="#ArialMT-33" transform="translate(153.851719 70.6875) scale(0.7)"/>
      </g>
     </g>
    </g>
    <g id="ytick_7">
     <g id="line2d_23">
      <path d="M 46.079937 54.245038 
L 675.559636 54.245038 
" clip-path="url(#p4c1f8861c9)" style="fill: none; stroke: #d9dee3; stroke-opacity: 0.75; stroke-width: 0.65; stroke-linecap: square"/>
     </g>
     <g id="line2d_24">
      <g>
       <use xlink:href="#mdca524b7a7" x="46.079937" y="54.245038" style="fill: #666666; stroke: #666666; stroke-width: 0.8"/>
      </g>
     </g>
     <g id="text_13">
      <!-- $\mathdefault{10^{-1}}$ -->
      <g style="fill: #666666" transform="translate(22.843938 58.473163) scale(0.082 -0.082)">
       <use xlink:href="#ArialMT-31" transform="translate(0 0.99375)"/>
       <use xlink:href="#ArialMT-30" transform="translate(55.615234 0.99375)"/>
       <use xlink:href="#ArialMT-2212" transform="translate(112.972813 70.6875) scale(0.7)"/>
       <use xlink:href="#ArialMT-31" transform="translate(153.851719 70.6875) scale(0.7)"/>
      </g>
     </g>
    </g>
    <g id="text_14">
     <!-- Absolute drain current, |ID| (A) -->
     <g style="fill: #666666" transform="translate(13.751719 225.954112) rotate(-90) scale(0.09 -0.09)">
      <defs>
       <path id="ArialMT-41" d="M -9 0 
L 1750 4581 
L 2403 4581 
L 4278 0 
L 3588 0 
L 3053 1388 
L 1138 1388 
L 634 0 
L -9 0 
z
M 1313 1881 
L 2866 1881 
L 2388 3150 
Q 2169 3728 2063 4100 
Q 1975 3659 1816 3225 
L 1313 1881 
z
" transform="scale(0.015625)"/>
       <path id="ArialMT-62" d="M 941 0 
L 419 0 
L 419 4581 
L 981 4581 
L 981 2947 
Q 1338 3394 1891 3394 
Q 2197 3394 2470 3270 
Q 2744 3147 2920 2923 
Q 3097 2700 3197 2384 
Q 3297 2069 3297 1709 
Q 3297 856 2875 390 
Q 2453 -75 1863 -75 
Q 1275 -75 941 416 
L 941 0 
z
M 934 1684 
Q 934 1088 1097 822 
Q 1363 388 1816 388 
Q 2184 388 2453 708 
Q 2722 1028 2722 1663 
Q 2722 2313 2464 2622 
Q 2206 2931 1841 2931 
Q 1472 2931 1203 2611 
Q 934 2291 934 1684 
z
" transform="scale(0.015625)"/>
       <path id="ArialMT-73" d="M 197 991 
L 753 1078 
Q 800 744 1014 566 
Q 1228 388 1613 388 
Q 2000 388 2187 545 
Q 2375 703 2375 916 
Q 2375 1106 2209 1216 
Q 2094 1291 1634 1406 
Q 1016 1563 777 1677 
Q 538 1791 414 1992 
Q 291 2194 291 2438 
Q 291 2659 392 2848 
Q 494 3038 669 3163 
Q 800 3259 1026 3326 
Q 1253 3394 1513 3394 
Q 1903 3394 2198 3281 
Q 2494 3169 2634 2976 
Q 2775 2784 2828 2463 
L 2278 2388 
Q 2241 2644 2061 2787 
Q 1881 2931 1553 2931 
Q 1166 2931 1000 2803 
Q 834 2675 834 2503 
Q 834 2394 903 2306 
Q 972 2216 1119 2156 
Q 1203 2125 1616 2013 
Q 2213 1853 2448 1751 
Q 2684 1650 2818 1456 
Q 2953 1263 2953 975 
Q 2953 694 2789 445 
Q 2625 197 2315 61 
Q 2006 -75 1616 -75 
Q 969 -75 630 194 
Q 291 463 197 991 
z
" transform="scale(0.015625)"/>
       <path id="ArialMT-75" d="M 2597 0 
L 2597 488 
Q 2209 -75 1544 -75 
Q 1250 -75 995 37 
Q 741 150 617 320 
Q 494 491 444 738 
Q 409 903 409 1263 
L 409 3319 
L 972 3319 
L 972 1478 
Q 972 1038 1006 884 
Q 1059 663 1231 536 
Q 1403 409 1656 409 
Q 1909 409 2131 539 
Q 2353 669 2445 892 
Q 2538 1116 2538 1541 
L 2538 3319 
L 3100 3319 
L 3100 0 
L 2597 0 
z
" transform="scale(0.015625)"/>
       <path id="ArialMT-64" d="M 2575 0 
L 2575 419 
Q 2259 -75 1647 -75 
Q 1250 -75 917 144 
Q 584 363 401 755 
Q 219 1147 219 1656 
Q 219 2153 384 2558 
Q 550 2963 881 3178 
Q 1213 3394 1622 3394 
Q 1922 3394 2156 3267 
Q 2391 3141 2538 2938 
L 2538 4581 
L 3097 4581 
L 3097 0 
L 2575 0 
z
M 797 1656 
Q 797 1019 1065 703 
Q 1334 388 1700 388 
Q 2069 388 2326 689 
Q 2584 991 2584 1609 
Q 2584 2291 2321 2609 
Q 2059 2928 1675 2928 
Q 1300 2928 1048 2622 
Q 797 2316 797 1656 
z
" transform="scale(0.015625)"/>
       <path id="ArialMT-72" d="M 416 0 
L 416 3319 
L 922 3319 
L 922 2816 
Q 1116 3169 1280 3281 
Q 1444 3394 1641 3394 
Q 1925 3394 2219 3213 
L 2025 2691 
Q 1819 2813 1613 2813 
Q 1428 2813 1281 2702 
Q 1134 2591 1072 2394 
Q 978 2094 978 1738 
L 978 0 
L 416 0 
z
" transform="scale(0.015625)"/>
       <path id="ArialMT-69" d="M 425 3934 
L 425 4581 
L 988 4581 
L 988 3934 
L 425 3934 
z
M 425 0 
L 425 3319 
L 988 3319 
L 988 0 
L 425 0 
z
" transform="scale(0.015625)"/>
       <path id="ArialMT-6e" d="M 422 0 
L 422 3319 
L 928 3319 
L 928 2847 
Q 1294 3394 1984 3394 
Q 2284 3394 2536 3286 
Q 2788 3178 2913 3003 
Q 3038 2828 3088 2588 
Q 3119 2431 3119 2041 
L 3119 0 
L 2556 0 
L 2556 2019 
Q 2556 2363 2490 2533 
Q 2425 2703 2258 2804 
Q 2091 2906 1866 2906 
Q 1506 2906 1245 2678 
Q 984 2450 984 1813 
L 984 0 
L 422 0 
z
" transform="scale(0.015625)"/>
       <path id="ArialMT-63" d="M 2588 1216 
L 3141 1144 
Q 3050 572 2676 248 
Q 2303 -75 1759 -75 
Q 1078 -75 664 370 
Q 250 816 250 1647 
Q 250 2184 428 2587 
Q 606 2991 970 3192 
Q 1334 3394 1763 3394 
Q 2303 3394 2647 3120 
Q 2991 2847 3088 2344 
L 2541 2259 
Q 2463 2594 2264 2762 
Q 2066 2931 1784 2931 
Q 1359 2931 1093 2626 
Q 828 2322 828 1663 
Q 828 994 1084 691 
Q 1341 388 1753 388 
Q 2084 388 2306 591 
Q 2528 794 2588 1216 
z
" transform="scale(0.015625)"/>
       <path id="ArialMT-7c" d="M 588 -1347 
L 588 4659 
L 1078 4659 
L 1078 -1347 
L 588 -1347 
z
" transform="scale(0.015625)"/>
       <path id="ArialMT-49" d="M 597 0 
L 597 4581 
L 1203 4581 
L 1203 0 
L 597 0 
z
" transform="scale(0.015625)"/>
       <path id="ArialMT-44" d="M 494 0 
L 494 4581 
L 2072 4581 
Q 2606 4581 2888 4516 
Q 3281 4425 3559 4188 
Q 3922 3881 4101 3404 
Q 4281 2928 4281 2316 
Q 4281 1794 4159 1391 
Q 4038 988 3847 723 
Q 3656 459 3429 307 
Q 3203 156 2883 78 
Q 2563 0 2147 0 
L 494 0 
z
M 1100 541 
L 2078 541 
Q 2531 541 2789 625 
Q 3047 709 3200 863 
Q 3416 1078 3536 1442 
Q 3656 1806 3656 2325 
Q 3656 3044 3420 3430 
Q 3184 3816 2847 3947 
Q 2603 4041 2063 4041 
L 1100 4041 
L 1100 541 
z
" transform="scale(0.015625)"/>
      </defs>
      <use xlink:href="#ArialMT-41"/>
      <use xlink:href="#ArialMT-62" x="66.699219"/>
      <use xlink:href="#ArialMT-73" x="122.314453"/>
      <use xlink:href="#ArialMT-6f" x="172.314453"/>
      <use xlink:href="#ArialMT-6c" x="227.929688"/>
      <use xlink:href="#ArialMT-75" x="250.146484"/>
      <use xlink:href="#ArialMT-74" x="305.761719"/>
      <use xlink:href="#ArialMT-65" x="333.544922"/>
      <use xlink:href="#ArialMT-20" x="389.160156"/>
      <use xlink:href="#ArialMT-64" x="416.943359"/>
      <use xlink:href="#ArialMT-72" x="472.558594"/>
      <use xlink:href="#ArialMT-61" x="505.859375"/>
      <use xlink:href="#ArialMT-69" x="561.474609"/>
      <use xlink:href="#ArialMT-6e" x="583.691406"/>
      <use xlink:href="#ArialMT-20" x="639.306641"/>
      <use xlink:href="#ArialMT-63" x="667.089844"/>
      <use xlink:href="#ArialMT-75" x="717.089844"/>
      <use xlink:href="#ArialMT-72" x="772.705078"/>
      <use xlink:href="#ArialMT-72" x="806.005859"/>
      <use xlink:href="#ArialMT-65" x="839.306641"/>
      <use xlink:href="#ArialMT-6e" x="894.921875"/>
      <use xlink:href="#ArialMT-74" x="950.537109"/>
      <use xlink:href="#ArialMT-2c" x="978.320312"/>
      <use xlink:href="#ArialMT-20" x="1006.103516"/>
      <use xlink:href="#ArialMT-7c" x="1033.886719"/>
      <use xlink:href="#ArialMT-49" x="1059.863281"/>
      <use xlink:href="#ArialMT-44" x="1087.646484"/>
      <use xlink:href="#ArialMT-7c" x="1159.863281"/>
      <use xlink:href="#ArialMT-20" x="1185.839844"/>
      <use xlink:href="#ArialMT-28" x="1213.623047"/>
      <use xlink:href="#ArialMT-41" x="1246.923828"/>
      <use xlink:href="#ArialMT-29" x="1313.623047"/>
     </g>
    </g>
   </g>
   <g id="line2d_25">
    <path d="M 250.770888 260.382814 
L 251.871382 256.722902 
L 252.971875 255.428634 
L 254.072347 256.810736 
L 255.17284 254.240807 
L 256.273333 256.213994 
L 257.373827 256.635856 
L 258.47432 256.29668 
L 259.574792 252.695811 
L 260.675285 255.428634 
L 261.775778 259.017706 
L 262.876271 257.264122 
L 263.976765 265.873193 
L 265.077237 260.796852 
L 266.17773 260.656456 
L 267.278223 260.939427 
L 268.378716 261.382149 
L 269.47921 265.619526 
L 270.579682 258.903889 
L 271.680175 259.368792 
L 272.780668 263.051653 
L 273.881161 256.899492 
L 274.981654 260.382814 
L 276.082127 257.743296 
L 277.18262 254.573219 
L 278.283113 258.791582 
L 279.383606 253.796355 
L 280.484099 253.673482 
L 281.584572 254.505701 
L 282.685065 253.433115 
L 283.785558 253.49257 
L 284.886051 254.779062 
L 285.986544 253.25714 
L 287.087017 251.205504 
L 288.18751 253.25714 
L 289.288003 253.920955 
L 290.388496 256.132109 
L 291.488989 262.011148 
L 292.589461 257.645292 
L 293.689955 256.132109 
L 294.790448 253.673482 
L 295.890941 256.464625 
L 296.991424 256.722902 
L 298.091917 254.779062 
L 299.1924 256.899492 
L 300.292893 252.534372 
L 301.393386 251.483315 
L 302.493869 252.641679 
L 303.594362 252.017536 
L 304.694844 251.160027 
L 305.795338 252.641679 
L 306.895831 251.34324 
L 307.996313 251.917941 
L 309.096807 252.805124 
L 310.197289 254.70989 
L 311.297783 253.49257 
L 312.398276 258.463332 
L 313.498758 257.452625 
L 314.599252 256.899492 
L 315.699734 255.428634 
L 316.800227 257.842447 
L 317.900721 264.029066 
L 319.001203 256.549807 
L 320.101697 254.047499 
L 321.202179 253.433115 
L 322.302672 252.481259 
L 323.403166 254.047499 
L 324.503648 255.279959 
L 325.604141 253.49257 
L 326.704624 256.380291 
L 327.805117 253.796355 
L 328.90561 251.819375 
L 330.006093 252.805124 
L 331.106586 254.372175 
L 332.207069 252.481259 
L 333.307562 253.734736 
L 334.408055 250.67582 
L 335.508538 250.548447 
L 336.609031 250.137096 
L 337.709514 249.592833 
L 338.810007 251.34324 
L 339.9105 252.481259 
L 341.010983 251.868482 
L 342.111476 254.70989 
L 343.211959 251.530506 
L 344.312452 252.220514 
L 345.412945 253.374075 
L 346.513428 254.990127 
L 347.613921 254.240807 
L 348.714404 251.483315 
L 349.814897 254.175795 
L 350.91539 253.920955 
L 352.015873 253.25714 
L 353.116366 254.438719 
L 354.216849 255.061637 
L 355.317342 250.980752 
L 357.518318 253.141872 
L 358.618811 253.552446 
L 359.719294 255.579966 
L 360.819787 254.70989 
L 361.92028 252.534372 
L 363.020763 256.051007 
L 364.121256 253.433115 
L 365.221739 255.061637 
L 366.322232 253.734736 
L 367.422725 255.35397 
L 368.523208 252.805124 
L 369.623701 254.848803 
L 370.724183 255.35397 
L 371.824677 253.19931 
L 372.92517 256.213994 
L 374.025653 255.579966 
L 375.126146 257.842447 
L 376.226628 253.858426 
L 377.327122 255.133756 
L 378.427615 256.213994 
L 379.528097 254.047499 
L 380.628591 253.19931 
L 381.729073 256.899492 
L 382.829566 255.279959 
L 383.930054 254.438719 
L 385.030542 255.133756 
L 386.131036 254.848803 
L 387.231523 253.49257 
L 388.332011 255.133756 
L 389.432499 254.919124 
L 390.532987 255.061637 
L 391.63348 252.481259 
L 392.733968 254.306236 
L 393.834456 256.380291 
L 394.934944 253.796355 
L 396.035432 255.35397 
L 397.135925 252.641679 
L 398.236413 254.990127 
L 399.336901 255.279959 
L 400.437389 254.848803 
L 401.537877 255.812262 
L 402.63837 256.051007 
L 403.738858 254.70989 
L 404.839346 256.29668 
L 405.939834 253.734736 
L 407.040322 253.374075 
L 408.140815 256.464625 
L 409.241303 253.673482 
L 410.341791 252.272079 
L 411.442279 255.133756 
L 412.542767 252.695811 
L 413.64326 252.017536 
L 414.743748 252.641679 
L 415.844236 251.625684 
L 416.944724 254.438719 
L 418.045212 251.625684 
L 419.145705 253.673482 
L 420.246193 256.29668 
L 421.346681 255.734052 
L 422.447169 260.939427 
L 423.547657 256.380291 
L 424.64815 259.368792 
L 425.748638 259.250036 
L 426.849126 253.858426 
L 427.949614 255.20659 
L 429.050104 258.463332 
L 430.150592 249.296881 
L 431.251083 249.480654 
L 432.351571 252.169328 
L 433.452059 255.891098 
L 434.552549 255.734052 
L 435.653037 256.989188 
L 436.753528 255.428634 
L 437.854016 259.734906 
L 438.954504 255.20659 
L 440.054994 257.35791 
L 441.155482 254.70989 
L 442.255973 252.750291 
L 443.356461 255.279959 
L 444.456949 256.810736 
L 445.557439 255.279959 
L 446.657927 252.481259 
L 447.758418 252.750291 
L 448.858905 253.796355 
L 449.959395 257.079844 
L 451.059884 252.481259 
L 452.160372 252.534372 
L 453.260861 252.376023 
L 454.36135 252.58782 
L 455.46184 250.46453 
L 456.562329 257.842447 
L 457.662817 254.919124 
L 458.763306 254.573219 
L 459.863795 254.573219 
L 460.964285 253.673482 
L 462.064773 254.372175 
L 463.165262 252.860387 
L 464.265751 255.970675 
L 465.36624 254.848803 
L 466.466729 254.438719 
L 467.567218 254.70989 
L 468.667707 255.133756 
L 469.768196 254.047499 
L 470.868685 257.743296 
L 471.969174 259.368792 
L 473.069663 255.891098 
L 474.170152 262.869111 
L 475.270641 261.690706 
L 476.37113 266.404533 
L 477.471619 256.275553 
L 479.672597 243.385146 
L 484.074553 224.942668 
L 490.677486 197.166675 
L 495.079443 177.492266 
L 500.581888 151.777301 
L 513.787757 89.315523 
L 515.988732 80.030525 
L 518.189714 71.953341 
L 519.290201 68.521322 
L 520.390689 65.606947 
L 521.491177 63.256104 
L 522.591665 61.464508 
L 523.692158 60.159869 
L 524.792646 59.233611 
L 525.893134 58.577801 
L 526.993622 58.107884 
L 529.194603 57.512513 
L 531.395579 57.1686 
L 534.697048 56.878246 
L 540.199493 56.643177 
L 551.204383 56.457509 
L 576.515632 56.323801 
L 646.946923 56.231966 
L 646.946923 56.231966 
" clip-path="url(#p4c1f8861c9)" style="fill: none; stroke: #fde9d2; stroke-width: 1.55; stroke-linecap: square"/>
   </g>
   <g id="line2d_26">
    <path d="M 250.770888 258.791582 
L 251.871382 269.718818 
L 252.971875 258.463332 
L 254.072347 259.133226 
L 255.17284 256.635969 
L 256.273333 258.147335 
L 257.373827 256.380291 
L 258.47432 256.132215 
L 259.574792 256.464736 
L 260.675285 255.504061 
L 261.775778 256.549919 
L 262.876271 256.296789 
L 263.976765 255.428634 
L 265.077237 258.463332 
L 266.17773 256.899492 
L 267.278223 259.48908 
L 268.378716 255.20659 
L 269.47921 256.132215 
L 270.579682 254.438719 
L 271.680175 253.374075 
L 272.780668 258.571341 
L 273.881161 255.504061 
L 274.981654 254.240892 
L 276.082127 255.35397 
L 277.18262 255.891098 
L 278.283113 254.306322 
L 279.383606 255.061731 
L 280.484099 255.20659 
L 281.584572 254.990221 
L 282.685065 255.35397 
L 283.785558 256.464736 
L 284.886051 259.133226 
L 285.986544 259.017856 
L 287.087017 253.858507 
L 288.18751 256.635969 
L 289.288003 256.051007 
L 290.388496 253.921037 
L 291.488989 257.264244 
L 292.589461 253.673562 
L 293.689955 254.111446 
L 294.790448 261.535224 
L 295.890941 253.612827 
L 296.991424 257.35791 
L 298.091917 255.970675 
L 299.1924 256.810736 
L 300.292893 258.044436 
L 302.493869 257.079963 
L 303.594362 254.70998 
L 304.694844 252.805196 
L 305.795338 252.376023 
L 306.895831 258.044436 
L 307.996313 255.133851 
L 309.096807 255.580066 
L 311.297783 251.868547 
L 312.398276 253.796436 
L 313.498758 256.051007 
L 314.599252 253.552524 
L 315.699734 259.017856 
L 316.800227 254.919217 
L 317.900721 253.141947 
L 319.001203 254.505701 
L 320.101697 253.141947 
L 321.202179 252.641679 
L 323.403166 252.750362 
L 324.503648 254.505701 
L 325.604141 250.340273 
L 326.704624 254.990221 
L 327.805117 253.984032 
L 328.90561 255.20659 
L 330.006093 254.438719 
L 331.106586 253.984032 
L 332.207069 254.047499 
L 333.307562 252.860387 
L 334.408055 253.49257 
L 335.508538 252.641679 
L 336.609031 253.796436 
L 337.709514 253.199385 
L 338.810007 252.750362 
L 339.9105 254.641278 
L 341.010983 251.722071 
L 342.111476 258.251362 
L 343.211959 253.028153 
L 344.312452 254.438719 
L 345.412945 255.061731 
L 346.513428 253.552524 
L 347.613921 253.315444 
L 348.714404 253.673562 
L 349.814897 254.505701 
L 350.91539 253.984032 
L 352.015873 253.199385 
L 354.216849 252.860387 
L 355.317342 256.635969 
L 356.417835 253.673562 
L 357.518318 257.54841 
L 358.618811 257.452625 
L 359.719294 253.257215 
L 360.819787 256.296789 
L 361.92028 253.921037 
L 363.020763 253.673562 
L 364.121256 257.743296 
L 365.221739 254.438719 
L 366.322232 255.35397 
L 367.422725 253.49257 
L 368.523208 253.984032 
L 369.623701 256.464736 
L 370.724183 256.380291 
L 371.824677 253.673562 
L 372.92517 255.133851 
L 374.025653 254.779152 
L 375.126146 254.990221 
L 376.226628 260.656638 
L 377.327122 254.990221 
L 378.427615 258.147335 
L 379.528097 256.722902 
L 380.628591 253.257215 
L 381.729073 259.017856 
L 382.829566 253.921037 
L 383.930054 256.635969 
L 385.030542 256.214102 
L 386.131036 253.433115 
L 387.231523 253.199385 
L 388.332011 255.970675 
L 389.432499 254.990221 
L 390.532987 259.988252 
L 391.63348 255.061731 
L 392.733968 255.580066 
L 393.834456 255.891098 
L 394.934944 255.133851 
L 396.035432 255.061731 
L 397.135925 253.374075 
L 398.236413 255.891098 
L 399.336901 253.858507 
L 400.437389 255.734154 
L 401.537877 255.133851 
L 402.63837 253.199385 
L 403.738858 255.20659 
L 404.839346 255.891098 
L 405.939834 257.54841 
L 407.040322 252.641679 
L 408.140815 252.91594 
L 409.241303 258.680746 
L 410.341791 258.251362 
L 411.442279 254.779152 
L 412.542767 256.899492 
L 413.64326 254.372262 
L 414.743748 254.306322 
L 415.844236 256.989188 
L 416.944724 253.199385 
L 418.045212 258.571341 
L 419.145705 256.051007 
L 420.246193 253.984032 
L 421.346681 254.240892 
L 422.447169 252.860387 
L 423.547657 253.552524 
L 424.64815 254.919217 
L 425.748638 252.695882 
L 426.849126 253.858507 
L 427.949614 252.860387 
L 429.050104 253.734736 
L 430.150592 255.656759 
L 431.251083 254.779152 
L 432.351571 255.279959 
L 433.452059 257.942905 
L 434.552549 253.028153 
L 435.653037 253.257215 
L 436.753528 256.989188 
L 437.854016 252.481329 
L 438.954504 256.380291 
L 440.054994 253.552524 
L 441.155482 254.919217 
L 442.255973 260.38299 
L 443.356461 254.919217 
L 444.456949 261.849515 
L 445.557439 265.555494 
L 446.657927 253.780463 
L 447.758418 245.605739 
L 448.858905 240.802142 
L 451.059884 229.984322 
L 466.466729 162.238017 
L 470.868685 144.590034 
L 474.170152 132.174058 
L 477.471619 120.400259 
L 480.773086 109.294992 
L 484.074553 98.903886 
L 487.37602 89.229566 
L 489.576998 83.266547 
L 491.777976 77.773484 
L 493.978953 72.821988 
L 496.179931 68.551364 
L 498.38091 65.038368 
L 499.481398 63.593508 
L 500.581888 62.353267 
L 501.682376 61.310263 
L 502.782867 60.445187 
L 504.983843 59.160027 
L 507.184821 58.317648 
L 509.3858 57.76061 
L 512.687266 57.249798 
L 517.08922 56.887386 
L 523.692158 56.631614 
L 535.797536 56.44988 
L 564.410249 56.321504 
L 642.544971 56.238523 
L 646.946923 56.236759 
L 646.946923 56.236759 
" clip-path="url(#p4c1f8861c9)" style="fill: none; stroke: #f7c98f; stroke-width: 1.55; stroke-linecap: square"/>
   </g>
   <g id="line2d_27">
    <path d="M 250.770888 253.071176 
L 251.871382 250.538305 
L 252.971875 252.415815 
L 254.072347 257.149381 
L 255.17284 260.217469 
L 256.273333 255.485808 
L 257.373827 254.69336 
L 258.47432 256.52927 
L 259.574792 259.459953 
L 260.675285 262.825965 
L 261.775778 264.40161 
L 262.876271 255.189014 
L 263.976765 255.715449 
L 265.077237 262.474041 
L 267.278223 268.497034 
L 268.378716 268.15284 
L 269.47921 255.336086 
L 270.579682 259.340076 
L 271.680175 278.833573 
L 272.780668 261.345839 
L 273.881161 280.116131 
L 274.981654 258.122403 
L 276.082127 259.581552 
L 277.18262 276.735992 
L 278.283113 263.193277 
L 279.383606 262.648175 
L 280.484099 273.168024 
L 281.584572 288.182896 
L 282.685065 270.464407 
L 283.785558 267.197402 
L 284.886051 258.654267 
L 285.986544 264.620845 
L 287.087017 273.031905 
L 288.18751 276.735992 
L 289.288003 276.947134 
L 290.388496 258.654267 
L 292.589461 270.919301 
L 293.689955 263.775905 
L 294.790448 268.228844 
L 295.890941 264.897263 
L 296.991424 265.811402 
L 298.091917 260.086288 
L 299.1924 261.04929 
L 300.292893 270.564414 
L 301.393386 268.938434 
L 302.493869 270.919301 
L 303.594362 274.485182 
L 304.694844 279.105037 
L 305.795338 274.485182 
L 306.895831 265.1299 
L 307.996313 264.845909 
L 309.096807 288.182896 
L 310.197289 271.400031 
L 311.297783 276.735992 
L 312.398276 268.15284 
L 313.498758 279.105037 
L 314.599252 288.182896 
L 315.699734 266.679175 
L 316.800227 262.173312 
L 317.900721 288.182896 
L 319.001203 282.010588 
L 320.101697 261.498052 
L 321.202179 264.18777 
L 322.302672 279.105037 
L 323.403166 266.679175 
L 324.503648 266.615652 
L 325.604141 261.811045 
L 326.704624 265.811402 
L 327.805117 288.182896 
L 328.90561 262.173312 
L 330.006093 275.055772 
L 331.106586 267.822305 
L 332.207069 263.577122 
L 333.307562 285.830194 
L 334.408055 267.574567 
L 335.508538 268.497034 
L 336.609031 276.947134 
L 337.709514 268.855577 
L 338.810007 269.621704 
L 339.9105 270.12772 
L 341.010983 267.895387 
L 342.111476 261.811045 
L 343.211959 266.615652 
L 344.312452 273.031905 
L 345.412945 277.719988 
L 346.513428 288.182896 
L 347.613921 264.845909 
L 348.714404 266.339111 
L 349.814897 266.901531 
L 350.91539 276.947134 
L 353.116366 268.15284 
L 354.216849 266.615652 
L 355.317342 270.032713 
L 356.417835 271.024863 
L 357.518318 288.182896 
L 358.618811 283.94843 
L 359.719294 257.149381 
L 360.819787 260.904869 
L 361.92028 288.182896 
L 363.020763 273.168024 
L 364.121256 285.830194 
L 365.221739 261.653051 
L 366.322232 262.303196 
L 367.422725 264.18777 
L 368.523208 276.044573 
L 369.623701 263.426209 
L 370.724183 267.504191 
L 371.824677 266.615652 
L 372.92517 263.007689 
L 374.025653 263.979333 
L 375.126146 262.474041 
L 376.226628 288.182896 
L 377.327122 262.303196 
L 378.427615 288.182896 
L 379.528097 283.94843 
L 380.628591 264.40161 
L 381.729073 276.947134 
L 382.829566 266.615652 
L 383.930054 285.830194 
L 385.030542 264.450331 
L 386.131036 279.105037 
L 387.231523 264.620845 
L 388.332011 285.830194 
L 389.432499 267.822305 
L 390.532987 274.485182 
L 391.63348 272.452411 
L 392.733968 259.340076 
L 393.834456 262.135947 
L 394.934944 263.383024 
L 396.035432 274.326364 
L 397.135925 277.719988 
L 398.236413 283.471864 
L 399.336901 269.621704 
L 400.437389 288.182896 
L 401.537877 282.010588 
L 402.63837 288.182896 
L 403.738858 277.957521 
L 404.839346 261.653051 
L 405.939834 264.18777 
L 407.040322 277.719988 
L 408.140815 267.197402 
L 409.241303 266.615652 
L 410.341791 272.452411 
L 411.442279 286.465711 
L 412.542767 266.339111 
L 413.64326 269.621704 
L 414.743748 267.197402 
L 415.844236 262.135947 
L 416.944724 255.044406 
L 418.045212 252.415815 
L 419.145705 247.34904 
L 421.346681 238.86819 
L 422.447169 233.765873 
L 424.64815 224.613313 
L 432.351571 191.68894 
L 436.753528 173.720669 
L 440.054994 161.046613 
L 443.356461 149.117548 
L 446.657927 137.844034 
L 449.959395 127.161656 
L 453.260861 117.070988 
L 456.562329 107.496273 
L 459.863795 98.525566 
L 463.165262 90.183358 
L 466.466729 82.582095 
L 468.667707 77.964745 
L 470.868685 73.762189 
L 473.069663 70.051967 
L 475.270641 66.860107 
L 477.471619 64.237574 
L 479.672597 62.17829 
L 481.873575 60.629623 
L 484.074553 59.50458 
L 486.275531 58.695511 
L 488.476509 58.118154 
L 491.777976 57.542441 
L 496.179931 57.097161 
L 501.682376 56.800927 
L 510.486288 56.581239 
L 526.993622 56.429767 
L 566.611225 56.327329 
L 646.946923 56.27248 
L 646.946923 56.27248 
" clip-path="url(#p4c1f8861c9)" style="fill: none; stroke: #f2ad62; stroke-width: 1.55; stroke-linecap: square"/>
   </g>
   <g id="line2d_28">
    <path d="M 162.73177 262.83114 
L 163.832263 259.225253 
L 164.932756 254.292406 
L 166.033228 259.833916 
L 167.133721 259.708746 
L 168.234215 261.502576 
L 169.334708 266.958428 
L 170.435201 265.322082 
L 171.535673 288.182896 
L 172.636166 258.993594 
L 173.73666 256.970148 
L 175.937646 265.123111 
L 177.038118 277.925976 
L 178.138611 280.390605 
L 179.239105 268.86637 
L 180.339598 265.084025 
L 181.440091 262.140825 
L 182.540563 280.390605 
L 183.641056 258.898712 
L 184.741549 259.483531 
L 185.842043 258.35183 
L 186.942536 266.910098 
L 188.043008 266.910098 
L 189.143501 283.532702 
L 190.243994 260.376825 
L 191.344488 259.982367 
L 192.444981 258.675703 
L 193.545453 288.182896 
L 194.645946 266.347128 
L 195.746439 288.182896 
L 196.846932 264.229025 
L 197.947426 261.375212 
L 199.047898 265.123111 
L 200.148391 262.507495 
L 201.248884 272.562357 
L 202.349377 275.078235 
L 203.449871 288.182896 
L 204.550343 262.507495 
L 205.650836 259.729194 
L 206.751329 269.700259 
L 207.851822 273.780835 
L 208.952315 272.468922 
L 210.052788 288.182896 
L 211.153281 260.111765 
L 212.253774 260.790377 
L 213.354267 262.336202 
L 214.45476 263.420657 
L 215.555233 266.910098 
L 216.655726 269.700259 
L 217.756219 259.854751 
L 218.856712 261.52816 
L 219.957205 260.65027 
L 221.057677 263.043445 
L 222.158171 268.927307 
L 223.258664 260.65027 
L 224.359157 258.786473 
L 225.45965 254.570114 
L 226.560122 261.375212 
L 227.660616 263.043445 
L 228.761109 265.123111 
L 229.861602 272.013134 
L 230.962095 283.532702 
L 232.062567 245.329233 
L 233.163061 245.126896 
L 234.263554 254.237821 
L 235.364047 243.949925 
L 236.46454 247.441814 
L 237.565012 265.818934 
L 238.665505 252.158581 
L 239.765999 253.24492 
L 240.866492 252.585364 
L 241.966985 248.766829 
L 243.067457 252.321511 
L 244.16795 273.149695 
L 245.268444 257.337962 
L 246.368937 276.018839 
L 247.46943 253.312767 
L 248.569902 252.218162 
L 249.670395 256.718899 
L 250.770888 264.193987 
L 251.871382 273.673876 
L 252.971875 264.229025 
L 254.072347 257.07567 
L 255.17284 252.585364 
L 256.273333 259.127906 
L 257.373827 269.700259 
L 258.47432 267.206471 
L 259.574792 269.241259 
L 260.675285 260.376825 
L 261.775778 254.915982 
L 262.876271 258.898712 
L 263.976765 274.463771 
L 265.077237 275.878683 
L 266.17773 278.868696 
L 267.278223 261.077746 
L 268.378716 257.353596 
L 269.47921 255.65323 
L 270.579682 256.632007 
L 271.680175 262.003675 
L 272.780668 261.077746 
L 273.881161 254.915982 
L 274.981654 254.638148 
L 276.082127 254.706734 
L 277.18262 255.350565 
L 278.283113 263.420657 
L 279.383606 259.483531 
L 280.484099 261.52816 
L 281.584572 258.786473 
L 282.685065 254.36923 
L 283.785558 254.915982 
L 284.886051 256.985058 
L 285.986544 259.605472 
L 287.087017 260.243171 
L 288.18751 254.172917 
L 289.288003 253.312767 
L 290.388496 256.460743 
L 291.488989 255.730593 
L 292.589461 259.012459 
L 293.689955 259.854751 
L 294.790448 256.376448 
L 295.890941 254.638148 
L 296.991424 257.738781 
L 298.091917 252.969217 
L 299.1924 257.543999 
L 300.292893 257.259977 
L 301.393386 254.108422 
L 302.493869 255.425199 
L 303.594362 252.585364 
L 304.694844 254.303228 
L 305.795338 254.108422 
L 306.895831 253.430402 
L 307.996313 254.36923 
L 309.096807 253.025566 
L 310.197289 255.276584 
L 311.297783 257.07567 
L 312.398276 253.549694 
L 313.498758 255.65323 
L 314.599252 260.376825 
L 315.699734 257.259977 
L 316.800227 258.35183 
L 317.900721 256.545998 
L 319.001203 260.111765 
L 320.101697 258.898712 
L 321.202179 258.675703 
L 322.302672 256.128376 
L 323.403166 259.363322 
L 324.503648 254.36923 
L 325.604141 256.210333 
L 326.704624 256.632007 
L 327.805117 253.731923 
L 328.90561 257.167382 
L 330.006093 258.898712 
L 331.106586 255.203244 
L 332.207069 256.210333 
L 333.307562 256.376448 
L 334.408055 258.675703 
L 335.508538 255.887471 
L 337.709514 255.808668 
L 338.810007 259.982367 
L 339.9105 258.786473 
L 341.010983 261.842184 
L 342.111476 260.376825 
L 343.211959 260.65027 
L 344.312452 256.718899 
L 345.412945 256.985058 
L 346.513428 258.675703 
L 347.613921 263.229827 
L 348.714404 257.64083 
L 349.814897 254.36923 
L 350.91539 258.566363 
L 352.015873 254.570114 
L 353.116366 254.915982 
L 354.216849 256.985058 
L 355.317342 257.738781 
L 356.417835 255.730593 
L 357.518318 258.246568 
L 358.618811 255.730593 
L 359.719294 261.077746 
L 360.819787 258.786473 
L 361.92028 263.229827 
L 363.020763 260.512443 
L 364.121256 258.675703 
L 365.221739 264.443781 
L 366.322232 267.256329 
L 367.422725 264.019583 
L 368.523208 266.958428 
L 369.623701 265.123111 
L 370.724183 262.861078 
L 371.824677 262.682557 
L 372.92517 259.605472 
L 374.025653 250.462619 
L 375.126146 258.566363 
L 376.226628 250.546517 
L 377.327122 257.938283 
L 378.427615 256.718899 
L 379.528097 254.706734 
L 380.628591 255.350565 
L 382.829566 260.512443 
L 383.930054 272.562357 
L 385.030542 288.182896 
L 386.131036 269.63352 
L 387.231523 274.463771 
L 388.332011 276.91851 
L 389.432499 258.768032 
L 390.532987 254.491498 
L 391.63348 252.630245 
L 392.733968 246.446527 
L 396.035432 232.77532 
L 401.537877 210.218064 
L 407.040322 188.422312 
L 410.341791 176.175337 
L 414.743748 161.003527 
L 419.145705 146.754913 
L 423.547657 133.242025 
L 427.949614 120.517295 
L 432.351571 108.699507 
L 435.653037 100.416212 
L 438.954504 92.687899 
L 442.255973 85.569403 
L 445.557439 79.120203 
L 447.758418 75.237306 
L 449.959395 71.735805 
L 452.160372 68.649813 
L 454.36135 66.01684 
L 456.562329 63.827319 
L 458.763306 62.076034 
L 460.964285 60.71599 
L 463.165262 59.684846 
L 465.36624 58.91461 
L 467.567218 58.338676 
L 470.868685 57.734339 
L 475.270641 57.240866 
L 480.773086 56.893957 
L 488.476509 56.648191 
L 501.682376 56.471319 
L 514.888245 56.397412 
L 514.888245 56.397412 
" clip-path="url(#p4c1f8861c9)" style="fill: none; stroke: #e69138; stroke-width: 1.55; stroke-linecap: square"/>
   </g>
   <g id="line2d_29">
    <path d="M 162.73177 241.6436 
L 164.932756 242.429901 
L 166.033228 242.222435 
L 167.133721 242.222435 
L 168.234215 242.642588 
L 169.334708 243.606647 
L 170.435201 243.459408 
L 171.535673 243.775406 
L 172.636166 242.826811 
L 173.73666 243.813361 
L 174.837153 244.302856 
L 175.937646 244.323046 
L 177.038118 243.756505 
L 179.239105 243.889823 
L 180.339598 244.064369 
L 182.540563 243.368678 
L 183.641056 244.242615 
L 184.741549 244.445136 
L 185.842043 244.34327 
L 186.942536 243.332649 
L 188.043008 244.843866 
L 189.143501 244.064369 
L 190.243994 244.162915 
L 191.344488 244.465682 
L 192.444981 243.986347 
L 193.545453 244.694772 
L 194.645946 244.083984 
L 195.746439 244.222616 
L 196.846932 244.222616 
L 197.947426 244.673677 
L 199.047898 244.222616 
L 200.148391 243.477669 
L 201.248884 243.495994 
L 202.349377 244.302856 
L 203.449871 244.383878 
L 204.550343 244.064369 
L 205.650836 244.715905 
L 206.751329 243.794362 
L 210.052788 243.699991 
L 211.153281 244.465682 
L 212.253774 244.908573 
L 213.354267 243.986347 
L 214.45476 244.34327 
L 215.555233 243.889823 
L 216.655726 244.064369 
L 217.756219 244.99562 
L 218.856712 244.282728 
L 219.957205 244.822384 
L 221.057677 244.822384 
L 222.158171 244.123377 
L 223.258664 244.673677 
L 224.359157 243.794362 
L 225.45965 244.694772 
L 226.560122 245.444822 
L 227.660616 244.908573 
L 228.761109 244.527537 
L 229.861602 245.239737 
L 230.962095 244.48625 
L 232.062567 244.88694 
L 234.263554 244.865376 
L 235.364047 243.813361 
L 236.46454 243.909037 
L 237.565012 244.143129 
L 238.665505 244.506869 
L 239.765999 245.750145 
L 240.866492 243.775406 
L 241.966985 244.865376 
L 243.067457 244.162915 
L 244.16795 244.951977 
L 246.368937 245.017518 
L 247.46943 244.908573 
L 249.670395 244.182786 
L 251.871382 244.99562 
L 252.971875 244.302856 
L 254.072347 244.822384 
L 255.17284 244.005782 
L 256.273333 244.302856 
L 258.47432 244.506869 
L 259.574792 245.17246 
L 260.675285 244.383878 
L 261.775778 245.039474 
L 262.876271 244.973763 
L 265.077237 244.282728 
L 266.17773 245.083571 
L 267.278223 244.779637 
L 268.378716 245.846341 
L 269.47921 244.363543 
L 270.579682 244.758344 
L 271.680175 245.537592 
L 272.780668 245.750145 
L 273.881161 245.421791 
L 274.981654 245.262277 
L 276.082127 244.506869 
L 277.18262 244.822384 
L 278.283113 245.398823 
L 279.383606 244.222616 
L 280.484099 245.65503 
L 281.584572 245.375902 
L 282.685065 244.908573 
L 285.986544 244.800983 
L 287.087017 245.307553 
L 288.18751 245.017518 
L 289.288003 244.569041 
L 290.388496 244.610748 
L 291.488989 244.363543 
L 292.589461 245.105699 
L 293.689955 244.54827 
L 294.790448 244.737091 
L 295.890941 244.631673 
L 296.991424 245.017518 
L 298.091917 244.527537 
L 299.1924 244.758344 
L 300.292893 244.758344 
L 302.493869 245.444822 
L 303.594362 244.527537 
L 304.694844 244.610748 
L 305.795338 244.10367 
L 309.096807 246.217155 
L 310.197289 244.822384 
L 311.297783 245.89486 
L 312.398276 244.54827 
L 313.498758 244.908573 
L 314.599252 244.88694 
L 315.699734 245.284878 
L 316.800227 245.99274 
L 319.001203 245.061486 
L 320.101697 245.17246 
L 321.202179 246.52598 
L 322.302672 244.822384 
L 323.403166 245.421791 
L 324.503648 245.330275 
L 325.604141 246.738282 
L 326.704624 244.631673 
L 327.805117 244.48625 
L 328.90561 245.467931 
L 330.006093 246.066891 
L 331.106586 244.54827 
L 332.207069 245.63139 
L 333.307562 244.99562 
L 334.408055 244.569041 
L 335.508538 245.353058 
L 336.609031 244.951977 
L 337.709514 246.293308 
L 338.810007 245.307553 
L 339.9105 244.973763 
L 342.111476 245.262277 
L 343.211959 245.262277 
L 344.312452 245.798098 
L 345.412945 244.527537 
L 346.513428 245.375902 
L 347.613921 245.702446 
L 348.714404 245.239737 
L 349.814897 245.63139 
L 350.91539 245.870557 
L 352.015873 245.943642 
L 353.116366 244.99562 
L 354.216849 244.48625 
L 355.317342 244.694772 
L 356.417835 245.398823 
L 357.518318 244.242615 
L 358.618811 244.465682 
L 359.719294 243.681232 
L 360.819787 244.445136 
L 361.92028 243.947597 
L 363.020763 243.588106 
L 364.121256 243.718779 
L 365.221739 243.084674 
L 366.322232 243.172419 
L 367.422725 241.325732 
L 368.523208 240.112339 
L 370.724183 235.309843 
L 371.824677 232.211064 
L 374.025653 224.587836 
L 378.427615 207.656281 
L 383.930054 186.860752 
L 388.332011 171.034858 
L 393.834456 152.402613 
L 397.135925 141.972247 
L 401.537877 129.093948 
L 404.839346 120.092134 
L 408.140815 111.629581 
L 412.542767 101.137482 
L 415.844236 93.855061 
L 419.145705 87.111911 
L 422.447169 80.971842 
L 425.748638 75.476354 
L 427.949614 72.216698 
L 430.150592 69.312565 
L 432.351571 66.792717 
L 434.552549 64.648639 
L 436.753528 62.881337 
L 438.954504 61.462412 
L 441.155482 60.347027 
L 443.356461 59.48665 
L 445.557439 58.823533 
L 448.858905 58.10798 
L 452.160372 57.624344 
L 456.562329 57.207171 
L 463.165262 56.852032 
L 473.069663 56.600179 
L 489.576998 56.438102 
L 514.888245 56.352941 
L 514.888245 56.352941 
" clip-path="url(#p4c1f8861c9)" style="fill: none; stroke: #d9771f; stroke-width: 1.55; stroke-linecap: square"/>
   </g>
   <g id="line2d_30">
    <path d="M 118.71221 231.269944 
L 119.812704 231.052244 
L 120.913197 231.256982 
L 125.315149 231.52007 
L 127.516114 231.269944 
L 128.616607 231.418253 
L 129.7171 231.256982 
L 130.817593 231.560251 
L 131.918087 231.396279 
L 134.119052 231.400671 
L 140.72199 231.542371 
L 141.822483 231.291593 
L 142.922976 231.645701 
L 147.324928 231.582652 
L 148.425421 231.335057 
L 151.72688 231.654747 
L 153.927866 231.546837 
L 155.028338 231.555778 
L 156.128832 231.453528 
L 159.430311 231.564726 
L 160.530783 231.317643 
L 161.631277 231.422654 
L 162.73177 231.348136 
L 164.932756 231.605119 
L 170.435201 231.405062 
L 171.535673 231.600617 
L 173.73666 231.573686 
L 175.937646 231.339414 
L 180.339598 231.582652 
L 181.440091 231.560251 
L 182.540563 231.335057 
L 185.842043 231.623132 
L 188.043008 231.677401 
L 190.243994 231.141209 
L 191.344488 231.475654 
L 192.444981 231.578168 
L 193.545453 231.511169 
L 194.645946 231.582652 
L 195.746439 231.330698 
L 196.846932 231.226818 
L 197.947426 231.361238 
L 199.047898 231.291593 
L 200.148391 231.718337 
L 201.248884 231.796197 
L 202.349377 231.444699 
L 203.449871 231.52007 
L 204.550343 231.475654 
L 205.650836 231.596123 
L 207.851822 231.564726 
L 210.052788 231.166802 
L 211.153281 231.222513 
L 212.253774 231.533444 
L 218.856712 231.405062 
L 219.957205 231.480085 
L 221.057677 231.317643 
L 222.158171 231.524529 
L 223.258664 231.278598 
L 224.359157 231.466797 
L 228.761109 231.632151 
L 230.962095 231.365615 
L 232.062567 231.308953 
L 234.263554 231.582652 
L 237.565012 231.295928 
L 243.067457 231.600617 
L 244.16795 231.300265 
L 245.268444 231.313297 
L 246.368937 231.546837 
L 247.46943 231.449114 
L 248.569902 231.609618 
L 250.770888 231.400671 
L 251.871382 231.313297 
L 252.971875 231.732025 
L 254.072347 232.937252 
L 255.17284 232.611878 
L 257.373827 230.126993 
L 258.47432 230.774496 
L 259.574792 232.134148 
L 260.675285 232.41655 
L 261.775778 231.654747 
L 262.876271 230.697364 
L 263.976765 230.926753 
L 265.077237 231.70467 
L 266.17773 232.172546 
L 267.278223 231.736592 
L 268.378716 230.794913 
L 269.47921 231.056459 
L 270.579682 231.695571 
L 271.680175 231.768638 
L 272.780668 231.475654 
L 273.881161 231.056459 
L 274.981654 230.856457 
L 276.082127 231.551305 
L 277.18262 231.865502 
L 278.283113 231.614119 
L 279.383606 231.111451 
L 280.484099 230.94338 
L 281.584572 231.488953 
L 283.785558 231.982284 
L 284.886051 231.308953 
L 285.986544 231.132695 
L 287.087017 231.205332 
L 288.18751 231.718337 
L 289.288003 231.842338 
L 290.388496 231.686484 
L 291.488989 231.256982 
L 292.589461 231.196756 
L 293.689955 231.282926 
L 294.790448 231.727458 
L 295.890941 231.453528 
L 298.091917 231.330698 
L 300.292893 231.515618 
L 303.594362 231.278598 
L 306.895831 231.418253 
L 307.996313 231.295928 
L 309.096807 231.361238 
L 311.297783 231.287257 
L 312.398276 231.551305 
L 313.498758 231.317643 
L 314.599252 231.248354 
L 315.699734 231.396279 
L 316.800227 231.361238 
L 317.900721 231.636667 
L 319.001203 231.654747 
L 321.202179 231.352503 
L 322.302672 231.239731 
L 323.403166 231.537908 
L 324.503648 231.537908 
L 325.604141 231.326345 
L 328.90561 231.128442 
L 331.106586 231.502275 
L 333.307562 231.300265 
L 334.408055 231.018599 
L 335.508538 231.175348 
L 336.609031 231.022797 
L 337.709514 231.256982 
L 338.810007 231.235425 
L 343.211959 230.202889 
L 344.312452 229.574917 
L 345.412945 228.714098 
L 346.513428 227.4649 
L 347.613921 225.714179 
L 348.714404 223.536484 
L 349.814897 220.838259 
L 352.015873 214.339733 
L 355.317342 203.058846 
L 361.92028 179.882271 
L 365.221739 168.915646 
L 369.623701 155.171105 
L 374.025653 142.273955 
L 378.427615 130.184671 
L 382.829566 118.830546 
L 387.231523 108.311137 
L 390.532987 100.945533 
L 393.834456 94.06153 
L 397.135925 87.664413 
L 400.437389 81.815024 
L 403.738858 76.536246 
L 405.939834 73.370182 
L 408.140815 70.513798 
L 410.341791 67.993325 
L 412.542767 65.801866 
L 414.743748 63.948913 
L 416.944724 62.418007 
L 419.145705 61.180703 
L 421.346681 60.199224 
L 423.547657 59.424544 
L 426.849126 58.56812 
L 430.150592 57.976273 
L 434.552549 57.456274 
L 440.054994 57.063199 
L 447.758418 56.763926 
L 459.863795 56.548765 
L 470.868685 56.458779 
L 470.868685 56.458779 
" clip-path="url(#p4c1f8861c9)" style="fill: none; stroke: #b85812; stroke-width: 1.55; stroke-linecap: square"/>
   </g>
   <g id="line2d_31">
    <path d="M 74.692651 219.295282 
L 77.99411 219.365999 
L 85.697541 219.479101 
L 86.798013 219.406372 
L 88.998999 219.489849 
L 104.405862 219.404242 
L 107.707321 219.343771 
L 115.410752 219.283728 
L 126.415642 219.287928 
L 134.119052 219.233494 
L 139.621497 219.298436 
L 141.822483 219.250205 
L 153.927866 219.222024 
L 156.128832 219.239757 
L 313.498758 218.987713 
L 316.800227 218.867947 
L 319.001203 218.615902 
L 320.101697 218.370201 
L 321.202179 217.911697 
L 322.302672 217.30635 
L 323.403166 216.388909 
L 324.503648 215.030421 
L 325.604141 213.209215 
L 326.704624 210.942923 
L 327.805117 208.241191 
L 330.006093 201.987378 
L 338.810007 174.948781 
L 343.211959 162.819707 
L 348.714404 148.398764 
L 354.216849 134.476571 
L 359.719294 121.064225 
L 364.121256 110.955581 
L 368.523208 101.519189 
L 371.824677 94.919117 
L 375.126146 88.757982 
L 378.427615 83.092532 
L 381.729073 77.944185 
L 383.930054 74.8272 
L 386.131036 71.987975 
L 388.332011 69.449831 
L 390.532987 67.207752 
L 392.733968 65.274678 
L 394.934944 63.643994 
L 397.135925 62.29668 
L 399.336901 61.206945 
L 401.537877 60.330708 
L 403.738858 59.634241 
L 407.040322 58.853886 
L 410.341791 58.305813 
L 414.743748 57.811757 
L 420.246193 57.430262 
L 427.949614 57.131822 
L 440.054994 56.911162 
L 462.064773 56.766188 
L 470.868685 56.739822 
L 470.868685 56.739822 
" clip-path="url(#p4c1f8861c9)" style="fill: none; stroke: #7a3510; stroke-width: 1.55; stroke-linecap: square"/>
   </g>
   <g id="patch_3">
    <path d="M 46.079937 288.182896 
L 46.079937 42.507986 
" style="fill: none; stroke: #b9c0c7; stroke-width: 0.8; stroke-linejoin: miter; stroke-linecap: square"/>
   </g>
   <g id="patch_4">
    <path d="M 46.079937 288.182896 
L 675.559636 288.182896 
" style="fill: none; stroke: #b9c0c7; stroke-width: 0.8; stroke-linejoin: miter; stroke-linecap: square"/>
   </g>
   <g id="legend_1">
    <g id="text_15">
     <!-- Dose (krad(Si)) -->
     <g style="fill: #343434" transform="translate(333.706037 16.22375) scale(0.08 -0.08)">
      <defs>
       <path id="ArialMT-6b" d="M 425 0 
L 425 4581 
L 988 4581 
L 988 1969 
L 2319 3319 
L 3047 3319 
L 1778 2088 
L 3175 0 
L 2481 0 
L 1384 1697 
L 988 1316 
L 988 0 
L 425 0 
z
" transform="scale(0.015625)"/>
      </defs>
      <use xlink:href="#ArialMT-44"/>
      <use xlink:href="#ArialMT-6f" x="72.216797"/>
      <use xlink:href="#ArialMT-73" x="127.832031"/>
      <use xlink:href="#ArialMT-65" x="177.832031"/>
      <use xlink:href="#ArialMT-20" x="233.447266"/>
      <use xlink:href="#ArialMT-28" x="261.230469"/>
      <use xlink:href="#ArialMT-6b" x="294.53125"/>
      <use xlink:href="#ArialMT-72" x="344.53125"/>
      <use xlink:href="#ArialMT-61" x="377.832031"/>
      <use xlink:href="#ArialMT-64" x="433.447266"/>
      <use xlink:href="#ArialMT-28" x="489.0625"/>
      <use xlink:href="#ArialMT-53" x="522.363281"/>
      <use xlink:href="#ArialMT-69" x="589.0625"/>
      <use xlink:href="#ArialMT-29" x="611.279297"/>
      <use xlink:href="#ArialMT-29" x="644.580078"/>
     </g>
    </g>
    <g id="line2d_32">
     <path d="M 205.502912 24.83375 
L 213.502912 24.83375 
L 221.502912 24.83375 
" style="fill: none; stroke: #fde9d2; stroke-width: 1.55; stroke-linecap: square"/>
    </g>
    <g id="text_16">
     <!-- 0 -->
     <g style="fill: #343434" transform="translate(227.902912 27.63375) scale(0.08 -0.08)">
      <use xlink:href="#ArialMT-30"/>
     </g>
    </g>
    <g id="line2d_33">
     <path d="M 248.351662 24.83375 
L 256.351662 24.83375 
L 264.351662 24.83375 
" style="fill: none; stroke: #f7c98f; stroke-width: 1.55; stroke-linecap: square"/>
    </g>
    <g id="text_17">
     <!-- 10 -->
     <g style="fill: #343434" transform="translate(270.751662 27.63375) scale(0.08 -0.08)">
      <use xlink:href="#ArialMT-31"/>
      <use xlink:href="#ArialMT-30" x="55.615234"/>
     </g>
    </g>
    <g id="line2d_34">
     <path d="M 295.649162 24.83375 
L 303.649162 24.83375 
L 311.649162 24.83375 
" style="fill: none; stroke: #f2ad62; stroke-width: 1.55; stroke-linecap: square"/>
    </g>
    <g id="text_18">
     <!-- 20 -->
     <g style="fill: #343434" transform="translate(318.049162 27.63375) scale(0.08 -0.08)">
      <defs>
       <path id="ArialMT-32" d="M 3222 541 
L 3222 0 
L 194 0 
Q 188 203 259 391 
Q 375 700 629 1000 
Q 884 1300 1366 1694 
Q 2113 2306 2375 2664 
Q 2638 3022 2638 3341 
Q 2638 3675 2398 3904 
Q 2159 4134 1775 4134 
Q 1369 4134 1125 3890 
Q 881 3647 878 3216 
L 300 3275 
Q 359 3922 746 4261 
Q 1134 4600 1788 4600 
Q 2447 4600 2831 4234 
Q 3216 3869 3216 3328 
Q 3216 3053 3103 2787 
Q 2991 2522 2730 2228 
Q 2469 1934 1863 1422 
Q 1356 997 1212 845 
Q 1069 694 975 541 
L 3222 541 
z
" transform="scale(0.015625)"/>
      </defs>
      <use xlink:href="#ArialMT-32"/>
      <use xlink:href="#ArialMT-30" x="55.615234"/>
     </g>
    </g>
    <g id="line2d_35">
     <path d="M 342.946662 24.83375 
L 350.946662 24.83375 
L 358.946662 24.83375 
" style="fill: none; stroke: #e69138; stroke-width: 1.55; stroke-linecap: square"/>
    </g>
    <g id="text_19">
     <!-- 30 -->
     <g style="fill: #343434" transform="translate(365.346662 27.63375) scale(0.08 -0.08)">
      <use xlink:href="#ArialMT-33"/>
      <use xlink:href="#ArialMT-30" x="55.615234"/>
     </g>
    </g>
    <g id="line2d_36">
     <path d="M 390.244162 24.83375 
L 398.244162 24.83375 
L 406.244162 24.83375 
" style="fill: none; stroke: #d9771f; stroke-width: 1.55; stroke-linecap: square"/>
    </g>
    <g id="text_20">
     <!-- 40 -->
     <g style="fill: #343434" transform="translate(412.644162 27.63375) scale(0.08 -0.08)">
      <defs>
       <path id="ArialMT-34" d="M 2069 0 
L 2069 1097 
L 81 1097 
L 81 1613 
L 2172 4581 
L 2631 4581 
L 2631 1613 
L 3250 1613 
L 3250 1097 
L 2631 1097 
L 2631 0 
L 2069 0 
z
M 2069 1613 
L 2069 3678 
L 634 1613 
L 2069 1613 
z
" transform="scale(0.015625)"/>
      </defs>
      <use xlink:href="#ArialMT-34"/>
      <use xlink:href="#ArialMT-30" x="55.615234"/>
     </g>
    </g>
    <g id="line2d_37">
     <path d="M 437.541662 24.83375 
L 445.541662 24.83375 
L 453.541662 24.83375 
" style="fill: none; stroke: #b85812; stroke-width: 1.55; stroke-linecap: square"/>
    </g>
    <g id="text_21">
     <!-- 50 -->
     <g style="fill: #343434" transform="translate(459.941662 27.63375) scale(0.08 -0.08)">
      <use xlink:href="#ArialMT-35"/>
      <use xlink:href="#ArialMT-30" x="55.615234"/>
     </g>
    </g>
    <g id="line2d_38">
     <path d="M 484.839162 24.83375 
L 492.839162 24.83375 
L 500.839162 24.83375 
" style="fill: none; stroke: #7a3510; stroke-width: 1.55; stroke-linecap: square"/>
    </g>
    <g id="text_22">
     <!-- 60 -->
     <g style="fill: #343434" transform="translate(507.239162 27.63375) scale(0.08 -0.08)">
      <defs>
       <path id="ArialMT-36" d="M 3184 3459 
L 2625 3416 
Q 2550 3747 2413 3897 
Q 2184 4138 1850 4138 
Q 1581 4138 1378 3988 
Q 1113 3794 959 3422 
Q 806 3050 800 2363 
Q 1003 2672 1297 2822 
Q 1591 2972 1913 2972 
Q 2475 2972 2870 2558 
Q 3266 2144 3266 1488 
Q 3266 1056 3080 686 
Q 2894 316 2569 119 
Q 2244 -78 1831 -78 
Q 1128 -78 684 439 
Q 241 956 241 2144 
Q 241 3472 731 4075 
Q 1159 4600 1884 4600 
Q 2425 4600 2770 4297 
Q 3116 3994 3184 3459 
z
M 888 1484 
Q 888 1194 1011 928 
Q 1134 663 1356 523 
Q 1578 384 1822 384 
Q 2178 384 2434 671 
Q 2691 959 2691 1453 
Q 2691 1928 2437 2201 
Q 2184 2475 1800 2475 
Q 1419 2475 1153 2201 
Q 888 1928 888 1484 
z
" transform="scale(0.015625)"/>
      </defs>
      <use xlink:href="#ArialMT-36"/>
      <use xlink:href="#ArialMT-30" x="55.615234"/>
     </g>
    </g>
   </g>
  </g>
 </g>
 <defs>
  <clipPath id="p4c1f8861c9">
   <rect x="46.079937" y="42.507986" width="629.479699" height="245.67491"/>
  </clipPath>
 </defs>
</svg>
