<?xml version="1.0" encoding="utf-8" standalone="no"?>
<!DOCTYPE svg PUBLIC "-//W3C//DTD SVG 1.1//EN"
  "http://www.w3.org/Graphics/SVG/1.1/DTD/svg11.dtd">
<svg xmlns:xlink="http://www.w3.org/1999/xlink" width="682.759636pt" height="322.327989pt" viewBox="0 0 682.759636 322.327989" xmlns="http://www.w3.org/2000/svg" version="1.1">
 <metadata>
  <rdf:RDF xmlns:dc="http://purl.org/dc/elements/1.1/" xmlns:cc="http://creativecommons.org/ns#" xmlns:rdf="http://www.w3.org/1999/02/22-rdf-syntax-ns#">
   <cc:Work>
    <dc:type rdf:resource="http://purl.org/dc/dcmitype/StillImage"/>
    <dc:date>2026-07-22T19:01:05.966755</dc:date>
    <dc:format>image/svg+xml</dc:format>
    <dc:creator>
     <cc:Agent>
      <dc:title>Matplotlib v3.9.2, https://matplotlib.org/</dc:title>
     </cc:Agent>
    </dc:creator>
   </cc:Work>
  </rdf:RDF>
 </metadata>
 <defs>
  <style type="text/css">*{stroke-linejoin: round; stroke-linecap: butt}</style>
 </defs>
 <g id="figure_1">
  <g id="patch_1">
   <path d="M 0 322.327989 
L 682.759636 322.327989 
L 682.759636 0 
L 0 0 
z
" style="fill: #ffffff"/>
  </g>
  <g id="axes_1">
   <g id="patch_2">
    <path d="M 46.079937 288.182896 
L 675.559636 288.182896 
L 675.559636 42.507986 
L 46.079937 42.507986 
z
" style="fill: #ffffff"/>
   </g>
   <g id="matplotlib.axis_1">
    <g id="xtick_1">
     <g id="line2d_1">
      <path d="M 140.72199 288.182896 
L 140.72199 42.507986 
" clip-path="url(#p1604c2f93a)" style="fill: none; stroke: #d9dee3; stroke-opacity: 0.75; stroke-width: 0.65; stroke-linecap: square"/>
     </g>
     <g id="line2d_2">
      <defs>
       <path id="m607ca03727" d="M 0 0 
L 0 3.5 
" style="stroke: #666666; stroke-width: 0.8"/>
      </defs>
      <g>
       <use xlink:href="#m607ca03727" x="140.72199" y="288.182896" style="fill: #666666; stroke: #666666; stroke-width: 0.8"/>
      </g>
     </g>
     <g id="text_1">
      <!-- -15 -->
      <g style="fill: #666666" transform="translate(134.796849 301.052302) scale(0.082 -0.082)">
       <defs>
        <path id="ArialMT-2d" d="M 203 1375 
L 203 1941 
L 1931 1941 
L 1931 1375 
L 203 1375 
z
" transform="scale(0.015625)"/>
        <path id="ArialMT-31" d="M 2384 0 
L 1822 0 
L 1822 3584 
Q 1619 3391 1289 3197 
Q 959 3003 697 2906 
L 697 3450 
Q 1169 3672 1522 3987 
Q 1875 4303 2022 4600 
L 2384 4600 
L 2384 0 
z
" transform="scale(0.015625)"/>
        <path id="ArialMT-35" d="M 266 1200 
L 856 1250 
Q 922 819 1161 601 
Q 1400 384 1738 384 
Q 2144 384 2425 690 
Q 2706 997 2706 1503 
Q 2706 1984 2436 2262 
Q 2166 2541 1728 2541 
Q 1456 2541 1237 2417 
Q 1019 2294 894 2097 
L 366 2166 
L 809 4519 
L 3088 4519 
L 3088 3981 
L 1259 3981 
L 1013 2750 
Q 1425 3038 1878 3038 
Q 2478 3038 2890 2622 
Q 3303 2206 3303 1553 
Q 3303 931 2941 478 
Q 2500 -78 1738 -78 
Q 1113 -78 717 272 
Q 322 622 266 1200 
z
" transform="scale(0.015625)"/>
       </defs>
       <use xlink:href="#ArialMT-2d"/>
       <use xlink:href="#ArialMT-31" x="33.300781"/>
       <use xlink:href="#ArialMT-35" x="88.916016"/>
      </g>
     </g>
    </g>
    <g id="xtick_2">
     <g id="line2d_3">
      <path d="M 250.770888 288.182896 
L 250.770888 42.507986 
" clip-path="url(#p1604c2f93a)" style="fill: none; stroke: #d9dee3; stroke-opacity: 0.75; stroke-width: 0.65; stroke-linecap: square"/>
     </g>
     <g id="line2d_4">
      <g>
       <use xlink:href="#m607ca03727" x="250.770888" y="288.182896" style="fill: #666666; stroke: #666666; stroke-width: 0.8"/>
      </g>
     </g>
     <g id="text_2">
      <!-- -10 -->
      <g style="fill: #666666" transform="translate(244.845748 301.052302) scale(0.082 -0.082)">
       <defs>
        <path id="ArialMT-30" d="M 266 2259 
Q 266 3072 433 3567 
Q 600 4063 929 4331 
Q 1259 4600 1759 4600 
Q 2128 4600 2406 4451 
Q 2684 4303 2865 4023 
Q 3047 3744 3150 3342 
Q 3253 2941 3253 2259 
Q 3253 1453 3087 958 
Q 2922 463 2592 192 
Q 2263 -78 1759 -78 
Q 1097 -78 719 397 
Q 266 969 266 2259 
z
M 844 2259 
Q 844 1131 1108 757 
Q 1372 384 1759 384 
Q 2147 384 2411 759 
Q 2675 1134 2675 2259 
Q 2675 3391 2411 3762 
Q 2147 4134 1753 4134 
Q 1366 4134 1134 3806 
Q 844 3388 844 2259 
z
" transform="scale(0.015625)"/>
       </defs>
       <use xlink:href="#ArialMT-2d"/>
       <use xlink:href="#ArialMT-31" x="33.300781"/>
       <use xlink:href="#ArialMT-30" x="88.916016"/>
      </g>
     </g>
    </g>
    <g id="xtick_3">
     <g id="line2d_5">
      <path d="M 360.819787 288.182896 
L 360.819787 42.507986 
" clip-path="url(#p1604c2f93a)" style="fill: none; stroke: #d9dee3; stroke-opacity: 0.75; stroke-width: 0.65; stroke-linecap: square"/>
     </g>
     <g id="line2d_6">
      <g>
       <use xlink:href="#m607ca03727" x="360.819787" y="288.182896" style="fill: #666666; stroke: #666666; stroke-width: 0.8"/>
      </g>
     </g>
     <g id="text_3">
      <!-- -5 -->
      <g style="fill: #666666" transform="translate(357.174631 301.052302) scale(0.082 -0.082)">
       <use xlink:href="#ArialMT-2d"/>
       <use xlink:href="#ArialMT-35" x="33.300781"/>
      </g>
     </g>
    </g>
    <g id="xtick_4">
     <g id="line2d_7">
      <path d="M 470.868685 288.182896 
L 470.868685 42.507986 
" clip-path="url(#p1604c2f93a)" style="fill: none; stroke: #d9dee3; stroke-opacity: 0.75; stroke-width: 0.65; stroke-linecap: square"/>
     </g>
     <g id="line2d_8">
      <g>
       <use xlink:href="#m607ca03727" x="470.868685" y="288.182896" style="fill: #666666; stroke: #666666; stroke-width: 0.8"/>
      </g>
     </g>
     <g id="text_4">
      <!-- 0 -->
      <g style="fill: #666666" transform="translate(468.588701 301.052302) scale(0.082 -0.082)">
       <use xlink:href="#ArialMT-30"/>
      </g>
     </g>
    </g>
    <g id="xtick_5">
     <g id="line2d_9">
      <path d="M 580.917584 288.182896 
L 580.917584 42.507986 
" clip-path="url(#p1604c2f93a)" style="fill: none; stroke: #d9dee3; stroke-opacity: 0.75; stroke-width: 0.65; stroke-linecap: square"/>
     </g>
     <g id="line2d_10">
      <g>
       <use xlink:href="#m607ca03727" x="580.917584" y="288.182896" style="fill: #666666; stroke: #666666; stroke-width: 0.8"/>
      </g>
     </g>
     <g id="text_5">
      <!-- 5 -->
      <g style="fill: #666666" transform="translate(578.637599 301.052302) scale(0.082 -0.082)">
       <use xlink:href="#ArialMT-35"/>
      </g>
     </g>
    </g>
    <g id="text_6">
     <!-- Gate voltage, VGS (V) -->
     <g style="fill: #666666" transform="translate(316.052521 313.233771) scale(0.09 -0.09)">
      <defs>
       <path id="ArialMT-47" d="M 2638 1797 
L 2638 2334 
L 4578 2338 
L 4578 638 
Q 4131 281 3656 101 
Q 3181 -78 2681 -78 
Q 2006 -78 1454 211 
Q 903 500 622 1047 
Q 341 1594 341 2269 
Q 341 2938 620 3517 
Q 900 4097 1425 4378 
Q 1950 4659 2634 4659 
Q 3131 4659 3532 4498 
Q 3934 4338 4162 4050 
Q 4391 3763 4509 3300 
L 3963 3150 
Q 3859 3500 3706 3700 
Q 3553 3900 3268 4020 
Q 2984 4141 2638 4141 
Q 2222 4141 1919 4014 
Q 1616 3888 1430 3681 
Q 1244 3475 1141 3228 
Q 966 2803 966 2306 
Q 966 1694 1177 1281 
Q 1388 869 1791 669 
Q 2194 469 2647 469 
Q 3041 469 3416 620 
Q 3791 772 3984 944 
L 3984 1797 
L 2638 1797 
z
" transform="scale(0.015625)"/>
       <path id="ArialMT-61" d="M 2588 409 
Q 2275 144 1986 34 
Q 1697 -75 1366 -75 
Q 819 -75 525 192 
Q 231 459 231 875 
Q 231 1119 342 1320 
Q 453 1522 633 1644 
Q 813 1766 1038 1828 
Q 1203 1872 1538 1913 
Q 2219 1994 2541 2106 
Q 2544 2222 2544 2253 
Q 2544 2597 2384 2738 
Q 2169 2928 1744 2928 
Q 1347 2928 1158 2789 
Q 969 2650 878 2297 
L 328 2372 
Q 403 2725 575 2942 
Q 747 3159 1072 3276 
Q 1397 3394 1825 3394 
Q 2250 3394 2515 3294 
Q 2781 3194 2906 3042 
Q 3031 2891 3081 2659 
Q 3109 2516 3109 2141 
L 3109 1391 
Q 3109 606 3145 398 
Q 3181 191 3288 0 
L 2700 0 
Q 2613 175 2588 409 
z
M 2541 1666 
Q 2234 1541 1622 1453 
Q 1275 1403 1131 1340 
Q 988 1278 909 1158 
Q 831 1038 831 891 
Q 831 666 1001 516 
Q 1172 366 1500 366 
Q 1825 366 2078 508 
Q 2331 650 2450 897 
Q 2541 1088 2541 1459 
L 2541 1666 
z
" transform="scale(0.015625)"/>
       <path id="ArialMT-74" d="M 1650 503 
L 1731 6 
Q 1494 -44 1306 -44 
Q 1000 -44 831 53 
Q 663 150 594 308 
Q 525 466 525 972 
L 525 2881 
L 113 2881 
L 113 3319 
L 525 3319 
L 525 4141 
L 1084 4478 
L 1084 3319 
L 1650 3319 
L 1650 2881 
L 1084 2881 
L 1084 941 
Q 1084 700 1114 631 
Q 1144 563 1211 522 
Q 1278 481 1403 481 
Q 1497 481 1650 503 
z
" transform="scale(0.015625)"/>
       <path id="ArialMT-65" d="M 2694 1069 
L 3275 997 
Q 3138 488 2766 206 
Q 2394 -75 1816 -75 
Q 1088 -75 661 373 
Q 234 822 234 1631 
Q 234 2469 665 2931 
Q 1097 3394 1784 3394 
Q 2450 3394 2872 2941 
Q 3294 2488 3294 1666 
Q 3294 1616 3291 1516 
L 816 1516 
Q 847 969 1125 678 
Q 1403 388 1819 388 
Q 2128 388 2347 550 
Q 2566 713 2694 1069 
z
M 847 1978 
L 2700 1978 
Q 2663 2397 2488 2606 
Q 2219 2931 1791 2931 
Q 1403 2931 1139 2672 
Q 875 2413 847 1978 
z
" transform="scale(0.015625)"/>
       <path id="ArialMT-20" transform="scale(0.015625)"/>
       <path id="ArialMT-76" d="M 1344 0 
L 81 3319 
L 675 3319 
L 1388 1331 
Q 1503 1009 1600 663 
Q 1675 925 1809 1294 
L 2547 3319 
L 3125 3319 
L 1869 0 
L 1344 0 
z
" transform="scale(0.015625)"/>
       <path id="ArialMT-6f" d="M 213 1659 
Q 213 2581 725 3025 
Q 1153 3394 1769 3394 
Q 2453 3394 2887 2945 
Q 3322 2497 3322 1706 
Q 3322 1066 3130 698 
Q 2938 331 2570 128 
Q 2203 -75 1769 -75 
Q 1072 -75 642 372 
Q 213 819 213 1659 
z
M 791 1659 
Q 791 1022 1069 705 
Q 1347 388 1769 388 
Q 2188 388 2466 706 
Q 2744 1025 2744 1678 
Q 2744 2294 2464 2611 
Q 2184 2928 1769 2928 
Q 1347 2928 1069 2612 
Q 791 2297 791 1659 
z
" transform="scale(0.015625)"/>
       <path id="ArialMT-6c" d="M 409 0 
L 409 4581 
L 972 4581 
L 972 0 
L 409 0 
z
" transform="scale(0.015625)"/>
       <path id="ArialMT-67" d="M 319 -275 
L 866 -356 
Q 900 -609 1056 -725 
Q 1266 -881 1628 -881 
Q 2019 -881 2231 -725 
Q 2444 -569 2519 -288 
Q 2563 -116 2559 434 
Q 2191 0 1641 0 
Q 956 0 581 494 
Q 206 988 206 1678 
Q 206 2153 378 2554 
Q 550 2956 876 3175 
Q 1203 3394 1644 3394 
Q 2231 3394 2613 2919 
L 2613 3319 
L 3131 3319 
L 3131 450 
Q 3131 -325 2973 -648 
Q 2816 -972 2473 -1159 
Q 2131 -1347 1631 -1347 
Q 1038 -1347 672 -1080 
Q 306 -813 319 -275 
z
M 784 1719 
Q 784 1066 1043 766 
Q 1303 466 1694 466 
Q 2081 466 2343 764 
Q 2606 1063 2606 1700 
Q 2606 2309 2336 2618 
Q 2066 2928 1684 2928 
Q 1309 2928 1046 2623 
Q 784 2319 784 1719 
z
" transform="scale(0.015625)"/>
       <path id="ArialMT-2c" d="M 569 0 
L 569 641 
L 1209 641 
L 1209 0 
Q 1209 -353 1084 -570 
Q 959 -788 688 -906 
L 531 -666 
Q 709 -588 793 -436 
Q 878 -284 888 0 
L 569 0 
z
" transform="scale(0.015625)"/>
       <path id="ArialMT-56" d="M 1803 0 
L 28 4581 
L 684 4581 
L 1875 1253 
Q 2019 853 2116 503 
Q 2222 878 2363 1253 
L 3600 4581 
L 4219 4581 
L 2425 0 
L 1803 0 
z
" transform="scale(0.015625)"/>
       <path id="ArialMT-53" d="M 288 1472 
L 859 1522 
Q 900 1178 1048 958 
Q 1197 738 1509 602 
Q 1822 466 2213 466 
Q 2559 466 2825 569 
Q 3091 672 3220 851 
Q 3350 1031 3350 1244 
Q 3350 1459 3225 1620 
Q 3100 1781 2813 1891 
Q 2628 1963 1997 2114 
Q 1366 2266 1113 2400 
Q 784 2572 623 2826 
Q 463 3081 463 3397 
Q 463 3744 659 4045 
Q 856 4347 1234 4503 
Q 1613 4659 2075 4659 
Q 2584 4659 2973 4495 
Q 3363 4331 3572 4012 
Q 3781 3694 3797 3291 
L 3216 3247 
Q 3169 3681 2898 3903 
Q 2628 4125 2100 4125 
Q 1550 4125 1298 3923 
Q 1047 3722 1047 3438 
Q 1047 3191 1225 3031 
Q 1400 2872 2139 2705 
Q 2878 2538 3153 2413 
Q 3553 2228 3743 1945 
Q 3934 1663 3934 1294 
Q 3934 928 3725 604 
Q 3516 281 3123 101 
Q 2731 -78 2241 -78 
Q 1619 -78 1198 103 
Q 778 284 539 648 
Q 300 1013 288 1472 
z
" transform="scale(0.015625)"/>
       <path id="ArialMT-28" d="M 1497 -1347 
Q 1031 -759 709 28 
Q 388 816 388 1659 
Q 388 2403 628 3084 
Q 909 3875 1497 4659 
L 1900 4659 
Q 1522 4009 1400 3731 
Q 1209 3300 1100 2831 
Q 966 2247 966 1656 
Q 966 153 1900 -1347 
L 1497 -1347 
z
" transform="scale(0.015625)"/>
       <path id="ArialMT-29" d="M 791 -1347 
L 388 -1347 
Q 1322 153 1322 1656 
Q 1322 2244 1188 2822 
Q 1081 3291 891 3722 
Q 769 4003 388 4659 
L 791 4659 
Q 1378 3875 1659 3084 
Q 1900 2403 1900 1659 
Q 1900 816 1576 28 
Q 1253 -759 791 -1347 
z
" transform="scale(0.015625)"/>
      </defs>
      <use xlink:href="#ArialMT-47"/>
      <use xlink:href="#ArialMT-61" x="77.783203"/>
      <use xlink:href="#ArialMT-74" x="133.398438"/>
      <use xlink:href="#ArialMT-65" x="161.181641"/>
      <use xlink:href="#ArialMT-20" x="216.796875"/>
      <use xlink:href="#ArialMT-76" x="244.580078"/>
      <use xlink:href="#ArialMT-6f" x="294.580078"/>
      <use xlink:href="#ArialMT-6c" x="350.195312"/>
      <use xlink:href="#ArialMT-74" x="372.412109"/>
      <use xlink:href="#ArialMT-61" x="400.195312"/>
      <use xlink:href="#ArialMT-67" x="455.810547"/>
      <use xlink:href="#ArialMT-65" x="511.425781"/>
      <use xlink:href="#ArialMT-2c" x="567.041016"/>
      <use xlink:href="#ArialMT-20" x="594.824219"/>
      <use xlink:href="#ArialMT-56" x="622.607422"/>
      <use xlink:href="#ArialMT-47" x="689.306641"/>
      <use xlink:href="#ArialMT-53" x="767.089844"/>
      <use xlink:href="#ArialMT-20" x="833.789062"/>
      <use xlink:href="#ArialMT-28" x="861.572266"/>
      <use xlink:href="#ArialMT-56" x="894.873047"/>
      <use xlink:href="#ArialMT-29" x="961.572266"/>
     </g>
    </g>
   </g>
   <g id="matplotlib.axis_2">
    <g id="ytick_1">
     <g id="line2d_11">
      <path d="M 46.079937 288.182896 
L 675.559636 288.182896 
" clip-path="url(#p1604c2f93a)" style="fill: none; stroke: #d9dee3; stroke-opacity: 0.75; stroke-width: 0.65; stroke-linecap: square"/>
     </g>
     <g id="line2d_12">
      <defs>
       <path id="mbb9c61d609" d="M 0 0 
L -3.5 0 
" style="stroke: #666666; stroke-width: 0.8"/>
      </defs>
      <g>
       <use xlink:href="#mbb9c61d609" x="46.079937" y="288.182896" style="fill: #666666; stroke: #666666; stroke-width: 0.8"/>
      </g>
     </g>
     <g id="text_7">
      <!-- $\mathdefault{10^{-13}}$ -->
      <g style="fill: #666666" transform="translate(19.645938 292.411021) scale(0.082 -0.082)">
       <defs>
        <path id="ArialMT-2212" d="M 3381 1997 
L 356 1997 
L 356 2522 
L 3381 2522 
L 3381 1997 
z
" transform="scale(0.015625)"/>
        <path id="ArialMT-33" d="M 269 1209 
L 831 1284 
Q 928 806 1161 595 
Q 1394 384 1728 384 
Q 2125 384 2398 659 
Q 2672 934 2672 1341 
Q 2672 1728 2419 1979 
Q 2166 2231 1775 2231 
Q 1616 2231 1378 2169 
L 1441 2663 
Q 1497 2656 1531 2656 
Q 1891 2656 2178 2843 
Q 2466 3031 2466 3422 
Q 2466 3731 2256 3934 
Q 2047 4138 1716 4138 
Q 1388 4138 1169 3931 
Q 950 3725 888 3313 
L 325 3413 
Q 428 3978 793 4289 
Q 1159 4600 1703 4600 
Q 2078 4600 2393 4439 
Q 2709 4278 2876 4000 
Q 3044 3722 3044 3409 
Q 3044 3113 2884 2869 
Q 2725 2625 2413 2481 
Q 2819 2388 3044 2092 
Q 3269 1797 3269 1353 
Q 3269 753 2831 336 
Q 2394 -81 1725 -81 
Q 1122 -81 723 278 
Q 325 638 269 1209 
z
" transform="scale(0.015625)"/>
       </defs>
       <use xlink:href="#ArialMT-31" transform="translate(0 0.99375)"/>
       <use xlink:href="#ArialMT-30" transform="translate(55.615234 0.99375)"/>
       <use xlink:href="#ArialMT-2212" transform="translate(112.972813 70.6875) scale(0.7)"/>
       <use xlink:href="#ArialMT-31" transform="translate(153.851719 70.6875) scale(0.7)"/>
       <use xlink:href="#ArialMT-33" transform="translate(192.782383 70.6875) scale(0.7)"/>
      </g>
     </g>
    </g>
    <g id="ytick_2">
     <g id="line2d_13">
      <path d="M 46.079937 249.193253 
L 675.559636 249.193253 
" clip-path="url(#p1604c2f93a)" style="fill: none; stroke: #d9dee3; stroke-opacity: 0.75; stroke-width: 0.65; stroke-linecap: square"/>
     </g>
     <g id="line2d_14">
      <g>
       <use xlink:href="#mbb9c61d609" x="46.079937" y="249.193253" style="fill: #666666; stroke: #666666; stroke-width: 0.8"/>
      </g>
     </g>
     <g id="text_8">
      <!-- $\mathdefault{10^{-11}}$ -->
      <g style="fill: #666666" transform="translate(19.645938 253.421378) scale(0.082 -0.082)">
       <use xlink:href="#ArialMT-31" transform="translate(0 0.99375)"/>
       <use xlink:href="#ArialMT-30" transform="translate(55.615234 0.99375)"/>
       <use xlink:href="#ArialMT-2212" transform="translate(112.972813 70.6875) scale(0.7)"/>
       <use xlink:href="#ArialMT-31" transform="translate(153.851719 70.6875) scale(0.7)"/>
       <use xlink:href="#ArialMT-31" transform="translate(192.782383 70.6875) scale(0.7)"/>
      </g>
     </g>
    </g>
    <g id="ytick_3">
     <g id="line2d_15">
      <path d="M 46.079937 210.20361 
L 675.559636 210.20361 
" clip-path="url(#p1604c2f93a)" style="fill: none; stroke: #d9dee3; stroke-opacity: 0.75; stroke-width: 0.65; stroke-linecap: square"/>
     </g>
     <g id="line2d_16">
      <g>
       <use xlink:href="#mbb9c61d609" x="46.079937" y="210.20361" style="fill: #666666; stroke: #666666; stroke-width: 0.8"/>
      </g>
     </g>
     <g id="text_9">
      <!-- $\mathdefault{10^{-9}}$ -->
      <g style="fill: #666666" transform="translate(22.843938 214.431735) scale(0.082 -0.082)">
       <defs>
        <path id="ArialMT-39" d="M 350 1059 
L 891 1109 
Q 959 728 1153 556 
Q 1347 384 1650 384 
Q 1909 384 2104 503 
Q 2300 622 2425 820 
Q 2550 1019 2634 1356 
Q 2719 1694 2719 2044 
Q 2719 2081 2716 2156 
Q 2547 1888 2255 1720 
Q 1963 1553 1622 1553 
Q 1053 1553 659 1965 
Q 266 2378 266 3053 
Q 266 3750 677 4175 
Q 1088 4600 1706 4600 
Q 2153 4600 2523 4359 
Q 2894 4119 3086 3673 
Q 3278 3228 3278 2384 
Q 3278 1506 3087 986 
Q 2897 466 2520 194 
Q 2144 -78 1638 -78 
Q 1100 -78 759 220 
Q 419 519 350 1059 
z
M 2653 3081 
Q 2653 3566 2395 3850 
Q 2138 4134 1775 4134 
Q 1400 4134 1122 3828 
Q 844 3522 844 3034 
Q 844 2597 1108 2323 
Q 1372 2050 1759 2050 
Q 2150 2050 2401 2323 
Q 2653 2597 2653 3081 
z
" transform="scale(0.015625)"/>
       </defs>
       <use xlink:href="#ArialMT-31" transform="translate(0 0.99375)"/>
       <use xlink:href="#ArialMT-30" transform="translate(55.615234 0.99375)"/>
       <use xlink:href="#ArialMT-2212" transform="translate(112.972813 70.6875) scale(0.7)"/>
       <use xlink:href="#ArialMT-39" transform="translate(153.851719 70.6875) scale(0.7)"/>
      </g>
     </g>
    </g>
    <g id="ytick_4">
     <g id="line2d_17">
      <path d="M 46.079937 171.213967 
L 675.559636 171.213967 
" clip-path="url(#p1604c2f93a)" style="fill: none; stroke: #d9dee3; stroke-opacity: 0.75; stroke-width: 0.65; stroke-linecap: square"/>
     </g>
     <g id="line2d_18">
      <g>
       <use xlink:href="#mbb9c61d609" x="46.079937" y="171.213967" style="fill: #666666; stroke: #666666; stroke-width: 0.8"/>
      </g>
     </g>
     <g id="text_10">
      <!-- $\mathdefault{10^{-7}}$ -->
      <g style="fill: #666666" transform="translate(22.843938 175.401092) scale(0.082 -0.082)">
       <defs>
        <path id="ArialMT-37" d="M 303 3981 
L 303 4522 
L 3269 4522 
L 3269 4084 
Q 2831 3619 2401 2847 
Q 1972 2075 1738 1259 
Q 1569 684 1522 0 
L 944 0 
Q 953 541 1156 1306 
Q 1359 2072 1739 2783 
Q 2119 3494 2547 3981 
L 303 3981 
z
" transform="scale(0.015625)"/>
       </defs>
       <use xlink:href="#ArialMT-31" transform="translate(0 0.846875)"/>
       <use xlink:href="#ArialMT-30" transform="translate(55.615234 0.846875)"/>
       <use xlink:href="#ArialMT-2212" transform="translate(112.972813 70.540625) scale(0.7)"/>
       <use xlink:href="#ArialMT-37" transform="translate(153.851719 70.540625) scale(0.7)"/>
      </g>
     </g>
    </g>
    <g id="ytick_5">
     <g id="line2d_19">
      <path d="M 46.079937 132.224324 
L 675.559636 132.224324 
" clip-path="url(#p1604c2f93a)" style="fill: none; stroke: #d9dee3; stroke-opacity: 0.75; stroke-width: 0.65; stroke-linecap: square"/>
     </g>
     <g id="line2d_20">
      <g>
       <use xlink:href="#mbb9c61d609" x="46.079937" y="132.224324" style="fill: #666666; stroke: #666666; stroke-width: 0.8"/>
      </g>
     </g>
     <g id="text_11">
      <!-- $\mathdefault{10^{-5}}$ -->
      <g style="fill: #666666" transform="translate(22.843938 136.411449) scale(0.082 -0.082)">
       <use xlink:href="#ArialMT-31" transform="translate(0 0.879688)"/>
       <use xlink:href="#ArialMT-30" transform="translate(55.615234 0.879688)"/>
       <use xlink:href="#ArialMT-2212" transform="translate(112.972813 70.573438) scale(0.7)"/>
       <use xlink:href="#ArialMT-35" transform="translate(153.851719 70.573438) scale(0.7)"/>
      </g>
     </g>
    </g>
    <g id="ytick_6">
     <g id="line2d_21">
      <path d="M 46.079937 93.234681 
L 675.559636 93.234681 
" clip-path="url(#p1604c2f93a)" style="fill: none; stroke: #d9dee3; stroke-opacity: 0.75; stroke-width: 0.65; stroke-linecap: square"/>
     </g>
     <g id="line2d_22">
      <g>
       <use xlink:href="#mbb9c61d609" x="46.079937" y="93.234681" style="fill: #666666; stroke: #666666; stroke-width: 0.8"/>
      </g>
     </g>
     <g id="text_12">
      <!-- $\mathdefault{10^{-3}}$ -->
      <g style="fill: #666666" transform="translate(22.843938 97.462806) scale(0.082 -0.082)">
       <use xlink:href="#ArialMT-31" transform="translate(0 0.99375)"/>
       <use xlink:href="#ArialMT-30" transform="translate(55.615234 0.99375)"/>
       <use xlink:href="#ArialMT-2212" transform="translate(112.972813 70.6875) scale(0.7)"/>
       <use xlink:href="#ArialMT-33" transform="translate(153.851719 70.6875) scale(0.7)"/>
      </g>
     </g>
    </g>
    <g id="ytick_7">
     <g id="line2d_23">
      <path d="M 46.079937 54.245038 
L 675.559636 54.245038 
" clip-path="url(#p1604c2f93a)" style="fill: none; stroke: #d9dee3; stroke-opacity: 0.75; stroke-width: 0.65; stroke-linecap: square"/>
     </g>
     <g id="line2d_24">
      <g>
       <use xlink:href="#mbb9c61d609" x="46.079937" y="54.245038" style="fill: #666666; stroke: #666666; stroke-width: 0.8"/>
      </g>
     </g>
     <g id="text_13">
      <!-- $\mathdefault{10^{-1}}$ -->
      <g style="fill: #666666" transform="translate(22.843938 58.473163) scale(0.082 -0.082)">
       <use xlink:href="#ArialMT-31" transform="translate(0 0.99375)"/>
       <use xlink:href="#ArialMT-30" transform="translate(55.615234 0.99375)"/>
       <use xlink:href="#ArialMT-2212" transform="translate(112.972813 70.6875) scale(0.7)"/>
       <use xlink:href="#ArialMT-31" transform="translate(153.851719 70.6875) scale(0.7)"/>
      </g>
     </g>
    </g>
    <g id="text_14">
     <!-- Absolute drain current, |ID| (A) -->
     <g style="fill: #666666" transform="translate(13.751719 225.954112) rotate(-90) scale(0.09 -0.09)">
      <defs>
       <path id="ArialMT-41" d="M -9 0 
L 1750 4581 
L 2403 4581 
L 4278 0 
L 3588 0 
L 3053 1388 
L 1138 1388 
L 634 0 
L -9 0 
z
M 1313 1881 
L 2866 1881 
L 2388 3150 
Q 2169 3728 2063 4100 
Q 1975 3659 1816 3225 
L 1313 1881 
z
" transform="scale(0.015625)"/>
       <path id="ArialMT-62" d="M 941 0 
L 419 0 
L 419 4581 
L 981 4581 
L 981 2947 
Q 1338 3394 1891 3394 
Q 2197 3394 2470 3270 
Q 2744 3147 2920 2923 
Q 3097 2700 3197 2384 
Q 3297 2069 3297 1709 
Q 3297 856 2875 390 
Q 2453 -75 1863 -75 
Q 1275 -75 941 416 
L 941 0 
z
M 934 1684 
Q 934 1088 1097 822 
Q 1363 388 1816 388 
Q 2184 388 2453 708 
Q 2722 1028 2722 1663 
Q 2722 2313 2464 2622 
Q 2206 2931 1841 2931 
Q 1472 2931 1203 2611 
Q 934 2291 934 1684 
z
" transform="scale(0.015625)"/>
       <path id="ArialMT-73" d="M 197 991 
L 753 1078 
Q 800 744 1014 566 
Q 1228 388 1613 388 
Q 2000 388 2187 545 
Q 2375 703 2375 916 
Q 2375 1106 2209 1216 
Q 2094 1291 1634 1406 
Q 1016 1563 777 1677 
Q 538 1791 414 1992 
Q 291 2194 291 2438 
Q 291 2659 392 2848 
Q 494 3038 669 3163 
Q 800 3259 1026 3326 
Q 1253 3394 1513 3394 
Q 1903 3394 2198 3281 
Q 2494 3169 2634 2976 
Q 2775 2784 2828 2463 
L 2278 2388 
Q 2241 2644 2061 2787 
Q 1881 2931 1553 2931 
Q 1166 2931 1000 2803 
Q 834 2675 834 2503 
Q 834 2394 903 2306 
Q 972 2216 1119 2156 
Q 1203 2125 1616 2013 
Q 2213 1853 2448 1751 
Q 2684 1650 2818 1456 
Q 2953 1263 2953 975 
Q 2953 694 2789 445 
Q 2625 197 2315 61 
Q 2006 -75 1616 -75 
Q 969 -75 630 194 
Q 291 463 197 991 
z
" transform="scale(0.015625)"/>
       <path id="ArialMT-75" d="M 2597 0 
L 2597 488 
Q 2209 -75 1544 -75 
Q 1250 -75 995 37 
Q 741 150 617 320 
Q 494 491 444 738 
Q 409 903 409 1263 
L 409 3319 
L 972 3319 
L 972 1478 
Q 972 1038 1006 884 
Q 1059 663 1231 536 
Q 1403 409 1656 409 
Q 1909 409 2131 539 
Q 2353 669 2445 892 
Q 2538 1116 2538 1541 
L 2538 3319 
L 3100 3319 
L 3100 0 
L 2597 0 
z
" transform="scale(0.015625)"/>
       <path id="ArialMT-64" d="M 2575 0 
L 2575 419 
Q 2259 -75 1647 -75 
Q 1250 -75 917 144 
Q 584 363 401 755 
Q 219 1147 219 1656 
Q 219 2153 384 2558 
Q 550 2963 881 3178 
Q 1213 3394 1622 3394 
Q 1922 3394 2156 3267 
Q 2391 3141 2538 2938 
L 2538 4581 
L 3097 4581 
L 3097 0 
L 2575 0 
z
M 797 1656 
Q 797 1019 1065 703 
Q 1334 388 1700 388 
Q 2069 388 2326 689 
Q 2584 991 2584 1609 
Q 2584 2291 2321 2609 
Q 2059 2928 1675 2928 
Q 1300 2928 1048 2622 
Q 797 2316 797 1656 
z
" transform="scale(0.015625)"/>
       <path id="ArialMT-72" d="M 416 0 
L 416 3319 
L 922 3319 
L 922 2816 
Q 1116 3169 1280 3281 
Q 1444 3394 1641 3394 
Q 1925 3394 2219 3213 
L 2025 2691 
Q 1819 2813 1613 2813 
Q 1428 2813 1281 2702 
Q 1134 2591 1072 2394 
Q 978 2094 978 1738 
L 978 0 
L 416 0 
z
" transform="scale(0.015625)"/>
       <path id="ArialMT-69" d="M 425 3934 
L 425 4581 
L 988 4581 
L 988 3934 
L 425 3934 
z
M 425 0 
L 425 3319 
L 988 3319 
L 988 0 
L 425 0 
z
" transform="scale(0.015625)"/>
       <path id="ArialMT-6e" d="M 422 0 
L 422 3319 
L 928 3319 
L 928 2847 
Q 1294 3394 1984 3394 
Q 2284 3394 2536 3286 
Q 2788 3178 2913 3003 
Q 3038 2828 3088 2588 
Q 3119 2431 3119 2041 
L 3119 0 
L 2556 0 
L 2556 2019 
Q 2556 2363 2490 2533 
Q 2425 2703 2258 2804 
Q 2091 2906 1866 2906 
Q 1506 2906 1245 2678 
Q 984 2450 984 1813 
L 984 0 
L 422 0 
z
" transform="scale(0.015625)"/>
       <path id="ArialMT-63" d="M 2588 1216 
L 3141 1144 
Q 3050 572 2676 248 
Q 2303 -75 1759 -75 
Q 1078 -75 664 370 
Q 250 816 250 1647 
Q 250 2184 428 2587 
Q 606 2991 970 3192 
Q 1334 3394 1763 3394 
Q 2303 3394 2647 3120 
Q 2991 2847 3088 2344 
L 2541 2259 
Q 2463 2594 2264 2762 
Q 2066 2931 1784 2931 
Q 1359 2931 1093 2626 
Q 828 2322 828 1663 
Q 828 994 1084 691 
Q 1341 388 1753 388 
Q 2084 388 2306 591 
Q 2528 794 2588 1216 
z
" transform="scale(0.015625)"/>
       <path id="ArialMT-7c" d="M 588 -1347 
L 588 4659 
L 1078 4659 
L 1078 -1347 
L 588 -1347 
z
" transform="scale(0.015625)"/>
       <path id="ArialMT-49" d="M 597 0 
L 597 4581 
L 1203 4581 
L 1203 0 
L 597 0 
z
" transform="scale(0.015625)"/>
       <path id="ArialMT-44" d="M 494 0 
L 494 4581 
L 2072 4581 
Q 2606 4581 2888 4516 
Q 3281 4425 3559 4188 
Q 3922 3881 4101 3404 
Q 4281 2928 4281 2316 
Q 4281 1794 4159 1391 
Q 4038 988 3847 723 
Q 3656 459 3429 307 
Q 3203 156 2883 78 
Q 2563 0 2147 0 
L 494 0 
z
M 1100 541 
L 2078 541 
Q 2531 541 2789 625 
Q 3047 709 3200 863 
Q 3416 1078 3536 1442 
Q 3656 1806 3656 2325 
Q 3656 3044 3420 3430 
Q 3184 3816 2847 3947 
Q 2603 4041 2063 4041 
L 1100 4041 
L 1100 541 
z
" transform="scale(0.015625)"/>
      </defs>
      <use xlink:href="#ArialMT-41"/>
      <use xlink:href="#ArialMT-62" x="66.699219"/>
      <use xlink:href="#ArialMT-73" x="122.314453"/>
      <use xlink:href="#ArialMT-6f" x="172.314453"/>
      <use xlink:href="#ArialMT-6c" x="227.929688"/>
      <use xlink:href="#ArialMT-75" x="250.146484"/>
      <use xlink:href="#ArialMT-74" x="305.761719"/>
      <use xlink:href="#ArialMT-65" x="333.544922"/>
      <use xlink:href="#ArialMT-20" x="389.160156"/>
      <use xlink:href="#ArialMT-64" x="416.943359"/>
      <use xlink:href="#ArialMT-72" x="472.558594"/>
      <use xlink:href="#ArialMT-61" x="505.859375"/>
      <use xlink:href="#ArialMT-69" x="561.474609"/>
      <use xlink:href="#ArialMT-6e" x="583.691406"/>
      <use xlink:href="#ArialMT-20" x="639.306641"/>
      <use xlink:href="#ArialMT-63" x="667.089844"/>
      <use xlink:href="#ArialMT-75" x="717.089844"/>
      <use xlink:href="#ArialMT-72" x="772.705078"/>
      <use xlink:href="#ArialMT-72" x="806.005859"/>
      <use xlink:href="#ArialMT-65" x="839.306641"/>
      <use xlink:href="#ArialMT-6e" x="894.921875"/>
      <use xlink:href="#ArialMT-74" x="950.537109"/>
      <use xlink:href="#ArialMT-2c" x="978.320312"/>
      <use xlink:href="#ArialMT-20" x="1006.103516"/>
      <use xlink:href="#ArialMT-7c" x="1033.886719"/>
      <use xlink:href="#ArialMT-49" x="1059.863281"/>
      <use xlink:href="#ArialMT-44" x="1087.646484"/>
      <use xlink:href="#ArialMT-7c" x="1159.863281"/>
      <use xlink:href="#ArialMT-20" x="1185.839844"/>
      <use xlink:href="#ArialMT-28" x="1213.623047"/>
      <use xlink:href="#ArialMT-41" x="1246.923828"/>
      <use xlink:href="#ArialMT-29" x="1313.623047"/>
     </g>
    </g>
   </g>
   <g id="line2d_25">
    <path d="M 250.770888 235.109584 
L 251.871382 235.095988 
L 252.971875 235.435628 
L 254.072347 235.295352 
L 255.17284 235.485278 
L 256.273333 235.893335 
L 257.373827 235.848662 
L 258.47432 236.25168 
L 260.675285 236.577161 
L 261.775778 236.683031 
L 262.876271 236.674841 
L 263.976765 236.882032 
L 265.077237 236.781952 
L 266.17773 237.347657 
L 267.278223 237.374291 
L 269.47921 237.756259 
L 270.579682 237.338799 
L 272.780668 237.793549 
L 273.881161 237.654542 
L 274.981654 238.195362 
L 276.082127 237.535884 
L 277.18262 238.175787 
L 278.283113 238.383594 
L 279.383606 238.068935 
L 280.484099 238.658497 
L 281.584572 238.964052 
L 282.685065 238.762619 
L 283.785558 238.383594 
L 284.886051 238.921247 
L 285.986544 238.474247 
L 288.18751 239.072032 
L 289.288003 239.082903 
L 290.388496 239.269927 
L 291.488989 239.007081 
L 293.689955 239.336926 
L 294.790448 239.359382 
L 295.890941 239.668486 
L 299.1924 239.738736 
L 300.292893 239.575715 
L 301.393386 239.72699 
L 302.493869 240.0745 
L 303.594362 239.869063 
L 304.694844 240.855638 
L 305.795338 240.222587 
L 306.895831 241.197841 
L 307.996313 241.183869 
L 309.096807 240.950073 
L 310.197289 241.583632 
L 311.297783 240.909466 
L 312.398276 241.583632 
L 313.498758 242.460846 
L 314.599252 242.493343 
L 315.699734 241.881183 
L 316.800227 242.205298 
L 317.900721 241.583632 
L 319.001203 241.23984 
L 320.101697 241.583632 
L 321.202179 241.525358 
L 322.302672 241.100617 
L 323.403166 241.23984 
L 324.503648 241.598261 
L 325.604141 241.296175 
L 326.704624 241.598261 
L 327.805117 241.438688 
L 328.90561 241.71624 
L 330.006093 241.686598 
L 331.106586 242.111421 
L 332.207069 241.896345 
L 333.307562 241.510855 
L 334.408055 242.428484 
L 335.508538 241.253896 
L 336.609031 242.173887 
L 338.810007 242.757874 
L 339.9105 242.859256 
L 341.010983 243.27732 
L 342.111476 244.141382 
L 343.211959 244.240834 
L 344.312452 245.373866 
L 345.412945 244.735203 
L 346.513428 244.885004 
L 347.613921 245.820031 
L 348.714404 245.015567 
L 349.814897 246.164524 
L 350.91539 246.497459 
L 352.015873 245.990518 
L 353.116366 246.655653 
L 355.317342 246.214907 
L 356.417835 247.642475 
L 357.518318 246.367845 
L 358.618811 247.177036 
L 359.719294 246.735873 
L 360.819787 246.762777 
L 361.92028 247.177036 
L 363.020763 248.458002 
L 364.121256 247.177036 
L 365.221739 248.198612 
L 366.322232 248.691704 
L 367.422725 247.262376 
L 368.523208 247.977962 
L 369.623701 247.348586 
L 370.724183 249.508364 
L 371.824677 248.624246 
L 372.92517 247.494236 
L 374.025653 248.040403 
L 375.126146 248.828186 
L 376.226628 248.59074 
L 377.327122 249.143556 
L 378.427615 248.828186 
L 379.528097 250.007346 
L 380.628591 250.622237 
L 381.729073 250.41229 
L 382.829566 250.495662 
L 383.930054 250.41229 
L 385.030542 253.418007 
L 386.131036 251.806855 
L 387.231523 253.127237 
L 388.332011 251.239459 
L 389.432499 251.193859 
L 390.532987 253.477356 
L 391.63348 253.71904 
L 392.733968 252.681926 
L 393.834456 252.627882 
L 394.934944 252.310569 
L 396.035432 254.971925 
L 397.135925 253.127237 
L 398.236413 260.084416 
L 399.336901 256.111335 
L 400.437389 261.808646 
L 401.537877 258.652543 
L 402.63837 258.875009 
L 403.738858 258.5435 
L 404.839346 262.471334 
L 405.939834 260.348433 
L 407.040322 260.483594 
L 408.140815 263.9761 
L 409.241303 262.645412 
L 410.341791 262.300764 
L 411.442279 266.067179 
L 412.542767 265.807555 
L 413.64326 264.842327 
L 414.743748 267.499289 
L 415.844236 263.9761 
L 416.944724 268.849827 
L 418.045212 265.555818 
L 419.145705 267.817215 
L 420.246193 271.902148 
L 421.346681 264.842327 
L 422.447169 274.495441 
L 423.547657 270.457454 
L 424.64815 274.495441 
L 425.748638 273.177603 
L 426.849126 276.960858 
L 427.949614 263.624411 
L 429.050104 265.372921 
L 430.150592 259.48908 
L 431.251083 258.571341 
L 432.351571 259.017706 
L 433.452059 260.796852 
L 434.552549 262.869111 
L 435.653037 259.017706 
L 436.753528 260.24924 
L 437.854016 259.250036 
L 438.954504 260.796852 
L 440.054994 258.571341 
L 441.155482 254.573219 
L 442.255973 253.673482 
L 443.356461 253.141872 
L 444.456949 254.779062 
L 445.557439 252.860387 
L 446.657927 254.047499 
L 447.758418 252.481259 
L 448.858905 252.750291 
L 449.959395 253.433115 
L 451.059884 252.641679 
L 452.160372 254.990127 
L 453.260861 252.805124 
L 454.36135 252.017536 
L 455.46184 252.641679 
L 456.562329 250.217761 
L 457.662817 251.577961 
L 458.763306 250.38149 
L 459.863795 250.017468 
L 460.964285 251.819375 
L 462.064773 250.761813 
L 463.165262 252.641679 
L 464.265751 252.376023 
L 465.36624 251.205504 
L 466.466729 253.315444 
L 467.567218 250.892519 
L 468.667707 251.297079 
L 469.768196 251.868482 
L 470.868685 252.91594 
L 471.969174 251.917941 
L 473.069663 254.438719 
L 474.170152 250.590692 
L 475.270641 260.796852 
L 476.37113 282.036699 
L 477.471619 259.955349 
L 478.572108 247.885136 
L 479.672597 243.512712 
L 481.873575 233.000192 
L 485.175041 219.682342 
L 489.576998 201.262337 
L 493.978953 181.913924 
L 498.38091 161.766294 
L 506.084333 125.32647 
L 511.586778 99.518001 
L 514.888245 85.098794 
L 517.08922 76.590274 
L 518.189714 72.809275 
L 519.290201 69.440642 
L 520.390689 66.544917 
L 521.491177 64.158562 
L 522.591665 62.284111 
L 523.692158 60.872513 
L 524.792646 59.839108 
L 525.893134 59.089753 
L 526.993622 58.543212 
L 529.194603 57.840613 
L 531.395579 57.431497 
L 534.697048 57.087398 
L 540.199493 56.813359 
L 550.10389 56.61728 
L 571.013187 56.479846 
L 629.339095 56.380353 
L 646.946923 56.367441 
L 646.946923 56.367441 
" clip-path="url(#p1604c2f93a)" style="fill: none; stroke: #fde9d2; stroke-width: 1.55; stroke-linecap: square"/>
   </g>
   <g id="line2d_26">
    <path d="M 250.770888 241.866047 
L 251.871382 241.760889 
L 252.971875 242.049392 
L 256.273333 242.268453 
L 259.574792 243.277308 
L 260.675285 242.757863 
L 261.775778 243.642205 
L 262.876271 243.170838 
L 263.976765 243.830706 
L 265.077237 243.792673 
L 266.17773 243.623586 
L 267.278223 243.868935 
L 268.378716 243.92658 
L 269.47921 243.773721 
L 270.579682 244.382054 
L 271.680175 243.586458 
L 272.780668 244.714008 
L 273.881161 244.382054 
L 274.981654 244.525682 
L 276.082127 245.260239 
L 277.18262 244.799067 
L 278.283113 245.148146 
L 279.383606 244.906618 
L 280.484099 245.192799 
L 281.584572 245.21523 
L 282.685065 245.037503 
L 283.785558 245.282834 
L 284.886051 245.305504 
L 285.986544 246.164492 
L 287.087017 245.700299 
L 288.18751 245.700299 
L 289.288003 245.892663 
L 290.388496 246.419439 
L 291.488989 246.682303 
L 292.589461 246.18967 
L 293.689955 246.953554 
L 294.790448 246.064634 
L 295.890941 246.655653 
L 296.991424 247.977941 
L 298.091917 247.612592 
L 299.1924 248.5241 
L 300.292893 248.557343 
L 301.393386 248.262666 
L 302.493869 249.287561 
L 303.594362 247.642436 
L 304.694844 249.85063 
L 305.795338 247.348567 
L 306.895831 248.828164 
L 307.996313 248.103307 
L 309.096807 249.037115 
L 310.197289 249.107911 
L 311.297783 248.759614 
L 312.398276 249.107911 
L 313.498758 248.262666 
L 315.699734 251.331404 
L 316.800227 249.037115 
L 317.900721 251.518374 
L 319.001203 251.058455 
L 320.101697 251.285307 
L 321.202179 250.969412 
L 322.302672 252.004752 
L 323.403166 250.247971 
L 325.604141 254.355253 
L 326.704624 250.925182 
L 327.805117 254.159303 
L 328.90561 252.520715 
L 330.006093 253.070247 
L 332.207069 251.954818 
L 333.307562 256.442909 
L 334.408055 254.90112 
L 335.508538 255.261028 
L 336.609031 258.018273 
L 337.709514 253.657939 
L 338.810007 256.442909 
L 339.9105 256.788058 
L 341.010983 254.692235 
L 342.111476 258.435774 
L 343.211959 256.442909 
L 344.312452 256.966086 
L 345.412945 257.816899 
L 346.513428 259.579629 
L 347.613921 257.620332 
L 348.714404 256.275499 
L 349.814897 258.763009 
L 350.91539 265.555494 
L 352.015873 257.428163 
L 353.116366 255.950189 
L 354.216849 264.184318 
L 356.417835 257.147938 
L 357.518318 266.067007 
L 358.618811 257.718045 
L 359.719294 264.398069 
L 360.819787 261.047003 
L 361.92028 260.348345 
L 363.020763 288.182896 
L 364.121256 262.133454 
L 365.221739 268.491293 
L 366.322232 277.702933 
L 367.422725 263.190208 
L 368.523208 266.334661 
L 369.623701 260.902526 
L 370.724183 288.182896 
L 371.824677 265.807221 
L 372.92517 271.392265 
L 374.025653 266.334661 
L 375.126146 288.182896 
L 376.226628 269.718818 
L 377.327122 263.772617 
L 378.427615 272.037532 
L 379.528097 268.147547 
L 380.628591 266.067007 
L 381.729073 270.02583 
L 382.829566 267.817003 
L 383.930054 275.241247 
L 385.030542 275.840858 
L 386.131036 285.785816 
L 387.231523 273.022098 
L 388.332011 280.45639 
L 389.432499 262.869347 
L 390.532987 267.900953 
L 391.63348 269.718818 
L 392.733968 269.615409 
L 393.834456 272.037532 
L 394.934944 286.51381 
L 396.035432 288.182896 
L 397.135925 262.343974 
L 398.236413 281.602311 
L 399.336901 268.234634 
L 400.437389 270.02583 
L 401.537877 270.572043 
L 402.63837 264.238745 
L 403.738858 274.495441 
L 404.839346 270.572043 
L 405.939834 279.125168 
L 407.040322 266.683625 
L 408.140815 271.032918 
L 409.241303 262.690653 
L 410.341791 273.810907 
L 411.442279 265.133914 
L 412.542767 264.453751 
L 413.64326 264.238745 
L 414.743748 264.674358 
L 415.844236 266.134695 
L 416.944724 268.944245 
L 418.045212 263.624669 
L 419.145705 275.840858 
L 420.246193 261.535224 
L 421.346681 269.718818 
L 422.447169 265.873193 
L 423.547657 265.873193 
L 424.64815 262.690653 
L 425.748638 257.942905 
L 426.849126 260.38299 
L 427.949614 263.624669 
L 429.050104 260.656638 
L 430.150592 259.368792 
L 431.251083 260.518709 
L 432.351571 258.903889 
L 433.452059 260.24924 
L 434.552549 264.901169 
L 435.653037 259.860714 
L 436.753528 260.11774 
L 437.854016 260.656638 
L 438.954504 259.017856 
L 440.054994 257.743296 
L 441.155482 261.849515 
L 442.255973 267.579513 
L 443.356461 267.192674 
L 444.456949 261.96928 
L 445.557439 249.215252 
L 447.758418 237.154856 
L 453.260861 210.28563 
L 455.46184 200.468505 
L 458.763306 187.08732 
L 463.165262 170.911436 
L 469.768196 146.914511 
L 475.270641 127.097028 
L 479.672597 112.152052 
L 482.974064 101.684488 
L 486.275531 91.983254 
L 489.576998 83.101354 
L 491.777976 77.753063 
L 493.978953 72.945991 
L 496.179931 68.809973 
L 498.38091 65.416112 
L 499.481398 64.021574 
L 500.581888 62.825401 
L 501.682376 61.81864 
L 502.782867 60.982064 
L 504.983843 59.734558 
L 507.184821 58.910614 
L 509.3858 58.36161 
L 512.687266 57.852363 
L 517.08922 57.487417 
L 523.692158 57.228368 
L 535.797536 57.045313 
L 563.309756 56.920621 
L 639.243502 56.838646 
L 646.946923 56.83474 
L 646.946923 56.83474 
" clip-path="url(#p1604c2f93a)" style="fill: none; stroke: #f7c98f; stroke-width: 1.55; stroke-linecap: square"/>
   </g>
   <g id="line2d_27">
    <path d="M 250.770888 255.044406 
L 251.871382 261.653051 
L 252.971875 259.95736 
L 254.072347 254.356291 
L 255.17284 257.335257 
L 256.273333 257.918568 
L 257.373827 256.52927 
L 258.47432 258.99023 
L 259.574792 260.350539 
L 260.675285 260.350539 
L 261.775778 263.979333 
L 262.876271 268.855577 
L 263.976765 256.789499 
L 265.077237 260.485734 
L 266.17773 261.811045 
L 267.278223 261.196315 
L 268.378716 265.811402 
L 269.47921 256.967557 
L 270.579682 264.40161 
L 271.680175 258.122403 
L 272.780668 263.007689 
L 273.881161 259.95736 
L 274.981654 283.471864 
L 276.082127 262.648175 
L 277.18262 260.904869 
L 278.283113 258.545202 
L 279.383606 269.229978 
L 280.484099 270.464407 
L 281.584572 259.95736 
L 282.685065 263.193277 
L 283.785558 268.855577 
L 284.886051 260.904869 
L 285.986544 266.901531 
L 287.087017 267.504191 
L 288.18751 272.452411 
L 289.288003 261.811045 
L 290.388496 263.577122 
L 291.488989 268.855577 
L 292.589461 263.193277 
L 293.689955 259.105221 
L 294.790448 272.579457 
L 295.890941 266.967245 
L 296.991424 259.340076 
L 298.091917 261.653051 
L 299.1924 258.437524 
L 300.292893 270.919301 
L 301.393386 270.919301 
L 302.493869 265.077119 
L 303.594362 275.055772 
L 304.694844 262.303196 
L 305.795338 258.764756 
L 306.895831 266.615652 
L 307.996313 281.629359 
L 309.096807 268.855577 
L 310.197289 281.629359 
L 311.297783 259.581552 
L 312.398276 262.648175 
L 313.498758 263.979333 
L 314.599252 259.581552 
L 315.699734 266.615652 
L 316.800227 263.979333 
L 317.900721 268.15284 
L 319.001203 261.345839 
L 321.202179 263.007689 
L 322.302672 264.845909 
L 323.403166 262.825965 
L 324.503648 260.350539 
L 325.604141 256.701883 
L 326.704624 259.459953 
L 327.805117 266.615652 
L 328.90561 271.400031 
L 330.006093 260.904869 
L 331.106586 265.314979 
L 332.207069 264.620845 
L 333.307562 258.99023 
L 334.408055 260.485734 
L 335.508538 274.326364 
L 336.609031 261.653051 
L 337.709514 271.024863 
L 338.810007 261.971937 
L 339.9105 263.577122 
L 341.010983 262.825965 
L 342.111476 260.217469 
L 343.211959 270.464407 
L 344.312452 267.197402 
L 345.412945 265.559553 
L 346.513428 258.226123 
L 347.613921 260.086288 
L 348.714404 263.007689 
L 349.814897 288.182896 
L 350.91539 277.719988 
L 352.015873 271.910052 
L 353.116366 275.055772 
L 354.216849 257.525242 
L 355.317342 265.314979 
L 356.417835 267.504191 
L 357.518318 260.485734 
L 358.618811 264.18777 
L 359.719294 262.135947 
L 360.819787 258.99023 
L 361.92028 264.620845 
L 363.020763 266.070973 
L 364.121256 263.775905 
L 365.221739 281.629359 
L 366.322232 263.775905 
L 367.422725 277.957521 
L 368.523208 273.654842 
L 369.623701 262.303196 
L 370.724183 288.182896 
L 371.824677 266.339111 
L 372.92517 280.116131 
L 374.025653 267.504191 
L 375.126146 265.077119 
L 376.226628 283.94843 
L 377.327122 271.910052 
L 378.427615 267.197402 
L 379.528097 267.504191 
L 380.628591 271.400031 
L 381.729073 269.229978 
L 382.829566 272.452411 
L 383.930054 269.229978 
L 385.030542 264.40161 
L 386.131036 263.193277 
L 387.231523 261.811045 
L 388.332011 264.620845 
L 389.432499 260.086288 
L 390.532987 270.464407 
L 391.63348 271.910052 
L 392.733968 275.055772 
L 393.834456 277.719988 
L 394.934944 265.077119 
L 396.035432 266.901531 
L 397.135925 263.193277 
L 398.236413 267.574567 
L 399.336901 275.055772 
L 400.437389 286.465711 
L 401.537877 265.559553 
L 402.63837 266.901531 
L 403.738858 268.855577 
L 404.839346 265.559553 
L 405.939834 269.71245 
L 407.040322 267.895387 
L 408.140815 261.971937 
L 409.241303 262.648175 
L 410.341791 277.719988 
L 411.442279 288.182896 
L 412.542767 288.182896 
L 414.743748 261.345839 
L 415.844236 258.331129 
L 416.944724 252.15708 
L 418.045212 249.583822 
L 419.145705 246.190049 
L 421.346681 237.508866 
L 423.547657 228.052968 
L 435.653037 177.074834 
L 440.054994 159.840965 
L 443.356461 147.746716 
L 446.657927 136.350876 
L 449.959395 125.615646 
L 453.260861 115.55292 
L 456.562329 106.08214 
L 459.863795 97.265532 
L 463.165262 89.11573 
L 466.466729 81.730317 
L 468.667707 77.265858 
L 470.868685 73.221667 
L 473.069663 69.668891 
L 475.270641 66.626595 
L 477.471619 64.137029 
L 479.672597 62.186676 
L 481.873575 60.718977 
L 484.074553 59.648968 
L 486.275531 58.874954 
L 488.476509 58.318271 
L 491.777976 57.758443 
L 496.179931 57.319681 
L 501.682376 57.024252 
L 510.486288 56.802151 
L 526.993622 56.647916 
L 569.912694 56.539983 
L 646.946923 56.489247 
L 646.946923 56.489247 
" clip-path="url(#p1604c2f93a)" style="fill: none; stroke: #f2ad62; stroke-width: 1.55; stroke-linecap: square"/>
   </g>
   <g id="line2d_28">
    <path d="M 162.73177 237.009172 
L 163.832263 238.384014 
L 166.033228 240.198243 
L 167.133721 241.005087 
L 168.234215 242.708361 
L 169.334708 243.242445 
L 171.535673 245.630341 
L 172.636166 246.317668 
L 173.73666 246.040957 
L 174.837153 246.090608 
L 175.937646 247.26363 
L 177.038118 249.36217 
L 178.138611 250.883218 
L 179.239105 250.79599 
L 180.339598 251.71175 
L 181.440091 249.969659 
L 182.540563 249.58488 
L 183.641056 252.848618 
L 184.741549 255.717684 
L 185.842043 261.81574 
L 186.942536 254.904257 
L 188.043008 255.412796 
L 189.143501 254.975135 
L 190.243994 253.479968 
L 191.344488 262.653358 
L 192.444981 267.206471 
L 193.545453 265.322082 
L 195.746439 254.764438 
L 196.846932 256.704451 
L 197.947426 270.477461 
L 199.047898 266.07874 
L 200.148391 266.07874 
L 202.349377 253.970594 
L 203.449871 258.657501 
L 204.550343 259.343582 
L 205.650836 268.162772 
L 206.751329 265.084025 
L 207.851822 260.909087 
L 208.952315 259.225253 
L 210.052788 258.440676 
L 211.153281 263.582906 
L 212.253774 278.868696 
L 213.354267 273.049588 
L 214.45476 268.507379 
L 215.555233 259.961047 
L 216.655726 256.279188 
L 217.756219 255.046517 
L 218.856712 262.479118 
L 219.957205 280.157923 
L 221.057677 268.219056 
L 222.158171 261.502576 
L 223.258664 263.013097 
L 224.359157 262.140825 
L 225.45965 288.182896 
L 226.560122 271.925538 
L 227.660616 279.068922 
L 228.761109 272.468922 
L 229.861602 257.722549 
L 230.962095 257.821456 
L 232.062567 258.229197 
L 233.163061 281.957478 
L 234.263554 286.379814 
L 235.364047 264.852628 
L 236.46454 262.308172 
L 237.565012 254.626846 
L 238.665505 256.880652 
L 239.765999 280.390605 
L 240.866492 268.565778 
L 241.966985 267.513391 
L 243.067457 276.91851 
L 244.16795 254.834059 
L 245.268444 269.241259 
L 246.368937 275.205652 
L 247.46943 266.670653 
L 248.569902 268.927307 
L 249.670395 266.623935 
L 250.770888 260.221358 
L 251.871382 267.206471 
L 252.971875 267.831857 
L 254.072347 260.932842 
L 255.17284 263.420657 
L 256.273333 288.182896 
L 257.373827 270.551519 
L 258.47432 262.140825 
L 259.574792 260.489748 
L 260.675285 263.229827 
L 261.775778 264.890658 
L 262.876271 268.927307 
L 263.976765 288.182896 
L 265.077237 260.221358 
L 266.17773 273.673876 
L 267.278223 268.219056 
L 268.378716 268.219056 
L 269.47921 259.012459 
L 270.579682 270.933076 
L 271.680175 260.221358 
L 272.780668 278.868696 
L 273.881161 275.878683 
L 274.981654 259.854751 
L 276.082127 264.443781 
L 277.18262 267.885977 
L 278.283113 266.623935 
L 279.383606 266.347128 
L 280.484099 288.182896 
L 281.584572 265.362126 
L 282.685065 261.375212 
L 283.785558 266.670653 
L 284.886051 286.379814 
L 285.986544 261.200681 
L 287.087017 288.182896 
L 288.18751 279.068922 
L 289.288003 259.363322 
L 290.388496 259.854751 
L 291.488989 270.114917 
L 292.589461 263.781827 
L 293.689955 264.627388 
L 294.790448 262.682557 
L 295.890941 257.738781 
L 296.991424 256.376448 
L 298.091917 275.078235 
L 299.1924 281.678264 
L 300.292893 261.350283 
L 301.393386 267.565095 
L 302.493869 264.890658 
L 303.594362 257.837879 
L 304.694844 267.256329 
L 305.795338 283.884542 
L 306.895831 277.925976 
L 307.996313 264.407986 
L 309.096807 261.683716 
L 310.197289 262.861078 
L 311.297783 257.837879 
L 312.398276 265.123111 
L 313.498758 276.763395 
L 314.599252 265.861404 
L 315.699734 260.111765 
L 316.800227 257.167382 
L 317.900721 256.632007 
L 319.001203 262.003675 
L 320.101697 268.507379 
L 321.202179 273.780835 
L 322.302672 271.49738 
L 323.403166 261.077746 
L 324.503648 276.018839 
L 325.604141 288.182896 
L 326.704624 271.925538 
L 327.805117 262.83114 
L 328.90561 268.927307 
L 330.006093 260.790377 
L 331.106586 254.986866 
L 332.207069 255.808668 
L 333.307562 259.605472 
L 334.408055 288.182896 
L 335.508538 261.077746 
L 336.609031 258.566363 
L 337.709514 256.460743 
L 338.810007 255.500496 
L 339.9105 272.013134 
L 341.010983 271.49738 
L 342.111476 285.910667 
L 343.211959 263.043445 
L 344.312452 261.375212 
L 345.412945 256.128376 
L 346.513428 258.566363 
L 347.613921 259.012459 
L 348.714404 264.664125 
L 349.814897 258.35183 
L 350.91539 254.435663 
L 352.015873 255.130533 
L 353.116366 257.167382 
L 354.216849 268.565778 
L 355.317342 269.304965 
L 356.417835 267.565095 
L 357.518318 259.605472 
L 358.618811 256.895405 
L 359.719294 258.039758 
L 360.819787 266.670653 
L 361.92028 288.182896 
L 363.020763 280.157923 
L 364.121256 264.443781 
L 365.221739 259.854751 
L 366.322232 256.806693 
L 368.523208 273.780835 
L 369.623701 279.068922 
L 370.724183 261.842184 
L 371.824677 255.130533 
L 372.92517 256.718899 
L 374.025653 259.012459 
L 375.126146 288.182896 
L 376.226628 272.468922 
L 377.327122 264.852628 
L 378.427615 256.210333 
L 379.528097 258.039758 
L 380.628591 258.675703 
L 381.729073 269.700259 
L 382.829566 258.022805 
L 383.930054 262.308172 
L 385.030542 263.582906 
L 387.231523 249.216878 
L 388.332011 242.758599 
L 389.432499 237.793928 
L 397.135925 207.692804 
L 400.437389 195.634239 
L 402.63837 188.102715 
L 404.839346 181.181358 
L 408.140815 171.848499 
L 418.045212 145.69787 
L 429.050104 114.639457 
L 432.351571 106.125583 
L 435.653037 98.136964 
L 438.954504 90.699469 
L 442.255973 83.885473 
L 444.456949 79.705907 
L 446.657927 75.857503 
L 448.858905 72.365555 
L 451.059884 69.270677 
L 453.260861 66.607113 
L 455.46184 64.370522 
L 457.662817 62.560615 
L 459.863795 61.138915 
L 462.064773 60.048081 
L 464.265751 59.227 
L 466.466729 58.608267 
L 469.768196 57.956148 
L 473.069663 57.526872 
L 477.471619 57.163088 
L 484.074553 56.860545 
L 495.079443 56.633478 
L 514.888245 56.489975 
L 514.888245 56.489975 
" clip-path="url(#p1604c2f93a)" style="fill: none; stroke: #e69138; stroke-width: 1.55; stroke-linecap: square"/>
   </g>
   <g id="line2d_29">
    <path d="M 162.73177 240.883685 
L 163.832263 240.750143 
L 164.932756 241.541153 
L 166.033228 241.425581 
L 167.133721 242.081724 
L 168.234215 241.354135 
L 169.334708 241.269191 
L 170.435201 242.143971 
L 172.636166 241.614211 
L 173.73666 240.897152 
L 174.837153 241.497626 
L 175.937646 241.213035 
L 177.038118 242.675792 
L 178.138611 241.411247 
L 179.239105 241.792136 
L 180.339598 242.38158 
L 181.440091 241.717533 
L 182.540563 241.732405 
L 183.641056 242.222435 
L 185.842043 242.609504 
L 186.942536 242.397656 
L 188.043008 241.732405 
L 189.143501 242.097241 
L 190.243994 242.675792 
L 191.344488 241.9892 
L 192.444981 241.837207 
L 194.645946 242.112795 
L 195.746439 241.928067 
L 197.947426 242.301624 
L 199.047898 242.560162 
L 200.148391 241.792136 
L 202.349377 242.159612 
L 203.449871 241.732405 
L 204.550343 242.413763 
L 205.650836 242.413763 
L 206.751329 241.6436 
L 207.851822 241.48317 
L 208.952315 241.897675 
L 210.052788 241.943314 
L 211.153281 241.822141 
L 212.253774 241.943314 
L 213.354267 242.929027 
L 215.555233 242.38158 
L 216.655726 242.843756 
L 217.756219 242.446079 
L 218.856712 243.015143 
L 219.957205 242.74258 
L 221.057677 241.958578 
L 222.158171 241.912858 
L 223.258664 242.560162 
L 224.359157 242.74258 
L 225.45965 242.38158 
L 226.560122 242.317548 
L 227.660616 242.097241 
L 228.761109 242.642588 
L 229.861602 241.325732 
L 230.962095 241.777168 
L 232.062567 241.687886 
L 233.163061 243.119661 
L 234.263554 241.541153 
L 235.364047 241.792136 
L 236.46454 241.673102 
L 237.565012 242.238212 
L 238.665505 241.97387 
L 239.765999 240.697316 
L 240.866492 242.206678 
L 241.966985 242.128369 
L 243.067457 243.190071 
L 244.16795 242.793011 
L 245.268444 242.74258 
L 246.368937 242.860757 
L 247.46943 242.675792 
L 248.569902 242.609504 
L 249.670395 242.333524 
L 250.770888 242.446079 
L 251.871382 242.066237 
L 252.971875 242.066237 
L 254.072347 242.446079 
L 255.17284 242.963364 
L 256.273333 242.175271 
L 257.373827 242.87777 
L 258.47432 243.015143 
L 259.574792 244.302856 
L 260.675285 242.238212 
L 261.775778 243.966956 
L 263.976765 243.350638 
L 265.077237 243.350638 
L 266.17773 242.826811 
L 267.278223 242.429901 
L 268.378716 243.243259 
L 269.47921 242.929027 
L 270.579682 243.049843 
L 271.680175 244.044799 
L 272.780668 243.015143 
L 273.881161 243.532714 
L 274.981654 243.514334 
L 276.082127 243.296784 
L 277.18262 243.681232 
L 278.283113 243.015143 
L 279.383606 242.911888 
L 280.484099 242.413763 
L 281.584572 242.626041 
L 282.685065 242.560162 
L 284.886051 241.88252 
L 285.986544 242.593021 
L 287.087017 242.349509 
L 289.288003 242.946178 
L 290.388496 242.74258 
L 291.488989 242.709115 
L 292.589461 243.386744 
L 293.689955 242.49477 
L 294.790448 243.514334 
L 295.890941 242.793011 
L 296.991424 242.626041 
L 298.091917 243.681232 
L 299.1924 243.049843 
L 300.292893 243.190071 
L 301.393386 242.946178 
L 302.493869 243.278897 
L 304.694844 242.560162 
L 305.795338 242.709115 
L 306.895831 243.441186 
L 307.996313 243.681232 
L 309.096807 242.87777 
L 310.197289 243.404848 
L 311.297783 242.793011 
L 312.398276 243.314698 
L 313.498758 242.254018 
L 314.599252 242.725825 
L 315.699734 242.776168 
L 316.800227 243.459408 
L 317.900721 242.333524 
L 320.101697 243.119661 
L 321.202179 242.725825 
L 322.302672 242.963364 
L 323.403166 244.569041 
L 324.503648 243.190071 
L 325.604141 242.49477 
L 326.704624 242.333524 
L 327.805117 242.74258 
L 332.207069 243.190071 
L 333.307562 242.365524 
L 334.408055 243.296784 
L 335.508538 242.980596 
L 336.609031 243.832428 
L 337.709514 243.986347 
L 339.9105 242.980596 
L 341.010983 243.423004 
L 342.111476 242.675792 
L 343.211959 243.495994 
L 345.412945 243.947597 
L 346.513428 243.909037 
L 347.613921 243.015143 
L 348.714404 243.404848 
L 349.814897 243.386744 
L 350.91539 244.083984 
L 352.015873 243.986347 
L 353.116366 242.980596 
L 354.216849 242.675792 
L 355.317342 243.495994 
L 356.417835 243.225485 
L 357.518318 242.709115 
L 358.618811 243.332649 
L 359.719294 242.49477 
L 360.819787 242.87777 
L 361.92028 242.159612 
L 363.020763 242.143971 
L 365.221739 241.088023 
L 366.322232 239.622979 
L 367.422725 237.822411 
L 369.623701 233.102008 
L 371.824677 226.515938 
L 374.025653 218.772537 
L 387.231523 170.01272 
L 390.532987 158.843905 
L 393.834456 148.30271 
L 397.135925 138.310792 
L 401.537877 125.834261 
L 404.839346 117.044528 
L 408.140815 108.754335 
L 411.442279 101.004991 
L 414.743748 93.771842 
L 418.045212 87.090378 
L 421.346681 81.016424 
L 424.64815 75.582128 
L 426.849126 72.356122 
L 429.050104 69.477947 
L 431.251083 66.972377 
L 433.452059 64.831077 
L 435.653037 63.055479 
L 437.854016 61.619387 
L 440.054994 60.482871 
L 442.255973 59.598768 
L 444.456949 58.912933 
L 447.758418 58.167017 
L 451.059884 57.659558 
L 455.46184 57.218347 
L 460.964285 56.88778 
L 469.768196 56.612381 
L 484.074553 56.425793 
L 514.888245 56.301523 
L 514.888245 56.301523 
" clip-path="url(#p1604c2f93a)" style="fill: none; stroke: #d9771f; stroke-width: 1.55; stroke-linecap: square"/>
   </g>
   <g id="line2d_30">
    <path d="M 118.71221 226.768781 
L 119.812704 226.948542 
L 122.013669 226.990171 
L 123.114162 227.140166 
L 126.415642 227.145476 
L 128.616607 227.300974 
L 131.918087 227.42362 
L 133.018559 227.233599 
L 136.320038 227.377079 
L 138.521004 227.542499 
L 139.621497 227.47042 
L 141.822483 227.511928 
L 142.922976 227.453873 
L 144.023449 227.668718 
L 146.224435 227.567593 
L 148.425421 227.456628 
L 151.72688 227.601167 
L 152.827373 227.429113 
L 155.028338 227.459386 
L 156.128832 227.68286 
L 157.229325 227.514702 
L 158.329818 227.4649 
L 159.430311 227.671544 
L 160.530783 227.511928 
L 161.631277 227.556429 
L 163.832263 227.525809 
L 164.932756 227.528589 
L 166.033228 227.660245 
L 167.133721 227.484232 
L 171.535673 227.648961 
L 172.636166 227.6546 
L 173.73666 227.782517 
L 174.837153 227.629249 
L 177.038118 227.680031 
L 180.339598 227.748217 
L 181.440091 227.587163 
L 184.741549 227.697026 
L 185.842043 227.796849 
L 186.942536 227.725425 
L 188.043008 227.791114 
L 189.143501 227.618005 
L 192.444981 227.615195 
L 193.545453 227.711213 
L 196.846932 227.646143 
L 199.047898 227.839995 
L 200.148391 227.511928 
L 201.248884 227.702697 
L 202.349377 227.759634 
L 203.449871 227.663068 
L 204.550343 227.994223 
L 205.650836 227.478705 
L 206.751329 227.825588 
L 207.851822 227.548069 
L 208.952315 227.708374 
L 213.354267 227.688524 
L 214.45476 227.886259 
L 218.856712 227.665892 
L 219.957205 227.889158 
L 222.158171 227.842879 
L 224.359157 227.539716 
L 225.45965 227.736813 
L 226.560122 228.112513 
L 228.761109 228.050206 
L 229.861602 227.929863 
L 233.163061 228.100611 
L 234.263554 228.196311 
L 235.364047 228.014804 
L 239.765999 228.148325 
L 240.866492 228.22946 
L 241.966985 227.98542 
L 244.16795 228.103584 
L 249.670395 228.1304 
L 250.770888 227.994223 
L 256.273333 227.982485 
L 258.47432 227.906579 
L 259.574792 228.023642 
L 260.675285 228.017752 
L 261.775778 228.133386 
L 263.976765 228.041342 
L 265.077237 228.22644 
L 266.17773 228.07982 
L 268.378716 228.041342 
L 269.47921 228.241546 
L 270.579682 228.011862 
L 271.680175 228.106559 
L 272.780668 228.059079 
L 274.981654 228.199319 
L 277.18262 228.157301 
L 282.685065 228.175285 
L 284.886051 227.909485 
L 285.986544 228.059079 
L 287.087017 228.000099 
L 289.288003 228.154309 
L 299.1924 227.947367 
L 300.292893 228.11847 
L 302.493869 228.026591 
L 303.594362 228.190298 
L 304.694844 228.160295 
L 305.795338 227.979554 
L 306.895831 228.109535 
L 309.096807 228.064998 
L 311.297783 228.166289 
L 315.699734 227.947367 
L 319.001203 228.106559 
L 320.101697 227.89206 
L 324.503648 228.085754 
L 325.604141 228.026591 
L 326.704624 228.109535 
L 327.805117 227.991288 
L 330.006093 228.103584 
L 331.106586 228.220407 
L 332.207069 228.217392 
L 334.408055 227.929863 
L 337.709514 227.959057 
L 339.9105 227.615195 
L 341.010983 227.282056 
L 343.211959 226.251323 
L 344.312452 225.164824 
L 345.412945 223.71883 
L 346.513428 221.68933 
L 347.613921 219.270082 
L 349.814897 213.105874 
L 352.015873 205.948214 
L 358.618811 183.789288 
L 363.020763 170.04044 
L 368.523208 153.856377 
L 374.025653 138.334524 
L 378.427615 126.529154 
L 382.829566 115.418637 
L 386.131036 107.605228 
L 389.432499 100.290028 
L 392.733968 93.458628 
L 396.035432 87.136306 
L 399.336901 81.376089 
L 402.63837 76.196209 
L 404.839346 73.099356 
L 407.040322 70.311494 
L 409.241303 67.855592 
L 411.442279 65.723408 
L 413.64326 63.919812 
L 415.844236 62.429613 
L 418.045212 61.22263 
L 420.246193 60.262819 
L 422.447169 59.502369 
L 425.748638 58.657312 
L 429.050104 58.069266 
L 433.452059 57.548752 
L 438.954504 57.152088 
L 446.657927 56.847189 
L 458.763306 56.625003 
L 470.868685 56.524862 
L 470.868685 56.524862 
" clip-path="url(#p1604c2f93a)" style="fill: none; stroke: #b85812; stroke-width: 1.55; stroke-linecap: square"/>
   </g>
   <g id="line2d_31">
    <path d="M 74.692651 214.860639 
L 79.094624 214.876217 
L 122.013669 214.984812 
L 134.119052 214.984181 
L 150.626387 214.989235 
L 188.043008 214.971556 
L 193.545453 214.979128 
L 222.158171 214.953283 
L 267.278223 214.940076 
L 271.680175 214.945734 
L 277.18262 214.952024 
L 294.790448 214.952024 
L 298.091917 214.933794 
L 314.599252 214.87996 
L 319.001203 214.721708 
L 321.202179 214.410269 
L 322.302672 214.08428 
L 323.403166 213.631946 
L 324.503648 212.92216 
L 325.604141 211.854951 
L 326.704624 210.393604 
L 327.805117 208.487145 
L 328.90561 206.094369 
L 330.006093 203.30724 
L 332.207069 196.848188 
L 337.709514 178.858757 
L 342.111476 164.885457 
L 346.513428 151.830366 
L 350.91539 139.59379 
L 355.317342 128.124941 
L 359.719294 117.36672 
L 363.020763 109.781132 
L 366.322232 102.655907 
L 369.623701 95.972685 
L 372.92517 89.74528 
L 376.226628 84.015923 
L 379.528097 78.795921 
L 382.829566 74.133007 
L 385.030542 71.368 
L 387.231523 68.901466 
L 389.432499 66.724771 
L 391.63348 64.849093 
L 393.834456 63.266503 
L 396.035432 61.955285 
L 398.236413 60.890113 
L 400.437389 60.029635 
L 403.738858 59.05331 
L 407.040322 58.360791 
L 411.442279 57.737381 
L 416.944724 57.25553 
L 423.547657 56.921676 
L 433.452059 56.661663 
L 449.959395 56.479742 
L 470.868685 56.391902 
L 470.868685 56.391902 
" clip-path="url(#p1604c2f93a)" style="fill: none; stroke: #7a3510; stroke-width: 1.55; stroke-linecap: square"/>
   </g>
   <g id="patch_3">
    <path d="M 46.079937 288.182896 
L 46.079937 42.507986 
" style="fill: none; stroke: #b9c0c7; stroke-width: 0.8; stroke-linejoin: miter; stroke-linecap: square"/>
   </g>
   <g id="patch_4">
    <path d="M 46.079937 288.182896 
L 675.559636 288.182896 
" style="fill: none; stroke: #b9c0c7; stroke-width: 0.8; stroke-linejoin: miter; stroke-linecap: square"/>
   </g>
   <g id="legend_1">
    <g id="text_15">
     <!-- Dose (krad(Si)) -->
     <g style="fill: #343434" transform="translate(333.706037 16.22375) scale(0.08 -0.08)">
      <defs>
       <path id="ArialMT-6b" d="M 425 0 
L 425 4581 
L 988 4581 
L 988 1969 
L 2319 3319 
L 3047 3319 
L 1778 2088 
L 3175 0 
L 2481 0 
L 1384 1697 
L 988 1316 
L 988 0 
L 425 0 
z
" transform="scale(0.015625)"/>
      </defs>
      <use xlink:href="#ArialMT-44"/>
      <use xlink:href="#ArialMT-6f" x="72.216797"/>
      <use xlink:href="#ArialMT-73" x="127.832031"/>
      <use xlink:href="#ArialMT-65" x="177.832031"/>
      <use xlink:href="#ArialMT-20" x="233.447266"/>
      <use xlink:href="#ArialMT-28" x="261.230469"/>
      <use xlink:href="#ArialMT-6b" x="294.53125"/>
      <use xlink:href="#ArialMT-72" x="344.53125"/>
      <use xlink:href="#ArialMT-61" x="377.832031"/>
      <use xlink:href="#ArialMT-64" x="433.447266"/>
      <use xlink:href="#ArialMT-28" x="489.0625"/>
      <use xlink:href="#ArialMT-53" x="522.363281"/>
      <use xlink:href="#ArialMT-69" x="589.0625"/>
      <use xlink:href="#ArialMT-29" x="611.279297"/>
      <use xlink:href="#ArialMT-29" x="644.580078"/>
     </g>
    </g>
    <g id="line2d_32">
     <path d="M 205.502912 24.83375 
L 213.502912 24.83375 
L 221.502912 24.83375 
" style="fill: none; stroke: #fde9d2; stroke-width: 1.55; stroke-linecap: square"/>
    </g>
    <g id="text_16">
     <!-- 0 -->
     <g style="fill: #343434" transform="translate(227.902912 27.63375) scale(0.08 -0.08)">
      <use xlink:href="#ArialMT-30"/>
     </g>
    </g>
    <g id="line2d_33">
     <path d="M 248.351662 24.83375 
L 256.351662 24.83375 
L 264.351662 24.83375 
" style="fill: none; stroke: #f7c98f; stroke-width: 1.55; stroke-linecap: square"/>
    </g>
    <g id="text_17">
     <!-- 10 -->
     <g style="fill: #343434" transform="translate(270.751662 27.63375) scale(0.08 -0.08)">
      <use xlink:href="#ArialMT-31"/>
      <use xlink:href="#ArialMT-30" x="55.615234"/>
     </g>
    </g>
    <g id="line2d_34">
     <path d="M 295.649162 24.83375 
L 303.649162 24.83375 
L 311.649162 24.83375 
" style="fill: none; stroke: #f2ad62; stroke-width: 1.55; stroke-linecap: square"/>
    </g>
    <g id="text_18">
     <!-- 20 -->
     <g style="fill: #343434" transform="translate(318.049162 27.63375) scale(0.08 -0.08)">
      <defs>
       <path id="ArialMT-32" d="M 3222 541 
L 3222 0 
L 194 0 
Q 188 203 259 391 
Q 375 700 629 1000 
Q 884 1300 1366 1694 
Q 2113 2306 2375 2664 
Q 2638 3022 2638 3341 
Q 2638 3675 2398 3904 
Q 2159 4134 1775 4134 
Q 1369 4134 1125 3890 
Q 881 3647 878 3216 
L 300 3275 
Q 359 3922 746 4261 
Q 1134 4600 1788 4600 
Q 2447 4600 2831 4234 
Q 3216 3869 3216 3328 
Q 3216 3053 3103 2787 
Q 2991 2522 2730 2228 
Q 2469 1934 1863 1422 
Q 1356 997 1212 845 
Q 1069 694 975 541 
L 3222 541 
z
" transform="scale(0.015625)"/>
      </defs>
      <use xlink:href="#ArialMT-32"/>
      <use xlink:href="#ArialMT-30" x="55.615234"/>
     </g>
    </g>
    <g id="line2d_35">
     <path d="M 342.946662 24.83375 
L 350.946662 24.83375 
L 358.946662 24.83375 
" style="fill: none; stroke: #e69138; stroke-width: 1.55; stroke-linecap: square"/>
    </g>
    <g id="text_19">
     <!-- 30 -->
     <g style="fill: #343434" transform="translate(365.346662 27.63375) scale(0.08 -0.08)">
      <use xlink:href="#ArialMT-33"/>
      <use xlink:href="#ArialMT-30" x="55.615234"/>
     </g>
    </g>
    <g id="line2d_36">
     <path d="M 390.244162 24.83375 
L 398.244162 24.83375 
L 406.244162 24.83375 
" style="fill: none; stroke: #d9771f; stroke-width: 1.55; stroke-linecap: square"/>
    </g>
    <g id="text_20">
     <!-- 40 -->
     <g style="fill: #343434" transform="translate(412.644162 27.63375) scale(0.08 -0.08)">
      <defs>
       <path id="ArialMT-34" d="M 2069 0 
L 2069 1097 
L 81 1097 
L 81 1613 
L 2172 4581 
L 2631 4581 
L 2631 1613 
L 3250 1613 
L 3250 1097 
L 2631 1097 
L 2631 0 
L 2069 0 
z
M 2069 1613 
L 2069 3678 
L 634 1613 
L 2069 1613 
z
" transform="scale(0.015625)"/>
      </defs>
      <use xlink:href="#ArialMT-34"/>
      <use xlink:href="#ArialMT-30" x="55.615234"/>
     </g>
    </g>
    <g id="line2d_37">
     <path d="M 437.541662 24.83375 
L 445.541662 24.83375 
L 453.541662 24.83375 
" style="fill: none; stroke: #b85812; stroke-width: 1.55; stroke-linecap: square"/>
    </g>
    <g id="text_21">
     <!-- 50 -->
     <g style="fill: #343434" transform="translate(459.941662 27.63375) scale(0.08 -0.08)">
      <use xlink:href="#ArialMT-35"/>
      <use xlink:href="#ArialMT-30" x="55.615234"/>
     </g>
    </g>
    <g id="line2d_38">
     <path d="M 484.839162 24.83375 
L 492.839162 24.83375 
L 500.839162 24.83375 
" style="fill: none; stroke: #7a3510; stroke-width: 1.55; stroke-linecap: square"/>
    </g>
    <g id="text_22">
     <!-- 60 -->
     <g style="fill: #343434" transform="translate(507.239162 27.63375) scale(0.08 -0.08)">
      <defs>
       <path id="ArialMT-36" d="M 3184 3459 
L 2625 3416 
Q 2550 3747 2413 3897 
Q 2184 4138 1850 4138 
Q 1581 4138 1378 3988 
Q 1113 3794 959 3422 
Q 806 3050 800 2363 
Q 1003 2672 1297 2822 
Q 1591 2972 1913 2972 
Q 2475 2972 2870 2558 
Q 3266 2144 3266 1488 
Q 3266 1056 3080 686 
Q 2894 316 2569 119 
Q 2244 -78 1831 -78 
Q 1128 -78 684 439 
Q 241 956 241 2144 
Q 241 3472 731 4075 
Q 1159 4600 1884 4600 
Q 2425 4600 2770 4297 
Q 3116 3994 3184 3459 
z
M 888 1484 
Q 888 1194 1011 928 
Q 1134 663 1356 523 
Q 1578 384 1822 384 
Q 2178 384 2434 671 
Q 2691 959 2691 1453 
Q 2691 1928 2437 2201 
Q 2184 2475 1800 2475 
Q 1419 2475 1153 2201 
Q 888 1928 888 1484 
z
" transform="scale(0.015625)"/>
      </defs>
      <use xlink:href="#ArialMT-36"/>
      <use xlink:href="#ArialMT-30" x="55.615234"/>
     </g>
    </g>
   </g>
  </g>
 </g>
 <defs>
  <clipPath id="p1604c2f93a">
   <rect x="46.079937" y="42.507986" width="629.479699" height="245.67491"/>
  </clipPath>
 </defs>
</svg>
