<?xml version="1.0" encoding="utf-8" standalone="no"?>
<!DOCTYPE svg PUBLIC "-//W3C//DTD SVG 1.1//EN"
  "http://www.w3.org/Graphics/SVG/1.1/DTD/svg11.dtd">
<svg xmlns:xlink="http://www.w3.org/1999/xlink" width="682.759636pt" height="322.327989pt" viewBox="0 0 682.759636 322.327989" xmlns="http://www.w3.org/2000/svg" version="1.1">
 <metadata>
  <rdf:RDF xmlns:dc="http://purl.org/dc/elements/1.1/" xmlns:cc="http://creativecommons.org/ns#" xmlns:rdf="http://www.w3.org/1999/02/22-rdf-syntax-ns#">
   <cc:Work>
    <dc:type rdf:resource="http://purl.org/dc/dcmitype/StillImage"/>
    <dc:date>2026-07-22T19:01:07.903261</dc:date>
    <dc:format>image/svg+xml</dc:format>
    <dc:creator>
     <cc:Agent>
      <dc:title>Matplotlib v3.9.2, https://matplotlib.org/</dc:title>
     </cc:Agent>
    </dc:creator>
   </cc:Work>
  </rdf:RDF>
 </metadata>
 <defs>
  <style type="text/css">*{stroke-linejoin: round; stroke-linecap: butt}</style>
 </defs>
 <g id="figure_1">
  <g id="patch_1">
   <path d="M 0 322.327989 
L 682.759636 322.327989 
L 682.759636 0 
L 0 0 
z
" style="fill: #ffffff"/>
  </g>
  <g id="axes_1">
   <g id="patch_2">
    <path d="M 46.079937 288.182896 
L 675.559636 288.182896 
L 675.559636 42.507986 
L 46.079937 42.507986 
z
" style="fill: #ffffff"/>
   </g>
   <g id="matplotlib.axis_1">
    <g id="xtick_1">
     <g id="line2d_1">
      <path d="M 74.692651 288.182896 
L 74.692651 42.507986 
" clip-path="url(#p2b1f0ba713)" style="fill: none; stroke: #d9dee3; stroke-opacity: 0.75; stroke-width: 0.65; stroke-linecap: square"/>
     </g>
     <g id="line2d_2">
      <defs>
       <path id="m627121a1e5" d="M 0 0 
L 0 3.5 
" style="stroke: #666666; stroke-width: 0.8"/>
      </defs>
      <g>
       <use xlink:href="#m627121a1e5" x="74.692651" y="288.182896" style="fill: #666666; stroke: #666666; stroke-width: 0.8"/>
      </g>
     </g>
     <g id="text_1">
      <!-- -20 -->
      <g style="fill: #666666" transform="translate(68.76751 301.052302) scale(0.082 -0.082)">
       <defs>
        <path id="ArialMT-2d" d="M 203 1375 
L 203 1941 
L 1931 1941 
L 1931 1375 
L 203 1375 
z
" transform="scale(0.015625)"/>
        <path id="ArialMT-32" d="M 3222 541 
L 3222 0 
L 194 0 
Q 188 203 259 391 
Q 375 700 629 1000 
Q 884 1300 1366 1694 
Q 2113 2306 2375 2664 
Q 2638 3022 2638 3341 
Q 2638 3675 2398 3904 
Q 2159 4134 1775 4134 
Q 1369 4134 1125 3890 
Q 881 3647 878 3216 
L 300 3275 
Q 359 3922 746 4261 
Q 1134 4600 1788 4600 
Q 2447 4600 2831 4234 
Q 3216 3869 3216 3328 
Q 3216 3053 3103 2787 
Q 2991 2522 2730 2228 
Q 2469 1934 1863 1422 
Q 1356 997 1212 845 
Q 1069 694 975 541 
L 3222 541 
z
" transform="scale(0.015625)"/>
        <path id="ArialMT-30" d="M 266 2259 
Q 266 3072 433 3567 
Q 600 4063 929 4331 
Q 1259 4600 1759 4600 
Q 2128 4600 2406 4451 
Q 2684 4303 2865 4023 
Q 3047 3744 3150 3342 
Q 3253 2941 3253 2259 
Q 3253 1453 3087 958 
Q 2922 463 2592 192 
Q 2263 -78 1759 -78 
Q 1097 -78 719 397 
Q 266 969 266 2259 
z
M 844 2259 
Q 844 1131 1108 757 
Q 1372 384 1759 384 
Q 2147 384 2411 759 
Q 2675 1134 2675 2259 
Q 2675 3391 2411 3762 
Q 2147 4134 1753 4134 
Q 1366 4134 1134 3806 
Q 844 3388 844 2259 
z
" transform="scale(0.015625)"/>
       </defs>
       <use xlink:href="#ArialMT-2d"/>
       <use xlink:href="#ArialMT-32" x="33.300781"/>
       <use xlink:href="#ArialMT-30" x="88.916016"/>
      </g>
     </g>
    </g>
    <g id="xtick_2">
     <g id="line2d_3">
      <path d="M 176.880914 288.182896 
L 176.880914 42.507986 
" clip-path="url(#p2b1f0ba713)" style="fill: none; stroke: #d9dee3; stroke-opacity: 0.75; stroke-width: 0.65; stroke-linecap: square"/>
     </g>
     <g id="line2d_4">
      <g>
       <use xlink:href="#m627121a1e5" x="176.880914" y="288.182896" style="fill: #666666; stroke: #666666; stroke-width: 0.8"/>
      </g>
     </g>
     <g id="text_2">
      <!-- -15 -->
      <g style="fill: #666666" transform="translate(170.955773 301.052302) scale(0.082 -0.082)">
       <defs>
        <path id="ArialMT-31" d="M 2384 0 
L 1822 0 
L 1822 3584 
Q 1619 3391 1289 3197 
Q 959 3003 697 2906 
L 697 3450 
Q 1169 3672 1522 3987 
Q 1875 4303 2022 4600 
L 2384 4600 
L 2384 0 
z
" transform="scale(0.015625)"/>
        <path id="ArialMT-35" d="M 266 1200 
L 856 1250 
Q 922 819 1161 601 
Q 1400 384 1738 384 
Q 2144 384 2425 690 
Q 2706 997 2706 1503 
Q 2706 1984 2436 2262 
Q 2166 2541 1728 2541 
Q 1456 2541 1237 2417 
Q 1019 2294 894 2097 
L 366 2166 
L 809 4519 
L 3088 4519 
L 3088 3981 
L 1259 3981 
L 1013 2750 
Q 1425 3038 1878 3038 
Q 2478 3038 2890 2622 
Q 3303 2206 3303 1553 
Q 3303 931 2941 478 
Q 2500 -78 1738 -78 
Q 1113 -78 717 272 
Q 322 622 266 1200 
z
" transform="scale(0.015625)"/>
       </defs>
       <use xlink:href="#ArialMT-2d"/>
       <use xlink:href="#ArialMT-31" x="33.300781"/>
       <use xlink:href="#ArialMT-35" x="88.916016"/>
      </g>
     </g>
    </g>
    <g id="xtick_3">
     <g id="line2d_5">
      <path d="M 279.069177 288.182896 
L 279.069177 42.507986 
" clip-path="url(#p2b1f0ba713)" style="fill: none; stroke: #d9dee3; stroke-opacity: 0.75; stroke-width: 0.65; stroke-linecap: square"/>
     </g>
     <g id="line2d_6">
      <g>
       <use xlink:href="#m627121a1e5" x="279.069177" y="288.182896" style="fill: #666666; stroke: #666666; stroke-width: 0.8"/>
      </g>
     </g>
     <g id="text_3">
      <!-- -10 -->
      <g style="fill: #666666" transform="translate(273.144036 301.052302) scale(0.082 -0.082)">
       <use xlink:href="#ArialMT-2d"/>
       <use xlink:href="#ArialMT-31" x="33.300781"/>
       <use xlink:href="#ArialMT-30" x="88.916016"/>
      </g>
     </g>
    </g>
    <g id="xtick_4">
     <g id="line2d_7">
      <path d="M 381.257439 288.182896 
L 381.257439 42.507986 
" clip-path="url(#p2b1f0ba713)" style="fill: none; stroke: #d9dee3; stroke-opacity: 0.75; stroke-width: 0.65; stroke-linecap: square"/>
     </g>
     <g id="line2d_8">
      <g>
       <use xlink:href="#m627121a1e5" x="381.257439" y="288.182896" style="fill: #666666; stroke: #666666; stroke-width: 0.8"/>
      </g>
     </g>
     <g id="text_4">
      <!-- -5 -->
      <g style="fill: #666666" transform="translate(377.612283 301.052302) scale(0.082 -0.082)">
       <use xlink:href="#ArialMT-2d"/>
       <use xlink:href="#ArialMT-35" x="33.300781"/>
      </g>
     </g>
    </g>
    <g id="xtick_5">
     <g id="line2d_9">
      <path d="M 483.445702 288.182896 
L 483.445702 42.507986 
" clip-path="url(#p2b1f0ba713)" style="fill: none; stroke: #d9dee3; stroke-opacity: 0.75; stroke-width: 0.65; stroke-linecap: square"/>
     </g>
     <g id="line2d_10">
      <g>
       <use xlink:href="#m627121a1e5" x="483.445702" y="288.182896" style="fill: #666666; stroke: #666666; stroke-width: 0.8"/>
      </g>
     </g>
     <g id="text_5">
      <!-- 0 -->
      <g style="fill: #666666" transform="translate(481.165718 301.052302) scale(0.082 -0.082)">
       <use xlink:href="#ArialMT-30"/>
      </g>
     </g>
    </g>
    <g id="xtick_6">
     <g id="line2d_11">
      <path d="M 585.633965 288.182896 
L 585.633965 42.507986 
" clip-path="url(#p2b1f0ba713)" style="fill: none; stroke: #d9dee3; stroke-opacity: 0.75; stroke-width: 0.65; stroke-linecap: square"/>
     </g>
     <g id="line2d_12">
      <g>
       <use xlink:href="#m627121a1e5" x="585.633965" y="288.182896" style="fill: #666666; stroke: #666666; stroke-width: 0.8"/>
      </g>
     </g>
     <g id="text_6">
      <!-- 5 -->
      <g style="fill: #666666" transform="translate(583.353981 301.052302) scale(0.082 -0.082)">
       <use xlink:href="#ArialMT-35"/>
      </g>
     </g>
    </g>
    <g id="text_7">
     <!-- Gate voltage, VGS (V) -->
     <g style="fill: #666666" transform="translate(316.052521 313.233771) scale(0.09 -0.09)">
      <defs>
       <path id="ArialMT-47" d="M 2638 1797 
L 2638 2334 
L 4578 2338 
L 4578 638 
Q 4131 281 3656 101 
Q 3181 -78 2681 -78 
Q 2006 -78 1454 211 
Q 903 500 622 1047 
Q 341 1594 341 2269 
Q 341 2938 620 3517 
Q 900 4097 1425 4378 
Q 1950 4659 2634 4659 
Q 3131 4659 3532 4498 
Q 3934 4338 4162 4050 
Q 4391 3763 4509 3300 
L 3963 3150 
Q 3859 3500 3706 3700 
Q 3553 3900 3268 4020 
Q 2984 4141 2638 4141 
Q 2222 4141 1919 4014 
Q 1616 3888 1430 3681 
Q 1244 3475 1141 3228 
Q 966 2803 966 2306 
Q 966 1694 1177 1281 
Q 1388 869 1791 669 
Q 2194 469 2647 469 
Q 3041 469 3416 620 
Q 3791 772 3984 944 
L 3984 1797 
L 2638 1797 
z
" transform="scale(0.015625)"/>
       <path id="ArialMT-61" d="M 2588 409 
Q 2275 144 1986 34 
Q 1697 -75 1366 -75 
Q 819 -75 525 192 
Q 231 459 231 875 
Q 231 1119 342 1320 
Q 453 1522 633 1644 
Q 813 1766 1038 1828 
Q 1203 1872 1538 1913 
Q 2219 1994 2541 2106 
Q 2544 2222 2544 2253 
Q 2544 2597 2384 2738 
Q 2169 2928 1744 2928 
Q 1347 2928 1158 2789 
Q 969 2650 878 2297 
L 328 2372 
Q 403 2725 575 2942 
Q 747 3159 1072 3276 
Q 1397 3394 1825 3394 
Q 2250 3394 2515 3294 
Q 2781 3194 2906 3042 
Q 3031 2891 3081 2659 
Q 3109 2516 3109 2141 
L 3109 1391 
Q 3109 606 3145 398 
Q 3181 191 3288 0 
L 2700 0 
Q 2613 175 2588 409 
z
M 2541 1666 
Q 2234 1541 1622 1453 
Q 1275 1403 1131 1340 
Q 988 1278 909 1158 
Q 831 1038 831 891 
Q 831 666 1001 516 
Q 1172 366 1500 366 
Q 1825 366 2078 508 
Q 2331 650 2450 897 
Q 2541 1088 2541 1459 
L 2541 1666 
z
" transform="scale(0.015625)"/>
       <path id="ArialMT-74" d="M 1650 503 
L 1731 6 
Q 1494 -44 1306 -44 
Q 1000 -44 831 53 
Q 663 150 594 308 
Q 525 466 525 972 
L 525 2881 
L 113 2881 
L 113 3319 
L 525 3319 
L 525 4141 
L 1084 4478 
L 1084 3319 
L 1650 3319 
L 1650 2881 
L 1084 2881 
L 1084 941 
Q 1084 700 1114 631 
Q 1144 563 1211 522 
Q 1278 481 1403 481 
Q 1497 481 1650 503 
z
" transform="scale(0.015625)"/>
       <path id="ArialMT-65" d="M 2694 1069 
L 3275 997 
Q 3138 488 2766 206 
Q 2394 -75 1816 -75 
Q 1088 -75 661 373 
Q 234 822 234 1631 
Q 234 2469 665 2931 
Q 1097 3394 1784 3394 
Q 2450 3394 2872 2941 
Q 3294 2488 3294 1666 
Q 3294 1616 3291 1516 
L 816 1516 
Q 847 969 1125 678 
Q 1403 388 1819 388 
Q 2128 388 2347 550 
Q 2566 713 2694 1069 
z
M 847 1978 
L 2700 1978 
Q 2663 2397 2488 2606 
Q 2219 2931 1791 2931 
Q 1403 2931 1139 2672 
Q 875 2413 847 1978 
z
" transform="scale(0.015625)"/>
       <path id="ArialMT-20" transform="scale(0.015625)"/>
       <path id="ArialMT-76" d="M 1344 0 
L 81 3319 
L 675 3319 
L 1388 1331 
Q 1503 1009 1600 663 
Q 1675 925 1809 1294 
L 2547 3319 
L 3125 3319 
L 1869 0 
L 1344 0 
z
" transform="scale(0.015625)"/>
       <path id="ArialMT-6f" d="M 213 1659 
Q 213 2581 725 3025 
Q 1153 3394 1769 3394 
Q 2453 3394 2887 2945 
Q 3322 2497 3322 1706 
Q 3322 1066 3130 698 
Q 2938 331 2570 128 
Q 2203 -75 1769 -75 
Q 1072 -75 642 372 
Q 213 819 213 1659 
z
M 791 1659 
Q 791 1022 1069 705 
Q 1347 388 1769 388 
Q 2188 388 2466 706 
Q 2744 1025 2744 1678 
Q 2744 2294 2464 2611 
Q 2184 2928 1769 2928 
Q 1347 2928 1069 2612 
Q 791 2297 791 1659 
z
" transform="scale(0.015625)"/>
       <path id="ArialMT-6c" d="M 409 0 
L 409 4581 
L 972 4581 
L 972 0 
L 409 0 
z
" transform="scale(0.015625)"/>
       <path id="ArialMT-67" d="M 319 -275 
L 866 -356 
Q 900 -609 1056 -725 
Q 1266 -881 1628 -881 
Q 2019 -881 2231 -725 
Q 2444 -569 2519 -288 
Q 2563 -116 2559 434 
Q 2191 0 1641 0 
Q 956 0 581 494 
Q 206 988 206 1678 
Q 206 2153 378 2554 
Q 550 2956 876 3175 
Q 1203 3394 1644 3394 
Q 2231 3394 2613 2919 
L 2613 3319 
L 3131 3319 
L 3131 450 
Q 3131 -325 2973 -648 
Q 2816 -972 2473 -1159 
Q 2131 -1347 1631 -1347 
Q 1038 -1347 672 -1080 
Q 306 -813 319 -275 
z
M 784 1719 
Q 784 1066 1043 766 
Q 1303 466 1694 466 
Q 2081 466 2343 764 
Q 2606 1063 2606 1700 
Q 2606 2309 2336 2618 
Q 2066 2928 1684 2928 
Q 1309 2928 1046 2623 
Q 784 2319 784 1719 
z
" transform="scale(0.015625)"/>
       <path id="ArialMT-2c" d="M 569 0 
L 569 641 
L 1209 641 
L 1209 0 
Q 1209 -353 1084 -570 
Q 959 -788 688 -906 
L 531 -666 
Q 709 -588 793 -436 
Q 878 -284 888 0 
L 569 0 
z
" transform="scale(0.015625)"/>
       <path id="ArialMT-56" d="M 1803 0 
L 28 4581 
L 684 4581 
L 1875 1253 
Q 2019 853 2116 503 
Q 2222 878 2363 1253 
L 3600 4581 
L 4219 4581 
L 2425 0 
L 1803 0 
z
" transform="scale(0.015625)"/>
       <path id="ArialMT-53" d="M 288 1472 
L 859 1522 
Q 900 1178 1048 958 
Q 1197 738 1509 602 
Q 1822 466 2213 466 
Q 2559 466 2825 569 
Q 3091 672 3220 851 
Q 3350 1031 3350 1244 
Q 3350 1459 3225 1620 
Q 3100 1781 2813 1891 
Q 2628 1963 1997 2114 
Q 1366 2266 1113 2400 
Q 784 2572 623 2826 
Q 463 3081 463 3397 
Q 463 3744 659 4045 
Q 856 4347 1234 4503 
Q 1613 4659 2075 4659 
Q 2584 4659 2973 4495 
Q 3363 4331 3572 4012 
Q 3781 3694 3797 3291 
L 3216 3247 
Q 3169 3681 2898 3903 
Q 2628 4125 2100 4125 
Q 1550 4125 1298 3923 
Q 1047 3722 1047 3438 
Q 1047 3191 1225 3031 
Q 1400 2872 2139 2705 
Q 2878 2538 3153 2413 
Q 3553 2228 3743 1945 
Q 3934 1663 3934 1294 
Q 3934 928 3725 604 
Q 3516 281 3123 101 
Q 2731 -78 2241 -78 
Q 1619 -78 1198 103 
Q 778 284 539 648 
Q 300 1013 288 1472 
z
" transform="scale(0.015625)"/>
       <path id="ArialMT-28" d="M 1497 -1347 
Q 1031 -759 709 28 
Q 388 816 388 1659 
Q 388 2403 628 3084 
Q 909 3875 1497 4659 
L 1900 4659 
Q 1522 4009 1400 3731 
Q 1209 3300 1100 2831 
Q 966 2247 966 1656 
Q 966 153 1900 -1347 
L 1497 -1347 
z
" transform="scale(0.015625)"/>
       <path id="ArialMT-29" d="M 791 -1347 
L 388 -1347 
Q 1322 153 1322 1656 
Q 1322 2244 1188 2822 
Q 1081 3291 891 3722 
Q 769 4003 388 4659 
L 791 4659 
Q 1378 3875 1659 3084 
Q 1900 2403 1900 1659 
Q 1900 816 1576 28 
Q 1253 -759 791 -1347 
z
" transform="scale(0.015625)"/>
      </defs>
      <use xlink:href="#ArialMT-47"/>
      <use xlink:href="#ArialMT-61" x="77.783203"/>
      <use xlink:href="#ArialMT-74" x="133.398438"/>
      <use xlink:href="#ArialMT-65" x="161.181641"/>
      <use xlink:href="#ArialMT-20" x="216.796875"/>
      <use xlink:href="#ArialMT-76" x="244.580078"/>
      <use xlink:href="#ArialMT-6f" x="294.580078"/>
      <use xlink:href="#ArialMT-6c" x="350.195312"/>
      <use xlink:href="#ArialMT-74" x="372.412109"/>
      <use xlink:href="#ArialMT-61" x="400.195312"/>
      <use xlink:href="#ArialMT-67" x="455.810547"/>
      <use xlink:href="#ArialMT-65" x="511.425781"/>
      <use xlink:href="#ArialMT-2c" x="567.041016"/>
      <use xlink:href="#ArialMT-20" x="594.824219"/>
      <use xlink:href="#ArialMT-56" x="622.607422"/>
      <use xlink:href="#ArialMT-47" x="689.306641"/>
      <use xlink:href="#ArialMT-53" x="767.089844"/>
      <use xlink:href="#ArialMT-20" x="833.789062"/>
      <use xlink:href="#ArialMT-28" x="861.572266"/>
      <use xlink:href="#ArialMT-56" x="894.873047"/>
      <use xlink:href="#ArialMT-29" x="961.572266"/>
     </g>
    </g>
   </g>
   <g id="matplotlib.axis_2">
    <g id="ytick_1">
     <g id="line2d_13">
      <path d="M 46.079937 288.182896 
L 675.559636 288.182896 
" clip-path="url(#p2b1f0ba713)" style="fill: none; stroke: #d9dee3; stroke-opacity: 0.75; stroke-width: 0.65; stroke-linecap: square"/>
     </g>
     <g id="line2d_14">
      <defs>
       <path id="m77796c40b2" d="M 0 0 
L -3.5 0 
" style="stroke: #666666; stroke-width: 0.8"/>
      </defs>
      <g>
       <use xlink:href="#m77796c40b2" x="46.079937" y="288.182896" style="fill: #666666; stroke: #666666; stroke-width: 0.8"/>
      </g>
     </g>
     <g id="text_8">
      <!-- $\mathdefault{10^{-13}}$ -->
      <g style="fill: #666666" transform="translate(19.645938 292.411021) scale(0.082 -0.082)">
       <defs>
        <path id="ArialMT-2212" d="M 3381 1997 
L 356 1997 
L 356 2522 
L 3381 2522 
L 3381 1997 
z
" transform="scale(0.015625)"/>
        <path id="ArialMT-33" d="M 269 1209 
L 831 1284 
Q 928 806 1161 595 
Q 1394 384 1728 384 
Q 2125 384 2398 659 
Q 2672 934 2672 1341 
Q 2672 1728 2419 1979 
Q 2166 2231 1775 2231 
Q 1616 2231 1378 2169 
L 1441 2663 
Q 1497 2656 1531 2656 
Q 1891 2656 2178 2843 
Q 2466 3031 2466 3422 
Q 2466 3731 2256 3934 
Q 2047 4138 1716 4138 
Q 1388 4138 1169 3931 
Q 950 3725 888 3313 
L 325 3413 
Q 428 3978 793 4289 
Q 1159 4600 1703 4600 
Q 2078 4600 2393 4439 
Q 2709 4278 2876 4000 
Q 3044 3722 3044 3409 
Q 3044 3113 2884 2869 
Q 2725 2625 2413 2481 
Q 2819 2388 3044 2092 
Q 3269 1797 3269 1353 
Q 3269 753 2831 336 
Q 2394 -81 1725 -81 
Q 1122 -81 723 278 
Q 325 638 269 1209 
z
" transform="scale(0.015625)"/>
       </defs>
       <use xlink:href="#ArialMT-31" transform="translate(0 0.99375)"/>
       <use xlink:href="#ArialMT-30" transform="translate(55.615234 0.99375)"/>
       <use xlink:href="#ArialMT-2212" transform="translate(112.972813 70.6875) scale(0.7)"/>
       <use xlink:href="#ArialMT-31" transform="translate(153.851719 70.6875) scale(0.7)"/>
       <use xlink:href="#ArialMT-33" transform="translate(192.782383 70.6875) scale(0.7)"/>
      </g>
     </g>
    </g>
    <g id="ytick_2">
     <g id="line2d_15">
      <path d="M 46.079937 249.193253 
L 675.559636 249.193253 
" clip-path="url(#p2b1f0ba713)" style="fill: none; stroke: #d9dee3; stroke-opacity: 0.75; stroke-width: 0.65; stroke-linecap: square"/>
     </g>
     <g id="line2d_16">
      <g>
       <use xlink:href="#m77796c40b2" x="46.079937" y="249.193253" style="fill: #666666; stroke: #666666; stroke-width: 0.8"/>
      </g>
     </g>
     <g id="text_9">
      <!-- $\mathdefault{10^{-11}}$ -->
      <g style="fill: #666666" transform="translate(19.645938 253.421378) scale(0.082 -0.082)">
       <use xlink:href="#ArialMT-31" transform="translate(0 0.99375)"/>
       <use xlink:href="#ArialMT-30" transform="translate(55.615234 0.99375)"/>
       <use xlink:href="#ArialMT-2212" transform="translate(112.972813 70.6875) scale(0.7)"/>
       <use xlink:href="#ArialMT-31" transform="translate(153.851719 70.6875) scale(0.7)"/>
       <use xlink:href="#ArialMT-31" transform="translate(192.782383 70.6875) scale(0.7)"/>
      </g>
     </g>
    </g>
    <g id="ytick_3">
     <g id="line2d_17">
      <path d="M 46.079937 210.20361 
L 675.559636 210.20361 
" clip-path="url(#p2b1f0ba713)" style="fill: none; stroke: #d9dee3; stroke-opacity: 0.75; stroke-width: 0.65; stroke-linecap: square"/>
     </g>
     <g id="line2d_18">
      <g>
       <use xlink:href="#m77796c40b2" x="46.079937" y="210.20361" style="fill: #666666; stroke: #666666; stroke-width: 0.8"/>
      </g>
     </g>
     <g id="text_10">
      <!-- $\mathdefault{10^{-9}}$ -->
      <g style="fill: #666666" transform="translate(22.843938 214.431735) scale(0.082 -0.082)">
       <defs>
        <path id="ArialMT-39" d="M 350 1059 
L 891 1109 
Q 959 728 1153 556 
Q 1347 384 1650 384 
Q 1909 384 2104 503 
Q 2300 622 2425 820 
Q 2550 1019 2634 1356 
Q 2719 1694 2719 2044 
Q 2719 2081 2716 2156 
Q 2547 1888 2255 1720 
Q 1963 1553 1622 1553 
Q 1053 1553 659 1965 
Q 266 2378 266 3053 
Q 266 3750 677 4175 
Q 1088 4600 1706 4600 
Q 2153 4600 2523 4359 
Q 2894 4119 3086 3673 
Q 3278 3228 3278 2384 
Q 3278 1506 3087 986 
Q 2897 466 2520 194 
Q 2144 -78 1638 -78 
Q 1100 -78 759 220 
Q 419 519 350 1059 
z
M 2653 3081 
Q 2653 3566 2395 3850 
Q 2138 4134 1775 4134 
Q 1400 4134 1122 3828 
Q 844 3522 844 3034 
Q 844 2597 1108 2323 
Q 1372 2050 1759 2050 
Q 2150 2050 2401 2323 
Q 2653 2597 2653 3081 
z
" transform="scale(0.015625)"/>
       </defs>
       <use xlink:href="#ArialMT-31" transform="translate(0 0.99375)"/>
       <use xlink:href="#ArialMT-30" transform="translate(55.615234 0.99375)"/>
       <use xlink:href="#ArialMT-2212" transform="translate(112.972813 70.6875) scale(0.7)"/>
       <use xlink:href="#ArialMT-39" transform="translate(153.851719 70.6875) scale(0.7)"/>
      </g>
     </g>
    </g>
    <g id="ytick_4">
     <g id="line2d_19">
      <path d="M 46.079937 171.213967 
L 675.559636 171.213967 
" clip-path="url(#p2b1f0ba713)" style="fill: none; stroke: #d9dee3; stroke-opacity: 0.75; stroke-width: 0.65; stroke-linecap: square"/>
     </g>
     <g id="line2d_20">
      <g>
       <use xlink:href="#m77796c40b2" x="46.079937" y="171.213967" style="fill: #666666; stroke: #666666; stroke-width: 0.8"/>
      </g>
     </g>
     <g id="text_11">
      <!-- $\mathdefault{10^{-7}}$ -->
      <g style="fill: #666666" transform="translate(22.843938 175.401092) scale(0.082 -0.082)">
       <defs>
        <path id="ArialMT-37" d="M 303 3981 
L 303 4522 
L 3269 4522 
L 3269 4084 
Q 2831 3619 2401 2847 
Q 1972 2075 1738 1259 
Q 1569 684 1522 0 
L 944 0 
Q 953 541 1156 1306 
Q 1359 2072 1739 2783 
Q 2119 3494 2547 3981 
L 303 3981 
z
" transform="scale(0.015625)"/>
       </defs>
       <use xlink:href="#ArialMT-31" transform="translate(0 0.846875)"/>
       <use xlink:href="#ArialMT-30" transform="translate(55.615234 0.846875)"/>
       <use xlink:href="#ArialMT-2212" transform="translate(112.972813 70.540625) scale(0.7)"/>
       <use xlink:href="#ArialMT-37" transform="translate(153.851719 70.540625) scale(0.7)"/>
      </g>
     </g>
    </g>
    <g id="ytick_5">
     <g id="line2d_21">
      <path d="M 46.079937 132.224324 
L 675.559636 132.224324 
" clip-path="url(#p2b1f0ba713)" style="fill: none; stroke: #d9dee3; stroke-opacity: 0.75; stroke-width: 0.65; stroke-linecap: square"/>
     </g>
     <g id="line2d_22">
      <g>
       <use xlink:href="#m77796c40b2" x="46.079937" y="132.224324" style="fill: #666666; stroke: #666666; stroke-width: 0.8"/>
      </g>
     </g>
     <g id="text_12">
      <!-- $\mathdefault{10^{-5}}$ -->
      <g style="fill: #666666" transform="translate(22.843938 136.411449) scale(0.082 -0.082)">
       <use xlink:href="#ArialMT-31" transform="translate(0 0.879688)"/>
       <use xlink:href="#ArialMT-30" transform="translate(55.615234 0.879688)"/>
       <use xlink:href="#ArialMT-2212" transform="translate(112.972813 70.573438) scale(0.7)"/>
       <use xlink:href="#ArialMT-35" transform="translate(153.851719 70.573438) scale(0.7)"/>
      </g>
     </g>
    </g>
    <g id="ytick_6">
     <g id="line2d_23">
      <path d="M 46.079937 93.234681 
L 675.559636 93.234681 
" clip-path="url(#p2b1f0ba713)" style="fill: none; stroke: #d9dee3; stroke-opacity: 0.75; stroke-width: 0.65; stroke-linecap: square"/>
     </g>
     <g id="line2d_24">
      <g>
       <use xlink:href="#m77796c40b2" x="46.079937" y="93.234681" style="fill: #666666; stroke: #666666; stroke-width: 0.8"/>
      </g>
     </g>
     <g id="text_13">
      <!-- $\mathdefault{10^{-3}}$ -->
      <g style="fill: #666666" transform="translate(22.843938 97.462806) scale(0.082 -0.082)">
       <use xlink:href="#ArialMT-31" transform="translate(0 0.99375)"/>
       <use xlink:href="#ArialMT-30" transform="translate(55.615234 0.99375)"/>
       <use xlink:href="#ArialMT-2212" transform="translate(112.972813 70.6875) scale(0.7)"/>
       <use xlink:href="#ArialMT-33" transform="translate(153.851719 70.6875) scale(0.7)"/>
      </g>
     </g>
    </g>
    <g id="ytick_7">
     <g id="line2d_25">
      <path d="M 46.079937 54.245038 
L 675.559636 54.245038 
" clip-path="url(#p2b1f0ba713)" style="fill: none; stroke: #d9dee3; stroke-opacity: 0.75; stroke-width: 0.65; stroke-linecap: square"/>
     </g>
     <g id="line2d_26">
      <g>
       <use xlink:href="#m77796c40b2" x="46.079937" y="54.245038" style="fill: #666666; stroke: #666666; stroke-width: 0.8"/>
      </g>
     </g>
     <g id="text_14">
      <!-- $\mathdefault{10^{-1}}$ -->
      <g style="fill: #666666" transform="translate(22.843938 58.473163) scale(0.082 -0.082)">
       <use xlink:href="#ArialMT-31" transform="translate(0 0.99375)"/>
       <use xlink:href="#ArialMT-30" transform="translate(55.615234 0.99375)"/>
       <use xlink:href="#ArialMT-2212" transform="translate(112.972813 70.6875) scale(0.7)"/>
       <use xlink:href="#ArialMT-31" transform="translate(153.851719 70.6875) scale(0.7)"/>
      </g>
     </g>
    </g>
    <g id="text_15">
     <!-- Absolute drain current, |ID| (A) -->
     <g style="fill: #666666" transform="translate(13.751719 225.954112) rotate(-90) scale(0.09 -0.09)">
      <defs>
       <path id="ArialMT-41" d="M -9 0 
L 1750 4581 
L 2403 4581 
L 4278 0 
L 3588 0 
L 3053 1388 
L 1138 1388 
L 634 0 
L -9 0 
z
M 1313 1881 
L 2866 1881 
L 2388 3150 
Q 2169 3728 2063 4100 
Q 1975 3659 1816 3225 
L 1313 1881 
z
" transform="scale(0.015625)"/>
       <path id="ArialMT-62" d="M 941 0 
L 419 0 
L 419 4581 
L 981 4581 
L 981 2947 
Q 1338 3394 1891 3394 
Q 2197 3394 2470 3270 
Q 2744 3147 2920 2923 
Q 3097 2700 3197 2384 
Q 3297 2069 3297 1709 
Q 3297 856 2875 390 
Q 2453 -75 1863 -75 
Q 1275 -75 941 416 
L 941 0 
z
M 934 1684 
Q 934 1088 1097 822 
Q 1363 388 1816 388 
Q 2184 388 2453 708 
Q 2722 1028 2722 1663 
Q 2722 2313 2464 2622 
Q 2206 2931 1841 2931 
Q 1472 2931 1203 2611 
Q 934 2291 934 1684 
z
" transform="scale(0.015625)"/>
       <path id="ArialMT-73" d="M 197 991 
L 753 1078 
Q 800 744 1014 566 
Q 1228 388 1613 388 
Q 2000 388 2187 545 
Q 2375 703 2375 916 
Q 2375 1106 2209 1216 
Q 2094 1291 1634 1406 
Q 1016 1563 777 1677 
Q 538 1791 414 1992 
Q 291 2194 291 2438 
Q 291 2659 392 2848 
Q 494 3038 669 3163 
Q 800 3259 1026 3326 
Q 1253 3394 1513 3394 
Q 1903 3394 2198 3281 
Q 2494 3169 2634 2976 
Q 2775 2784 2828 2463 
L 2278 2388 
Q 2241 2644 2061 2787 
Q 1881 2931 1553 2931 
Q 1166 2931 1000 2803 
Q 834 2675 834 2503 
Q 834 2394 903 2306 
Q 972 2216 1119 2156 
Q 1203 2125 1616 2013 
Q 2213 1853 2448 1751 
Q 2684 1650 2818 1456 
Q 2953 1263 2953 975 
Q 2953 694 2789 445 
Q 2625 197 2315 61 
Q 2006 -75 1616 -75 
Q 969 -75 630 194 
Q 291 463 197 991 
z
" transform="scale(0.015625)"/>
       <path id="ArialMT-75" d="M 2597 0 
L 2597 488 
Q 2209 -75 1544 -75 
Q 1250 -75 995 37 
Q 741 150 617 320 
Q 494 491 444 738 
Q 409 903 409 1263 
L 409 3319 
L 972 3319 
L 972 1478 
Q 972 1038 1006 884 
Q 1059 663 1231 536 
Q 1403 409 1656 409 
Q 1909 409 2131 539 
Q 2353 669 2445 892 
Q 2538 1116 2538 1541 
L 2538 3319 
L 3100 3319 
L 3100 0 
L 2597 0 
z
" transform="scale(0.015625)"/>
       <path id="ArialMT-64" d="M 2575 0 
L 2575 419 
Q 2259 -75 1647 -75 
Q 1250 -75 917 144 
Q 584 363 401 755 
Q 219 1147 219 1656 
Q 219 2153 384 2558 
Q 550 2963 881 3178 
Q 1213 3394 1622 3394 
Q 1922 3394 2156 3267 
Q 2391 3141 2538 2938 
L 2538 4581 
L 3097 4581 
L 3097 0 
L 2575 0 
z
M 797 1656 
Q 797 1019 1065 703 
Q 1334 388 1700 388 
Q 2069 388 2326 689 
Q 2584 991 2584 1609 
Q 2584 2291 2321 2609 
Q 2059 2928 1675 2928 
Q 1300 2928 1048 2622 
Q 797 2316 797 1656 
z
" transform="scale(0.015625)"/>
       <path id="ArialMT-72" d="M 416 0 
L 416 3319 
L 922 3319 
L 922 2816 
Q 1116 3169 1280 3281 
Q 1444 3394 1641 3394 
Q 1925 3394 2219 3213 
L 2025 2691 
Q 1819 2813 1613 2813 
Q 1428 2813 1281 2702 
Q 1134 2591 1072 2394 
Q 978 2094 978 1738 
L 978 0 
L 416 0 
z
" transform="scale(0.015625)"/>
       <path id="ArialMT-69" d="M 425 3934 
L 425 4581 
L 988 4581 
L 988 3934 
L 425 3934 
z
M 425 0 
L 425 3319 
L 988 3319 
L 988 0 
L 425 0 
z
" transform="scale(0.015625)"/>
       <path id="ArialMT-6e" d="M 422 0 
L 422 3319 
L 928 3319 
L 928 2847 
Q 1294 3394 1984 3394 
Q 2284 3394 2536 3286 
Q 2788 3178 2913 3003 
Q 3038 2828 3088 2588 
Q 3119 2431 3119 2041 
L 3119 0 
L 2556 0 
L 2556 2019 
Q 2556 2363 2490 2533 
Q 2425 2703 2258 2804 
Q 2091 2906 1866 2906 
Q 1506 2906 1245 2678 
Q 984 2450 984 1813 
L 984 0 
L 422 0 
z
" transform="scale(0.015625)"/>
       <path id="ArialMT-63" d="M 2588 1216 
L 3141 1144 
Q 3050 572 2676 248 
Q 2303 -75 1759 -75 
Q 1078 -75 664 370 
Q 250 816 250 1647 
Q 250 2184 428 2587 
Q 606 2991 970 3192 
Q 1334 3394 1763 3394 
Q 2303 3394 2647 3120 
Q 2991 2847 3088 2344 
L 2541 2259 
Q 2463 2594 2264 2762 
Q 2066 2931 1784 2931 
Q 1359 2931 1093 2626 
Q 828 2322 828 1663 
Q 828 994 1084 691 
Q 1341 388 1753 388 
Q 2084 388 2306 591 
Q 2528 794 2588 1216 
z
" transform="scale(0.015625)"/>
       <path id="ArialMT-7c" d="M 588 -1347 
L 588 4659 
L 1078 4659 
L 1078 -1347 
L 588 -1347 
z
" transform="scale(0.015625)"/>
       <path id="ArialMT-49" d="M 597 0 
L 597 4581 
L 1203 4581 
L 1203 0 
L 597 0 
z
" transform="scale(0.015625)"/>
       <path id="ArialMT-44" d="M 494 0 
L 494 4581 
L 2072 4581 
Q 2606 4581 2888 4516 
Q 3281 4425 3559 4188 
Q 3922 3881 4101 3404 
Q 4281 2928 4281 2316 
Q 4281 1794 4159 1391 
Q 4038 988 3847 723 
Q 3656 459 3429 307 
Q 3203 156 2883 78 
Q 2563 0 2147 0 
L 494 0 
z
M 1100 541 
L 2078 541 
Q 2531 541 2789 625 
Q 3047 709 3200 863 
Q 3416 1078 3536 1442 
Q 3656 1806 3656 2325 
Q 3656 3044 3420 3430 
Q 3184 3816 2847 3947 
Q 2603 4041 2063 4041 
L 1100 4041 
L 1100 541 
z
" transform="scale(0.015625)"/>
      </defs>
      <use xlink:href="#ArialMT-41"/>
      <use xlink:href="#ArialMT-62" x="66.699219"/>
      <use xlink:href="#ArialMT-73" x="122.314453"/>
      <use xlink:href="#ArialMT-6f" x="172.314453"/>
      <use xlink:href="#ArialMT-6c" x="227.929688"/>
      <use xlink:href="#ArialMT-75" x="250.146484"/>
      <use xlink:href="#ArialMT-74" x="305.761719"/>
      <use xlink:href="#ArialMT-65" x="333.544922"/>
      <use xlink:href="#ArialMT-20" x="389.160156"/>
      <use xlink:href="#ArialMT-64" x="416.943359"/>
      <use xlink:href="#ArialMT-72" x="472.558594"/>
      <use xlink:href="#ArialMT-61" x="505.859375"/>
      <use xlink:href="#ArialMT-69" x="561.474609"/>
      <use xlink:href="#ArialMT-6e" x="583.691406"/>
      <use xlink:href="#ArialMT-20" x="639.306641"/>
      <use xlink:href="#ArialMT-63" x="667.089844"/>
      <use xlink:href="#ArialMT-75" x="717.089844"/>
      <use xlink:href="#ArialMT-72" x="772.705078"/>
      <use xlink:href="#ArialMT-72" x="806.005859"/>
      <use xlink:href="#ArialMT-65" x="839.306641"/>
      <use xlink:href="#ArialMT-6e" x="894.921875"/>
      <use xlink:href="#ArialMT-74" x="950.537109"/>
      <use xlink:href="#ArialMT-2c" x="978.320312"/>
      <use xlink:href="#ArialMT-20" x="1006.103516"/>
      <use xlink:href="#ArialMT-7c" x="1033.886719"/>
      <use xlink:href="#ArialMT-49" x="1059.863281"/>
      <use xlink:href="#ArialMT-44" x="1087.646484"/>
      <use xlink:href="#ArialMT-7c" x="1159.863281"/>
      <use xlink:href="#ArialMT-20" x="1185.839844"/>
      <use xlink:href="#ArialMT-28" x="1213.623047"/>
      <use xlink:href="#ArialMT-41" x="1246.923828"/>
      <use xlink:href="#ArialMT-29" x="1313.623047"/>
     </g>
    </g>
   </g>
   <g id="line2d_27">
    <path d="M 279.069177 259.368792 
L 280.091063 261.084444 
L 281.11295 255.579966 
L 282.134817 254.306236 
L 283.156703 255.279959 
L 284.17859 259.250036 
L 285.200476 255.428634 
L 286.222363 259.6111 
L 287.24423 253.374075 
L 288.266116 258.356545 
L 289.288003 254.372175 
L 290.309889 255.812262 
L 291.331776 254.990127 
L 292.353643 255.503962 
L 293.375529 254.047499 
L 294.397416 257.171482 
L 295.419303 253.433115 
L 296.441189 254.641278 
L 297.463056 254.641278 
L 298.484943 252.695811 
L 299.506829 254.505701 
L 300.528716 253.315444 
L 301.550602 252.695811 
L 302.572469 253.433115 
L 303.594356 251.577961 
L 304.616242 251.722007 
L 305.638129 254.047499 
L 306.660015 253.084821 
L 307.681882 253.49257 
L 308.703769 255.061637 
L 309.725655 252.428478 
L 310.747542 253.084821 
L 311.769428 251.389715 
L 312.791296 251.770551 
L 313.813182 250.38149 
L 314.835069 251.069915 
L 315.856955 250.848687 
L 316.878842 250.137096 
L 317.900709 252.323891 
L 318.922595 252.376023 
L 319.944482 251.625684 
L 320.966368 251.483315 
L 321.988245 251.770551 
L 323.010132 250.936521 
L 324.032008 252.971861 
L 325.053895 254.438719 
L 326.075781 252.220514 
L 327.097658 250.761813 
L 328.119545 252.58782 
L 329.141421 250.38149 
L 330.163308 249.860617 
L 331.185195 252.11845 
L 332.207071 251.577961 
L 333.228958 251.34324 
L 334.250835 253.673482 
L 335.272721 251.436386 
L 336.294608 254.779062 
L 337.316484 254.779062 
L 338.338371 251.868482 
L 339.360248 254.306236 
L 340.382134 252.272079 
L 341.404021 251.673677 
L 342.425898 254.175795 
L 343.447784 251.160027 
L 344.469661 253.49257 
L 345.491547 251.160027 
L 346.513434 251.297079 
L 347.535311 253.920955 
L 348.557197 251.114851 
L 349.579074 252.58782 
L 350.600961 255.20659 
L 352.644724 251.025216 
L 353.66661 252.017536 
L 354.688487 252.481259 
L 355.710374 251.251168 
L 356.73226 251.34324 
L 357.754137 250.46453 
L 358.776024 250.718707 
L 359.7979 252.017536 
L 360.819787 251.577961 
L 361.841673 250.848687 
L 362.86355 250.892519 
L 363.885437 251.530506 
L 364.907313 250.848687 
L 365.9292 250.892519 
L 366.951086 254.438719 
L 367.972963 253.25714 
L 368.99485 252.272079 
L 370.016727 251.819375 
L 371.038613 252.067876 
L 372.0605 252.695811 
L 373.082376 251.673677 
L 374.104263 252.695811 
L 375.12614 255.891098 
L 377.169913 251.530506 
L 378.19179 251.868482 
L 379.213676 252.971861 
L 380.235553 251.436386 
L 381.257439 250.805139 
L 382.279326 252.376023 
L 383.301203 251.436386 
L 384.323089 253.315444 
L 385.344966 251.819375 
L 386.366852 250.805139 
L 387.388739 251.722007 
L 388.410616 251.251168 
L 389.432502 251.114851 
L 390.454379 251.251168 
L 391.476266 252.067876 
L 392.498152 251.297079 
L 393.520029 253.028079 
L 394.541915 252.750291 
L 395.563792 253.858426 
L 396.585679 250.34022 
L 397.607565 252.805124 
L 398.629442 252.017536 
L 399.651329 251.577961 
L 400.673205 251.577961 
L 401.695092 250.718707 
L 402.716974 251.114851 
L 403.738855 250.892519 
L 404.760742 250.38149 
L 405.782623 251.297079 
L 406.804505 253.19931 
L 407.826387 250.137096 
L 408.848268 250.34022 
L 409.870155 251.625684 
L 410.892037 250.177332 
L 411.913918 250.506357 
L 412.9358 250.177332 
L 413.957681 251.251168 
L 414.979568 253.673482 
L 416.00145 249.224493 
L 417.023331 253.673482 
L 418.045213 254.111446 
L 419.067095 252.376023 
L 420.088981 254.047499 
L 421.110863 252.860387 
L 422.132744 252.805124 
L 423.154626 250.46453 
L 424.176508 255.279959 
L 426.220276 251.114851 
L 427.242158 254.240807 
L 428.264039 252.91594 
L 429.285921 250.67582 
L 430.307807 250.718707 
L 431.329689 253.920955 
L 432.351571 254.573219 
L 433.373452 252.641679 
L 435.417221 251.251168 
L 436.439102 250.848687 
L 437.460984 253.49257 
L 438.482866 251.722007 
L 439.504747 251.770551 
L 440.526634 253.374075 
L 441.548515 251.389715 
L 442.570397 253.374075 
L 443.592279 253.796355 
L 444.614163 257.35791 
L 445.636044 259.338285 
L 446.657929 247.823805 
L 447.67981 241.911525 
L 448.701692 236.966354 
L 449.723576 232.785459 
L 450.745458 229.928785 
L 451.767342 227.592547 
L 452.789223 226.243985 
L 453.811105 225.330278 
L 454.832989 225.027053 
L 455.854871 225.315284 
L 456.876755 225.731991 
L 460.964284 229.69942 
L 461.986168 230.399242 
L 466.073697 232.596242 
L 468.117463 233.14464 
L 469.139346 233.204199 
L 470.161228 233.713696 
L 472.204993 233.829912 
L 473.226876 234.061211 
L 474.248759 233.742605 
L 475.270641 234.480273 
L 476.292524 234.206758 
L 477.314406 234.581963 
L 478.336289 234.588354 
L 479.358172 234.268148 
L 480.380054 234.659037 
L 481.401937 234.659037 
L 482.423819 234.342409 
L 484.467585 234.486591 
L 485.489467 234.981264 
L 486.51135 234.255836 
L 487.533233 233.742605 
L 489.576998 234.151884 
L 491.620763 233.912212 
L 492.642646 233.280613 
L 493.664528 233.800704 
L 494.686411 233.621868 
L 495.708294 233.564971 
L 496.730176 233.177072 
L 497.752059 233.187913 
L 498.773942 232.621567 
L 499.795824 231.749912 
L 500.817707 231.690628 
L 501.839589 230.934703 
L 502.861472 230.672808 
L 503.883355 230.036494 
L 504.905236 228.659664 
L 505.92712 227.859983 
L 507.970886 224.857088 
L 510.014649 220.951204 
L 511.036534 218.70755 
L 513.080299 213.258055 
L 515.124063 207.081343 
L 518.189712 196.780328 
L 521.25536 185.645059 
L 525.342889 169.911022 
L 529.43042 153.470286 
L 535.561715 127.671398 
L 543.736778 92.918132 
L 546.802423 80.836622 
L 548.846191 73.695778 
L 550.889955 67.666153 
L 551.911836 65.238762 
L 552.933723 63.262759 
L 553.955604 61.7443 
L 554.977486 60.62933 
L 555.999368 59.833373 
L 557.021249 59.270061 
L 559.065018 58.584086 
L 561.108781 58.219121 
L 564.174431 57.946852 
L 569.283839 57.76986 
L 580.524552 57.669297 
L 624.465507 57.623057 
L 646.946923 57.618011 
L 646.946923 57.618011 
" clip-path="url(#p2b1f0ba713)" style="fill: none; stroke: #dceaf5; stroke-width: 1.55; stroke-linecap: square"/>
   </g>
   <g id="line2d_28">
    <path d="M 279.069177 251.855889 
L 280.091063 253.300429 
L 281.11295 252.627812 
L 282.134817 251.613446 
L 283.156703 256.613753 
L 284.17859 251.285307 
L 285.200476 256.788058 
L 286.222363 253.90491 
L 287.24423 250.45386 
L 288.266116 256.275499 
L 289.288003 251.758039 
L 290.309889 255.484573 
L 291.331776 253.477278 
L 292.353643 252.362618 
L 293.375529 256.275499 
L 294.397416 254.224103 
L 295.419303 256.192911 
L 296.441189 260.760566 
L 297.463056 258.652543 
L 298.484943 255.187821 
L 299.506829 252.846158 
L 300.528716 255.636967 
L 301.550602 252.901617 
L 302.572469 254.159303 
L 303.594356 254.03113 
L 304.616242 252.520715 
L 305.638129 252.846158 
L 306.660015 250.370897 
L 307.681882 251.709567 
L 308.703769 251.285307 
L 309.725655 249.179328 
L 310.747542 251.013816 
L 311.769428 248.040382 
L 312.791296 246.445355 
L 313.813182 246.576169 
L 314.835069 245.844173 
L 315.856955 246.762777 
L 316.878842 245.32822 
L 317.900709 244.756438 
L 318.922595 244.950012 
L 319.944482 243.660864 
L 320.966368 244.777726 
L 321.988245 243.54948 
L 323.010132 243.830706 
L 324.032008 245.535502 
L 325.053895 244.422848 
L 326.075781 244.971822 
L 328.119545 244.971822 
L 329.141421 245.373836 
L 330.163308 245.237704 
L 331.185195 246.655653 
L 332.207071 246.762777 
L 333.228958 248.624224 
L 334.250835 246.735855 
L 335.272721 248.657886 
L 336.294608 249.251329 
L 337.316484 247.612592 
L 338.338371 251.193829 
L 339.360248 249.773372 
L 340.382134 249.072439 
L 341.404021 253.184575 
L 342.425898 252.207387 
L 343.447784 253.537045 
L 344.469661 251.103359 
L 345.491547 251.103359 
L 346.513434 253.477278 
L 348.557197 253.242304 
L 349.579074 251.193829 
L 350.600961 254.224103 
L 351.622847 254.094995 
L 352.644724 252.310535 
L 353.66661 253.184575 
L 354.688487 255.261028 
L 355.710374 252.362618 
L 356.73226 253.127199 
L 357.754137 250.288739 
L 358.776024 250.925182 
L 359.7979 250.622237 
L 360.819787 253.842499 
L 361.841673 250.495634 
L 362.86355 250.925182 
L 363.885437 251.058455 
L 364.907313 251.377753 
L 365.9292 249.811913 
L 366.951086 251.148473 
L 367.972963 251.193829 
L 368.99485 249.620914 
L 370.016727 249.323972 
L 371.038613 249.545691 
L 372.0605 247.642436 
L 373.082376 248.457981 
L 374.104263 247.946893 
L 375.12614 247.262358 
L 376.148026 246.015151 
L 377.169913 245.795927 
L 378.19179 246.164492 
L 379.213676 244.971822 
L 380.235553 246.015151 
L 381.257439 242.558691 
L 382.279326 242.859233 
L 383.301203 243.531064 
L 384.323089 242.25262 
L 385.344966 242.111421 
L 386.366852 241.835877 
L 387.388739 241.086814 
L 388.410616 240.990859 
L 389.432502 239.449786 
L 390.454379 239.170394 
L 391.476266 238.136778 
L 392.498152 238.078591 
L 393.520029 237.329945 
L 394.541915 236.781941 
L 395.563792 236.036374 
L 397.607565 234.82848 
L 399.651329 233.413236 
L 402.716974 231.627245 
L 403.738855 230.880846 
L 404.760742 230.395339 
L 411.913918 225.40781 
L 413.957681 223.867118 
L 416.00145 222.424535 
L 427.242158 213.819817 
L 430.307807 212.053748 
L 432.351571 211.224716 
L 434.395334 210.788407 
L 435.417221 210.674872 
L 437.460984 210.823114 
L 439.504747 211.251095 
L 445.636044 212.757441 
L 449.723576 213.143431 
L 453.811105 213.059476 
L 455.854871 212.914776 
L 457.898636 212.492126 
L 458.920518 212.244922 
L 459.942402 211.812764 
L 460.964284 211.150083 
L 461.986168 210.223841 
L 463.00805 208.846647 
L 464.029932 207.043177 
L 465.051815 204.772348 
L 466.073697 201.961381 
L 468.117463 195.313467 
L 472.204993 180.185195 
L 475.270641 168.979876 
L 479.358172 155.044593 
L 485.489467 134.617721 
L 489.576998 121.494667 
L 495.708294 103.257328 
L 498.773942 94.855094 
L 501.839589 86.847015 
L 504.905236 79.521205 
L 507.970886 72.792525 
L 510.014649 68.839792 
L 512.058415 65.422574 
L 514.102181 62.632494 
L 515.124063 61.486945 
L 517.167828 59.681635 
L 519.211594 58.420429 
L 521.25536 57.573064 
L 523.299126 57.01001 
L 526.364771 56.497193 
L 530.452302 56.145053 
L 536.583597 55.920982 
L 547.82431 55.797139 
L 581.546438 55.739961 
L 646.946923 55.724834 
L 646.946923 55.724834 
" clip-path="url(#p2b1f0ba713)" style="fill: none; stroke: #b7d4ea; stroke-width: 1.55; stroke-linecap: square"/>
   </g>
   <g id="line2d_29">
    <path d="M 279.069177 237.784341 
L 281.11295 238.773258 
L 282.134817 240.050251 
L 283.156703 240.85584 
L 284.17859 240.630796 
L 285.200476 240.936708 
L 286.222363 241.598481 
L 287.24423 242.034206 
L 288.266116 242.8595 
L 289.288003 244.281255 
L 290.309889 243.984924 
L 291.331776 244.77806 
L 292.353643 244.443634 
L 293.375529 245.796305 
L 294.397416 246.015539 
L 295.419303 245.796305 
L 296.441189 246.656054 
L 297.463056 247.94738 
L 298.484943 245.917412 
L 299.506829 247.092968 
L 300.528716 247.436122 
L 301.550602 247.61306 
L 302.572469 248.794358 
L 304.616242 247.824285 
L 305.638129 248.072291 
L 306.660015 246.682705 
L 307.681882 251.286029 
L 308.703769 248.624773 
L 309.725655 248.726103 
L 311.769428 247.29146 
L 312.791296 247.854886 
L 313.813182 246.954005 
L 314.835069 249.621508 
L 315.856955 248.967431 
L 316.878842 247.121033 
L 317.900709 247.61306 
L 318.922595 247.092968 
L 319.944482 249.39782 
L 320.966368 246.394008 
L 321.988245 247.916443 
L 324.032008 246.471775 
L 325.053895 247.436122 
L 326.075781 246.445779 
L 327.097658 246.015539 
L 328.119545 245.917412 
L 329.141421 244.820813 
L 330.163308 244.799417 
L 331.185195 244.22114 
L 332.207071 244.65111 
L 333.228958 244.301379 
L 334.250835 243.153491 
L 335.272721 242.189819 
L 336.294608 243.259742 
L 337.316484 242.096102 
L 338.338371 241.642531 
L 339.360248 241.686811 
L 340.382134 240.604715 
L 341.404021 240.936708 
L 342.425898 240.185502 
L 343.447784 238.752295 
L 344.469661 239.018025 
L 345.491547 238.185706 
L 346.513434 238.313902 
L 347.535311 237.859342 
L 348.557197 236.699551 
L 349.579074 236.561105 
L 350.600961 235.69424 
L 351.622847 235.062176 
L 353.66661 234.646229 
L 354.688487 233.441212 
L 355.710374 233.275209 
L 356.73226 232.396399 
L 358.776024 231.708883 
L 361.841673 229.556992 
L 362.86355 229.02651 
L 363.885437 228.761975 
L 367.972963 226.003851 
L 368.99485 225.554051 
L 370.016727 224.792479 
L 371.038613 224.271644 
L 373.082376 222.937149 
L 375.12614 221.742434 
L 377.169913 220.347008 
L 378.19179 219.786407 
L 380.235553 218.421216 
L 393.520029 209.665874 
L 398.629442 206.685131 
L 401.695092 205.136118 
L 404.760742 203.837648 
L 407.826387 202.86785 
L 409.870155 202.430259 
L 412.9358 202.025242 
L 416.00145 201.705722 
L 417.023331 201.488433 
L 418.045213 201.108331 
L 419.067095 200.473729 
L 420.088981 199.524273 
L 421.110863 198.150595 
L 422.132744 196.416399 
L 423.154626 194.311734 
L 425.198394 189.335799 
L 440.526634 148.820978 
L 451.767342 118.751201 
L 460.964284 96.074458 
L 465.051815 86.868995 
L 468.117463 80.493182 
L 472.204993 72.833674 
L 474.248759 69.434065 
L 476.292524 66.422681 
L 478.336289 63.858835 
L 480.380054 61.759942 
L 482.423819 60.128469 
L 484.467585 58.911648 
L 486.51135 58.034051 
L 488.555115 57.406615 
L 491.620763 56.790322 
L 494.686411 56.419321 
L 499.795824 56.088613 
L 506.949002 55.8922 
L 521.25536 55.775818 
L 566.218199 55.725813 
L 646.946923 55.715097 
L 646.946923 55.715097 
" clip-path="url(#p2b1f0ba713)" style="fill: none; stroke: #8dbdde; stroke-width: 1.55; stroke-linecap: square"/>
   </g>
   <g id="line2d_30">
    <path d="M 197.318566 242.979806 
L 198.340453 243.717942 
L 199.362339 245.443766 
L 200.384206 245.238706 
L 201.406093 246.215998 
L 202.42798 248.073196 
L 203.449866 246.420574 
L 204.471753 247.150022 
L 205.49362 248.659386 
L 206.515506 247.643767 
L 207.537393 249.509999 
L 208.559279 247.613918 
L 209.581166 249.509999 
L 210.603033 248.558826 
L 211.624919 248.073196 
L 212.646806 249.216878 
L 213.668692 248.328735 
L 214.690579 248.041797 
L 215.712446 248.761155 
L 217.756219 250.752682 
L 218.778105 250.128588 
L 219.799992 248.328735 
L 220.821859 249.58488 
L 221.843746 251.060447 
L 222.865632 249.930395 
L 223.887519 250.331586 
L 224.909405 247.206626 
L 225.931272 251.567907 
L 226.953159 247.979346 
L 227.975045 249.509999 
L 228.996932 248.393828 
L 230.018818 246.065754 
L 231.040685 246.215998 
L 232.062572 245.991613 
L 233.084458 247.178276 
L 234.106345 246.55102 
L 235.128231 246.368973 
L 236.150098 244.864389 
L 237.171985 243.136421 
L 238.193871 243.717942 
L 239.215758 244.609791 
L 240.237645 243.793518 
L 241.259512 242.809148 
L 242.281398 241.296785 
L 243.303285 240.829417 
L 244.325171 241.496991 
L 245.347058 240.736311 
L 246.368925 240.977812 
L 247.390811 240.991447 
L 248.412698 239.645683 
L 250.456471 238.763058 
L 251.478338 239.739236 
L 252.500224 239.739236 
L 253.522111 238.44434 
L 254.543997 238.921694 
L 255.565884 238.773546 
L 256.587751 239.105152 
L 257.609638 239.917464 
L 258.631524 239.610869 
L 259.653411 238.815609 
L 260.675297 239.833819 
L 261.697164 239.634065 
L 262.719051 239.774575 
L 263.740937 239.553168 
L 264.762824 239.634065 
L 265.78471 240.235564 
L 266.806577 239.929478 
L 267.828464 240.373832 
L 268.85035 240.618104 
L 270.894123 240.883077 
L 271.91599 241.156622 
L 272.937877 241.226404 
L 273.959763 240.829417 
L 274.98165 240.991447 
L 276.003537 240.424673 
L 277.025404 241.296785 
L 278.04729 241.032433 
L 279.069177 241.702027 
L 280.091063 241.059877 
L 281.11295 240.736311 
L 283.156703 240.856209 
L 285.200476 239.953556 
L 286.222363 240.323295 
L 287.24423 239.657332 
L 288.266116 239.170862 
L 291.331776 239.645683 
L 293.375529 238.794548 
L 294.397416 238.731684 
L 295.419303 238.098348 
L 296.441189 237.973357 
L 297.463056 237.963814 
L 298.484943 237.636555 
L 299.506829 236.924425 
L 300.528716 236.480925 
L 301.550602 235.679858 
L 303.594356 235.471349 
L 304.616242 235.096259 
L 305.638129 234.954759 
L 306.660015 234.305444 
L 309.725655 233.037612 
L 310.747542 232.708436 
L 312.791296 231.555553 
L 313.813182 231.200832 
L 314.835069 230.537047 
L 316.878842 229.848111 
L 317.900709 229.265467 
L 318.922595 228.98687 
L 319.944482 228.232343 
L 320.966368 227.651658 
L 321.988245 227.330676 
L 324.032008 226.137264 
L 325.053895 225.804304 
L 327.097658 224.558372 
L 328.119545 224.117943 
L 330.163308 222.974425 
L 337.316484 218.933132 
L 338.338371 218.243922 
L 340.382134 217.029215 
L 343.447784 215.20888 
L 361.841673 204.062242 
L 365.9292 201.856047 
L 370.016727 199.912934 
L 374.104263 198.2794 
L 382.279326 195.475343 
L 383.301203 194.947031 
L 384.323089 194.26922 
L 385.344966 193.394391 
L 386.366852 192.250599 
L 387.388739 190.767493 
L 388.410616 188.927568 
L 389.432502 186.728321 
L 391.476266 181.486981 
L 394.541915 172.432012 
L 398.629442 160.259233 
L 404.760742 143.206629 
L 408.848268 132.687995 
L 412.9358 122.557747 
L 417.023331 112.999424 
L 421.110863 103.842787 
L 425.198394 95.285387 
L 429.285921 87.196139 
L 432.351571 81.533185 
L 435.417221 76.325307 
L 438.482866 71.543159 
L 440.526634 68.687039 
L 442.570397 66.140851 
L 444.614163 63.937034 
L 446.657929 62.097012 
L 448.701692 60.601899 
L 450.745458 59.42946 
L 452.789223 58.532354 
L 454.832989 57.856591 
L 457.898636 57.151345 
L 460.964284 56.695922 
L 465.051815 56.325681 
L 471.18311 56.038601 
L 480.380054 55.862352 
L 499.795824 55.763716 
L 524.321007 55.73811 
L 524.321007 55.73811 
" clip-path="url(#p2b1f0ba713)" style="fill: none; stroke: #5b9bd5; stroke-width: 1.55; stroke-linecap: square"/>
   </g>
   <g id="line2d_31">
    <path d="M 197.318566 241.97387 
L 198.340453 242.081724 
L 199.362339 242.659168 
L 200.384206 242.725825 
L 201.406093 244.610748 
L 202.42798 244.222616 
L 204.471753 243.775406 
L 205.49362 244.908573 
L 206.515506 244.064369 
L 207.537393 245.560971 
L 208.559279 244.363543 
L 209.581166 244.673677 
L 210.603033 244.865376 
L 211.624919 244.822384 
L 212.646806 244.005782 
L 213.668692 243.477669 
L 214.690579 244.182786 
L 215.712446 242.004547 
L 216.734332 242.128369 
L 217.756219 241.060497 
L 218.778105 241.80712 
L 219.799992 241.852282 
L 220.821859 240.286137 
L 221.843746 240.870239 
L 222.865632 241.060497 
L 223.887519 240.387068 
L 224.909405 239.484935 
L 225.931272 239.56518 
L 226.953159 239.405436 
L 227.975045 239.10563 
L 228.996932 238.638714 
L 230.018818 238.354449 
L 232.062572 237.527585 
L 233.084458 238.108463 
L 234.106345 236.849241 
L 235.128231 236.967064 
L 236.150098 236.362078 
L 237.171985 236.0446 
L 238.193871 236.362078 
L 240.237645 235.643846 
L 241.259512 235.457452 
L 242.281398 235.443281 
L 243.303285 235.268137 
L 244.325171 235.672888 
L 246.368925 235.372793 
L 247.390811 235.492976 
L 248.412698 235.178475 
L 249.434584 235.407964 
L 250.456471 235.288964 
L 251.478338 235.723954 
L 252.500224 235.564485 
L 253.522111 235.205961 
L 254.543997 235.247366 
L 256.587751 234.537836 
L 257.609638 234.730844 
L 258.631524 234.646663 
L 259.653411 234.349126 
L 260.675297 234.305695 
L 261.697164 234.055686 
L 262.719051 234.079753 
L 265.78471 233.424829 
L 266.806577 232.791037 
L 267.828464 232.546212 
L 268.85035 232.186939 
L 271.91599 231.475608 
L 274.98165 230.341208 
L 278.04729 229.100007 
L 279.069177 228.571399 
L 280.091063 228.23547 
L 283.156703 226.804408 
L 284.17859 226.486395 
L 292.353643 222.626251 
L 293.375529 222.016307 
L 295.419303 221.030869 
L 296.441189 220.427156 
L 297.463056 220.007614 
L 300.528716 218.285808 
L 306.660015 214.834539 
L 327.097658 202.796076 
L 332.207071 200.038672 
L 336.294608 198.044893 
L 341.404021 195.825602 
L 345.491547 194.067602 
L 347.535311 192.954992 
L 348.557197 192.250263 
L 349.579074 191.397724 
L 350.600961 190.352169 
L 351.622847 189.058482 
L 352.644724 187.511082 
L 353.66661 185.65319 
L 355.710374 181.11884 
L 357.754137 175.726817 
L 361.841673 163.644103 
L 366.951086 148.639442 
L 370.016727 140.078029 
L 375.12614 126.979048 
L 378.19179 119.71965 
L 384.323089 106.44467 
L 387.388739 100.329939 
L 393.520029 89.005489 
L 397.607565 82.109017 
L 400.673205 77.364178 
L 403.738855 72.948774 
L 406.804505 69.025408 
L 408.848268 66.710533 
L 410.892037 64.665223 
L 412.9358 62.902812 
L 414.979568 61.423668 
L 417.023331 60.21717 
L 419.067095 59.247443 
L 421.110863 58.483381 
L 424.176508 57.643239 
L 427.242158 57.071849 
L 431.329689 56.581021 
L 436.439102 56.22709 
L 443.592279 55.975473 
L 455.854871 55.808354 
L 482.423819 55.726594 
L 524.321007 55.706413 
L 524.321007 55.706413 
" clip-path="url(#p2b1f0ba713)" style="fill: none; stroke: #377faf; stroke-width: 1.55; stroke-linecap: square"/>
   </g>
   <g id="line2d_32">
    <path d="M 156.443261 243.947597 
L 157.465148 243.851512 
L 158.487034 243.606647 
L 159.508901 243.832428 
L 160.530788 242.511073 
L 161.552674 245.239737 
L 162.574561 245.750145 
L 163.596447 245.968139 
L 164.618315 245.284878 
L 165.640201 246.552224 
L 166.662088 245.702446 
L 167.683974 246.267853 
L 168.705861 246.141682 
L 169.727728 246.395916 
L 170.749614 247.293581 
L 171.771501 244.951977 
L 172.793387 244.715905 
L 173.815274 244.064369 
L 174.837141 244.88694 
L 175.859027 245.150157 
L 176.880914 244.182786 
L 177.9028 243.423004 
L 178.924687 244.527537 
L 179.946554 243.718779 
L 180.96844 242.659168 
L 181.990327 243.699991 
L 183.012213 243.423004 
L 184.0341 244.631673 
L 185.055967 242.413763 
L 186.077854 242.159612 
L 187.09974 242.776168 
L 188.121627 242.446079 
L 189.143513 242.349509 
L 190.16538 242.511073 
L 191.187267 241.6436 
L 193.23104 241.354135 
L 194.252926 241.005686 
L 195.274793 241.468738 
L 196.29668 240.349084 
L 197.318566 240.843394 
L 198.340453 239.870095 
L 201.406093 239.040422 
L 202.42798 238.304669 
L 203.449866 238.012039 
L 204.471753 237.026588 
L 205.49362 236.941678 
L 206.515506 237.03513 
L 208.559279 236.362078 
L 209.581166 236.159377 
L 211.624919 235.400919 
L 212.646806 235.309843 
L 213.668692 234.796173 
L 215.712446 234.361582 
L 217.756219 233.253678 
L 218.778105 232.806577 
L 219.799992 232.677947 
L 220.821859 232.27899 
L 222.865632 231.893331 
L 223.887519 231.300223 
L 224.909405 231.153953 
L 225.931272 230.827638 
L 226.953159 230.81124 
L 227.975045 230.271749 
L 228.996932 230.302548 
L 230.018818 229.826344 
L 232.062572 229.500878 
L 234.106345 229.010136 
L 235.128231 228.784702 
L 236.150098 228.366405 
L 237.171985 228.190268 
L 239.215758 227.503587 
L 240.237645 227.448339 
L 241.259512 226.961506 
L 242.281398 226.682806 
L 243.303285 226.217906 
L 244.325171 225.959977 
L 246.368925 225.247201 
L 248.412698 224.496032 
L 249.434584 224.158967 
L 250.456471 223.639436 
L 251.478338 223.366468 
L 255.565884 221.4963 
L 256.587751 220.970445 
L 257.609638 220.586024 
L 269.872237 214.330959 
L 278.04729 209.779175 
L 294.397416 200.391225 
L 300.528716 197.156375 
L 306.660015 194.189439 
L 310.747542 192.173142 
L 312.791296 190.972081 
L 314.835069 189.463378 
L 315.856955 188.516009 
L 316.878842 187.401065 
L 317.900709 186.088577 
L 318.922595 184.572408 
L 320.966368 180.832136 
L 323.010132 176.264262 
L 325.053895 171.08817 
L 329.141421 159.802067 
L 339.360248 131.998491 
L 343.447784 121.879053 
L 347.535311 112.595855 
L 350.600961 106.092892 
L 353.66661 100.019916 
L 358.776024 90.788313 
L 361.841673 85.698142 
L 364.907313 80.968497 
L 368.99485 75.225551 
L 372.0605 71.353778 
L 375.12614 67.941485 
L 377.169913 65.936687 
L 379.213676 64.166373 
L 381.257439 62.634944 
L 383.301203 61.336385 
L 385.344966 60.25999 
L 387.388739 59.3768 
L 390.454379 58.361795 
L 393.520029 57.636909 
L 396.585679 57.123338 
L 400.673205 56.658839 
L 405.782623 56.302236 
L 412.9358 56.028837 
L 424.176508 55.838634 
L 445.636044 55.732485 
L 463.00805 55.709839 
L 463.00805 55.709839 
" clip-path="url(#p2b1f0ba713)" style="fill: none; stroke: #225f8d; stroke-width: 1.55; stroke-linecap: square"/>
   </g>
   <g id="line2d_33">
    <path d="M 74.692651 248.106572 
L 75.714518 246.042383 
L 76.736424 248.52751 
L 77.758291 256.284182 
L 78.780197 259.968763 
L 79.802064 251.96003 
L 80.823931 250.798546 
L 81.845837 250.051104 
L 82.867704 256.709588 
L 83.88961 273.085854 
L 84.911477 256.038761 
L 85.933344 252.368053 
L 86.95525 251.570707 
L 88.999023 275.159097 
L 90.02089 286.206869 
L 91.042758 252.161584 
L 92.064664 253.78693 
L 93.086531 256.536875 
L 94.108437 278.94017 
L 95.130304 267.238093 
L 96.152171 263.793814 
L 97.174077 257.066017 
L 98.195944 256.975508 
L 99.21785 277.813375 
L 100.239717 260.641908 
L 101.261584 283.657081 
L 102.28349 259.715991 
L 103.305357 252.060157 
L 104.327263 260.229142 
L 105.34913 275.159097 
L 106.370997 275.123845 
L 107.392903 261.20942 
L 108.41477 258.886741 
L 109.436676 256.20151 
L 110.458543 278.996358 
L 111.48041 261.20942 
L 112.502316 263.997679 
L 113.524183 262.150699 
L 114.546089 255.958545 
L 115.567956 261.511733 
L 116.589823 262.318243 
L 117.611729 261.062265 
L 118.633596 257.066017 
L 119.655502 255.342643 
L 120.677369 254.101664 
L 121.699236 260.097952 
L 122.721142 254.838177 
L 123.743009 253.190564 
L 124.764915 251.811912 
L 125.786782 253.076118 
L 126.808649 257.157504 
L 127.830556 253.91139 
L 128.852423 254.230917 
L 129.874329 251.666372 
L 130.896196 253.076118 
L 131.918063 253.848931 
L 132.939969 256.709588 
L 133.961836 252.264172 
L 134.983742 251.61842 
L 136.005609 248.330624 
L 137.027476 248.69516 
L 138.049382 249.512194 
L 139.071249 250.13095 
L 140.093155 247.826944 
L 141.115022 248.265993 
L 142.136889 246.631795 
L 143.158795 246.293625 
L 144.180662 248.594154 
L 145.202568 247.123498 
L 147.246302 246.370471 
L 149.290075 244.995892 
L 150.311981 245.870859 
L 151.333848 245.655308 
L 152.355715 244.737355 
L 153.377621 244.303094 
L 154.399488 243.172627 
L 155.421394 242.912101 
L 156.443261 242.206863 
L 157.465148 243.015347 
L 158.487034 243.225694 
L 159.508901 242.593226 
L 160.530788 242.413953 
L 161.552674 241.717717 
L 162.574561 240.816808 
L 163.596447 241.255285 
L 165.640201 240.605806 
L 166.662088 240.311401 
L 167.683974 239.349252 
L 169.727728 239.215566 
L 170.749614 238.922287 
L 171.771501 239.04055 
L 172.793387 238.922287 
L 173.815274 237.803795 
L 176.880914 237.330801 
L 179.946554 235.6657 
L 180.96844 235.651182 
L 181.990327 235.028944 
L 183.012213 234.915119 
L 184.0341 234.569772 
L 185.055967 233.977995 
L 186.077854 233.743131 
L 187.09974 233.107437 
L 188.121627 232.963616 
L 189.143513 232.476169 
L 190.16538 232.220786 
L 191.187267 231.750313 
L 192.209153 231.484517 
L 193.23104 231.010205 
L 194.252926 230.717592 
L 196.29668 229.671028 
L 197.318566 229.448446 
L 198.340453 228.833231 
L 200.384206 228.24457 
L 201.406093 227.699861 
L 203.449866 227.079321 
L 204.471753 226.587782 
L 206.515506 225.953071 
L 207.537393 225.410121 
L 209.581166 224.906018 
L 217.756219 221.668438 
L 219.799992 220.701892 
L 220.821859 220.37924 
L 230.018818 216.296942 
L 236.150098 213.242072 
L 250.456471 205.389741 
L 260.675297 199.6411 
L 267.828464 195.811997 
L 277.025404 190.958189 
L 279.069177 189.64576 
L 281.11295 188.0634 
L 283.156703 186.062095 
L 285.200476 183.507484 
L 287.24423 180.283634 
L 289.288003 176.416603 
L 291.331776 171.988818 
L 294.397416 164.700617 
L 300.528716 149.154036 
L 306.660015 133.747323 
L 311.769428 121.399139 
L 315.856955 112.145656 
L 319.944482 103.4239 
L 323.010132 97.383749 
L 326.075781 91.681123 
L 329.141421 86.395724 
L 332.207071 81.538577 
L 335.272721 77.152793 
L 338.338371 73.155156 
L 341.404021 69.630208 
L 343.447784 67.550331 
L 345.491547 65.698236 
L 347.535311 64.063928 
L 349.579074 62.649786 
L 351.622847 61.445441 
L 353.66661 60.435391 
L 356.73226 59.241392 
L 359.7979 58.356453 
L 362.86355 57.708694 
L 366.951086 57.107689 
L 372.0605 56.628404 
L 378.19179 56.286964 
L 387.388739 56.016101 
L 401.695092 55.840555 
L 422.132744 55.762989 
L 422.132744 55.762989 
" clip-path="url(#p2b1f0ba713)" style="fill: none; stroke: #13304b; stroke-width: 1.55; stroke-linecap: square"/>
   </g>
   <g id="patch_3">
    <path d="M 46.079937 288.182896 
L 46.079937 42.507986 
" style="fill: none; stroke: #b9c0c7; stroke-width: 0.8; stroke-linejoin: miter; stroke-linecap: square"/>
   </g>
   <g id="patch_4">
    <path d="M 46.079938 288.182896 
L 675.559636 288.182896 
" style="fill: none; stroke: #b9c0c7; stroke-width: 0.8; stroke-linejoin: miter; stroke-linecap: square"/>
   </g>
   <g id="legend_1">
    <g id="text_16">
     <!-- Dose (krad(Si)) -->
     <g style="fill: #343434" transform="translate(333.706037 16.22375) scale(0.08 -0.08)">
      <defs>
       <path id="ArialMT-6b" d="M 425 0 
L 425 4581 
L 988 4581 
L 988 1969 
L 2319 3319 
L 3047 3319 
L 1778 2088 
L 3175 0 
L 2481 0 
L 1384 1697 
L 988 1316 
L 988 0 
L 425 0 
z
" transform="scale(0.015625)"/>
      </defs>
      <use xlink:href="#ArialMT-44"/>
      <use xlink:href="#ArialMT-6f" x="72.216797"/>
      <use xlink:href="#ArialMT-73" x="127.832031"/>
      <use xlink:href="#ArialMT-65" x="177.832031"/>
      <use xlink:href="#ArialMT-20" x="233.447266"/>
      <use xlink:href="#ArialMT-28" x="261.230469"/>
      <use xlink:href="#ArialMT-6b" x="294.53125"/>
      <use xlink:href="#ArialMT-72" x="344.53125"/>
      <use xlink:href="#ArialMT-61" x="377.832031"/>
      <use xlink:href="#ArialMT-64" x="433.447266"/>
      <use xlink:href="#ArialMT-28" x="489.0625"/>
      <use xlink:href="#ArialMT-53" x="522.363281"/>
      <use xlink:href="#ArialMT-69" x="589.0625"/>
      <use xlink:href="#ArialMT-29" x="611.279297"/>
      <use xlink:href="#ArialMT-29" x="644.580078"/>
     </g>
    </g>
    <g id="line2d_34">
     <path d="M 205.502912 24.83375 
L 213.502912 24.83375 
L 221.502912 24.83375 
" style="fill: none; stroke: #dceaf5; stroke-width: 1.55; stroke-linecap: square"/>
    </g>
    <g id="text_17">
     <!-- 0 -->
     <g style="fill: #343434" transform="translate(227.902912 27.63375) scale(0.08 -0.08)">
      <use xlink:href="#ArialMT-30"/>
     </g>
    </g>
    <g id="line2d_35">
     <path d="M 248.351662 24.83375 
L 256.351662 24.83375 
L 264.351662 24.83375 
" style="fill: none; stroke: #b7d4ea; stroke-width: 1.55; stroke-linecap: square"/>
    </g>
    <g id="text_18">
     <!-- 10 -->
     <g style="fill: #343434" transform="translate(270.751662 27.63375) scale(0.08 -0.08)">
      <use xlink:href="#ArialMT-31"/>
      <use xlink:href="#ArialMT-30" x="55.615234"/>
     </g>
    </g>
    <g id="line2d_36">
     <path d="M 295.649162 24.83375 
L 303.649162 24.83375 
L 311.649162 24.83375 
" style="fill: none; stroke: #8dbdde; stroke-width: 1.55; stroke-linecap: square"/>
    </g>
    <g id="text_19">
     <!-- 20 -->
     <g style="fill: #343434" transform="translate(318.049162 27.63375) scale(0.08 -0.08)">
      <use xlink:href="#ArialMT-32"/>
      <use xlink:href="#ArialMT-30" x="55.615234"/>
     </g>
    </g>
    <g id="line2d_37">
     <path d="M 342.946662 24.83375 
L 350.946662 24.83375 
L 358.946662 24.83375 
" style="fill: none; stroke: #5b9bd5; stroke-width: 1.55; stroke-linecap: square"/>
    </g>
    <g id="text_20">
     <!-- 30 -->
     <g style="fill: #343434" transform="translate(365.346662 27.63375) scale(0.08 -0.08)">
      <use xlink:href="#ArialMT-33"/>
      <use xlink:href="#ArialMT-30" x="55.615234"/>
     </g>
    </g>
    <g id="line2d_38">
     <path d="M 390.244162 24.83375 
L 398.244162 24.83375 
L 406.244162 24.83375 
" style="fill: none; stroke: #377faf; stroke-width: 1.55; stroke-linecap: square"/>
    </g>
    <g id="text_21">
     <!-- 40 -->
     <g style="fill: #343434" transform="translate(412.644162 27.63375) scale(0.08 -0.08)">
      <defs>
       <path id="ArialMT-34" d="M 2069 0 
L 2069 1097 
L 81 1097 
L 81 1613 
L 2172 4581 
L 2631 4581 
L 2631 1613 
L 3250 1613 
L 3250 1097 
L 2631 1097 
L 2631 0 
L 2069 0 
z
M 2069 1613 
L 2069 3678 
L 634 1613 
L 2069 1613 
z
" transform="scale(0.015625)"/>
      </defs>
      <use xlink:href="#ArialMT-34"/>
      <use xlink:href="#ArialMT-30" x="55.615234"/>
     </g>
    </g>
    <g id="line2d_39">
     <path d="M 437.541662 24.83375 
L 445.541662 24.83375 
L 453.541662 24.83375 
" style="fill: none; stroke: #225f8d; stroke-width: 1.55; stroke-linecap: square"/>
    </g>
    <g id="text_22">
     <!-- 50 -->
     <g style="fill: #343434" transform="translate(459.941662 27.63375) scale(0.08 -0.08)">
      <use xlink:href="#ArialMT-35"/>
      <use xlink:href="#ArialMT-30" x="55.615234"/>
     </g>
    </g>
    <g id="line2d_40">
     <path d="M 484.839162 24.83375 
L 492.839162 24.83375 
L 500.839162 24.83375 
" style="fill: none; stroke: #13304b; stroke-width: 1.55; stroke-linecap: square"/>
    </g>
    <g id="text_23">
     <!-- 60 -->
     <g style="fill: #343434" transform="translate(507.239162 27.63375) scale(0.08 -0.08)">
      <defs>
       <path id="ArialMT-36" d="M 3184 3459 
L 2625 3416 
Q 2550 3747 2413 3897 
Q 2184 4138 1850 4138 
Q 1581 4138 1378 3988 
Q 1113 3794 959 3422 
Q 806 3050 800 2363 
Q 1003 2672 1297 2822 
Q 1591 2972 1913 2972 
Q 2475 2972 2870 2558 
Q 3266 2144 3266 1488 
Q 3266 1056 3080 686 
Q 2894 316 2569 119 
Q 2244 -78 1831 -78 
Q 1128 -78 684 439 
Q 241 956 241 2144 
Q 241 3472 731 4075 
Q 1159 4600 1884 4600 
Q 2425 4600 2770 4297 
Q 3116 3994 3184 3459 
z
M 888 1484 
Q 888 1194 1011 928 
Q 1134 663 1356 523 
Q 1578 384 1822 384 
Q 2178 384 2434 671 
Q 2691 959 2691 1453 
Q 2691 1928 2437 2201 
Q 2184 2475 1800 2475 
Q 1419 2475 1153 2201 
Q 888 1928 888 1484 
z
" transform="scale(0.015625)"/>
      </defs>
      <use xlink:href="#ArialMT-36"/>
      <use xlink:href="#ArialMT-30" x="55.615234"/>
     </g>
    </g>
   </g>
  </g>
 </g>
 <defs>
  <clipPath id="p2b1f0ba713">
   <rect x="46.079937" y="42.507986" width="629.479699" height="245.67491"/>
  </clipPath>
 </defs>
</svg>
