<?xml version="1.0" encoding="utf-8" standalone="no"?>
<!DOCTYPE svg PUBLIC "-//W3C//DTD SVG 1.1//EN"
  "http://www.w3.org/Graphics/SVG/1.1/DTD/svg11.dtd">
<svg xmlns:xlink="http://www.w3.org/1999/xlink" width="682.759636pt" height="322.327989pt" viewBox="0 0 682.759636 322.327989" xmlns="http://www.w3.org/2000/svg" version="1.1">
 <metadata>
  <rdf:RDF xmlns:dc="http://purl.org/dc/elements/1.1/" xmlns:cc="http://creativecommons.org/ns#" xmlns:rdf="http://www.w3.org/1999/02/22-rdf-syntax-ns#">
   <cc:Work>
    <dc:type rdf:resource="http://purl.org/dc/dcmitype/StillImage"/>
    <dc:date>2026-07-22T19:01:09.839301</dc:date>
    <dc:format>image/svg+xml</dc:format>
    <dc:creator>
     <cc:Agent>
      <dc:title>Matplotlib v3.9.2, https://matplotlib.org/</dc:title>
     </cc:Agent>
    </dc:creator>
   </cc:Work>
  </rdf:RDF>
 </metadata>
 <defs>
  <style type="text/css">*{stroke-linejoin: round; stroke-linecap: butt}</style>
 </defs>
 <g id="figure_1">
  <g id="patch_1">
   <path d="M 0 322.327989 
L 682.759636 322.327989 
L 682.759636 0 
L 0 0 
z
" style="fill: #ffffff"/>
  </g>
  <g id="axes_1">
   <g id="patch_2">
    <path d="M 46.079937 288.182896 
L 675.559636 288.182896 
L 675.559636 42.507986 
L 46.079937 42.507986 
z
" style="fill: #ffffff"/>
   </g>
   <g id="matplotlib.axis_1">
    <g id="xtick_1">
     <g id="line2d_1">
      <path d="M 74.692651 288.182896 
L 74.692651 42.507986 
" clip-path="url(#p4f3b4bd50e)" style="fill: none; stroke: #d9dee3; stroke-opacity: 0.75; stroke-width: 0.65; stroke-linecap: square"/>
     </g>
     <g id="line2d_2">
      <defs>
       <path id="m86643990d2" d="M 0 0 
L 0 3.5 
" style="stroke: #666666; stroke-width: 0.8"/>
      </defs>
      <g>
       <use xlink:href="#m86643990d2" x="74.692651" y="288.182896" style="fill: #666666; stroke: #666666; stroke-width: 0.8"/>
      </g>
     </g>
     <g id="text_1">
      <!-- -20 -->
      <g style="fill: #666666" transform="translate(68.76751 301.052302) scale(0.082 -0.082)">
       <defs>
        <path id="ArialMT-2d" d="M 203 1375 
L 203 1941 
L 1931 1941 
L 1931 1375 
L 203 1375 
z
" transform="scale(0.015625)"/>
        <path id="ArialMT-32" d="M 3222 541 
L 3222 0 
L 194 0 
Q 188 203 259 391 
Q 375 700 629 1000 
Q 884 1300 1366 1694 
Q 2113 2306 2375 2664 
Q 2638 3022 2638 3341 
Q 2638 3675 2398 3904 
Q 2159 4134 1775 4134 
Q 1369 4134 1125 3890 
Q 881 3647 878 3216 
L 300 3275 
Q 359 3922 746 4261 
Q 1134 4600 1788 4600 
Q 2447 4600 2831 4234 
Q 3216 3869 3216 3328 
Q 3216 3053 3103 2787 
Q 2991 2522 2730 2228 
Q 2469 1934 1863 1422 
Q 1356 997 1212 845 
Q 1069 694 975 541 
L 3222 541 
z
" transform="scale(0.015625)"/>
        <path id="ArialMT-30" d="M 266 2259 
Q 266 3072 433 3567 
Q 600 4063 929 4331 
Q 1259 4600 1759 4600 
Q 2128 4600 2406 4451 
Q 2684 4303 2865 4023 
Q 3047 3744 3150 3342 
Q 3253 2941 3253 2259 
Q 3253 1453 3087 958 
Q 2922 463 2592 192 
Q 2263 -78 1759 -78 
Q 1097 -78 719 397 
Q 266 969 266 2259 
z
M 844 2259 
Q 844 1131 1108 757 
Q 1372 384 1759 384 
Q 2147 384 2411 759 
Q 2675 1134 2675 2259 
Q 2675 3391 2411 3762 
Q 2147 4134 1753 4134 
Q 1366 4134 1134 3806 
Q 844 3388 844 2259 
z
" transform="scale(0.015625)"/>
       </defs>
       <use xlink:href="#ArialMT-2d"/>
       <use xlink:href="#ArialMT-32" x="33.300781"/>
       <use xlink:href="#ArialMT-30" x="88.916016"/>
      </g>
     </g>
    </g>
    <g id="xtick_2">
     <g id="line2d_3">
      <path d="M 176.880914 288.182896 
L 176.880914 42.507986 
" clip-path="url(#p4f3b4bd50e)" style="fill: none; stroke: #d9dee3; stroke-opacity: 0.75; stroke-width: 0.65; stroke-linecap: square"/>
     </g>
     <g id="line2d_4">
      <g>
       <use xlink:href="#m86643990d2" x="176.880914" y="288.182896" style="fill: #666666; stroke: #666666; stroke-width: 0.8"/>
      </g>
     </g>
     <g id="text_2">
      <!-- -15 -->
      <g style="fill: #666666" transform="translate(170.955773 301.052302) scale(0.082 -0.082)">
       <defs>
        <path id="ArialMT-31" d="M 2384 0 
L 1822 0 
L 1822 3584 
Q 1619 3391 1289 3197 
Q 959 3003 697 2906 
L 697 3450 
Q 1169 3672 1522 3987 
Q 1875 4303 2022 4600 
L 2384 4600 
L 2384 0 
z
" transform="scale(0.015625)"/>
        <path id="ArialMT-35" d="M 266 1200 
L 856 1250 
Q 922 819 1161 601 
Q 1400 384 1738 384 
Q 2144 384 2425 690 
Q 2706 997 2706 1503 
Q 2706 1984 2436 2262 
Q 2166 2541 1728 2541 
Q 1456 2541 1237 2417 
Q 1019 2294 894 2097 
L 366 2166 
L 809 4519 
L 3088 4519 
L 3088 3981 
L 1259 3981 
L 1013 2750 
Q 1425 3038 1878 3038 
Q 2478 3038 2890 2622 
Q 3303 2206 3303 1553 
Q 3303 931 2941 478 
Q 2500 -78 1738 -78 
Q 1113 -78 717 272 
Q 322 622 266 1200 
z
" transform="scale(0.015625)"/>
       </defs>
       <use xlink:href="#ArialMT-2d"/>
       <use xlink:href="#ArialMT-31" x="33.300781"/>
       <use xlink:href="#ArialMT-35" x="88.916016"/>
      </g>
     </g>
    </g>
    <g id="xtick_3">
     <g id="line2d_5">
      <path d="M 279.069177 288.182896 
L 279.069177 42.507986 
" clip-path="url(#p4f3b4bd50e)" style="fill: none; stroke: #d9dee3; stroke-opacity: 0.75; stroke-width: 0.65; stroke-linecap: square"/>
     </g>
     <g id="line2d_6">
      <g>
       <use xlink:href="#m86643990d2" x="279.069177" y="288.182896" style="fill: #666666; stroke: #666666; stroke-width: 0.8"/>
      </g>
     </g>
     <g id="text_3">
      <!-- -10 -->
      <g style="fill: #666666" transform="translate(273.144036 301.052302) scale(0.082 -0.082)">
       <use xlink:href="#ArialMT-2d"/>
       <use xlink:href="#ArialMT-31" x="33.300781"/>
       <use xlink:href="#ArialMT-30" x="88.916016"/>
      </g>
     </g>
    </g>
    <g id="xtick_4">
     <g id="line2d_7">
      <path d="M 381.257439 288.182896 
L 381.257439 42.507986 
" clip-path="url(#p4f3b4bd50e)" style="fill: none; stroke: #d9dee3; stroke-opacity: 0.75; stroke-width: 0.65; stroke-linecap: square"/>
     </g>
     <g id="line2d_8">
      <g>
       <use xlink:href="#m86643990d2" x="381.257439" y="288.182896" style="fill: #666666; stroke: #666666; stroke-width: 0.8"/>
      </g>
     </g>
     <g id="text_4">
      <!-- -5 -->
      <g style="fill: #666666" transform="translate(377.612283 301.052302) scale(0.082 -0.082)">
       <use xlink:href="#ArialMT-2d"/>
       <use xlink:href="#ArialMT-35" x="33.300781"/>
      </g>
     </g>
    </g>
    <g id="xtick_5">
     <g id="line2d_9">
      <path d="M 483.445702 288.182896 
L 483.445702 42.507986 
" clip-path="url(#p4f3b4bd50e)" style="fill: none; stroke: #d9dee3; stroke-opacity: 0.75; stroke-width: 0.65; stroke-linecap: square"/>
     </g>
     <g id="line2d_10">
      <g>
       <use xlink:href="#m86643990d2" x="483.445702" y="288.182896" style="fill: #666666; stroke: #666666; stroke-width: 0.8"/>
      </g>
     </g>
     <g id="text_5">
      <!-- 0 -->
      <g style="fill: #666666" transform="translate(481.165718 301.052302) scale(0.082 -0.082)">
       <use xlink:href="#ArialMT-30"/>
      </g>
     </g>
    </g>
    <g id="xtick_6">
     <g id="line2d_11">
      <path d="M 585.633965 288.182896 
L 585.633965 42.507986 
" clip-path="url(#p4f3b4bd50e)" style="fill: none; stroke: #d9dee3; stroke-opacity: 0.75; stroke-width: 0.65; stroke-linecap: square"/>
     </g>
     <g id="line2d_12">
      <g>
       <use xlink:href="#m86643990d2" x="585.633965" y="288.182896" style="fill: #666666; stroke: #666666; stroke-width: 0.8"/>
      </g>
     </g>
     <g id="text_6">
      <!-- 5 -->
      <g style="fill: #666666" transform="translate(583.353981 301.052302) scale(0.082 -0.082)">
       <use xlink:href="#ArialMT-35"/>
      </g>
     </g>
    </g>
    <g id="text_7">
     <!-- Gate voltage, VGS (V) -->
     <g style="fill: #666666" transform="translate(316.052521 313.233771) scale(0.09 -0.09)">
      <defs>
       <path id="ArialMT-47" d="M 2638 1797 
L 2638 2334 
L 4578 2338 
L 4578 638 
Q 4131 281 3656 101 
Q 3181 -78 2681 -78 
Q 2006 -78 1454 211 
Q 903 500 622 1047 
Q 341 1594 341 2269 
Q 341 2938 620 3517 
Q 900 4097 1425 4378 
Q 1950 4659 2634 4659 
Q 3131 4659 3532 4498 
Q 3934 4338 4162 4050 
Q 4391 3763 4509 3300 
L 3963 3150 
Q 3859 3500 3706 3700 
Q 3553 3900 3268 4020 
Q 2984 4141 2638 4141 
Q 2222 4141 1919 4014 
Q 1616 3888 1430 3681 
Q 1244 3475 1141 3228 
Q 966 2803 966 2306 
Q 966 1694 1177 1281 
Q 1388 869 1791 669 
Q 2194 469 2647 469 
Q 3041 469 3416 620 
Q 3791 772 3984 944 
L 3984 1797 
L 2638 1797 
z
" transform="scale(0.015625)"/>
       <path id="ArialMT-61" d="M 2588 409 
Q 2275 144 1986 34 
Q 1697 -75 1366 -75 
Q 819 -75 525 192 
Q 231 459 231 875 
Q 231 1119 342 1320 
Q 453 1522 633 1644 
Q 813 1766 1038 1828 
Q 1203 1872 1538 1913 
Q 2219 1994 2541 2106 
Q 2544 2222 2544 2253 
Q 2544 2597 2384 2738 
Q 2169 2928 1744 2928 
Q 1347 2928 1158 2789 
Q 969 2650 878 2297 
L 328 2372 
Q 403 2725 575 2942 
Q 747 3159 1072 3276 
Q 1397 3394 1825 3394 
Q 2250 3394 2515 3294 
Q 2781 3194 2906 3042 
Q 3031 2891 3081 2659 
Q 3109 2516 3109 2141 
L 3109 1391 
Q 3109 606 3145 398 
Q 3181 191 3288 0 
L 2700 0 
Q 2613 175 2588 409 
z
M 2541 1666 
Q 2234 1541 1622 1453 
Q 1275 1403 1131 1340 
Q 988 1278 909 1158 
Q 831 1038 831 891 
Q 831 666 1001 516 
Q 1172 366 1500 366 
Q 1825 366 2078 508 
Q 2331 650 2450 897 
Q 2541 1088 2541 1459 
L 2541 1666 
z
" transform="scale(0.015625)"/>
       <path id="ArialMT-74" d="M 1650 503 
L 1731 6 
Q 1494 -44 1306 -44 
Q 1000 -44 831 53 
Q 663 150 594 308 
Q 525 466 525 972 
L 525 2881 
L 113 2881 
L 113 3319 
L 525 3319 
L 525 4141 
L 1084 4478 
L 1084 3319 
L 1650 3319 
L 1650 2881 
L 1084 2881 
L 1084 941 
Q 1084 700 1114 631 
Q 1144 563 1211 522 
Q 1278 481 1403 481 
Q 1497 481 1650 503 
z
" transform="scale(0.015625)"/>
       <path id="ArialMT-65" d="M 2694 1069 
L 3275 997 
Q 3138 488 2766 206 
Q 2394 -75 1816 -75 
Q 1088 -75 661 373 
Q 234 822 234 1631 
Q 234 2469 665 2931 
Q 1097 3394 1784 3394 
Q 2450 3394 2872 2941 
Q 3294 2488 3294 1666 
Q 3294 1616 3291 1516 
L 816 1516 
Q 847 969 1125 678 
Q 1403 388 1819 388 
Q 2128 388 2347 550 
Q 2566 713 2694 1069 
z
M 847 1978 
L 2700 1978 
Q 2663 2397 2488 2606 
Q 2219 2931 1791 2931 
Q 1403 2931 1139 2672 
Q 875 2413 847 1978 
z
" transform="scale(0.015625)"/>
       <path id="ArialMT-20" transform="scale(0.015625)"/>
       <path id="ArialMT-76" d="M 1344 0 
L 81 3319 
L 675 3319 
L 1388 1331 
Q 1503 1009 1600 663 
Q 1675 925 1809 1294 
L 2547 3319 
L 3125 3319 
L 1869 0 
L 1344 0 
z
" transform="scale(0.015625)"/>
       <path id="ArialMT-6f" d="M 213 1659 
Q 213 2581 725 3025 
Q 1153 3394 1769 3394 
Q 2453 3394 2887 2945 
Q 3322 2497 3322 1706 
Q 3322 1066 3130 698 
Q 2938 331 2570 128 
Q 2203 -75 1769 -75 
Q 1072 -75 642 372 
Q 213 819 213 1659 
z
M 791 1659 
Q 791 1022 1069 705 
Q 1347 388 1769 388 
Q 2188 388 2466 706 
Q 2744 1025 2744 1678 
Q 2744 2294 2464 2611 
Q 2184 2928 1769 2928 
Q 1347 2928 1069 2612 
Q 791 2297 791 1659 
z
" transform="scale(0.015625)"/>
       <path id="ArialMT-6c" d="M 409 0 
L 409 4581 
L 972 4581 
L 972 0 
L 409 0 
z
" transform="scale(0.015625)"/>
       <path id="ArialMT-67" d="M 319 -275 
L 866 -356 
Q 900 -609 1056 -725 
Q 1266 -881 1628 -881 
Q 2019 -881 2231 -725 
Q 2444 -569 2519 -288 
Q 2563 -116 2559 434 
Q 2191 0 1641 0 
Q 956 0 581 494 
Q 206 988 206 1678 
Q 206 2153 378 2554 
Q 550 2956 876 3175 
Q 1203 3394 1644 3394 
Q 2231 3394 2613 2919 
L 2613 3319 
L 3131 3319 
L 3131 450 
Q 3131 -325 2973 -648 
Q 2816 -972 2473 -1159 
Q 2131 -1347 1631 -1347 
Q 1038 -1347 672 -1080 
Q 306 -813 319 -275 
z
M 784 1719 
Q 784 1066 1043 766 
Q 1303 466 1694 466 
Q 2081 466 2343 764 
Q 2606 1063 2606 1700 
Q 2606 2309 2336 2618 
Q 2066 2928 1684 2928 
Q 1309 2928 1046 2623 
Q 784 2319 784 1719 
z
" transform="scale(0.015625)"/>
       <path id="ArialMT-2c" d="M 569 0 
L 569 641 
L 1209 641 
L 1209 0 
Q 1209 -353 1084 -570 
Q 959 -788 688 -906 
L 531 -666 
Q 709 -588 793 -436 
Q 878 -284 888 0 
L 569 0 
z
" transform="scale(0.015625)"/>
       <path id="ArialMT-56" d="M 1803 0 
L 28 4581 
L 684 4581 
L 1875 1253 
Q 2019 853 2116 503 
Q 2222 878 2363 1253 
L 3600 4581 
L 4219 4581 
L 2425 0 
L 1803 0 
z
" transform="scale(0.015625)"/>
       <path id="ArialMT-53" d="M 288 1472 
L 859 1522 
Q 900 1178 1048 958 
Q 1197 738 1509 602 
Q 1822 466 2213 466 
Q 2559 466 2825 569 
Q 3091 672 3220 851 
Q 3350 1031 3350 1244 
Q 3350 1459 3225 1620 
Q 3100 1781 2813 1891 
Q 2628 1963 1997 2114 
Q 1366 2266 1113 2400 
Q 784 2572 623 2826 
Q 463 3081 463 3397 
Q 463 3744 659 4045 
Q 856 4347 1234 4503 
Q 1613 4659 2075 4659 
Q 2584 4659 2973 4495 
Q 3363 4331 3572 4012 
Q 3781 3694 3797 3291 
L 3216 3247 
Q 3169 3681 2898 3903 
Q 2628 4125 2100 4125 
Q 1550 4125 1298 3923 
Q 1047 3722 1047 3438 
Q 1047 3191 1225 3031 
Q 1400 2872 2139 2705 
Q 2878 2538 3153 2413 
Q 3553 2228 3743 1945 
Q 3934 1663 3934 1294 
Q 3934 928 3725 604 
Q 3516 281 3123 101 
Q 2731 -78 2241 -78 
Q 1619 -78 1198 103 
Q 778 284 539 648 
Q 300 1013 288 1472 
z
" transform="scale(0.015625)"/>
       <path id="ArialMT-28" d="M 1497 -1347 
Q 1031 -759 709 28 
Q 388 816 388 1659 
Q 388 2403 628 3084 
Q 909 3875 1497 4659 
L 1900 4659 
Q 1522 4009 1400 3731 
Q 1209 3300 1100 2831 
Q 966 2247 966 1656 
Q 966 153 1900 -1347 
L 1497 -1347 
z
" transform="scale(0.015625)"/>
       <path id="ArialMT-29" d="M 791 -1347 
L 388 -1347 
Q 1322 153 1322 1656 
Q 1322 2244 1188 2822 
Q 1081 3291 891 3722 
Q 769 4003 388 4659 
L 791 4659 
Q 1378 3875 1659 3084 
Q 1900 2403 1900 1659 
Q 1900 816 1576 28 
Q 1253 -759 791 -1347 
z
" transform="scale(0.015625)"/>
      </defs>
      <use xlink:href="#ArialMT-47"/>
      <use xlink:href="#ArialMT-61" x="77.783203"/>
      <use xlink:href="#ArialMT-74" x="133.398438"/>
      <use xlink:href="#ArialMT-65" x="161.181641"/>
      <use xlink:href="#ArialMT-20" x="216.796875"/>
      <use xlink:href="#ArialMT-76" x="244.580078"/>
      <use xlink:href="#ArialMT-6f" x="294.580078"/>
      <use xlink:href="#ArialMT-6c" x="350.195312"/>
      <use xlink:href="#ArialMT-74" x="372.412109"/>
      <use xlink:href="#ArialMT-61" x="400.195312"/>
      <use xlink:href="#ArialMT-67" x="455.810547"/>
      <use xlink:href="#ArialMT-65" x="511.425781"/>
      <use xlink:href="#ArialMT-2c" x="567.041016"/>
      <use xlink:href="#ArialMT-20" x="594.824219"/>
      <use xlink:href="#ArialMT-56" x="622.607422"/>
      <use xlink:href="#ArialMT-47" x="689.306641"/>
      <use xlink:href="#ArialMT-53" x="767.089844"/>
      <use xlink:href="#ArialMT-20" x="833.789062"/>
      <use xlink:href="#ArialMT-28" x="861.572266"/>
      <use xlink:href="#ArialMT-56" x="894.873047"/>
      <use xlink:href="#ArialMT-29" x="961.572266"/>
     </g>
    </g>
   </g>
   <g id="matplotlib.axis_2">
    <g id="ytick_1">
     <g id="line2d_13">
      <path d="M 46.079937 288.182896 
L 675.559636 288.182896 
" clip-path="url(#p4f3b4bd50e)" style="fill: none; stroke: #d9dee3; stroke-opacity: 0.75; stroke-width: 0.65; stroke-linecap: square"/>
     </g>
     <g id="line2d_14">
      <defs>
       <path id="mda8e489df7" d="M 0 0 
L -3.5 0 
" style="stroke: #666666; stroke-width: 0.8"/>
      </defs>
      <g>
       <use xlink:href="#mda8e489df7" x="46.079937" y="288.182896" style="fill: #666666; stroke: #666666; stroke-width: 0.8"/>
      </g>
     </g>
     <g id="text_8">
      <!-- $\mathdefault{10^{-13}}$ -->
      <g style="fill: #666666" transform="translate(19.645938 292.411021) scale(0.082 -0.082)">
       <defs>
        <path id="ArialMT-2212" d="M 3381 1997 
L 356 1997 
L 356 2522 
L 3381 2522 
L 3381 1997 
z
" transform="scale(0.015625)"/>
        <path id="ArialMT-33" d="M 269 1209 
L 831 1284 
Q 928 806 1161 595 
Q 1394 384 1728 384 
Q 2125 384 2398 659 
Q 2672 934 2672 1341 
Q 2672 1728 2419 1979 
Q 2166 2231 1775 2231 
Q 1616 2231 1378 2169 
L 1441 2663 
Q 1497 2656 1531 2656 
Q 1891 2656 2178 2843 
Q 2466 3031 2466 3422 
Q 2466 3731 2256 3934 
Q 2047 4138 1716 4138 
Q 1388 4138 1169 3931 
Q 950 3725 888 3313 
L 325 3413 
Q 428 3978 793 4289 
Q 1159 4600 1703 4600 
Q 2078 4600 2393 4439 
Q 2709 4278 2876 4000 
Q 3044 3722 3044 3409 
Q 3044 3113 2884 2869 
Q 2725 2625 2413 2481 
Q 2819 2388 3044 2092 
Q 3269 1797 3269 1353 
Q 3269 753 2831 336 
Q 2394 -81 1725 -81 
Q 1122 -81 723 278 
Q 325 638 269 1209 
z
" transform="scale(0.015625)"/>
       </defs>
       <use xlink:href="#ArialMT-31" transform="translate(0 0.99375)"/>
       <use xlink:href="#ArialMT-30" transform="translate(55.615234 0.99375)"/>
       <use xlink:href="#ArialMT-2212" transform="translate(112.972813 70.6875) scale(0.7)"/>
       <use xlink:href="#ArialMT-31" transform="translate(153.851719 70.6875) scale(0.7)"/>
       <use xlink:href="#ArialMT-33" transform="translate(192.782383 70.6875) scale(0.7)"/>
      </g>
     </g>
    </g>
    <g id="ytick_2">
     <g id="line2d_15">
      <path d="M 46.079937 249.193253 
L 675.559636 249.193253 
" clip-path="url(#p4f3b4bd50e)" style="fill: none; stroke: #d9dee3; stroke-opacity: 0.75; stroke-width: 0.65; stroke-linecap: square"/>
     </g>
     <g id="line2d_16">
      <g>
       <use xlink:href="#mda8e489df7" x="46.079937" y="249.193253" style="fill: #666666; stroke: #666666; stroke-width: 0.8"/>
      </g>
     </g>
     <g id="text_9">
      <!-- $\mathdefault{10^{-11}}$ -->
      <g style="fill: #666666" transform="translate(19.645938 253.421378) scale(0.082 -0.082)">
       <use xlink:href="#ArialMT-31" transform="translate(0 0.99375)"/>
       <use xlink:href="#ArialMT-30" transform="translate(55.615234 0.99375)"/>
       <use xlink:href="#ArialMT-2212" transform="translate(112.972813 70.6875) scale(0.7)"/>
       <use xlink:href="#ArialMT-31" transform="translate(153.851719 70.6875) scale(0.7)"/>
       <use xlink:href="#ArialMT-31" transform="translate(192.782383 70.6875) scale(0.7)"/>
      </g>
     </g>
    </g>
    <g id="ytick_3">
     <g id="line2d_17">
      <path d="M 46.079937 210.20361 
L 675.559636 210.20361 
" clip-path="url(#p4f3b4bd50e)" style="fill: none; stroke: #d9dee3; stroke-opacity: 0.75; stroke-width: 0.65; stroke-linecap: square"/>
     </g>
     <g id="line2d_18">
      <g>
       <use xlink:href="#mda8e489df7" x="46.079937" y="210.20361" style="fill: #666666; stroke: #666666; stroke-width: 0.8"/>
      </g>
     </g>
     <g id="text_10">
      <!-- $\mathdefault{10^{-9}}$ -->
      <g style="fill: #666666" transform="translate(22.843938 214.431735) scale(0.082 -0.082)">
       <defs>
        <path id="ArialMT-39" d="M 350 1059 
L 891 1109 
Q 959 728 1153 556 
Q 1347 384 1650 384 
Q 1909 384 2104 503 
Q 2300 622 2425 820 
Q 2550 1019 2634 1356 
Q 2719 1694 2719 2044 
Q 2719 2081 2716 2156 
Q 2547 1888 2255 1720 
Q 1963 1553 1622 1553 
Q 1053 1553 659 1965 
Q 266 2378 266 3053 
Q 266 3750 677 4175 
Q 1088 4600 1706 4600 
Q 2153 4600 2523 4359 
Q 2894 4119 3086 3673 
Q 3278 3228 3278 2384 
Q 3278 1506 3087 986 
Q 2897 466 2520 194 
Q 2144 -78 1638 -78 
Q 1100 -78 759 220 
Q 419 519 350 1059 
z
M 2653 3081 
Q 2653 3566 2395 3850 
Q 2138 4134 1775 4134 
Q 1400 4134 1122 3828 
Q 844 3522 844 3034 
Q 844 2597 1108 2323 
Q 1372 2050 1759 2050 
Q 2150 2050 2401 2323 
Q 2653 2597 2653 3081 
z
" transform="scale(0.015625)"/>
       </defs>
       <use xlink:href="#ArialMT-31" transform="translate(0 0.99375)"/>
       <use xlink:href="#ArialMT-30" transform="translate(55.615234 0.99375)"/>
       <use xlink:href="#ArialMT-2212" transform="translate(112.972813 70.6875) scale(0.7)"/>
       <use xlink:href="#ArialMT-39" transform="translate(153.851719 70.6875) scale(0.7)"/>
      </g>
     </g>
    </g>
    <g id="ytick_4">
     <g id="line2d_19">
      <path d="M 46.079937 171.213967 
L 675.559636 171.213967 
" clip-path="url(#p4f3b4bd50e)" style="fill: none; stroke: #d9dee3; stroke-opacity: 0.75; stroke-width: 0.65; stroke-linecap: square"/>
     </g>
     <g id="line2d_20">
      <g>
       <use xlink:href="#mda8e489df7" x="46.079937" y="171.213967" style="fill: #666666; stroke: #666666; stroke-width: 0.8"/>
      </g>
     </g>
     <g id="text_11">
      <!-- $\mathdefault{10^{-7}}$ -->
      <g style="fill: #666666" transform="translate(22.843938 175.401092) scale(0.082 -0.082)">
       <defs>
        <path id="ArialMT-37" d="M 303 3981 
L 303 4522 
L 3269 4522 
L 3269 4084 
Q 2831 3619 2401 2847 
Q 1972 2075 1738 1259 
Q 1569 684 1522 0 
L 944 0 
Q 953 541 1156 1306 
Q 1359 2072 1739 2783 
Q 2119 3494 2547 3981 
L 303 3981 
z
" transform="scale(0.015625)"/>
       </defs>
       <use xlink:href="#ArialMT-31" transform="translate(0 0.846875)"/>
       <use xlink:href="#ArialMT-30" transform="translate(55.615234 0.846875)"/>
       <use xlink:href="#ArialMT-2212" transform="translate(112.972813 70.540625) scale(0.7)"/>
       <use xlink:href="#ArialMT-37" transform="translate(153.851719 70.540625) scale(0.7)"/>
      </g>
     </g>
    </g>
    <g id="ytick_5">
     <g id="line2d_21">
      <path d="M 46.079937 132.224324 
L 675.559636 132.224324 
" clip-path="url(#p4f3b4bd50e)" style="fill: none; stroke: #d9dee3; stroke-opacity: 0.75; stroke-width: 0.65; stroke-linecap: square"/>
     </g>
     <g id="line2d_22">
      <g>
       <use xlink:href="#mda8e489df7" x="46.079937" y="132.224324" style="fill: #666666; stroke: #666666; stroke-width: 0.8"/>
      </g>
     </g>
     <g id="text_12">
      <!-- $\mathdefault{10^{-5}}$ -->
      <g style="fill: #666666" transform="translate(22.843938 136.411449) scale(0.082 -0.082)">
       <use xlink:href="#ArialMT-31" transform="translate(0 0.879688)"/>
       <use xlink:href="#ArialMT-30" transform="translate(55.615234 0.879688)"/>
       <use xlink:href="#ArialMT-2212" transform="translate(112.972813 70.573438) scale(0.7)"/>
       <use xlink:href="#ArialMT-35" transform="translate(153.851719 70.573438) scale(0.7)"/>
      </g>
     </g>
    </g>
    <g id="ytick_6">
     <g id="line2d_23">
      <path d="M 46.079937 93.234681 
L 675.559636 93.234681 
" clip-path="url(#p4f3b4bd50e)" style="fill: none; stroke: #d9dee3; stroke-opacity: 0.75; stroke-width: 0.65; stroke-linecap: square"/>
     </g>
     <g id="line2d_24">
      <g>
       <use xlink:href="#mda8e489df7" x="46.079937" y="93.234681" style="fill: #666666; stroke: #666666; stroke-width: 0.8"/>
      </g>
     </g>
     <g id="text_13">
      <!-- $\mathdefault{10^{-3}}$ -->
      <g style="fill: #666666" transform="translate(22.843938 97.462806) scale(0.082 -0.082)">
       <use xlink:href="#ArialMT-31" transform="translate(0 0.99375)"/>
       <use xlink:href="#ArialMT-30" transform="translate(55.615234 0.99375)"/>
       <use xlink:href="#ArialMT-2212" transform="translate(112.972813 70.6875) scale(0.7)"/>
       <use xlink:href="#ArialMT-33" transform="translate(153.851719 70.6875) scale(0.7)"/>
      </g>
     </g>
    </g>
    <g id="ytick_7">
     <g id="line2d_25">
      <path d="M 46.079937 54.245038 
L 675.559636 54.245038 
" clip-path="url(#p4f3b4bd50e)" style="fill: none; stroke: #d9dee3; stroke-opacity: 0.75; stroke-width: 0.65; stroke-linecap: square"/>
     </g>
     <g id="line2d_26">
      <g>
       <use xlink:href="#mda8e489df7" x="46.079937" y="54.245038" style="fill: #666666; stroke: #666666; stroke-width: 0.8"/>
      </g>
     </g>
     <g id="text_14">
      <!-- $\mathdefault{10^{-1}}$ -->
      <g style="fill: #666666" transform="translate(22.843938 58.473163) scale(0.082 -0.082)">
       <use xlink:href="#ArialMT-31" transform="translate(0 0.99375)"/>
       <use xlink:href="#ArialMT-30" transform="translate(55.615234 0.99375)"/>
       <use xlink:href="#ArialMT-2212" transform="translate(112.972813 70.6875) scale(0.7)"/>
       <use xlink:href="#ArialMT-31" transform="translate(153.851719 70.6875) scale(0.7)"/>
      </g>
     </g>
    </g>
    <g id="text_15">
     <!-- Absolute drain current, |ID| (A) -->
     <g style="fill: #666666" transform="translate(13.751719 225.954112) rotate(-90) scale(0.09 -0.09)">
      <defs>
       <path id="ArialMT-41" d="M -9 0 
L 1750 4581 
L 2403 4581 
L 4278 0 
L 3588 0 
L 3053 1388 
L 1138 1388 
L 634 0 
L -9 0 
z
M 1313 1881 
L 2866 1881 
L 2388 3150 
Q 2169 3728 2063 4100 
Q 1975 3659 1816 3225 
L 1313 1881 
z
" transform="scale(0.015625)"/>
       <path id="ArialMT-62" d="M 941 0 
L 419 0 
L 419 4581 
L 981 4581 
L 981 2947 
Q 1338 3394 1891 3394 
Q 2197 3394 2470 3270 
Q 2744 3147 2920 2923 
Q 3097 2700 3197 2384 
Q 3297 2069 3297 1709 
Q 3297 856 2875 390 
Q 2453 -75 1863 -75 
Q 1275 -75 941 416 
L 941 0 
z
M 934 1684 
Q 934 1088 1097 822 
Q 1363 388 1816 388 
Q 2184 388 2453 708 
Q 2722 1028 2722 1663 
Q 2722 2313 2464 2622 
Q 2206 2931 1841 2931 
Q 1472 2931 1203 2611 
Q 934 2291 934 1684 
z
" transform="scale(0.015625)"/>
       <path id="ArialMT-73" d="M 197 991 
L 753 1078 
Q 800 744 1014 566 
Q 1228 388 1613 388 
Q 2000 388 2187 545 
Q 2375 703 2375 916 
Q 2375 1106 2209 1216 
Q 2094 1291 1634 1406 
Q 1016 1563 777 1677 
Q 538 1791 414 1992 
Q 291 2194 291 2438 
Q 291 2659 392 2848 
Q 494 3038 669 3163 
Q 800 3259 1026 3326 
Q 1253 3394 1513 3394 
Q 1903 3394 2198 3281 
Q 2494 3169 2634 2976 
Q 2775 2784 2828 2463 
L 2278 2388 
Q 2241 2644 2061 2787 
Q 1881 2931 1553 2931 
Q 1166 2931 1000 2803 
Q 834 2675 834 2503 
Q 834 2394 903 2306 
Q 972 2216 1119 2156 
Q 1203 2125 1616 2013 
Q 2213 1853 2448 1751 
Q 2684 1650 2818 1456 
Q 2953 1263 2953 975 
Q 2953 694 2789 445 
Q 2625 197 2315 61 
Q 2006 -75 1616 -75 
Q 969 -75 630 194 
Q 291 463 197 991 
z
" transform="scale(0.015625)"/>
       <path id="ArialMT-75" d="M 2597 0 
L 2597 488 
Q 2209 -75 1544 -75 
Q 1250 -75 995 37 
Q 741 150 617 320 
Q 494 491 444 738 
Q 409 903 409 1263 
L 409 3319 
L 972 3319 
L 972 1478 
Q 972 1038 1006 884 
Q 1059 663 1231 536 
Q 1403 409 1656 409 
Q 1909 409 2131 539 
Q 2353 669 2445 892 
Q 2538 1116 2538 1541 
L 2538 3319 
L 3100 3319 
L 3100 0 
L 2597 0 
z
" transform="scale(0.015625)"/>
       <path id="ArialMT-64" d="M 2575 0 
L 2575 419 
Q 2259 -75 1647 -75 
Q 1250 -75 917 144 
Q 584 363 401 755 
Q 219 1147 219 1656 
Q 219 2153 384 2558 
Q 550 2963 881 3178 
Q 1213 3394 1622 3394 
Q 1922 3394 2156 3267 
Q 2391 3141 2538 2938 
L 2538 4581 
L 3097 4581 
L 3097 0 
L 2575 0 
z
M 797 1656 
Q 797 1019 1065 703 
Q 1334 388 1700 388 
Q 2069 388 2326 689 
Q 2584 991 2584 1609 
Q 2584 2291 2321 2609 
Q 2059 2928 1675 2928 
Q 1300 2928 1048 2622 
Q 797 2316 797 1656 
z
" transform="scale(0.015625)"/>
       <path id="ArialMT-72" d="M 416 0 
L 416 3319 
L 922 3319 
L 922 2816 
Q 1116 3169 1280 3281 
Q 1444 3394 1641 3394 
Q 1925 3394 2219 3213 
L 2025 2691 
Q 1819 2813 1613 2813 
Q 1428 2813 1281 2702 
Q 1134 2591 1072 2394 
Q 978 2094 978 1738 
L 978 0 
L 416 0 
z
" transform="scale(0.015625)"/>
       <path id="ArialMT-69" d="M 425 3934 
L 425 4581 
L 988 4581 
L 988 3934 
L 425 3934 
z
M 425 0 
L 425 3319 
L 988 3319 
L 988 0 
L 425 0 
z
" transform="scale(0.015625)"/>
       <path id="ArialMT-6e" d="M 422 0 
L 422 3319 
L 928 3319 
L 928 2847 
Q 1294 3394 1984 3394 
Q 2284 3394 2536 3286 
Q 2788 3178 2913 3003 
Q 3038 2828 3088 2588 
Q 3119 2431 3119 2041 
L 3119 0 
L 2556 0 
L 2556 2019 
Q 2556 2363 2490 2533 
Q 2425 2703 2258 2804 
Q 2091 2906 1866 2906 
Q 1506 2906 1245 2678 
Q 984 2450 984 1813 
L 984 0 
L 422 0 
z
" transform="scale(0.015625)"/>
       <path id="ArialMT-63" d="M 2588 1216 
L 3141 1144 
Q 3050 572 2676 248 
Q 2303 -75 1759 -75 
Q 1078 -75 664 370 
Q 250 816 250 1647 
Q 250 2184 428 2587 
Q 606 2991 970 3192 
Q 1334 3394 1763 3394 
Q 2303 3394 2647 3120 
Q 2991 2847 3088 2344 
L 2541 2259 
Q 2463 2594 2264 2762 
Q 2066 2931 1784 2931 
Q 1359 2931 1093 2626 
Q 828 2322 828 1663 
Q 828 994 1084 691 
Q 1341 388 1753 388 
Q 2084 388 2306 591 
Q 2528 794 2588 1216 
z
" transform="scale(0.015625)"/>
       <path id="ArialMT-7c" d="M 588 -1347 
L 588 4659 
L 1078 4659 
L 1078 -1347 
L 588 -1347 
z
" transform="scale(0.015625)"/>
       <path id="ArialMT-49" d="M 597 0 
L 597 4581 
L 1203 4581 
L 1203 0 
L 597 0 
z
" transform="scale(0.015625)"/>
       <path id="ArialMT-44" d="M 494 0 
L 494 4581 
L 2072 4581 
Q 2606 4581 2888 4516 
Q 3281 4425 3559 4188 
Q 3922 3881 4101 3404 
Q 4281 2928 4281 2316 
Q 4281 1794 4159 1391 
Q 4038 988 3847 723 
Q 3656 459 3429 307 
Q 3203 156 2883 78 
Q 2563 0 2147 0 
L 494 0 
z
M 1100 541 
L 2078 541 
Q 2531 541 2789 625 
Q 3047 709 3200 863 
Q 3416 1078 3536 1442 
Q 3656 1806 3656 2325 
Q 3656 3044 3420 3430 
Q 3184 3816 2847 3947 
Q 2603 4041 2063 4041 
L 1100 4041 
L 1100 541 
z
" transform="scale(0.015625)"/>
      </defs>
      <use xlink:href="#ArialMT-41"/>
      <use xlink:href="#ArialMT-62" x="66.699219"/>
      <use xlink:href="#ArialMT-73" x="122.314453"/>
      <use xlink:href="#ArialMT-6f" x="172.314453"/>
      <use xlink:href="#ArialMT-6c" x="227.929688"/>
      <use xlink:href="#ArialMT-75" x="250.146484"/>
      <use xlink:href="#ArialMT-74" x="305.761719"/>
      <use xlink:href="#ArialMT-65" x="333.544922"/>
      <use xlink:href="#ArialMT-20" x="389.160156"/>
      <use xlink:href="#ArialMT-64" x="416.943359"/>
      <use xlink:href="#ArialMT-72" x="472.558594"/>
      <use xlink:href="#ArialMT-61" x="505.859375"/>
      <use xlink:href="#ArialMT-69" x="561.474609"/>
      <use xlink:href="#ArialMT-6e" x="583.691406"/>
      <use xlink:href="#ArialMT-20" x="639.306641"/>
      <use xlink:href="#ArialMT-63" x="667.089844"/>
      <use xlink:href="#ArialMT-75" x="717.089844"/>
      <use xlink:href="#ArialMT-72" x="772.705078"/>
      <use xlink:href="#ArialMT-72" x="806.005859"/>
      <use xlink:href="#ArialMT-65" x="839.306641"/>
      <use xlink:href="#ArialMT-6e" x="894.921875"/>
      <use xlink:href="#ArialMT-74" x="950.537109"/>
      <use xlink:href="#ArialMT-2c" x="978.320312"/>
      <use xlink:href="#ArialMT-20" x="1006.103516"/>
      <use xlink:href="#ArialMT-7c" x="1033.886719"/>
      <use xlink:href="#ArialMT-49" x="1059.863281"/>
      <use xlink:href="#ArialMT-44" x="1087.646484"/>
      <use xlink:href="#ArialMT-7c" x="1159.863281"/>
      <use xlink:href="#ArialMT-20" x="1185.839844"/>
      <use xlink:href="#ArialMT-28" x="1213.623047"/>
      <use xlink:href="#ArialMT-41" x="1246.923828"/>
      <use xlink:href="#ArialMT-29" x="1313.623047"/>
     </g>
    </g>
   </g>
   <g id="line2d_27">
    <path d="M 279.069177 265.619526 
L 280.091063 260.656456 
L 281.11295 266.971465 
L 282.134817 259.988084 
L 283.156703 261.690706 
L 284.17859 260.656456 
L 285.200476 274.495441 
L 286.222363 263.824453 
L 287.24423 266.683254 
L 288.266116 256.380291 
L 289.288003 261.084444 
L 290.309889 257.942773 
L 291.331776 264.674358 
L 292.353643 259.6111 
L 293.375529 256.989188 
L 294.397416 256.989188 
L 295.419303 257.452625 
L 296.441189 267.579513 
L 297.463056 257.743296 
L 298.484943 280.455447 
L 299.506829 264.238745 
L 300.528716 263.238465 
L 301.550602 261.849515 
L 302.572469 262.011148 
L 303.594356 263.429239 
L 304.616242 263.238465 
L 305.638129 257.079844 
L 306.660015 263.824453 
L 307.681882 255.734052 
L 308.703769 257.842447 
L 309.725655 277.974394 
L 310.747542 260.382814 
L 311.769428 267.900525 
L 312.791296 259.860548 
L 313.813182 266.134695 
L 314.835069 271.519676 
L 315.856955 257.264122 
L 316.878842 259.017706 
L 317.900709 259.133074 
L 318.922595 255.970675 
L 320.966368 258.251225 
L 321.988245 259.48908 
L 323.010132 255.428634 
L 324.032008 253.734736 
L 325.053895 256.549807 
L 326.075781 257.743296 
L 327.097658 260.518529 
L 328.119545 254.990127 
L 329.141421 258.044302 
L 330.163308 257.645292 
L 331.185195 254.641278 
L 332.207071 256.380291 
L 333.228958 260.117569 
L 334.250835 260.117569 
L 335.272721 259.250036 
L 336.294608 256.213994 
L 337.316484 258.903889 
L 338.338371 257.743296 
L 339.360248 259.734906 
L 340.382134 257.942773 
L 341.404021 256.549807 
L 342.425898 259.860548 
L 343.447784 269.322677 
L 345.491547 252.428478 
L 346.513434 261.690706 
L 347.535311 254.919124 
L 348.557197 255.061637 
L 349.579074 259.860548 
L 350.600961 262.690422 
L 352.644724 259.017706 
L 354.688487 262.690422 
L 355.710374 256.132109 
L 356.73226 266.134695 
L 357.754137 258.791582 
L 358.776024 266.404533 
L 359.7979 259.017706 
L 360.819787 259.988084 
L 361.841673 257.743296 
L 362.86355 260.656456 
L 363.885437 261.535022 
L 364.907313 259.734906 
L 365.9292 268.581543 
L 366.951086 263.429239 
L 367.972963 256.051007 
L 368.99485 259.860548 
L 370.016727 258.463332 
L 371.038613 255.970675 
L 372.0605 281.603392 
L 373.082376 259.017706 
L 374.104263 259.133074 
L 375.12614 253.984032 
L 376.148026 260.117569 
L 377.169913 254.175795 
L 378.19179 252.971861 
L 379.213676 264.900868 
L 380.235553 254.240807 
L 381.257439 252.376023 
L 382.279326 260.796852 
L 383.301203 255.20659 
L 384.323089 257.942773 
L 385.344966 256.051007 
L 386.366852 256.380291 
L 387.388739 257.645292 
L 388.410616 254.175795 
L 389.432502 257.942773 
L 390.454379 257.54841 
L 391.476266 256.051007 
L 392.498152 256.213994 
L 393.520029 255.579966 
L 394.541915 260.117569 
L 395.563792 257.171482 
L 396.585679 262.343974 
L 397.607565 255.279959 
L 398.629442 258.044302 
L 399.651329 257.452625 
L 400.673205 254.505701 
L 401.695092 257.264122 
L 402.716974 257.645292 
L 403.738855 263.624411 
L 404.760742 257.35791 
L 405.782623 255.970675 
L 406.804505 256.051007 
L 407.826387 258.791582 
L 408.848268 256.29668 
L 409.870155 253.315444 
L 410.892037 259.6111 
L 411.913918 253.734736 
L 412.9358 259.133074 
L 413.957681 259.133074 
L 414.979568 255.579966 
L 416.00145 256.810736 
L 417.023331 261.690706 
L 418.045213 256.549807 
L 419.067095 260.939427 
L 420.088981 254.240807 
L 421.110863 263.429239 
L 422.132744 259.6111 
L 423.154626 263.624411 
L 425.198394 257.942773 
L 426.220276 268.581543 
L 427.242158 259.734906 
L 428.264039 257.54841 
L 429.285921 258.680746 
L 430.307807 264.238745 
L 431.329689 258.680746 
L 432.351571 260.656456 
L 433.373452 259.133074 
L 434.395334 257.264122 
L 435.417221 256.380291 
L 436.439102 258.251225 
L 437.460984 257.645292 
L 438.482866 259.6111 
L 439.504747 257.264122 
L 440.526634 254.505701 
L 441.548515 260.382814 
L 442.570397 262.690422 
L 443.592279 276.056908 
L 444.614163 267.817215 
L 445.636044 253.070284 
L 446.657929 245.489024 
L 448.701692 236.051575 
L 449.723576 232.475732 
L 450.745458 229.720999 
L 451.767342 227.423414 
L 452.789223 225.936773 
L 453.811105 225.018783 
L 454.832989 224.788437 
L 455.854871 224.802525 
L 456.876755 225.351743 
L 457.898636 226.22252 
L 459.942402 228.326396 
L 461.986168 229.749857 
L 463.00805 230.302265 
L 464.029932 231.081435 
L 465.051815 231.627251 
L 466.073697 232.0385 
L 467.09558 232.205858 
L 468.117463 232.646965 
L 469.139346 232.565956 
L 470.161228 233.021442 
L 471.18311 233.187913 
L 472.204993 232.816545 
L 473.226876 233.117699 
L 474.248759 233.713696 
L 475.270641 233.150036 
L 476.292524 233.485955 
L 477.314406 233.667658 
L 478.336289 233.38544 
L 479.358172 233.390992 
L 481.401937 233.876844 
L 482.423819 233.491577 
L 484.467585 234.037196 
L 485.489467 233.719475 
L 487.533233 233.713696 
L 488.555115 233.519732 
L 489.576998 233.576321 
L 492.642646 232.99489 
L 493.664528 233.182493 
L 494.686411 232.900004 
L 496.730176 232.764799 
L 497.752059 232.033761 
L 498.773942 231.600229 
L 500.817707 231.295553 
L 503.883355 229.416837 
L 505.92712 227.198574 
L 506.949002 226.167908 
L 508.992768 223.168116 
L 510.014649 221.154287 
L 512.058415 216.286625 
L 514.102181 210.706447 
L 516.145947 204.327381 
L 519.211594 193.807508 
L 523.299126 178.67645 
L 527.386657 162.683106 
L 532.49607 141.720703 
L 539.649247 111.318169 
L 544.75866 89.8871 
L 547.82431 78.075933 
L 549.868073 71.076881 
L 550.889955 68.000719 
L 551.911836 65.289585 
L 552.933723 63.000635 
L 553.955604 61.175273 
L 554.977486 59.796173 
L 555.999368 58.794922 
L 557.021249 58.081427 
L 558.043136 57.577106 
L 560.086899 56.948792 
L 562.130662 56.608968 
L 565.196312 56.348715 
L 570.305725 56.172528 
L 581.546438 56.067365 
L 624.465507 56.015628 
L 646.946923 56.009839 
L 646.946923 56.009839 
" clip-path="url(#p4f3b4bd50e)" style="fill: none; stroke: #dceaf5; stroke-width: 1.55; stroke-linecap: square"/>
   </g>
   <g id="line2d_28">
    <path d="M 279.069177 255.560402 
L 280.091063 261.047003 
L 281.11295 253.242304 
L 282.134817 258.32947 
L 283.156703 258.988361 
L 284.17859 256.442909 
L 285.200476 256.275499 
L 286.222363 252.901617 
L 287.24423 252.004752 
L 288.266116 254.761262 
L 289.288003 253.597316 
L 290.309889 256.613753 
L 291.331776 253.597316 
L 292.353643 256.966086 
L 293.375529 255.71418 
L 294.397416 257.718045 
L 295.419303 254.094995 
L 296.441189 256.275499 
L 297.463056 253.127199 
L 298.484943 256.700457 
L 299.506829 254.159303 
L 300.528716 252.05495 
L 301.550602 253.719 
L 302.572469 253.184575 
L 303.594356 252.467687 
L 304.616242 253.127199 
L 305.638129 250.837522 
L 306.660015 250.167018 
L 307.681882 250.969412 
L 308.703769 248.457981 
L 309.725655 249.811913 
L 310.747542 246.898611 
L 311.769428 246.871273 
L 312.791296 245.990502 
L 313.813182 246.139421 
L 314.835069 245.676564 
L 315.856955 245.844173 
L 316.878842 244.505018 
L 317.900709 244.777726 
L 318.922595 244.341468 
L 319.944482 243.54948 
L 320.966368 243.118101 
L 321.988245 243.277308 
L 323.010132 244.180991 
L 324.032008 244.121608 
L 325.053895 243.88809 
L 326.075781 243.96522 
L 327.097658 243.698321 
L 329.141421 245.148146 
L 330.163308 244.756438 
L 331.185195 244.756438 
L 332.207071 245.724101 
L 333.228958 246.18967 
L 334.250835 247.233821 
L 335.272721 247.46489 
L 337.316484 248.230558 
L 338.338371 247.732645 
L 339.360248 248.5241 
L 340.382134 250.664853 
L 341.404021 250.370897 
L 342.425898 250.495634 
L 343.447784 250.288739 
L 344.469661 251.709567 
L 345.491547 254.692235 
L 346.513434 253.013675 
L 347.535311 254.90112 
L 348.557197 253.780463 
L 349.579074 255.409416 
L 350.600961 252.681855 
L 351.622847 255.636967 
L 353.66661 255.636967 
L 354.688487 252.791059 
L 355.710374 254.355253 
L 356.73226 251.613446 
L 357.754137 254.094995 
L 358.776024 251.905209 
L 359.7979 254.355253 
L 360.819787 253.41793 
L 361.841673 255.334921 
L 362.86355 253.597316 
L 363.885437 255.043187 
L 364.907313 253.657939 
L 365.9292 256.111228 
L 366.951086 253.358956 
L 367.972963 252.207387 
L 368.99485 252.520715 
L 370.016727 250.412263 
L 371.038613 251.709567 
L 372.0605 250.007346 
L 373.082376 249.889551 
L 374.104263 250.707684 
L 375.12614 248.657886 
L 376.148026 250.126778 
L 378.19179 246.709037 
L 379.213676 248.359771 
L 380.235553 246.735855 
L 381.257439 246.064634 
L 382.279326 245.148146 
L 384.323089 244.714008 
L 385.344966 244.101893 
L 386.366852 243.118101 
L 387.388739 243.349035 
L 388.410616 242.876243 
L 389.432502 241.424314 
L 390.454379 241.169929 
L 392.498152 240.310166 
L 393.520029 239.325717 
L 394.541915 237.887496 
L 395.563792 238.011217 
L 396.585679 237.347657 
L 397.607565 236.345646 
L 398.629442 236.143338 
L 399.651329 235.014842 
L 400.673205 234.835073 
L 401.695092 234.243535 
L 403.738855 232.682653 
L 404.760742 232.057456 
L 405.782623 231.654353 
L 406.804505 230.564702 
L 407.826387 230.058947 
L 411.913918 227.116109 
L 413.957681 225.633649 
L 414.979568 224.708376 
L 416.00145 224.226341 
L 418.045213 222.455011 
L 419.067095 221.868251 
L 420.088981 220.844516 
L 421.110863 220.196024 
L 426.220276 216.129686 
L 431.329689 212.692135 
L 433.373452 211.703581 
L 435.417221 211.047088 
L 437.460984 210.83046 
L 439.504747 211.009477 
L 441.548515 211.447649 
L 443.592279 212.074777 
L 447.67981 213.040876 
L 451.767342 213.434007 
L 459.942402 212.837949 
L 460.964284 212.624939 
L 461.986168 212.280192 
L 464.029932 211.361558 
L 465.051815 210.499374 
L 466.073697 209.391622 
L 467.09558 207.783555 
L 468.117463 205.811414 
L 469.139346 203.293821 
L 470.161228 200.336349 
L 472.204993 193.413187 
L 484.467585 148.815735 
L 489.576998 131.586195 
L 493.664528 118.464399 
L 497.752059 106.019688 
L 500.817707 97.318409 
L 503.883355 88.992354 
L 506.949002 81.285495 
L 511.036534 72.166256 
L 513.080299 68.231939 
L 515.124063 64.87985 
L 517.167828 62.205864 
L 518.189712 61.123832 
L 519.211594 60.208393 
L 521.25536 58.816836 
L 523.299126 57.88661 
L 525.342889 57.274657 
L 528.408539 56.724409 
L 531.474184 56.421821 
L 536.583597 56.17587 
L 545.780541 56.024385 
L 569.283839 55.951914 
L 646.946923 55.932821 
L 646.946923 55.932821 
" clip-path="url(#p4f3b4bd50e)" style="fill: none; stroke: #b7d4ea; stroke-width: 1.55; stroke-linecap: square"/>
   </g>
   <g id="line2d_29">
    <path d="M 279.069177 237.963558 
L 280.091063 237.719259 
L 282.134817 239.08306 
L 283.156703 238.566021 
L 284.17859 238.847005 
L 285.200476 240.247695 
L 286.222363 239.833492 
L 287.24423 239.869235 
L 288.266116 240.869263 
L 289.288003 240.950269 
L 290.309889 241.731324 
L 291.331776 241.367346 
L 292.353643 242.127236 
L 293.375529 244.241122 
L 294.397416 243.313383 
L 295.419303 243.065964 
L 296.441189 243.850099 
L 297.463056 244.102202 
L 298.484943 244.484727 
L 299.506829 245.170794 
L 300.528716 244.928628 
L 301.550602 243.965511 
L 302.572469 245.676936 
L 303.594356 245.941833 
L 304.616242 247.262825 
L 305.638129 246.06504 
L 306.660015 247.037116 
L 307.681882 245.193151 
L 308.703769 245.676936 
L 309.725655 249.546303 
L 310.747542 244.526007 
L 311.769428 245.844553 
L 312.791296 247.7331 
L 314.835069 246.240568 
L 315.856955 246.215271 
L 316.878842 247.092968 
L 317.900709 247.642906 
L 318.922595 247.406995 
L 319.944482 246.342552 
L 320.966368 244.799417 
L 321.988245 246.817268 
L 323.010132 245.990904 
L 324.032008 248.135454 
L 325.053895 247.00931 
L 326.075781 244.672134 
L 327.097658 245.582635 
L 328.119545 246.7632 
L 329.141421 247.00931 
L 330.163308 245.260594 
L 331.185195 244.820813 
L 333.228958 244.756772 
L 334.250835 243.888391 
L 335.272721 243.965511 
L 336.294608 243.736227 
L 337.316484 244.863769 
L 338.338371 243.259742 
L 340.382134 242.92776 
L 341.404021 242.493588 
L 344.469661 241.467691 
L 345.491547 240.360808 
L 346.513434 240.050251 
L 347.535311 239.08306 
L 348.557197 238.825866 
L 349.579074 239.236781 
L 350.600961 238.576262 
L 351.622847 237.472807 
L 352.644724 236.924199 
L 353.66661 236.857015 
L 354.688487 236.553027 
L 355.710374 235.885977 
L 356.73226 235.485376 
L 357.754137 235.205493 
L 358.776024 234.079351 
L 359.7979 233.76007 
L 361.841673 232.560982 
L 362.86355 232.000766 
L 363.885437 231.609282 
L 364.907313 230.889165 
L 365.9292 230.485559 
L 371.038613 227.570204 
L 372.0605 226.735656 
L 377.169913 223.859924 
L 378.19179 223.016706 
L 390.454379 215.038065 
L 393.520029 212.94848 
L 400.673205 208.310472 
L 403.738855 206.524999 
L 405.782623 205.452879 
L 408.848268 204.097632 
L 410.892037 203.382086 
L 412.9358 202.855024 
L 414.979568 202.523841 
L 417.023331 202.362558 
L 419.067095 202.374801 
L 425.198394 202.66847 
L 426.220276 202.490992 
L 427.242158 202.123415 
L 428.264039 201.471385 
L 429.285921 200.502115 
L 430.307807 199.116413 
L 431.329689 197.294618 
L 432.351571 195.06567 
L 434.395334 189.614806 
L 437.460984 179.951159 
L 443.592279 159.768403 
L 451.767342 134.6792 
L 455.854871 122.981647 
L 459.942402 112.061839 
L 464.029932 101.657503 
L 467.09558 94.37162 
L 470.161228 87.334659 
L 473.226876 80.74896 
L 477.314406 72.866657 
L 479.358172 69.371153 
L 481.401937 66.285781 
L 483.445702 63.671721 
L 485.489467 61.571271 
L 487.533233 59.955605 
L 489.576998 58.771331 
L 491.620763 57.927972 
L 493.664528 57.335673 
L 496.730176 56.762955 
L 500.817707 56.341212 
L 505.92712 56.084257 
L 515.124063 55.90694 
L 535.561715 55.819066 
L 638.77186 55.78401 
L 646.946923 55.783402 
L 646.946923 55.783402 
" clip-path="url(#p4f3b4bd50e)" style="fill: none; stroke: #8dbdde; stroke-width: 1.55; stroke-linecap: square"/>
   </g>
   <g id="line2d_30">
    <path d="M 197.318566 250.624157 
L 198.340453 249.074038 
L 199.362339 249.813658 
L 200.384206 256.880652 
L 203.449866 249.660455 
L 204.471753 249.145145 
L 205.49362 253.907698 
L 206.515506 260.221358 
L 207.537393 250.414109 
L 208.559279 251.379852 
L 209.581166 249.43575 
L 210.603033 250.128588 
L 211.624919 258.880098 
L 212.646806 254.424583 
L 213.668692 254.358237 
L 214.690579 248.264119 
L 215.712446 251.379852 
L 216.734332 257.244515 
L 217.756219 254.22704 
L 218.778105 253.721727 
L 219.799992 250.168811 
L 220.821859 249.622595 
L 221.843746 248.761155 
L 222.865632 255.953791 
L 223.887519 251.615605 
L 224.909405 250.624157 
L 225.931272 252.417362 
L 226.953159 251.060447 
L 227.975045 252.630245 
L 228.996932 250.883218 
L 230.018818 251.907411 
L 231.040685 250.088582 
L 232.062572 250.581717 
L 233.084458 248.010514 
L 234.106345 248.829695 
L 235.128231 247.349871 
L 236.150098 246.165625 
L 237.171985 247.150022 
L 238.193871 245.991613 
L 239.215758 246.87247 
L 240.237645 244.972778 
L 241.259512 243.699131 
L 242.281398 243.699131 
L 243.303285 243.985457 
L 244.325171 243.171611 
L 245.347058 243.066454 
L 246.368925 241.74663 
L 247.390811 240.2231 
L 248.412698 241.046148 
L 249.434584 240.310693 
L 250.456471 240.709903 
L 251.478338 240.361164 
L 252.500224 239.587744 
L 253.522111 239.07248 
L 254.543997 238.975242 
L 255.565884 239.81007 
L 257.609638 239.553168 
L 259.653411 239.248178 
L 260.675297 239.237078 
L 261.697164 239.587744 
L 262.719051 240.298135 
L 263.740937 239.881517 
L 264.762824 240.592053 
L 265.78471 240.235564 
L 268.85035 241.731743 
L 269.872237 242.127665 
L 270.894123 242.658419 
L 271.91599 242.575839 
L 272.937877 242.843001 
L 273.959763 242.741823 
L 274.98165 242.237499 
L 276.003537 243.014361 
L 277.025404 242.205967 
L 278.04729 244.102768 
L 279.069177 242.911127 
L 280.091063 242.79225 
L 281.11295 242.081024 
L 282.134817 243.385927 
L 283.156703 243.440376 
L 284.17859 243.793518 
L 285.200476 243.242445 
L 286.222363 242.843001 
L 287.24423 243.224684 
L 288.266116 242.72507 
L 289.288003 243.624389 
L 291.331776 243.40403 
L 292.353643 242.911127 
L 293.375529 243.605809 
L 294.397416 242.979806 
L 295.419303 243.083886 
L 296.441189 242.72507 
L 297.463056 241.8667 
L 299.506829 241.957888 
L 300.528716 241.198435 
L 301.550602 242.158905 
L 302.572469 240.802718 
L 304.616242 240.248038 
L 305.638129 239.69233 
L 306.660015 238.384014 
L 307.681882 238.900374 
L 308.703769 238.156665 
L 309.725655 237.992463 
L 310.747542 237.198646 
L 311.769428 236.798885 
L 312.791296 236.907581 
L 313.813182 236.283205 
L 314.835069 235.946062 
L 315.856955 235.983701 
L 318.922595 234.182567 
L 319.944482 233.812603 
L 320.966368 233.77764 
L 321.988245 233.016329 
L 323.010132 232.109997 
L 325.053895 230.91825 
L 326.075781 230.668925 
L 327.097658 230.036626 
L 328.119545 229.638702 
L 340.382134 222.96307 
L 342.425898 221.673967 
L 371.038613 203.99832 
L 375.12614 201.808211 
L 378.19179 200.370655 
L 381.257439 199.116393 
L 384.323089 198.096252 
L 390.454379 196.275885 
L 391.476266 195.82051 
L 392.498152 195.208473 
L 393.520029 194.398067 
L 394.541915 193.32552 
L 395.563792 191.964123 
L 396.585679 190.231072 
L 397.607565 188.144771 
L 399.651329 183.076631 
L 401.695092 177.209196 
L 405.782623 164.757849 
L 409.870155 152.581917 
L 413.957681 140.978389 
L 418.045213 130.202716 
L 422.132744 119.914643 
L 430.307807 101.025606 
L 437.460984 86.253084 
L 440.526634 80.486623 
L 444.614163 73.528672 
L 446.657929 70.405592 
L 448.701692 67.579557 
L 450.745458 65.099203 
L 452.789223 62.993959 
L 454.832989 61.272783 
L 456.876755 59.918407 
L 458.920518 58.878963 
L 460.964284 58.100145 
L 463.00805 57.523693 
L 466.073697 56.930193 
L 470.161228 56.460548 
L 475.270641 56.150629 
L 483.445702 55.935027 
L 498.773942 55.816857 
L 524.321007 55.776811 
L 524.321007 55.776811 
" clip-path="url(#p4f3b4bd50e)" style="fill: none; stroke: #5b9bd5; stroke-width: 1.55; stroke-linecap: square"/>
   </g>
   <g id="line2d_31">
    <path d="M 197.318566 243.699991 
L 198.340453 244.589862 
L 199.362339 244.715905 
L 200.384206 243.986347 
L 201.406093 243.588106 
L 202.42798 244.99562 
L 203.449866 245.083571 
L 204.471753 244.930247 
L 205.49362 245.750145 
L 206.515506 244.88694 
L 207.537393 245.017518 
L 208.559279 243.832428 
L 209.581166 244.424667 
L 210.603033 245.217227 
L 211.624919 245.105699 
L 212.646806 244.737091 
L 213.668692 244.652649 
L 214.690579 244.779637 
L 215.712446 244.445136 
L 216.734332 244.631673 
L 217.756219 243.794362 
L 218.778105 243.851512 
L 219.799992 241.928067 
L 220.821859 242.929027 
L 222.865632 241.912858 
L 223.887519 241.958578 
L 224.909405 240.57964 
L 225.931272 240.7634 
L 227.975045 240.075556 
L 228.996932 239.858157 
L 230.018818 239.259765 
L 231.040685 239.094729 
L 232.062572 238.576986 
L 233.084458 238.414557 
L 234.106345 237.803685 
L 235.128231 237.76635 
L 236.150098 237.25145 
L 237.171985 237.242687 
L 238.193871 237.077955 
L 239.215758 236.505306 
L 240.237645 236.99252 
L 241.259512 236.683717 
L 243.303285 236.505306 
L 244.325171 236.267916 
L 245.347058 236.46527 
L 246.368925 236.481261 
L 248.412698 236.037005 
L 249.434584 235.893955 
L 252.500224 236.221227 
L 253.522111 236.338435 
L 255.565884 236.799243 
L 257.609638 236.362078 
L 258.631524 236.675527 
L 259.653411 236.790941 
L 260.675297 237.026588 
L 261.697164 236.425432 
L 262.719051 237.077955 
L 263.740937 236.401617 
L 264.762824 236.275726 
L 265.78471 235.92387 
L 266.806577 236.06743 
L 267.828464 236.425432 
L 268.85035 235.702035 
L 269.872237 235.968948 
L 270.894123 235.13741 
L 271.91599 235.247366 
L 274.98165 234.640224 
L 279.069177 233.486404 
L 280.091063 233.000615 
L 281.11295 232.832543 
L 284.17859 231.515572 
L 287.24423 230.513436 
L 288.266116 230.104318 
L 289.288003 229.444926 
L 290.309889 229.110055 
L 299.506829 224.857204 
L 300.528716 224.31916 
L 301.550602 223.957881 
L 302.572469 223.291993 
L 308.703769 220.052322 
L 319.944482 213.611522 
L 336.294608 203.701206 
L 341.404021 200.807618 
L 345.491547 198.714388 
L 349.579074 196.863444 
L 356.73226 193.784685 
L 358.776024 192.50372 
L 359.7979 191.644081 
L 360.819787 190.559932 
L 361.841673 189.228075 
L 362.86355 187.587846 
L 363.885437 185.657936 
L 365.9292 180.946939 
L 367.972963 175.392556 
L 379.213676 142.937643 
L 382.279326 134.941723 
L 385.344966 127.278524 
L 388.410616 120.026915 
L 395.563792 104.524906 
L 398.629442 98.463968 
L 402.716974 90.670266 
L 406.804505 83.460319 
L 409.870155 78.509657 
L 412.9358 73.84318 
L 416.00145 69.684293 
L 418.045213 67.220421 
L 420.088981 65.038436 
L 422.132744 63.15581 
L 424.176508 61.576394 
L 426.220276 60.291674 
L 428.264039 59.264514 
L 430.307807 58.461471 
L 432.351571 57.841854 
L 435.417221 57.173503 
L 438.482866 56.726336 
L 442.570397 56.346218 
L 448.701692 56.037089 
L 457.898636 55.83556 
L 475.270641 55.721839 
L 524.321007 55.676506 
L 524.321007 55.676506 
" clip-path="url(#p4f3b4bd50e)" style="fill: none; stroke: #377faf; stroke-width: 1.55; stroke-linecap: square"/>
   </g>
   <g id="line2d_32">
    <path d="M 156.443261 246.819629 
L 157.465148 248.138213 
L 158.487034 248.428495 
L 159.508901 247.675489 
L 160.530788 247.208299 
L 161.552674 249.111564 
L 162.574561 248.106572 
L 163.596447 249.854669 
L 164.618315 250.051104 
L 165.640201 249.218952 
L 166.662088 248.970475 
L 167.683974 248.201872 
L 169.727728 248.265993 
L 170.749614 248.69516 
L 171.771501 246.552534 
L 172.793387 246.765528 
L 173.815274 247.888277 
L 175.859027 249.512194 
L 176.880914 248.106572 
L 177.9028 248.494361 
L 178.924687 247.123498 
L 179.946554 248.395752 
L 180.96844 248.52751 
L 181.990327 248.866197 
L 183.012213 247.438662 
L 184.0341 247.067409 
L 186.077854 246.765528 
L 187.09974 245.376172 
L 188.121627 247.208299 
L 189.143513 246.765528 
L 190.16538 245.083846 
L 191.187267 246.738616 
L 192.209153 244.303094 
L 193.23104 244.303094 
L 194.252926 245.217507 
L 195.274793 244.84412 
L 196.29668 244.652896 
L 197.318566 244.323297 
L 198.340453 242.998055 
L 199.362339 243.588324 
L 200.384206 244.045042 
L 201.406093 242.659364 
L 202.42798 242.742767 
L 203.449866 241.269366 
L 204.471753 241.73259 
L 205.49362 240.84356 
L 206.515506 241.199212 
L 207.537393 240.605806 
L 208.559279 240.438148 
L 209.581166 239.496484 
L 211.624919 238.805654 
L 212.646806 238.690606 
L 213.668692 238.206113 
L 215.712446 237.794448 
L 216.734332 237.155684 
L 217.756219 236.354281 
L 218.778105 236.708431 
L 219.799992 236.675618 
L 220.821859 236.377957 
L 221.843746 235.6657 
L 222.865632 235.422154 
L 223.887519 234.868689 
L 224.909405 234.763513 
L 225.931272 234.770056 
L 226.953159 234.493494 
L 227.975045 234.730916 
L 228.996932 234.116049 
L 230.018818 233.656706 
L 232.062572 233.67392 
L 234.106345 233.413743 
L 236.150098 232.362262 
L 239.215758 232.279041 
L 240.237645 232.41655 
L 242.281398 231.6638 
L 243.303285 231.537908 
L 245.347058 231.542371 
L 247.390811 231.132695 
L 248.412698 230.561063 
L 249.434584 230.153481 
L 251.478338 229.837325 
L 252.500224 229.628178 
L 258.631524 227.492533 
L 259.653411 226.865894 
L 260.675297 226.600228 
L 262.719051 225.582845 
L 263.740937 225.433962 
L 266.806577 224.042174 
L 267.828464 223.374986 
L 270.894123 221.909728 
L 272.937877 220.966609 
L 274.98165 219.969972 
L 280.091063 217.270689 
L 285.200476 214.386697 
L 286.222363 213.875028 
L 289.288003 212.028279 
L 299.506829 205.959737 
L 305.638129 202.32857 
L 311.769428 198.888972 
L 315.856955 196.77393 
L 325.053895 192.214737 
L 327.097658 190.823984 
L 328.119545 189.948442 
L 329.141421 188.916153 
L 330.163308 187.658461 
L 331.185195 186.163864 
L 332.207071 184.403957 
L 334.250835 180.132696 
L 336.294608 174.962881 
L 339.360248 166.270224 
L 345.491547 148.587313 
L 348.557197 140.107378 
L 354.688487 124.394098 
L 357.754137 117.221126 
L 360.819787 110.385336 
L 363.885437 104.00672 
L 366.951086 98.115563 
L 370.016727 92.469532 
L 373.082376 87.189126 
L 376.148026 82.257188 
L 379.213676 77.707648 
L 382.279326 73.468575 
L 385.344966 69.683493 
L 387.388739 67.429633 
L 389.432502 65.414481 
L 391.476266 63.650003 
L 393.520029 62.139751 
L 395.563792 60.88002 
L 397.607565 59.842851 
L 399.651329 59.006788 
L 402.716974 58.06231 
L 405.782623 57.402071 
L 409.870155 56.818145 
L 414.979568 56.384154 
L 422.132744 56.06646 
L 433.373452 55.857715 
L 454.832989 55.748849 
L 463.00805 55.735735 
L 463.00805 55.735735 
" clip-path="url(#p4f3b4bd50e)" style="fill: none; stroke: #225f8d; stroke-width: 1.55; stroke-linecap: square"/>
   </g>
   <g id="line2d_33">
    <path d="M 74.692651 248.012313 
L 75.714518 249.437926 
L 76.736424 251.336215 
L 77.758291 257.438113 
L 78.780197 254.699436 
L 79.802064 254.037791 
L 80.823931 252.687534 
L 81.845837 256.885956 
L 82.867704 256.119745 
L 83.88961 258.886741 
L 84.911477 256.367559 
L 85.933344 265.58183 
L 86.95525 254.838177 
L 87.977117 254.037791 
L 88.999023 261.825138 
L 90.02089 283.657081 
L 91.042758 271.467307 
L 92.064664 288.182896 
L 93.086531 263.594615 
L 94.108437 266.92745 
L 95.130304 273.742328 
L 96.152171 266.92745 
L 97.174077 268.544495 
L 98.195944 263.032353 
L 99.21785 283.657081 
L 100.239717 260.497872 
L 101.261584 268.528338 
L 102.28349 283.657081 
L 103.305357 266.106931 
L 104.327263 266.106931 
L 105.34913 265.347542 
L 106.370997 286.077607 
L 107.392903 276.861551 
L 108.41477 261.674269 
L 109.436676 260.781876 
L 110.458543 264.430979 
L 111.48041 271.981176 
L 112.502316 264.430979 
L 113.524183 263.793814 
L 114.546089 275.929381 
L 115.567956 273.742328 
L 116.589823 275.123845 
L 117.611729 267.865908 
L 118.633596 276.819081 
L 119.655502 288.182896 
L 120.677369 267.532026 
L 121.699236 271.981176 
L 122.721142 266.375871 
L 123.743009 267.546182 
L 124.764915 267.865908 
L 125.786782 274.388797 
L 126.808649 257.927596 
L 127.830556 266.640709 
L 128.852423 261.359277 
L 129.874329 275.929381 
L 130.896196 273.085854 
L 131.918063 258.77466 
L 132.939969 255.195457 
L 133.961836 270.070256 
L 134.983742 265.098007 
L 136.005609 275.123845 
L 137.027476 263.023923 
L 138.049382 260.917624 
L 139.071249 260.77532 
L 140.093155 254.230917 
L 141.115022 256.709588 
L 142.136889 257.927596 
L 143.158795 260.229142 
L 144.180662 254.296269 
L 145.202568 251.290092 
L 146.224435 249.147225 
L 147.246302 253.974396 
L 148.268208 252.212722 
L 149.290075 251.429252 
L 150.311981 253.019545 
L 151.333848 250.458143 
L 152.355715 250.171158 
L 153.377621 248.106572 
L 154.399488 252.212722 
L 155.421394 252.526286 
L 156.443261 251.714598 
L 157.465148 247.73575 
L 158.487034 247.857555 
L 159.508901 246.293625 
L 160.530788 247.179925 
L 161.552674 248.461364 
L 162.574561 248.935573 
L 163.596447 245.678984 
L 164.618315 246.192241 
L 165.640201 245.039747 
L 166.662088 246.422081 
L 167.683974 246.984001 
L 169.727728 245.750426 
L 170.749614 244.143362 
L 171.771501 243.756715 
L 172.793387 244.103902 
L 173.815274 244.673925 
L 175.859027 243.172627 
L 176.880914 241.882689 
L 177.9028 241.882689 
L 178.924687 242.004738 
L 179.946554 241.255285 
L 180.96844 242.349698 
L 183.012213 241.074411 
L 184.0341 239.542315 
L 185.055967 239.71641 
L 186.077854 239.416885 
L 187.09974 239.728142 
L 188.121627 238.90096 
L 189.143513 238.649158 
L 190.16538 237.710755 
L 191.187267 237.190421 
L 192.209153 236.874449 
L 193.23104 236.924888 
L 194.252926 236.40964 
L 195.274793 236.291444 
L 197.318566 235.076255 
L 200.384206 234.550635 
L 201.406093 234.152441 
L 202.42798 233.123564 
L 204.471753 232.910963 
L 205.49362 232.303437 
L 206.515506 232.362262 
L 210.603033 230.549142 
L 211.624919 230.657046 
L 212.646806 230.485842 
L 215.712446 229.000239 
L 217.756219 228.663094 
L 218.778105 228.223423 
L 219.799992 228.064998 
L 223.887519 226.697934 
L 225.931272 226.232222 
L 226.953159 225.725404 
L 228.996932 224.922346 
L 235.128231 222.604481 
L 236.150098 222.043902 
L 237.171985 221.780466 
L 247.390811 216.90071 
L 251.478338 214.713757 
L 254.543997 213.082124 
L 267.828464 205.41031 
L 278.04729 199.479363 
L 285.200476 195.594897 
L 292.353643 191.69646 
L 294.397416 190.326888 
L 296.441189 188.621215 
L 298.484943 186.410787 
L 299.506829 185.052228 
L 301.550602 181.77725 
L 303.594356 177.789547 
L 305.638129 173.213995 
L 308.703769 165.553861 
L 316.878842 143.947505 
L 321.988245 130.814816 
L 326.075781 120.792601 
L 332.207071 106.963675 
L 335.272721 100.651415 
L 340.382134 91.062551 
L 343.447784 85.84005 
L 346.513434 81.04706 
L 350.600961 75.313125 
L 353.66661 71.485823 
L 356.73226 68.13371 
L 358.776024 66.166096 
L 360.819787 64.424528 
L 362.86355 62.909129 
L 364.907313 61.618873 
L 366.951086 60.531686 
L 368.99485 59.632507 
L 372.0605 58.58374 
L 375.12614 57.822498 
L 378.19179 57.270902 
L 382.279326 56.764622 
L 387.388739 56.366755 
L 394.541915 56.052202 
L 405.782623 55.824299 
L 422.132744 55.706985 
L 422.132744 55.706985 
" clip-path="url(#p4f3b4bd50e)" style="fill: none; stroke: #13304b; stroke-width: 1.55; stroke-linecap: square"/>
   </g>
   <g id="patch_3">
    <path d="M 46.079937 288.182896 
L 46.079937 42.507986 
" style="fill: none; stroke: #b9c0c7; stroke-width: 0.8; stroke-linejoin: miter; stroke-linecap: square"/>
   </g>
   <g id="patch_4">
    <path d="M 46.079938 288.182896 
L 675.559636 288.182896 
" style="fill: none; stroke: #b9c0c7; stroke-width: 0.8; stroke-linejoin: miter; stroke-linecap: square"/>
   </g>
   <g id="legend_1">
    <g id="text_16">
     <!-- Dose (krad(Si)) -->
     <g style="fill: #343434" transform="translate(333.706037 16.22375) scale(0.08 -0.08)">
      <defs>
       <path id="ArialMT-6b" d="M 425 0 
L 425 4581 
L 988 4581 
L 988 1969 
L 2319 3319 
L 3047 3319 
L 1778 2088 
L 3175 0 
L 2481 0 
L 1384 1697 
L 988 1316 
L 988 0 
L 425 0 
z
" transform="scale(0.015625)"/>
      </defs>
      <use xlink:href="#ArialMT-44"/>
      <use xlink:href="#ArialMT-6f" x="72.216797"/>
      <use xlink:href="#ArialMT-73" x="127.832031"/>
      <use xlink:href="#ArialMT-65" x="177.832031"/>
      <use xlink:href="#ArialMT-20" x="233.447266"/>
      <use xlink:href="#ArialMT-28" x="261.230469"/>
      <use xlink:href="#ArialMT-6b" x="294.53125"/>
      <use xlink:href="#ArialMT-72" x="344.53125"/>
      <use xlink:href="#ArialMT-61" x="377.832031"/>
      <use xlink:href="#ArialMT-64" x="433.447266"/>
      <use xlink:href="#ArialMT-28" x="489.0625"/>
      <use xlink:href="#ArialMT-53" x="522.363281"/>
      <use xlink:href="#ArialMT-69" x="589.0625"/>
      <use xlink:href="#ArialMT-29" x="611.279297"/>
      <use xlink:href="#ArialMT-29" x="644.580078"/>
     </g>
    </g>
    <g id="line2d_34">
     <path d="M 205.502912 24.83375 
L 213.502912 24.83375 
L 221.502912 24.83375 
" style="fill: none; stroke: #dceaf5; stroke-width: 1.55; stroke-linecap: square"/>
    </g>
    <g id="text_17">
     <!-- 0 -->
     <g style="fill: #343434" transform="translate(227.902912 27.63375) scale(0.08 -0.08)">
      <use xlink:href="#ArialMT-30"/>
     </g>
    </g>
    <g id="line2d_35">
     <path d="M 248.351662 24.83375 
L 256.351662 24.83375 
L 264.351662 24.83375 
" style="fill: none; stroke: #b7d4ea; stroke-width: 1.55; stroke-linecap: square"/>
    </g>
    <g id="text_18">
     <!-- 10 -->
     <g style="fill: #343434" transform="translate(270.751662 27.63375) scale(0.08 -0.08)">
      <use xlink:href="#ArialMT-31"/>
      <use xlink:href="#ArialMT-30" x="55.615234"/>
     </g>
    </g>
    <g id="line2d_36">
     <path d="M 295.649162 24.83375 
L 303.649162 24.83375 
L 311.649162 24.83375 
" style="fill: none; stroke: #8dbdde; stroke-width: 1.55; stroke-linecap: square"/>
    </g>
    <g id="text_19">
     <!-- 20 -->
     <g style="fill: #343434" transform="translate(318.049162 27.63375) scale(0.08 -0.08)">
      <use xlink:href="#ArialMT-32"/>
      <use xlink:href="#ArialMT-30" x="55.615234"/>
     </g>
    </g>
    <g id="line2d_37">
     <path d="M 342.946662 24.83375 
L 350.946662 24.83375 
L 358.946662 24.83375 
" style="fill: none; stroke: #5b9bd5; stroke-width: 1.55; stroke-linecap: square"/>
    </g>
    <g id="text_20">
     <!-- 30 -->
     <g style="fill: #343434" transform="translate(365.346662 27.63375) scale(0.08 -0.08)">
      <use xlink:href="#ArialMT-33"/>
      <use xlink:href="#ArialMT-30" x="55.615234"/>
     </g>
    </g>
    <g id="line2d_38">
     <path d="M 390.244162 24.83375 
L 398.244162 24.83375 
L 406.244162 24.83375 
" style="fill: none; stroke: #377faf; stroke-width: 1.55; stroke-linecap: square"/>
    </g>
    <g id="text_21">
     <!-- 40 -->
     <g style="fill: #343434" transform="translate(412.644162 27.63375) scale(0.08 -0.08)">
      <defs>
       <path id="ArialMT-34" d="M 2069 0 
L 2069 1097 
L 81 1097 
L 81 1613 
L 2172 4581 
L 2631 4581 
L 2631 1613 
L 3250 1613 
L 3250 1097 
L 2631 1097 
L 2631 0 
L 2069 0 
z
M 2069 1613 
L 2069 3678 
L 634 1613 
L 2069 1613 
z
" transform="scale(0.015625)"/>
      </defs>
      <use xlink:href="#ArialMT-34"/>
      <use xlink:href="#ArialMT-30" x="55.615234"/>
     </g>
    </g>
    <g id="line2d_39">
     <path d="M 437.541662 24.83375 
L 445.541662 24.83375 
L 453.541662 24.83375 
" style="fill: none; stroke: #225f8d; stroke-width: 1.55; stroke-linecap: square"/>
    </g>
    <g id="text_22">
     <!-- 50 -->
     <g style="fill: #343434" transform="translate(459.941662 27.63375) scale(0.08 -0.08)">
      <use xlink:href="#ArialMT-35"/>
      <use xlink:href="#ArialMT-30" x="55.615234"/>
     </g>
    </g>
    <g id="line2d_40">
     <path d="M 484.839162 24.83375 
L 492.839162 24.83375 
L 500.839162 24.83375 
" style="fill: none; stroke: #13304b; stroke-width: 1.55; stroke-linecap: square"/>
    </g>
    <g id="text_23">
     <!-- 60 -->
     <g style="fill: #343434" transform="translate(507.239162 27.63375) scale(0.08 -0.08)">
      <defs>
       <path id="ArialMT-36" d="M 3184 3459 
L 2625 3416 
Q 2550 3747 2413 3897 
Q 2184 4138 1850 4138 
Q 1581 4138 1378 3988 
Q 1113 3794 959 3422 
Q 806 3050 800 2363 
Q 1003 2672 1297 2822 
Q 1591 2972 1913 2972 
Q 2475 2972 2870 2558 
Q 3266 2144 3266 1488 
Q 3266 1056 3080 686 
Q 2894 316 2569 119 
Q 2244 -78 1831 -78 
Q 1128 -78 684 439 
Q 241 956 241 2144 
Q 241 3472 731 4075 
Q 1159 4600 1884 4600 
Q 2425 4600 2770 4297 
Q 3116 3994 3184 3459 
z
M 888 1484 
Q 888 1194 1011 928 
Q 1134 663 1356 523 
Q 1578 384 1822 384 
Q 2178 384 2434 671 
Q 2691 959 2691 1453 
Q 2691 1928 2437 2201 
Q 2184 2475 1800 2475 
Q 1419 2475 1153 2201 
Q 888 1928 888 1484 
z
" transform="scale(0.015625)"/>
      </defs>
      <use xlink:href="#ArialMT-36"/>
      <use xlink:href="#ArialMT-30" x="55.615234"/>
     </g>
    </g>
   </g>
  </g>
 </g>
 <defs>
  <clipPath id="p4f3b4bd50e">
   <rect x="46.079937" y="42.507986" width="629.479699" height="245.67491"/>
  </clipPath>
 </defs>
</svg>
