<?xml version="1.0" encoding="utf-8" standalone="no"?>
<!DOCTYPE svg PUBLIC "-//W3C//DTD SVG 1.1//EN"
  "http://www.w3.org/Graphics/SVG/1.1/DTD/svg11.dtd">
<svg xmlns:xlink="http://www.w3.org/1999/xlink" width="682.759636pt" height="322.327989pt" viewBox="0 0 682.759636 322.327989" xmlns="http://www.w3.org/2000/svg" version="1.1">
 <metadata>
  <rdf:RDF xmlns:dc="http://purl.org/dc/elements/1.1/" xmlns:cc="http://creativecommons.org/ns#" xmlns:rdf="http://www.w3.org/1999/02/22-rdf-syntax-ns#">
   <cc:Work>
    <dc:type rdf:resource="http://purl.org/dc/dcmitype/StillImage"/>
    <dc:date>2026-07-22T19:01:08.893181</dc:date>
    <dc:format>image/svg+xml</dc:format>
    <dc:creator>
     <cc:Agent>
      <dc:title>Matplotlib v3.9.2, https://matplotlib.org/</dc:title>
     </cc:Agent>
    </dc:creator>
   </cc:Work>
  </rdf:RDF>
 </metadata>
 <defs>
  <style type="text/css">*{stroke-linejoin: round; stroke-linecap: butt}</style>
 </defs>
 <g id="figure_1">
  <g id="patch_1">
   <path d="M 0 322.327989 
L 682.759636 322.327989 
L 682.759636 0 
L 0 0 
z
" style="fill: #ffffff"/>
  </g>
  <g id="axes_1">
   <g id="patch_2">
    <path d="M 46.079937 288.182896 
L 675.559636 288.182896 
L 675.559636 42.507986 
L 46.079937 42.507986 
z
" style="fill: #ffffff"/>
   </g>
   <g id="matplotlib.axis_1">
    <g id="xtick_1">
     <g id="line2d_1">
      <path d="M 74.692651 288.182896 
L 74.692651 42.507986 
" clip-path="url(#paf3d54a040)" style="fill: none; stroke: #d9dee3; stroke-opacity: 0.75; stroke-width: 0.65; stroke-linecap: square"/>
     </g>
     <g id="line2d_2">
      <defs>
       <path id="m33d0275520" d="M 0 0 
L 0 3.5 
" style="stroke: #666666; stroke-width: 0.8"/>
      </defs>
      <g>
       <use xlink:href="#m33d0275520" x="74.692651" y="288.182896" style="fill: #666666; stroke: #666666; stroke-width: 0.8"/>
      </g>
     </g>
     <g id="text_1">
      <!-- -20 -->
      <g style="fill: #666666" transform="translate(68.76751 301.052302) scale(0.082 -0.082)">
       <defs>
        <path id="ArialMT-2d" d="M 203 1375 
L 203 1941 
L 1931 1941 
L 1931 1375 
L 203 1375 
z
" transform="scale(0.015625)"/>
        <path id="ArialMT-32" d="M 3222 541 
L 3222 0 
L 194 0 
Q 188 203 259 391 
Q 375 700 629 1000 
Q 884 1300 1366 1694 
Q 2113 2306 2375 2664 
Q 2638 3022 2638 3341 
Q 2638 3675 2398 3904 
Q 2159 4134 1775 4134 
Q 1369 4134 1125 3890 
Q 881 3647 878 3216 
L 300 3275 
Q 359 3922 746 4261 
Q 1134 4600 1788 4600 
Q 2447 4600 2831 4234 
Q 3216 3869 3216 3328 
Q 3216 3053 3103 2787 
Q 2991 2522 2730 2228 
Q 2469 1934 1863 1422 
Q 1356 997 1212 845 
Q 1069 694 975 541 
L 3222 541 
z
" transform="scale(0.015625)"/>
        <path id="ArialMT-30" d="M 266 2259 
Q 266 3072 433 3567 
Q 600 4063 929 4331 
Q 1259 4600 1759 4600 
Q 2128 4600 2406 4451 
Q 2684 4303 2865 4023 
Q 3047 3744 3150 3342 
Q 3253 2941 3253 2259 
Q 3253 1453 3087 958 
Q 2922 463 2592 192 
Q 2263 -78 1759 -78 
Q 1097 -78 719 397 
Q 266 969 266 2259 
z
M 844 2259 
Q 844 1131 1108 757 
Q 1372 384 1759 384 
Q 2147 384 2411 759 
Q 2675 1134 2675 2259 
Q 2675 3391 2411 3762 
Q 2147 4134 1753 4134 
Q 1366 4134 1134 3806 
Q 844 3388 844 2259 
z
" transform="scale(0.015625)"/>
       </defs>
       <use xlink:href="#ArialMT-2d"/>
       <use xlink:href="#ArialMT-32" x="33.300781"/>
       <use xlink:href="#ArialMT-30" x="88.916016"/>
      </g>
     </g>
    </g>
    <g id="xtick_2">
     <g id="line2d_3">
      <path d="M 176.880914 288.182896 
L 176.880914 42.507986 
" clip-path="url(#paf3d54a040)" style="fill: none; stroke: #d9dee3; stroke-opacity: 0.75; stroke-width: 0.65; stroke-linecap: square"/>
     </g>
     <g id="line2d_4">
      <g>
       <use xlink:href="#m33d0275520" x="176.880914" y="288.182896" style="fill: #666666; stroke: #666666; stroke-width: 0.8"/>
      </g>
     </g>
     <g id="text_2">
      <!-- -15 -->
      <g style="fill: #666666" transform="translate(170.955773 301.052302) scale(0.082 -0.082)">
       <defs>
        <path id="ArialMT-31" d="M 2384 0 
L 1822 0 
L 1822 3584 
Q 1619 3391 1289 3197 
Q 959 3003 697 2906 
L 697 3450 
Q 1169 3672 1522 3987 
Q 1875 4303 2022 4600 
L 2384 4600 
L 2384 0 
z
" transform="scale(0.015625)"/>
        <path id="ArialMT-35" d="M 266 1200 
L 856 1250 
Q 922 819 1161 601 
Q 1400 384 1738 384 
Q 2144 384 2425 690 
Q 2706 997 2706 1503 
Q 2706 1984 2436 2262 
Q 2166 2541 1728 2541 
Q 1456 2541 1237 2417 
Q 1019 2294 894 2097 
L 366 2166 
L 809 4519 
L 3088 4519 
L 3088 3981 
L 1259 3981 
L 1013 2750 
Q 1425 3038 1878 3038 
Q 2478 3038 2890 2622 
Q 3303 2206 3303 1553 
Q 3303 931 2941 478 
Q 2500 -78 1738 -78 
Q 1113 -78 717 272 
Q 322 622 266 1200 
z
" transform="scale(0.015625)"/>
       </defs>
       <use xlink:href="#ArialMT-2d"/>
       <use xlink:href="#ArialMT-31" x="33.300781"/>
       <use xlink:href="#ArialMT-35" x="88.916016"/>
      </g>
     </g>
    </g>
    <g id="xtick_3">
     <g id="line2d_5">
      <path d="M 279.069177 288.182896 
L 279.069177 42.507986 
" clip-path="url(#paf3d54a040)" style="fill: none; stroke: #d9dee3; stroke-opacity: 0.75; stroke-width: 0.65; stroke-linecap: square"/>
     </g>
     <g id="line2d_6">
      <g>
       <use xlink:href="#m33d0275520" x="279.069177" y="288.182896" style="fill: #666666; stroke: #666666; stroke-width: 0.8"/>
      </g>
     </g>
     <g id="text_3">
      <!-- -10 -->
      <g style="fill: #666666" transform="translate(273.144036 301.052302) scale(0.082 -0.082)">
       <use xlink:href="#ArialMT-2d"/>
       <use xlink:href="#ArialMT-31" x="33.300781"/>
       <use xlink:href="#ArialMT-30" x="88.916016"/>
      </g>
     </g>
    </g>
    <g id="xtick_4">
     <g id="line2d_7">
      <path d="M 381.257439 288.182896 
L 381.257439 42.507986 
" clip-path="url(#paf3d54a040)" style="fill: none; stroke: #d9dee3; stroke-opacity: 0.75; stroke-width: 0.65; stroke-linecap: square"/>
     </g>
     <g id="line2d_8">
      <g>
       <use xlink:href="#m33d0275520" x="381.257439" y="288.182896" style="fill: #666666; stroke: #666666; stroke-width: 0.8"/>
      </g>
     </g>
     <g id="text_4">
      <!-- -5 -->
      <g style="fill: #666666" transform="translate(377.612283 301.052302) scale(0.082 -0.082)">
       <use xlink:href="#ArialMT-2d"/>
       <use xlink:href="#ArialMT-35" x="33.300781"/>
      </g>
     </g>
    </g>
    <g id="xtick_5">
     <g id="line2d_9">
      <path d="M 483.445702 288.182896 
L 483.445702 42.507986 
" clip-path="url(#paf3d54a040)" style="fill: none; stroke: #d9dee3; stroke-opacity: 0.75; stroke-width: 0.65; stroke-linecap: square"/>
     </g>
     <g id="line2d_10">
      <g>
       <use xlink:href="#m33d0275520" x="483.445702" y="288.182896" style="fill: #666666; stroke: #666666; stroke-width: 0.8"/>
      </g>
     </g>
     <g id="text_5">
      <!-- 0 -->
      <g style="fill: #666666" transform="translate(481.165718 301.052302) scale(0.082 -0.082)">
       <use xlink:href="#ArialMT-30"/>
      </g>
     </g>
    </g>
    <g id="xtick_6">
     <g id="line2d_11">
      <path d="M 585.633965 288.182896 
L 585.633965 42.507986 
" clip-path="url(#paf3d54a040)" style="fill: none; stroke: #d9dee3; stroke-opacity: 0.75; stroke-width: 0.65; stroke-linecap: square"/>
     </g>
     <g id="line2d_12">
      <g>
       <use xlink:href="#m33d0275520" x="585.633965" y="288.182896" style="fill: #666666; stroke: #666666; stroke-width: 0.8"/>
      </g>
     </g>
     <g id="text_6">
      <!-- 5 -->
      <g style="fill: #666666" transform="translate(583.353981 301.052302) scale(0.082 -0.082)">
       <use xlink:href="#ArialMT-35"/>
      </g>
     </g>
    </g>
    <g id="text_7">
     <!-- Gate voltage, VGS (V) -->
     <g style="fill: #666666" transform="translate(316.052521 313.233771) scale(0.09 -0.09)">
      <defs>
       <path id="ArialMT-47" d="M 2638 1797 
L 2638 2334 
L 4578 2338 
L 4578 638 
Q 4131 281 3656 101 
Q 3181 -78 2681 -78 
Q 2006 -78 1454 211 
Q 903 500 622 1047 
Q 341 1594 341 2269 
Q 341 2938 620 3517 
Q 900 4097 1425 4378 
Q 1950 4659 2634 4659 
Q 3131 4659 3532 4498 
Q 3934 4338 4162 4050 
Q 4391 3763 4509 3300 
L 3963 3150 
Q 3859 3500 3706 3700 
Q 3553 3900 3268 4020 
Q 2984 4141 2638 4141 
Q 2222 4141 1919 4014 
Q 1616 3888 1430 3681 
Q 1244 3475 1141 3228 
Q 966 2803 966 2306 
Q 966 1694 1177 1281 
Q 1388 869 1791 669 
Q 2194 469 2647 469 
Q 3041 469 3416 620 
Q 3791 772 3984 944 
L 3984 1797 
L 2638 1797 
z
" transform="scale(0.015625)"/>
       <path id="ArialMT-61" d="M 2588 409 
Q 2275 144 1986 34 
Q 1697 -75 1366 -75 
Q 819 -75 525 192 
Q 231 459 231 875 
Q 231 1119 342 1320 
Q 453 1522 633 1644 
Q 813 1766 1038 1828 
Q 1203 1872 1538 1913 
Q 2219 1994 2541 2106 
Q 2544 2222 2544 2253 
Q 2544 2597 2384 2738 
Q 2169 2928 1744 2928 
Q 1347 2928 1158 2789 
Q 969 2650 878 2297 
L 328 2372 
Q 403 2725 575 2942 
Q 747 3159 1072 3276 
Q 1397 3394 1825 3394 
Q 2250 3394 2515 3294 
Q 2781 3194 2906 3042 
Q 3031 2891 3081 2659 
Q 3109 2516 3109 2141 
L 3109 1391 
Q 3109 606 3145 398 
Q 3181 191 3288 0 
L 2700 0 
Q 2613 175 2588 409 
z
M 2541 1666 
Q 2234 1541 1622 1453 
Q 1275 1403 1131 1340 
Q 988 1278 909 1158 
Q 831 1038 831 891 
Q 831 666 1001 516 
Q 1172 366 1500 366 
Q 1825 366 2078 508 
Q 2331 650 2450 897 
Q 2541 1088 2541 1459 
L 2541 1666 
z
" transform="scale(0.015625)"/>
       <path id="ArialMT-74" d="M 1650 503 
L 1731 6 
Q 1494 -44 1306 -44 
Q 1000 -44 831 53 
Q 663 150 594 308 
Q 525 466 525 972 
L 525 2881 
L 113 2881 
L 113 3319 
L 525 3319 
L 525 4141 
L 1084 4478 
L 1084 3319 
L 1650 3319 
L 1650 2881 
L 1084 2881 
L 1084 941 
Q 1084 700 1114 631 
Q 1144 563 1211 522 
Q 1278 481 1403 481 
Q 1497 481 1650 503 
z
" transform="scale(0.015625)"/>
       <path id="ArialMT-65" d="M 2694 1069 
L 3275 997 
Q 3138 488 2766 206 
Q 2394 -75 1816 -75 
Q 1088 -75 661 373 
Q 234 822 234 1631 
Q 234 2469 665 2931 
Q 1097 3394 1784 3394 
Q 2450 3394 2872 2941 
Q 3294 2488 3294 1666 
Q 3294 1616 3291 1516 
L 816 1516 
Q 847 969 1125 678 
Q 1403 388 1819 388 
Q 2128 388 2347 550 
Q 2566 713 2694 1069 
z
M 847 1978 
L 2700 1978 
Q 2663 2397 2488 2606 
Q 2219 2931 1791 2931 
Q 1403 2931 1139 2672 
Q 875 2413 847 1978 
z
" transform="scale(0.015625)"/>
       <path id="ArialMT-20" transform="scale(0.015625)"/>
       <path id="ArialMT-76" d="M 1344 0 
L 81 3319 
L 675 3319 
L 1388 1331 
Q 1503 1009 1600 663 
Q 1675 925 1809 1294 
L 2547 3319 
L 3125 3319 
L 1869 0 
L 1344 0 
z
" transform="scale(0.015625)"/>
       <path id="ArialMT-6f" d="M 213 1659 
Q 213 2581 725 3025 
Q 1153 3394 1769 3394 
Q 2453 3394 2887 2945 
Q 3322 2497 3322 1706 
Q 3322 1066 3130 698 
Q 2938 331 2570 128 
Q 2203 -75 1769 -75 
Q 1072 -75 642 372 
Q 213 819 213 1659 
z
M 791 1659 
Q 791 1022 1069 705 
Q 1347 388 1769 388 
Q 2188 388 2466 706 
Q 2744 1025 2744 1678 
Q 2744 2294 2464 2611 
Q 2184 2928 1769 2928 
Q 1347 2928 1069 2612 
Q 791 2297 791 1659 
z
" transform="scale(0.015625)"/>
       <path id="ArialMT-6c" d="M 409 0 
L 409 4581 
L 972 4581 
L 972 0 
L 409 0 
z
" transform="scale(0.015625)"/>
       <path id="ArialMT-67" d="M 319 -275 
L 866 -356 
Q 900 -609 1056 -725 
Q 1266 -881 1628 -881 
Q 2019 -881 2231 -725 
Q 2444 -569 2519 -288 
Q 2563 -116 2559 434 
Q 2191 0 1641 0 
Q 956 0 581 494 
Q 206 988 206 1678 
Q 206 2153 378 2554 
Q 550 2956 876 3175 
Q 1203 3394 1644 3394 
Q 2231 3394 2613 2919 
L 2613 3319 
L 3131 3319 
L 3131 450 
Q 3131 -325 2973 -648 
Q 2816 -972 2473 -1159 
Q 2131 -1347 1631 -1347 
Q 1038 -1347 672 -1080 
Q 306 -813 319 -275 
z
M 784 1719 
Q 784 1066 1043 766 
Q 1303 466 1694 466 
Q 2081 466 2343 764 
Q 2606 1063 2606 1700 
Q 2606 2309 2336 2618 
Q 2066 2928 1684 2928 
Q 1309 2928 1046 2623 
Q 784 2319 784 1719 
z
" transform="scale(0.015625)"/>
       <path id="ArialMT-2c" d="M 569 0 
L 569 641 
L 1209 641 
L 1209 0 
Q 1209 -353 1084 -570 
Q 959 -788 688 -906 
L 531 -666 
Q 709 -588 793 -436 
Q 878 -284 888 0 
L 569 0 
z
" transform="scale(0.015625)"/>
       <path id="ArialMT-56" d="M 1803 0 
L 28 4581 
L 684 4581 
L 1875 1253 
Q 2019 853 2116 503 
Q 2222 878 2363 1253 
L 3600 4581 
L 4219 4581 
L 2425 0 
L 1803 0 
z
" transform="scale(0.015625)"/>
       <path id="ArialMT-53" d="M 288 1472 
L 859 1522 
Q 900 1178 1048 958 
Q 1197 738 1509 602 
Q 1822 466 2213 466 
Q 2559 466 2825 569 
Q 3091 672 3220 851 
Q 3350 1031 3350 1244 
Q 3350 1459 3225 1620 
Q 3100 1781 2813 1891 
Q 2628 1963 1997 2114 
Q 1366 2266 1113 2400 
Q 784 2572 623 2826 
Q 463 3081 463 3397 
Q 463 3744 659 4045 
Q 856 4347 1234 4503 
Q 1613 4659 2075 4659 
Q 2584 4659 2973 4495 
Q 3363 4331 3572 4012 
Q 3781 3694 3797 3291 
L 3216 3247 
Q 3169 3681 2898 3903 
Q 2628 4125 2100 4125 
Q 1550 4125 1298 3923 
Q 1047 3722 1047 3438 
Q 1047 3191 1225 3031 
Q 1400 2872 2139 2705 
Q 2878 2538 3153 2413 
Q 3553 2228 3743 1945 
Q 3934 1663 3934 1294 
Q 3934 928 3725 604 
Q 3516 281 3123 101 
Q 2731 -78 2241 -78 
Q 1619 -78 1198 103 
Q 778 284 539 648 
Q 300 1013 288 1472 
z
" transform="scale(0.015625)"/>
       <path id="ArialMT-28" d="M 1497 -1347 
Q 1031 -759 709 28 
Q 388 816 388 1659 
Q 388 2403 628 3084 
Q 909 3875 1497 4659 
L 1900 4659 
Q 1522 4009 1400 3731 
Q 1209 3300 1100 2831 
Q 966 2247 966 1656 
Q 966 153 1900 -1347 
L 1497 -1347 
z
" transform="scale(0.015625)"/>
       <path id="ArialMT-29" d="M 791 -1347 
L 388 -1347 
Q 1322 153 1322 1656 
Q 1322 2244 1188 2822 
Q 1081 3291 891 3722 
Q 769 4003 388 4659 
L 791 4659 
Q 1378 3875 1659 3084 
Q 1900 2403 1900 1659 
Q 1900 816 1576 28 
Q 1253 -759 791 -1347 
z
" transform="scale(0.015625)"/>
      </defs>
      <use xlink:href="#ArialMT-47"/>
      <use xlink:href="#ArialMT-61" x="77.783203"/>
      <use xlink:href="#ArialMT-74" x="133.398438"/>
      <use xlink:href="#ArialMT-65" x="161.181641"/>
      <use xlink:href="#ArialMT-20" x="216.796875"/>
      <use xlink:href="#ArialMT-76" x="244.580078"/>
      <use xlink:href="#ArialMT-6f" x="294.580078"/>
      <use xlink:href="#ArialMT-6c" x="350.195312"/>
      <use xlink:href="#ArialMT-74" x="372.412109"/>
      <use xlink:href="#ArialMT-61" x="400.195312"/>
      <use xlink:href="#ArialMT-67" x="455.810547"/>
      <use xlink:href="#ArialMT-65" x="511.425781"/>
      <use xlink:href="#ArialMT-2c" x="567.041016"/>
      <use xlink:href="#ArialMT-20" x="594.824219"/>
      <use xlink:href="#ArialMT-56" x="622.607422"/>
      <use xlink:href="#ArialMT-47" x="689.306641"/>
      <use xlink:href="#ArialMT-53" x="767.089844"/>
      <use xlink:href="#ArialMT-20" x="833.789062"/>
      <use xlink:href="#ArialMT-28" x="861.572266"/>
      <use xlink:href="#ArialMT-56" x="894.873047"/>
      <use xlink:href="#ArialMT-29" x="961.572266"/>
     </g>
    </g>
   </g>
   <g id="matplotlib.axis_2">
    <g id="ytick_1">
     <g id="line2d_13">
      <path d="M 46.079937 288.182896 
L 675.559636 288.182896 
" clip-path="url(#paf3d54a040)" style="fill: none; stroke: #d9dee3; stroke-opacity: 0.75; stroke-width: 0.65; stroke-linecap: square"/>
     </g>
     <g id="line2d_14">
      <defs>
       <path id="m1e1a647620" d="M 0 0 
L -3.5 0 
" style="stroke: #666666; stroke-width: 0.8"/>
      </defs>
      <g>
       <use xlink:href="#m1e1a647620" x="46.079937" y="288.182896" style="fill: #666666; stroke: #666666; stroke-width: 0.8"/>
      </g>
     </g>
     <g id="text_8">
      <!-- $\mathdefault{10^{-13}}$ -->
      <g style="fill: #666666" transform="translate(19.645938 292.411021) scale(0.082 -0.082)">
       <defs>
        <path id="ArialMT-2212" d="M 3381 1997 
L 356 1997 
L 356 2522 
L 3381 2522 
L 3381 1997 
z
" transform="scale(0.015625)"/>
        <path id="ArialMT-33" d="M 269 1209 
L 831 1284 
Q 928 806 1161 595 
Q 1394 384 1728 384 
Q 2125 384 2398 659 
Q 2672 934 2672 1341 
Q 2672 1728 2419 1979 
Q 2166 2231 1775 2231 
Q 1616 2231 1378 2169 
L 1441 2663 
Q 1497 2656 1531 2656 
Q 1891 2656 2178 2843 
Q 2466 3031 2466 3422 
Q 2466 3731 2256 3934 
Q 2047 4138 1716 4138 
Q 1388 4138 1169 3931 
Q 950 3725 888 3313 
L 325 3413 
Q 428 3978 793 4289 
Q 1159 4600 1703 4600 
Q 2078 4600 2393 4439 
Q 2709 4278 2876 4000 
Q 3044 3722 3044 3409 
Q 3044 3113 2884 2869 
Q 2725 2625 2413 2481 
Q 2819 2388 3044 2092 
Q 3269 1797 3269 1353 
Q 3269 753 2831 336 
Q 2394 -81 1725 -81 
Q 1122 -81 723 278 
Q 325 638 269 1209 
z
" transform="scale(0.015625)"/>
       </defs>
       <use xlink:href="#ArialMT-31" transform="translate(0 0.99375)"/>
       <use xlink:href="#ArialMT-30" transform="translate(55.615234 0.99375)"/>
       <use xlink:href="#ArialMT-2212" transform="translate(112.972813 70.6875) scale(0.7)"/>
       <use xlink:href="#ArialMT-31" transform="translate(153.851719 70.6875) scale(0.7)"/>
       <use xlink:href="#ArialMT-33" transform="translate(192.782383 70.6875) scale(0.7)"/>
      </g>
     </g>
    </g>
    <g id="ytick_2">
     <g id="line2d_15">
      <path d="M 46.079937 249.193253 
L 675.559636 249.193253 
" clip-path="url(#paf3d54a040)" style="fill: none; stroke: #d9dee3; stroke-opacity: 0.75; stroke-width: 0.65; stroke-linecap: square"/>
     </g>
     <g id="line2d_16">
      <g>
       <use xlink:href="#m1e1a647620" x="46.079937" y="249.193253" style="fill: #666666; stroke: #666666; stroke-width: 0.8"/>
      </g>
     </g>
     <g id="text_9">
      <!-- $\mathdefault{10^{-11}}$ -->
      <g style="fill: #666666" transform="translate(19.645938 253.421378) scale(0.082 -0.082)">
       <use xlink:href="#ArialMT-31" transform="translate(0 0.99375)"/>
       <use xlink:href="#ArialMT-30" transform="translate(55.615234 0.99375)"/>
       <use xlink:href="#ArialMT-2212" transform="translate(112.972813 70.6875) scale(0.7)"/>
       <use xlink:href="#ArialMT-31" transform="translate(153.851719 70.6875) scale(0.7)"/>
       <use xlink:href="#ArialMT-31" transform="translate(192.782383 70.6875) scale(0.7)"/>
      </g>
     </g>
    </g>
    <g id="ytick_3">
     <g id="line2d_17">
      <path d="M 46.079937 210.20361 
L 675.559636 210.20361 
" clip-path="url(#paf3d54a040)" style="fill: none; stroke: #d9dee3; stroke-opacity: 0.75; stroke-width: 0.65; stroke-linecap: square"/>
     </g>
     <g id="line2d_18">
      <g>
       <use xlink:href="#m1e1a647620" x="46.079937" y="210.20361" style="fill: #666666; stroke: #666666; stroke-width: 0.8"/>
      </g>
     </g>
     <g id="text_10">
      <!-- $\mathdefault{10^{-9}}$ -->
      <g style="fill: #666666" transform="translate(22.843938 214.431735) scale(0.082 -0.082)">
       <defs>
        <path id="ArialMT-39" d="M 350 1059 
L 891 1109 
Q 959 728 1153 556 
Q 1347 384 1650 384 
Q 1909 384 2104 503 
Q 2300 622 2425 820 
Q 2550 1019 2634 1356 
Q 2719 1694 2719 2044 
Q 2719 2081 2716 2156 
Q 2547 1888 2255 1720 
Q 1963 1553 1622 1553 
Q 1053 1553 659 1965 
Q 266 2378 266 3053 
Q 266 3750 677 4175 
Q 1088 4600 1706 4600 
Q 2153 4600 2523 4359 
Q 2894 4119 3086 3673 
Q 3278 3228 3278 2384 
Q 3278 1506 3087 986 
Q 2897 466 2520 194 
Q 2144 -78 1638 -78 
Q 1100 -78 759 220 
Q 419 519 350 1059 
z
M 2653 3081 
Q 2653 3566 2395 3850 
Q 2138 4134 1775 4134 
Q 1400 4134 1122 3828 
Q 844 3522 844 3034 
Q 844 2597 1108 2323 
Q 1372 2050 1759 2050 
Q 2150 2050 2401 2323 
Q 2653 2597 2653 3081 
z
" transform="scale(0.015625)"/>
       </defs>
       <use xlink:href="#ArialMT-31" transform="translate(0 0.99375)"/>
       <use xlink:href="#ArialMT-30" transform="translate(55.615234 0.99375)"/>
       <use xlink:href="#ArialMT-2212" transform="translate(112.972813 70.6875) scale(0.7)"/>
       <use xlink:href="#ArialMT-39" transform="translate(153.851719 70.6875) scale(0.7)"/>
      </g>
     </g>
    </g>
    <g id="ytick_4">
     <g id="line2d_19">
      <path d="M 46.079937 171.213967 
L 675.559636 171.213967 
" clip-path="url(#paf3d54a040)" style="fill: none; stroke: #d9dee3; stroke-opacity: 0.75; stroke-width: 0.65; stroke-linecap: square"/>
     </g>
     <g id="line2d_20">
      <g>
       <use xlink:href="#m1e1a647620" x="46.079937" y="171.213967" style="fill: #666666; stroke: #666666; stroke-width: 0.8"/>
      </g>
     </g>
     <g id="text_11">
      <!-- $\mathdefault{10^{-7}}$ -->
      <g style="fill: #666666" transform="translate(22.843938 175.401092) scale(0.082 -0.082)">
       <defs>
        <path id="ArialMT-37" d="M 303 3981 
L 303 4522 
L 3269 4522 
L 3269 4084 
Q 2831 3619 2401 2847 
Q 1972 2075 1738 1259 
Q 1569 684 1522 0 
L 944 0 
Q 953 541 1156 1306 
Q 1359 2072 1739 2783 
Q 2119 3494 2547 3981 
L 303 3981 
z
" transform="scale(0.015625)"/>
       </defs>
       <use xlink:href="#ArialMT-31" transform="translate(0 0.846875)"/>
       <use xlink:href="#ArialMT-30" transform="translate(55.615234 0.846875)"/>
       <use xlink:href="#ArialMT-2212" transform="translate(112.972813 70.540625) scale(0.7)"/>
       <use xlink:href="#ArialMT-37" transform="translate(153.851719 70.540625) scale(0.7)"/>
      </g>
     </g>
    </g>
    <g id="ytick_5">
     <g id="line2d_21">
      <path d="M 46.079937 132.224324 
L 675.559636 132.224324 
" clip-path="url(#paf3d54a040)" style="fill: none; stroke: #d9dee3; stroke-opacity: 0.75; stroke-width: 0.65; stroke-linecap: square"/>
     </g>
     <g id="line2d_22">
      <g>
       <use xlink:href="#m1e1a647620" x="46.079937" y="132.224324" style="fill: #666666; stroke: #666666; stroke-width: 0.8"/>
      </g>
     </g>
     <g id="text_12">
      <!-- $\mathdefault{10^{-5}}$ -->
      <g style="fill: #666666" transform="translate(22.843938 136.411449) scale(0.082 -0.082)">
       <use xlink:href="#ArialMT-31" transform="translate(0 0.879688)"/>
       <use xlink:href="#ArialMT-30" transform="translate(55.615234 0.879688)"/>
       <use xlink:href="#ArialMT-2212" transform="translate(112.972813 70.573438) scale(0.7)"/>
       <use xlink:href="#ArialMT-35" transform="translate(153.851719 70.573438) scale(0.7)"/>
      </g>
     </g>
    </g>
    <g id="ytick_6">
     <g id="line2d_23">
      <path d="M 46.079937 93.234681 
L 675.559636 93.234681 
" clip-path="url(#paf3d54a040)" style="fill: none; stroke: #d9dee3; stroke-opacity: 0.75; stroke-width: 0.65; stroke-linecap: square"/>
     </g>
     <g id="line2d_24">
      <g>
       <use xlink:href="#m1e1a647620" x="46.079937" y="93.234681" style="fill: #666666; stroke: #666666; stroke-width: 0.8"/>
      </g>
     </g>
     <g id="text_13">
      <!-- $\mathdefault{10^{-3}}$ -->
      <g style="fill: #666666" transform="translate(22.843938 97.462806) scale(0.082 -0.082)">
       <use xlink:href="#ArialMT-31" transform="translate(0 0.99375)"/>
       <use xlink:href="#ArialMT-30" transform="translate(55.615234 0.99375)"/>
       <use xlink:href="#ArialMT-2212" transform="translate(112.972813 70.6875) scale(0.7)"/>
       <use xlink:href="#ArialMT-33" transform="translate(153.851719 70.6875) scale(0.7)"/>
      </g>
     </g>
    </g>
    <g id="ytick_7">
     <g id="line2d_25">
      <path d="M 46.079937 54.245038 
L 675.559636 54.245038 
" clip-path="url(#paf3d54a040)" style="fill: none; stroke: #d9dee3; stroke-opacity: 0.75; stroke-width: 0.65; stroke-linecap: square"/>
     </g>
     <g id="line2d_26">
      <g>
       <use xlink:href="#m1e1a647620" x="46.079937" y="54.245038" style="fill: #666666; stroke: #666666; stroke-width: 0.8"/>
      </g>
     </g>
     <g id="text_14">
      <!-- $\mathdefault{10^{-1}}$ -->
      <g style="fill: #666666" transform="translate(22.843938 58.473163) scale(0.082 -0.082)">
       <use xlink:href="#ArialMT-31" transform="translate(0 0.99375)"/>
       <use xlink:href="#ArialMT-30" transform="translate(55.615234 0.99375)"/>
       <use xlink:href="#ArialMT-2212" transform="translate(112.972813 70.6875) scale(0.7)"/>
       <use xlink:href="#ArialMT-31" transform="translate(153.851719 70.6875) scale(0.7)"/>
      </g>
     </g>
    </g>
    <g id="text_15">
     <!-- Absolute drain current, |ID| (A) -->
     <g style="fill: #666666" transform="translate(13.751719 225.954112) rotate(-90) scale(0.09 -0.09)">
      <defs>
       <path id="ArialMT-41" d="M -9 0 
L 1750 4581 
L 2403 4581 
L 4278 0 
L 3588 0 
L 3053 1388 
L 1138 1388 
L 634 0 
L -9 0 
z
M 1313 1881 
L 2866 1881 
L 2388 3150 
Q 2169 3728 2063 4100 
Q 1975 3659 1816 3225 
L 1313 1881 
z
" transform="scale(0.015625)"/>
       <path id="ArialMT-62" d="M 941 0 
L 419 0 
L 419 4581 
L 981 4581 
L 981 2947 
Q 1338 3394 1891 3394 
Q 2197 3394 2470 3270 
Q 2744 3147 2920 2923 
Q 3097 2700 3197 2384 
Q 3297 2069 3297 1709 
Q 3297 856 2875 390 
Q 2453 -75 1863 -75 
Q 1275 -75 941 416 
L 941 0 
z
M 934 1684 
Q 934 1088 1097 822 
Q 1363 388 1816 388 
Q 2184 388 2453 708 
Q 2722 1028 2722 1663 
Q 2722 2313 2464 2622 
Q 2206 2931 1841 2931 
Q 1472 2931 1203 2611 
Q 934 2291 934 1684 
z
" transform="scale(0.015625)"/>
       <path id="ArialMT-73" d="M 197 991 
L 753 1078 
Q 800 744 1014 566 
Q 1228 388 1613 388 
Q 2000 388 2187 545 
Q 2375 703 2375 916 
Q 2375 1106 2209 1216 
Q 2094 1291 1634 1406 
Q 1016 1563 777 1677 
Q 538 1791 414 1992 
Q 291 2194 291 2438 
Q 291 2659 392 2848 
Q 494 3038 669 3163 
Q 800 3259 1026 3326 
Q 1253 3394 1513 3394 
Q 1903 3394 2198 3281 
Q 2494 3169 2634 2976 
Q 2775 2784 2828 2463 
L 2278 2388 
Q 2241 2644 2061 2787 
Q 1881 2931 1553 2931 
Q 1166 2931 1000 2803 
Q 834 2675 834 2503 
Q 834 2394 903 2306 
Q 972 2216 1119 2156 
Q 1203 2125 1616 2013 
Q 2213 1853 2448 1751 
Q 2684 1650 2818 1456 
Q 2953 1263 2953 975 
Q 2953 694 2789 445 
Q 2625 197 2315 61 
Q 2006 -75 1616 -75 
Q 969 -75 630 194 
Q 291 463 197 991 
z
" transform="scale(0.015625)"/>
       <path id="ArialMT-75" d="M 2597 0 
L 2597 488 
Q 2209 -75 1544 -75 
Q 1250 -75 995 37 
Q 741 150 617 320 
Q 494 491 444 738 
Q 409 903 409 1263 
L 409 3319 
L 972 3319 
L 972 1478 
Q 972 1038 1006 884 
Q 1059 663 1231 536 
Q 1403 409 1656 409 
Q 1909 409 2131 539 
Q 2353 669 2445 892 
Q 2538 1116 2538 1541 
L 2538 3319 
L 3100 3319 
L 3100 0 
L 2597 0 
z
" transform="scale(0.015625)"/>
       <path id="ArialMT-64" d="M 2575 0 
L 2575 419 
Q 2259 -75 1647 -75 
Q 1250 -75 917 144 
Q 584 363 401 755 
Q 219 1147 219 1656 
Q 219 2153 384 2558 
Q 550 2963 881 3178 
Q 1213 3394 1622 3394 
Q 1922 3394 2156 3267 
Q 2391 3141 2538 2938 
L 2538 4581 
L 3097 4581 
L 3097 0 
L 2575 0 
z
M 797 1656 
Q 797 1019 1065 703 
Q 1334 388 1700 388 
Q 2069 388 2326 689 
Q 2584 991 2584 1609 
Q 2584 2291 2321 2609 
Q 2059 2928 1675 2928 
Q 1300 2928 1048 2622 
Q 797 2316 797 1656 
z
" transform="scale(0.015625)"/>
       <path id="ArialMT-72" d="M 416 0 
L 416 3319 
L 922 3319 
L 922 2816 
Q 1116 3169 1280 3281 
Q 1444 3394 1641 3394 
Q 1925 3394 2219 3213 
L 2025 2691 
Q 1819 2813 1613 2813 
Q 1428 2813 1281 2702 
Q 1134 2591 1072 2394 
Q 978 2094 978 1738 
L 978 0 
L 416 0 
z
" transform="scale(0.015625)"/>
       <path id="ArialMT-69" d="M 425 3934 
L 425 4581 
L 988 4581 
L 988 3934 
L 425 3934 
z
M 425 0 
L 425 3319 
L 988 3319 
L 988 0 
L 425 0 
z
" transform="scale(0.015625)"/>
       <path id="ArialMT-6e" d="M 422 0 
L 422 3319 
L 928 3319 
L 928 2847 
Q 1294 3394 1984 3394 
Q 2284 3394 2536 3286 
Q 2788 3178 2913 3003 
Q 3038 2828 3088 2588 
Q 3119 2431 3119 2041 
L 3119 0 
L 2556 0 
L 2556 2019 
Q 2556 2363 2490 2533 
Q 2425 2703 2258 2804 
Q 2091 2906 1866 2906 
Q 1506 2906 1245 2678 
Q 984 2450 984 1813 
L 984 0 
L 422 0 
z
" transform="scale(0.015625)"/>
       <path id="ArialMT-63" d="M 2588 1216 
L 3141 1144 
Q 3050 572 2676 248 
Q 2303 -75 1759 -75 
Q 1078 -75 664 370 
Q 250 816 250 1647 
Q 250 2184 428 2587 
Q 606 2991 970 3192 
Q 1334 3394 1763 3394 
Q 2303 3394 2647 3120 
Q 2991 2847 3088 2344 
L 2541 2259 
Q 2463 2594 2264 2762 
Q 2066 2931 1784 2931 
Q 1359 2931 1093 2626 
Q 828 2322 828 1663 
Q 828 994 1084 691 
Q 1341 388 1753 388 
Q 2084 388 2306 591 
Q 2528 794 2588 1216 
z
" transform="scale(0.015625)"/>
       <path id="ArialMT-7c" d="M 588 -1347 
L 588 4659 
L 1078 4659 
L 1078 -1347 
L 588 -1347 
z
" transform="scale(0.015625)"/>
       <path id="ArialMT-49" d="M 597 0 
L 597 4581 
L 1203 4581 
L 1203 0 
L 597 0 
z
" transform="scale(0.015625)"/>
       <path id="ArialMT-44" d="M 494 0 
L 494 4581 
L 2072 4581 
Q 2606 4581 2888 4516 
Q 3281 4425 3559 4188 
Q 3922 3881 4101 3404 
Q 4281 2928 4281 2316 
Q 4281 1794 4159 1391 
Q 4038 988 3847 723 
Q 3656 459 3429 307 
Q 3203 156 2883 78 
Q 2563 0 2147 0 
L 494 0 
z
M 1100 541 
L 2078 541 
Q 2531 541 2789 625 
Q 3047 709 3200 863 
Q 3416 1078 3536 1442 
Q 3656 1806 3656 2325 
Q 3656 3044 3420 3430 
Q 3184 3816 2847 3947 
Q 2603 4041 2063 4041 
L 1100 4041 
L 1100 541 
z
" transform="scale(0.015625)"/>
      </defs>
      <use xlink:href="#ArialMT-41"/>
      <use xlink:href="#ArialMT-62" x="66.699219"/>
      <use xlink:href="#ArialMT-73" x="122.314453"/>
      <use xlink:href="#ArialMT-6f" x="172.314453"/>
      <use xlink:href="#ArialMT-6c" x="227.929688"/>
      <use xlink:href="#ArialMT-75" x="250.146484"/>
      <use xlink:href="#ArialMT-74" x="305.761719"/>
      <use xlink:href="#ArialMT-65" x="333.544922"/>
      <use xlink:href="#ArialMT-20" x="389.160156"/>
      <use xlink:href="#ArialMT-64" x="416.943359"/>
      <use xlink:href="#ArialMT-72" x="472.558594"/>
      <use xlink:href="#ArialMT-61" x="505.859375"/>
      <use xlink:href="#ArialMT-69" x="561.474609"/>
      <use xlink:href="#ArialMT-6e" x="583.691406"/>
      <use xlink:href="#ArialMT-20" x="639.306641"/>
      <use xlink:href="#ArialMT-63" x="667.089844"/>
      <use xlink:href="#ArialMT-75" x="717.089844"/>
      <use xlink:href="#ArialMT-72" x="772.705078"/>
      <use xlink:href="#ArialMT-72" x="806.005859"/>
      <use xlink:href="#ArialMT-65" x="839.306641"/>
      <use xlink:href="#ArialMT-6e" x="894.921875"/>
      <use xlink:href="#ArialMT-74" x="950.537109"/>
      <use xlink:href="#ArialMT-2c" x="978.320312"/>
      <use xlink:href="#ArialMT-20" x="1006.103516"/>
      <use xlink:href="#ArialMT-7c" x="1033.886719"/>
      <use xlink:href="#ArialMT-49" x="1059.863281"/>
      <use xlink:href="#ArialMT-44" x="1087.646484"/>
      <use xlink:href="#ArialMT-7c" x="1159.863281"/>
      <use xlink:href="#ArialMT-20" x="1185.839844"/>
      <use xlink:href="#ArialMT-28" x="1213.623047"/>
      <use xlink:href="#ArialMT-41" x="1246.923828"/>
      <use xlink:href="#ArialMT-29" x="1313.623047"/>
     </g>
    </g>
   </g>
   <g id="line2d_27">
    <path d="M 279.069177 277.974394 
L 280.091063 260.90262 
L 281.11295 258.329539 
L 282.134817 267.817215 
L 283.156703 262.645412 
L 284.17859 261.808646 
L 285.200476 267.499289 
L 286.222363 278.814901 
L 287.24423 277.703615 
L 288.266116 263.19033 
L 289.288003 265.807555 
L 290.309889 262.645412 
L 291.331776 288.182896 
L 292.353643 276.721413 
L 293.375529 288.182896 
L 294.397416 262.300764 
L 295.419303 268.944245 
L 296.441189 288.182896 
L 297.463056 260.939427 
L 298.484943 262.011148 
L 299.506829 272.036833 
L 300.528716 268.581543 
L 301.550602 263.051653 
L 302.572469 265.873193 
L 303.594356 268.234188 
L 304.616242 262.869111 
L 305.638129 259.734906 
L 306.660015 261.849515 
L 307.681882 260.117569 
L 308.703769 259.988084 
L 309.725655 254.573219 
L 310.747542 258.147199 
L 311.769428 265.873193 
L 312.791296 266.134695 
L 313.813182 259.988084 
L 314.835069 259.6111 
L 315.856955 265.133605 
L 316.878842 268.147547 
L 317.900709 261.382149 
L 318.922595 265.133605 
L 319.944482 279.124362 
L 320.966368 260.939427 
L 321.988245 262.515426 
L 323.010132 253.315444 
L 325.053895 257.54841 
L 326.075781 258.903889 
L 327.097658 258.251225 
L 328.119545 258.251225 
L 329.141421 259.6111 
L 330.163308 260.24924 
L 331.185195 266.683254 
L 332.207071 262.869111 
L 333.228958 266.134695 
L 334.250835 267.900525 
L 335.272721 264.029066 
L 336.294608 265.372921 
L 337.316484 259.988084 
L 338.338371 264.900868 
L 339.360248 282.036699 
L 340.382134 262.175925 
L 341.404021 262.869111 
L 342.425898 266.134695 
L 343.447784 270.571456 
L 344.469661 269.718818 
L 345.491547 265.133605 
L 346.513434 262.011148 
L 347.535311 257.942773 
L 348.557197 264.900868 
L 349.579074 263.624411 
L 350.600961 258.463332 
L 351.622847 259.6111 
L 352.644724 256.29668 
L 353.66661 262.869111 
L 354.688487 260.24924 
L 355.710374 255.20659 
L 356.73226 259.988084 
L 357.754137 257.35791 
L 359.7979 259.368792 
L 360.819787 255.279959 
L 361.841673 257.942773 
L 362.86355 254.573219 
L 364.907313 258.791582 
L 365.9292 254.505701 
L 366.951086 261.382149 
L 367.972963 253.796355 
L 368.99485 253.141872 
L 370.016727 256.380291 
L 371.038613 254.175795 
L 372.0605 257.743296 
L 373.082376 258.044302 
L 374.104263 254.919124 
L 375.12614 256.899492 
L 376.148026 257.264122 
L 377.169913 261.690706 
L 378.19179 264.029066 
L 379.213676 257.54841 
L 380.235553 258.903889 
L 381.257439 263.429239 
L 382.279326 256.051007 
L 383.301203 260.796852 
L 384.323089 255.503962 
L 385.344966 256.810736 
L 386.366852 258.463332 
L 387.388739 260.382814 
L 388.410616 257.35791 
L 389.432502 265.133605 
L 390.454379 264.674358 
L 391.476266 255.579966 
L 392.498152 258.680746 
L 393.520029 259.133074 
L 394.541915 259.250036 
L 395.563792 256.635856 
L 396.585679 257.171482 
L 397.607565 255.656658 
L 398.629442 259.368792 
L 399.651329 258.044302 
L 400.673205 259.860548 
L 401.695092 260.382814 
L 402.716974 263.238465 
L 403.738855 256.722902 
L 404.760742 258.251225 
L 405.782623 258.791582 
L 406.804505 256.635856 
L 407.826387 255.579966 
L 408.848268 252.272079 
L 409.870155 255.970675 
L 410.892037 254.438719 
L 411.913918 258.571341 
L 412.9358 256.549807 
L 413.957681 257.079844 
L 414.979568 255.279959 
L 416.00145 257.645292 
L 417.023331 254.70989 
L 418.045213 252.534372 
L 419.067095 255.734052 
L 420.088981 253.25714 
L 421.110863 252.58782 
L 422.132744 258.463332 
L 423.154626 254.111446 
L 424.176508 255.061637 
L 425.198394 253.984032 
L 426.220276 256.051007 
L 427.242158 253.028079 
L 428.264039 254.919124 
L 429.285921 261.231988 
L 430.307807 255.279959 
L 431.329689 254.848803 
L 432.351571 255.061637 
L 433.373452 251.483315 
L 434.395334 255.20659 
L 435.417221 253.25714 
L 436.439102 256.213994 
L 437.460984 255.428634 
L 438.482866 251.160027 
L 439.504747 258.903889 
L 440.526634 255.891098 
L 441.548515 260.382814 
L 442.570397 262.515426 
L 443.592279 257.743296 
L 444.614163 266.683254 
L 446.657929 249.287584 
L 447.67981 243.170861 
L 449.723576 234.139741 
L 450.745458 231.330325 
L 451.767342 228.986755 
L 452.789223 227.357784 
L 453.811105 226.40066 
L 454.832989 226.071418 
L 455.854871 226.087815 
L 456.876755 226.738162 
L 458.920518 228.464961 
L 459.942402 229.764322 
L 460.964284 230.782308 
L 461.986168 231.39151 
L 463.00805 232.176931 
L 465.051815 233.269657 
L 466.073697 233.346671 
L 467.09558 234.085295 
L 468.117463 234.225125 
L 469.139346 234.188427 
L 470.161228 234.550047 
L 472.204993 234.633268 
L 473.226876 234.562798 
L 474.248759 234.361072 
L 475.270641 234.588354 
L 476.292524 234.659037 
L 477.314406 234.511918 
L 478.336289 234.486591 
L 479.358172 234.145811 
L 480.380054 234.392282 
L 481.401937 234.354847 
L 482.423819 234.037196 
L 483.445702 234.448738 
L 484.467585 234.280481 
L 485.489467 234.249688 
L 486.51135 234.404794 
L 487.533233 234.417328 
L 488.555115 233.971499 
L 490.59888 233.736814 
L 491.620763 233.965553 
L 492.642646 233.324597 
L 493.664528 233.319081 
L 494.686411 233.650456 
L 495.708294 233.330109 
L 496.730176 232.78029 
L 497.752059 232.421064 
L 498.773942 232.210688 
L 499.795824 232.114594 
L 500.817707 231.431084 
L 501.839589 230.918096 
L 502.861472 230.652686 
L 503.883355 229.378713 
L 504.905236 228.643796 
L 505.92712 227.640292 
L 506.949002 226.246375 
L 507.970886 224.638941 
L 508.992768 222.784991 
L 510.014649 220.570083 
L 512.058415 215.243987 
L 514.102181 209.152257 
L 517.167828 198.795834 
L 520.233476 187.537954 
L 524.321007 171.581682 
L 529.43042 150.558286 
L 535.561715 124.081874 
L 542.714896 93.069454 
L 545.780541 80.740498 
L 547.82431 73.411179 
L 549.868073 67.132524 
L 550.889955 64.547533 
L 551.911836 62.401829 
L 552.933723 60.709498 
L 553.955604 59.439071 
L 554.977486 58.514705 
L 555.999368 57.850669 
L 557.021249 57.373148 
L 559.065018 56.773773 
L 561.108781 56.439947 
L 564.174431 56.177654 
L 569.283839 55.994194 
L 580.524552 55.881235 
L 620.37797 55.827359 
L 646.946923 55.819513 
L 646.946923 55.819513 
" clip-path="url(#paf3d54a040)" style="fill: none; stroke: #dceaf5; stroke-width: 1.55; stroke-linecap: square"/>
   </g>
   <g id="line2d_28">
    <path d="M 279.069177 257.718045 
L 280.091063 256.700457 
L 281.11295 258.543429 
L 283.156703 253.358956 
L 284.17859 256.111228 
L 285.200476 257.33372 
L 286.222363 255.409416 
L 287.24423 255.636967 
L 288.266116 254.692235 
L 289.288003 254.971879 
L 290.309889 255.950189 
L 291.331776 255.115243 
L 292.353643 266.067007 
L 293.375529 252.791059 
L 294.397416 253.842499 
L 295.419303 274.495441 
L 296.441189 250.750733 
L 297.463056 256.275499 
L 298.484943 252.362618 
L 299.506829 258.018273 
L 300.528716 252.41499 
L 301.550602 252.574146 
L 302.572469 254.90112 
L 303.594356 250.45386 
L 304.616242 256.030326 
L 305.638129 250.495634 
L 306.660015 254.224103 
L 307.681882 254.761262 
L 308.703769 248.359771 
L 309.725655 252.901617 
L 310.747542 247.672386 
L 311.769428 249.037115 
L 312.791296 250.167018 
L 313.813182 247.008874 
L 314.835069 248.134936 
L 315.856955 246.367845 
L 316.878842 246.265541 
L 317.900709 244.180991 
L 318.922595 244.141356 
L 319.944482 245.170443 
L 320.966368 245.489009 
L 321.988245 243.811668 
L 323.010132 245.32822 
L 324.032008 242.674312 
L 325.053895 243.830706 
L 326.075781 244.200905 
L 327.097658 243.065691 
L 328.119545 244.023526 
L 329.141421 244.260849 
L 330.163308 244.161151 
L 331.185195 245.08159 
L 332.207071 246.367845 
L 333.228958 246.0895 
L 334.250835 247.494236 
L 335.272721 245.282834 
L 336.294608 246.898611 
L 337.316484 248.134936 
L 338.338371 246.871273 
L 339.360248 247.205381 
L 340.382134 249.037115 
L 341.404021 249.037115 
L 342.425898 249.696788 
L 343.447784 249.471153 
L 344.469661 250.969412 
L 345.491547 253.719 
L 346.513434 252.467687 
L 347.535311 256.030326 
L 348.557197 251.806855 
L 349.579074 251.331404 
L 350.600961 252.957479 
L 351.622847 253.013675 
L 352.644724 250.412263 
L 353.66661 251.377753 
L 354.688487 250.969412 
L 355.710374 252.105447 
L 356.73226 252.207387 
L 357.754137 251.758039 
L 358.776024 255.636967 
L 359.7979 249.215252 
L 360.819787 251.855889 
L 361.841673 251.905209 
L 362.86355 250.007346 
L 363.885437 251.565761 
L 364.907313 249.215252 
L 365.9292 248.725569 
L 366.951086 250.04697 
L 367.972963 250.007346 
L 368.99485 249.583231 
L 370.016727 248.657886 
L 371.038613 248.19857 
L 372.0605 248.040382 
L 373.082376 248.230558 
L 374.104263 246.682303 
L 375.12614 247.092528 
L 376.148026 246.844005 
L 377.169913 245.037503 
L 378.19179 245.868383 
L 379.213676 244.321235 
L 380.235553 243.421387 
L 381.257439 243.984619 
L 382.279326 243.295192 
L 383.301203 243.241677 
L 384.323089 241.866047 
L 386.366852 241.496348 
L 387.388739 239.668479 
L 388.410616 240.709334 
L 389.432502 239.598807 
L 391.476266 238.04965 
L 394.541915 236.306366 
L 395.563792 235.983395 
L 396.585679 235.365195 
L 397.607565 234.887939 
L 398.629442 234.237391 
L 399.651329 233.236865 
L 400.673205 232.852953 
L 404.760742 230.036491 
L 405.782623 229.610094 
L 406.804505 228.742664 
L 409.870155 226.776221 
L 418.045213 220.896422 
L 421.110863 218.481147 
L 426.220276 214.630363 
L 429.285921 212.573464 
L 431.329689 211.473898 
L 433.373452 210.702256 
L 435.417221 210.293249 
L 437.460984 210.313601 
L 439.504747 210.674492 
L 446.657929 212.494479 
L 449.723576 212.772022 
L 451.767342 212.808096 
L 453.811105 212.704191 
L 456.876755 212.504371 
L 458.920518 212.141793 
L 459.942402 211.865047 
L 460.964284 211.43684 
L 461.986168 210.772642 
L 463.00805 209.827175 
L 464.029932 208.56292 
L 465.051815 206.84377 
L 466.073697 204.717873 
L 467.09558 202.170717 
L 469.139346 196.057285 
L 471.18311 189.131542 
L 483.445702 145.627313 
L 488.555115 128.592026 
L 492.642646 115.640484 
L 496.730176 103.345259 
L 499.795824 94.749061 
L 502.861472 86.58892 
L 504.905236 81.495506 
L 508.992768 72.365742 
L 511.036534 68.411934 
L 513.080299 65.032056 
L 515.124063 62.307814 
L 517.167828 60.267787 
L 519.211594 58.823847 
L 521.25536 57.848175 
L 523.299126 57.20094 
L 525.342889 56.77158 
L 528.408539 56.37834 
L 532.49607 56.103404 
L 539.649247 55.90655 
L 553.955604 55.803516 
L 606.071617 55.757929 
L 646.946923 55.75141 
L 646.946923 55.75141 
" clip-path="url(#paf3d54a040)" style="fill: none; stroke: #b7d4ea; stroke-width: 1.55; stroke-linecap: square"/>
   </g>
   <g id="line2d_29">
    <path d="M 279.069177 239.404637 
L 280.091063 240.062454 
L 281.11295 240.074676 
L 282.134817 240.963842 
L 283.156703 240.869263 
L 284.17859 241.410207 
L 285.200476 242.300468 
L 286.222363 242.065113 
L 287.24423 242.142836 
L 288.266116 242.8595 
L 289.288003 242.791787 
L 290.309889 244.672134 
L 292.353643 245.796305 
L 293.375529 246.015539 
L 294.397416 245.796305 
L 296.441189 246.629469 
L 297.463056 248.726103 
L 298.484943 248.263213 
L 299.506829 247.97843 
L 300.528716 247.205808 
L 301.550602 247.037116 
L 303.594356 250.580499 
L 304.616242 249.659387 
L 305.638129 248.42564 
L 306.660015 248.967431 
L 307.681882 246.736295 
L 308.703769 248.794358 
L 309.725655 248.231061 
L 310.747542 248.360261 
L 311.769428 247.885599 
L 313.813182 250.454514 
L 314.835069 248.135454 
L 315.856955 249.361091 
L 317.900709 248.86319 
L 318.922595 247.465369 
L 319.944482 248.932542 
L 320.966368 248.726103 
L 321.988245 247.916443 
L 323.010132 247.642906 
L 324.032008 248.103803 
L 325.053895 245.893061 
L 326.075781 245.844553 
L 328.119545 245.260594 
L 329.141421 246.015539 
L 330.163308 245.10406 
L 331.185195 245.966325 
L 332.207071 245.037863 
L 333.228958 244.799417 
L 334.250835 243.259742 
L 335.272721 244.885343 
L 336.294608 243.224185 
L 337.316484 242.758126 
L 338.338371 241.851186 
L 339.360248 241.170148 
L 340.382134 241.851186 
L 342.425898 240.475469 
L 343.447784 239.965298 
L 344.469661 238.974947 
L 346.513434 238.303968 
L 347.535311 238.23479 
L 348.557197 237.554163 
L 349.579074 237.025996 
L 350.600961 236.823622 
L 351.622847 235.69424 
L 352.644724 235.506745 
L 353.66661 234.646229 
L 354.688487 234.361162 
L 355.710374 233.73111 
L 356.73226 233.502902 
L 357.754137 232.361892 
L 358.776024 232.22526 
L 359.7979 231.533114 
L 360.819787 231.085716 
L 361.841673 230.426643 
L 362.86355 229.917764 
L 364.907313 228.44639 
L 368.99485 226.12308 
L 370.016727 225.543051 
L 371.038613 224.786446 
L 372.0605 224.26597 
L 374.104263 222.998782 
L 375.12614 222.385091 
L 376.148026 221.594972 
L 378.19179 220.425922 
L 379.213676 219.624234 
L 382.279326 217.726278 
L 387.388739 214.261667 
L 397.607565 207.694688 
L 401.695092 205.456158 
L 404.760742 204.032578 
L 407.826387 202.923148 
L 410.892037 202.188387 
L 412.9358 201.918335 
L 414.979568 201.805965 
L 418.045213 201.908082 
L 422.132744 202.045225 
L 423.154626 201.940502 
L 424.176508 201.646691 
L 425.198394 201.128105 
L 426.220276 200.312632 
L 427.242158 199.085154 
L 428.264039 197.404394 
L 429.285921 195.318035 
L 430.307807 192.833605 
L 432.351571 186.982073 
L 436.439102 173.562508 
L 440.526634 160.110675 
L 446.657929 141.346994 
L 451.767342 126.792628 
L 455.854871 115.733101 
L 459.942402 105.138259 
L 463.00805 97.704654 
L 466.073697 90.496639 
L 470.161228 81.588529 
L 474.248759 73.626823 
L 476.292524 70.082524 
L 478.336289 66.94004 
L 480.380054 64.237377 
L 482.423819 62.025521 
L 484.467585 60.302991 
L 486.51135 59.02571 
L 488.555115 58.101446 
L 490.59888 57.447158 
L 493.664528 56.81003 
L 496.730176 56.430564 
L 500.817707 56.142491 
L 507.970886 55.915571 
L 521.25536 55.789117 
L 562.130662 55.732668 
L 646.946923 55.719647 
L 646.946923 55.719647 
" clip-path="url(#paf3d54a040)" style="fill: none; stroke: #8dbdde; stroke-width: 1.55; stroke-linecap: square"/>
   </g>
   <g id="line2d_30">
    <path d="M 197.318566 248.199991 
L 198.340453 248.659386 
L 199.362339 252.057224 
L 200.384206 250.839492 
L 201.406093 251.426468 
L 202.42798 249.03866 
L 203.449866 251.015798 
L 204.471753 248.264119 
L 205.49362 250.455687 
L 206.515506 249.891312 
L 207.537393 253.783332 
L 208.559279 251.858078 
L 209.581166 247.917332 
L 210.603033 254.834059 
L 211.624919 253.479968 
L 212.646806 253.361647 
L 213.668692 254.558901 
L 214.690579 250.709623 
L 215.712446 251.615605 
L 216.734332 250.290558 
L 217.756219 250.331586 
L 218.778105 251.907411 
L 219.799992 249.969659 
L 220.821859 250.971383 
L 221.843746 250.971383 
L 222.865632 249.252962 
L 223.887519 252.417362 
L 224.909405 254.834059 
L 225.931272 254.626846 
L 226.953159 252.793503 
L 227.975045 252.793503 
L 228.996932 251.150516 
L 230.018818 249.109517 
L 231.040685 250.971383 
L 232.062572 250.883218 
L 233.084458 248.933521 
L 234.106345 246.710211 
L 235.128231 246.845216 
L 236.150098 246.241297 
L 237.171985 247.037918 
L 238.193871 246.87247 
L 239.215758 247.407813 
L 240.237645 245.466872 
L 241.259512 244.842882 
L 242.281398 243.385927 
L 243.303285 244.342342 
L 244.325171 243.793518 
L 245.347058 243.927425 
L 246.368925 242.559421 
L 248.412698 241.482527 
L 249.434584 241.468096 
L 252.500224 240.579062 
L 253.522111 240.235564 
L 254.543997 239.427578 
L 255.565884 239.645683 
L 256.587751 240.050594 
L 257.609638 240.075012 
L 258.631524 240.762818 
L 259.653411 240.001936 
L 260.675297 239.461652 
L 261.697164 240.736311 
L 262.719051 240.298135 
L 264.762824 241.396292 
L 265.78471 240.816057 
L 266.806577 241.657677 
L 267.828464 241.367738 
L 268.85035 241.310927 
L 269.872237 243.083886 
L 270.894123 243.331837 
L 273.959763 243.153998 
L 274.98165 244.201765 
L 276.003537 243.385927 
L 277.025404 244.024381 
L 278.04729 244.800004 
L 279.069177 243.624389 
L 280.091063 243.440376 
L 281.11295 244.004903 
L 282.134817 243.927425 
L 283.156703 243.40403 
L 284.17859 243.927425 
L 285.200476 243.927425 
L 286.222363 243.136421 
L 287.24423 243.440376 
L 288.266116 242.03464 
L 290.309889 242.592288 
L 291.331776 242.221724 
L 292.353643 241.555069 
L 293.375529 241.310927 
L 294.397416 241.973179 
L 295.419303 241.511471 
L 296.441189 241.268565 
L 297.463056 240.235564 
L 299.506829 239.192874 
L 300.528716 239.427578 
L 301.550602 239.237078 
L 302.572469 238.274519 
L 303.594356 238.244901 
L 304.616242 237.339164 
L 305.638129 236.724441 
L 306.660015 236.882373 
L 307.681882 236.601805 
L 310.747542 234.98824 
L 312.791296 234.200885 
L 313.813182 234.043428 
L 314.835069 233.491798 
L 315.856955 232.431163 
L 317.900709 231.668108 
L 318.922595 230.608727 
L 319.944482 230.379896 
L 324.032008 228.496169 
L 327.097658 226.652595 
L 328.119545 226.299167 
L 329.141421 225.797505 
L 330.163308 225.120708 
L 331.185195 224.668683 
L 332.207071 223.965127 
L 335.272721 222.300749 
L 345.491547 216.17537 
L 352.644724 211.771154 
L 363.885437 204.9655 
L 368.99485 202.250192 
L 373.082376 200.368969 
L 376.148026 199.165107 
L 380.235553 197.851937 
L 385.344966 196.301225 
L 386.366852 195.85896 
L 387.388739 195.28422 
L 388.410616 194.495472 
L 389.432502 193.469497 
L 390.454379 192.145468 
L 391.476266 190.447121 
L 392.498152 188.388329 
L 394.541915 183.339143 
L 397.607565 174.628774 
L 402.716974 160.008988 
L 411.913918 136.334305 
L 417.023331 123.693542 
L 421.110863 114.080425 
L 425.198394 104.746129 
L 429.285921 96.021798 
L 433.373452 87.696407 
L 436.439102 81.889148 
L 439.504747 76.543083 
L 442.570397 71.613985 
L 444.614163 68.683032 
L 446.657929 66.08662 
L 448.701692 63.839337 
L 450.745458 61.96759 
L 452.789223 60.46392 
L 454.832989 59.294306 
L 456.876755 58.408855 
L 458.920518 57.745486 
L 461.986168 57.058292 
L 465.051815 56.61946 
L 469.139346 56.266591 
L 475.270641 55.995643 
L 485.489467 55.821516 
L 507.970886 55.733323 
L 524.321007 55.717751 
L 524.321007 55.717751 
" clip-path="url(#paf3d54a040)" style="fill: none; stroke: #5b9bd5; stroke-width: 1.55; stroke-linecap: square"/>
   </g>
   <g id="line2d_31">
    <path d="M 197.318566 241.101819 
L 198.340453 241.658333 
L 199.362339 242.38158 
L 200.384206 241.185092 
L 201.406093 241.368381 
L 202.42798 241.25512 
L 203.449866 241.673102 
L 205.49362 241.339921 
L 206.515506 241.48317 
L 207.537393 241.368381 
L 209.581166 240.789983 
L 210.603033 240.883685 
L 211.624919 239.905985 
L 212.646806 239.70455 
L 213.668692 239.870095 
L 214.690579 239.416759 
L 215.712446 239.56518 
L 216.734332 239.182343 
L 217.756219 239.204385 
L 218.778105 238.826625 
L 219.799992 237.850591 
L 220.821859 237.527585 
L 221.843746 237.664519 
L 223.887519 236.553592 
L 224.909405 236.20572 
L 225.931272 235.261208 
L 226.953159 235.212846 
L 230.018818 234.231753 
L 231.040685 233.737279 
L 232.062572 233.662379 
L 234.106345 232.816956 
L 235.128231 232.754891 
L 236.150098 232.342557 
L 239.215758 231.668289 
L 240.237645 231.449068 
L 241.259512 231.587098 
L 242.281398 231.222468 
L 243.303285 231.056415 
L 244.325171 231.226773 
L 246.368925 230.955826 
L 248.412698 230.893558 
L 250.456471 230.877029 
L 255.565884 230.368374 
L 256.587751 230.462188 
L 257.609638 230.321858 
L 258.631524 230.337335 
L 259.653411 230.081741 
L 260.675297 230.187621 
L 262.719051 229.750119 
L 264.762824 229.382418 
L 265.78471 229.066612 
L 267.828464 228.625014 
L 268.85035 228.31745 
L 269.872237 228.148297 
L 270.894123 227.711187 
L 271.91599 227.464876 
L 272.937877 227.081934 
L 274.98165 226.801857 
L 276.003537 226.289635 
L 285.200476 222.839205 
L 287.24423 221.925479 
L 289.288003 221.019265 
L 297.463056 217.267379 
L 298.484943 216.701858 
L 300.528716 215.773494 
L 317.900709 206.351829 
L 329.141421 200.052738 
L 334.250835 197.402123 
L 338.338371 195.475058 
L 342.425898 193.766421 
L 348.557197 191.526096 
L 351.622847 190.266346 
L 353.66661 189.10635 
L 354.688487 188.34564 
L 355.710374 187.402644 
L 356.73226 186.260931 
L 357.754137 184.847021 
L 358.776024 183.162343 
L 359.7979 181.235337 
L 361.841673 176.69452 
L 363.885437 171.498797 
L 370.016727 154.698571 
L 374.104263 143.550511 
L 378.19179 133.197509 
L 382.279326 123.395907 
L 385.344966 116.606925 
L 389.432502 107.850591 
L 393.520029 99.644914 
L 401.695092 84.743329 
L 404.760742 79.694136 
L 409.870155 72.17497 
L 412.9358 68.274098 
L 414.979568 66.000054 
L 417.023331 64.018903 
L 419.067095 62.325698 
L 421.110863 60.923414 
L 423.154626 59.791839 
L 425.198394 58.897054 
L 427.242158 58.202237 
L 430.307807 57.443437 
L 433.373452 56.932493 
L 437.460984 56.499083 
L 442.570397 56.188446 
L 450.745458 55.950181 
L 465.051815 55.808871 
L 499.795824 55.74603 
L 524.321007 55.736875 
L 524.321007 55.736875 
" clip-path="url(#paf3d54a040)" style="fill: none; stroke: #377faf; stroke-width: 1.55; stroke-linecap: square"/>
   </g>
   <g id="line2d_32">
    <path d="M 156.443261 244.737091 
L 157.465148 245.467931 
L 158.487034 244.506869 
L 159.508901 244.282728 
L 160.530788 243.756505 
L 161.552674 245.150157 
L 162.574561 247.438318 
L 164.618315 244.822384 
L 165.640201 245.678705 
L 166.662088 248.36271 
L 167.683974 245.72627 
L 168.705861 245.678705 
L 169.727728 245.846341 
L 170.749614 247.06708 
L 171.771501 246.293308 
L 172.793387 246.631466 
L 173.815274 245.039474 
L 174.837141 246.473718 
L 175.859027 245.17246 
L 176.880914 247.123149 
L 177.9028 246.318839 
L 179.946554 244.302856 
L 180.96844 244.162915 
L 181.990327 245.398823 
L 183.012213 244.88694 
L 184.0341 243.737608 
L 185.055967 243.477669 
L 186.077854 243.404848 
L 187.09974 243.06724 
L 188.121627 244.800983 
L 189.143513 244.10367 
L 190.16538 243.889823 
L 191.187267 243.015143 
L 192.209153 243.386744 
L 193.23104 242.894818 
L 194.252926 242.57657 
L 195.274793 242.478509 
L 196.29668 241.822141 
L 197.318566 242.946178 
L 198.340453 241.702696 
L 199.362339 241.115647 
L 200.384206 240.776685 
L 201.406093 241.129489 
L 202.42798 240.502088 
L 204.471753 239.634582 
L 205.49362 238.711294 
L 206.515506 238.206004 
L 207.537393 238.186404 
L 208.559279 238.546293 
L 209.581166 237.225198 
L 210.603033 237.46444 
L 211.624919 236.433384 
L 212.646806 236.221227 
L 213.668692 236.182514 
L 214.690579 236.299189 
L 215.712446 235.199083 
L 217.756219 235.008671 
L 218.778105 234.380292 
L 220.821859 233.966032 
L 221.843746 234.10389 
L 222.865632 233.396991 
L 227.975045 232.110188 
L 228.996932 231.663753 
L 230.018818 231.573639 
L 232.062572 230.893558 
L 233.084458 230.819434 
L 236.150098 230.047986 
L 238.193871 229.681737 
L 239.215758 229.224741 
L 241.259512 228.973792 
L 242.281398 228.486936 
L 246.368925 227.355241 
L 247.390811 227.132179 
L 249.434584 226.294439 
L 250.456471 225.79531 
L 253.522111 224.700525 
L 256.587751 223.37157 
L 268.85035 217.438678 
L 274.98165 214.136139 
L 294.397416 202.967142 
L 299.506829 200.137522 
L 305.638129 197.025629 
L 310.747542 194.696781 
L 315.856955 192.389546 
L 317.900709 191.262598 
L 319.944482 189.810959 
L 320.966368 188.908289 
L 321.988245 187.844321 
L 323.010132 186.597683 
L 324.032008 185.169474 
L 326.075781 181.72237 
L 328.119545 177.558956 
L 330.163308 172.832817 
L 333.228958 165.06679 
L 345.491547 133.382408 
L 349.579074 123.661594 
L 352.644724 116.915408 
L 355.710374 110.412441 
L 359.7979 102.310212 
L 362.86355 96.686747 
L 365.9292 91.297802 
L 370.016727 84.588791 
L 373.082376 79.925856 
L 378.19179 72.962558 
L 381.257439 69.30452 
L 383.301203 67.136175 
L 385.344966 65.206821 
L 387.388739 63.514736 
L 389.432502 62.066763 
L 391.476266 60.854584 
L 393.520029 59.858977 
L 395.563792 59.056671 
L 398.629442 58.142813 
L 401.695092 57.498169 
L 405.782623 56.92705 
L 410.892037 56.497898 
L 418.045213 56.181491 
L 428.264039 55.983207 
L 447.67981 55.868576 
L 463.00805 55.843357 
L 463.00805 55.843357 
" clip-path="url(#paf3d54a040)" style="fill: none; stroke: #225f8d; stroke-width: 1.55; stroke-linecap: square"/>
   </g>
   <g id="line2d_33">
    <path d="M 74.692651 245.307821 
L 75.714518 245.968444 
L 76.736424 246.984001 
L 77.758291 250.842061 
L 78.780197 249.932702 
L 79.802064 255.568382 
L 80.823931 251.860976 
L 81.845837 253.664232 
L 82.867704 254.908456 
L 83.88961 253.974396 
L 84.911477 255.800305 
L 85.933344 259.841517 
L 86.95525 256.797284 
L 87.977117 261.359277 
L 88.999023 260.63546 
L 90.02089 256.119745 
L 91.042758 265.58183 
L 92.064664 266.92745 
L 93.086531 270.070256 
L 94.108437 260.63546 
L 95.130304 265.336621 
L 96.152171 286.206869 
L 97.174077 266.106931 
L 98.195944 271.981176 
L 99.21785 266.940821 
L 100.239717 267.532026 
L 101.261584 270.070256 
L 102.28349 271.444822 
L 103.305357 264.206573 
L 104.327263 271.467307 
L 105.34913 271.467307 
L 106.370997 259.968763 
L 107.392903 270.960999 
L 108.41477 267.224244 
L 109.436676 288.182896 
L 110.458543 261.216417 
L 111.48041 265.845936 
L 112.502316 272.528261 
L 113.524183 273.085854 
L 114.546089 286.206869 
L 115.567956 269.676457 
L 116.589823 283.657081 
L 117.611729 263.023923 
L 118.633596 262.663848 
L 119.655502 257.728343 
L 120.677369 257.533797 
L 121.699236 265.58183 
L 122.721142 270.089922 
L 123.743009 269.264118 
L 124.764915 276.819081 
L 125.786782 280.241212 
L 126.808649 271.957286 
L 127.830556 277.861846 
L 128.852423 264.640636 
L 129.874329 259.350599 
L 130.896196 258.028942 
L 131.918063 255.050694 
L 132.939969 254.908456 
L 133.961836 256.20151 
L 134.983742 254.562888 
L 136.005609 250.885801 
L 137.027476 254.296269 
L 138.049382 255.800305 
L 140.093155 249.971977 
L 141.115022 252.110685 
L 142.136889 252.907446 
L 143.158795 250.973993 
L 144.180662 252.741961 
L 145.202568 249.005545 
L 146.224435 248.560766 
L 147.246302 249.111564 
L 148.268208 250.171158 
L 149.290075 250.292966 
L 150.311981 248.866197 
L 151.333848 246.631795 
L 152.355715 247.467899 
L 153.377621 246.141977 
L 154.399488 245.537882 
L 155.421394 247.73575 
L 156.443261 244.952234 
L 157.465148 245.58466 
L 158.487034 244.548515 
L 160.530788 244.303094 
L 161.552674 245.285144 
L 162.574561 243.66276 
L 163.596447 244.611008 
L 164.618315 242.998055 
L 165.640201 242.860946 
L 166.662088 242.333702 
L 167.683974 242.035517 
L 168.705861 241.867561 
L 169.727728 241.57047 
L 170.749614 241.585086 
L 171.771501 240.856964 
L 172.793387 240.658063 
L 173.815274 240.186532 
L 174.837141 241.074411 
L 175.859027 240.286284 
L 176.880914 239.870227 
L 177.9028 238.795133 
L 178.924687 238.71141 
L 179.946554 238.404636 
L 180.96844 238.404636 
L 181.990327 237.729282 
L 184.0341 237.026694 
L 185.055967 236.10571 
L 187.09974 235.931447 
L 188.121627 235.753359 
L 191.187267 233.67392 
L 192.209153 234.043742 
L 193.23104 233.341643 
L 194.252926 233.447229 
L 196.29668 231.968182 
L 197.318566 231.672866 
L 198.340453 231.551305 
L 202.42798 229.621057 
L 203.449866 229.567842 
L 204.471753 228.807331 
L 207.537393 228.133386 
L 208.559279 227.751069 
L 210.603033 226.555509 
L 214.690579 225.38419 
L 215.712446 224.692583 
L 218.778105 223.793597 
L 219.799992 223.467385 
L 221.843746 222.452038 
L 225.931272 220.818104 
L 226.953159 220.259432 
L 231.040685 218.51369 
L 241.259512 213.342945 
L 246.368925 210.604495 
L 265.78471 199.670344 
L 270.894123 196.965921 
L 277.025404 193.939958 
L 282.134817 191.418194 
L 285.200476 189.638256 
L 287.24423 188.155452 
L 289.288003 186.258819 
L 291.331776 183.836179 
L 293.375529 180.789237 
L 295.419303 177.138599 
L 297.463056 172.935522 
L 300.528716 165.963034 
L 305.638129 153.657775 
L 311.769428 138.595998 
L 321.988245 115.278041 
L 326.075781 106.76004 
L 329.141421 100.773045 
L 335.272721 89.903917 
L 338.338371 84.98361 
L 341.404021 80.429849 
L 346.513434 73.699567 
L 349.579074 70.172932 
L 352.644724 67.093178 
L 354.688487 65.307147 
L 356.73226 63.729494 
L 358.776024 62.364773 
L 360.819787 61.204982 
L 362.86355 60.233784 
L 365.9292 59.088316 
L 368.99485 58.243015 
L 372.0605 57.626168 
L 376.148026 57.056359 
L 381.257439 56.605527 
L 388.410616 56.250267 
L 398.629442 56.008173 
L 416.00145 55.862093 
L 422.132744 55.841142 
L 422.132744 55.841142 
" clip-path="url(#paf3d54a040)" style="fill: none; stroke: #13304b; stroke-width: 1.55; stroke-linecap: square"/>
   </g>
   <g id="patch_3">
    <path d="M 46.079937 288.182896 
L 46.079937 42.507986 
" style="fill: none; stroke: #b9c0c7; stroke-width: 0.8; stroke-linejoin: miter; stroke-linecap: square"/>
   </g>
   <g id="patch_4">
    <path d="M 46.079938 288.182896 
L 675.559636 288.182896 
" style="fill: none; stroke: #b9c0c7; stroke-width: 0.8; stroke-linejoin: miter; stroke-linecap: square"/>
   </g>
   <g id="legend_1">
    <g id="text_16">
     <!-- Dose (krad(Si)) -->
     <g style="fill: #343434" transform="translate(333.706037 16.22375) scale(0.08 -0.08)">
      <defs>
       <path id="ArialMT-6b" d="M 425 0 
L 425 4581 
L 988 4581 
L 988 1969 
L 2319 3319 
L 3047 3319 
L 1778 2088 
L 3175 0 
L 2481 0 
L 1384 1697 
L 988 1316 
L 988 0 
L 425 0 
z
" transform="scale(0.015625)"/>
      </defs>
      <use xlink:href="#ArialMT-44"/>
      <use xlink:href="#ArialMT-6f" x="72.216797"/>
      <use xlink:href="#ArialMT-73" x="127.832031"/>
      <use xlink:href="#ArialMT-65" x="177.832031"/>
      <use xlink:href="#ArialMT-20" x="233.447266"/>
      <use xlink:href="#ArialMT-28" x="261.230469"/>
      <use xlink:href="#ArialMT-6b" x="294.53125"/>
      <use xlink:href="#ArialMT-72" x="344.53125"/>
      <use xlink:href="#ArialMT-61" x="377.832031"/>
      <use xlink:href="#ArialMT-64" x="433.447266"/>
      <use xlink:href="#ArialMT-28" x="489.0625"/>
      <use xlink:href="#ArialMT-53" x="522.363281"/>
      <use xlink:href="#ArialMT-69" x="589.0625"/>
      <use xlink:href="#ArialMT-29" x="611.279297"/>
      <use xlink:href="#ArialMT-29" x="644.580078"/>
     </g>
    </g>
    <g id="line2d_34">
     <path d="M 205.502912 24.83375 
L 213.502912 24.83375 
L 221.502912 24.83375 
" style="fill: none; stroke: #dceaf5; stroke-width: 1.55; stroke-linecap: square"/>
    </g>
    <g id="text_17">
     <!-- 0 -->
     <g style="fill: #343434" transform="translate(227.902912 27.63375) scale(0.08 -0.08)">
      <use xlink:href="#ArialMT-30"/>
     </g>
    </g>
    <g id="line2d_35">
     <path d="M 248.351662 24.83375 
L 256.351662 24.83375 
L 264.351662 24.83375 
" style="fill: none; stroke: #b7d4ea; stroke-width: 1.55; stroke-linecap: square"/>
    </g>
    <g id="text_18">
     <!-- 10 -->
     <g style="fill: #343434" transform="translate(270.751662 27.63375) scale(0.08 -0.08)">
      <use xlink:href="#ArialMT-31"/>
      <use xlink:href="#ArialMT-30" x="55.615234"/>
     </g>
    </g>
    <g id="line2d_36">
     <path d="M 295.649162 24.83375 
L 303.649162 24.83375 
L 311.649162 24.83375 
" style="fill: none; stroke: #8dbdde; stroke-width: 1.55; stroke-linecap: square"/>
    </g>
    <g id="text_19">
     <!-- 20 -->
     <g style="fill: #343434" transform="translate(318.049162 27.63375) scale(0.08 -0.08)">
      <use xlink:href="#ArialMT-32"/>
      <use xlink:href="#ArialMT-30" x="55.615234"/>
     </g>
    </g>
    <g id="line2d_37">
     <path d="M 342.946662 24.83375 
L 350.946662 24.83375 
L 358.946662 24.83375 
" style="fill: none; stroke: #5b9bd5; stroke-width: 1.55; stroke-linecap: square"/>
    </g>
    <g id="text_20">
     <!-- 30 -->
     <g style="fill: #343434" transform="translate(365.346662 27.63375) scale(0.08 -0.08)">
      <use xlink:href="#ArialMT-33"/>
      <use xlink:href="#ArialMT-30" x="55.615234"/>
     </g>
    </g>
    <g id="line2d_38">
     <path d="M 390.244162 24.83375 
L 398.244162 24.83375 
L 406.244162 24.83375 
" style="fill: none; stroke: #377faf; stroke-width: 1.55; stroke-linecap: square"/>
    </g>
    <g id="text_21">
     <!-- 40 -->
     <g style="fill: #343434" transform="translate(412.644162 27.63375) scale(0.08 -0.08)">
      <defs>
       <path id="ArialMT-34" d="M 2069 0 
L 2069 1097 
L 81 1097 
L 81 1613 
L 2172 4581 
L 2631 4581 
L 2631 1613 
L 3250 1613 
L 3250 1097 
L 2631 1097 
L 2631 0 
L 2069 0 
z
M 2069 1613 
L 2069 3678 
L 634 1613 
L 2069 1613 
z
" transform="scale(0.015625)"/>
      </defs>
      <use xlink:href="#ArialMT-34"/>
      <use xlink:href="#ArialMT-30" x="55.615234"/>
     </g>
    </g>
    <g id="line2d_39">
     <path d="M 437.541662 24.83375 
L 445.541662 24.83375 
L 453.541662 24.83375 
" style="fill: none; stroke: #225f8d; stroke-width: 1.55; stroke-linecap: square"/>
    </g>
    <g id="text_22">
     <!-- 50 -->
     <g style="fill: #343434" transform="translate(459.941662 27.63375) scale(0.08 -0.08)">
      <use xlink:href="#ArialMT-35"/>
      <use xlink:href="#ArialMT-30" x="55.615234"/>
     </g>
    </g>
    <g id="line2d_40">
     <path d="M 484.839162 24.83375 
L 492.839162 24.83375 
L 500.839162 24.83375 
" style="fill: none; stroke: #13304b; stroke-width: 1.55; stroke-linecap: square"/>
    </g>
    <g id="text_23">
     <!-- 60 -->
     <g style="fill: #343434" transform="translate(507.239162 27.63375) scale(0.08 -0.08)">
      <defs>
       <path id="ArialMT-36" d="M 3184 3459 
L 2625 3416 
Q 2550 3747 2413 3897 
Q 2184 4138 1850 4138 
Q 1581 4138 1378 3988 
Q 1113 3794 959 3422 
Q 806 3050 800 2363 
Q 1003 2672 1297 2822 
Q 1591 2972 1913 2972 
Q 2475 2972 2870 2558 
Q 3266 2144 3266 1488 
Q 3266 1056 3080 686 
Q 2894 316 2569 119 
Q 2244 -78 1831 -78 
Q 1128 -78 684 439 
Q 241 956 241 2144 
Q 241 3472 731 4075 
Q 1159 4600 1884 4600 
Q 2425 4600 2770 4297 
Q 3116 3994 3184 3459 
z
M 888 1484 
Q 888 1194 1011 928 
Q 1134 663 1356 523 
Q 1578 384 1822 384 
Q 2178 384 2434 671 
Q 2691 959 2691 1453 
Q 2691 1928 2437 2201 
Q 2184 2475 1800 2475 
Q 1419 2475 1153 2201 
Q 888 1928 888 1484 
z
" transform="scale(0.015625)"/>
      </defs>
      <use xlink:href="#ArialMT-36"/>
      <use xlink:href="#ArialMT-30" x="55.615234"/>
     </g>
    </g>
   </g>
  </g>
 </g>
 <defs>
  <clipPath id="paf3d54a040">
   <rect x="46.079937" y="42.507986" width="629.479699" height="245.67491"/>
  </clipPath>
 </defs>
</svg>
