<?xml version="1.0" encoding="utf-8" standalone="no"?>
<!DOCTYPE svg PUBLIC "-//W3C//DTD SVG 1.1//EN"
  "http://www.w3.org/Graphics/SVG/1.1/DTD/svg11.dtd">
<svg xmlns:xlink="http://www.w3.org/1999/xlink" width="439.284375pt" height="335.62625pt" viewBox="0 0 439.284375 335.62625" xmlns="http://www.w3.org/2000/svg" version="1.1">
 <metadata>
  <rdf:RDF xmlns:dc="http://purl.org/dc/elements/1.1/" xmlns:cc="http://creativecommons.org/ns#" xmlns:rdf="http://www.w3.org/1999/02/22-rdf-syntax-ns#">
   <cc:Work>
    <dc:type rdf:resource="http://purl.org/dc/dcmitype/StillImage"/>
    <dc:date>2026-07-23T17:29:24.232394</dc:date>
    <dc:format>image/svg+xml</dc:format>
    <dc:creator>
     <cc:Agent>
      <dc:title>Matplotlib v3.9.2, https://matplotlib.org/</dc:title>
     </cc:Agent>
    </dc:creator>
   </cc:Work>
  </rdf:RDF>
 </metadata>
 <defs>
  <style type="text/css">*{stroke-linejoin: round; stroke-linecap: butt}</style>
 </defs>
 <g id="figure_1">
  <g id="patch_1">
   <path d="M 0 335.62625 
L 439.284375 335.62625 
L 439.284375 0 
L 0 0 
z
" style="fill: #ffffff"/>
  </g>
  <g id="axes_1">
   <g id="patch_2">
    <path d="M 41.484375 299.135625 
L 432.084375 299.135625 
L 432.084375 21.935625 
L 41.484375 21.935625 
z
" style="fill: #ffffff"/>
   </g>
   <g id="matplotlib.axis_1">
    <g id="xtick_1">
     <g id="line2d_1">
      <path d="M 100.210943 299.135625 
L 100.210943 21.935625 
" clip-path="url(#p66d72a750b)" style="fill: none; stroke: #b0b0b0; stroke-opacity: 0.2; stroke-width: 0.8; stroke-linecap: square"/>
     </g>
     <g id="line2d_2">
      <defs>
       <path id="m882f932c1d" d="M 0 0 
L 0 3.5 
" style="stroke: #000000; stroke-width: 0.8"/>
      </defs>
      <g>
       <use xlink:href="#m882f932c1d" x="100.210943" y="299.135625" style="stroke: #000000; stroke-width: 0.8"/>
      </g>
     </g>
     <g id="text_1">
      <!-- −1.0 -->
      <g transform="translate(90.340631 313.293438) scale(0.1 -0.1)">
       <defs>
        <path id="ArialMT-2212" d="M 3381 1997 
L 356 1997 
L 356 2522 
L 3381 2522 
L 3381 1997 
z
" transform="scale(0.015625)"/>
        <path id="ArialMT-31" d="M 2384 0 
L 1822 0 
L 1822 3584 
Q 1619 3391 1289 3197 
Q 959 3003 697 2906 
L 697 3450 
Q 1169 3672 1522 3987 
Q 1875 4303 2022 4600 
L 2384 4600 
L 2384 0 
z
" transform="scale(0.015625)"/>
        <path id="ArialMT-2e" d="M 581 0 
L 581 641 
L 1222 641 
L 1222 0 
L 581 0 
z
" transform="scale(0.015625)"/>
        <path id="ArialMT-30" d="M 266 2259 
Q 266 3072 433 3567 
Q 600 4063 929 4331 
Q 1259 4600 1759 4600 
Q 2128 4600 2406 4451 
Q 2684 4303 2865 4023 
Q 3047 3744 3150 3342 
Q 3253 2941 3253 2259 
Q 3253 1453 3087 958 
Q 2922 463 2592 192 
Q 2263 -78 1759 -78 
Q 1097 -78 719 397 
Q 266 969 266 2259 
z
M 844 2259 
Q 844 1131 1108 757 
Q 1372 384 1759 384 
Q 2147 384 2411 759 
Q 2675 1134 2675 2259 
Q 2675 3391 2411 3762 
Q 2147 4134 1753 4134 
Q 1366 4134 1134 3806 
Q 844 3388 844 2259 
z
" transform="scale(0.015625)"/>
       </defs>
       <use xlink:href="#ArialMT-2212"/>
       <use xlink:href="#ArialMT-31" x="58.398438"/>
       <use xlink:href="#ArialMT-2e" x="114.013672"/>
       <use xlink:href="#ArialMT-30" x="141.796875"/>
      </g>
     </g>
    </g>
    <g id="xtick_2">
     <g id="line2d_3">
      <path d="M 168.497659 299.135625 
L 168.497659 21.935625 
" clip-path="url(#p66d72a750b)" style="fill: none; stroke: #b0b0b0; stroke-opacity: 0.2; stroke-width: 0.8; stroke-linecap: square"/>
     </g>
     <g id="line2d_4">
      <g>
       <use xlink:href="#m882f932c1d" x="168.497659" y="299.135625" style="stroke: #000000; stroke-width: 0.8"/>
      </g>
     </g>
     <g id="text_2">
      <!-- −0.5 -->
      <g transform="translate(158.627347 313.293438) scale(0.1 -0.1)">
       <defs>
        <path id="ArialMT-35" d="M 266 1200 
L 856 1250 
Q 922 819 1161 601 
Q 1400 384 1738 384 
Q 2144 384 2425 690 
Q 2706 997 2706 1503 
Q 2706 1984 2436 2262 
Q 2166 2541 1728 2541 
Q 1456 2541 1237 2417 
Q 1019 2294 894 2097 
L 366 2166 
L 809 4519 
L 3088 4519 
L 3088 3981 
L 1259 3981 
L 1013 2750 
Q 1425 3038 1878 3038 
Q 2478 3038 2890 2622 
Q 3303 2206 3303 1553 
Q 3303 931 2941 478 
Q 2500 -78 1738 -78 
Q 1113 -78 717 272 
Q 322 622 266 1200 
z
" transform="scale(0.015625)"/>
       </defs>
       <use xlink:href="#ArialMT-2212"/>
       <use xlink:href="#ArialMT-30" x="58.398438"/>
       <use xlink:href="#ArialMT-2e" x="114.013672"/>
       <use xlink:href="#ArialMT-35" x="141.796875"/>
      </g>
     </g>
    </g>
    <g id="xtick_3">
     <g id="line2d_5">
      <path d="M 236.784375 299.135625 
L 236.784375 21.935625 
" clip-path="url(#p66d72a750b)" style="fill: none; stroke: #b0b0b0; stroke-opacity: 0.2; stroke-width: 0.8; stroke-linecap: square"/>
     </g>
     <g id="line2d_6">
      <g>
       <use xlink:href="#m882f932c1d" x="236.784375" y="299.135625" style="stroke: #000000; stroke-width: 0.8"/>
      </g>
     </g>
     <g id="text_3">
      <!-- 0.0 -->
      <g transform="translate(229.834375 313.293438) scale(0.1 -0.1)">
       <use xlink:href="#ArialMT-30"/>
       <use xlink:href="#ArialMT-2e" x="55.615234"/>
       <use xlink:href="#ArialMT-30" x="83.398438"/>
      </g>
     </g>
    </g>
    <g id="xtick_4">
     <g id="line2d_7">
      <path d="M 305.071091 299.135625 
L 305.071091 21.935625 
" clip-path="url(#p66d72a750b)" style="fill: none; stroke: #b0b0b0; stroke-opacity: 0.2; stroke-width: 0.8; stroke-linecap: square"/>
     </g>
     <g id="line2d_8">
      <g>
       <use xlink:href="#m882f932c1d" x="305.071091" y="299.135625" style="stroke: #000000; stroke-width: 0.8"/>
      </g>
     </g>
     <g id="text_4">
      <!-- 0.5 -->
      <g transform="translate(298.121091 313.293438) scale(0.1 -0.1)">
       <use xlink:href="#ArialMT-30"/>
       <use xlink:href="#ArialMT-2e" x="55.615234"/>
       <use xlink:href="#ArialMT-35" x="83.398438"/>
      </g>
     </g>
    </g>
    <g id="xtick_5">
     <g id="line2d_9">
      <path d="M 373.357807 299.135625 
L 373.357807 21.935625 
" clip-path="url(#p66d72a750b)" style="fill: none; stroke: #b0b0b0; stroke-opacity: 0.2; stroke-width: 0.8; stroke-linecap: square"/>
     </g>
     <g id="line2d_10">
      <g>
       <use xlink:href="#m882f932c1d" x="373.357807" y="299.135625" style="stroke: #000000; stroke-width: 0.8"/>
      </g>
     </g>
     <g id="text_5">
      <!-- 1.0 -->
      <g transform="translate(366.407807 313.293438) scale(0.1 -0.1)">
       <use xlink:href="#ArialMT-31"/>
       <use xlink:href="#ArialMT-2e" x="55.615234"/>
       <use xlink:href="#ArialMT-30" x="83.398438"/>
      </g>
     </g>
    </g>
    <g id="text_6">
     <!-- X [um] -->
     <g transform="translate(222.336719 326.43875) scale(0.1 -0.1)">
      <defs>
       <path id="ArialMT-58" d="M 28 0 
L 1800 2388 
L 238 4581 
L 959 4581 
L 1791 3406 
Q 2050 3041 2159 2844 
Q 2313 3094 2522 3366 
L 3444 4581 
L 4103 4581 
L 2494 2422 
L 4228 0 
L 3478 0 
L 2325 1634 
Q 2228 1775 2125 1941 
Q 1972 1691 1906 1597 
L 756 0 
L 28 0 
z
" transform="scale(0.015625)"/>
       <path id="ArialMT-20" transform="scale(0.015625)"/>
       <path id="ArialMT-5b" d="M 434 -1272 
L 434 4581 
L 1675 4581 
L 1675 4116 
L 997 4116 
L 997 -806 
L 1675 -806 
L 1675 -1272 
L 434 -1272 
z
" transform="scale(0.015625)"/>
       <path id="ArialMT-75" d="M 2597 0 
L 2597 488 
Q 2209 -75 1544 -75 
Q 1250 -75 995 37 
Q 741 150 617 320 
Q 494 491 444 738 
Q 409 903 409 1263 
L 409 3319 
L 972 3319 
L 972 1478 
Q 972 1038 1006 884 
Q 1059 663 1231 536 
Q 1403 409 1656 409 
Q 1909 409 2131 539 
Q 2353 669 2445 892 
Q 2538 1116 2538 1541 
L 2538 3319 
L 3100 3319 
L 3100 0 
L 2597 0 
z
" transform="scale(0.015625)"/>
       <path id="ArialMT-6d" d="M 422 0 
L 422 3319 
L 925 3319 
L 925 2853 
Q 1081 3097 1340 3245 
Q 1600 3394 1931 3394 
Q 2300 3394 2536 3241 
Q 2772 3088 2869 2813 
Q 3263 3394 3894 3394 
Q 4388 3394 4653 3120 
Q 4919 2847 4919 2278 
L 4919 0 
L 4359 0 
L 4359 2091 
Q 4359 2428 4304 2576 
Q 4250 2725 4106 2815 
Q 3963 2906 3769 2906 
Q 3419 2906 3187 2673 
Q 2956 2441 2956 1928 
L 2956 0 
L 2394 0 
L 2394 2156 
Q 2394 2531 2256 2718 
Q 2119 2906 1806 2906 
Q 1569 2906 1367 2781 
Q 1166 2656 1075 2415 
Q 984 2175 984 1722 
L 984 0 
L 422 0 
z
" transform="scale(0.015625)"/>
       <path id="ArialMT-5d" d="M 1363 -1272 
L 122 -1272 
L 122 -806 
L 800 -806 
L 800 4116 
L 122 4116 
L 122 4581 
L 1363 4581 
L 1363 -1272 
z
" transform="scale(0.015625)"/>
      </defs>
      <use xlink:href="#ArialMT-58"/>
      <use xlink:href="#ArialMT-20" x="66.699219"/>
      <use xlink:href="#ArialMT-5b" x="94.482422"/>
      <use xlink:href="#ArialMT-75" x="122.265625"/>
      <use xlink:href="#ArialMT-6d" x="177.880859"/>
      <use xlink:href="#ArialMT-5d" x="261.181641"/>
     </g>
    </g>
   </g>
   <g id="matplotlib.axis_2">
    <g id="ytick_1">
     <g id="line2d_11">
      <path d="M 41.484375 286.535625 
L 432.084375 286.535625 
" clip-path="url(#p66d72a750b)" style="fill: none; stroke: #b0b0b0; stroke-opacity: 0.2; stroke-width: 0.8; stroke-linecap: square"/>
     </g>
     <g id="line2d_12">
      <defs>
       <path id="m4f997e8458" d="M 0 0 
L -3.5 0 
" style="stroke: #000000; stroke-width: 0.8"/>
      </defs>
      <g>
       <use xlink:href="#m4f997e8458" x="41.484375" y="286.535625" style="stroke: #000000; stroke-width: 0.8"/>
      </g>
     </g>
     <g id="text_7">
      <!-- 0.0 -->
      <g transform="translate(20.584375 290.114531) scale(0.1 -0.1)">
       <use xlink:href="#ArialMT-30"/>
       <use xlink:href="#ArialMT-2e" x="55.615234"/>
       <use xlink:href="#ArialMT-30" x="83.398438"/>
      </g>
     </g>
    </g>
    <g id="ytick_2">
     <g id="line2d_13">
      <path d="M 41.484375 234.423692 
L 432.084375 234.423692 
" clip-path="url(#p66d72a750b)" style="fill: none; stroke: #b0b0b0; stroke-opacity: 0.2; stroke-width: 0.8; stroke-linecap: square"/>
     </g>
     <g id="line2d_14">
      <g>
       <use xlink:href="#m4f997e8458" x="41.484375" y="234.423692" style="stroke: #000000; stroke-width: 0.8"/>
      </g>
     </g>
     <g id="text_8">
      <!-- 0.2 -->
      <g transform="translate(20.584375 238.002598) scale(0.1 -0.1)">
       <defs>
        <path id="ArialMT-32" d="M 3222 541 
L 3222 0 
L 194 0 
Q 188 203 259 391 
Q 375 700 629 1000 
Q 884 1300 1366 1694 
Q 2113 2306 2375 2664 
Q 2638 3022 2638 3341 
Q 2638 3675 2398 3904 
Q 2159 4134 1775 4134 
Q 1369 4134 1125 3890 
Q 881 3647 878 3216 
L 300 3275 
Q 359 3922 746 4261 
Q 1134 4600 1788 4600 
Q 2447 4600 2831 4234 
Q 3216 3869 3216 3328 
Q 3216 3053 3103 2787 
Q 2991 2522 2730 2228 
Q 2469 1934 1863 1422 
Q 1356 997 1212 845 
Q 1069 694 975 541 
L 3222 541 
z
" transform="scale(0.015625)"/>
       </defs>
       <use xlink:href="#ArialMT-30"/>
       <use xlink:href="#ArialMT-2e" x="55.615234"/>
       <use xlink:href="#ArialMT-32" x="83.398438"/>
      </g>
     </g>
    </g>
    <g id="ytick_3">
     <g id="line2d_15">
      <path d="M 41.484375 182.311759 
L 432.084375 182.311759 
" clip-path="url(#p66d72a750b)" style="fill: none; stroke: #b0b0b0; stroke-opacity: 0.2; stroke-width: 0.8; stroke-linecap: square"/>
     </g>
     <g id="line2d_16">
      <g>
       <use xlink:href="#m4f997e8458" x="41.484375" y="182.311759" style="stroke: #000000; stroke-width: 0.8"/>
      </g>
     </g>
     <g id="text_9">
      <!-- 0.4 -->
      <g transform="translate(20.584375 185.890665) scale(0.1 -0.1)">
       <defs>
        <path id="ArialMT-34" d="M 2069 0 
L 2069 1097 
L 81 1097 
L 81 1613 
L 2172 4581 
L 2631 4581 
L 2631 1613 
L 3250 1613 
L 3250 1097 
L 2631 1097 
L 2631 0 
L 2069 0 
z
M 2069 1613 
L 2069 3678 
L 634 1613 
L 2069 1613 
z
" transform="scale(0.015625)"/>
       </defs>
       <use xlink:href="#ArialMT-30"/>
       <use xlink:href="#ArialMT-2e" x="55.615234"/>
       <use xlink:href="#ArialMT-34" x="83.398438"/>
      </g>
     </g>
    </g>
    <g id="ytick_4">
     <g id="line2d_17">
      <path d="M 41.484375 130.199825 
L 432.084375 130.199825 
" clip-path="url(#p66d72a750b)" style="fill: none; stroke: #b0b0b0; stroke-opacity: 0.2; stroke-width: 0.8; stroke-linecap: square"/>
     </g>
     <g id="line2d_18">
      <g>
       <use xlink:href="#m4f997e8458" x="41.484375" y="130.199825" style="stroke: #000000; stroke-width: 0.8"/>
      </g>
     </g>
     <g id="text_10">
      <!-- 0.6 -->
      <g transform="translate(20.584375 133.778732) scale(0.1 -0.1)">
       <defs>
        <path id="ArialMT-36" d="M 3184 3459 
L 2625 3416 
Q 2550 3747 2413 3897 
Q 2184 4138 1850 4138 
Q 1581 4138 1378 3988 
Q 1113 3794 959 3422 
Q 806 3050 800 2363 
Q 1003 2672 1297 2822 
Q 1591 2972 1913 2972 
Q 2475 2972 2870 2558 
Q 3266 2144 3266 1488 
Q 3266 1056 3080 686 
Q 2894 316 2569 119 
Q 2244 -78 1831 -78 
Q 1128 -78 684 439 
Q 241 956 241 2144 
Q 241 3472 731 4075 
Q 1159 4600 1884 4600 
Q 2425 4600 2770 4297 
Q 3116 3994 3184 3459 
z
M 888 1484 
Q 888 1194 1011 928 
Q 1134 663 1356 523 
Q 1578 384 1822 384 
Q 2178 384 2434 671 
Q 2691 959 2691 1453 
Q 2691 1928 2437 2201 
Q 2184 2475 1800 2475 
Q 1419 2475 1153 2201 
Q 888 1928 888 1484 
z
" transform="scale(0.015625)"/>
       </defs>
       <use xlink:href="#ArialMT-30"/>
       <use xlink:href="#ArialMT-2e" x="55.615234"/>
       <use xlink:href="#ArialMT-36" x="83.398438"/>
      </g>
     </g>
    </g>
    <g id="ytick_5">
     <g id="line2d_19">
      <path d="M 41.484375 78.087892 
L 432.084375 78.087892 
" clip-path="url(#p66d72a750b)" style="fill: none; stroke: #b0b0b0; stroke-opacity: 0.2; stroke-width: 0.8; stroke-linecap: square"/>
     </g>
     <g id="line2d_20">
      <g>
       <use xlink:href="#m4f997e8458" x="41.484375" y="78.087892" style="stroke: #000000; stroke-width: 0.8"/>
      </g>
     </g>
     <g id="text_11">
      <!-- 0.8 -->
      <g transform="translate(20.584375 81.666798) scale(0.1 -0.1)">
       <defs>
        <path id="ArialMT-38" d="M 1131 2484 
Q 781 2613 612 2850 
Q 444 3088 444 3419 
Q 444 3919 803 4259 
Q 1163 4600 1759 4600 
Q 2359 4600 2725 4251 
Q 3091 3903 3091 3403 
Q 3091 3084 2923 2848 
Q 2756 2613 2416 2484 
Q 2838 2347 3058 2040 
Q 3278 1734 3278 1309 
Q 3278 722 2862 322 
Q 2447 -78 1769 -78 
Q 1091 -78 675 323 
Q 259 725 259 1325 
Q 259 1772 486 2073 
Q 713 2375 1131 2484 
z
M 1019 3438 
Q 1019 3113 1228 2906 
Q 1438 2700 1772 2700 
Q 2097 2700 2305 2904 
Q 2513 3109 2513 3406 
Q 2513 3716 2298 3927 
Q 2084 4138 1766 4138 
Q 1444 4138 1231 3931 
Q 1019 3725 1019 3438 
z
M 838 1322 
Q 838 1081 952 856 
Q 1066 631 1291 507 
Q 1516 384 1775 384 
Q 2178 384 2440 643 
Q 2703 903 2703 1303 
Q 2703 1709 2433 1975 
Q 2163 2241 1756 2241 
Q 1359 2241 1098 1978 
Q 838 1716 838 1322 
z
" transform="scale(0.015625)"/>
       </defs>
       <use xlink:href="#ArialMT-30"/>
       <use xlink:href="#ArialMT-2e" x="55.615234"/>
       <use xlink:href="#ArialMT-38" x="83.398438"/>
      </g>
     </g>
    </g>
    <g id="ytick_6">
     <g id="line2d_21">
      <path d="M 41.484375 25.975959 
L 432.084375 25.975959 
" clip-path="url(#p66d72a750b)" style="fill: none; stroke: #b0b0b0; stroke-opacity: 0.2; stroke-width: 0.8; stroke-linecap: square"/>
     </g>
     <g id="line2d_22">
      <g>
       <use xlink:href="#m4f997e8458" x="41.484375" y="25.975959" style="stroke: #000000; stroke-width: 0.8"/>
      </g>
     </g>
     <g id="text_12">
      <!-- 1.0 -->
      <g transform="translate(20.584375 29.554865) scale(0.1 -0.1)">
       <use xlink:href="#ArialMT-31"/>
       <use xlink:href="#ArialMT-2e" x="55.615234"/>
       <use xlink:href="#ArialMT-30" x="83.398438"/>
      </g>
     </g>
    </g>
    <g id="text_13">
     <!-- |Electric field| [V/cm] -->
     <g transform="translate(14.479688 205.642656) rotate(-90) scale(0.1 -0.1)">
      <defs>
       <path id="ArialMT-7c" d="M 588 -1347 
L 588 4659 
L 1078 4659 
L 1078 -1347 
L 588 -1347 
z
" transform="scale(0.015625)"/>
       <path id="ArialMT-45" d="M 506 0 
L 506 4581 
L 3819 4581 
L 3819 4041 
L 1113 4041 
L 1113 2638 
L 3647 2638 
L 3647 2100 
L 1113 2100 
L 1113 541 
L 3925 541 
L 3925 0 
L 506 0 
z
" transform="scale(0.015625)"/>
       <path id="ArialMT-6c" d="M 409 0 
L 409 4581 
L 972 4581 
L 972 0 
L 409 0 
z
" transform="scale(0.015625)"/>
       <path id="ArialMT-65" d="M 2694 1069 
L 3275 997 
Q 3138 488 2766 206 
Q 2394 -75 1816 -75 
Q 1088 -75 661 373 
Q 234 822 234 1631 
Q 234 2469 665 2931 
Q 1097 3394 1784 3394 
Q 2450 3394 2872 2941 
Q 3294 2488 3294 1666 
Q 3294 1616 3291 1516 
L 816 1516 
Q 847 969 1125 678 
Q 1403 388 1819 388 
Q 2128 388 2347 550 
Q 2566 713 2694 1069 
z
M 847 1978 
L 2700 1978 
Q 2663 2397 2488 2606 
Q 2219 2931 1791 2931 
Q 1403 2931 1139 2672 
Q 875 2413 847 1978 
z
" transform="scale(0.015625)"/>
       <path id="ArialMT-63" d="M 2588 1216 
L 3141 1144 
Q 3050 572 2676 248 
Q 2303 -75 1759 -75 
Q 1078 -75 664 370 
Q 250 816 250 1647 
Q 250 2184 428 2587 
Q 606 2991 970 3192 
Q 1334 3394 1763 3394 
Q 2303 3394 2647 3120 
Q 2991 2847 3088 2344 
L 2541 2259 
Q 2463 2594 2264 2762 
Q 2066 2931 1784 2931 
Q 1359 2931 1093 2626 
Q 828 2322 828 1663 
Q 828 994 1084 691 
Q 1341 388 1753 388 
Q 2084 388 2306 591 
Q 2528 794 2588 1216 
z
" transform="scale(0.015625)"/>
       <path id="ArialMT-74" d="M 1650 503 
L 1731 6 
Q 1494 -44 1306 -44 
Q 1000 -44 831 53 
Q 663 150 594 308 
Q 525 466 525 972 
L 525 2881 
L 113 2881 
L 113 3319 
L 525 3319 
L 525 4141 
L 1084 4478 
L 1084 3319 
L 1650 3319 
L 1650 2881 
L 1084 2881 
L 1084 941 
Q 1084 700 1114 631 
Q 1144 563 1211 522 
Q 1278 481 1403 481 
Q 1497 481 1650 503 
z
" transform="scale(0.015625)"/>
       <path id="ArialMT-72" d="M 416 0 
L 416 3319 
L 922 3319 
L 922 2816 
Q 1116 3169 1280 3281 
Q 1444 3394 1641 3394 
Q 1925 3394 2219 3213 
L 2025 2691 
Q 1819 2813 1613 2813 
Q 1428 2813 1281 2702 
Q 1134 2591 1072 2394 
Q 978 2094 978 1738 
L 978 0 
L 416 0 
z
" transform="scale(0.015625)"/>
       <path id="ArialMT-69" d="M 425 3934 
L 425 4581 
L 988 4581 
L 988 3934 
L 425 3934 
z
M 425 0 
L 425 3319 
L 988 3319 
L 988 0 
L 425 0 
z
" transform="scale(0.015625)"/>
       <path id="ArialMT-66" d="M 556 0 
L 556 2881 
L 59 2881 
L 59 3319 
L 556 3319 
L 556 3672 
Q 556 4006 616 4169 
Q 697 4388 901 4523 
Q 1106 4659 1475 4659 
Q 1713 4659 2000 4603 
L 1916 4113 
Q 1741 4144 1584 4144 
Q 1328 4144 1222 4034 
Q 1116 3925 1116 3625 
L 1116 3319 
L 1763 3319 
L 1763 2881 
L 1116 2881 
L 1116 0 
L 556 0 
z
" transform="scale(0.015625)"/>
       <path id="ArialMT-64" d="M 2575 0 
L 2575 419 
Q 2259 -75 1647 -75 
Q 1250 -75 917 144 
Q 584 363 401 755 
Q 219 1147 219 1656 
Q 219 2153 384 2558 
Q 550 2963 881 3178 
Q 1213 3394 1622 3394 
Q 1922 3394 2156 3267 
Q 2391 3141 2538 2938 
L 2538 4581 
L 3097 4581 
L 3097 0 
L 2575 0 
z
M 797 1656 
Q 797 1019 1065 703 
Q 1334 388 1700 388 
Q 2069 388 2326 689 
Q 2584 991 2584 1609 
Q 2584 2291 2321 2609 
Q 2059 2928 1675 2928 
Q 1300 2928 1048 2622 
Q 797 2316 797 1656 
z
" transform="scale(0.015625)"/>
       <path id="ArialMT-56" d="M 1803 0 
L 28 4581 
L 684 4581 
L 1875 1253 
Q 2019 853 2116 503 
Q 2222 878 2363 1253 
L 3600 4581 
L 4219 4581 
L 2425 0 
L 1803 0 
z
" transform="scale(0.015625)"/>
       <path id="ArialMT-2f" d="M 0 -78 
L 1328 4659 
L 1778 4659 
L 453 -78 
L 0 -78 
z
" transform="scale(0.015625)"/>
      </defs>
      <use xlink:href="#ArialMT-7c"/>
      <use xlink:href="#ArialMT-45" x="25.976562"/>
      <use xlink:href="#ArialMT-6c" x="92.675781"/>
      <use xlink:href="#ArialMT-65" x="114.892578"/>
      <use xlink:href="#ArialMT-63" x="170.507812"/>
      <use xlink:href="#ArialMT-74" x="220.507812"/>
      <use xlink:href="#ArialMT-72" x="248.291016"/>
      <use xlink:href="#ArialMT-69" x="281.591797"/>
      <use xlink:href="#ArialMT-63" x="303.808594"/>
      <use xlink:href="#ArialMT-20" x="353.808594"/>
      <use xlink:href="#ArialMT-66" x="381.591797"/>
      <use xlink:href="#ArialMT-69" x="409.375"/>
      <use xlink:href="#ArialMT-65" x="431.591797"/>
      <use xlink:href="#ArialMT-6c" x="487.207031"/>
      <use xlink:href="#ArialMT-64" x="509.423828"/>
      <use xlink:href="#ArialMT-7c" x="565.039062"/>
      <use xlink:href="#ArialMT-20" x="591.015625"/>
      <use xlink:href="#ArialMT-5b" x="618.798828"/>
      <use xlink:href="#ArialMT-56" x="646.582031"/>
      <use xlink:href="#ArialMT-2f" x="713.28125"/>
      <use xlink:href="#ArialMT-63" x="741.064453"/>
      <use xlink:href="#ArialMT-6d" x="791.064453"/>
      <use xlink:href="#ArialMT-5d" x="874.365234"/>
     </g>
    </g>
    <g id="text_14">
     <!-- 1e6 -->
     <g transform="translate(41.484375 18.935625) scale(0.1 -0.1)">
      <use xlink:href="#ArialMT-31"/>
      <use xlink:href="#ArialMT-65" x="55.615234"/>
      <use xlink:href="#ArialMT-36" x="111.230469"/>
     </g>
    </g>
   </g>
   <g id="line2d_23">
    <path d="M 59.23892 270.406805 
L 70.335505 270.347613 
L 70.335505 270.347613 
L 81.43209 270.695717 
L 81.43209 270.695717 
L 92.528691 272.055429 
L 92.528691 272.055429 
L 98.076984 273.733653 
L 98.076984 273.733653 
L 103.625276 276.472307 
L 103.625276 276.472307 
L 106.39943 277.704956 
L 106.39943 277.704956 
L 109.173576 279.541053 
L 109.173576 279.541053 
L 111.947723 281.626695 
L 111.947723 281.626695 
L 114.721869 283.372959 
L 114.721869 283.372959 
L 117.496015 283.725114 
L 117.496015 283.725114 
L 118.883092 283.156302 
L 118.883092 283.156302 
L 120.270169 281.582493 
L 120.270169 281.582493 
L 121.657238 279.279202 
L 121.657238 279.279202 
L 122.350777 277.299879 
L 122.350777 277.299879 
L 123.044316 271.598276 
L 123.044316 271.598276 
L 123.737854 259.000346 
L 123.737854 259.000346 
L 123.941242 252.826321 
L 123.941242 252.826321 
L 124.111296 252.581441 
L 124.111296 252.581441 
L 124.431385 110.97593 
L 124.884301 108.990485 
L 125.086444 75.94132 
L 125.124923 37.140929 
L 125.247111 37.182239 
L 125.818462 35.9046 
L 125.940649 35.925577 
L 126.512 35.281301 
L 126.634188 35.326462 
L 127.205539 35.12617 
L 127.327727 35.255064 
L 127.899069 35.565048 
L 129.286147 38.186609 
L 130.795411 42.490006 
L 132.18248 46.718672 
L 133.896533 50.496408 
L 134.202002 50.77194 
L 135.527978 51.127339 
L 136.449936 248.64028 
L 136.675727 248.725311 
L 137.1621 286.535452 
L 137.1621 286.535452 
L 145.091658 286.535486 
L 145.091658 286.535486 
L 145.33202 273.230823 
L 145.454216 274.686152 
L 146.624571 147.688427 
L 146.746766 149.037015 
L 148.133843 166.608584 
L 150.90799 196.027241 
L 153.55994 214.730046 
L 154.314572 217.461361 
L 156.334086 228.207796 
L 157.843351 232.163278 
L 159.108233 236.541781 
L 161.882387 243.464157 
L 164.656533 248.767234 
L 167.430679 252.943835 
L 170.204825 256.319653 
L 172.978976 259.081651 
L 175.753122 261.364817 
L 178.527272 263.268006 
L 182.810683 265.594424 
L 184.075565 266.219457 
L 188.35898 267.866223 
L 191.13313 268.731839 
L 195.172158 269.806195 
L 197.946304 270.423347 
L 203.4946 271.472143 
L 214.591193 272.26904 
L 220.139488 272.297286 
L 223.127032 286.535625 
L 223.127032 286.535625 
L 250.441718 286.535625 
L 250.441718 286.535625 
L 253.429262 272.609241 
L 264.525853 271.909501 
L 270.07415 271.334604 
L 275.622446 270.413638 
L 281.170739 269.139738 
L 283.312448 268.319775 
L 286.719035 267.514042 
L 288.228304 266.891164 
L 295.041478 263.304635 
L 297.815628 261.384493 
L 300.589774 259.084575 
L 303.363925 256.308069 
L 306.138071 252.925053 
L 308.912217 248.760412 
L 311.686363 243.467826 
L 314.460517 236.678923 
L 315.969782 232.619093 
L 317.234664 228.278226 
L 317.989296 223.624849 
L 320.00881 215.414186 
L 320.763442 209.567731 
L 322.905152 195.563067 
L 325.679298 161.472226 
L 326.944179 144.008876 
L 328.114534 274.444828 
L 328.23673 272.78901 
L 328.561508 286.535485 
L 336.40665 286.535451 
L 336.40665 286.535451 
L 336.893023 248.769212 
L 337.118814 248.676756 
L 338.040772 51.131597 
L 338.101866 51.162353 
L 339.488935 50.751323 
L 339.672217 50.473024 
L 340.937106 47.889169 
L 344.404791 37.897225 
L 345.09833 36.385277 
L 345.791868 35.385509 
L 346.485399 34.981318 
L 347.178937 35.10829 
L 347.872476 35.630206 
L 348.443827 36.794846 
L 348.482306 75.610635 
L 348.684449 108.725367 
L 349.137365 110.523519 
L 349.457454 252.55967 
L 349.457454 252.55967 
L 349.627508 252.783665 
L 349.830896 257.920974 
L 349.830896 257.920974 
L 350.524434 271.041831 
L 350.524434 271.041831 
L 351.217973 276.982683 
L 351.217973 276.982683 
L 351.911512 279.944474 
L 351.911512 279.944474 
L 353.298581 282.061642 
L 353.298581 282.061642 
L 354.685658 283.561817 
L 354.685658 283.561817 
L 356.072735 284.257838 
L 356.072735 284.257838 
L 358.846881 284.224303 
L 358.846881 284.224303 
L 364.395174 281.03103 
L 364.395174 281.03103 
L 369.943474 276.975647 
L 369.943474 276.975647 
L 375.491766 274.58177 
L 375.491766 274.58177 
L 381.040059 272.748893 
L 381.040059 272.748893 
L 392.13666 271.02371 
L 392.13666 271.02371 
L 403.233245 270.441944 
L 403.233245 270.441944 
L 414.32983 270.263641 
L 414.32983 270.263641 
" clip-path="url(#p66d72a750b)" style="fill: none; stroke: #471365; stroke-width: 1.5; stroke-linecap: square"/>
   </g>
   <g id="line2d_24">
    <path d="M 59.23892 270.409765 
L 70.335505 270.350647 
L 70.335505 270.350647 
L 81.43209 270.699171 
L 81.43209 270.699171 
L 92.528691 272.060707 
L 92.528691 272.060707 
L 98.076984 273.740821 
L 98.076984 273.740821 
L 103.625276 276.484591 
L 103.625276 276.484591 
L 106.39943 277.72081 
L 106.39943 277.72081 
L 109.173576 279.561388 
L 109.173576 279.561388 
L 111.947723 281.649799 
L 111.947723 281.649799 
L 114.721869 283.392452 
L 114.721869 283.392452 
L 117.496015 283.741487 
L 117.496015 283.741487 
L 118.883092 283.177567 
L 118.883092 283.177567 
L 120.270169 281.615613 
L 120.270169 281.615613 
L 121.657238 279.339362 
L 121.657238 279.339362 
L 122.350777 277.386357 
L 123.044316 271.741457 
L 123.044316 271.741457 
L 123.737854 259.222685 
L 123.737854 259.222685 
L 123.941242 253.271666 
L 123.941242 253.271666 
L 124.111296 253.383039 
L 124.111296 253.383039 
L 124.431385 111.279146 
L 124.884301 109.208146 
L 125.086444 75.940509 
L 125.124923 36.932502 
L 125.247111 37.027499 
L 125.818462 35.812495 
L 125.940649 35.835665 
L 126.512 35.201839 
L 126.634188 35.232344 
L 127.205539 35.022617 
L 127.327727 35.148949 
L 127.899069 35.452941 
L 129.286147 38.078894 
L 130.795411 42.391427 
L 132.18248 46.630385 
L 133.896533 50.418252 
L 134.202002 50.695439 
L 135.527978 51.060939 
L 136.449936 248.630114 
L 136.675727 248.717329 
L 137.1621 286.535452 
L 137.1621 286.535452 
L 145.091658 286.535486 
L 145.091658 286.535486 
L 145.33202 273.238954 
L 145.454216 274.694904 
L 146.624571 147.797588 
L 146.746766 149.146374 
L 148.133843 166.717425 
L 150.90799 196.127073 
L 153.55994 214.819978 
L 154.314572 217.549852 
L 156.334086 228.288865 
L 157.843351 232.242436 
L 159.108233 236.617999 
L 161.882387 243.534797 
L 164.656533 248.832383 
L 167.430679 253.003422 
L 170.204825 256.373435 
L 172.978976 259.129321 
L 175.753122 261.406057 
L 178.527272 263.302528 
L 182.810683 265.617984 
L 184.075565 266.239948 
L 188.35898 267.875758 
L 191.13313 268.734621 
L 195.172158 269.799552 
L 197.946304 270.409545 
L 203.4946 271.448348 
L 214.591193 272.232605 
L 220.139488 272.258986 
L 223.127032 286.535625 
L 223.127032 286.535625 
L 250.441718 286.535625 
L 250.441718 286.535625 
L 253.429262 272.569308 
L 264.525853 271.87852 
L 270.07415 271.311545 
L 275.622446 270.400831 
L 281.170739 269.137083 
L 283.312448 268.324413 
L 286.719035 267.526775 
L 288.228304 266.907888 
L 295.041478 263.339321 
L 297.815628 261.425968 
L 300.589774 259.132548 
L 303.363925 256.362208 
L 306.138071 252.985024 
L 308.912217 248.825931 
L 311.686363 243.538792 
L 314.460517 236.755298 
L 315.969782 232.697503 
L 317.234664 228.35955 
L 317.989296 223.709074 
L 320.00881 215.503762 
L 320.763442 209.660334 
L 322.905152 195.662567 
L 325.679298 161.582194 
L 326.944179 144.11933 
L 328.114534 274.453623 
L 328.23673 272.797078 
L 328.561508 286.535485 
L 336.40665 286.535451 
L 336.40665 286.535451 
L 336.893023 248.761255 
L 337.118814 248.66674 
L 338.040772 51.066561 
L 338.101866 51.096705 
L 339.488935 50.675662 
L 339.672217 50.396384 
L 340.937106 47.804669 
L 344.404791 37.789342 
L 345.09833 36.274408 
L 345.791868 35.279526 
L 346.485399 34.894926 
L 347.178937 35.030932 
L 347.750288 35.554071 
L 347.872476 35.47734 
L 348.443827 36.597146 
L 348.482306 75.610991 
L 348.684449 108.943803 
L 349.137365 110.810986 
L 349.457454 253.361047 
L 349.457454 253.361047 
L 349.627508 253.24208 
L 349.627508 253.24208 
L 349.830896 258.139631 
L 349.830896 258.139631 
L 350.524434 271.186978 
L 350.524434 271.186978 
L 351.217973 277.072773 
L 351.217973 277.072773 
L 351.911512 279.996825 
L 351.911512 279.996825 
L 353.298581 282.090941 
L 353.298581 282.090941 
L 354.685658 283.580288 
L 354.685658 283.580288 
L 356.072735 284.270921 
L 356.072735 284.270921 
L 358.846881 284.240691 
L 358.846881 284.240691 
L 364.395174 281.054473 
L 364.395174 281.054473 
L 369.943474 276.989675 
L 369.943474 276.989675 
L 375.491766 274.589414 
L 375.491766 274.589414 
L 381.040059 272.754202 
L 381.040059 272.754202 
L 392.13666 271.027167 
L 392.13666 271.027167 
L 403.233245 270.444819 
L 403.233245 270.444819 
L 414.32983 270.266387 
L 414.32983 270.266387 
" clip-path="url(#p66d72a750b)" style="fill: none; stroke: #424186; stroke-width: 1.5; stroke-linecap: square"/>
   </g>
   <g id="line2d_25">
    <path d="M 59.23892 270.415939 
L 70.335505 270.356912 
L 70.335505 270.356912 
L 81.43209 270.705944 
L 81.43209 270.705944 
L 92.528691 272.069728 
L 92.528691 272.069728 
L 98.076984 273.752057 
L 98.076984 273.752057 
L 103.625276 276.500883 
L 103.625276 276.500883 
L 106.39943 277.740313 
L 106.39943 277.740313 
L 109.173576 279.584765 
L 109.173576 279.584765 
L 111.947723 281.675022 
L 111.947723 281.675022 
L 114.721869 283.410832 
L 114.721869 283.410832 
L 117.496015 283.74499 
L 117.496015 283.74499 
L 118.883092 283.17702 
L 118.883092 283.17702 
L 120.270169 281.613254 
L 120.270169 281.613254 
L 121.657238 279.338396 
L 121.657238 279.338396 
L 122.350777 277.382607 
L 122.350777 277.382607 
L 123.044316 271.714958 
L 123.044316 271.714958 
L 123.737854 259.079043 
L 123.737854 259.079043 
L 123.941242 253.077897 
L 123.941242 253.077897 
L 124.111296 253.381275 
L 124.111296 253.381275 
L 124.431385 111.245118 
L 124.884301 109.123744 
L 125.086444 75.895993 
L 125.124923 36.844965 
L 125.247111 36.968485 
L 125.818462 35.78575 
L 125.940649 35.810642 
L 126.634188 35.208168 
L 127.205539 34.994984 
L 127.327727 35.120183 
L 127.899069 35.421927 
L 129.286147 38.051014 
L 130.795411 42.368395 
L 132.18248 46.613152 
L 133.896533 50.406966 
L 134.202002 50.685195 
L 135.527978 51.057192 
L 136.449936 248.629855 
L 136.675727 248.718441 
L 137.1621 286.535452 
L 137.1621 286.535452 
L 145.091658 286.535486 
L 145.091658 286.535486 
L 145.33202 273.245759 
L 145.454216 274.701799 
L 146.624571 147.881745 
L 146.746766 149.230396 
L 148.133843 166.797841 
L 150.90799 196.197 
L 153.55994 214.881019 
L 154.314572 217.6095 
L 156.334086 228.342544 
L 157.843351 232.294322 
L 159.108233 236.667486 
L 161.882387 243.579797 
L 164.656533 248.873214 
L 167.430679 253.040227 
L 170.204825 256.406208 
L 172.978976 259.157994 
L 175.753122 261.430539 
L 178.527272 263.322734 
L 182.810683 265.631387 
L 184.075565 266.251458 
L 188.35898 267.880641 
L 191.13313 268.735462 
L 195.172158 269.794792 
L 197.946304 270.400598 
L 203.4946 271.433524 
L 214.591193 272.210474 
L 220.139488 272.235787 
L 223.127032 286.535625 
L 223.127032 286.535625 
L 250.441718 286.535625 
L 250.441718 286.535625 
L 253.429262 272.545128 
L 264.525853 271.859522 
L 270.07415 271.297143 
L 275.622446 270.392432 
L 281.170739 269.134715 
L 283.312448 268.326362 
L 286.719035 267.533574 
L 288.228304 266.917096 
L 295.041478 263.359632 
L 297.815628 261.450604 
L 300.589774 259.161424 
L 303.363925 256.395226 
L 306.138071 253.022102 
L 308.912217 248.867038 
L 311.686363 243.584051 
L 314.460517 236.804901 
L 315.969782 232.748973 
L 317.234664 228.41338 
L 317.989296 223.765396 
L 320.00881 215.564608 
L 320.763442 209.723944 
L 322.905152 195.732577 
L 325.679298 161.664287 
L 326.944179 144.205005 
L 328.114534 274.460597 
L 328.23673 272.803937 
L 328.561508 286.535485 
L 336.40665 286.535451 
L 336.40665 286.535451 
L 336.893023 248.762407 
L 337.118814 248.666596 
L 338.040772 51.063842 
L 338.101866 51.093586 
L 339.488935 50.6661 
L 339.672217 50.386225 
L 340.937106 47.789822 
L 344.404791 37.761679 
L 345.09833 36.244863 
L 345.791868 35.251827 
L 346.485399 34.875522 
L 347.178937 35.013962 
L 347.750288 35.519195 
L 347.872476 35.418606 
L 348.443827 36.515585 
L 348.482306 75.567023 
L 348.684449 108.85977 
L 349.137365 110.767924 
L 349.457454 253.359191 
L 349.457454 253.359191 
L 349.627508 253.053036 
L 349.627508 253.053036 
L 349.830896 257.967793 
L 349.830896 257.967793 
L 350.524434 271.154983 
L 351.217973 277.068254 
L 351.217973 277.068254 
L 351.911512 279.994469 
L 351.911512 279.994469 
L 353.298581 282.087975 
L 353.298581 282.087975 
L 354.685658 283.579454 
L 354.685658 283.579454 
L 356.072735 284.272702 
L 356.072735 284.272702 
L 358.846881 284.257045 
L 358.846881 284.257045 
L 364.395174 281.081003 
L 364.395174 281.081003 
L 369.943474 277.008231 
L 369.943474 277.008231 
L 375.491766 274.60191 
L 375.491766 274.60191 
L 381.040059 272.763898 
L 381.040059 272.763898 
L 392.13666 271.034245 
L 392.13666 271.034245 
L 403.233245 270.451051 
L 403.233245 270.451051 
L 414.32983 270.272444 
L 414.32983 270.272444 
" clip-path="url(#p66d72a750b)" style="fill: none; stroke: #306a8e; stroke-width: 1.5; stroke-linecap: square"/>
   </g>
   <g id="line2d_26">
    <path d="M 59.23892 270.399303 
L 70.335505 270.267732 
L 70.335505 270.267732 
L 81.43209 270.816022 
L 81.43209 270.816022 
L 92.528691 271.951562 
L 92.528691 271.951562 
L 98.076984 273.663244 
L 98.076984 273.663244 
L 103.625276 276.443343 
L 103.625276 276.443343 
L 106.39943 277.691267 
L 106.39943 277.691267 
L 109.173576 279.548403 
L 111.947723 281.651933 
L 111.947723 281.651933 
L 114.721869 283.398233 
L 114.721869 283.398233 
L 117.496015 283.743726 
L 117.496015 283.743726 
L 118.883092 283.183916 
L 118.883092 283.183916 
L 120.270169 281.628262 
L 120.270169 281.628262 
L 121.657238 279.368208 
L 122.350777 277.426211 
L 122.350777 277.426211 
L 123.044316 271.787314 
L 123.044316 271.787314 
L 123.737854 259.188632 
L 123.737854 259.188632 
L 123.941242 253.293947 
L 123.941242 253.293947 
L 124.111296 253.807556 
L 124.111296 253.807556 
L 124.431385 111.414748 
L 124.884301 109.246321 
L 125.086444 75.917758 
L 125.124923 36.762039 
L 125.247111 36.914309 
L 125.818462 35.764419 
L 125.940649 35.790378 
L 126.634188 35.186276 
L 127.205539 34.968394 
L 127.327727 35.092269 
L 127.899069 35.390915 
L 129.286147 38.021729 
L 130.795411 42.34286 
L 132.18248 46.591957 
L 133.896533 50.390017 
L 134.202002 50.668959 
L 135.527978 51.045355 
L 136.449936 248.628182 
L 136.675727 248.717693 
L 137.1621 286.535453 
L 137.1621 286.535453 
L 145.091658 286.535487 
L 145.091658 286.535487 
L 145.33202 273.249757 
L 145.454216 274.7059 
L 146.624571 147.931904 
L 146.746766 149.280504 
L 148.133843 166.846097 
L 150.90799 196.239251 
L 153.55994 214.917991 
L 154.314572 217.645625 
L 156.334086 228.375061 
L 157.843351 232.325739 
L 159.108233 236.697447 
L 161.882387 243.607003 
L 164.656533 248.897861 
L 167.430679 253.062408 
L 170.204825 256.42593 
L 172.978976 259.175225 
L 175.753122 261.445232 
L 178.527272 263.334843 
L 182.810683 265.639397 
L 184.075565 266.258327 
L 188.35898 267.883525 
L 191.13313 268.735917 
L 195.172158 269.791883 
L 197.946304 270.395178 
L 203.4946 271.424579 
L 214.591193 272.197153 
L 220.139488 272.221828 
L 223.127032 286.535625 
L 223.127032 286.535625 
L 250.441718 286.535625 
L 250.441718 286.535625 
L 253.429262 272.530597 
L 264.525853 271.848091 
L 270.07415 271.288463 
L 275.622446 270.387348 
L 281.170739 269.13325 
L 283.312448 268.327486 
L 286.719035 267.537608 
L 288.228304 266.922577 
L 295.041478 263.371792 
L 297.815628 261.465374 
L 300.589774 259.178758 
L 303.363925 256.415073 
L 306.138071 253.044421 
L 308.912217 248.891821 
L 311.686363 243.61138 
L 314.460517 236.834892 
L 315.969782 232.780101 
L 317.234664 228.445937 
L 317.989296 223.799461 
L 320.00881 215.601397 
L 320.763442 209.76238 
L 322.905152 195.774783 
L 325.679298 161.713347 
L 326.944179 144.255879 
L 328.114534 274.464726 
L 328.23673 272.80794 
L 328.561508 286.535486 
L 336.40665 286.535452 
L 336.40665 286.535452 
L 336.893023 248.761645 
L 337.118814 248.664963 
L 338.040772 51.052447 
L 338.101866 51.081924 
L 339.488935 50.650084 
L 339.672217 50.36979 
L 340.937106 47.770073 
L 344.404791 37.732131 
L 345.09833 36.214083 
L 345.791868 35.223707 
L 346.485399 34.857271 
L 347.178937 35.000307 
L 347.750288 35.489108 
L 347.872476 35.364369 
L 348.443827 36.437959 
L 348.482306 75.58896 
L 348.684449 108.982398 
L 349.137365 110.928629 
L 349.457454 253.785417 
L 349.457454 253.785417 
L 349.627508 253.274167 
L 349.627508 253.274167 
L 349.830896 258.07318 
L 349.830896 258.07318 
L 350.524434 271.228409 
L 351.217973 277.114115 
L 351.217973 277.114115 
L 351.911512 280.020997 
L 351.911512 280.020997 
L 353.298581 282.10232 
L 353.298581 282.10232 
L 354.685658 283.58747 
L 354.685658 283.58747 
L 356.072735 284.276281 
L 356.072735 284.276281 
L 358.846881 284.257595 
L 358.846881 284.257595 
L 364.395174 281.072654 
L 364.395174 281.072654 
L 369.943474 276.98691 
L 369.943474 276.98691 
L 375.491766 274.572271 
L 375.491766 274.572271 
L 381.040059 272.744238 
L 381.040059 272.744238 
L 392.13666 271.085484 
L 392.13666 271.085484 
L 403.233245 270.486678 
L 403.233245 270.486678 
L 414.32983 270.285915 
L 414.32983 270.285915 
" clip-path="url(#p66d72a750b)" style="fill: none; stroke: #228d8d; stroke-width: 1.5; stroke-linecap: square"/>
   </g>
   <g id="line2d_27">
    <path d="M 59.23892 273.02033 
L 70.335505 273.005742 
L 70.335505 273.005742 
L 81.43209 273.259259 
L 81.43209 273.259259 
L 92.528691 273.71228 
L 92.528691 273.71228 
L 98.076984 274.881819 
L 98.076984 274.881819 
L 106.39943 277.826021 
L 106.39943 277.826021 
L 109.173576 279.290225 
L 109.173576 279.290225 
L 111.947723 280.915178 
L 111.947723 280.915178 
L 114.721869 282.152741 
L 114.721869 282.152741 
L 117.496015 282.346894 
L 117.496015 282.346894 
L 118.883092 281.984783 
L 118.883092 281.984783 
L 120.270169 280.597061 
L 120.270169 280.597061 
L 121.657238 278.454332 
L 121.657238 278.454332 
L 122.350777 276.543942 
L 122.350777 276.543942 
L 123.044316 270.9707 
L 123.044316 270.9707 
L 123.737854 258.545847 
L 123.737854 258.545847 
L 123.941242 252.389791 
L 123.941242 252.389791 
L 124.111296 252.126955 
L 124.111296 252.126955 
L 124.431385 110.600389 
L 124.884301 108.618678 
L 125.086444 75.552081 
L 125.124923 36.778074 
L 125.247111 36.814847 
L 125.818462 35.529015 
L 125.940649 35.548726 
L 126.512 34.899748 
L 126.634188 34.945231 
L 127.205539 34.743399 
L 127.327727 34.872432 
L 127.899069 35.18206 
L 129.286147 37.805094 
L 130.795411 42.112725 
L 132.18248 46.345345 
L 133.896533 50.126166 
L 134.202002 50.401688 
L 135.527978 50.754839 
L 136.449936 248.580157 
L 136.675727 248.664828 
L 137.1621 286.535452 
L 137.1621 286.535452 
L 145.091658 286.535486 
L 145.091658 286.535486 
L 145.33202 273.208147 
L 145.454216 274.665911 
L 146.624571 147.45267 
L 146.746766 148.803566 
L 148.133843 166.406178 
L 150.90799 195.876335 
L 153.55994 214.611009 
L 154.314572 217.347519 
L 156.334086 228.111339 
L 157.843351 232.073157 
L 159.108233 236.458715 
L 161.882387 243.393437 
L 164.656533 248.706575 
L 167.430679 252.891864 
L 170.204825 256.27553 
L 172.978976 259.044806 
L 175.753122 261.334841 
L 178.527272 263.244579 
L 182.810683 265.580651 
L 184.075565 266.208322 
L 188.35898 267.86376 
L 191.13313 268.734501 
L 195.172158 269.81581 
L 197.946304 270.437857 
L 203.4946 271.493754 
L 214.591193 272.299 
L 220.139488 272.328447 
L 223.127032 286.535625 
L 223.127032 286.535625 
L 250.441718 286.535625 
L 250.441718 286.535625 
L 253.429262 272.64121 
L 264.525853 271.935578 
L 270.07415 271.355436 
L 275.622446 270.427452 
L 281.170739 269.146165 
L 283.312448 268.321019 
L 286.719035 267.509178 
L 288.228304 266.883229 
L 295.041478 263.281359 
L 297.815628 261.354685 
L 300.589774 259.047912 
L 303.363925 256.264149 
L 306.138071 252.873331 
L 308.912217 248.700097 
L 311.686363 243.397599 
L 314.460517 236.597027 
L 315.969782 232.530863 
L 317.234664 228.183251 
L 317.989296 223.522039 
L 320.00881 215.297347 
L 320.763442 209.441065 
L 322.905152 195.412729 
L 325.679298 161.263709 
L 326.944179 143.769937 
L 328.114534 274.424453 
L 328.23673 272.765911 
L 328.561508 286.535485 
L 336.40665 286.535451 
L 336.40665 286.535451 
L 336.893023 248.709665 
L 337.118814 248.617533 
L 338.040772 50.764227 
L 338.101866 50.795187 
L 339.488935 50.386274 
L 339.672217 50.107807 
L 340.937106 47.522113 
L 344.404791 37.520813 
L 345.09833 36.00781 
L 345.791868 35.007372 
L 346.485399 34.603166 
L 347.178937 34.733027 
L 347.872476 35.264622 
L 348.443827 36.435355 
L 348.482306 75.225506 
L 348.684449 108.357211 
L 349.137365 110.151982 
L 349.457454 252.108158 
L 349.457454 252.108158 
L 349.627508 252.351438 
L 349.627508 252.351438 
L 349.830896 257.476279 
L 349.830896 257.476279 
L 350.524434 270.429038 
L 350.524434 270.429038 
L 351.217973 276.240257 
L 351.217973 276.240257 
L 351.911512 279.098198 
L 351.911512 279.098198 
L 353.298581 281.09442 
L 353.298581 281.09442 
L 354.685658 282.457028 
L 356.072735 282.937051 
L 356.072735 282.937051 
L 358.846881 283.100492 
L 358.846881 283.100492 
L 361.621027 282.008392 
L 361.621027 282.008392 
L 364.395174 280.677687 
L 364.395174 280.677687 
L 367.16932 279.099391 
L 367.16932 279.099391 
L 369.943474 277.701278 
L 369.943474 277.701278 
L 375.491766 275.89323 
L 375.491766 275.89323 
L 381.040059 274.539291 
L 381.040059 274.539291 
L 392.13666 273.314047 
L 392.13666 273.314047 
L 403.233245 272.991859 
L 403.233245 272.991859 
L 414.32983 272.891385 
L 414.32983 272.891385 
" clip-path="url(#p66d72a750b)" style="fill: none; stroke: #29af7f; stroke-width: 1.5; stroke-linecap: square"/>
   </g>
   <g id="line2d_28">
    <path d="M 59.23892 273.018658 
L 70.335505 273.004173 
L 70.335505 273.004173 
L 81.43209 273.258223 
L 81.43209 273.258223 
L 92.528691 273.713543 
L 92.528691 273.713543 
L 98.076984 274.884226 
L 98.076984 274.884226 
L 106.39943 277.83678 
L 106.39943 277.83678 
L 109.173576 279.305893 
L 109.173576 279.305893 
L 111.947723 280.935119 
L 111.947723 280.935119 
L 114.721869 282.172772 
L 114.721869 282.172772 
L 117.496015 282.366453 
L 117.496015 282.366453 
L 118.883092 282.008719 
L 118.883092 282.008719 
L 120.270169 280.631379 
L 120.270169 280.631379 
L 121.657238 278.514247 
L 121.657238 278.514247 
L 122.350777 276.629531 
L 122.350777 276.629531 
L 123.044316 271.112313 
L 123.044316 271.112313 
L 123.737854 258.766156 
L 123.737854 258.766156 
L 123.941242 252.855222 
L 123.941242 252.855222 
L 124.111296 252.964904 
L 124.111296 252.964904 
L 124.431385 110.928703 
L 124.884301 108.857312 
L 125.086444 75.568459 
L 125.124923 36.578164 
L 125.247111 36.671795 
L 125.818462 35.453097 
L 125.940649 35.475741 
L 126.512 34.839294 
L 126.634188 34.869701 
L 127.205539 34.658739 
L 127.327727 34.785117 
L 127.899069 35.088737 
L 129.286147 37.716362 
L 130.795411 42.033089 
L 132.18248 46.275989 
L 133.896533 50.066938 
L 134.202002 50.344156 
L 135.527978 50.707756 
L 136.449936 248.573119 
L 136.675727 248.660058 
L 137.1621 286.535452 
L 137.1621 286.535452 
L 145.091658 286.535486 
L 145.091658 286.535486 
L 145.33202 273.218056 
L 145.454216 274.676355 
L 146.624571 147.58218 
L 146.746766 148.933171 
L 148.133843 166.533694 
L 150.90799 195.991675 
L 153.55994 214.714199 
L 154.314572 217.448952 
L 156.334086 228.203989 
L 157.843351 232.163508 
L 159.108233 236.545593 
L 161.882387 243.473833 
L 164.656533 248.78067 
L 167.430679 252.959622 
L 170.204825 256.336705 
L 172.978976 259.099061 
L 175.753122 261.381821 
L 178.527272 263.283958 
L 182.810683 265.607613 
L 184.075565 266.231802 
L 188.35898 267.874793 
L 191.13313 268.737847 
L 195.172158 269.808405 
L 197.946304 270.422261 
L 203.4946 271.466715 
L 214.591193 272.257411 
L 220.139488 272.284702 
L 223.127032 286.535625 
L 223.127032 286.535625 
L 250.441718 286.535625 
L 250.441718 286.535625 
L 253.429262 272.59563 
L 264.525853 271.900302 
L 270.07415 271.32926 
L 275.622446 270.413017 
L 281.170739 269.143308 
L 283.312448 268.326473 
L 286.719035 267.523847 
L 288.228304 266.902425 
L 295.041478 263.320901 
L 297.815628 261.401901 
L 300.589774 259.102471 
L 303.363925 256.325679 
L 306.138071 252.941466 
L 308.912217 248.77454 
L 311.686363 243.478278 
L 314.460517 236.683974 
L 315.969782 232.620245 
L 317.234664 228.276059 
L 317.989296 223.618297 
L 320.00881 215.399974 
L 320.763442 209.547388 
L 322.905152 195.527572 
L 325.679298 161.392619 
L 326.944179 143.900856 
L 328.114534 274.43494 
L 328.23673 272.775763 
L 328.561508 286.535485 
L 336.40665 286.535451 
L 336.40665 286.535451 
L 336.893023 248.704829 
L 337.118814 248.61056 
L 338.040772 50.718016 
L 338.101866 50.748337 
L 339.488935 50.329064 
L 339.672217 50.049604 
L 340.937106 47.456 
L 344.404791 37.431305 
L 345.09833 35.915239 
L 345.791868 34.919854 
L 346.485399 34.535625 
L 347.178937 34.673401 
L 347.750288 35.199424 
L 347.872476 35.1238 
L 348.443827 36.246542 
L 348.482306 75.242826 
L 348.684449 108.596446 
L 349.137365 110.463927 
L 349.457454 252.945915 
L 349.457454 252.945915 
L 349.627508 252.83033 
L 349.627508 252.83033 
L 349.830896 257.694076 
L 349.830896 257.694076 
L 350.524434 270.5727 
L 350.524434 270.5727 
L 351.217973 276.329386 
L 351.217973 276.329386 
L 351.911512 279.150481 
L 351.911512 279.150481 
L 353.298581 281.124864 
L 353.298581 281.124864 
L 354.685658 282.477986 
L 354.685658 282.477986 
L 356.072735 282.953088 
L 356.072735 282.953088 
L 358.846881 283.117368 
L 358.846881 283.117368 
L 361.621027 282.029438 
L 361.621027 282.029438 
L 364.395174 280.695681 
L 364.395174 280.695681 
L 367.16932 279.112366 
L 367.16932 279.112366 
L 369.943474 277.709983 
L 369.943474 277.709983 
L 375.491766 275.895363 
L 375.491766 275.895363 
L 381.040059 274.539824 
L 381.040059 274.539824 
L 392.13666 273.312887 
L 392.13666 273.312887 
L 403.233245 272.990215 
L 403.233245 272.990215 
L 414.32983 272.889578 
L 414.32983 272.889578 
" clip-path="url(#p66d72a750b)" style="fill: none; stroke: #6ccd5a; stroke-width: 1.5; stroke-linecap: square"/>
   </g>
   <g id="line2d_29">
    <path d="M 59.23892 273.020318 
L 70.335505 273.005941 
L 70.335505 273.005941 
L 81.43209 273.260598 
L 81.43209 273.260598 
L 92.528691 273.718593 
L 92.528691 273.718593 
L 98.076984 274.890566 
L 98.076984 274.890566 
L 106.39943 277.850656 
L 106.39943 277.850656 
L 109.173576 279.32364 
L 109.173576 279.32364 
L 111.947723 280.955209 
L 111.947723 280.955209 
L 114.721869 282.188464 
L 114.721869 282.188464 
L 117.496015 282.372136 
L 117.496015 282.372136 
L 118.883092 282.011054 
L 118.883092 282.011054 
L 120.270169 280.63128 
L 120.270169 280.63128 
L 121.657238 278.514927 
L 121.657238 278.514927 
L 122.350777 276.627029 
L 122.350777 276.627029 
L 123.044316 271.086751 
L 123.044316 271.086751 
L 123.737854 258.623406 
L 123.737854 258.623406 
L 123.941242 252.667118 
L 123.941242 252.667118 
L 124.111296 252.973466 
L 124.111296 252.973466 
L 124.431385 110.911794 
L 124.884301 108.788943 
L 125.086444 75.541953 
L 125.124923 36.509063 
L 125.247111 36.63205 
L 125.818462 35.44682 
L 125.940649 35.471386 
L 126.634188 34.866694 
L 127.205539 34.652384 
L 127.327727 34.777598 
L 127.899069 35.078958 
L 129.286147 37.709631 
L 130.795411 42.030964 
L 132.18248 46.27946 
L 133.896533 50.076202 
L 134.202002 50.354471 
L 135.527978 50.724746 
L 136.449936 248.576209 
L 136.675727 248.664559 
L 137.1621 286.535452 
L 137.1621 286.535452 
L 145.091658 286.535486 
L 145.091658 286.535486 
L 145.33202 273.226322 
L 145.454216 274.684591 
L 146.624571 147.682138 
L 146.746766 149.032871 
L 148.133843 166.628063 
L 150.90799 196.072509 
L 153.55994 214.784165 
L 154.314572 217.517214 
L 156.334086 228.265155 
L 157.843351 232.2225 
L 159.108233 236.601735 
L 161.882387 243.524694 
L 164.656533 248.826692 
L 167.430679 253.001013 
L 170.204825 256.373492 
L 172.978976 259.131195 
L 175.753122 261.409219 
L 178.527272 263.30654 
L 182.810683 265.622557 
L 184.075565 266.244622 
L 188.35898 267.880191 
L 191.13313 268.738718 
L 195.172158 269.803004 
L 197.946304 270.412178 
L 203.4946 271.450045 
L 214.591193 272.232548 
L 220.139488 272.258639 
L 223.127032 286.535625 
L 223.127032 286.535625 
L 250.441718 286.535625 
L 250.441718 286.535625 
L 253.429262 272.568492 
L 264.525853 271.878973 
L 270.07415 271.31308 
L 275.622446 270.403554 
L 281.170739 269.140594 
L 283.312448 268.328584 
L 286.719035 267.531388 
L 288.228304 266.91266 
L 295.041478 263.343585 
L 297.815628 261.42945 
L 300.589774 259.134805 
L 303.363925 256.362709 
L 306.138071 252.983124 
L 308.912217 248.820825 
L 311.686363 243.529375 
L 314.460517 236.740165 
L 315.969782 232.678687 
L 317.234664 228.337297 
L 317.989296 223.682517 
L 320.00881 215.469603 
L 320.763442 209.620387 
L 322.905152 195.608429 
L 325.679298 161.489008 
L 326.944179 144.002512 
L 328.114534 274.443259 
L 328.23673 272.784103 
L 328.561508 286.535485 
L 336.40665 286.535451 
L 336.40665 286.535451 
L 336.893023 248.709306 
L 337.118814 248.613705 
L 338.040772 50.735686 
L 338.101866 50.76559 
L 339.488935 50.339702 
L 339.672217 50.059649 
L 340.937106 47.461435 
L 344.404791 37.424413 
L 345.09833 35.906526 
L 345.791868 34.913081 
L 346.485399 34.537252 
L 347.178937 34.677131 
L 347.750288 35.184385 
L 347.872476 35.084219 
L 348.443827 36.183285 
L 348.482306 75.216609 
L 348.684449 108.528237 
L 349.137365 110.43767 
L 349.457454 252.954344 
L 349.457454 252.954344 
L 349.627508 252.646842 
L 349.627508 252.646842 
L 349.830896 257.523389 
L 349.830896 257.523389 
L 350.524434 270.541591 
L 350.524434 270.541591 
L 351.217973 276.325994 
L 351.217973 276.325994 
L 351.911512 279.149654 
L 351.911512 279.149654 
L 353.298581 281.123816 
L 353.298581 281.123816 
L 354.685658 282.479519 
L 354.685658 282.479519 
L 356.072735 282.956661 
L 356.072735 282.956661 
L 358.846881 283.130394 
L 358.846881 283.130394 
L 361.621027 282.05097 
L 361.621027 282.05097 
L 364.395174 280.715654 
L 364.395174 280.715654 
L 367.16932 279.128575 
L 367.16932 279.128575 
L 369.943474 277.722636 
L 369.943474 277.722636 
L 375.491766 275.901884 
L 375.491766 275.901884 
L 381.040059 274.544392 
L 381.040059 274.544392 
L 392.13666 273.315294 
L 392.13666 273.315294 
L 403.233245 272.991989 
L 403.233245 272.991989 
L 414.32983 272.891167 
L 414.32983 272.891167 
" clip-path="url(#p66d72a750b)" style="fill: none; stroke: #cae11f; stroke-width: 1.5; stroke-linecap: square"/>
   </g>
   <g id="patch_3">
    <path d="M 41.484375 299.135625 
L 41.484375 21.935625 
" style="fill: none; stroke: #000000; stroke-width: 0.8; stroke-linejoin: miter; stroke-linecap: square"/>
   </g>
   <g id="patch_4">
    <path d="M 432.084375 299.135625 
L 432.084375 21.935625 
" style="fill: none; stroke: #000000; stroke-width: 0.8; stroke-linejoin: miter; stroke-linecap: square"/>
   </g>
   <g id="patch_5">
    <path d="M 41.484375 299.135625 
L 432.084375 299.135625 
" style="fill: none; stroke: #000000; stroke-width: 0.8; stroke-linejoin: miter; stroke-linecap: square"/>
   </g>
   <g id="patch_6">
    <path d="M 41.484375 21.935625 
L 432.084375 21.935625 
" style="fill: none; stroke: #000000; stroke-width: 0.8; stroke-linejoin: miter; stroke-linecap: square"/>
   </g>
   <g id="text_15">
    <!-- S device transfer-end field, fixed Y=-6.0 um (not BV) -->
    <g transform="translate(97.997813 15.935625) scale(0.12 -0.12)">
     <defs>
      <path id="ArialMT-53" d="M 288 1472 
L 859 1522 
Q 900 1178 1048 958 
Q 1197 738 1509 602 
Q 1822 466 2213 466 
Q 2559 466 2825 569 
Q 3091 672 3220 851 
Q 3350 1031 3350 1244 
Q 3350 1459 3225 1620 
Q 3100 1781 2813 1891 
Q 2628 1963 1997 2114 
Q 1366 2266 1113 2400 
Q 784 2572 623 2826 
Q 463 3081 463 3397 
Q 463 3744 659 4045 
Q 856 4347 1234 4503 
Q 1613 4659 2075 4659 
Q 2584 4659 2973 4495 
Q 3363 4331 3572 4012 
Q 3781 3694 3797 3291 
L 3216 3247 
Q 3169 3681 2898 3903 
Q 2628 4125 2100 4125 
Q 1550 4125 1298 3923 
Q 1047 3722 1047 3438 
Q 1047 3191 1225 3031 
Q 1400 2872 2139 2705 
Q 2878 2538 3153 2413 
Q 3553 2228 3743 1945 
Q 3934 1663 3934 1294 
Q 3934 928 3725 604 
Q 3516 281 3123 101 
Q 2731 -78 2241 -78 
Q 1619 -78 1198 103 
Q 778 284 539 648 
Q 300 1013 288 1472 
z
" transform="scale(0.015625)"/>
      <path id="ArialMT-76" d="M 1344 0 
L 81 3319 
L 675 3319 
L 1388 1331 
Q 1503 1009 1600 663 
Q 1675 925 1809 1294 
L 2547 3319 
L 3125 3319 
L 1869 0 
L 1344 0 
z
" transform="scale(0.015625)"/>
      <path id="ArialMT-61" d="M 2588 409 
Q 2275 144 1986 34 
Q 1697 -75 1366 -75 
Q 819 -75 525 192 
Q 231 459 231 875 
Q 231 1119 342 1320 
Q 453 1522 633 1644 
Q 813 1766 1038 1828 
Q 1203 1872 1538 1913 
Q 2219 1994 2541 2106 
Q 2544 2222 2544 2253 
Q 2544 2597 2384 2738 
Q 2169 2928 1744 2928 
Q 1347 2928 1158 2789 
Q 969 2650 878 2297 
L 328 2372 
Q 403 2725 575 2942 
Q 747 3159 1072 3276 
Q 1397 3394 1825 3394 
Q 2250 3394 2515 3294 
Q 2781 3194 2906 3042 
Q 3031 2891 3081 2659 
Q 3109 2516 3109 2141 
L 3109 1391 
Q 3109 606 3145 398 
Q 3181 191 3288 0 
L 2700 0 
Q 2613 175 2588 409 
z
M 2541 1666 
Q 2234 1541 1622 1453 
Q 1275 1403 1131 1340 
Q 988 1278 909 1158 
Q 831 1038 831 891 
Q 831 666 1001 516 
Q 1172 366 1500 366 
Q 1825 366 2078 508 
Q 2331 650 2450 897 
Q 2541 1088 2541 1459 
L 2541 1666 
z
" transform="scale(0.015625)"/>
      <path id="ArialMT-6e" d="M 422 0 
L 422 3319 
L 928 3319 
L 928 2847 
Q 1294 3394 1984 3394 
Q 2284 3394 2536 3286 
Q 2788 3178 2913 3003 
Q 3038 2828 3088 2588 
Q 3119 2431 3119 2041 
L 3119 0 
L 2556 0 
L 2556 2019 
Q 2556 2363 2490 2533 
Q 2425 2703 2258 2804 
Q 2091 2906 1866 2906 
Q 1506 2906 1245 2678 
Q 984 2450 984 1813 
L 984 0 
L 422 0 
z
" transform="scale(0.015625)"/>
      <path id="ArialMT-73" d="M 197 991 
L 753 1078 
Q 800 744 1014 566 
Q 1228 388 1613 388 
Q 2000 388 2187 545 
Q 2375 703 2375 916 
Q 2375 1106 2209 1216 
Q 2094 1291 1634 1406 
Q 1016 1563 777 1677 
Q 538 1791 414 1992 
Q 291 2194 291 2438 
Q 291 2659 392 2848 
Q 494 3038 669 3163 
Q 800 3259 1026 3326 
Q 1253 3394 1513 3394 
Q 1903 3394 2198 3281 
Q 2494 3169 2634 2976 
Q 2775 2784 2828 2463 
L 2278 2388 
Q 2241 2644 2061 2787 
Q 1881 2931 1553 2931 
Q 1166 2931 1000 2803 
Q 834 2675 834 2503 
Q 834 2394 903 2306 
Q 972 2216 1119 2156 
Q 1203 2125 1616 2013 
Q 2213 1853 2448 1751 
Q 2684 1650 2818 1456 
Q 2953 1263 2953 975 
Q 2953 694 2789 445 
Q 2625 197 2315 61 
Q 2006 -75 1616 -75 
Q 969 -75 630 194 
Q 291 463 197 991 
z
" transform="scale(0.015625)"/>
      <path id="ArialMT-2d" d="M 203 1375 
L 203 1941 
L 1931 1941 
L 1931 1375 
L 203 1375 
z
" transform="scale(0.015625)"/>
      <path id="ArialMT-2c" d="M 569 0 
L 569 641 
L 1209 641 
L 1209 0 
Q 1209 -353 1084 -570 
Q 959 -788 688 -906 
L 531 -666 
Q 709 -588 793 -436 
Q 878 -284 888 0 
L 569 0 
z
" transform="scale(0.015625)"/>
      <path id="ArialMT-78" d="M 47 0 
L 1259 1725 
L 138 3319 
L 841 3319 
L 1350 2541 
Q 1494 2319 1581 2169 
Q 1719 2375 1834 2534 
L 2394 3319 
L 3066 3319 
L 1919 1756 
L 3153 0 
L 2463 0 
L 1781 1031 
L 1600 1309 
L 728 0 
L 47 0 
z
" transform="scale(0.015625)"/>
      <path id="ArialMT-59" d="M 1784 0 
L 1784 1941 
L 19 4581 
L 756 4581 
L 1659 3200 
Q 1909 2813 2125 2425 
Q 2331 2784 2625 3234 
L 3513 4581 
L 4219 4581 
L 2391 1941 
L 2391 0 
L 1784 0 
z
" transform="scale(0.015625)"/>
      <path id="ArialMT-3d" d="M 3381 2694 
L 356 2694 
L 356 3219 
L 3381 3219 
L 3381 2694 
z
M 3381 1303 
L 356 1303 
L 356 1828 
L 3381 1828 
L 3381 1303 
z
" transform="scale(0.015625)"/>
      <path id="ArialMT-28" d="M 1497 -1347 
Q 1031 -759 709 28 
Q 388 816 388 1659 
Q 388 2403 628 3084 
Q 909 3875 1497 4659 
L 1900 4659 
Q 1522 4009 1400 3731 
Q 1209 3300 1100 2831 
Q 966 2247 966 1656 
Q 966 153 1900 -1347 
L 1497 -1347 
z
" transform="scale(0.015625)"/>
      <path id="ArialMT-6f" d="M 213 1659 
Q 213 2581 725 3025 
Q 1153 3394 1769 3394 
Q 2453 3394 2887 2945 
Q 3322 2497 3322 1706 
Q 3322 1066 3130 698 
Q 2938 331 2570 128 
Q 2203 -75 1769 -75 
Q 1072 -75 642 372 
Q 213 819 213 1659 
z
M 791 1659 
Q 791 1022 1069 705 
Q 1347 388 1769 388 
Q 2188 388 2466 706 
Q 2744 1025 2744 1678 
Q 2744 2294 2464 2611 
Q 2184 2928 1769 2928 
Q 1347 2928 1069 2612 
Q 791 2297 791 1659 
z
" transform="scale(0.015625)"/>
      <path id="ArialMT-42" d="M 469 0 
L 469 4581 
L 2188 4581 
Q 2713 4581 3030 4442 
Q 3347 4303 3526 4014 
Q 3706 3725 3706 3409 
Q 3706 3116 3547 2856 
Q 3388 2597 3066 2438 
Q 3481 2316 3704 2022 
Q 3928 1728 3928 1328 
Q 3928 1006 3792 729 
Q 3656 453 3456 303 
Q 3256 153 2954 76 
Q 2653 0 2216 0 
L 469 0 
z
M 1075 2656 
L 2066 2656 
Q 2469 2656 2644 2709 
Q 2875 2778 2992 2937 
Q 3109 3097 3109 3338 
Q 3109 3566 3000 3739 
Q 2891 3913 2687 3977 
Q 2484 4041 1991 4041 
L 1075 4041 
L 1075 2656 
z
M 1075 541 
L 2216 541 
Q 2509 541 2628 563 
Q 2838 600 2978 687 
Q 3119 775 3209 942 
Q 3300 1109 3300 1328 
Q 3300 1584 3169 1773 
Q 3038 1963 2805 2039 
Q 2572 2116 2134 2116 
L 1075 2116 
L 1075 541 
z
" transform="scale(0.015625)"/>
      <path id="ArialMT-29" d="M 791 -1347 
L 388 -1347 
Q 1322 153 1322 1656 
Q 1322 2244 1188 2822 
Q 1081 3291 891 3722 
Q 769 4003 388 4659 
L 791 4659 
Q 1378 3875 1659 3084 
Q 1900 2403 1900 1659 
Q 1900 816 1576 28 
Q 1253 -759 791 -1347 
z
" transform="scale(0.015625)"/>
     </defs>
     <use xlink:href="#ArialMT-53"/>
     <use xlink:href="#ArialMT-20" x="66.699219"/>
     <use xlink:href="#ArialMT-64" x="94.482422"/>
     <use xlink:href="#ArialMT-65" x="150.097656"/>
     <use xlink:href="#ArialMT-76" x="205.712891"/>
     <use xlink:href="#ArialMT-69" x="255.712891"/>
     <use xlink:href="#ArialMT-63" x="277.929688"/>
     <use xlink:href="#ArialMT-65" x="327.929688"/>
     <use xlink:href="#ArialMT-20" x="383.544922"/>
     <use xlink:href="#ArialMT-74" x="411.328125"/>
     <use xlink:href="#ArialMT-72" x="439.111328"/>
     <use xlink:href="#ArialMT-61" x="472.412109"/>
     <use xlink:href="#ArialMT-6e" x="528.027344"/>
     <use xlink:href="#ArialMT-73" x="583.642578"/>
     <use xlink:href="#ArialMT-66" x="633.642578"/>
     <use xlink:href="#ArialMT-65" x="661.425781"/>
     <use xlink:href="#ArialMT-72" x="717.041016"/>
     <use xlink:href="#ArialMT-2d" x="750.341797"/>
     <use xlink:href="#ArialMT-65" x="783.642578"/>
     <use xlink:href="#ArialMT-6e" x="839.257812"/>
     <use xlink:href="#ArialMT-64" x="894.873047"/>
     <use xlink:href="#ArialMT-20" x="950.488281"/>
     <use xlink:href="#ArialMT-66" x="978.271484"/>
     <use xlink:href="#ArialMT-69" x="1006.054688"/>
     <use xlink:href="#ArialMT-65" x="1028.271484"/>
     <use xlink:href="#ArialMT-6c" x="1083.886719"/>
     <use xlink:href="#ArialMT-64" x="1106.103516"/>
     <use xlink:href="#ArialMT-2c" x="1161.71875"/>
     <use xlink:href="#ArialMT-20" x="1189.501953"/>
     <use xlink:href="#ArialMT-66" x="1217.285156"/>
     <use xlink:href="#ArialMT-69" x="1245.068359"/>
     <use xlink:href="#ArialMT-78" x="1267.285156"/>
     <use xlink:href="#ArialMT-65" x="1317.285156"/>
     <use xlink:href="#ArialMT-64" x="1372.900391"/>
     <use xlink:href="#ArialMT-20" x="1428.515625"/>
     <use xlink:href="#ArialMT-59" x="1454.548828"/>
     <use xlink:href="#ArialMT-3d" x="1521.248047"/>
     <use xlink:href="#ArialMT-2d" x="1579.646484"/>
     <use xlink:href="#ArialMT-36" x="1612.947266"/>
     <use xlink:href="#ArialMT-2e" x="1668.5625"/>
     <use xlink:href="#ArialMT-30" x="1696.345703"/>
     <use xlink:href="#ArialMT-20" x="1751.960938"/>
     <use xlink:href="#ArialMT-75" x="1779.744141"/>
     <use xlink:href="#ArialMT-6d" x="1835.359375"/>
     <use xlink:href="#ArialMT-20" x="1918.660156"/>
     <use xlink:href="#ArialMT-28" x="1946.443359"/>
     <use xlink:href="#ArialMT-6e" x="1979.744141"/>
     <use xlink:href="#ArialMT-6f" x="2035.359375"/>
     <use xlink:href="#ArialMT-74" x="2090.974609"/>
     <use xlink:href="#ArialMT-20" x="2118.757812"/>
     <use xlink:href="#ArialMT-42" x="2146.541016"/>
     <use xlink:href="#ArialMT-56" x="2213.240234"/>
     <use xlink:href="#ArialMT-29" x="2279.939453"/>
    </g>
   </g>
   <g id="legend_1">
    <g id="patch_7">
     <path d="M 178.992188 86.516875 
L 294.576563 86.516875 
Q 296.576563 86.516875 296.576563 84.516875 
L 296.576563 28.935625 
Q 296.576563 26.935625 294.576563 26.935625 
L 178.992188 26.935625 
Q 176.992188 26.935625 176.992188 28.935625 
L 176.992188 84.516875 
Q 176.992188 86.516875 178.992188 86.516875 
z
" style="fill: #ffffff; opacity: 0.8; stroke: #cccccc; stroke-linejoin: miter"/>
    </g>
    <g id="line2d_30">
     <path d="M 180.992188 34.593438 
L 190.992188 34.593438 
L 200.992188 34.593438 
" style="fill: none; stroke: #471365; stroke-width: 1.5; stroke-linecap: square"/>
    </g>
    <g id="text_16">
     <!-- 0K -->
     <g transform="translate(208.992188 38.093438) scale(0.1 -0.1)">
      <defs>
       <path id="ArialMT-4b" d="M 469 0 
L 469 4581 
L 1075 4581 
L 1075 2309 
L 3350 4581 
L 4172 4581 
L 2250 2725 
L 4256 0 
L 3456 0 
L 1825 2319 
L 1075 1588 
L 1075 0 
L 469 0 
z
" transform="scale(0.015625)"/>
      </defs>
      <use xlink:href="#ArialMT-30"/>
      <use xlink:href="#ArialMT-4b" x="55.615234"/>
     </g>
    </g>
    <g id="line2d_31">
     <path d="M 180.992188 48.73875 
L 190.992188 48.73875 
L 200.992188 48.73875 
" style="fill: none; stroke: #424186; stroke-width: 1.5; stroke-linecap: square"/>
    </g>
    <g id="text_17">
     <!-- 10K -->
     <g transform="translate(208.992188 52.23875) scale(0.1 -0.1)">
      <use xlink:href="#ArialMT-31"/>
      <use xlink:href="#ArialMT-30" x="55.615234"/>
      <use xlink:href="#ArialMT-4b" x="111.230469"/>
     </g>
    </g>
    <g id="line2d_32">
     <path d="M 180.992188 62.884063 
L 190.992188 62.884063 
L 200.992188 62.884063 
" style="fill: none; stroke: #306a8e; stroke-width: 1.5; stroke-linecap: square"/>
    </g>
    <g id="text_18">
     <!-- 20K -->
     <g transform="translate(208.992188 66.384063) scale(0.1 -0.1)">
      <use xlink:href="#ArialMT-32"/>
      <use xlink:href="#ArialMT-30" x="55.615234"/>
      <use xlink:href="#ArialMT-4b" x="111.230469"/>
     </g>
    </g>
    <g id="line2d_33">
     <path d="M 180.992188 77.029375 
L 190.992188 77.029375 
L 200.992188 77.029375 
" style="fill: none; stroke: #228d8d; stroke-width: 1.5; stroke-linecap: square"/>
    </g>
    <g id="text_19">
     <!-- 30K -->
     <g transform="translate(208.992188 80.529375) scale(0.1 -0.1)">
      <defs>
       <path id="ArialMT-33" d="M 269 1209 
L 831 1284 
Q 928 806 1161 595 
Q 1394 384 1728 384 
Q 2125 384 2398 659 
Q 2672 934 2672 1341 
Q 2672 1728 2419 1979 
Q 2166 2231 1775 2231 
Q 1616 2231 1378 2169 
L 1441 2663 
Q 1497 2656 1531 2656 
Q 1891 2656 2178 2843 
Q 2466 3031 2466 3422 
Q 2466 3731 2256 3934 
Q 2047 4138 1716 4138 
Q 1388 4138 1169 3931 
Q 950 3725 888 3313 
L 325 3413 
Q 428 3978 793 4289 
Q 1159 4600 1703 4600 
Q 2078 4600 2393 4439 
Q 2709 4278 2876 4000 
Q 3044 3722 3044 3409 
Q 3044 3113 2884 2869 
Q 2725 2625 2413 2481 
Q 2819 2388 3044 2092 
Q 3269 1797 3269 1353 
Q 3269 753 2831 336 
Q 2394 -81 1725 -81 
Q 1122 -81 723 278 
Q 325 638 269 1209 
z
" transform="scale(0.015625)"/>
      </defs>
      <use xlink:href="#ArialMT-33"/>
      <use xlink:href="#ArialMT-30" x="55.615234"/>
      <use xlink:href="#ArialMT-4b" x="111.230469"/>
     </g>
    </g>
    <g id="line2d_34">
     <path d="M 246.784375 34.593438 
L 256.784375 34.593438 
L 266.784375 34.593438 
" style="fill: none; stroke: #29af7f; stroke-width: 1.5; stroke-linecap: square"/>
    </g>
    <g id="text_20">
     <!-- 40K -->
     <g transform="translate(274.784375 38.093438) scale(0.1 -0.1)">
      <use xlink:href="#ArialMT-34"/>
      <use xlink:href="#ArialMT-30" x="55.615234"/>
      <use xlink:href="#ArialMT-4b" x="111.230469"/>
     </g>
    </g>
    <g id="line2d_35">
     <path d="M 246.784375 48.73875 
L 256.784375 48.73875 
L 266.784375 48.73875 
" style="fill: none; stroke: #6ccd5a; stroke-width: 1.5; stroke-linecap: square"/>
    </g>
    <g id="text_21">
     <!-- 50K -->
     <g transform="translate(274.784375 52.23875) scale(0.1 -0.1)">
      <use xlink:href="#ArialMT-35"/>
      <use xlink:href="#ArialMT-30" x="55.615234"/>
      <use xlink:href="#ArialMT-4b" x="111.230469"/>
     </g>
    </g>
    <g id="line2d_36">
     <path d="M 246.784375 62.884063 
L 256.784375 62.884063 
L 266.784375 62.884063 
" style="fill: none; stroke: #cae11f; stroke-width: 1.5; stroke-linecap: square"/>
    </g>
    <g id="text_22">
     <!-- 60K -->
     <g transform="translate(274.784375 66.384063) scale(0.1 -0.1)">
      <use xlink:href="#ArialMT-36"/>
      <use xlink:href="#ArialMT-30" x="55.615234"/>
      <use xlink:href="#ArialMT-4b" x="111.230469"/>
     </g>
    </g>
   </g>
  </g>
 </g>
 <defs>
  <clipPath id="p66d72a750b">
   <rect x="41.484375" y="21.935625" width="390.6" height="277.2"/>
  </clipPath>
 </defs>
</svg>
